<svg width="468" height="358" viewBox="0 0 468 358" fill="none" xmlns="http://www.w3.org/2000/svg">
<g clip-path="url(#clip0_226_338)">
<path d="M128.036 313.045L111.874 307.408C110.095 298.61 110.494 289.511 113.036 280.902C119.168 295.637 138.291 299.757 148.909 311.684C152.192 315.43 154.588 319.864 155.921 324.66C157.254 329.456 157.489 334.489 156.608 339.388L159.702 351.109C151.707 350.194 144.005 347.559 137.128 343.386C130.251 339.213 124.362 333.601 119.866 326.937C117.382 323.174 115.381 319.113 113.913 314.851C120.889 314.357 128.036 313.045 128.036 313.045Z" fill="#F2F2F2"/>
<path d="M315.7 208.282H231.07C229.873 208.283 228.726 208.76 227.88 209.606C227.035 210.452 226.56 211.599 226.562 212.794V346.255H320.22V212.794C320.22 212.201 320.103 211.614 319.876 211.067C319.649 210.519 319.316 210.022 318.897 209.603C318.477 209.183 317.978 208.851 317.43 208.624C316.881 208.398 316.293 208.281 315.7 208.282V208.282ZM273.67 284.113C271.023 284.1 268.488 283.045 266.617 281.177C264.746 279.309 263.689 276.779 263.676 274.136V258.743C263.676 256.097 264.729 253.559 266.603 251.689C268.477 249.818 271.019 248.767 273.67 248.767C276.32 248.767 278.862 249.818 280.736 251.689C282.61 253.559 283.663 256.097 283.663 258.743V274.136C283.651 276.779 282.594 279.309 280.722 281.177C278.851 283.045 276.316 284.1 273.67 284.113V284.113Z" fill="#E6E6E6"/>
<path d="M226.271 341.987V354.863C226.273 355.53 226.539 356.17 227.011 356.641C227.484 357.113 228.125 357.379 228.793 357.38H317.989C318.657 357.377 319.296 357.111 319.768 356.639C320.241 356.168 320.507 355.529 320.511 354.863V341.987H226.271Z" fill="#CCCCCC"/>
<path d="M455.838 0H94.0807C90.9726 0.00493614 87.9933 1.23969 85.7955 3.43367C83.5978 5.62764 82.3609 8.60191 82.356 11.7047V255.404C82.3589 258.507 83.5952 261.482 85.7934 263.677C87.9915 265.871 90.972 267.105 94.0807 267.108H455.838C458.947 267.105 461.928 265.871 464.126 263.677C466.324 261.482 467.56 258.507 467.563 255.404V11.7047C467.558 8.60191 466.321 5.62764 464.124 3.43367C461.926 1.23969 458.946 0.00493614 455.838 0V0Z" fill="#E6E6E6"/>
<path d="M452.817 8.45081H97.1043C95.4397 8.45475 93.8445 9.11765 92.6688 10.2941C91.4931 11.4705 90.8328 13.0645 90.8328 14.7263V252.383C90.8346 254.043 91.496 255.634 92.6717 256.808C93.8475 257.982 95.4416 258.642 97.1043 258.644H452.817C454.48 258.642 456.074 257.982 457.25 256.808C458.426 255.634 459.087 254.043 459.089 252.383V14.7263C459.089 13.0645 458.429 11.4705 457.253 10.2941C456.077 9.11763 454.482 8.45475 452.817 8.45081V8.45081Z" fill="white"/>
<path d="M461.228 13.8276V220.684C433.858 228.649 404.634 227.494 377.981 217.395C351.327 207.296 328.695 188.803 313.512 164.715C298.328 140.627 291.419 112.257 293.832 83.8985C296.244 55.5405 307.845 28.7391 326.88 7.55209H454.956C456.621 7.55604 458.216 8.21893 459.392 9.39538C460.568 10.5718 461.228 12.1658 461.228 13.8276V13.8276Z" fill="#1FADE0"/>
<path d="M434.937 41.1981H102.096C101.75 41.1908 101.42 41.0483 101.178 40.8013C100.936 40.5543 100.8 40.2224 100.8 39.8768C100.8 39.5311 100.936 39.1992 101.178 38.9522C101.42 38.7052 101.75 38.5628 102.096 38.5554H434.937C435.284 38.5628 435.613 38.7052 435.855 38.9522C436.098 39.1992 436.233 39.5311 436.233 39.8768C436.233 40.2224 436.098 40.5543 435.855 40.8013C435.613 41.0483 435.284 41.1908 434.937 41.1981V41.1981Z" fill="#CACACA"/>
<path d="M124.753 31.8089C129.037 31.8089 132.51 28.2646 132.51 23.8925C132.51 19.5204 129.037 15.9761 124.753 15.9761C120.469 15.9761 116.996 19.5204 116.996 23.8925C116.996 28.2646 120.469 31.8089 124.753 31.8089Z" fill="#3F3D56"/>
<path d="M151.55 31.8089C155.834 31.8089 159.307 28.2646 159.307 23.8925C159.307 19.5204 155.834 15.9761 151.55 15.9761C147.266 15.9761 143.793 19.5204 143.793 23.8925C143.793 28.2646 147.266 31.8089 151.55 31.8089Z" fill="#3F3D56"/>
<path d="M178.347 31.8089C182.631 31.8089 186.104 28.2646 186.104 23.8925C186.104 19.5204 182.631 15.9761 178.347 15.9761C174.063 15.9761 170.59 19.5204 170.59 23.8925C170.59 28.2646 174.063 31.8089 178.347 31.8089Z" fill="#3F3D56"/>
<path d="M418.803 17.9383H399.768C399.391 17.9458 399.032 18.1007 398.767 18.3697C398.503 18.6387 398.355 19.0004 398.355 19.3771C398.355 19.7539 398.503 20.1156 398.767 20.3846C399.032 20.6536 399.391 20.8085 399.768 20.816H418.803C419.181 20.8085 419.54 20.6536 419.804 20.3846C420.068 20.1156 420.216 19.7539 420.216 19.3771C420.216 19.0004 420.068 18.6387 419.804 18.3697C419.54 18.1007 419.181 17.9458 418.803 17.9383V17.9383Z" fill="#3F3D56"/>
<path d="M418.803 23.3393H399.768C399.391 23.3468 399.032 23.5016 398.767 23.7707C398.503 24.0397 398.355 24.4014 398.355 24.7781C398.355 25.1548 398.503 25.5165 398.767 25.7855C399.032 26.0546 399.391 26.2095 399.768 26.217H418.803C419.181 26.2095 419.54 26.0546 419.804 25.7855C420.068 25.5165 420.216 25.1548 420.216 24.7781C420.216 24.4014 420.068 24.0397 419.804 23.7707C419.54 23.5016 419.181 23.3468 418.803 23.3393V23.3393Z" fill="#3F3D56"/>
<path d="M418.803 28.7332H399.768C399.391 28.7407 399.032 28.8955 398.767 29.1646C398.503 29.4336 398.355 29.7953 398.355 30.172C398.355 30.5487 398.503 30.9104 398.767 31.1794C399.032 31.4485 399.391 31.6034 399.768 31.6109H418.803C419.181 31.6034 419.54 31.4485 419.804 31.1794C420.068 30.9104 420.216 30.5487 420.216 30.172C420.216 29.7953 420.068 29.4336 419.804 29.1646C419.54 28.8955 419.181 28.7407 418.803 28.7332V28.7332Z" fill="#3F3D56"/>
<path d="M186.066 185.985C186.556 185.452 186.923 184.82 187.141 184.13C187.359 183.441 187.424 182.713 187.33 181.996C187.236 181.279 186.985 180.592 186.596 179.982C186.207 179.373 185.689 178.856 185.078 178.468L189.137 161.371L180.546 164.504L178.009 180.259C177.424 181.327 177.251 182.572 177.524 183.758C177.797 184.944 178.497 185.989 179.49 186.694C180.483 187.4 181.701 187.718 182.913 187.587C184.125 187.456 185.246 186.886 186.066 185.985H186.066Z" fill="#FFB6B6"/>
<path d="M206.724 114.341L203.276 123.191C203.276 123.191 204.754 132.042 202.291 134.008C199.829 135.975 200.814 135.975 200.814 137.45C200.729 138.508 200.422 139.537 199.913 140.468C199.404 141.4 198.704 142.215 197.859 142.859C195.889 144.334 187.023 174.326 187.023 174.326H178.158C178.444 172.041 178.444 169.728 178.158 167.443C177.665 164.001 179.635 155.151 180.62 153.676C181.605 152.201 180.62 150.234 180.62 147.284C180.62 144.334 182.59 142.859 182.59 137.942C182.59 133.025 188.501 94.6737 188.008 90.2486C187.516 85.8234 192.933 81.89 192.933 81.89H197.859L206.724 114.341Z" fill="#E6E6E6"/>
<path d="M238.709 344.889H245.534L248.782 318.609H238.709V344.889Z" fill="#FFB6B6"/>
<path d="M236.482 340.222L247.385 339.573V344.236L257.751 351.383C258.263 351.736 258.649 352.243 258.852 352.83C259.055 353.418 259.064 354.054 258.879 354.647C258.694 355.24 258.324 355.759 257.822 356.127C257.321 356.495 256.715 356.693 256.093 356.693H243.112L240.875 352.08L240.001 356.693H235.107L236.482 340.222Z" fill="#2F2E41"/>
<path d="M153.172 339.101L159.513 341.62L172.266 318.404L162.908 314.685L153.172 339.101Z" fill="#FFB6B6"/>
<path d="M152.832 333.943L163.202 337.365L161.475 341.698L168.458 352.165C168.803 352.682 168.973 353.296 168.944 353.916C168.915 354.537 168.688 355.132 168.297 355.614C167.905 356.097 167.369 356.442 166.767 356.599C166.165 356.756 165.528 356.716 164.95 356.487L152.89 351.694L152.52 346.582L149.999 350.545L145.452 348.738L152.832 333.943Z" fill="#2F2E41"/>
<path d="M224.952 266.692L213.572 213.674L195.801 272.581L167.662 328.441L167.512 328.738L158.599 323.947C157.341 301.265 160.329 280.011 171.256 261.425L176.431 210.413C176.589 208.669 180.449 167.748 192.671 160.491L196.25 152.344L231.85 143.567L231.979 143.712C235.403 147.553 237.664 152.285 238.501 157.358L249.138 221.69L249.144 221.726L246.292 266.605L250.193 332.817H236.076C227.343 316.412 223.635 294.371 224.952 266.692Z" fill="#2F2E41"/>
<path d="M258.614 90.1236L280.196 82.5863C280.865 82.3553 281.598 82.3984 282.235 82.7062C282.873 83.014 283.362 83.5614 283.596 84.2286C283.829 84.8957 283.789 85.6281 283.483 86.2654C283.177 86.9027 282.63 87.3929 281.963 87.6287L260.381 95.166C259.712 95.397 258.978 95.3539 258.341 95.0461C257.704 94.7383 257.215 94.1909 256.981 93.5238C256.747 92.8566 256.788 92.1242 257.094 91.4869C257.4 90.8496 257.947 90.3594 258.614 90.1236V90.1236Z" fill="#2F2E41"/>
<path d="M281.803 86.9426C282.225 88.4016 284.047 89.1102 285.517 88.7213C286.972 88.2236 288.182 87.1904 288.9 85.8325C289.69 84.5348 290.233 83.0974 291.046 81.8136C292.606 79.3743 295.046 77.6277 297.861 76.9354C295.353 76.6054 292.805 77.0873 290.591 78.3101C289.812 78.8438 288.952 79.2485 288.044 79.5085C287.075 79.5598 286.104 79.5472 285.137 79.4707C284.283 79.5141 283.459 79.8004 282.762 80.2958C282.066 80.7912 281.525 81.4751 281.205 82.2668C280.885 83.0585 280.798 83.9251 280.955 84.7645C281.112 85.6038 281.506 86.3809 282.091 87.0042" fill="#1FADE0"/>
<path d="M278.981 89.2632C278.89 89.9803 278.643 90.6688 278.257 91.2802C277.87 91.8917 277.355 92.4112 276.746 92.8021C276.137 93.193 275.449 93.4458 274.732 93.5428C274.014 93.6398 273.284 93.5786 272.593 93.3634L262.135 107.496L258.985 98.9237L269.399 86.8177C269.838 85.6824 270.679 84.7473 271.763 84.1896C272.846 83.632 274.097 83.4904 275.278 83.7919C276.459 84.0933 277.488 84.8168 278.171 85.8252C278.853 86.8336 279.141 88.0568 278.981 89.2632V89.2632Z" fill="#FFB6B6"/>
<path d="M185.757 169.605C184.798 169.605 184.254 169.417 184.043 169.015C183.733 168.424 184.27 167.652 184.892 166.758C185.325 166.136 186.592 164.897 185.969 164.821C176.525 163.67 181.059 105.545 185.151 97.862C185.983 96.3009 185.103 93.9057 186.039 91.2566C188.597 84.0215 192.089 81.7979 199.045 77.3688C199.609 77.0092 200.197 76.6336 200.809 76.242C201.599 75.7348 201.555 74.0528 201.509 72.2717C201.457 70.2921 201.403 68.245 202.375 66.9655L202.438 66.882L202.54 66.8584C204.89 66.3161 212.792 65.3095 217.472 66.8657L217.537 66.8877L217.585 66.9356C218.697 68.0454 218.798 70.1952 218.896 72.2739C218.977 73.9807 219.052 75.5921 219.681 76.2922C224.49 81.6429 229.944 81.5386 229.999 81.5375L230.269 81.5296L230.296 81.7979C233.667 88.2037 231.028 111.994 233.371 126.772C235.752 141.785 256.083 154.565 238.674 156.834C238.711 156.892 238.732 156.959 238.734 157.028C238.736 157.096 238.72 157.164 238.686 157.224C237.634 159.186 189.37 169.605 185.757 169.605Z" fill="#E6E6E6"/>
<path d="M240.867 125.881L231.466 120.602C215.073 109.258 211.034 100.25 210.53 94.688C209.991 88.7534 213.158 85.5073 213.294 85.3726L213.367 85.3191L221.841 80.9964C222.918 80.4474 224.099 80.1331 225.306 80.0743C226.514 80.0155 227.72 80.2136 228.844 80.6555C229.969 81.0973 230.987 81.7728 231.831 82.6371C232.674 83.5015 233.324 84.535 233.737 85.6691L241.576 107.191L250.267 100.792L253.973 99.3336L256.964 95.3413L265.178 90.5587L271.28 96.0413L263.606 111.362L259.343 112.446L258.439 114.771L258.358 114.823L240.867 125.881Z" fill="#E6E6E6"/>
<path d="M224.041 57.0237C222.296 60.2089 219.517 62.7059 216.16 64.1035C212.804 65.5011 209.071 65.7159 205.576 64.7126C202.081 63.7093 199.032 61.5477 196.932 58.5837C194.832 55.6198 193.806 52.0303 194.023 48.4063C194.239 44.7823 195.686 41.3401 198.124 38.6463C200.562 35.9526 203.846 34.168 207.436 33.5866C211.025 33.0051 214.706 33.6614 217.872 35.4474C221.039 37.2333 223.501 40.0425 224.854 43.4122C224.928 43.595 224.993 43.7779 225.059 43.968C225.824 46.0923 226.129 48.3544 225.954 50.605C225.778 52.8555 225.126 55.0433 224.041 57.0237Z" fill="#FFB6B6"/>
<path d="M226.341 43.968C225.653 42.0444 225.953 43.0465 225.257 41.1302C225.481 42.0743 225.412 43.064 225.059 43.968H206.003V32.9092C211.586 30.7003 217.044 28.8206 220.341 32.9092C223.279 32.9093 226.096 34.0745 228.174 36.1484C230.251 38.2223 231.419 41.0351 231.419 43.968H226.341Z" fill="#2F2E41"/>
<path d="M219.586 74.7091C219.572 74.5043 219.55 74.2922 219.52 74.0874C219.264 72.585 218.849 71.1139 218.282 69.699C217.733 68.1557 217.176 66.6051 216.619 65.0618C217.336 67.8632 217.117 70.8217 215.996 73.4876C212.78 70.9862 214.809 65.2666 210.604 65.2666C200.493 65.2666 190.089 57.0822 190.089 46.9814C190.089 36.8879 194.427 29.3398 204.537 29.3398C214.655 29.3398 222.861 33.9623 223.059 44.0558C210.604 46.9814 221.938 73.6852 219.586 74.7091Z" fill="#2F2E41"/>
<path d="M191.353 45.4344C197.827 45.4344 203.076 40.195 203.076 33.7318C203.076 27.2687 197.827 22.0293 191.353 22.0293C184.879 22.0293 179.63 27.2687 179.63 33.7318C179.63 40.195 184.879 45.4344 191.353 45.4344Z" fill="#2F2E41"/>
<path d="M195.284 34.1865C193.276 36.5197 190.133 37.4266 187.298 38.6408C182.293 40.8323 177.9 44.2094 174.499 48.479C171.098 52.7487 168.791 57.7822 167.78 63.143C166.996 67.5095 167.098 72.0296 165.86 76.2864C164.629 80.5432 161.581 84.7195 157.207 85.4582C154.247 85.9629 151.28 84.8219 148.496 83.6955C146.965 83.0812 145.433 82.4643 143.902 81.8451C145.499 77.8443 147.094 73.8435 148.686 69.8427C146.127 73.6184 143.151 77.0949 139.814 80.2067C134.326 77.9979 128.834 75.789 123.336 73.5801C136.861 73.6313 134.553 60.5245 137.579 47.3738C139.242 40.1475 153.405 35.2544 156.182 28.3791C157.682 24.65 160.221 21.4281 163.499 19.0947C166.776 16.7613 170.654 15.414 174.675 15.2124C178.695 15.0108 182.69 15.9633 186.185 17.9571C189.68 19.9509 192.53 22.9026 194.397 26.4628C197.174 27.5673 197.254 31.8826 195.284 34.1865Z" fill="#2F2E41"/>
<path d="M463.88 357.743L0.736499 358C0.541166 358 0.353836 357.895 0.215715 357.708C0.077594 357.521 0 357.267 0 357.003C0 356.738 0.077594 356.485 0.215715 356.298C0.353836 356.111 0.541166 356.006 0.736499 356.006L463.88 355.748C464.076 355.748 464.263 355.853 464.401 356.04C464.539 356.227 464.617 356.481 464.617 356.746C464.617 357.01 464.539 357.264 464.401 357.451C464.263 357.638 464.076 357.743 463.88 357.743V357.743Z" fill="#CACACA"/>
</g>
<defs>
<clipPath id="clip0_226_338">
<rect width="468" height="358" fill="white"/>
</clipPath>
</defs>
</svg>
