<svg width="668" height="475" viewBox="0 0 668 475" fill="none" xmlns="http://www.w3.org/2000/svg">
<rect width="668" height="475" fill="#EBF2F4"/>
<rect width="668" height="4" fill="#E01FAD" fill-opacity="0.15"/>
<rect y="8" width="668" height="4" fill="#E01FAD" fill-opacity="0.15"/>
<rect y="16" width="668" height="4" fill="#E01FAD" fill-opacity="0.15"/>
<rect y="24" width="668" height="4" fill="#E01FAD" fill-opacity="0.15"/>
<rect y="32" width="668" height="4" fill="#E01FAD" fill-opacity="0.15"/>
<rect y="40" width="668" height="4" fill="#E01FAD" fill-opacity="0.15"/>
<rect y="48" width="668" height="4" fill="#E01FAD" fill-opacity="0.15"/>
<rect y="56" width="668" height="4" fill="#E01FAD" fill-opacity="0.15"/>
<rect y="64" width="668" height="4" fill="#E01FAD" fill-opacity="0.15"/>
<rect y="72" width="668" height="4" fill="#E01FAD" fill-opacity="0.15"/>
<rect y="80" width="668" height="4" fill="#E01FAD" fill-opacity="0.15"/>
<rect y="88" width="668" height="4" fill="#E01FAD" fill-opacity="0.15"/>
<rect y="96" width="668" height="4" fill="#E01FAD" fill-opacity="0.15"/>
<rect y="104" width="668" height="4" fill="#E01FAD" fill-opacity="0.15"/>
<rect y="112" width="668" height="4" fill="#E01FAD" fill-opacity="0.15"/>
<rect y="120" width="668" height="4" fill="#E01FAD" fill-opacity="0.15"/>
<rect y="128" width="668" height="4" fill="#E01FAD" fill-opacity="0.15"/>
<rect y="136" width="668" height="4" fill="#E01FAD" fill-opacity="0.15"/>
<rect y="144" width="668" height="4" fill="#E01FAD" fill-opacity="0.15"/>
<rect y="152" width="668" height="4" fill="#E01FAD" fill-opacity="0.15"/>
<rect y="160" width="668" height="4" fill="#E01FAD" fill-opacity="0.15"/>
<rect y="168" width="668" height="4" fill="#E01FAD" fill-opacity="0.15"/>
<rect y="176" width="668" height="4" fill="#E01FAD" fill-opacity="0.15"/>
<rect y="184" width="668" height="4" fill="#E01FAD" fill-opacity="0.15"/>
<rect y="192" width="668" height="4" fill="#E01FAD" fill-opacity="0.15"/>
<rect y="200" width="668" height="4" fill="#E01FAD" fill-opacity="0.15"/>
<rect y="208" width="668" height="4" fill="#E01FAD" fill-opacity="0.15"/>
<rect y="216" width="668" height="4" fill="#E01FAD" fill-opacity="0.15"/>
<rect y="224" width="668" height="4" fill="#E01FAD" fill-opacity="0.15"/>
<rect y="232" width="668" height="4" fill="#E01FAD" fill-opacity="0.15"/>
<rect y="240" width="668" height="4" fill="#E01FAD" fill-opacity="0.15"/>
<rect y="248" width="668" height="4" fill="#E01FAD" fill-opacity="0.15"/>
<rect y="256" width="668" height="4" fill="#E01FAD" fill-opacity="0.15"/>
<rect y="264" width="668" height="4" fill="#E01FAD" fill-opacity="0.15"/>
<rect y="272" width="668" height="4" fill="#E01FAD" fill-opacity="0.15"/>
<rect y="280" width="668" height="4" fill="#E01FAD" fill-opacity="0.15"/>
<rect y="288" width="668" height="4" fill="#E01FAD" fill-opacity="0.15"/>
<rect y="296" width="668" height="4" fill="#E01FAD" fill-opacity="0.15"/>
<rect y="304" width="668" height="4" fill="#E01FAD" fill-opacity="0.15"/>
<rect y="312" width="668" height="4" fill="#E01FAD" fill-opacity="0.15"/>
<rect y="320" width="668" height="4" fill="#E01FAD" fill-opacity="0.15"/>
<rect y="328" width="668" height="4" fill="#E01FAD" fill-opacity="0.15"/>
<rect y="336" width="668" height="4" fill="#E01FAD" fill-opacity="0.15"/>
<rect y="344" width="668" height="4" fill="#E01FAD" fill-opacity="0.15"/>
<rect y="352" width="668" height="4" fill="#E01FAD" fill-opacity="0.15"/>
<rect y="360" width="668" height="4" fill="#E01FAD" fill-opacity="0.15"/>
<rect y="368" width="668" height="4" fill="#E01FAD" fill-opacity="0.15"/>
<rect y="376" width="668" height="4" fill="#E01FAD" fill-opacity="0.15"/>
<rect y="384" width="668" height="4" fill="#E01FAD" fill-opacity="0.15"/>
<rect y="392" width="668" height="4" fill="#E01FAD" fill-opacity="0.15"/>
<rect y="400" width="668" height="4" fill="#E01FAD" fill-opacity="0.15"/>
<rect y="408" width="668" height="4" fill="#E01FAD" fill-opacity="0.15"/>
<rect y="416" width="668" height="4" fill="#E01FAD" fill-opacity="0.15"/>
<rect y="424" width="668" height="4" fill="#E01FAD" fill-opacity="0.15"/>
<rect y="432" width="668" height="4" fill="#E01FAD" fill-opacity="0.15"/>
<rect y="440" width="668" height="4" fill="#E01FAD" fill-opacity="0.15"/>
<rect y="448" width="668" height="4" fill="#E01FAD" fill-opacity="0.15"/>
<rect y="456" width="668" height="4" fill="#E01FAD" fill-opacity="0.15"/>
<rect y="464" width="668" height="4" fill="#E01FAD" fill-opacity="0.15"/>
<rect y="472" width="668" height="3" fill="#E01FAD" fill-opacity="0.15"/>
<path d="M17.4347 68V53.4545H23.0028C24.054 53.4545 24.9276 53.6203 25.6236 53.9517C26.3243 54.2784 26.8475 54.7259 27.1932 55.294C27.5436 55.8622 27.7188 56.5062 27.7188 57.2259C27.7188 57.8177 27.6051 58.3243 27.3778 58.7457C27.1506 59.1624 26.8452 59.5009 26.4616 59.7614C26.0781 60.0218 25.6496 60.2088 25.1761 60.3224V60.4645C25.6922 60.4929 26.187 60.6515 26.6605 60.9403C27.1387 61.2244 27.5294 61.6269 27.8324 62.1477C28.1354 62.6686 28.2869 63.2983 28.2869 64.0369C28.2869 64.7898 28.1046 65.4669 27.7401 66.0682C27.3755 66.6648 26.8262 67.1359 26.0923 67.4815C25.3584 67.8272 24.4351 68 23.3224 68H17.4347ZM20.0696 65.7983H22.9034C23.8598 65.7983 24.5488 65.616 24.9702 65.2514C25.3963 64.8821 25.6094 64.4086 25.6094 63.831C25.6094 63.4001 25.5028 63.0118 25.2898 62.6662C25.0767 62.3158 24.7737 62.0412 24.3807 61.8423C23.9877 61.6387 23.5189 61.5369 22.9744 61.5369H20.0696V65.7983ZM20.0696 59.6406H22.6761C23.1307 59.6406 23.5402 59.5578 23.9048 59.392C24.2694 59.2216 24.5559 58.9825 24.7642 58.6747C24.9773 58.3622 25.0838 57.9929 25.0838 57.5668C25.0838 57.0033 24.8849 56.5393 24.4872 56.1747C24.0942 55.8101 23.5095 55.6278 22.733 55.6278H20.0696V59.6406ZM33.6048 68.2202C32.9135 68.2202 32.2908 68.0971 31.7369 67.8509C31.1876 67.5999 30.752 67.2306 30.43 66.7429C30.1128 66.2552 29.9542 65.6539 29.9542 64.9389C29.9542 64.3234 30.0678 63.8144 30.2951 63.4119C30.5224 63.0095 30.8325 62.6875 31.2255 62.446C31.6185 62.2045 32.0612 62.0223 32.5536 61.8991C33.0508 61.7713 33.5645 61.679 34.0948 61.6222C34.734 61.5559 35.2525 61.4967 35.6502 61.4446C36.0479 61.3878 36.3368 61.3026 36.5167 61.1889C36.7013 61.0705 36.7937 60.8883 36.7937 60.642V60.5994C36.7937 60.0644 36.6351 59.6501 36.3178 59.3565C36.0006 59.063 35.5437 58.9162 34.9471 58.9162C34.3174 58.9162 33.8178 59.0535 33.4485 59.3281C33.0839 59.6027 32.8377 59.9271 32.7099 60.3011L30.3093 59.9602C30.4987 59.2973 30.8112 58.7434 31.2468 58.2983C31.6824 57.8485 32.2151 57.5123 32.8448 57.2898C33.4746 57.0625 34.1706 56.9489 34.9329 56.9489C35.4585 56.9489 35.9817 57.0104 36.5025 57.1335C37.0233 57.2566 37.4992 57.4602 37.93 57.7443C38.3609 58.0237 38.7066 58.4048 38.967 58.8878C39.2321 59.3707 39.3647 59.9744 39.3647 60.6989V68H36.8931V66.5014H36.8079C36.6516 66.8045 36.4315 67.0885 36.1474 67.3537C35.868 67.6141 35.5153 67.8248 35.0891 67.9858C34.6677 68.142 34.1729 68.2202 33.6048 68.2202ZM34.2724 66.331C34.7885 66.331 35.2359 66.2292 35.6147 66.0256C35.9935 65.8172 36.2847 65.5426 36.4883 65.2017C36.6966 64.8608 36.8008 64.4891 36.8008 64.0866V62.8011C36.7203 62.8674 36.583 62.929 36.3888 62.9858C36.1995 63.0426 35.9864 63.0923 35.7496 63.1349C35.5129 63.1776 35.2785 63.2154 35.0465 63.2486C34.8145 63.2817 34.6133 63.3101 34.4428 63.3338C34.0593 63.3859 33.716 63.4711 33.413 63.5895C33.11 63.7079 32.8709 63.8736 32.6957 64.0866C32.5205 64.295 32.4329 64.5649 32.4329 64.8963C32.4329 65.3698 32.6057 65.7273 32.9513 65.9688C33.297 66.2102 33.7373 66.331 34.2724 66.331ZM50.5721 59.9744L48.2283 60.2301C48.1621 59.9934 48.046 59.7708 47.8803 59.5625C47.7193 59.3542 47.5015 59.1861 47.2269 59.0582C46.9523 58.9304 46.6161 58.8665 46.2184 58.8665C45.6834 58.8665 45.2335 58.9825 44.869 59.2145C44.5091 59.4465 44.3316 59.7472 44.3363 60.1165C44.3316 60.4337 44.4476 60.6918 44.6843 60.8906C44.9258 61.0895 45.3235 61.2528 45.8775 61.3807L47.7383 61.7784C48.7705 62.0009 49.5375 62.3537 50.0394 62.8366C50.546 63.3196 50.8017 63.9517 50.8065 64.733C50.8017 65.4195 50.6005 66.0256 50.2028 66.5511C49.8098 67.072 49.2629 67.4792 48.5621 67.7727C47.8614 68.0663 47.0565 68.2131 46.1474 68.2131C44.8121 68.2131 43.7373 67.9337 42.9229 67.375C42.1085 66.8116 41.6232 66.0279 41.467 65.0241L43.9741 64.7827C44.0877 65.2751 44.3292 65.6468 44.6985 65.8977C45.0678 66.1487 45.5484 66.2741 46.1403 66.2741C46.7511 66.2741 47.2411 66.1487 47.6104 65.8977C47.9845 65.6468 48.1715 65.3366 48.1715 64.9673C48.1715 64.6548 48.0508 64.3968 47.8093 64.1932C47.5726 63.9896 47.2032 63.8333 46.7013 63.7244L44.8406 63.3338C43.7942 63.116 43.02 62.7491 42.5181 62.233C42.0162 61.7121 41.7676 61.054 41.7724 60.2585C41.7676 59.5862 41.9499 59.0038 42.3192 58.5114C42.6933 58.0142 43.2118 57.6307 43.8746 57.3608C44.5423 57.0862 45.3117 56.9489 46.1829 56.9489C47.4613 56.9489 48.4674 57.2211 49.2013 57.7656C49.94 58.3101 50.3969 59.0464 50.5721 59.9744ZM57.756 68.2131C56.6623 68.2131 55.7177 67.9858 54.9222 67.5312C54.1315 67.072 53.5231 66.4233 53.0969 65.5852C52.6708 64.7424 52.4577 63.7505 52.4577 62.6094C52.4577 61.4872 52.6708 60.5024 53.0969 59.6548C53.5278 58.8026 54.1291 58.1397 54.9009 57.6662C55.6727 57.188 56.5794 56.9489 57.6211 56.9489C58.2934 56.9489 58.9279 57.0578 59.5245 57.2756C60.1258 57.4886 60.6561 57.8201 61.1154 58.2699C61.5794 58.7197 61.944 59.2926 62.2092 59.9886C62.4743 60.6799 62.6069 61.5038 62.6069 62.4602V63.2486H53.6651V61.5156H60.1424C60.1377 61.0232 60.0311 60.5852 59.8228 60.2017C59.6145 59.8134 59.3233 59.508 58.9492 59.2855C58.5799 59.063 58.149 58.9517 57.6566 58.9517C57.131 58.9517 56.6694 59.0795 56.2717 59.3352C55.8739 59.5862 55.5638 59.9176 55.3413 60.3295C55.1235 60.7367 55.0122 61.1842 55.0075 61.6719V63.1847C55.0075 63.8191 55.1235 64.3636 55.3555 64.8182C55.5875 65.268 55.9118 65.6136 56.3285 65.8551C56.7451 66.0919 57.2328 66.2102 57.7915 66.2102C58.1656 66.2102 58.5041 66.1581 58.8072 66.054C59.1102 65.9451 59.373 65.7865 59.5955 65.5781C59.8181 65.3698 59.9862 65.1117 60.0998 64.804L62.5004 65.0739C62.3488 65.7083 62.06 66.2623 61.6339 66.7358C61.2125 67.2045 60.6727 67.5691 60.0146 67.8295C59.3564 68.0852 58.6036 68.2131 57.756 68.2131ZM67.353 53.4545V68H64.782V53.4545H67.353ZM69.9968 68V57.0909H72.5678V68H69.9968ZM71.2894 55.5426C70.8822 55.5426 70.5318 55.4077 70.2383 55.1378C69.9447 54.8632 69.7979 54.5341 69.7979 54.1506C69.7979 53.7623 69.9447 53.4332 70.2383 53.1634C70.5318 52.8887 70.8822 52.7514 71.2894 52.7514C71.7013 52.7514 72.0517 52.8887 72.3406 53.1634C72.6341 53.4332 72.7809 53.7623 72.7809 54.1506C72.7809 54.5341 72.6341 54.8632 72.3406 55.1378C72.0517 55.4077 71.7013 55.5426 71.2894 55.5426ZM77.7827 61.608V68H75.2116V57.0909H77.669V58.9446H77.7969C78.0478 58.3338 78.4479 57.8485 78.9972 57.4886C79.5511 57.1288 80.2353 56.9489 81.0497 56.9489C81.8026 56.9489 82.4583 57.1098 83.017 57.4318C83.5805 57.7538 84.0161 58.2202 84.3239 58.831C84.6364 59.4418 84.7902 60.1828 84.7855 61.054V68H82.2145V61.4517C82.2145 60.7225 82.0251 60.152 81.6463 59.7401C81.2723 59.3281 80.7538 59.1222 80.0909 59.1222C79.6411 59.1222 79.241 59.2216 78.8906 59.4205C78.545 59.6146 78.2727 59.8963 78.0739 60.2656C77.8797 60.6349 77.7827 61.0824 77.7827 61.608ZM92.2287 68.2131C91.1349 68.2131 90.1903 67.9858 89.3949 67.5312C88.6042 67.072 87.9957 66.4233 87.5696 65.5852C87.1435 64.7424 86.9304 63.7505 86.9304 62.6094C86.9304 61.4872 87.1435 60.5024 87.5696 59.6548C88.0005 58.8026 88.6018 58.1397 89.3736 57.6662C90.1454 57.188 91.0521 56.9489 92.0938 56.9489C92.7661 56.9489 93.4006 57.0578 93.9972 57.2756C94.5985 57.4886 95.1288 57.8201 95.5881 58.2699C96.0521 58.7197 96.4167 59.2926 96.6818 59.9886C96.947 60.6799 97.0795 61.5038 97.0795 62.4602V63.2486H88.1378V61.5156H94.6151C94.6103 61.0232 94.5038 60.5852 94.2955 60.2017C94.0871 59.8134 93.7959 59.508 93.4219 59.2855C93.0526 59.063 92.6217 58.9517 92.1293 58.9517C91.6037 58.9517 91.142 59.0795 90.7443 59.3352C90.3466 59.5862 90.0365 59.9176 89.8139 60.3295C89.5961 60.7367 89.4848 61.1842 89.4801 61.6719V63.1847C89.4801 63.8191 89.5961 64.3636 89.8281 64.8182C90.0601 65.268 90.3845 65.6136 90.8011 65.8551C91.2178 66.0919 91.7055 66.2102 92.2642 66.2102C92.6383 66.2102 92.9768 66.1581 93.2798 66.054C93.5829 65.9451 93.8456 65.7865 94.0682 65.5781C94.2907 65.3698 94.4588 65.1117 94.5724 64.804L96.973 65.0739C96.8215 65.7083 96.5327 66.2623 96.1065 66.7358C95.6851 67.2045 95.1454 67.5691 94.4872 67.8295C93.8291 68.0852 93.0762 68.2131 92.2287 68.2131ZM114.074 58.0994C113.955 57.7159 113.792 57.3726 113.583 57.0696C113.38 56.7618 113.134 56.4991 112.845 56.2812C112.561 56.0634 112.234 55.9001 111.865 55.7912C111.495 55.6776 111.093 55.6207 110.657 55.6207C109.876 55.6207 109.18 55.8172 108.569 56.2102C107.958 56.6032 107.478 57.1809 107.127 57.9432C106.782 58.7008 106.609 59.6241 106.609 60.7131C106.609 61.8116 106.782 62.742 107.127 63.5043C107.473 64.2666 107.954 64.8466 108.569 65.2443C109.185 65.6373 109.9 65.8338 110.714 65.8338C111.453 65.8338 112.092 65.6918 112.632 65.4077C113.176 65.1236 113.595 64.7211 113.889 64.2003C114.182 63.6747 114.329 63.0592 114.329 62.3537L114.926 62.446H110.977V60.3864H116.879V62.1335C116.879 63.3788 116.614 64.456 116.083 65.3651C115.553 66.2741 114.824 66.9749 113.896 67.4673C112.968 67.955 111.903 68.1989 110.7 68.1989C109.36 68.1989 108.183 67.8982 107.17 67.2969C106.162 66.6908 105.373 65.8314 104.805 64.7188C104.242 63.6013 103.96 62.2756 103.96 60.7415C103.96 59.5672 104.126 58.5185 104.457 57.5952C104.793 56.6719 105.262 55.8883 105.863 55.2443C106.465 54.5956 107.17 54.1032 107.98 53.767C108.789 53.4261 109.67 53.2557 110.622 53.2557C111.427 53.2557 112.177 53.3741 112.873 53.6108C113.569 53.8428 114.187 54.1742 114.727 54.6051C115.271 55.036 115.719 55.5473 116.069 56.1392C116.42 56.7311 116.649 57.3845 116.758 58.0994H114.074ZM119.313 68V57.0909H121.806V58.9091H121.92C122.119 58.2794 122.46 57.794 122.942 57.4531C123.43 57.1075 123.987 56.9347 124.612 56.9347C124.754 56.9347 124.912 56.9418 125.087 56.956C125.267 56.9654 125.416 56.982 125.535 57.0057V59.3707C125.426 59.3329 125.253 59.2997 125.016 59.2713C124.784 59.2382 124.559 59.2216 124.342 59.2216C123.873 59.2216 123.451 59.3234 123.077 59.527C122.708 59.7259 122.417 60.0028 122.204 60.358C121.991 60.7131 121.884 61.1226 121.884 61.5866V68H119.313ZM127.243 68V57.0909H129.814V68H127.243ZM128.536 55.5426C128.128 55.5426 127.778 55.4077 127.484 55.1378C127.191 54.8632 127.044 54.5341 127.044 54.1506C127.044 53.7623 127.191 53.4332 127.484 53.1634C127.778 52.8887 128.128 52.7514 128.536 52.7514C128.947 52.7514 129.298 52.8887 129.587 53.1634C129.88 53.4332 130.027 53.7623 130.027 54.1506C130.027 54.5341 129.88 54.8632 129.587 55.1378C129.298 55.4077 128.947 55.5426 128.536 55.5426ZM136.506 68.1918C135.649 68.1918 134.882 67.9716 134.205 67.5312C133.528 67.0909 132.993 66.4517 132.6 65.6136C132.207 64.7756 132.01 63.7576 132.01 62.5597C132.01 61.3475 132.209 60.3248 132.607 59.4915C133.009 58.6534 133.551 58.0213 134.233 57.5952C134.915 57.1643 135.675 56.9489 136.513 56.9489C137.152 56.9489 137.678 57.0578 138.09 57.2756C138.502 57.4886 138.828 57.7467 139.07 58.0497C139.311 58.348 139.498 58.6297 139.631 58.8949H139.738V53.4545H142.316V68H139.787V66.2812H139.631C139.498 66.5464 139.307 66.8281 139.056 67.1264C138.805 67.42 138.473 67.6709 138.061 67.8793C137.65 68.0876 137.131 68.1918 136.506 68.1918ZM137.223 66.0824C137.768 66.0824 138.232 65.9356 138.615 65.642C138.999 65.3437 139.29 64.9295 139.489 64.3991C139.688 63.8688 139.787 63.2509 139.787 62.5455C139.787 61.84 139.688 61.2268 139.489 60.706C139.295 60.1851 139.006 59.7803 138.623 59.4915C138.244 59.2027 137.777 59.0582 137.223 59.0582C136.65 59.0582 136.172 59.2074 135.789 59.5057C135.405 59.804 135.116 60.2159 134.922 60.7415C134.728 61.267 134.631 61.8684 134.631 62.5455C134.631 63.2273 134.728 63.8357 134.922 64.3707C135.121 64.901 135.412 65.3201 135.796 65.6278C136.184 65.9309 136.66 66.0824 137.223 66.0824ZM158.638 59.9744L156.295 60.2301C156.228 59.9934 156.112 59.7708 155.947 59.5625C155.786 59.3542 155.568 59.1861 155.293 59.0582C155.019 58.9304 154.683 58.8665 154.285 58.8665C153.75 58.8665 153.3 58.9825 152.935 59.2145C152.576 59.4465 152.398 59.7472 152.403 60.1165C152.398 60.4337 152.514 60.6918 152.751 60.8906C152.992 61.0895 153.39 61.2528 153.944 61.3807L155.805 61.7784C156.837 62.0009 157.604 62.3537 158.106 62.8366C158.612 63.3196 158.868 63.9517 158.873 64.733C158.868 65.4195 158.667 66.0256 158.269 66.5511C157.876 67.072 157.329 67.4792 156.629 67.7727C155.928 68.0663 155.123 68.2131 154.214 68.2131C152.879 68.2131 151.804 67.9337 150.989 67.375C150.175 66.8116 149.69 66.0279 149.533 65.0241L152.04 64.7827C152.154 65.2751 152.396 65.6468 152.765 65.8977C153.134 66.1487 153.615 66.2741 154.207 66.2741C154.817 66.2741 155.308 66.1487 155.677 65.8977C156.051 65.6468 156.238 65.3366 156.238 64.9673C156.238 64.6548 156.117 64.3968 155.876 64.1932C155.639 63.9896 155.27 63.8333 154.768 63.7244L152.907 63.3338C151.861 63.116 151.086 62.7491 150.585 62.233C150.083 61.7121 149.834 61.054 149.839 60.2585C149.834 59.5862 150.016 59.0038 150.386 58.5114C150.76 58.0142 151.278 57.6307 151.941 57.3608C152.609 57.0862 153.378 56.9489 154.249 56.9489C155.528 56.9489 156.534 57.2211 157.268 57.7656C158.006 58.3101 158.463 59.0464 158.638 59.9744ZM163.564 53.4545V68H160.993V53.4545H163.564ZM170.966 68.2131C169.901 68.2131 168.978 67.9787 168.196 67.5099C167.415 67.0412 166.809 66.3854 166.378 65.5426C165.952 64.6998 165.739 63.715 165.739 62.5881C165.739 61.4612 165.952 60.474 166.378 59.6264C166.809 58.7789 167.415 58.1207 168.196 57.652C168.978 57.1832 169.901 56.9489 170.966 56.9489C172.032 56.9489 172.955 57.1832 173.736 57.652C174.517 58.1207 175.121 58.7789 175.547 59.6264C175.978 60.474 176.194 61.4612 176.194 62.5881C176.194 63.715 175.978 64.6998 175.547 65.5426C175.121 66.3854 174.517 67.0412 173.736 67.5099C172.955 67.9787 172.032 68.2131 170.966 68.2131ZM170.98 66.1534C171.558 66.1534 172.041 65.9948 172.429 65.6776C172.818 65.3556 173.106 64.9247 173.296 64.3849C173.49 63.8452 173.587 63.2438 173.587 62.581C173.587 61.9134 173.49 61.3097 173.296 60.7699C173.106 60.2254 172.818 59.7921 172.429 59.4702C172.041 59.1482 171.558 58.9872 170.98 58.9872C170.389 58.9872 169.896 59.1482 169.503 59.4702C169.115 59.7921 168.824 60.2254 168.63 60.7699C168.44 61.3097 168.346 61.9134 168.346 62.581C168.346 63.2438 168.44 63.8452 168.63 64.3849C168.824 64.9247 169.115 65.3556 169.503 65.6776C169.896 65.9948 170.389 66.1534 170.98 66.1534ZM185.329 63.4119V57.0909H187.9V68H185.407V66.0611H185.293C185.047 66.6719 184.642 67.1714 184.079 67.5597C183.52 67.9479 182.831 68.142 182.012 68.142C181.297 68.142 180.665 67.9834 180.116 67.6662C179.571 67.3442 179.145 66.8778 178.837 66.267C178.53 65.6515 178.376 64.9081 178.376 64.0369V57.0909H180.947V63.6392C180.947 64.3305 181.136 64.8797 181.515 65.2869C181.894 65.6941 182.391 65.8977 183.006 65.8977C183.385 65.8977 183.752 65.8054 184.107 65.6207C184.462 65.4361 184.754 65.1615 184.981 64.7969C185.213 64.4276 185.329 63.9659 185.329 63.4119ZM190.402 68V66.3665L196.027 59.3139V59.2216H190.586V57.0909H199.173V58.8452L193.818 65.777V65.8693H199.358V68H190.402ZM193.385 52.6165L194.826 54.4347L196.268 52.6165H198.52V52.7159L195.828 55.7841H193.818L191.133 52.7159V52.6165H193.385ZM201.774 68V57.0909H204.345V68H201.774ZM202.08 55.6562L203.67 52.4105H206.185L204.004 55.6562H202.08ZM211.95 57.0909H214.521V68.625C214.521 69.411 214.372 70.0597 214.074 70.571C213.775 71.0824 213.344 71.4635 212.781 71.7145C212.217 71.9654 211.533 72.0909 210.728 72.0909C210.634 72.0909 210.546 72.0885 210.466 72.0838C210.385 72.0838 210.297 72.0814 210.203 72.0767V69.9815C210.274 69.9863 210.338 69.9886 210.395 69.9886C210.451 69.9934 210.511 69.9957 210.572 69.9957C211.065 69.9957 211.417 69.875 211.63 69.6335C211.843 69.3968 211.95 69.0488 211.95 68.5895V57.0909ZM213.228 55.5426C212.816 55.5426 212.464 55.4077 212.17 55.1378C211.881 54.8632 211.737 54.5341 211.737 54.1506C211.737 53.7623 211.881 53.4332 212.17 53.1634C212.464 52.8887 212.816 52.7514 213.228 52.7514C213.636 52.7514 213.984 52.8887 214.272 53.1634C214.566 53.4332 214.713 53.7623 214.713 54.1506C214.713 54.5341 214.566 54.8632 214.272 55.1378C213.984 55.4077 213.636 55.5426 213.228 55.5426ZM220.304 68.2202C219.613 68.2202 218.99 68.0971 218.436 67.8509C217.887 67.5999 217.451 67.2306 217.129 66.7429C216.812 66.2552 216.653 65.6539 216.653 64.9389C216.653 64.3234 216.767 63.8144 216.994 63.4119C217.222 63.0095 217.532 62.6875 217.925 62.446C218.318 62.2045 218.76 62.0223 219.253 61.8991C219.75 61.7713 220.264 61.679 220.794 61.6222C221.433 61.5559 221.952 61.4967 222.349 61.4446C222.747 61.3878 223.036 61.3026 223.216 61.1889C223.401 61.0705 223.493 60.8883 223.493 60.642V60.5994C223.493 60.0644 223.334 59.6501 223.017 59.3565C222.7 59.063 222.243 58.9162 221.646 58.9162C221.017 58.9162 220.517 59.0535 220.148 59.3281C219.783 59.6027 219.537 59.9271 219.409 60.3011L217.009 59.9602C217.198 59.2973 217.51 58.7434 217.946 58.2983C218.382 57.8485 218.914 57.5123 219.544 57.2898C220.174 57.0625 220.87 56.9489 221.632 56.9489C222.158 56.9489 222.681 57.0104 223.202 57.1335C223.723 57.2566 224.198 57.4602 224.629 57.7443C225.06 58.0237 225.406 58.4048 225.666 58.8878C225.931 59.3707 226.064 59.9744 226.064 60.6989V68H223.592V66.5014H223.507C223.351 66.8045 223.131 67.0885 222.847 67.3537C222.567 67.6141 222.214 67.8248 221.788 67.9858C221.367 68.142 220.872 68.2202 220.304 68.2202ZM220.972 66.331C221.488 66.331 221.935 66.2292 222.314 66.0256C222.693 65.8172 222.984 65.5426 223.188 65.2017C223.396 64.8608 223.5 64.4891 223.5 64.0866V62.8011C223.42 62.8674 223.282 62.929 223.088 62.9858C222.899 63.0426 222.686 63.0923 222.449 63.1349C222.212 63.1776 221.978 63.2154 221.746 63.2486C221.514 63.2817 221.313 63.3101 221.142 63.3338C220.759 63.3859 220.415 63.4711 220.112 63.5895C219.809 63.7079 219.57 63.8736 219.395 64.0866C219.22 64.295 219.132 64.5649 219.132 64.8963C219.132 65.3698 219.305 65.7273 219.651 65.9688C219.996 66.2102 220.437 66.331 220.972 66.331ZM230.993 64.5767L230.986 61.473H231.398L235.318 57.0909H238.322L233.5 62.4602H232.967L230.993 64.5767ZM228.649 68V53.4545H231.22V68H228.649ZM235.496 68L231.945 63.0355L233.678 61.2244L238.571 68H235.496ZM244.345 68.2131C243.28 68.2131 242.357 67.9787 241.575 67.5099C240.794 67.0412 240.188 66.3854 239.757 65.5426C239.331 64.6998 239.118 63.715 239.118 62.5881C239.118 61.4612 239.331 60.474 239.757 59.6264C240.188 58.7789 240.794 58.1207 241.575 57.652C242.357 57.1832 243.28 56.9489 244.345 56.9489C245.411 56.9489 246.334 57.1832 247.115 57.652C247.896 58.1207 248.5 58.7789 248.926 59.6264C249.357 60.474 249.572 61.4612 249.572 62.5881C249.572 63.715 249.357 64.6998 248.926 65.5426C248.5 66.3854 247.896 67.0412 247.115 67.5099C246.334 67.9787 245.411 68.2131 244.345 68.2131ZM244.359 66.1534C244.937 66.1534 245.42 65.9948 245.808 65.6776C246.196 65.3556 246.485 64.9247 246.675 64.3849C246.869 63.8452 246.966 63.2438 246.966 62.581C246.966 61.9134 246.869 61.3097 246.675 60.7699C246.485 60.2254 246.196 59.7921 245.808 59.4702C245.42 59.1482 244.937 58.9872 244.359 58.9872C243.768 58.9872 243.275 59.1482 242.882 59.4702C242.494 59.7921 242.203 60.2254 242.009 60.7699C241.819 61.3097 241.724 61.9134 241.724 62.581C241.724 63.2438 241.819 63.8452 242.009 64.3849C242.203 64.9247 242.494 65.3556 242.882 65.6776C243.275 65.9948 243.768 66.1534 244.359 66.1534ZM266.46 57.0909L262.575 68H259.734L255.849 57.0909H258.591L261.098 65.1946H261.211L263.725 57.0909H266.46ZM272.697 68.2131C271.604 68.2131 270.659 67.9858 269.864 67.5312C269.073 67.072 268.464 66.4233 268.038 65.5852C267.612 64.7424 267.399 63.7505 267.399 62.6094C267.399 61.4872 267.612 60.5024 268.038 59.6548C268.469 58.8026 269.071 58.1397 269.842 57.6662C270.614 57.188 271.521 56.9489 272.562 56.9489C273.235 56.9489 273.869 57.0578 274.466 57.2756C275.067 57.4886 275.598 57.8201 276.057 58.2699C276.521 58.7197 276.885 59.2926 277.151 59.9886C277.416 60.6799 277.548 61.5038 277.548 62.4602V63.2486H268.607V61.5156H275.084C275.079 61.0232 274.973 60.5852 274.764 60.2017C274.556 59.8134 274.265 59.508 273.891 59.2855C273.521 59.063 273.09 58.9517 272.598 58.9517C272.072 58.9517 271.611 59.0795 271.213 59.3352C270.815 59.5862 270.505 59.9176 270.283 60.3295C270.065 60.7367 269.954 61.1842 269.949 61.6719V63.1847C269.949 63.8191 270.065 64.3636 270.297 64.8182C270.529 65.268 270.853 65.6136 271.27 65.8551C271.687 66.0919 272.174 66.2102 272.733 66.2102C273.107 66.2102 273.446 66.1581 273.749 66.054C274.052 65.9451 274.314 65.7865 274.537 65.5781C274.759 65.3698 274.928 65.1117 275.041 64.804L277.442 65.0739C277.29 65.7083 277.001 66.2623 276.575 66.7358C276.154 67.2045 275.614 67.5691 274.956 67.8295C274.298 68.0852 273.545 68.2131 272.697 68.2131ZM283.772 68.1918C282.915 68.1918 282.148 67.9716 281.471 67.5312C280.793 67.0909 280.258 66.4517 279.865 65.6136C279.472 64.7756 279.276 63.7576 279.276 62.5597C279.276 61.3475 279.475 60.3248 279.873 59.4915C280.275 58.6534 280.817 58.0213 281.499 57.5952C282.181 57.1643 282.941 56.9489 283.779 56.9489C284.418 56.9489 284.944 57.0578 285.355 57.2756C285.767 57.4886 286.094 57.7467 286.336 58.0497C286.577 58.348 286.764 58.6297 286.897 58.8949H287.003V53.4545H289.581V68H287.053V66.2812H286.897C286.764 66.5464 286.572 66.8281 286.321 67.1264C286.07 67.42 285.739 67.6709 285.327 67.8793C284.915 68.0876 284.397 68.1918 283.772 68.1918ZM284.489 66.0824C285.033 66.0824 285.498 65.9356 285.881 65.642C286.265 65.3437 286.556 64.9295 286.755 64.3991C286.953 63.8688 287.053 63.2509 287.053 62.5455C287.053 61.84 286.953 61.2268 286.755 60.706C286.56 60.1851 286.272 59.7803 285.888 59.4915C285.509 59.2027 285.043 59.0582 284.489 59.0582C283.916 59.0582 283.438 59.2074 283.054 59.5057C282.671 59.804 282.382 60.2159 282.188 60.7415C281.994 61.267 281.897 61.8684 281.897 62.5455C281.897 63.2273 281.994 63.8357 282.188 64.3707C282.387 64.901 282.678 65.3201 283.061 65.6278C283.45 65.9309 283.926 66.0824 284.489 66.0824ZM297.151 68.2131C296.057 68.2131 295.112 67.9858 294.317 67.5312C293.526 67.072 292.918 66.4233 292.491 65.5852C292.065 64.7424 291.852 63.7505 291.852 62.6094C291.852 61.4872 292.065 60.5024 292.491 59.6548C292.922 58.8026 293.524 58.1397 294.295 57.6662C295.067 57.188 295.974 56.9489 297.016 56.9489C297.688 56.9489 298.322 57.0578 298.919 57.2756C299.52 57.4886 300.051 57.8201 300.51 58.2699C300.974 58.7197 301.339 59.2926 301.604 59.9886C301.869 60.6799 302.001 61.5038 302.001 62.4602V63.2486H293.06V61.5156H299.537C299.532 61.0232 299.426 60.5852 299.217 60.2017C299.009 59.8134 298.718 59.508 298.344 59.2855C297.974 59.063 297.544 58.9517 297.051 58.9517C296.526 58.9517 296.064 59.0795 295.666 59.3352C295.268 59.5862 294.958 59.9176 294.736 60.3295C294.518 60.7367 294.407 61.1842 294.402 61.6719V63.1847C294.402 63.8191 294.518 64.3636 294.75 64.8182C294.982 65.268 295.306 65.6136 295.723 65.8551C296.14 66.0919 296.627 66.2102 297.186 66.2102C297.56 66.2102 297.899 66.1581 298.202 66.054C298.505 65.9451 298.768 65.7865 298.99 65.5781C299.213 65.3698 299.381 65.1117 299.494 64.804L301.895 65.0739C301.743 65.7083 301.455 66.2623 301.028 66.7358C300.607 67.2045 300.067 67.5691 299.409 67.8295C298.751 68.0852 297.998 68.2131 297.151 68.2131ZM306.748 61.608V68H304.176V57.0909H306.634V58.9446H306.762C307.013 58.3338 307.413 57.8485 307.962 57.4886C308.516 57.1288 309.2 56.9489 310.015 56.9489C310.767 56.9489 311.423 57.1098 311.982 57.4318C312.545 57.7538 312.981 58.2202 313.289 58.831C313.601 59.4418 313.755 60.1828 313.75 61.054V68H311.179V61.4517C311.179 60.7225 310.99 60.152 310.611 59.7401C310.237 59.3281 309.719 59.1222 309.056 59.1222C308.606 59.1222 308.206 59.2216 307.855 59.4205C307.51 59.6146 307.238 59.8963 307.039 60.2656C306.845 60.6349 306.748 61.0824 306.748 61.608ZM316.364 68V57.0909H318.935V68H316.364ZM316.669 55.6562L318.26 52.4105H320.775L318.594 55.6562H316.669ZM17.321 96.0909V81.0909H19.8494V82.8949H19.9986C20.1312 82.6297 20.3182 82.348 20.5597 82.0497C20.8011 81.7467 21.1278 81.4886 21.5398 81.2756C21.9517 81.0578 22.4773 80.9489 23.1165 80.9489C23.9593 80.9489 24.7192 81.1643 25.3963 81.5952C26.0781 82.0213 26.6179 82.6534 27.0156 83.4915C27.4181 84.3248 27.6193 85.3475 27.6193 86.5597C27.6193 87.7576 27.4228 88.7756 27.0298 89.6136C26.6368 90.4517 26.1018 91.0909 25.4247 91.5312C24.7476 91.9716 23.9806 92.1918 23.1236 92.1918C22.4986 92.1918 21.9801 92.0876 21.5682 91.8793C21.1563 91.6709 20.8248 91.42 20.5739 91.1264C20.3277 90.8281 20.1359 90.5464 19.9986 90.2812H19.892V96.0909H17.321ZM19.8423 86.5455C19.8423 87.2509 19.9418 87.8688 20.1406 88.3991C20.3442 88.9295 20.6354 89.3437 21.0142 89.642C21.3977 89.9356 21.8617 90.0824 22.4062 90.0824C22.9744 90.0824 23.4503 89.9309 23.8338 89.6278C24.2173 89.3201 24.5062 88.901 24.7003 88.3707C24.8991 87.8357 24.9986 87.2273 24.9986 86.5455C24.9986 85.8684 24.9015 85.267 24.7074 84.7415C24.5133 84.2159 24.2244 83.804 23.8409 83.5057C23.4574 83.2074 22.9792 83.0582 22.4062 83.0582C21.857 83.0582 21.3906 83.2027 21.0071 83.4915C20.6236 83.7803 20.3324 84.1851 20.1335 84.706C19.9394 85.2268 19.8423 85.84 19.8423 86.5455ZM29.821 92V81.0909H32.3139V82.9091H32.4276C32.6264 82.2794 32.9673 81.794 33.4503 81.4531C33.938 81.1075 34.4943 80.9347 35.1193 80.9347C35.2614 80.9347 35.42 80.9418 35.5952 80.956C35.7751 80.9654 35.9242 80.982 36.0426 81.0057V83.3707C35.9337 83.3329 35.7609 83.2997 35.5241 83.2713C35.2921 83.2382 35.0672 83.2216 34.8494 83.2216C34.3807 83.2216 33.9593 83.3234 33.5852 83.527C33.2159 83.7259 32.9247 84.0028 32.7116 84.358C32.4986 84.7131 32.392 85.1226 32.392 85.5866V92H29.821ZM42.06 92.2131C40.9947 92.2131 40.0714 91.9787 39.2901 91.5099C38.5089 91.0412 37.9028 90.3854 37.4719 89.5426C37.0458 88.6998 36.8327 87.715 36.8327 86.5881C36.8327 85.4612 37.0458 84.474 37.4719 83.6264C37.9028 82.7789 38.5089 82.1207 39.2901 81.652C40.0714 81.1832 40.9947 80.9489 42.06 80.9489C43.1254 80.9489 44.0487 81.1832 44.8299 81.652C45.6112 82.1207 46.2148 82.7789 46.641 83.6264C47.0719 84.474 47.2873 85.4612 47.2873 86.5881C47.2873 87.715 47.0719 88.6998 46.641 89.5426C46.2148 90.3854 45.6112 91.0412 44.8299 91.5099C44.0487 91.9787 43.1254 92.2131 42.06 92.2131ZM42.0742 90.1534C42.6519 90.1534 43.1348 89.9948 43.5231 89.6776C43.9113 89.3556 44.2002 88.9247 44.3896 88.3849C44.5837 87.8452 44.6808 87.2438 44.6808 86.581C44.6808 85.9134 44.5837 85.3097 44.3896 84.7699C44.2002 84.2254 43.9113 83.7921 43.5231 83.4702C43.1348 83.1482 42.6519 82.9872 42.0742 82.9872C41.4824 82.9872 40.9899 83.1482 40.5969 83.4702C40.2087 83.7921 39.9175 84.2254 39.7234 84.7699C39.534 85.3097 39.4393 85.9134 39.4393 86.581C39.4393 87.2438 39.534 87.8452 39.7234 88.3849C39.9175 88.9247 40.2087 89.3556 40.5969 89.6776C40.9899 89.9948 41.4824 90.1534 42.0742 90.1534ZM57.0014 85.608V92H54.4304V81.0909H56.8878V82.9446H57.0156C57.2666 82.3338 57.6667 81.8485 58.2159 81.4886C58.7699 81.1288 59.4541 80.9489 60.2685 80.9489C61.0213 80.9489 61.6771 81.1098 62.2358 81.4318C62.7992 81.7538 63.2348 82.2202 63.5426 82.831C63.8551 83.4418 64.009 84.1828 64.0043 85.054V92H61.4332V85.4517C61.4332 84.7225 61.2438 84.152 60.8651 83.7401C60.491 83.3281 59.9725 83.1222 59.3097 83.1222C58.8598 83.1222 58.4598 83.2216 58.1094 83.4205C57.7637 83.6146 57.4915 83.8963 57.2926 84.2656C57.0985 84.6349 57.0014 85.0824 57.0014 85.608ZM69.7571 92.2202C69.0658 92.2202 68.4432 92.0971 67.8892 91.8509C67.34 91.5999 66.9044 91.2306 66.5824 90.7429C66.2652 90.2552 66.1065 89.6539 66.1065 88.9389C66.1065 88.3234 66.2202 87.8144 66.4474 87.4119C66.6747 87.0095 66.9848 86.6875 67.3778 86.446C67.7708 86.2045 68.2135 86.0223 68.706 85.8991C69.2031 85.7713 69.7169 85.679 70.2472 85.6222C70.8864 85.5559 71.4048 85.4967 71.8026 85.4446C72.2003 85.3878 72.4891 85.3026 72.669 85.1889C72.8537 85.0705 72.946 84.8883 72.946 84.642V84.5994C72.946 84.0644 72.7874 83.6501 72.4702 83.3565C72.1529 83.063 71.696 82.9162 71.0994 82.9162C70.4697 82.9162 69.9702 83.0535 69.6009 83.3281C69.2363 83.6027 68.9901 83.9271 68.8622 84.3011L66.4616 83.9602C66.651 83.2973 66.9635 82.7434 67.3991 82.2983C67.8348 81.8485 68.3674 81.5123 68.9972 81.2898C69.6269 81.0625 70.3229 80.9489 71.0852 80.9489C71.6108 80.9489 72.134 81.0104 72.6548 81.1335C73.1757 81.2566 73.6515 81.4602 74.0824 81.7443C74.5133 82.0237 74.8589 82.4048 75.1193 82.8878C75.3845 83.3707 75.517 83.9744 75.517 84.6989V92H73.0455V90.5014H72.9602C72.804 90.8045 72.5838 91.0885 72.2997 91.3537C72.0204 91.6141 71.6676 91.8248 71.2415 91.9858C70.8201 92.142 70.3253 92.2202 69.7571 92.2202ZM70.4247 90.331C70.9408 90.331 71.3883 90.2292 71.767 90.0256C72.1458 89.8172 72.437 89.5426 72.6406 89.2017C72.849 88.8608 72.9531 88.4891 72.9531 88.0866V86.8011C72.8726 86.8674 72.7353 86.929 72.5412 86.9858C72.3518 87.0426 72.1387 87.0923 71.902 87.1349C71.6652 87.1776 71.4309 87.2154 71.1989 87.2486C70.9669 87.2817 70.7656 87.3101 70.5952 87.3338C70.2116 87.3859 69.8684 87.4711 69.5653 87.5895C69.2623 87.7079 69.0232 87.8736 68.848 88.0866C68.6728 88.295 68.5852 88.5649 68.5852 88.8963C68.5852 89.3698 68.758 89.7273 69.1037 89.9688C69.4493 90.2102 69.8897 90.331 70.4247 90.331ZM70.2116 79.6562L71.8026 76.4105H74.3168L72.1364 79.6562H70.2116ZM86.7244 83.9744L84.3807 84.2301C84.3144 83.9934 84.1984 83.7708 84.0327 83.5625C83.8717 83.3542 83.6539 83.1861 83.3793 83.0582C83.1046 82.9304 82.7685 82.8665 82.3707 82.8665C81.8357 82.8665 81.3859 82.9825 81.0213 83.2145C80.6615 83.4465 80.4839 83.7472 80.4886 84.1165C80.4839 84.4337 80.5999 84.6918 80.8366 84.8906C81.0781 85.0895 81.4759 85.2528 82.0298 85.3807L83.8906 85.7784C84.9228 86.0009 85.6899 86.3537 86.1918 86.8366C86.6984 87.3196 86.9541 87.9517 86.9588 88.733C86.9541 89.4195 86.7528 90.0256 86.3551 90.5511C85.9621 91.072 85.4152 91.4792 84.7145 91.7727C84.0137 92.0663 83.2088 92.2131 82.2997 92.2131C80.9645 92.2131 79.8897 91.9337 79.0753 91.375C78.2609 90.8116 77.7756 90.0279 77.6193 89.0241L80.1264 88.7827C80.2401 89.2751 80.4815 89.6468 80.8509 89.8977C81.2202 90.1487 81.7008 90.2741 82.2926 90.2741C82.9034 90.2741 83.3935 90.1487 83.7628 89.8977C84.1368 89.6468 84.3239 89.3366 84.3239 88.9673C84.3239 88.6548 84.2031 88.3968 83.9616 88.1932C83.7249 87.9896 83.3556 87.8333 82.8537 87.7244L80.9929 87.3338C79.9465 87.116 79.1723 86.7491 78.6705 86.233C78.1686 85.7121 77.92 85.054 77.9247 84.2585C77.92 83.5862 78.1023 83.0038 78.4716 82.5114C78.8456 82.0142 79.3641 81.6307 80.027 81.3608C80.6946 81.0862 81.464 80.9489 82.3352 80.9489C83.6136 80.9489 84.6198 81.2211 85.3537 81.7656C86.0923 82.3101 86.5492 83.0464 86.7244 83.9744ZM80.9432 76.6165L82.3849 78.4347L83.8267 76.6165H86.0781V76.7159L83.3935 79.7841H81.3835L78.6918 76.7159V76.6165H80.9432ZM99.4872 81.0909V83.0795H93.2159V81.0909H99.4872ZM94.7642 78.4773H97.3352V88.7188C97.3352 89.0644 97.3873 89.3295 97.4915 89.5142C97.6004 89.6941 97.7424 89.8172 97.9176 89.8835C98.0928 89.9498 98.2869 89.983 98.5 89.983C98.661 89.983 98.8078 89.9711 98.9403 89.9474C99.0777 89.9238 99.1818 89.9025 99.2528 89.8835L99.6861 91.8935C99.5488 91.9408 99.3523 91.9929 99.0966 92.0497C98.8456 92.1065 98.5379 92.1397 98.1733 92.1491C97.5294 92.1681 96.9493 92.071 96.4332 91.858C95.9171 91.6402 95.5076 91.304 95.2045 90.8494C94.9063 90.3949 94.7595 89.8267 94.7642 89.1449V78.4773ZM106.35 92.2131C105.256 92.2131 104.311 91.9858 103.516 91.5312C102.725 91.072 102.117 90.4233 101.691 89.5852C101.265 88.7424 101.051 87.7505 101.051 86.6094C101.051 85.4872 101.265 84.5024 101.691 83.6548C102.122 82.8026 102.723 82.1397 103.495 81.6662C104.266 81.188 105.173 80.9489 106.215 80.9489C106.887 80.9489 107.522 81.0578 108.118 81.2756C108.72 81.4886 109.25 81.8201 109.709 82.2699C110.173 82.7197 110.538 83.2926 110.803 83.9886C111.068 84.6799 111.201 85.5038 111.201 86.4602V87.2486H102.259V85.5156H108.736C108.731 85.0232 108.625 84.5852 108.417 84.2017C108.208 83.8134 107.917 83.508 107.543 83.2855C107.174 83.063 106.743 82.9517 106.25 82.9517C105.725 82.9517 105.263 83.0795 104.865 83.3352C104.468 83.5862 104.158 83.9176 103.935 84.3295C103.717 84.7367 103.606 85.1842 103.601 85.6719V87.1847C103.601 87.8191 103.717 88.3636 103.949 88.8182C104.181 89.268 104.506 89.6136 104.922 89.8551C105.339 90.0919 105.827 90.2102 106.385 90.2102C106.759 90.2102 107.098 90.1581 107.401 90.054C107.704 89.9451 107.967 89.7865 108.189 89.5781C108.412 89.3698 108.58 89.1117 108.694 88.804L111.094 89.0739C110.943 89.7083 110.654 90.2623 110.228 90.7358C109.806 91.2045 109.266 91.5691 108.608 91.8295C107.95 92.0852 107.197 92.2131 106.35 92.2131ZM115.244 81.0909L117.445 85.1179L119.683 81.0909H122.403L119.114 86.5455L122.46 92H119.754L117.445 88.0724L115.158 92H112.431L115.755 86.5455L112.516 81.0909H115.244ZM129.839 81.0909V83.0795H123.567V81.0909H129.839ZM125.116 78.4773H127.687V88.7188C127.687 89.0644 127.739 89.3295 127.843 89.5142C127.952 89.6941 128.094 89.8172 128.269 89.8835C128.444 89.9498 128.638 89.983 128.852 89.983C129.013 89.983 129.159 89.9711 129.292 89.9474C129.429 89.9238 129.533 89.9025 129.604 89.8835L130.038 91.8935C129.9 91.9408 129.704 91.9929 129.448 92.0497C129.197 92.1065 128.889 92.1397 128.525 92.1491C127.881 92.1681 127.301 92.071 126.785 91.858C126.269 91.6402 125.859 91.304 125.556 90.8494C125.258 90.3949 125.111 89.8267 125.116 89.1449V78.4773ZM140.089 92.2202C139.398 92.2202 138.775 92.0971 138.221 91.8509C137.672 91.5999 137.236 91.2306 136.914 90.7429C136.597 90.2552 136.439 89.6539 136.439 88.9389C136.439 88.3234 136.552 87.8144 136.779 87.4119C137.007 87.0095 137.317 86.6875 137.71 86.446C138.103 86.2045 138.546 86.0223 139.038 85.8991C139.535 85.7713 140.049 85.679 140.579 85.6222C141.218 85.5559 141.737 85.4967 142.135 85.4446C142.532 85.3878 142.821 85.3026 143.001 85.1889C143.186 85.0705 143.278 84.8883 143.278 84.642V84.5994C143.278 84.0644 143.119 83.6501 142.802 83.3565C142.485 83.063 142.028 82.9162 141.431 82.9162C140.802 82.9162 140.302 83.0535 139.933 83.3281C139.568 83.6027 139.322 83.9271 139.194 84.3011L136.794 83.9602C136.983 83.2973 137.296 82.7434 137.731 82.2983C138.167 81.8485 138.699 81.5123 139.329 81.2898C139.959 81.0625 140.655 80.9489 141.417 80.9489C141.943 80.9489 142.466 81.0104 142.987 81.1335C143.508 81.2566 143.984 81.4602 144.414 81.7443C144.845 82.0237 145.191 82.4048 145.451 82.8878C145.717 83.3707 145.849 83.9744 145.849 84.6989V92H143.377V90.5014H143.292C143.136 90.8045 142.916 91.0885 142.632 91.3537C142.352 91.6141 142 91.8248 141.574 91.9858C141.152 92.142 140.657 92.2202 140.089 92.2202ZM140.757 90.331C141.273 90.331 141.72 90.2292 142.099 90.0256C142.478 89.8172 142.769 89.5426 142.973 89.2017C143.181 88.8608 143.285 88.4891 143.285 88.0866V86.8011C143.205 86.8674 143.067 86.929 142.873 86.9858C142.684 87.0426 142.471 87.0923 142.234 87.1349C141.997 87.1776 141.763 87.2154 141.531 87.2486C141.299 87.2817 141.098 87.3101 140.927 87.3338C140.544 87.3859 140.2 87.4711 139.897 87.5895C139.594 87.7079 139.355 87.8736 139.18 88.0866C139.005 88.295 138.917 88.5649 138.917 88.8963C138.917 89.3698 139.09 89.7273 139.436 89.9688C139.781 90.2102 140.222 90.331 140.757 90.331ZM162.678 77.4545H165.313V86.9574C165.313 87.9991 165.067 88.9152 164.574 89.706C164.087 90.4967 163.4 91.1146 162.515 91.5597C161.629 92 160.595 92.2202 159.411 92.2202C158.222 92.2202 157.185 92 156.3 91.5597C155.415 91.1146 154.728 90.4967 154.24 89.706C153.753 88.9152 153.509 87.9991 153.509 86.9574V77.4545H156.144V86.7372C156.144 87.3433 156.276 87.883 156.542 88.3565C156.811 88.83 157.19 89.2017 157.678 89.4716C158.166 89.7367 158.743 89.8693 159.411 89.8693C160.078 89.8693 160.656 89.7367 161.144 89.4716C161.636 89.2017 162.015 88.83 162.28 88.3565C162.545 87.883 162.678 87.3433 162.678 86.7372V77.4545ZM170.812 77.4545V92H168.177V77.4545H170.812ZM183.342 92.2131C182.248 92.2131 181.304 91.9858 180.508 91.5312C179.717 91.072 179.109 90.4233 178.683 89.5852C178.257 88.7424 178.044 87.7505 178.044 86.6094C178.044 85.4872 178.257 84.5024 178.683 83.6548C179.114 82.8026 179.715 82.1397 180.487 81.6662C181.259 81.188 182.165 80.9489 183.207 80.9489C183.879 80.9489 184.514 81.0578 185.11 81.2756C185.712 81.4886 186.242 81.8201 186.701 82.2699C187.165 82.7197 187.53 83.2926 187.795 83.9886C188.06 84.6799 188.193 85.5038 188.193 86.4602V87.2486H179.251V85.5156H185.728C185.724 85.0232 185.617 84.5852 185.409 84.2017C185.2 83.8134 184.909 83.508 184.535 83.2855C184.166 83.063 183.735 82.9517 183.243 82.9517C182.717 82.9517 182.255 83.0795 181.858 83.3352C181.46 83.5862 181.15 83.9176 180.927 84.3295C180.709 84.7367 180.598 85.1842 180.593 85.6719V87.1847C180.593 87.8191 180.709 88.3636 180.941 88.8182C181.173 89.268 181.498 89.6136 181.914 89.8551C182.331 90.0919 182.819 90.2102 183.377 90.2102C183.752 90.2102 184.09 90.1581 184.393 90.054C184.696 89.9451 184.959 89.7865 185.181 89.5781C185.404 89.3698 185.572 89.1117 185.686 88.804L188.086 89.0739C187.935 89.7083 187.646 90.2623 187.22 90.7358C186.798 91.2045 186.259 91.5691 185.6 91.8295C184.942 92.0852 184.19 92.2131 183.342 92.2131ZM192.939 77.4545V92H190.368V77.4545H192.939ZM200.412 92.2131C199.319 92.2131 198.374 91.9858 197.578 91.5312C196.788 91.072 196.179 90.4233 195.753 89.5852C195.327 88.7424 195.114 87.7505 195.114 86.6094C195.114 85.4872 195.327 84.5024 195.753 83.6548C196.184 82.8026 196.785 82.1397 197.557 81.6662C198.329 81.188 199.236 80.9489 200.277 80.9489C200.95 80.9489 201.584 81.0578 202.181 81.2756C202.782 81.4886 203.312 81.8201 203.772 82.2699C204.236 82.7197 204.6 83.2926 204.865 83.9886C205.131 84.6799 205.263 85.5038 205.263 86.4602V87.2486H196.321V85.5156H202.799C202.794 85.0232 202.687 84.5852 202.479 84.2017C202.271 83.8134 201.98 83.508 201.605 83.2855C201.236 83.063 200.805 82.9517 200.313 82.9517C199.787 82.9517 199.326 83.0795 198.928 83.3352C198.53 83.5862 198.22 83.9176 197.998 84.3295C197.78 84.7367 197.668 85.1842 197.664 85.6719V87.1847C197.664 87.8191 197.78 88.3636 198.012 88.8182C198.244 89.268 198.568 89.6136 198.985 89.8551C199.401 90.0919 199.889 90.2102 200.448 90.2102C200.822 90.2102 201.16 90.1581 201.463 90.054C201.766 89.9451 202.029 89.7865 202.252 89.5781C202.474 89.3698 202.642 89.1117 202.756 88.804L205.157 89.0739C205.005 89.7083 204.716 90.2623 204.29 90.7358C203.869 91.2045 203.329 91.5691 202.671 91.8295C202.013 92.0852 201.26 92.2131 200.412 92.2131ZM207.438 92V81.0909H209.896V82.9446H210.023C210.251 82.3196 210.627 81.8319 211.153 81.4815C211.678 81.1264 212.306 80.9489 213.035 80.9489C213.773 80.9489 214.396 81.1288 214.903 81.4886C215.414 81.8437 215.774 82.3291 215.982 82.9446H216.096C216.337 82.3385 216.745 81.8556 217.317 81.4957C217.895 81.1312 218.579 80.9489 219.37 80.9489C220.374 80.9489 221.193 81.2661 221.827 81.9006C222.462 82.535 222.779 83.4607 222.779 84.6776V92H220.201V85.0753C220.201 84.3982 220.021 83.9034 219.661 83.5909C219.301 83.2737 218.861 83.1151 218.34 83.1151C217.72 83.1151 217.235 83.3092 216.884 83.6974C216.539 84.081 216.366 84.5805 216.366 85.196V92H213.844V84.9688C213.844 84.4053 213.674 83.9555 213.333 83.6193C212.997 83.2831 212.557 83.1151 212.012 83.1151C211.643 83.1151 211.307 83.2098 211.004 83.3991C210.701 83.5838 210.459 83.8466 210.279 84.1875C210.099 84.5237 210.009 84.9167 210.009 85.3665V92H207.438ZM230.217 92.2131C229.123 92.2131 228.179 91.9858 227.383 91.5312C226.592 91.072 225.984 90.4233 225.558 89.5852C225.132 88.7424 224.919 87.7505 224.919 86.6094C224.919 85.4872 225.132 84.5024 225.558 83.6548C225.989 82.8026 226.59 82.1397 227.362 81.6662C228.134 81.188 229.04 80.9489 230.082 80.9489C230.754 80.9489 231.389 81.0578 231.985 81.2756C232.587 81.4886 233.117 81.8201 233.576 82.2699C234.04 82.7197 234.405 83.2926 234.67 83.9886C234.935 84.6799 235.068 85.5038 235.068 86.4602V87.2486H226.126V85.5156H232.603C232.599 85.0232 232.492 84.5852 232.284 84.2017C232.075 83.8134 231.784 83.508 231.41 83.2855C231.041 83.063 230.61 82.9517 230.118 82.9517C229.592 82.9517 229.13 83.0795 228.733 83.3352C228.335 83.5862 228.025 83.9176 227.802 84.3295C227.584 84.7367 227.473 85.1842 227.468 85.6719V87.1847C227.468 87.8191 227.584 88.3636 227.816 88.8182C228.048 89.268 228.373 89.6136 228.789 89.8551C229.206 90.0919 229.694 90.2102 230.252 90.2102C230.627 90.2102 230.965 90.1581 231.268 90.054C231.571 89.9451 231.834 89.7865 232.056 89.5781C232.279 89.3698 232.447 89.1117 232.561 88.804L234.961 89.0739C234.81 89.7083 234.521 90.2623 234.095 90.7358C233.673 91.2045 233.134 91.5691 232.475 91.8295C231.817 92.0852 231.065 92.2131 230.217 92.2131ZM239.814 85.608V92H237.243V81.0909H239.7V82.9446H239.828C240.079 82.3338 240.479 81.8485 241.028 81.4886C241.582 81.1288 242.267 80.9489 243.081 80.9489C243.834 80.9489 244.49 81.1098 245.048 81.4318C245.612 81.7538 246.047 82.2202 246.355 82.831C246.668 83.4418 246.821 84.1828 246.817 85.054V92H244.246V85.4517C244.246 84.7225 244.056 84.152 243.678 83.7401C243.304 83.3281 242.785 83.1222 242.122 83.1222C241.672 83.1222 241.272 83.2216 240.922 83.4205C240.576 83.6146 240.304 83.8963 240.105 84.2656C239.911 84.6349 239.814 85.0824 239.814 85.608ZM254.878 81.0909V83.0795H248.607V81.0909H254.878ZM250.155 78.4773H252.726V88.7188C252.726 89.0644 252.778 89.3295 252.882 89.5142C252.991 89.6941 253.133 89.8172 253.308 89.8835C253.483 89.9498 253.678 89.983 253.891 89.983C254.052 89.983 254.198 89.9711 254.331 89.9474C254.468 89.9238 254.572 89.9025 254.643 89.8835L255.077 91.8935C254.939 91.9408 254.743 91.9929 254.487 92.0497C254.236 92.1065 253.929 92.1397 253.564 92.1491C252.92 92.1681 252.34 92.071 251.824 91.858C251.308 91.6402 250.898 91.304 250.595 90.8494C250.297 90.3949 250.15 89.8267 250.155 89.1449V78.4773ZM258.626 96.0909C258.276 96.0909 257.951 96.0625 257.653 96.0057C257.359 95.9536 257.125 95.892 256.95 95.821L257.547 93.8182C257.921 93.9271 258.254 93.9792 258.548 93.9744C258.842 93.9697 259.1 93.8774 259.322 93.6974C259.549 93.5223 259.741 93.2287 259.897 92.8168L260.118 92.2273L256.162 81.0909H258.889L261.403 89.3295H261.517L264.038 81.0909H266.772L262.404 93.321C262.201 93.8987 261.931 94.3935 261.595 94.8054C261.259 95.2221 260.847 95.5393 260.359 95.7571C259.876 95.9796 259.298 96.0909 258.626 96.0909ZM273.512 81.0909H276.083V92.625C276.083 93.411 275.934 94.0597 275.636 94.571C275.338 95.0824 274.907 95.4635 274.343 95.7145C273.78 95.9654 273.096 96.0909 272.291 96.0909C272.196 96.0909 272.109 96.0885 272.028 96.0838C271.948 96.0838 271.86 96.0814 271.765 96.0767V93.9815C271.836 93.9863 271.9 93.9886 271.957 93.9886C272.014 93.9934 272.073 93.9957 272.135 93.9957C272.627 93.9957 272.98 93.875 273.193 93.6335C273.406 93.3968 273.512 93.0488 273.512 92.5895V81.0909ZM274.791 79.5426C274.379 79.5426 274.026 79.4077 273.733 79.1378C273.444 78.8632 273.299 78.5341 273.299 78.1506C273.299 77.7623 273.444 77.4332 273.733 77.1634C274.026 76.8887 274.379 76.7514 274.791 76.7514C275.198 76.7514 275.546 76.8887 275.835 77.1634C276.128 77.4332 276.275 77.7623 276.275 78.1506C276.275 78.5341 276.128 78.8632 275.835 79.1378C275.546 79.4077 275.198 79.5426 274.791 79.5426ZM281.866 92.2202C281.175 92.2202 280.553 92.0971 279.999 91.8509C279.449 91.5999 279.014 91.2306 278.692 90.7429C278.375 90.2552 278.216 89.6539 278.216 88.9389C278.216 88.3234 278.33 87.8144 278.557 87.4119C278.784 87.0095 279.094 86.6875 279.487 86.446C279.88 86.2045 280.323 86.0223 280.815 85.8991C281.313 85.7713 281.826 85.679 282.357 85.6222C282.996 85.5559 283.514 85.4967 283.912 85.4446C284.31 85.3878 284.598 85.3026 284.778 85.1889C284.963 85.0705 285.055 84.8883 285.055 84.642V84.5994C285.055 84.0644 284.897 83.6501 284.58 83.3565C284.262 83.063 283.805 82.9162 283.209 82.9162C282.579 82.9162 282.08 83.0535 281.71 83.3281C281.346 83.6027 281.099 83.9271 280.972 84.3011L278.571 83.9602C278.76 83.2973 279.073 82.7434 279.509 82.2983C279.944 81.8485 280.477 81.5123 281.107 81.2898C281.736 81.0625 282.432 80.9489 283.195 80.9489C283.72 80.9489 284.243 81.0104 284.764 81.1335C285.285 81.2566 285.761 81.4602 286.192 81.7443C286.623 82.0237 286.968 82.4048 287.229 82.8878C287.494 83.3707 287.626 83.9744 287.626 84.6989V92H285.155V90.5014H285.07C284.913 90.8045 284.693 91.0885 284.409 91.3537C284.13 91.6141 283.777 91.8248 283.351 91.9858C282.929 92.142 282.435 92.2202 281.866 92.2202ZM282.534 90.331C283.05 90.331 283.498 90.2292 283.876 90.0256C284.255 89.8172 284.546 89.5426 284.75 89.2017C284.958 88.8608 285.062 88.4891 285.062 88.0866V86.8011C284.982 86.8674 284.845 86.929 284.651 86.9858C284.461 87.0426 284.248 87.0923 284.011 87.1349C283.775 87.1776 283.54 87.2154 283.308 87.2486C283.076 87.2817 282.875 87.3101 282.705 87.3338C282.321 87.3859 281.978 87.4711 281.675 87.5895C281.372 87.7079 281.133 87.8736 280.957 88.0866C280.782 88.295 280.695 88.5649 280.695 88.8963C280.695 89.3698 280.867 89.7273 281.213 89.9688C281.559 90.2102 281.999 90.331 282.534 90.331ZM292.555 88.5767L292.548 85.473H292.96L296.881 81.0909H299.885L295.062 86.4602H294.53L292.555 88.5767ZM290.212 92V77.4545H292.783V92H290.212ZM297.058 92L293.507 87.0355L295.24 85.2244L300.134 92H297.058ZM305.908 92.2131C304.842 92.2131 303.919 91.9787 303.138 91.5099C302.357 91.0412 301.75 90.3854 301.32 89.5426C300.893 88.6998 300.68 87.715 300.68 86.5881C300.68 85.4612 300.893 84.474 301.32 83.6264C301.75 82.7789 302.357 82.1207 303.138 81.652C303.919 81.1832 304.842 80.9489 305.908 80.9489C306.973 80.9489 307.896 81.1832 308.678 81.652C309.459 82.1207 310.063 82.7789 310.489 83.6264C310.92 84.474 311.135 85.4612 311.135 86.5881C311.135 87.715 310.92 88.6998 310.489 89.5426C310.063 90.3854 309.459 91.0412 308.678 91.5099C307.896 91.9787 306.973 92.2131 305.908 92.2131ZM305.922 90.1534C306.5 90.1534 306.982 89.9948 307.371 89.6776C307.759 89.3556 308.048 88.9247 308.237 88.3849C308.431 87.8452 308.528 87.2438 308.528 86.581C308.528 85.9134 308.431 85.3097 308.237 84.7699C308.048 84.2254 307.759 83.7921 307.371 83.4702C306.982 83.1482 306.5 82.9872 305.922 82.9872C305.33 82.9872 304.838 83.1482 304.445 83.4702C304.056 83.7921 303.765 84.2254 303.571 84.7699C303.382 85.3097 303.287 85.9134 303.287 86.581C303.287 87.2438 303.382 87.8452 303.571 88.3849C303.765 88.9247 304.056 89.3556 304.445 89.6776C304.838 89.9948 305.33 90.1534 305.922 90.1534ZM17.321 105.091H19.892V116.625C19.892 117.411 19.7429 118.06 19.4446 118.571C19.1463 119.082 18.7154 119.464 18.152 119.714C17.5885 119.965 16.9044 120.091 16.0994 120.091C16.0047 120.091 15.9171 120.089 15.8366 120.084C15.7562 120.084 15.6686 120.081 15.5739 120.077V117.982C15.6449 117.986 15.7088 117.989 15.7656 117.989C15.8224 117.993 15.8816 117.996 15.9432 117.996C16.4356 117.996 16.7884 117.875 17.0014 117.634C17.2145 117.397 17.321 117.049 17.321 116.589V105.091ZM18.5994 103.543C18.1875 103.543 17.8348 103.408 17.5412 103.138C17.2524 102.863 17.108 102.534 17.108 102.151C17.108 101.762 17.2524 101.433 17.5412 101.163C17.8348 100.889 18.1875 100.751 18.5994 100.751C19.0066 100.751 19.3546 100.889 19.6435 101.163C19.937 101.433 20.0838 101.762 20.0838 102.151C20.0838 102.534 19.937 102.863 19.6435 103.138C19.3546 103.408 19.0066 103.543 18.5994 103.543ZM31.158 107.974L28.8143 108.23C28.748 107.993 28.632 107.771 28.4663 107.562C28.3053 107.354 28.0875 107.186 27.8129 107.058C27.5382 106.93 27.2021 106.866 26.8043 106.866C26.2693 106.866 25.8195 106.982 25.4549 107.214C25.0951 107.446 24.9175 107.747 24.9222 108.116C24.9175 108.434 25.0335 108.692 25.2702 108.891C25.5117 109.089 25.9094 109.253 26.4634 109.381L28.3242 109.778C29.3564 110.001 30.1235 110.354 30.6254 110.837C31.132 111.32 31.3877 111.952 31.3924 112.733C31.3877 113.42 31.1864 114.026 30.7887 114.551C30.3957 115.072 29.8488 115.479 29.1481 115.773C28.4473 116.066 27.6424 116.213 26.7333 116.213C25.3981 116.213 24.3233 115.934 23.5089 115.375C22.6945 114.812 22.2092 114.028 22.0529 113.024L24.56 112.783C24.6737 113.275 24.9151 113.647 25.2844 113.898C25.6538 114.149 26.1344 114.274 26.7262 114.274C27.337 114.274 27.8271 114.149 28.1964 113.898C28.5704 113.647 28.7575 113.337 28.7575 112.967C28.7575 112.655 28.6367 112.397 28.3952 112.193C28.1585 111.99 27.7892 111.833 27.2873 111.724L25.4265 111.334C24.3801 111.116 23.6059 110.749 23.104 110.233C22.6022 109.712 22.3536 109.054 22.3583 108.259C22.3536 107.586 22.5359 107.004 22.9052 106.511C23.2792 106.014 23.7977 105.631 24.4606 105.361C25.1282 105.086 25.8976 104.949 26.7688 104.949C28.0472 104.949 29.0534 105.221 29.7873 105.766C30.5259 106.31 30.9828 107.046 31.158 107.974ZM38.271 116.213C37.2056 116.213 36.2823 115.979 35.5011 115.51C34.7198 115.041 34.1138 114.385 33.6829 113.543C33.2567 112.7 33.0437 111.715 33.0437 110.588C33.0437 109.461 33.2567 108.474 33.6829 107.626C34.1138 106.779 34.7198 106.121 35.5011 105.652C36.2823 105.183 37.2056 104.949 38.271 104.949C39.3363 104.949 40.2596 105.183 41.0408 105.652C41.8221 106.121 42.4258 106.779 42.8519 107.626C43.2828 108.474 43.4982 109.461 43.4982 110.588C43.4982 111.715 43.2828 112.7 42.8519 113.543C42.4258 114.385 41.8221 115.041 41.0408 115.51C40.2596 115.979 39.3363 116.213 38.271 116.213ZM38.2852 114.153C38.8628 114.153 39.3458 113.995 39.734 113.678C40.1223 113.356 40.4111 112.925 40.6005 112.385C40.7946 111.845 40.8917 111.244 40.8917 110.581C40.8917 109.913 40.7946 109.31 40.6005 108.77C40.4111 108.225 40.1223 107.792 39.734 107.47C39.3458 107.148 38.8628 106.987 38.2852 106.987C37.6933 106.987 37.2009 107.148 36.8079 107.47C36.4196 107.792 36.1284 108.225 35.9343 108.77C35.7449 109.31 35.6502 109.913 35.6502 110.581C35.6502 111.244 35.7449 111.845 35.9343 112.385C36.1284 112.925 36.4196 113.356 36.8079 113.678C37.2009 113.995 37.6933 114.153 38.2852 114.153ZM52.6335 111.412V105.091H55.2045V116H52.7116V114.061H52.598C52.3518 114.672 51.947 115.171 51.3835 115.56C50.8248 115.948 50.1359 116.142 49.3168 116.142C48.6018 116.142 47.9697 115.983 47.4205 115.666C46.8759 115.344 46.4498 114.878 46.142 114.267C45.8343 113.652 45.6804 112.908 45.6804 112.037V105.091H48.2514V111.639C48.2514 112.33 48.4408 112.88 48.8196 113.287C49.1984 113.694 49.6955 113.898 50.3111 113.898C50.6899 113.898 51.0568 113.805 51.4119 113.621C51.767 113.436 52.0582 113.161 52.2855 112.797C52.5175 112.428 52.6335 111.966 52.6335 111.412ZM68.2567 105.091V107.08H61.9854V105.091H68.2567ZM63.5337 102.477H66.1048V112.719C66.1048 113.064 66.1568 113.33 66.261 113.514C66.3699 113.694 66.512 113.817 66.6871 113.884C66.8623 113.95 67.0565 113.983 67.2695 113.983C67.4305 113.983 67.5773 113.971 67.7099 113.947C67.8472 113.924 67.9513 113.902 68.0224 113.884L68.4556 115.893C68.3183 115.941 68.1218 115.993 67.8661 116.05C67.6152 116.107 67.3074 116.14 66.9428 116.149C66.2989 116.168 65.7189 116.071 65.2028 115.858C64.6867 115.64 64.2771 115.304 63.9741 114.849C63.6758 114.395 63.529 113.827 63.5337 113.145V102.477ZM70.407 116V105.091H72.8999V106.909H73.0135C73.2124 106.279 73.5533 105.794 74.0362 105.453C74.5239 105.107 75.0803 104.935 75.7053 104.935C75.8473 104.935 76.0059 104.942 76.1811 104.956C76.361 104.965 76.5102 104.982 76.6286 105.006V107.371C76.5196 107.333 76.3468 107.3 76.1101 107.271C75.8781 107.238 75.6532 107.222 75.4354 107.222C74.9666 107.222 74.5452 107.323 74.1712 107.527C73.8018 107.726 73.5107 108.003 73.2976 108.358C73.0845 108.713 72.978 109.123 72.978 109.587V116H70.407ZM71.9979 100.616L73.4396 102.435L74.8814 100.616H77.1328V100.716L74.4482 103.784H72.4382L69.7464 100.716V100.616H71.9979ZM82.717 116.213C81.6232 116.213 80.6786 115.986 79.8832 115.531C79.0924 115.072 78.484 114.423 78.0579 113.585C77.6317 112.742 77.4187 111.75 77.4187 110.609C77.4187 109.487 77.6317 108.502 78.0579 107.655C78.4888 106.803 79.0901 106.14 79.8619 105.666C80.6336 105.188 81.5404 104.949 82.582 104.949C83.2544 104.949 83.8888 105.058 84.4854 105.276C85.0868 105.489 85.6171 105.82 86.0763 106.27C86.5404 106.72 86.9049 107.293 87.1701 107.989C87.4353 108.68 87.5678 109.504 87.5678 110.46V111.249H78.6261V109.516H85.1033C85.0986 109.023 84.9921 108.585 84.7837 108.202C84.5754 107.813 84.2842 107.508 83.9102 107.286C83.5408 107.063 83.11 106.952 82.6175 106.952C82.092 106.952 81.6303 107.08 81.2326 107.335C80.8349 107.586 80.5247 107.918 80.3022 108.33C80.0844 108.737 79.9731 109.184 79.9684 109.672V111.185C79.9684 111.819 80.0844 112.364 80.3164 112.818C80.5484 113.268 80.8728 113.614 81.2894 113.855C81.7061 114.092 82.1938 114.21 82.7525 114.21C83.1265 114.21 83.4651 114.158 83.7681 114.054C84.0711 113.945 84.3339 113.786 84.5565 113.578C84.779 113.37 84.9471 113.112 85.0607 112.804L87.4613 113.074C87.3098 113.708 87.021 114.262 86.5948 114.736C86.1734 115.205 85.6336 115.569 84.9755 115.83C84.3174 116.085 83.5645 116.213 82.717 116.213ZM89.8565 116V101.455H92.4276V106.895H92.5341C92.6667 106.63 92.8537 106.348 93.0952 106.05C93.3366 105.747 93.6634 105.489 94.0753 105.276C94.4872 105.058 95.0128 104.949 95.652 104.949C96.4948 104.949 97.2547 105.164 97.9318 105.595C98.6136 106.021 99.1534 106.653 99.5511 107.491C99.9536 108.325 100.155 109.348 100.155 110.56C100.155 111.758 99.9583 112.776 99.5653 113.614C99.1723 114.452 98.6373 115.091 97.9602 115.531C97.2831 115.972 96.5161 116.192 95.6591 116.192C95.0341 116.192 94.5156 116.088 94.1037 115.879C93.6918 115.671 93.3603 115.42 93.1094 115.126C92.8632 114.828 92.6714 114.546 92.5341 114.281H92.3849V116H89.8565ZM92.3778 110.545C92.3778 111.251 92.4773 111.869 92.6761 112.399C92.8797 112.929 93.1709 113.344 93.5497 113.642C93.9332 113.936 94.3973 114.082 94.9418 114.082C95.5099 114.082 95.9858 113.931 96.3693 113.628C96.7528 113.32 97.0417 112.901 97.2358 112.371C97.4347 111.836 97.5341 111.227 97.5341 110.545C97.5341 109.868 97.437 109.267 97.2429 108.741C97.0488 108.216 96.7599 107.804 96.3764 107.506C95.9929 107.207 95.5147 107.058 94.9418 107.058C94.3925 107.058 93.9261 107.203 93.5426 107.491C93.1591 107.78 92.8679 108.185 92.669 108.706C92.4749 109.227 92.3778 109.84 92.3778 110.545ZM105.48 116.22C104.788 116.22 104.166 116.097 103.612 115.851C103.063 115.6 102.627 115.231 102.305 114.743C101.988 114.255 101.829 113.654 101.829 112.939C101.829 112.323 101.943 111.814 102.17 111.412C102.397 111.009 102.708 110.688 103.1 110.446C103.493 110.205 103.936 110.022 104.429 109.899C104.926 109.771 105.44 109.679 105.97 109.622C106.609 109.556 107.127 109.497 107.525 109.445C107.923 109.388 108.212 109.303 108.392 109.189C108.576 109.071 108.669 108.888 108.669 108.642V108.599C108.669 108.064 108.51 107.65 108.193 107.357C107.876 107.063 107.419 106.916 106.822 106.916C106.192 106.916 105.693 107.054 105.324 107.328C104.959 107.603 104.713 107.927 104.585 108.301L102.184 107.96C102.374 107.297 102.686 106.743 103.122 106.298C103.557 105.848 104.09 105.512 104.72 105.29C105.35 105.062 106.046 104.949 106.808 104.949C107.333 104.949 107.857 105.01 108.377 105.134C108.898 105.257 109.374 105.46 109.805 105.744C110.236 106.024 110.582 106.405 110.842 106.888C111.107 107.371 111.24 107.974 111.24 108.699V116H108.768V114.501H108.683C108.527 114.804 108.306 115.089 108.022 115.354C107.743 115.614 107.39 115.825 106.964 115.986C106.543 116.142 106.048 116.22 105.48 116.22ZM106.147 114.331C106.663 114.331 107.111 114.229 107.49 114.026C107.868 113.817 108.16 113.543 108.363 113.202C108.572 112.861 108.676 112.489 108.676 112.087V110.801C108.595 110.867 108.458 110.929 108.264 110.986C108.074 111.043 107.861 111.092 107.625 111.135C107.388 111.178 107.154 111.215 106.922 111.249C106.69 111.282 106.488 111.31 106.318 111.334C105.934 111.386 105.591 111.471 105.288 111.589C104.985 111.708 104.746 111.874 104.571 112.087C104.395 112.295 104.308 112.565 104.308 112.896C104.308 113.37 104.481 113.727 104.826 113.969C105.172 114.21 105.612 114.331 106.147 114.331ZM124.233 105.091V107.08H117.962V105.091H124.233ZM119.51 102.477H122.081V112.719C122.081 113.064 122.133 113.33 122.238 113.514C122.346 113.694 122.489 113.817 122.664 113.884C122.839 113.95 123.033 113.983 123.246 113.983C123.407 113.983 123.554 113.971 123.686 113.947C123.824 113.924 123.928 113.902 123.999 113.884L124.432 115.893C124.295 115.941 124.098 115.993 123.843 116.05C123.592 116.107 123.284 116.14 122.919 116.149C122.275 116.168 121.695 116.071 121.179 115.858C120.663 115.64 120.254 115.304 119.951 114.849C119.652 114.395 119.506 113.827 119.51 113.145V102.477ZM129.189 101.455V116H126.618V101.455H129.189ZM134.972 116.22C134.281 116.22 133.658 116.097 133.104 115.851C132.555 115.6 132.119 115.231 131.797 114.743C131.48 114.255 131.321 113.654 131.321 112.939C131.321 112.323 131.435 111.814 131.662 111.412C131.89 111.009 132.2 110.688 132.593 110.446C132.986 110.205 133.428 110.022 133.921 109.899C134.418 109.771 134.932 109.679 135.462 109.622C136.101 109.556 136.62 109.497 137.017 109.445C137.415 109.388 137.704 109.303 137.884 109.189C138.069 109.071 138.161 108.888 138.161 108.642V108.599C138.161 108.064 138.002 107.65 137.685 107.357C137.368 107.063 136.911 106.916 136.314 106.916C135.685 106.916 135.185 107.054 134.816 107.328C134.451 107.603 134.205 107.927 134.077 108.301L131.676 107.96C131.866 107.297 132.178 106.743 132.614 106.298C133.05 105.848 133.582 105.512 134.212 105.29C134.842 105.062 135.538 104.949 136.3 104.949C136.826 104.949 137.349 105.01 137.87 105.134C138.391 105.257 138.866 105.46 139.297 105.744C139.728 106.024 140.074 106.405 140.334 106.888C140.599 107.371 140.732 107.974 140.732 108.699V116H138.26V114.501H138.175C138.019 114.804 137.799 115.089 137.515 115.354C137.235 115.614 136.882 115.825 136.456 115.986C136.035 116.142 135.54 116.22 134.972 116.22ZM135.64 114.331C136.156 114.331 136.603 114.229 136.982 114.026C137.361 113.817 137.652 113.543 137.855 113.202C138.064 112.861 138.168 112.489 138.168 112.087V110.801C138.087 110.867 137.95 110.929 137.756 110.986C137.567 111.043 137.354 111.092 137.117 111.135C136.88 111.178 136.646 111.215 136.414 111.249C136.182 111.282 135.98 111.31 135.81 111.334C135.426 111.386 135.083 111.471 134.78 111.589C134.477 111.708 134.238 111.874 134.063 112.087C133.888 112.295 133.8 112.565 133.8 112.896C133.8 113.37 133.973 113.727 134.319 113.969C134.664 114.21 135.105 114.331 135.64 114.331ZM148.076 116.213C146.987 116.213 146.051 115.974 145.27 115.496C144.494 115.018 143.895 114.357 143.473 113.514C143.057 112.667 142.848 111.691 142.848 110.588C142.848 109.48 143.061 108.502 143.488 107.655C143.914 106.803 144.515 106.14 145.292 105.666C146.073 105.188 146.996 104.949 148.061 104.949C148.947 104.949 149.73 105.112 150.412 105.439C151.099 105.761 151.646 106.218 152.053 106.81C152.46 107.397 152.692 108.083 152.749 108.869H150.292C150.192 108.344 149.955 107.906 149.581 107.555C149.212 107.2 148.717 107.023 148.097 107.023C147.571 107.023 147.11 107.165 146.712 107.449C146.314 107.728 146.004 108.131 145.782 108.656C145.564 109.182 145.455 109.812 145.455 110.545C145.455 111.289 145.564 111.928 145.782 112.463C145.999 112.993 146.305 113.403 146.698 113.692C147.096 113.976 147.562 114.118 148.097 114.118C148.476 114.118 148.814 114.047 149.113 113.905C149.416 113.758 149.669 113.547 149.873 113.273C150.076 112.998 150.216 112.664 150.292 112.271H152.749C152.687 113.043 152.46 113.727 152.067 114.324C151.674 114.916 151.139 115.38 150.462 115.716C149.785 116.047 148.989 116.213 148.076 116.213ZM146.613 100.616L148.054 102.435L149.496 100.616H151.748V100.716L149.063 103.784H147.053L144.361 100.716V100.616H146.613ZM154.86 116V105.091H157.431V116H154.86ZM155.165 103.656L156.756 100.411H159.271L157.09 103.656H155.165ZM165.522 105.091V107.08H159.251V105.091H165.522ZM160.799 102.477H163.37V112.719C163.37 113.064 163.422 113.33 163.527 113.514C163.636 113.694 163.778 113.817 163.953 113.884C164.128 113.95 164.322 113.983 164.535 113.983C164.696 113.983 164.843 113.971 164.975 113.947C165.113 113.924 165.217 113.902 165.288 113.884L165.721 115.893C165.584 115.941 165.387 115.993 165.132 116.05C164.881 116.107 164.573 116.14 164.208 116.149C163.565 116.168 162.984 116.071 162.468 115.858C161.952 115.64 161.543 115.304 161.24 114.849C160.941 114.395 160.795 113.827 160.799 113.145V102.477ZM170.251 112.577L170.244 109.473H170.656L174.576 105.091H177.58L172.758 110.46H172.225L170.251 112.577ZM167.907 116V101.455H170.478V116H167.907ZM174.754 116L171.202 111.036L172.935 109.224L177.829 116H174.754ZM182.433 116.22C181.742 116.22 181.119 116.097 180.565 115.851C180.016 115.6 179.58 115.231 179.258 114.743C178.941 114.255 178.782 113.654 178.782 112.939C178.782 112.323 178.896 111.814 179.123 111.412C179.35 111.009 179.661 110.688 180.054 110.446C180.447 110.205 180.889 110.022 181.382 109.899C181.879 109.771 182.393 109.679 182.923 109.622C183.562 109.556 184.081 109.497 184.478 109.445C184.876 109.388 185.165 109.303 185.345 109.189C185.529 109.071 185.622 108.888 185.622 108.642V108.599C185.622 108.064 185.463 107.65 185.146 107.357C184.829 107.063 184.372 106.916 183.775 106.916C183.145 106.916 182.646 107.054 182.277 107.328C181.912 107.603 181.666 107.927 181.538 108.301L179.137 107.96C179.327 107.297 179.639 106.743 180.075 106.298C180.511 105.848 181.043 105.512 181.673 105.29C182.303 105.062 182.999 104.949 183.761 104.949C184.287 104.949 184.81 105.01 185.331 105.134C185.851 105.257 186.327 105.46 186.758 105.744C187.189 106.024 187.535 106.405 187.795 106.888C188.06 107.371 188.193 107.974 188.193 108.699V116H185.721V114.501H185.636C185.48 114.804 185.26 115.089 184.975 115.354C184.696 115.614 184.343 115.825 183.917 115.986C183.496 116.142 183.001 116.22 182.433 116.22ZM183.1 114.331C183.617 114.331 184.064 114.229 184.443 114.026C184.822 113.817 185.113 113.543 185.316 113.202C185.525 112.861 185.629 112.489 185.629 112.087V110.801C185.548 110.867 185.411 110.929 185.217 110.986C185.028 111.043 184.815 111.092 184.578 111.135C184.341 111.178 184.107 111.215 183.875 111.249C183.643 111.282 183.441 111.31 183.271 111.334C182.887 111.386 182.544 111.471 182.241 111.589C181.938 111.708 181.699 111.874 181.524 112.087C181.349 112.295 181.261 112.565 181.261 112.896C181.261 113.37 181.434 113.727 181.779 113.969C182.125 114.21 182.565 114.331 183.1 114.331ZM192.362 116.156C191.931 116.156 191.562 116.005 191.254 115.702C190.946 115.399 190.795 115.029 190.799 114.594C190.795 114.168 190.946 113.803 191.254 113.5C191.562 113.197 191.931 113.045 192.362 113.045C192.779 113.045 193.141 113.197 193.449 113.5C193.761 113.803 193.92 114.168 193.924 114.594C193.92 114.883 193.844 115.145 193.697 115.382C193.555 115.619 193.366 115.808 193.129 115.95C192.897 116.088 192.641 116.156 192.362 116.156Z" fill="#2E2F30"/>
<path d="M16 144C16 135.163 23.1634 128 32 128H159C167.837 128 175 135.163 175 144V144C175 152.837 167.837 160 159 160H32C23.1634 160 16 152.837 16 144V144Z" fill="#ADE01F"/>
<path d="M40 136C35.5815 136 32 139.582 32 144C32 148.418 35.5815 152 40 152C44.4185 152 48 148.418 48 144C48 139.582 44.4185 136 40 136ZM40 150.5C36.41 150.5 33.5 147.59 33.5 144C33.5 140.41 36.41 137.5 40 137.5C43.59 137.5 46.5 140.41 46.5 144C46.5 147.59 43.59 150.5 40 150.5Z" fill="white"/>
<path d="M37.543 147.043L38.9575 148.457L43.4145 144L38.9575 139.543L37.5435 140.957L40.5865 144L37.543 147.043Z" fill="white"/>
<path d="M57.1477 150V138.364H61.6023C62.4432 138.364 63.142 138.496 63.6989 138.761C64.2595 139.023 64.678 139.381 64.9545 139.835C65.2348 140.29 65.375 140.805 65.375 141.381C65.375 141.854 65.2841 142.259 65.1023 142.597C64.9205 142.93 64.6761 143.201 64.3693 143.409C64.0625 143.617 63.7197 143.767 63.3409 143.858V143.972C63.7538 143.994 64.1496 144.121 64.5284 144.352C64.911 144.58 65.2235 144.902 65.4659 145.318C65.7083 145.735 65.8295 146.239 65.8295 146.83C65.8295 147.432 65.6837 147.973 65.392 148.455C65.1004 148.932 64.661 149.309 64.0739 149.585C63.4867 149.862 62.7481 150 61.858 150H57.1477ZM59.2557 148.239H61.5227C62.2879 148.239 62.839 148.093 63.1761 147.801C63.517 147.506 63.6875 147.127 63.6875 146.665C63.6875 146.32 63.6023 146.009 63.4318 145.733C63.2614 145.453 63.0189 145.233 62.7045 145.074C62.3902 144.911 62.0152 144.83 61.5795 144.83H59.2557V148.239ZM59.2557 143.312H61.3409C61.7045 143.312 62.0322 143.246 62.3239 143.114C62.6155 142.977 62.8447 142.786 63.0114 142.54C63.1818 142.29 63.267 141.994 63.267 141.653C63.267 141.203 63.108 140.831 62.7898 140.54C62.4754 140.248 62.0076 140.102 61.3864 140.102H59.2557V143.312ZM70.0838 150.176C69.5308 150.176 69.0327 150.078 68.5895 149.881C68.1501 149.68 67.8016 149.384 67.544 148.994C67.2902 148.604 67.1634 148.123 67.1634 147.551C67.1634 147.059 67.2543 146.652 67.4361 146.33C67.6179 146.008 67.866 145.75 68.1804 145.557C68.4948 145.364 68.849 145.218 69.2429 145.119C69.6406 145.017 70.0516 144.943 70.4759 144.898C70.9872 144.845 71.402 144.797 71.7202 144.756C72.0384 144.71 72.2694 144.642 72.4134 144.551C72.5611 144.456 72.6349 144.311 72.6349 144.114V144.08C72.6349 143.652 72.508 143.32 72.2543 143.085C72.0005 142.85 71.6349 142.733 71.1577 142.733C70.6539 142.733 70.2543 142.843 69.9588 143.062C69.6671 143.282 69.4702 143.542 69.3679 143.841L67.4474 143.568C67.599 143.038 67.849 142.595 68.1974 142.239C68.5459 141.879 68.9721 141.61 69.4759 141.432C69.9796 141.25 70.5365 141.159 71.1463 141.159C71.5668 141.159 71.9853 141.208 72.402 141.307C72.8187 141.405 73.1993 141.568 73.544 141.795C73.8887 142.019 74.1652 142.324 74.3736 142.71C74.5857 143.097 74.6918 143.58 74.6918 144.159V150H72.7145V148.801H72.6463C72.5213 149.044 72.3452 149.271 72.1179 149.483C71.8944 149.691 71.6122 149.86 71.2713 149.989C70.9342 150.114 70.5384 150.176 70.0838 150.176ZM70.6179 148.665C71.0308 148.665 71.3887 148.583 71.6918 148.42C71.9948 148.254 72.2277 148.034 72.3906 147.761C72.5573 147.489 72.6406 147.191 72.6406 146.869V145.841C72.5762 145.894 72.4664 145.943 72.3111 145.989C72.1596 146.034 71.9891 146.074 71.7997 146.108C71.6103 146.142 71.4228 146.172 71.2372 146.199C71.0516 146.225 70.8906 146.248 70.7543 146.267C70.4474 146.309 70.1728 146.377 69.9304 146.472C69.688 146.566 69.4967 146.699 69.3565 146.869C69.2164 147.036 69.1463 147.252 69.1463 147.517C69.1463 147.896 69.2846 148.182 69.5611 148.375C69.8376 148.568 70.1899 148.665 70.6179 148.665ZM83.6577 143.58L81.7827 143.784C81.7296 143.595 81.6368 143.417 81.5043 143.25C81.3755 143.083 81.2012 142.949 80.9815 142.847C80.7618 142.744 80.4929 142.693 80.1747 142.693C79.7467 142.693 79.3868 142.786 79.0952 142.972C78.8073 143.157 78.6652 143.398 78.669 143.693C78.6652 143.947 78.758 144.153 78.9474 144.312C79.1406 144.472 79.4588 144.602 79.902 144.705L81.3906 145.023C82.2164 145.201 82.83 145.483 83.2315 145.869C83.6368 146.256 83.8414 146.761 83.8452 147.386C83.8414 147.936 83.6804 148.42 83.3622 148.841C83.0478 149.258 82.6103 149.583 82.0497 149.818C81.4891 150.053 80.8452 150.17 80.1179 150.17C79.0497 150.17 78.1899 149.947 77.5384 149.5C76.8868 149.049 76.4986 148.422 76.3736 147.619L78.3793 147.426C78.4702 147.82 78.6634 148.117 78.9588 148.318C79.2543 148.519 79.6387 148.619 80.1122 148.619C80.6009 148.619 80.9929 148.519 81.2884 148.318C81.5876 148.117 81.7372 147.869 81.7372 147.574C81.7372 147.324 81.6406 147.117 81.4474 146.955C81.258 146.792 80.9626 146.667 80.5611 146.58L79.0724 146.267C78.2353 146.093 77.616 145.799 77.2145 145.386C76.813 144.97 76.6141 144.443 76.6179 143.807C76.6141 143.269 76.7599 142.803 77.0554 142.409C77.3546 142.011 77.7694 141.705 78.2997 141.489C78.8338 141.269 79.4493 141.159 80.1463 141.159C81.169 141.159 81.974 141.377 82.5611 141.812C83.152 142.248 83.5175 142.837 83.6577 143.58ZM89.4048 150.17C88.5298 150.17 87.7741 149.989 87.1378 149.625C86.5052 149.258 86.0185 148.739 85.6776 148.068C85.3366 147.394 85.1662 146.6 85.1662 145.688C85.1662 144.79 85.3366 144.002 85.6776 143.324C86.0223 142.642 86.5033 142.112 87.1207 141.733C87.7382 141.35 88.4635 141.159 89.2969 141.159C89.8348 141.159 90.3423 141.246 90.8196 141.42C91.3007 141.591 91.7249 141.856 92.0923 142.216C92.4635 142.576 92.7552 143.034 92.9673 143.591C93.1795 144.144 93.2855 144.803 93.2855 145.568V146.199H86.1321V144.812H91.3139C91.3101 144.419 91.2249 144.068 91.0582 143.761C90.8916 143.451 90.6586 143.206 90.3594 143.028C90.0639 142.85 89.7192 142.761 89.3253 142.761C88.9048 142.761 88.5355 142.864 88.2173 143.068C87.8991 143.269 87.651 143.534 87.473 143.864C87.2988 144.189 87.2098 144.547 87.206 144.938V146.148C87.206 146.655 87.2988 147.091 87.4844 147.455C87.67 147.814 87.9295 148.091 88.2628 148.284C88.5961 148.473 88.9863 148.568 89.4332 148.568C89.7325 148.568 90.0033 148.527 90.2457 148.443C90.4882 148.356 90.6984 148.229 90.8764 148.062C91.0545 147.896 91.1889 147.689 91.2798 147.443L93.2003 147.659C93.0791 148.167 92.848 148.61 92.5071 148.989C92.17 149.364 91.7382 149.655 91.2116 149.864C90.6851 150.068 90.0829 150.17 89.4048 150.17ZM97.0824 138.364V150H95.0256V138.364H97.0824ZM99.1974 150V141.273H101.254V150H99.1974ZM100.232 140.034C99.9058 140.034 99.6255 139.926 99.3906 139.71C99.1558 139.491 99.0384 139.227 99.0384 138.92C99.0384 138.61 99.1558 138.347 99.3906 138.131C99.6255 137.911 99.9058 137.801 100.232 137.801C100.561 137.801 100.841 137.911 101.072 138.131C101.307 138.347 101.425 138.61 101.425 138.92C101.425 139.227 101.307 139.491 101.072 139.71C100.841 139.926 100.561 140.034 100.232 140.034ZM105.426 144.886V150H103.369V141.273H105.335V142.756H105.438C105.638 142.267 105.958 141.879 106.398 141.591C106.841 141.303 107.388 141.159 108.04 141.159C108.642 141.159 109.167 141.288 109.614 141.545C110.064 141.803 110.413 142.176 110.659 142.665C110.909 143.153 111.032 143.746 111.028 144.443V150H108.972V144.761C108.972 144.178 108.82 143.722 108.517 143.392C108.218 143.062 107.803 142.898 107.273 142.898C106.913 142.898 106.593 142.977 106.312 143.136C106.036 143.292 105.818 143.517 105.659 143.812C105.504 144.108 105.426 144.466 105.426 144.886ZM116.983 150.17C116.108 150.17 115.352 149.989 114.716 149.625C114.083 149.258 113.597 148.739 113.256 148.068C112.915 147.394 112.744 146.6 112.744 145.688C112.744 144.79 112.915 144.002 113.256 143.324C113.6 142.642 114.081 142.112 114.699 141.733C115.316 141.35 116.042 141.159 116.875 141.159C117.413 141.159 117.92 141.246 118.398 141.42C118.879 141.591 119.303 141.856 119.67 142.216C120.042 142.576 120.333 143.034 120.545 143.591C120.758 144.144 120.864 144.803 120.864 145.568V146.199H113.71V144.812H118.892C118.888 144.419 118.803 144.068 118.636 143.761C118.47 143.451 118.237 143.206 117.938 143.028C117.642 142.85 117.297 142.761 116.903 142.761C116.483 142.761 116.114 142.864 115.795 143.068C115.477 143.269 115.229 143.534 115.051 143.864C114.877 144.189 114.788 144.547 114.784 144.938V146.148C114.784 146.655 114.877 147.091 115.062 147.455C115.248 147.814 115.508 148.091 115.841 148.284C116.174 148.473 116.564 148.568 117.011 148.568C117.311 148.568 117.581 148.527 117.824 148.443C118.066 148.356 118.277 148.229 118.455 148.062C118.633 147.896 118.767 147.689 118.858 147.443L120.778 147.659C120.657 148.167 120.426 148.61 120.085 148.989C119.748 149.364 119.316 149.655 118.79 149.864C118.263 150.068 117.661 150.17 116.983 150.17ZM134.459 142.08C134.364 141.773 134.233 141.498 134.067 141.256C133.904 141.009 133.707 140.799 133.476 140.625C133.249 140.451 132.987 140.32 132.692 140.233C132.396 140.142 132.074 140.097 131.726 140.097C131.101 140.097 130.544 140.254 130.055 140.568C129.567 140.883 129.182 141.345 128.902 141.955C128.625 142.561 128.487 143.299 128.487 144.17C128.487 145.049 128.625 145.794 128.902 146.403C129.179 147.013 129.563 147.477 130.055 147.795C130.548 148.11 131.12 148.267 131.771 148.267C132.362 148.267 132.874 148.153 133.305 147.926C133.741 147.699 134.076 147.377 134.311 146.96C134.546 146.54 134.663 146.047 134.663 145.483L135.141 145.557H131.982V143.909H136.703V145.307C136.703 146.303 136.491 147.165 136.067 147.892C135.643 148.619 135.059 149.18 134.317 149.574C133.574 149.964 132.722 150.159 131.76 150.159C130.688 150.159 129.747 149.919 128.936 149.438C128.129 148.953 127.499 148.265 127.044 147.375C126.593 146.481 126.368 145.42 126.368 144.193C126.368 143.254 126.5 142.415 126.766 141.676C127.035 140.938 127.41 140.311 127.891 139.795C128.372 139.277 128.936 138.883 129.584 138.614C130.232 138.341 130.936 138.205 131.697 138.205C132.341 138.205 132.942 138.299 133.499 138.489C134.055 138.674 134.55 138.939 134.982 139.284C135.417 139.629 135.775 140.038 136.055 140.511C136.336 140.985 136.519 141.508 136.607 142.08H134.459ZM138.651 150V141.273H140.645V142.727H140.736C140.895 142.223 141.168 141.835 141.554 141.562C141.944 141.286 142.389 141.148 142.889 141.148C143.003 141.148 143.13 141.153 143.27 141.165C143.414 141.172 143.533 141.186 143.628 141.205V143.097C143.541 143.066 143.402 143.04 143.213 143.017C143.027 142.991 142.848 142.977 142.673 142.977C142.298 142.977 141.961 143.059 141.662 143.222C141.366 143.381 141.134 143.602 140.963 143.886C140.793 144.17 140.707 144.498 140.707 144.869V150H138.651ZM144.994 150V141.273H147.051V150H144.994ZM146.028 140.034C145.703 140.034 145.422 139.926 145.188 139.71C144.953 139.491 144.835 139.227 144.835 138.92C144.835 138.61 144.953 138.347 145.188 138.131C145.422 137.911 145.703 137.801 146.028 137.801C146.358 137.801 146.638 137.911 146.869 138.131C147.104 138.347 147.222 138.61 147.222 138.92C147.222 139.227 147.104 139.491 146.869 139.71C146.638 139.926 146.358 140.034 146.028 140.034ZM152.405 150.153C151.719 150.153 151.106 149.977 150.564 149.625C150.022 149.273 149.594 148.761 149.28 148.091C148.965 147.42 148.808 146.606 148.808 145.648C148.808 144.678 148.967 143.86 149.286 143.193C149.607 142.523 150.041 142.017 150.587 141.676C151.132 141.331 151.74 141.159 152.411 141.159C152.922 141.159 153.342 141.246 153.672 141.42C154.001 141.591 154.263 141.797 154.456 142.04C154.649 142.278 154.799 142.504 154.905 142.716H154.99V138.364H157.053V150H155.03V148.625H154.905C154.799 148.837 154.645 149.062 154.445 149.301C154.244 149.536 153.979 149.737 153.649 149.903C153.32 150.07 152.905 150.153 152.405 150.153ZM152.979 148.466C153.414 148.466 153.786 148.348 154.092 148.114C154.399 147.875 154.632 147.544 154.791 147.119C154.95 146.695 155.03 146.201 155.03 145.636C155.03 145.072 154.95 144.581 154.791 144.165C154.636 143.748 154.405 143.424 154.098 143.193C153.795 142.962 153.422 142.847 152.979 142.847C152.52 142.847 152.138 142.966 151.831 143.205C151.524 143.443 151.293 143.773 151.138 144.193C150.982 144.614 150.905 145.095 150.905 145.636C150.905 146.182 150.982 146.669 151.138 147.097C151.297 147.521 151.53 147.856 151.837 148.102C152.147 148.345 152.528 148.466 152.979 148.466Z" fill="white"/>
</svg>
