<svg width="407" height="80" viewBox="0 0 407 80" fill="none" xmlns="http://www.w3.org/2000/svg">
<rect x="7" y="72" width="8" height="8" fill="#1FADE0"/>
<rect x="31" y="64" width="16" height="16" fill="#1FADE0"/>
<rect x="63" y="56" width="24" height="24" fill="#1FADE0"/>
<rect x="103" y="48" width="32" height="32" fill="#1FADE0"/>
<rect x="151" y="40" width="40" height="40" fill="#1FADE0"/>
<rect x="207" y="32" width="48" height="48" fill="#1FADE0"/>
<rect x="271" y="24" width="56" height="56" fill="#1FADE0"/>
<rect x="343" y="16" width="64" height="64" fill="#1FADE0"/>
<path d="M3.69886 68.1193C3.11364 68.1193 2.59659 68.0156 2.14773 67.8082C1.7017 67.598 1.35369 67.3097 1.10369 66.9432C0.853693 66.5739 0.730114 66.1534 0.732955 65.6818C0.730114 65.3125 0.802557 64.9716 0.950284 64.6591C1.09801 64.3437 1.29972 64.081 1.5554 63.8707C1.81392 63.6577 2.10227 63.5227 2.42045 63.4659V63.4148C2.00284 63.3068 1.67045 63.0724 1.4233 62.7116C1.17614 62.348 1.05398 61.9347 1.05682 61.4716C1.05398 61.0284 1.16619 60.6321 1.39347 60.2827C1.62074 59.9332 1.93324 59.6577 2.33097 59.456C2.73153 59.2543 3.1875 59.1534 3.69886 59.1534C4.20455 59.1534 4.65625 59.2543 5.05398 59.456C5.4517 59.6577 5.7642 59.9332 5.99148 60.2827C6.22159 60.6321 6.33807 61.0284 6.34091 61.4716C6.33807 61.9347 6.21165 62.348 5.96165 62.7116C5.71449 63.0724 5.38636 63.3068 4.97727 63.4148V63.4659C5.29261 63.5227 5.5767 63.6577 5.82955 63.8707C6.08239 64.081 6.28409 64.3437 6.43466 64.6591C6.58523 64.9716 6.66193 65.3125 6.66477 65.6818C6.66193 66.1534 6.53409 66.5739 6.28125 66.9432C6.03125 67.3097 5.68324 67.598 5.23722 67.8082C4.79403 68.0156 4.28125 68.1193 3.69886 68.1193ZM3.69886 67.1818C4.09375 67.1818 4.43466 67.1179 4.72159 66.9901C5.00852 66.8622 5.23011 66.6818 5.38636 66.4489C5.54261 66.2159 5.62216 65.9432 5.625 65.6307C5.62216 65.3011 5.53693 65.0099 5.36932 64.7571C5.2017 64.5043 4.97301 64.3054 4.68324 64.1605C4.39631 64.0156 4.06818 63.9432 3.69886 63.9432C3.3267 63.9432 2.99432 64.0156 2.7017 64.1605C2.41193 64.3054 2.18324 64.5043 2.01562 64.7571C1.85085 65.0099 1.76989 65.3011 1.77273 65.6307C1.76989 65.9432 1.84517 66.2159 1.99858 66.4489C2.15483 66.6818 2.37784 66.8622 2.66761 66.9901C2.95739 67.1179 3.30114 67.1818 3.69886 67.1818ZM3.69886 63.0398C4.01136 63.0398 4.28835 62.9773 4.52983 62.8523C4.77415 62.7273 4.96591 62.5526 5.10511 62.3281C5.24432 62.1037 5.31534 61.8409 5.31818 61.5398C5.31534 61.2443 5.24574 60.9872 5.10938 60.7685C4.97301 60.5469 4.78409 60.3764 4.54261 60.2571C4.30114 60.1349 4.01989 60.0739 3.69886 60.0739C3.37216 60.0739 3.08665 60.1349 2.84233 60.2571C2.59801 60.3764 2.40909 60.5469 2.27557 60.7685C2.14205 60.9872 2.0767 61.2443 2.07955 61.5398C2.0767 61.8409 2.14347 62.1037 2.27983 62.3281C2.41903 62.5526 2.6108 62.7273 2.85511 62.8523C3.09943 62.9773 3.38068 63.0398 3.69886 63.0398ZM8.31499 70.4545V61.4545H9.28658V62.4943H9.40589C9.47976 62.3807 9.58203 62.2358 9.71271 62.0597C9.84624 61.8807 10.0366 61.7216 10.2837 61.5824C10.5337 61.4403 10.8718 61.3693 11.2979 61.3693C11.8491 61.3693 12.3349 61.5071 12.7553 61.7827C13.1758 62.0582 13.5039 62.4489 13.7397 62.9545C13.9755 63.4602 14.0934 64.0568 14.0934 64.7443C14.0934 65.4375 13.9755 66.0384 13.7397 66.5469C13.5039 67.0526 13.1772 67.4446 12.7596 67.723C12.342 67.9986 11.8604 68.1364 11.315 68.1364C10.8945 68.1364 10.5579 68.0668 10.305 67.9276C10.0522 67.7855 9.8576 67.625 9.72124 67.446C9.58487 67.2642 9.47976 67.1136 9.40589 66.9943H9.32067V70.4545H8.31499ZM9.30362 64.7273C9.30362 65.2216 9.37607 65.6577 9.52095 66.0355C9.66584 66.4105 9.87749 66.7045 10.1559 66.9176C10.4343 67.1278 10.7752 67.233 11.1786 67.233C11.5991 67.233 11.9499 67.1222 12.2312 66.9006C12.5153 66.6761 12.7283 66.375 12.8704 65.9972C13.0153 65.6165 13.0877 65.1932 13.0877 64.7273C13.0877 64.267 13.0167 63.8523 12.8746 63.483C12.7354 63.1108 12.5238 62.8168 12.2397 62.6009C11.9585 62.3821 11.6048 62.2727 11.1786 62.2727C10.7695 62.2727 10.4258 62.3764 10.1474 62.5838C9.86896 62.7884 9.65874 63.0753 9.51669 63.4446C9.37464 63.8111 9.30362 64.2386 9.30362 64.7273ZM16.108 61.4545L17.6761 64.1307L19.2443 61.4545H20.4034L18.2898 64.7273L20.4034 68H19.2443L17.6761 65.4602L16.108 68H14.9489L17.0284 64.7273L14.9489 61.4545H16.108Z" fill="#2E2F30"/>
<path d="M28.9716 51.2727V60H27.9148V52.3807H27.8636L25.733 53.7955V52.7216L27.9148 51.2727H28.9716ZM34.3793 60.1193C34.0213 60.1136 33.6634 60.0455 33.3054 59.9148C32.9474 59.7841 32.6207 59.5639 32.3253 59.2543C32.0298 58.9418 31.7926 58.5199 31.6136 57.9886C31.4347 57.4545 31.3452 56.7841 31.3452 55.9773C31.3452 55.2045 31.4176 54.5199 31.5625 53.9233C31.7074 53.3239 31.9176 52.8196 32.1932 52.4105C32.4688 51.9986 32.8011 51.6861 33.1903 51.473C33.5824 51.2599 34.0241 51.1534 34.5156 51.1534C35.0043 51.1534 35.4389 51.2514 35.8196 51.4474C36.2031 51.6406 36.5156 51.9105 36.7571 52.2571C36.9986 52.6037 37.1548 53.0028 37.2259 53.4545H36.1861C36.0895 53.0625 35.902 52.7372 35.6236 52.4787C35.3452 52.2202 34.9759 52.0909 34.5156 52.0909C33.8395 52.0909 33.3068 52.3849 32.9176 52.973C32.5313 53.5611 32.3366 54.3864 32.3338 55.4489H32.402C32.5611 55.2074 32.75 55.0014 32.9688 54.831C33.1903 54.6577 33.4347 54.5241 33.7017 54.4304C33.9688 54.3366 34.2514 54.2898 34.5497 54.2898C35.0497 54.2898 35.5071 54.4148 35.9219 54.6648C36.3366 54.9119 36.669 55.2543 36.919 55.6918C37.169 56.1264 37.294 56.625 37.294 57.1875C37.294 57.7273 37.1733 58.2216 36.9318 58.6705C36.6903 59.1165 36.3509 59.4716 35.9134 59.7358C35.4787 59.9972 34.9673 60.125 34.3793 60.1193ZM34.3793 59.1818C34.7372 59.1818 35.0582 59.0923 35.3423 58.9134C35.6293 58.7344 35.8551 58.4943 36.0199 58.1932C36.1875 57.892 36.2713 57.5568 36.2713 57.1875C36.2713 56.8267 36.1903 56.4986 36.0284 56.2031C35.8693 55.9048 35.6491 55.6676 35.3679 55.4915C35.0895 55.3153 34.7713 55.2273 34.4134 55.2273C34.1435 55.2273 33.892 55.2812 33.6591 55.3892C33.4261 55.4943 33.2216 55.6392 33.0455 55.8239C32.8722 56.0085 32.7358 56.2202 32.6364 56.4588C32.5369 56.6946 32.4872 56.9432 32.4872 57.2045C32.4872 57.5511 32.5682 57.875 32.7301 58.1761C32.8949 58.4773 33.1193 58.7202 33.4034 58.9048C33.6903 59.0895 34.0156 59.1818 34.3793 59.1818ZM38.9869 62.4545V53.4545H39.9585V54.4943H40.0778C40.1516 54.3807 40.2539 54.2358 40.3846 54.0597C40.5181 53.8807 40.7085 53.7216 40.9556 53.5824C41.2056 53.4403 41.5437 53.3693 41.9698 53.3693C42.521 53.3693 43.0067 53.5071 43.4272 53.7827C43.8477 54.0582 44.1758 54.4489 44.4116 54.9545C44.6474 55.4602 44.7653 56.0568 44.7653 56.7443C44.7653 57.4375 44.6474 58.0384 44.4116 58.5469C44.1758 59.0526 43.8491 59.4446 43.4315 59.723C43.0138 59.9986 42.5323 60.1364 41.9869 60.1364C41.5664 60.1364 41.2298 60.0668 40.9769 59.9276C40.7241 59.7855 40.5295 59.625 40.3931 59.446C40.2567 59.2642 40.1516 59.1136 40.0778 58.9943H39.9925V62.4545H38.9869ZM39.9755 56.7273C39.9755 57.2216 40.0479 57.6577 40.1928 58.0355C40.3377 58.4105 40.5494 58.7045 40.8278 58.9176C41.1062 59.1278 41.4471 59.233 41.8505 59.233C42.271 59.233 42.6218 59.1222 42.9031 58.9006C43.1871 58.6761 43.4002 58.375 43.5423 57.9972C43.6871 57.6165 43.7596 57.1932 43.7596 56.7273C43.7596 56.267 43.6886 55.8523 43.5465 55.483C43.4073 55.1108 43.1957 54.8168 42.9116 54.6009C42.6303 54.3821 42.2766 54.2727 41.8505 54.2727C41.4414 54.2727 41.0977 54.3764 40.8192 54.5838C40.5408 54.7884 40.3306 55.0753 40.1886 55.4446C40.0465 55.8111 39.9755 56.2386 39.9755 56.7273ZM46.7798 53.4545L48.348 56.1307L49.9162 53.4545H51.0753L48.9616 56.7273L51.0753 60H49.9162L48.348 57.4602L46.7798 60H45.6207L47.7003 56.7273L45.6207 53.4545H46.7798Z" fill="#2E2F30"/>
<path d="M61.9034 52V51.233L64.7841 48.0795C65.1222 47.7102 65.4006 47.3892 65.6193 47.1165C65.8381 46.8409 66 46.5824 66.1051 46.3409C66.2131 46.0966 66.267 45.8409 66.267 45.5739C66.267 45.267 66.1932 45.0014 66.0455 44.777C65.9006 44.5526 65.7017 44.3793 65.4489 44.2571C65.196 44.1349 64.9119 44.0739 64.5966 44.0739C64.2614 44.0739 63.9688 44.1435 63.7188 44.2827C63.4716 44.419 63.2798 44.6108 63.1435 44.858C63.0099 45.1051 62.9432 45.3949 62.9432 45.7273H61.9375C61.9375 45.2159 62.0554 44.767 62.2912 44.3807C62.527 43.9943 62.848 43.6932 63.2543 43.4773C63.6634 43.2614 64.1222 43.1534 64.6307 43.1534C65.142 43.1534 65.5952 43.2614 65.9901 43.4773C66.3849 43.6932 66.6946 43.9844 66.919 44.3509C67.1435 44.7173 67.2557 45.125 67.2557 45.5739C67.2557 45.8949 67.1974 46.2088 67.081 46.5156C66.9673 46.8196 66.7685 47.1591 66.4844 47.5341C66.2031 47.9062 65.8125 48.3608 65.3125 48.8977L63.3523 50.9943V51.0625H67.4091V52H61.9034ZM68.777 50.2102V49.3409L72.6122 43.2727H73.2429V44.6193H72.8168L69.919 49.2045V49.2727H75.0838V50.2102H68.777ZM72.8849 52V49.946V49.5412V43.2727H73.8906V52H72.8849ZM76.6978 54.4545V45.4545H77.6694V46.4943H77.7887C77.8626 46.3807 77.9648 46.2358 78.0955 46.0597C78.229 45.8807 78.4194 45.7216 78.6665 45.5824C78.9165 45.4403 79.2546 45.3693 79.6808 45.3693C80.2319 45.3693 80.7177 45.5071 81.1381 45.7827C81.5586 46.0582 81.8867 46.4489 82.1225 46.9545C82.3583 47.4602 82.4762 48.0568 82.4762 48.7443C82.4762 49.4375 82.3583 50.0384 82.1225 50.5469C81.8867 51.0526 81.56 51.4446 81.1424 51.723C80.7248 51.9986 80.2433 52.1364 79.6978 52.1364C79.2773 52.1364 78.9407 52.0668 78.6879 51.9276C78.435 51.7855 78.2404 51.625 78.104 51.446C77.9677 51.2642 77.8626 51.1136 77.7887 50.9943H77.7035V54.4545H76.6978ZM77.6864 48.7273C77.6864 49.2216 77.7589 49.6577 77.9038 50.0355C78.0487 50.4105 78.2603 50.7045 78.5387 50.9176C78.8171 51.1278 79.158 51.233 79.5614 51.233C79.9819 51.233 80.3327 51.1222 80.614 50.9006C80.8981 50.6761 81.1112 50.375 81.2532 49.9972C81.3981 49.6165 81.4705 49.1932 81.4705 48.7273C81.4705 48.267 81.3995 47.8523 81.2575 47.483C81.1183 47.1108 80.9066 46.8168 80.6225 46.6009C80.3413 46.3821 79.9876 46.2727 79.5614 46.2727C79.1523 46.2727 78.8086 46.3764 78.5302 46.5838C78.2518 46.7884 78.0415 47.0753 77.8995 47.4446C77.7575 47.8111 77.6864 48.2386 77.6864 48.7273ZM84.4908 45.4545L86.0589 48.1307L87.6271 45.4545H88.7862L86.6726 48.7273L88.7862 52H87.6271L86.0589 49.4602L84.4908 52H83.3317L85.4112 48.7273L83.3317 45.4545H84.4908Z" fill="#2E2F30"/>
<path d="M107.852 44.1193C107.29 44.1193 106.788 44.0227 106.348 43.8295C105.911 43.6364 105.563 43.3679 105.304 43.0241C105.048 42.6776 104.909 42.2756 104.886 41.8182H105.96C105.983 42.0994 106.08 42.3423 106.25 42.5469C106.42 42.7486 106.643 42.9048 106.919 43.0156C107.195 43.1264 107.5 43.1818 107.835 43.1818C108.21 43.1818 108.543 43.1165 108.832 42.9858C109.122 42.8551 109.349 42.6733 109.514 42.4403C109.679 42.2074 109.761 41.9375 109.761 41.6307C109.761 41.3097 109.682 41.027 109.523 40.7827C109.364 40.5355 109.131 40.3423 108.824 40.2031C108.517 40.0639 108.142 39.9943 107.699 39.9943H107V39.0568H107.699C108.045 39.0568 108.349 38.9943 108.611 38.8693C108.875 38.7443 109.081 38.5682 109.229 38.3409C109.379 38.1136 109.455 37.8466 109.455 37.5398C109.455 37.2443 109.389 36.9872 109.259 36.7685C109.128 36.5497 108.943 36.3793 108.705 36.2571C108.469 36.1349 108.19 36.0739 107.869 36.0739C107.568 36.0739 107.284 36.1293 107.017 36.2401C106.753 36.348 106.537 36.5057 106.369 36.7131C106.202 36.9176 106.111 37.1648 106.097 37.4545H105.074C105.091 36.9972 105.229 36.5966 105.487 36.2528C105.746 35.9062 106.084 35.6364 106.501 35.4432C106.922 35.25 107.384 35.1534 107.886 35.1534C108.426 35.1534 108.889 35.2628 109.276 35.4815C109.662 35.6974 109.959 35.983 110.166 36.3381C110.374 36.6932 110.477 37.0767 110.477 37.4886C110.477 37.9801 110.348 38.3991 110.089 38.7457C109.834 39.0923 109.486 39.3324 109.045 39.4659V39.5341C109.597 39.625 110.027 39.8594 110.337 40.2372C110.646 40.6122 110.801 41.0767 110.801 41.6307C110.801 42.1051 110.672 42.5312 110.413 42.9091C110.158 43.2841 109.808 43.5795 109.365 43.7955C108.922 44.0114 108.418 44.1193 107.852 44.1193ZM112.544 44V43.233L115.425 40.0795C115.763 39.7102 116.041 39.3892 116.26 39.1165C116.479 38.8409 116.641 38.5824 116.746 38.3409C116.854 38.0966 116.908 37.8409 116.908 37.5739C116.908 37.267 116.834 37.0014 116.686 36.777C116.541 36.5526 116.342 36.3793 116.089 36.2571C115.837 36.1349 115.553 36.0739 115.237 36.0739C114.902 36.0739 114.609 36.1435 114.359 36.2827C114.112 36.419 113.92 36.6108 113.784 36.858C113.651 37.1051 113.584 37.3949 113.584 37.7273H112.578C112.578 37.2159 112.696 36.767 112.932 36.3807C113.168 35.9943 113.489 35.6932 113.895 35.4773C114.304 35.2614 114.763 35.1534 115.271 35.1534C115.783 35.1534 116.236 35.2614 116.631 35.4773C117.026 35.6932 117.335 35.9844 117.56 36.3509C117.784 36.7173 117.896 37.125 117.896 37.5739C117.896 37.8949 117.838 38.2088 117.722 38.5156C117.608 38.8196 117.409 39.1591 117.125 39.5341C116.844 39.9062 116.453 40.3608 115.953 40.8977L113.993 42.9943V43.0625H118.05V44H112.544ZM119.827 46.4545V37.4545H120.798V38.4943H120.918C120.991 38.3807 121.094 38.2358 121.224 38.0597C121.358 37.8807 121.548 37.7216 121.795 37.5824C122.045 37.4403 122.384 37.3693 122.81 37.3693C123.361 37.3693 123.847 37.5071 124.267 37.7827C124.688 38.0582 125.016 38.4489 125.251 38.9545C125.487 39.4602 125.605 40.0568 125.605 40.7443C125.605 41.4375 125.487 42.0384 125.251 42.5469C125.016 43.0526 124.689 43.4446 124.271 43.723C123.854 43.9986 123.372 44.1364 122.827 44.1364C122.406 44.1364 122.07 44.0668 121.817 43.9276C121.564 43.7855 121.369 43.625 121.233 43.446C121.097 43.2642 120.991 43.1136 120.918 42.9943H120.832V46.4545H119.827ZM120.815 40.7273C120.815 41.2216 120.888 41.6577 121.033 42.0355C121.178 42.4105 121.389 42.7045 121.668 42.9176C121.946 43.1278 122.287 43.233 122.69 43.233C123.111 43.233 123.462 43.1222 123.743 42.9006C124.027 42.6761 124.24 42.375 124.382 41.9972C124.527 41.6165 124.599 41.1932 124.599 40.7273C124.599 40.267 124.528 39.8523 124.386 39.483C124.247 39.1108 124.036 38.8168 123.751 38.6009C123.47 38.3821 123.116 38.2727 122.69 38.2727C122.281 38.2727 121.938 38.3764 121.659 38.5838C121.381 38.7884 121.17 39.0753 121.028 39.4446C120.886 39.8111 120.815 40.2386 120.815 40.7273ZM127.62 37.4545L129.188 40.1307L130.756 37.4545H131.915L129.801 40.7273L131.915 44H130.756L129.188 41.4602L127.62 44H126.461L128.54 40.7273L126.461 37.4545H127.62Z" fill="#2E2F30"/>
<path d="M156.699 34.2102V33.3409L160.534 27.2727H161.165V28.6193H160.739L157.841 33.2045V33.2727H163.006V34.2102H156.699ZM160.807 36V33.946V33.5412V27.2727H161.812V36H160.807ZM167.449 36.1193C166.807 36.1193 166.26 35.9446 165.809 35.5952C165.357 35.2429 165.012 34.733 164.773 34.0653C164.534 33.3949 164.415 32.5852 164.415 31.6364C164.415 30.6932 164.534 29.8878 164.773 29.2202C165.015 28.5497 165.361 28.0384 165.813 27.6861C166.267 27.331 166.813 27.1534 167.449 27.1534C168.086 27.1534 168.63 27.331 169.081 27.6861C169.536 28.0384 169.882 28.5497 170.121 29.2202C170.363 29.8878 170.483 30.6932 170.483 31.6364C170.483 32.5852 170.364 33.3949 170.125 34.0653C169.887 34.733 169.542 35.2429 169.09 35.5952C168.638 35.9446 168.091 36.1193 167.449 36.1193ZM167.449 35.1818C168.086 35.1818 168.58 34.875 168.932 34.2614C169.284 33.6477 169.461 32.7727 169.461 31.6364C169.461 30.8807 169.38 30.2372 169.218 29.706C169.059 29.1747 168.828 28.7699 168.527 28.4915C168.229 28.2131 167.87 28.0739 167.449 28.0739C166.819 28.0739 166.326 28.3849 165.971 29.0071C165.615 29.6264 165.438 30.5028 165.438 31.6364C165.438 32.392 165.517 33.0341 165.676 33.5625C165.836 34.0909 166.064 34.4929 166.363 34.7685C166.664 35.044 167.026 35.1818 167.449 35.1818ZM172.12 38.4545V29.4545H173.091V30.4943H173.211C173.284 30.3807 173.387 30.2358 173.517 30.0597C173.651 29.8807 173.841 29.7216 174.088 29.5824C174.338 29.4403 174.676 29.3693 175.103 29.3693C175.654 29.3693 176.14 29.5071 176.56 29.7827C176.98 30.0582 177.309 30.4489 177.544 30.9545C177.78 31.4602 177.898 32.0568 177.898 32.7443C177.898 33.4375 177.78 34.0384 177.544 34.5469C177.309 35.0526 176.982 35.4446 176.564 35.723C176.147 35.9986 175.665 36.1364 175.12 36.1364C174.699 36.1364 174.363 36.0668 174.11 35.9276C173.857 35.7855 173.662 35.625 173.526 35.446C173.39 35.2642 173.284 35.1136 173.211 34.9943H173.125V38.4545H172.12ZM173.108 32.7273C173.108 33.2216 173.181 33.6577 173.326 34.0355C173.471 34.4105 173.682 34.7045 173.961 34.9176C174.239 35.1278 174.58 35.233 174.983 35.233C175.404 35.233 175.755 35.1222 176.036 34.9006C176.32 34.6761 176.533 34.375 176.675 33.9972C176.82 33.6165 176.892 33.1932 176.892 32.7273C176.892 32.267 176.821 31.8523 176.679 31.483C176.54 31.1108 176.328 30.8168 176.044 30.6009C175.763 30.3821 175.409 30.2727 174.983 30.2727C174.574 30.2727 174.23 30.3764 173.952 30.5838C173.674 30.7884 173.463 31.0753 173.321 31.4446C173.179 31.8111 173.108 32.2386 173.108 32.7273ZM179.913 29.4545L181.481 32.1307L183.049 29.4545H184.208L182.094 32.7273L184.208 36H183.049L181.481 33.4602L179.913 36H178.754L180.833 32.7273L178.754 29.4545H179.913Z" fill="#2E2F30"/>
<path d="M216.699 26.2102V25.3409L220.534 19.2727H221.165V20.6193H220.739L217.841 25.2045V25.2727H223.006V26.2102H216.699ZM220.807 28V25.946V25.5412V19.2727H221.812V28H220.807ZM227.398 28.1193C226.813 28.1193 226.296 28.0156 225.847 27.8082C225.401 27.598 225.053 27.3097 224.803 26.9432C224.553 26.5739 224.429 26.1534 224.432 25.6818C224.429 25.3125 224.502 24.9716 224.65 24.6591C224.797 24.3437 224.999 24.081 225.255 23.8707C225.513 23.6577 225.801 23.5227 226.12 23.4659V23.4148C225.702 23.3068 225.37 23.0724 225.123 22.7116C224.875 22.348 224.753 21.9347 224.756 21.4716C224.753 21.0284 224.865 20.6321 225.093 20.2827C225.32 19.9332 225.632 19.6577 226.03 19.456C226.431 19.2543 226.887 19.1534 227.398 19.1534C227.904 19.1534 228.355 19.2543 228.753 19.456C229.151 19.6577 229.463 19.9332 229.691 20.2827C229.921 20.6321 230.037 21.0284 230.04 21.4716C230.037 21.9347 229.911 22.348 229.661 22.7116C229.414 23.0724 229.086 23.3068 228.676 23.4148V23.4659C228.992 23.5227 229.276 23.6577 229.529 23.8707C229.782 24.081 229.983 24.3437 230.134 24.6591C230.284 24.9716 230.361 25.3125 230.364 25.6818C230.361 26.1534 230.233 26.5739 229.98 26.9432C229.73 27.3097 229.382 27.598 228.936 27.8082C228.493 28.0156 227.98 28.1193 227.398 28.1193ZM227.398 27.1818C227.793 27.1818 228.134 27.1179 228.421 26.9901C228.708 26.8622 228.929 26.6818 229.086 26.4489C229.242 26.2159 229.321 25.9432 229.324 25.6307C229.321 25.3011 229.236 25.0099 229.069 24.7571C228.901 24.5043 228.672 24.3054 228.382 24.1605C228.096 24.0156 227.767 23.9432 227.398 23.9432C227.026 23.9432 226.694 24.0156 226.401 24.1605C226.111 24.3054 225.882 24.5043 225.715 24.7571C225.55 25.0099 225.469 25.3011 225.472 25.6307C225.469 25.9432 225.544 26.2159 225.698 26.4489C225.854 26.6818 226.077 26.8622 226.367 26.9901C226.657 27.1179 227 27.1818 227.398 27.1818ZM227.398 23.0398C227.711 23.0398 227.988 22.9773 228.229 22.8523C228.473 22.7273 228.665 22.5526 228.804 22.3281C228.944 22.1037 229.015 21.8409 229.017 21.5398C229.015 21.2443 228.945 20.9872 228.809 20.7685C228.672 20.5469 228.483 20.3764 228.242 20.2571C228 20.1349 227.719 20.0739 227.398 20.0739C227.071 20.0739 226.786 20.1349 226.542 20.2571C226.297 20.3764 226.108 20.5469 225.975 20.7685C225.841 20.9872 225.776 21.2443 225.779 21.5398C225.776 21.8409 225.843 22.1037 225.979 22.3281C226.118 22.5526 226.31 22.7273 226.554 22.8523C226.799 22.9773 227.08 23.0398 227.398 23.0398ZM232.014 30.4545V21.4545H232.986V22.4943H233.105C233.179 22.3807 233.281 22.2358 233.412 22.0597C233.545 21.8807 233.736 21.7216 233.983 21.5824C234.233 21.4403 234.571 21.3693 234.997 21.3693C235.548 21.3693 236.034 21.5071 236.455 21.7827C236.875 22.0582 237.203 22.4489 237.439 22.9545C237.675 23.4602 237.793 24.0568 237.793 24.7443C237.793 25.4375 237.675 26.0384 237.439 26.5469C237.203 27.0526 236.876 27.4446 236.459 27.723C236.041 27.9986 235.56 28.1364 235.014 28.1364C234.594 28.1364 234.257 28.0668 234.004 27.9276C233.751 27.7855 233.557 27.625 233.42 27.446C233.284 27.2642 233.179 27.1136 233.105 26.9943H233.02V30.4545H232.014ZM233.003 24.7273C233.003 25.2216 233.075 25.6577 233.22 26.0355C233.365 26.4105 233.577 26.7045 233.855 26.9176C234.134 27.1278 234.474 27.233 234.878 27.233C235.298 27.233 235.649 27.1222 235.93 26.9006C236.214 26.6761 236.428 26.375 236.57 25.9972C236.714 25.6165 236.787 25.1932 236.787 24.7273C236.787 24.267 236.716 23.8523 236.574 23.483C236.435 23.1108 236.223 22.8168 235.939 22.6009C235.658 22.3821 235.304 22.2727 234.878 22.2727C234.469 22.2727 234.125 22.3764 233.847 22.5838C233.568 22.7884 233.358 23.0753 233.216 23.4446C233.074 23.8111 233.003 24.2386 233.003 24.7273ZM239.807 21.4545L241.375 24.1307L242.944 21.4545H244.103L241.989 24.7273L244.103 28H242.944L241.375 25.4602L239.807 28H238.648L240.728 24.7273L238.648 21.4545H239.807Z" fill="#2E2F30"/>
<path d="M287.631 20.1193C287.131 20.1193 286.68 20.0199 286.28 19.821C285.879 19.6222 285.558 19.3494 285.317 19.0028C285.075 18.6562 284.943 18.2614 284.92 17.8182H285.943C285.983 18.2131 286.162 18.5398 286.48 18.7983C286.801 19.054 287.185 19.1818 287.631 19.1818C287.989 19.1818 288.307 19.098 288.585 18.9304C288.866 18.7628 289.087 18.5327 289.246 18.2401C289.408 17.9446 289.489 17.6108 289.489 17.2386C289.489 16.858 289.405 16.5185 289.237 16.2202C289.072 15.919 288.845 15.6818 288.555 15.5085C288.266 15.3352 287.935 15.2472 287.562 15.2443C287.295 15.2415 287.021 15.2827 286.74 15.3679C286.459 15.4503 286.227 15.5568 286.045 15.6875L285.057 15.5682L285.585 11.2727H290.119V12.2102H286.472L286.165 14.7841H286.216C286.395 14.642 286.619 14.5241 286.889 14.4304C287.159 14.3366 287.44 14.2898 287.733 14.2898C288.267 14.2898 288.743 14.4176 289.161 14.6733C289.581 14.9261 289.911 15.2727 290.149 15.7131C290.391 16.1534 290.511 16.6562 290.511 17.2216C290.511 17.7784 290.386 18.2756 290.136 18.7131C289.889 19.1477 289.548 19.4915 289.114 19.7443C288.679 19.9943 288.185 20.1193 287.631 20.1193ZM295.102 20.1193C294.744 20.1136 294.386 20.0455 294.028 19.9148C293.67 19.7841 293.343 19.5639 293.048 19.2543C292.752 18.9418 292.515 18.5199 292.336 17.9886C292.157 17.4545 292.068 16.7841 292.068 15.9773C292.068 15.2045 292.14 14.5199 292.285 13.9233C292.43 13.3239 292.64 12.8196 292.916 12.4105C293.191 11.9986 293.524 11.6861 293.913 11.473C294.305 11.2599 294.747 11.1534 295.238 11.1534C295.727 11.1534 296.162 11.2514 296.542 11.4474C296.926 11.6406 297.238 11.9105 297.48 12.2571C297.721 12.6037 297.877 13.0028 297.949 13.4545H296.909C296.812 13.0625 296.625 12.7372 296.346 12.4787C296.068 12.2202 295.699 12.0909 295.238 12.0909C294.562 12.0909 294.029 12.3849 293.64 12.973C293.254 13.5611 293.059 14.3864 293.056 15.4489H293.125C293.284 15.2074 293.473 15.0014 293.691 14.831C293.913 14.6577 294.157 14.5241 294.424 14.4304C294.691 14.3366 294.974 14.2898 295.272 14.2898C295.772 14.2898 296.23 14.4148 296.645 14.6648C297.059 14.9119 297.392 15.2543 297.642 15.6918C297.892 16.1264 298.017 16.625 298.017 17.1875C298.017 17.7273 297.896 18.2216 297.654 18.6705C297.413 19.1165 297.074 19.4716 296.636 19.7358C296.201 19.9972 295.69 20.125 295.102 20.1193ZM295.102 19.1818C295.46 19.1818 295.781 19.0923 296.065 18.9134C296.352 18.7344 296.578 18.4943 296.743 18.1932C296.91 17.892 296.994 17.5568 296.994 17.1875C296.994 16.8267 296.913 16.4986 296.751 16.2031C296.592 15.9048 296.372 15.6676 296.091 15.4915C295.812 15.3153 295.494 15.2273 295.136 15.2273C294.866 15.2273 294.615 15.2812 294.382 15.3892C294.149 15.4943 293.944 15.6392 293.768 15.8239C293.595 16.0085 293.458 16.2202 293.359 16.4588C293.26 16.6946 293.21 16.9432 293.21 17.2045C293.21 17.5511 293.291 17.875 293.453 18.1761C293.618 18.4773 293.842 18.7202 294.126 18.9048C294.413 19.0895 294.738 19.1818 295.102 19.1818ZM299.71 22.4545V13.4545H300.681V14.4943H300.8C300.874 14.3807 300.977 14.2358 301.107 14.0597C301.241 13.8807 301.431 13.7216 301.678 13.5824C301.928 13.4403 302.266 13.3693 302.692 13.3693C303.244 13.3693 303.729 13.5071 304.15 13.7827C304.57 14.0582 304.898 14.4489 305.134 14.9545C305.37 15.4602 305.488 16.0568 305.488 16.7443C305.488 17.4375 305.37 18.0384 305.134 18.5469C304.898 19.0526 304.572 19.4446 304.154 19.723C303.737 19.9986 303.255 20.1364 302.71 20.1364C302.289 20.1364 301.952 20.0668 301.7 19.9276C301.447 19.7855 301.252 19.625 301.116 19.446C300.979 19.2642 300.874 19.1136 300.8 18.9943H300.715V22.4545H299.71ZM300.698 16.7273C300.698 17.2216 300.771 17.6577 300.915 18.0355C301.06 18.4105 301.272 18.7045 301.55 18.9176C301.829 19.1278 302.17 19.233 302.573 19.233C302.994 19.233 303.344 19.1222 303.626 18.9006C303.91 18.6761 304.123 18.375 304.265 17.9972C304.41 17.6165 304.482 17.1932 304.482 16.7273C304.482 16.267 304.411 15.8523 304.269 15.483C304.13 15.1108 303.918 14.8168 303.634 14.6009C303.353 14.3821 302.999 14.2727 302.573 14.2727C302.164 14.2727 301.82 14.3764 301.542 14.5838C301.263 14.7884 301.053 15.0753 300.911 15.4446C300.769 15.8111 300.698 16.2386 300.698 16.7273ZM307.502 13.4545L309.071 16.1307L310.639 13.4545H311.798L309.684 16.7273L311.798 20H310.639L309.071 17.4602L307.502 20H306.343L308.423 16.7273L306.343 13.4545H307.502Z" fill="#2E2F30"/>
<path d="M363.801 12.1193C363.443 12.1136 363.085 12.0455 362.727 11.9148C362.369 11.7841 362.043 11.5639 361.747 11.2543C361.452 10.9418 361.214 10.5199 361.036 9.98864C360.857 9.45455 360.767 8.78409 360.767 7.97727C360.767 7.20455 360.839 6.51989 360.984 5.9233C361.129 5.32386 361.339 4.8196 361.615 4.41051C361.891 3.99858 362.223 3.68608 362.612 3.47301C363.004 3.25994 363.446 3.15341 363.938 3.15341C364.426 3.15341 364.861 3.25142 365.241 3.44744C365.625 3.64062 365.938 3.91051 366.179 4.2571C366.42 4.60369 366.577 5.00284 366.648 5.45455H365.608C365.511 5.0625 365.324 4.73722 365.045 4.47869C364.767 4.22017 364.398 4.09091 363.938 4.09091C363.261 4.09091 362.729 4.38494 362.339 4.97301C361.953 5.56108 361.759 6.38636 361.756 7.44886H361.824C361.983 7.20739 362.172 7.00142 362.391 6.83097C362.612 6.65767 362.857 6.52415 363.124 6.4304C363.391 6.33665 363.673 6.28977 363.972 6.28977C364.472 6.28977 364.929 6.41477 365.344 6.66477C365.759 6.91193 366.091 7.25426 366.341 7.69176C366.591 8.12642 366.716 8.625 366.716 9.1875C366.716 9.72727 366.595 10.2216 366.354 10.6705C366.112 11.1165 365.773 11.4716 365.335 11.7358C364.901 11.9972 364.389 12.125 363.801 12.1193ZM363.801 11.1818C364.159 11.1818 364.48 11.0923 364.764 10.9134C365.051 10.7344 365.277 10.4943 365.442 10.1932C365.609 9.89205 365.693 9.55682 365.693 9.1875C365.693 8.8267 365.612 8.49858 365.45 8.20312C365.291 7.90483 365.071 7.66761 364.79 7.49148C364.511 7.31534 364.193 7.22727 363.835 7.22727C363.565 7.22727 363.314 7.28125 363.081 7.3892C362.848 7.49432 362.643 7.6392 362.467 7.82386C362.294 8.00852 362.158 8.22017 362.058 8.45881C361.959 8.6946 361.909 8.94318 361.909 9.20455C361.909 9.55114 361.99 9.875 362.152 10.1761C362.317 10.4773 362.541 10.7202 362.825 10.9048C363.112 11.0895 363.438 11.1818 363.801 11.1818ZM368.187 10.2102V9.34091L372.022 3.27273H372.653V4.61932H372.227L369.329 9.20455V9.27273H374.494V10.2102H368.187ZM372.295 12V9.94602V9.54119V3.27273H373.301V12H372.295ZM376.108 14.4545V5.45455H377.08V6.49432H377.199C377.273 6.38068 377.375 6.2358 377.506 6.05966C377.639 5.88068 377.83 5.72159 378.077 5.58239C378.327 5.44034 378.665 5.36932 379.091 5.36932C379.642 5.36932 380.128 5.5071 380.548 5.78267C380.969 6.05824 381.297 6.44886 381.533 6.95455C381.768 7.46023 381.886 8.05682 381.886 8.74432C381.886 9.4375 381.768 10.0384 381.533 10.5469C381.297 11.0526 380.97 11.4446 380.553 11.723C380.135 11.9986 379.653 12.1364 379.108 12.1364C378.688 12.1364 378.351 12.0668 378.098 11.9276C377.845 11.7855 377.651 11.625 377.514 11.446C377.378 11.2642 377.273 11.1136 377.199 10.9943H377.114V14.4545H376.108ZM377.097 8.72727C377.097 9.22159 377.169 9.65767 377.314 10.0355C377.459 10.4105 377.67 10.7045 377.949 10.9176C378.227 11.1278 378.568 11.233 378.972 11.233C379.392 11.233 379.743 11.1222 380.024 10.9006C380.308 10.6761 380.521 10.375 380.663 9.99716C380.808 9.61648 380.881 9.19318 380.881 8.72727C380.881 8.26705 380.81 7.85227 380.668 7.48295C380.528 7.1108 380.317 6.81676 380.033 6.60085C379.751 6.3821 379.398 6.27273 378.972 6.27273C378.563 6.27273 378.219 6.37642 377.94 6.58381C377.662 6.78835 377.452 7.07528 377.31 7.4446C377.168 7.81108 377.097 8.23864 377.097 8.72727ZM383.901 5.45455L385.469 8.13068L387.037 5.45455H388.196L386.083 8.72727L388.196 12H387.037L385.469 9.46023L383.901 12H382.742L384.821 8.72727L382.742 5.45455H383.901Z" fill="#2E2F30"/>
</svg>
