<svg width="421" height="181" viewBox="0 0 421 181" fill="none" xmlns="http://www.w3.org/2000/svg">
<rect x="220" width="168" height="24" rx="2" fill="#A2ACAF"/>
<rect x="220" y="32" width="168" height="16" rx="2" fill="#A2ACAF"/>
<rect x="221" y="65" width="166" height="30" rx="15" fill="white" stroke="#2E2F30" stroke-width="2"/>
<rect x="220" y="104" width="168" height="32" rx="16" fill="#1FADE0"/>
<rect width="168" height="21" rx="2" fill="#A2ACAF"/>
<rect y="30" width="168" height="24" rx="2" fill="#A2ACAF"/>
<rect x="1" y="71" width="166" height="32" rx="16" fill="white" stroke="#2E2F30" stroke-width="2"/>
<rect y="110" width="168" height="26" rx="13" fill="#1FADE0"/>
<path d="M172.903 15V14.233L175.784 11.0795C176.122 10.7102 176.401 10.3892 176.619 10.1165C176.838 9.84091 177 9.58239 177.105 9.34091C177.213 9.09659 177.267 8.84091 177.267 8.57386C177.267 8.26705 177.193 8.00142 177.045 7.77699C176.901 7.55256 176.702 7.37926 176.449 7.2571C176.196 7.13494 175.912 7.07386 175.597 7.07386C175.261 7.07386 174.969 7.14347 174.719 7.28267C174.472 7.41903 174.28 7.6108 174.143 7.85795C174.01 8.10511 173.943 8.39489 173.943 8.72727H172.938C172.938 8.21591 173.055 7.76705 173.291 7.38068C173.527 6.99432 173.848 6.69318 174.254 6.47727C174.663 6.26136 175.122 6.15341 175.631 6.15341C176.142 6.15341 176.595 6.26136 176.99 6.47727C177.385 6.69318 177.695 6.98437 177.919 7.35085C178.143 7.71733 178.256 8.125 178.256 8.57386C178.256 8.89489 178.197 9.20881 178.081 9.51562C177.967 9.8196 177.768 10.1591 177.484 10.5341C177.203 10.9062 176.812 11.3608 176.312 11.8977L174.352 13.9943V14.0625H178.409V15H172.903ZM183.237 6.27273V15H182.18V7.38068H182.129L179.999 8.79545V7.72159L182.18 6.27273H183.237ZM185.764 17.4545V8.45455H186.736V9.49432H186.855C186.929 9.38068 187.031 9.2358 187.162 9.05966C187.295 8.88068 187.486 8.72159 187.733 8.58239C187.983 8.44034 188.321 8.36932 188.747 8.36932C189.298 8.36932 189.784 8.5071 190.205 8.78267C190.625 9.05824 190.953 9.44886 191.189 9.95455C191.425 10.4602 191.543 11.0568 191.543 11.7443C191.543 12.4375 191.425 13.0384 191.189 13.5469C190.953 14.0526 190.626 14.4446 190.209 14.723C189.791 14.9986 189.31 15.1364 188.764 15.1364C188.344 15.1364 188.007 15.0668 187.754 14.9276C187.501 14.7855 187.307 14.625 187.17 14.446C187.034 14.2642 186.929 14.1136 186.855 13.9943H186.77V17.4545H185.764ZM186.753 11.7273C186.753 12.2216 186.825 12.6577 186.97 13.0355C187.115 13.4105 187.327 13.7045 187.605 13.9176C187.884 14.1278 188.224 14.233 188.628 14.233C189.048 14.233 189.399 14.1222 189.68 13.9006C189.964 13.6761 190.178 13.375 190.32 12.9972C190.464 12.6165 190.537 12.1932 190.537 11.7273C190.537 11.267 190.466 10.8523 190.324 10.483C190.185 10.1108 189.973 9.81676 189.689 9.60085C189.408 9.3821 189.054 9.27273 188.628 9.27273C188.219 9.27273 187.875 9.37642 187.597 9.58381C187.318 9.78835 187.108 10.0753 186.966 10.4446C186.824 10.8111 186.753 11.2386 186.753 11.7273ZM193.557 8.45455L195.125 11.1307L196.694 8.45455H197.853L195.739 11.7273L197.853 15H196.694L195.125 12.4602L193.557 15H192.398L194.478 11.7273L192.398 8.45455H193.557Z" fill="#2E2F30"/>
<path d="M392.903 15V14.233L395.784 11.0795C396.122 10.7102 396.401 10.3892 396.619 10.1165C396.838 9.84091 397 9.58239 397.105 9.34091C397.213 9.09659 397.267 8.84091 397.267 8.57386C397.267 8.26705 397.193 8.00142 397.045 7.77699C396.901 7.55256 396.702 7.37926 396.449 7.2571C396.196 7.13494 395.912 7.07386 395.597 7.07386C395.261 7.07386 394.969 7.14347 394.719 7.28267C394.472 7.41903 394.28 7.6108 394.143 7.85795C394.01 8.10511 393.943 8.39489 393.943 8.72727H392.938C392.938 8.21591 393.055 7.76705 393.291 7.38068C393.527 6.99432 393.848 6.69318 394.254 6.47727C394.663 6.26136 395.122 6.15341 395.631 6.15341C396.142 6.15341 396.595 6.26136 396.99 6.47727C397.385 6.69318 397.695 6.98437 397.919 7.35085C398.143 7.71733 398.256 8.125 398.256 8.57386C398.256 8.89489 398.197 9.20881 398.081 9.51562C397.967 9.8196 397.768 10.1591 397.484 10.5341C397.203 10.9062 396.812 11.3608 396.312 11.8977L394.352 13.9943V14.0625H398.409V15H392.903ZM399.777 13.2102V12.3409L403.612 6.27273H404.243V7.61932H403.817L400.919 12.2045V12.2727H406.084V13.2102H399.777ZM403.885 15V12.946V12.5412V6.27273H404.891V15H403.885ZM407.698 17.4545V8.45455H408.669V9.49432H408.789C408.863 9.38068 408.965 9.2358 409.096 9.05966C409.229 8.88068 409.419 8.72159 409.667 8.58239C409.917 8.44034 410.255 8.36932 410.681 8.36932C411.232 8.36932 411.718 8.5071 412.138 8.78267C412.559 9.05824 412.887 9.44886 413.123 9.95455C413.358 10.4602 413.476 11.0568 413.476 11.7443C413.476 12.4375 413.358 13.0384 413.123 13.5469C412.887 14.0526 412.56 14.4446 412.142 14.723C411.725 14.9986 411.243 15.1364 410.698 15.1364C410.277 15.1364 409.941 15.0668 409.688 14.9276C409.435 14.7855 409.24 14.625 409.104 14.446C408.968 14.2642 408.863 14.1136 408.789 13.9943H408.703V17.4545H407.698ZM408.686 11.7273C408.686 12.2216 408.759 12.6577 408.904 13.0355C409.049 13.4105 409.26 13.7045 409.539 13.9176C409.817 14.1278 410.158 14.233 410.561 14.233C410.982 14.233 411.333 14.1222 411.614 13.9006C411.898 13.6761 412.111 13.375 412.253 12.9972C412.398 12.6165 412.471 12.1932 412.471 11.7273C412.471 11.267 412.4 10.8523 412.257 10.483C412.118 10.1108 411.907 9.81676 411.623 9.60085C411.341 9.3821 410.988 9.27273 410.561 9.27273C410.152 9.27273 409.809 9.37642 409.53 9.58381C409.252 9.78835 409.042 10.0753 408.9 10.4446C408.757 10.8111 408.686 11.2386 408.686 11.7273ZM415.491 8.45455L417.059 11.1307L418.627 8.45455H419.786L417.673 11.7273L419.786 15H418.627L417.059 12.4602L415.491 15H414.332L416.411 11.7273L414.332 8.45455H415.491Z" fill="#2E2F30"/>
<path d="M395.972 35.2727V44H394.915V36.3807H394.864L392.733 37.7955V36.7216L394.915 35.2727H395.972ZM401.379 44.1193C401.021 44.1136 400.663 44.0455 400.305 43.9148C399.947 43.7841 399.621 43.5639 399.325 43.2543C399.03 42.9418 398.793 42.5199 398.614 41.9886C398.435 41.4545 398.345 40.7841 398.345 39.9773C398.345 39.2045 398.418 38.5199 398.562 37.9233C398.707 37.3239 398.918 36.8196 399.193 36.4105C399.469 35.9986 399.801 35.6861 400.19 35.473C400.582 35.2599 401.024 35.1534 401.516 35.1534C402.004 35.1534 402.439 35.2514 402.82 35.4474C403.203 35.6406 403.516 35.9105 403.757 36.2571C403.999 36.6037 404.155 37.0028 404.226 37.4545H403.186C403.089 37.0625 402.902 36.7372 402.624 36.4787C402.345 36.2202 401.976 36.0909 401.516 36.0909C400.839 36.0909 400.307 36.3849 399.918 36.973C399.531 37.5611 399.337 38.3864 399.334 39.4489H399.402C399.561 39.2074 399.75 39.0014 399.969 38.831C400.19 38.6577 400.435 38.5241 400.702 38.4304C400.969 38.3366 401.251 38.2898 401.55 38.2898C402.05 38.2898 402.507 38.4148 402.922 38.6648C403.337 38.9119 403.669 39.2543 403.919 39.6918C404.169 40.1264 404.294 40.625 404.294 41.1875C404.294 41.7273 404.173 42.2216 403.932 42.6705C403.69 43.1165 403.351 43.4716 402.913 43.7358C402.479 43.9972 401.967 44.125 401.379 44.1193ZM401.379 43.1818C401.737 43.1818 402.058 43.0923 402.342 42.9134C402.629 42.7344 402.855 42.4943 403.02 42.1932C403.188 41.892 403.271 41.5568 403.271 41.1875C403.271 40.8267 403.19 40.4986 403.028 40.2031C402.869 39.9048 402.649 39.6676 402.368 39.4915C402.089 39.3153 401.771 39.2273 401.413 39.2273C401.143 39.2273 400.892 39.2812 400.659 39.3892C400.426 39.4943 400.222 39.6392 400.045 39.8239C399.872 40.0085 399.736 40.2202 399.636 40.4588C399.537 40.6946 399.487 40.9432 399.487 41.2045C399.487 41.5511 399.568 41.875 399.73 42.1761C399.895 42.4773 400.119 42.7202 400.403 42.9048C400.69 43.0895 401.016 43.1818 401.379 43.1818ZM405.987 46.4545V37.4545H406.958V38.4943H407.078C407.152 38.3807 407.254 38.2358 407.385 38.0597C407.518 37.8807 407.708 37.7216 407.956 37.5824C408.206 37.4403 408.544 37.3693 408.97 37.3693C409.521 37.3693 410.007 37.5071 410.427 37.7827C410.848 38.0582 411.176 38.4489 411.412 38.9545C411.647 39.4602 411.765 40.0568 411.765 40.7443C411.765 41.4375 411.647 42.0384 411.412 42.5469C411.176 43.0526 410.849 43.4446 410.431 43.723C410.014 43.9986 409.532 44.1364 408.987 44.1364C408.566 44.1364 408.23 44.0668 407.977 43.9276C407.724 43.7855 407.529 43.625 407.393 43.446C407.257 43.2642 407.152 43.1136 407.078 42.9943H406.993V46.4545H405.987ZM406.975 40.7273C406.975 41.2216 407.048 41.6577 407.193 42.0355C407.338 42.4105 407.549 42.7045 407.828 42.9176C408.106 43.1278 408.447 43.233 408.85 43.233C409.271 43.233 409.622 43.1222 409.903 42.9006C410.187 42.6761 410.4 42.375 410.542 41.9972C410.687 41.6165 410.76 41.1932 410.76 40.7273C410.76 40.267 410.689 39.8523 410.547 39.483C410.407 39.1108 410.196 38.8168 409.912 38.6009C409.63 38.3821 409.277 38.2727 408.85 38.2727C408.441 38.2727 408.098 38.3764 407.819 38.5838C407.541 38.7884 407.331 39.0753 407.189 39.4446C407.047 39.8111 406.975 40.2386 406.975 40.7273ZM413.78 37.4545L415.348 40.1307L416.916 37.4545H418.075L415.962 40.7273L418.075 44H416.916L415.348 41.4602L413.78 44H412.621L414.7 40.7273L412.621 37.4545H413.78Z" fill="#2E2F30"/>
<path d="M395.852 84.1193C395.29 84.1193 394.788 84.0227 394.348 83.8295C393.911 83.6364 393.563 83.3679 393.304 83.0241C393.048 82.6776 392.909 82.2756 392.886 81.8182H393.96C393.983 82.0994 394.08 82.3423 394.25 82.5469C394.42 82.7486 394.643 82.9048 394.919 83.0156C395.195 83.1264 395.5 83.1818 395.835 83.1818C396.21 83.1818 396.543 83.1165 396.832 82.9858C397.122 82.8551 397.349 82.6733 397.514 82.4403C397.679 82.2074 397.761 81.9375 397.761 81.6307C397.761 81.3097 397.682 81.027 397.523 80.7827C397.364 80.5355 397.131 80.3423 396.824 80.2031C396.517 80.0639 396.142 79.9943 395.699 79.9943H395V79.0568H395.699C396.045 79.0568 396.349 78.9943 396.611 78.8693C396.875 78.7443 397.081 78.5682 397.229 78.3409C397.379 78.1136 397.455 77.8466 397.455 77.5398C397.455 77.2443 397.389 76.9872 397.259 76.7685C397.128 76.5497 396.943 76.3793 396.705 76.2571C396.469 76.1349 396.19 76.0739 395.869 76.0739C395.568 76.0739 395.284 76.1293 395.017 76.2401C394.753 76.348 394.537 76.5057 394.369 76.7131C394.202 76.9176 394.111 77.1648 394.097 77.4545H393.074C393.091 76.9972 393.229 76.5966 393.487 76.2528C393.746 75.9062 394.084 75.6364 394.501 75.4432C394.922 75.25 395.384 75.1534 395.886 75.1534C396.426 75.1534 396.889 75.2628 397.276 75.4815C397.662 75.6974 397.959 75.983 398.166 76.3381C398.374 76.6932 398.477 77.0767 398.477 77.4886C398.477 77.9801 398.348 78.3991 398.089 78.7457C397.834 79.0923 397.486 79.3324 397.045 79.4659V79.5341C397.597 79.625 398.027 79.8594 398.337 80.2372C398.646 80.6122 398.801 81.0767 398.801 81.6307C398.801 82.1051 398.672 82.5312 398.413 82.9091C398.158 83.2841 397.808 83.5795 397.365 83.7955C396.922 84.0114 396.418 84.1193 395.852 84.1193ZM400.544 84V83.233L403.425 80.0795C403.763 79.7102 404.041 79.3892 404.26 79.1165C404.479 78.8409 404.641 78.5824 404.746 78.3409C404.854 78.0966 404.908 77.8409 404.908 77.5739C404.908 77.267 404.834 77.0014 404.686 76.777C404.541 76.5526 404.342 76.3793 404.089 76.2571C403.837 76.1349 403.553 76.0739 403.237 76.0739C402.902 76.0739 402.609 76.1435 402.359 76.2827C402.112 76.419 401.92 76.6108 401.784 76.858C401.651 77.1051 401.584 77.3949 401.584 77.7273H400.578C400.578 77.2159 400.696 76.767 400.932 76.3807C401.168 75.9943 401.489 75.6932 401.895 75.4773C402.304 75.2614 402.763 75.1534 403.271 75.1534C403.783 75.1534 404.236 75.2614 404.631 75.4773C405.026 75.6932 405.335 75.9844 405.56 76.3509C405.784 76.7173 405.896 77.125 405.896 77.5739C405.896 77.8949 405.838 78.2088 405.722 78.5156C405.608 78.8196 405.409 79.1591 405.125 79.5341C404.844 79.9062 404.453 80.3608 403.953 80.8977L401.993 82.9943V83.0625H406.05V84H400.544ZM407.827 86.4545V77.4545H408.798V78.4943H408.918C408.991 78.3807 409.094 78.2358 409.224 78.0597C409.358 77.8807 409.548 77.7216 409.795 77.5824C410.045 77.4403 410.384 77.3693 410.81 77.3693C411.361 77.3693 411.847 77.5071 412.267 77.7827C412.688 78.0582 413.016 78.4489 413.251 78.9545C413.487 79.4602 413.605 80.0568 413.605 80.7443C413.605 81.4375 413.487 82.0384 413.251 82.5469C413.016 83.0526 412.689 83.4446 412.271 83.723C411.854 83.9986 411.372 84.1364 410.827 84.1364C410.406 84.1364 410.07 84.0668 409.817 83.9276C409.564 83.7855 409.369 83.625 409.233 83.446C409.097 83.2642 408.991 83.1136 408.918 82.9943H408.832V86.4545H407.827ZM408.815 80.7273C408.815 81.2216 408.888 81.6577 409.033 82.0355C409.178 82.4105 409.389 82.7045 409.668 82.9176C409.946 83.1278 410.287 83.233 410.69 83.233C411.111 83.233 411.462 83.1222 411.743 82.9006C412.027 82.6761 412.24 82.375 412.382 81.9972C412.527 81.6165 412.599 81.1932 412.599 80.7273C412.599 80.267 412.528 79.8523 412.386 79.483C412.247 79.1108 412.036 78.8168 411.751 78.6009C411.47 78.3821 411.116 78.2727 410.69 78.2727C410.281 78.2727 409.938 78.3764 409.659 78.5838C409.381 78.7884 409.17 79.0753 409.028 79.4446C408.886 79.8111 408.815 80.2386 408.815 80.7273ZM415.62 77.4545L417.188 80.1307L418.756 77.4545H419.915L417.801 80.7273L419.915 84H418.756L417.188 81.4602L415.62 84H414.461L416.54 80.7273L414.461 77.4545H415.62Z" fill="#2E2F30"/>
<path d="M395.852 124.119C395.29 124.119 394.788 124.023 394.348 123.83C393.911 123.636 393.563 123.368 393.304 123.024C393.048 122.678 392.909 122.276 392.886 121.818H393.96C393.983 122.099 394.08 122.342 394.25 122.547C394.42 122.749 394.643 122.905 394.919 123.016C395.195 123.126 395.5 123.182 395.835 123.182C396.21 123.182 396.543 123.116 396.832 122.986C397.122 122.855 397.349 122.673 397.514 122.44C397.679 122.207 397.761 121.938 397.761 121.631C397.761 121.31 397.682 121.027 397.523 120.783C397.364 120.536 397.131 120.342 396.824 120.203C396.517 120.064 396.142 119.994 395.699 119.994H395V119.057H395.699C396.045 119.057 396.349 118.994 396.611 118.869C396.875 118.744 397.081 118.568 397.229 118.341C397.379 118.114 397.455 117.847 397.455 117.54C397.455 117.244 397.389 116.987 397.259 116.768C397.128 116.55 396.943 116.379 396.705 116.257C396.469 116.135 396.19 116.074 395.869 116.074C395.568 116.074 395.284 116.129 395.017 116.24C394.753 116.348 394.537 116.506 394.369 116.713C394.202 116.918 394.111 117.165 394.097 117.455H393.074C393.091 116.997 393.229 116.597 393.487 116.253C393.746 115.906 394.084 115.636 394.501 115.443C394.922 115.25 395.384 115.153 395.886 115.153C396.426 115.153 396.889 115.263 397.276 115.482C397.662 115.697 397.959 115.983 398.166 116.338C398.374 116.693 398.477 117.077 398.477 117.489C398.477 117.98 398.348 118.399 398.089 118.746C397.834 119.092 397.486 119.332 397.045 119.466V119.534C397.597 119.625 398.027 119.859 398.337 120.237C398.646 120.612 398.801 121.077 398.801 121.631C398.801 122.105 398.672 122.531 398.413 122.909C398.158 123.284 397.808 123.58 397.365 123.795C396.922 124.011 396.418 124.119 395.852 124.119ZM400.544 124V123.233L403.425 120.08C403.763 119.71 404.041 119.389 404.26 119.116C404.479 118.841 404.641 118.582 404.746 118.341C404.854 118.097 404.908 117.841 404.908 117.574C404.908 117.267 404.834 117.001 404.686 116.777C404.541 116.553 404.342 116.379 404.089 116.257C403.837 116.135 403.553 116.074 403.237 116.074C402.902 116.074 402.609 116.143 402.359 116.283C402.112 116.419 401.92 116.611 401.784 116.858C401.651 117.105 401.584 117.395 401.584 117.727H400.578C400.578 117.216 400.696 116.767 400.932 116.381C401.168 115.994 401.489 115.693 401.895 115.477C402.304 115.261 402.763 115.153 403.271 115.153C403.783 115.153 404.236 115.261 404.631 115.477C405.026 115.693 405.335 115.984 405.56 116.351C405.784 116.717 405.896 117.125 405.896 117.574C405.896 117.895 405.838 118.209 405.722 118.516C405.608 118.82 405.409 119.159 405.125 119.534C404.844 119.906 404.453 120.361 403.953 120.898L401.993 122.994V123.062H406.05V124H400.544ZM407.827 126.455V117.455H408.798V118.494H408.918C408.991 118.381 409.094 118.236 409.224 118.06C409.358 117.881 409.548 117.722 409.795 117.582C410.045 117.44 410.384 117.369 410.81 117.369C411.361 117.369 411.847 117.507 412.267 117.783C412.688 118.058 413.016 118.449 413.251 118.955C413.487 119.46 413.605 120.057 413.605 120.744C413.605 121.438 413.487 122.038 413.251 122.547C413.016 123.053 412.689 123.445 412.271 123.723C411.854 123.999 411.372 124.136 410.827 124.136C410.406 124.136 410.07 124.067 409.817 123.928C409.564 123.786 409.369 123.625 409.233 123.446C409.097 123.264 408.991 123.114 408.918 122.994H408.832V126.455H407.827ZM408.815 120.727C408.815 121.222 408.888 121.658 409.033 122.036C409.178 122.411 409.389 122.705 409.668 122.918C409.946 123.128 410.287 123.233 410.69 123.233C411.111 123.233 411.462 123.122 411.743 122.901C412.027 122.676 412.24 122.375 412.382 121.997C412.527 121.616 412.599 121.193 412.599 120.727C412.599 120.267 412.528 119.852 412.386 119.483C412.247 119.111 412.036 118.817 411.751 118.601C411.47 118.382 411.116 118.273 410.69 118.273C410.281 118.273 409.938 118.376 409.659 118.584C409.381 118.788 409.17 119.075 409.028 119.445C408.886 119.811 408.815 120.239 408.815 120.727ZM415.62 117.455L417.188 120.131L418.756 117.455H419.915L417.801 120.727L419.915 124H418.756L417.188 121.46L415.62 124H414.461L416.54 120.727L414.461 117.455H415.62Z" fill="#2E2F30"/>
<path d="M172.903 46V45.233L175.784 42.0795C176.122 41.7102 176.401 41.3892 176.619 41.1165C176.838 40.8409 177 40.5824 177.105 40.3409C177.213 40.0966 177.267 39.8409 177.267 39.5739C177.267 39.267 177.193 39.0014 177.045 38.777C176.901 38.5526 176.702 38.3793 176.449 38.2571C176.196 38.1349 175.912 38.0739 175.597 38.0739C175.261 38.0739 174.969 38.1435 174.719 38.2827C174.472 38.419 174.28 38.6108 174.143 38.858C174.01 39.1051 173.943 39.3949 173.943 39.7273H172.938C172.938 39.2159 173.055 38.767 173.291 38.3807C173.527 37.9943 173.848 37.6932 174.254 37.4773C174.663 37.2614 175.122 37.1534 175.631 37.1534C176.142 37.1534 176.595 37.2614 176.99 37.4773C177.385 37.6932 177.695 37.9844 177.919 38.3509C178.143 38.7173 178.256 39.125 178.256 39.5739C178.256 39.8949 178.197 40.2088 178.081 40.5156C177.967 40.8196 177.768 41.1591 177.484 41.5341C177.203 41.9062 176.812 42.3608 176.312 42.8977L174.352 44.9943V45.0625H178.409V46H172.903ZM179.777 44.2102V43.3409L183.612 37.2727H184.243V38.6193H183.817L180.919 43.2045V43.2727H186.084V44.2102H179.777ZM183.885 46V43.946V43.5412V37.2727H184.891V46H183.885ZM187.698 48.4545V39.4545H188.669V40.4943H188.789C188.863 40.3807 188.965 40.2358 189.096 40.0597C189.229 39.8807 189.419 39.7216 189.667 39.5824C189.917 39.4403 190.255 39.3693 190.681 39.3693C191.232 39.3693 191.718 39.5071 192.138 39.7827C192.559 40.0582 192.887 40.4489 193.123 40.9545C193.358 41.4602 193.476 42.0568 193.476 42.7443C193.476 43.4375 193.358 44.0384 193.123 44.5469C192.887 45.0526 192.56 45.4446 192.142 45.723C191.725 45.9986 191.243 46.1364 190.698 46.1364C190.277 46.1364 189.941 46.0668 189.688 45.9276C189.435 45.7855 189.24 45.625 189.104 45.446C188.968 45.2642 188.863 45.1136 188.789 44.9943H188.703V48.4545H187.698ZM188.686 42.7273C188.686 43.2216 188.759 43.6577 188.904 44.0355C189.049 44.4105 189.26 44.7045 189.539 44.9176C189.817 45.1278 190.158 45.233 190.561 45.233C190.982 45.233 191.333 45.1222 191.614 44.9006C191.898 44.6761 192.111 44.375 192.253 43.9972C192.398 43.6165 192.471 43.1932 192.471 42.7273C192.471 42.267 192.4 41.8523 192.257 41.483C192.118 41.1108 191.907 40.8168 191.623 40.6009C191.341 40.3821 190.988 40.2727 190.561 40.2727C190.152 40.2727 189.809 40.3764 189.53 40.5838C189.252 40.7884 189.042 41.0753 188.9 41.4446C188.757 41.8111 188.686 42.2386 188.686 42.7273ZM195.491 39.4545L197.059 42.1307L198.627 39.4545H199.786L197.673 42.7273L199.786 46H198.627L197.059 43.4602L195.491 46H194.332L196.411 42.7273L194.332 39.4545H195.491Z" fill="#2E2F30"/>
<path d="M175.852 91.1193C175.29 91.1193 174.788 91.0227 174.348 90.8295C173.911 90.6364 173.563 90.3679 173.304 90.0241C173.048 89.6776 172.909 89.2756 172.886 88.8182H173.96C173.983 89.0994 174.08 89.3423 174.25 89.5469C174.42 89.7486 174.643 89.9048 174.919 90.0156C175.195 90.1264 175.5 90.1818 175.835 90.1818C176.21 90.1818 176.543 90.1165 176.832 89.9858C177.122 89.8551 177.349 89.6733 177.514 89.4403C177.679 89.2074 177.761 88.9375 177.761 88.6307C177.761 88.3097 177.682 88.027 177.523 87.7827C177.364 87.5355 177.131 87.3423 176.824 87.2031C176.517 87.0639 176.142 86.9943 175.699 86.9943H175V86.0568H175.699C176.045 86.0568 176.349 85.9943 176.611 85.8693C176.875 85.7443 177.081 85.5682 177.229 85.3409C177.379 85.1136 177.455 84.8466 177.455 84.5398C177.455 84.2443 177.389 83.9872 177.259 83.7685C177.128 83.5497 176.943 83.3793 176.705 83.2571C176.469 83.1349 176.19 83.0739 175.869 83.0739C175.568 83.0739 175.284 83.1293 175.017 83.2401C174.753 83.348 174.537 83.5057 174.369 83.7131C174.202 83.9176 174.111 84.1648 174.097 84.4545H173.074C173.091 83.9972 173.229 83.5966 173.487 83.2528C173.746 82.9062 174.084 82.6364 174.501 82.4432C174.922 82.25 175.384 82.1534 175.886 82.1534C176.426 82.1534 176.889 82.2628 177.276 82.4815C177.662 82.6974 177.959 82.983 178.166 83.3381C178.374 83.6932 178.477 84.0767 178.477 84.4886C178.477 84.9801 178.348 85.3991 178.089 85.7457C177.834 86.0923 177.486 86.3324 177.045 86.4659V86.5341C177.597 86.625 178.027 86.8594 178.337 87.2372C178.646 87.6122 178.801 88.0767 178.801 88.6307C178.801 89.1051 178.672 89.5312 178.413 89.9091C178.158 90.2841 177.808 90.5795 177.365 90.7955C176.922 91.0114 176.418 91.1193 175.852 91.1193ZM180.339 89.2102V88.3409L184.175 82.2727H184.805V83.6193H184.379L181.482 88.2045V88.2727H186.646V89.2102H180.339ZM184.447 91V88.946V88.5412V82.2727H185.453V91H184.447ZM188.26 93.4545V84.4545H189.232V85.4943H189.351C189.425 85.3807 189.527 85.2358 189.658 85.0597C189.792 84.8807 189.982 84.7216 190.229 84.5824C190.479 84.4403 190.817 84.3693 191.243 84.3693C191.794 84.3693 192.28 84.5071 192.701 84.7827C193.121 85.0582 193.449 85.4489 193.685 85.9545C193.921 86.4602 194.039 87.0568 194.039 87.7443C194.039 88.4375 193.921 89.0384 193.685 89.5469C193.449 90.0526 193.123 90.4446 192.705 90.723C192.287 90.9986 191.806 91.1364 191.26 91.1364C190.84 91.1364 190.503 91.0668 190.25 90.9276C189.998 90.7855 189.803 90.625 189.667 90.446C189.53 90.2642 189.425 90.1136 189.351 89.9943H189.266V93.4545H188.26ZM189.249 87.7273C189.249 88.2216 189.321 88.6577 189.466 89.0355C189.611 89.4105 189.823 89.7045 190.101 89.9176C190.38 90.1278 190.721 90.233 191.124 90.233C191.544 90.233 191.895 90.1222 192.176 89.9006C192.461 89.6761 192.674 89.375 192.816 88.9972C192.961 88.6165 193.033 88.1932 193.033 87.7273C193.033 87.267 192.962 86.8523 192.82 86.483C192.681 86.1108 192.469 85.8168 192.185 85.6009C191.904 85.3821 191.55 85.2727 191.124 85.2727C190.715 85.2727 190.371 85.3764 190.093 85.5838C189.814 85.7884 189.604 86.0753 189.462 86.4446C189.32 86.8111 189.249 87.2386 189.249 87.7273ZM196.053 84.4545L197.621 87.1307L199.19 84.4545H200.349L198.235 87.7273L200.349 91H199.19L197.621 88.4602L196.053 91H194.894L196.974 87.7273L194.894 84.4545H196.053Z" fill="#2E2F30"/>
<path d="M172.903 128V127.233L175.784 124.08C176.122 123.71 176.401 123.389 176.619 123.116C176.838 122.841 177 122.582 177.105 122.341C177.213 122.097 177.267 121.841 177.267 121.574C177.267 121.267 177.193 121.001 177.045 120.777C176.901 120.553 176.702 120.379 176.449 120.257C176.196 120.135 175.912 120.074 175.597 120.074C175.261 120.074 174.969 120.143 174.719 120.283C174.472 120.419 174.28 120.611 174.143 120.858C174.01 121.105 173.943 121.395 173.943 121.727H172.938C172.938 121.216 173.055 120.767 173.291 120.381C173.527 119.994 173.848 119.693 174.254 119.477C174.663 119.261 175.122 119.153 175.631 119.153C176.142 119.153 176.595 119.261 176.99 119.477C177.385 119.693 177.695 119.984 177.919 120.351C178.143 120.717 178.256 121.125 178.256 121.574C178.256 121.895 178.197 122.209 178.081 122.516C177.967 122.82 177.768 123.159 177.484 123.534C177.203 123.906 176.812 124.361 176.312 124.898L174.352 126.994V127.062H178.409V128H172.903ZM183.067 128.119C182.709 128.114 182.351 128.045 181.993 127.915C181.635 127.784 181.308 127.564 181.013 127.254C180.717 126.942 180.48 126.52 180.301 125.989C180.122 125.455 180.033 124.784 180.033 123.977C180.033 123.205 180.105 122.52 180.25 121.923C180.395 121.324 180.605 120.82 180.881 120.411C181.156 119.999 181.489 119.686 181.878 119.473C182.27 119.26 182.712 119.153 183.203 119.153C183.692 119.153 184.126 119.251 184.507 119.447C184.891 119.641 185.203 119.911 185.445 120.257C185.686 120.604 185.842 121.003 185.913 121.455H184.874C184.777 121.062 184.589 120.737 184.311 120.479C184.033 120.22 183.663 120.091 183.203 120.091C182.527 120.091 181.994 120.385 181.605 120.973C181.219 121.561 181.024 122.386 181.021 123.449H181.089C181.249 123.207 181.438 123.001 181.656 122.831C181.878 122.658 182.122 122.524 182.389 122.43C182.656 122.337 182.939 122.29 183.237 122.29C183.737 122.29 184.195 122.415 184.609 122.665C185.024 122.912 185.357 123.254 185.607 123.692C185.857 124.126 185.982 124.625 185.982 125.188C185.982 125.727 185.861 126.222 185.619 126.67C185.378 127.116 185.038 127.472 184.601 127.736C184.166 127.997 183.655 128.125 183.067 128.119ZM183.067 127.182C183.425 127.182 183.746 127.092 184.03 126.913C184.317 126.734 184.543 126.494 184.707 126.193C184.875 125.892 184.959 125.557 184.959 125.188C184.959 124.827 184.878 124.499 184.716 124.203C184.557 123.905 184.337 123.668 184.055 123.491C183.777 123.315 183.459 123.227 183.101 123.227C182.831 123.227 182.58 123.281 182.347 123.389C182.114 123.494 181.909 123.639 181.733 123.824C181.56 124.009 181.423 124.22 181.324 124.459C181.224 124.695 181.175 124.943 181.175 125.205C181.175 125.551 181.256 125.875 181.418 126.176C181.582 126.477 181.807 126.72 182.091 126.905C182.378 127.089 182.703 127.182 183.067 127.182ZM187.674 130.455V121.455H188.646V122.494H188.765C188.839 122.381 188.941 122.236 189.072 122.06C189.206 121.881 189.396 121.722 189.643 121.582C189.893 121.44 190.231 121.369 190.657 121.369C191.208 121.369 191.694 121.507 192.115 121.783C192.535 122.058 192.863 122.449 193.099 122.955C193.335 123.46 193.453 124.057 193.453 124.744C193.453 125.438 193.335 126.038 193.099 126.547C192.863 127.053 192.537 127.445 192.119 127.723C191.701 127.999 191.22 128.136 190.674 128.136C190.254 128.136 189.917 128.067 189.664 127.928C189.412 127.786 189.217 127.625 189.081 127.446C188.944 127.264 188.839 127.114 188.765 126.994H188.68V130.455H187.674ZM188.663 124.727C188.663 125.222 188.735 125.658 188.88 126.036C189.025 126.411 189.237 126.705 189.515 126.918C189.794 127.128 190.135 127.233 190.538 127.233C190.958 127.233 191.309 127.122 191.591 126.901C191.875 126.676 192.088 126.375 192.23 125.997C192.375 125.616 192.447 125.193 192.447 124.727C192.447 124.267 192.376 123.852 192.234 123.483C192.095 123.111 191.883 122.817 191.599 122.601C191.318 122.382 190.964 122.273 190.538 122.273C190.129 122.273 189.785 122.376 189.507 122.584C189.228 122.788 189.018 123.075 188.876 123.445C188.734 123.811 188.663 124.239 188.663 124.727ZM195.467 121.455L197.036 124.131L198.604 121.455H199.763L197.649 124.727L199.763 128H198.604L197.036 125.46L195.467 128H194.308L196.388 124.727L194.308 121.455H195.467Z" fill="#2E2F30"/>
<g clip-path="url(#clip0_87_278)">
<path d="M99.708 170.708L90 161L99.708 151.292C99.894 151.104 99.9984 150.85 99.9984 150.585C99.9984 150.32 99.894 150.066 99.708 149.878L95.122 145.292C95.0293 145.199 94.9191 145.125 94.7978 145.075C94.6765 145.024 94.5464 144.998 94.415 144.998C94.2837 144.998 94.1536 145.024 94.0323 145.075C93.9109 145.125 93.8008 145.199 93.708 145.292L84 155L74.292 145.292C74.1045 145.104 73.8502 144.999 73.585 144.999C73.3199 144.999 73.0656 145.104 72.878 145.292L68.292 149.878C68.199 149.971 68.1251 150.081 68.0747 150.202C68.0243 150.323 67.9984 150.454 67.9984 150.585C67.9984 150.716 68.0243 150.846 68.0747 150.968C68.1251 151.089 68.199 151.199 68.292 151.292L78 161L68.292 170.708C68.1046 170.895 67.9992 171.15 67.9992 171.415C67.9992 171.68 68.1046 171.934 68.292 172.122L72.878 176.708C72.9708 176.801 73.0809 176.875 73.2023 176.925C73.3236 176.976 73.4537 177.002 73.585 177.002C73.7164 177.002 73.8465 176.976 73.9678 176.925C74.0891 176.875 74.1993 176.801 74.292 176.708L84 167L93.708 176.708C93.8956 176.895 94.1499 177.001 94.415 177.001C94.6802 177.001 94.9345 176.895 95.122 176.708L99.708 172.122C99.8011 172.029 99.8749 171.919 99.9253 171.798C99.9757 171.676 100.002 171.546 100.002 171.415C100.002 171.284 99.9757 171.153 99.9253 171.032C99.8749 170.911 99.8011 170.801 99.708 170.708V170.708Z" fill="#E01F1F"/>
</g>
<path d="M317.75 146L299 164.75L290.25 156L284 162.25L299 177.25L324 152.25L317.75 146Z" fill="#1FE03E"/>
<defs>
<clipPath id="clip0_87_278">
<rect width="32" height="32" fill="white" transform="translate(68 145)"/>
</clipPath>
</defs>
</svg>
