<svg width="668" height="475" viewBox="0 0 668 475" fill="none" xmlns="http://www.w3.org/2000/svg">
<rect width="668" height="475" fill="#EBF2F4"/>
<path d="M75.5795 14.1364C74.9659 14.1364 74.4375 13.9915 73.9943 13.7017C73.5511 13.4119 73.2102 13.0128 72.9716 12.5043C72.733 11.9957 72.6136 11.4148 72.6136 10.7614C72.6136 10.0966 72.7358 9.50994 72.9801 9.00142C73.2273 8.49006 73.571 8.09091 74.0114 7.80398C74.4545 7.5142 74.9716 7.36932 75.5625 7.36932C76.0227 7.36932 76.4375 7.45455 76.8068 7.625C77.1761 7.79545 77.4787 8.03409 77.7145 8.34091C77.9503 8.64773 78.0966 9.00568 78.1534 9.41477H77.1477C77.071 9.11648 76.9006 8.85227 76.6364 8.62216C76.375 8.3892 76.0227 8.27273 75.5795 8.27273C75.1875 8.27273 74.8438 8.375 74.5483 8.57955C74.2557 8.78125 74.027 9.06676 73.8622 9.43608C73.7003 9.80256 73.6193 10.233 73.6193 10.7273C73.6193 11.233 73.6989 11.6733 73.858 12.0483C74.0199 12.4233 74.2472 12.7145 74.5398 12.9219C74.8352 13.1293 75.1818 13.233 75.5795 13.233C75.8409 13.233 76.0781 13.1875 76.2912 13.0966C76.5043 13.0057 76.6847 12.875 76.8324 12.7045C76.9801 12.5341 77.0852 12.3295 77.1477 12.0909H78.1534C78.0966 12.4773 77.956 12.8253 77.7315 13.1349C77.5099 13.4418 77.2159 13.6861 76.8494 13.8679C76.4858 14.0469 76.0625 14.1364 75.5795 14.1364ZM82.2827 14.1364C81.6918 14.1364 81.1733 13.9957 80.7273 13.7145C80.2841 13.4332 79.9375 13.0398 79.6875 12.5341C79.4403 12.0284 79.3168 11.4375 79.3168 10.7614C79.3168 10.0795 79.4403 9.48437 79.6875 8.97585C79.9375 8.46733 80.2841 8.07244 80.7273 7.79119C81.1733 7.50994 81.6918 7.36932 82.2827 7.36932C82.8736 7.36932 83.3906 7.50994 83.8338 7.79119C84.2798 8.07244 84.6264 8.46733 84.8736 8.97585C85.1236 9.48437 85.2486 10.0795 85.2486 10.7614C85.2486 11.4375 85.1236 12.0284 84.8736 12.5341C84.6264 13.0398 84.2798 13.4332 83.8338 13.7145C83.3906 13.9957 82.8736 14.1364 82.2827 14.1364ZM82.2827 13.233C82.7315 13.233 83.1009 13.1179 83.3906 12.8878C83.6804 12.6577 83.8949 12.3551 84.0341 11.9801C84.1733 11.6051 84.2429 11.1989 84.2429 10.7614C84.2429 10.3239 84.1733 9.91619 84.0341 9.53835C83.8949 9.16051 83.6804 8.85511 83.3906 8.62216C83.1009 8.3892 82.7315 8.27273 82.2827 8.27273C81.8338 8.27273 81.4645 8.3892 81.1747 8.62216C80.8849 8.85511 80.6705 9.16051 80.5312 9.53835C80.392 9.91619 80.3224 10.3239 80.3224 10.7614C80.3224 11.1989 80.392 11.6051 80.5312 11.9801C80.6705 12.3551 80.8849 12.6577 81.1747 12.8878C81.4645 13.1179 81.8338 13.233 82.2827 13.233ZM87.7894 5.27273V14H86.7837V5.27273H87.7894ZM93.7564 11.3239V7.45455H94.7621V14H93.7564V12.892H93.6882C93.5348 13.2244 93.2962 13.5071 92.9723 13.7401C92.6484 13.9702 92.2393 14.0852 91.745 14.0852C91.3359 14.0852 90.9723 13.9957 90.6541 13.8168C90.3359 13.6349 90.0859 13.3622 89.9041 12.9986C89.7223 12.6321 89.6314 12.1705 89.6314 11.6136V7.45455H90.6371V11.5455C90.6371 12.0227 90.7706 12.4034 91.0376 12.6875C91.3075 12.9716 91.6513 13.1136 92.0689 13.1136C92.3189 13.1136 92.5732 13.0497 92.8317 12.9219C93.093 12.794 93.3118 12.598 93.4879 12.3338C93.6669 12.0696 93.7564 11.733 93.7564 11.3239ZM96.604 14V7.45455H97.5756V8.47727H97.6609C97.7972 8.12784 98.0174 7.85653 98.3214 7.66335C98.6254 7.46733 98.9904 7.36932 99.4165 7.36932C99.8484 7.36932 100.208 7.46733 100.495 7.66335C100.784 7.85653 101.01 8.12784 101.172 8.47727H101.24C101.408 8.1392 101.659 7.87074 101.995 7.67188C102.33 7.47017 102.732 7.36932 103.201 7.36932C103.786 7.36932 104.265 7.55256 104.637 7.91903C105.009 8.28267 105.195 8.84943 105.195 9.61932V14H104.189V9.61932C104.189 9.13636 104.057 8.79119 103.793 8.58381C103.529 8.37642 103.218 8.27273 102.86 8.27273C102.4 8.27273 102.043 8.41193 101.79 8.69034C101.537 8.96591 101.411 9.31534 101.411 9.73864V14H100.388V9.51705C100.388 9.14489 100.267 8.84517 100.026 8.6179C99.7844 8.38778 99.4734 8.27273 99.0927 8.27273C98.8313 8.27273 98.587 8.34233 98.3597 8.48153C98.1353 8.62074 97.9535 8.81392 97.8143 9.06108C97.6779 9.3054 97.6097 9.58807 97.6097 9.90909V14H96.604ZM108.039 10.0625V14H107.034V7.45455H108.005V8.47727H108.091C108.244 8.14489 108.477 7.87784 108.789 7.67614C109.102 7.47159 109.505 7.36932 110 7.36932C110.443 7.36932 110.831 7.46023 111.163 7.64205C111.495 7.82102 111.754 8.09375 111.939 8.46023C112.123 8.82386 112.216 9.28409 112.216 9.84091V14H111.21V9.90909C111.21 9.39489 111.076 8.99432 110.809 8.70739C110.542 8.41761 110.176 8.27273 109.71 8.27273C109.389 8.27273 109.102 8.34233 108.849 8.48153C108.599 8.62074 108.402 8.82386 108.257 9.09091C108.112 9.35795 108.039 9.68182 108.039 10.0625Z" fill="#2E2F30"/>
<path d="M74 18L79 20.8868V15.1132L74 18ZM111 18L106 15.1132V20.8868L111 18ZM78.5 18.5H106.5V17.5H78.5V18.5Z" fill="#2E2F30"/>
<path d="M104.562 53.5909C104.077 53.5909 103.659 53.5284 103.31 53.4034C102.96 53.2812 102.669 53.1193 102.436 52.9176C102.206 52.7188 102.023 52.5057 101.886 52.2784L102.688 51.7159C102.778 51.8352 102.893 51.9716 103.033 52.125C103.172 52.2812 103.362 52.4162 103.604 52.5298C103.848 52.6463 104.168 52.7045 104.562 52.7045C105.091 52.7045 105.527 52.5767 105.871 52.321C106.214 52.0653 106.386 51.6648 106.386 51.1193V49.7898H106.301C106.227 49.9091 106.122 50.0568 105.986 50.233C105.852 50.4062 105.659 50.5611 105.406 50.6974C105.156 50.831 104.818 50.8977 104.392 50.8977C103.864 50.8977 103.389 50.7727 102.969 50.5227C102.551 50.2727 102.22 49.9091 101.976 49.4318C101.734 48.9545 101.614 48.375 101.614 47.6932C101.614 47.0227 101.732 46.4389 101.967 45.9418C102.203 45.4418 102.531 45.0554 102.952 44.7827C103.372 44.5071 103.858 44.3693 104.409 44.3693C104.835 44.3693 105.173 44.4403 105.423 44.5824C105.676 44.7216 105.869 44.8807 106.003 45.0597C106.139 45.2358 106.244 45.3807 106.318 45.4943H106.42V44.4545H107.392V51.1875C107.392 51.75 107.264 52.2074 107.009 52.5597C106.756 52.9148 106.415 53.1747 105.986 53.3395C105.56 53.5071 105.085 53.5909 104.562 53.5909ZM104.528 49.9943C104.932 49.9943 105.273 49.902 105.551 49.7173C105.83 49.5327 106.041 49.267 106.186 48.9205C106.331 48.5739 106.403 48.1591 106.403 47.6761C106.403 47.2045 106.332 46.7884 106.19 46.4276C106.048 46.0668 105.838 45.7841 105.56 45.5795C105.281 45.375 104.938 45.2727 104.528 45.2727C104.102 45.2727 103.747 45.3807 103.463 45.5966C103.182 45.8125 102.97 46.1023 102.828 46.4659C102.689 46.8295 102.619 47.233 102.619 47.6761C102.619 48.1307 102.69 48.5327 102.832 48.8821C102.977 49.2287 103.19 49.5014 103.472 49.7003C103.756 49.8963 104.108 49.9943 104.528 49.9943ZM113.358 48.3239V44.4545H114.364V51H113.358V49.892H113.29C113.136 50.2244 112.898 50.5071 112.574 50.7401C112.25 50.9702 111.841 51.0852 111.347 51.0852C110.938 51.0852 110.574 50.9957 110.256 50.8168C109.938 50.6349 109.688 50.3622 109.506 49.9986C109.324 49.6321 109.233 49.1705 109.233 48.6136V44.4545H110.239V48.5455C110.239 49.0227 110.372 49.4034 110.639 49.6875C110.909 49.9716 111.253 50.1136 111.67 50.1136C111.92 50.1136 112.175 50.0497 112.433 49.9219C112.695 49.794 112.913 49.598 113.089 49.3338C113.268 49.0696 113.358 48.733 113.358 48.3239ZM119.052 44.4545V45.3068H115.66V44.4545H119.052ZM116.649 42.8864H117.654V49.125C117.654 49.4091 117.696 49.6222 117.778 49.7642C117.863 49.9034 117.971 49.9972 118.102 50.0455C118.235 50.0909 118.376 50.1136 118.524 50.1136C118.635 50.1136 118.725 50.108 118.797 50.0966C118.868 50.0824 118.924 50.071 118.967 50.0625L119.172 50.9659C119.103 50.9915 119.008 51.017 118.886 51.0426C118.764 51.071 118.609 51.0852 118.422 51.0852C118.137 51.0852 117.859 51.0241 117.586 50.902C117.316 50.7798 117.092 50.5938 116.913 50.3438C116.737 50.0938 116.649 49.7784 116.649 49.3977V42.8864ZM123.412 44.4545V45.3068H120.02V44.4545H123.412ZM121.008 42.8864H122.014V49.125C122.014 49.4091 122.055 49.6222 122.137 49.7642C122.223 49.9034 122.331 49.9972 122.461 50.0455C122.595 50.0909 122.735 50.1136 122.883 50.1136C122.994 50.1136 123.085 50.108 123.156 50.0966C123.227 50.0824 123.284 50.071 123.326 50.0625L123.531 50.9659C123.463 50.9915 123.368 51.017 123.245 51.0426C123.123 51.071 122.968 51.0852 122.781 51.0852C122.497 51.0852 122.218 51.0241 121.946 50.902C121.676 50.7798 121.451 50.5938 121.272 50.3438C121.096 50.0938 121.008 49.7784 121.008 49.3977V42.8864ZM127.598 51.1364C126.968 51.1364 126.424 50.9972 125.966 50.7188C125.512 50.4375 125.161 50.0455 124.914 49.5426C124.669 49.0369 124.547 48.4489 124.547 47.7784C124.547 47.108 124.669 46.517 124.914 46.0057C125.161 45.4915 125.505 45.0909 125.945 44.804C126.388 44.5142 126.905 44.3693 127.496 44.3693C127.837 44.3693 128.174 44.4261 128.506 44.5398C128.838 44.6534 129.141 44.8381 129.414 45.0938C129.686 45.3466 129.904 45.6818 130.066 46.0994C130.228 46.517 130.309 47.0312 130.309 47.642V48.0682H125.263V47.1989H129.286C129.286 46.8295 129.212 46.5 129.064 46.2102C128.919 45.9205 128.712 45.6918 128.442 45.5241C128.175 45.3565 127.86 45.2727 127.496 45.2727C127.096 45.2727 126.749 45.3722 126.456 45.571C126.167 45.767 125.944 46.0227 125.787 46.3381C125.631 46.6534 125.553 46.9915 125.553 47.3523V47.9318C125.553 48.4261 125.638 48.8452 125.809 49.1889C125.982 49.5298 126.222 49.7898 126.529 49.9688C126.836 50.1449 127.192 50.233 127.598 50.233C127.863 50.233 128.101 50.196 128.314 50.1222C128.53 50.0455 128.716 49.9318 128.873 49.7812C129.029 49.6278 129.15 49.4375 129.235 49.2102L130.206 49.483C130.104 49.8125 129.932 50.1023 129.691 50.3523C129.449 50.5994 129.151 50.7926 128.796 50.9318C128.441 51.0682 128.042 51.1364 127.598 51.1364ZM131.838 51V44.4545H132.81V45.4432H132.878C132.998 45.1193 133.213 44.8565 133.526 44.6548C133.838 44.4531 134.191 44.3523 134.583 44.3523C134.657 44.3523 134.749 44.3537 134.86 44.3565C134.971 44.3594 135.054 44.3636 135.111 44.3693V45.392C135.077 45.3835 134.999 45.3707 134.877 45.3537C134.757 45.3338 134.631 45.3239 134.498 45.3239C134.179 45.3239 133.895 45.3906 133.645 45.5241C133.398 45.6548 133.202 45.8366 133.057 46.0696C132.915 46.2997 132.844 46.5625 132.844 46.858V51H131.838Z" fill="#2E2F30"/>
<path d="M111 55L116 57.8868L116 52.1132L111 55ZM127 55L122 52.1132L122 57.8868L127 55ZM115.5 55.5L122.5 55.5L122.5 54.5L115.5 54.5L115.5 55.5Z" fill="#2E2F30"/>
<path d="M0.920455 39V32.4545H1.89205V33.4773H1.97727C2.11364 33.1278 2.33381 32.8565 2.63778 32.6634C2.94176 32.4673 3.30682 32.3693 3.73295 32.3693C4.16477 32.3693 4.52415 32.4673 4.81108 32.6634C5.10085 32.8565 5.3267 33.1278 5.48864 33.4773H5.55682C5.72443 33.1392 5.97585 32.8707 6.31108 32.6719C6.64631 32.4702 7.0483 32.3693 7.51705 32.3693C8.10227 32.3693 8.58097 32.5526 8.95312 32.919C9.32528 33.2827 9.51136 33.8494 9.51136 34.6193V39H8.50568V34.6193C8.50568 34.1364 8.37358 33.7912 8.10938 33.5838C7.84517 33.3764 7.53409 33.2727 7.17614 33.2727C6.71591 33.2727 6.35938 33.4119 6.10653 33.6903C5.85369 33.9659 5.72727 34.3153 5.72727 34.7386V39H4.70455V34.517C4.70455 34.1449 4.58381 33.8452 4.34233 33.6179C4.10085 33.3878 3.78977 33.2727 3.40909 33.2727C3.14773 33.2727 2.90341 33.3423 2.67614 33.4815C2.4517 33.6207 2.26989 33.8139 2.13068 34.0611C1.99432 34.3054 1.92614 34.5881 1.92614 34.9091V39H0.920455ZM13.2763 39.1534C12.8615 39.1534 12.4851 39.0753 12.147 38.919C11.8089 38.7599 11.5405 38.5312 11.3416 38.233C11.1428 37.9318 11.0433 37.5682 11.0433 37.142C11.0433 36.767 11.1172 36.4631 11.2649 36.2301C11.4126 35.9943 11.6101 35.8097 11.8572 35.6761C12.1044 35.5426 12.3771 35.4432 12.6754 35.3778C12.9766 35.3097 13.2791 35.2557 13.5831 35.2159C13.9808 35.1648 14.3033 35.1264 14.5504 35.1009C14.8004 35.0724 14.9822 35.0256 15.0959 34.9602C15.2124 34.8949 15.2706 34.7812 15.2706 34.6193V34.5852C15.2706 34.1648 15.1555 33.8381 14.9254 33.6051C14.6982 33.3722 14.353 33.2557 13.8899 33.2557C13.4098 33.2557 13.0334 33.3608 12.7607 33.571C12.4879 33.7812 12.2962 34.0057 12.1854 34.2443L11.2308 33.9034C11.4013 33.5057 11.6286 33.196 11.9126 32.9744C12.1996 32.75 12.5121 32.5937 12.8501 32.5057C13.1911 32.4148 13.5263 32.3693 13.8558 32.3693C14.0661 32.3693 14.3075 32.3949 14.5803 32.446C14.8558 32.4943 15.1214 32.5952 15.3771 32.7486C15.6357 32.902 15.8501 33.1335 16.0206 33.4432C16.1911 33.7528 16.2763 34.1676 16.2763 34.6875V39H15.2706V38.1136H15.2195C15.1513 38.2557 15.0376 38.4077 14.8786 38.5696C14.7195 38.7315 14.5078 38.8693 14.2436 38.983C13.9794 39.0966 13.657 39.1534 13.2763 39.1534ZM13.4297 38.25C13.8274 38.25 14.1626 38.1719 14.4354 38.0156C14.7109 37.8594 14.9183 37.6577 15.0575 37.4105C15.1996 37.1634 15.2706 36.9034 15.2706 36.6307V35.7102C15.228 35.7614 15.1342 35.8082 14.9893 35.8509C14.8473 35.8906 14.6825 35.9261 14.495 35.9574C14.3104 35.9858 14.13 36.0114 13.9538 36.0341C13.7805 36.054 13.6399 36.071 13.532 36.0852C13.2706 36.1193 13.0263 36.1747 12.799 36.2514C12.5746 36.3253 12.3928 36.4375 12.2536 36.5881C12.1172 36.7358 12.049 36.9375 12.049 37.1932C12.049 37.5426 12.1783 37.8068 12.4368 37.9858C12.6982 38.1619 13.0291 38.25 13.4297 38.25ZM18.1119 39V32.4545H19.0835V33.4432H19.1516C19.271 33.1193 19.4869 32.8565 19.7994 32.6548C20.1119 32.4531 20.4641 32.3523 20.8562 32.3523C20.93 32.3523 21.0224 32.3537 21.1332 32.3565C21.244 32.3594 21.3278 32.3636 21.3846 32.3693V33.392C21.3505 33.3835 21.2724 33.3707 21.1502 33.3537C21.0309 33.3338 20.9045 33.3239 20.771 33.3239C20.4528 33.3239 20.1687 33.3906 19.9187 33.5241C19.6715 33.6548 19.4755 33.8366 19.3306 34.0696C19.1886 34.2997 19.1175 34.5625 19.1175 34.858V39H18.1119ZM25.0195 41.5909C24.5337 41.5909 24.1161 41.5284 23.7667 41.4034C23.4173 41.2812 23.1261 41.1193 22.8931 40.9176C22.663 40.7188 22.4798 40.5057 22.3434 40.2784L23.1445 39.7159C23.2354 39.8352 23.3505 39.9716 23.4897 40.125C23.6289 40.2812 23.8192 40.4162 24.0607 40.5298C24.305 40.6463 24.6246 40.7045 25.0195 40.7045C25.5479 40.7045 25.984 40.5767 26.3278 40.321C26.6715 40.0653 26.8434 39.6648 26.8434 39.1193V37.7898H26.7582C26.6843 37.9091 26.5792 38.0568 26.4428 38.233C26.3093 38.4062 26.1161 38.5611 25.8633 38.6974C25.6133 38.831 25.2752 38.8977 24.8491 38.8977C24.3207 38.8977 23.8462 38.7727 23.4258 38.5227C23.0082 38.2727 22.6772 37.9091 22.4329 37.4318C22.1914 36.9545 22.0707 36.375 22.0707 35.6932C22.0707 35.0227 22.1886 34.4389 22.4244 33.9418C22.6602 33.4418 22.9883 33.0554 23.4087 32.7827C23.8292 32.5071 24.315 32.3693 24.8661 32.3693C25.2923 32.3693 25.6303 32.4403 25.8803 32.5824C26.1332 32.7216 26.3263 32.8807 26.4599 33.0597C26.5962 33.2358 26.7013 33.3807 26.7752 33.4943H26.8775V32.4545H27.8491V39.1875C27.8491 39.75 27.7212 40.2074 27.4656 40.5597C27.2127 40.9148 26.8718 41.1747 26.4428 41.3395C26.0167 41.5071 25.5423 41.5909 25.0195 41.5909ZM24.9854 37.9943C25.3888 37.9943 25.7298 37.902 26.0082 37.7173C26.2866 37.5327 26.4982 37.267 26.6431 36.9205C26.788 36.5739 26.8604 36.1591 26.8604 35.6761C26.8604 35.2045 26.7894 34.7884 26.6474 34.4276C26.5053 34.0668 26.2951 33.7841 26.0167 33.5795C25.7383 33.375 25.3945 33.2727 24.9854 33.2727C24.5593 33.2727 24.2042 33.3807 23.9201 33.5966C23.6388 33.8125 23.4272 34.1023 23.2852 34.4659C23.146 34.8295 23.0763 35.233 23.0763 35.6761C23.0763 36.1307 23.1474 36.5327 23.2894 36.8821C23.4343 37.2287 23.6474 37.5014 23.9286 37.7003C24.2127 37.8963 24.565 37.9943 24.9854 37.9943ZM29.69 39V32.4545H30.6957V39H29.69ZM30.2013 31.3636C30.0053 31.3636 29.8363 31.2969 29.6942 31.1634C29.555 31.0298 29.4854 30.8693 29.4854 30.6818C29.4854 30.4943 29.555 30.3338 29.6942 30.2003C29.8363 30.0668 30.0053 30 30.2013 30C30.3974 30 30.565 30.0668 30.7042 30.2003C30.8462 30.3338 30.9173 30.4943 30.9173 30.6818C30.9173 30.8693 30.8462 31.0298 30.7042 31.1634C30.565 31.2969 30.3974 31.3636 30.2013 31.3636ZM33.5433 35.0625V39H32.5376V32.4545H33.5092V33.4773H33.5945C33.7479 33.1449 33.9808 32.8778 34.2933 32.6761C34.6058 32.4716 35.0092 32.3693 35.5036 32.3693C35.9467 32.3693 36.3345 32.4602 36.6669 32.642C36.9993 32.821 37.2578 33.0938 37.4425 33.4602C37.6271 33.8239 37.7195 34.2841 37.7195 34.8409V39H36.7138V34.9091C36.7138 34.3949 36.5803 33.9943 36.3132 33.7074C36.0462 33.4176 35.6797 33.2727 35.2138 33.2727C34.8928 33.2727 34.6058 33.3423 34.353 33.4815C34.103 33.6207 33.9055 33.8239 33.7607 34.0909C33.6158 34.358 33.5433 34.6818 33.5433 35.0625Z" fill="#2E2F30"/>
<path d="M0 43L5 45.8868L5 40.1132L0 43ZM20 43L15 40.1132L15 45.8868L20 43ZM4.5 43.5L15.5 43.5L15.5 42.5L4.5 42.5L4.5 43.5Z" fill="#2E2F30"/>
<rect x="20" y="152" width="306" height="60" fill="#1FADE0"/>
<rect x="342" y="152" width="306" height="60" fill="#1FADE0"/>
<rect x="20" y="76" width="628" height="60" fill="#1FADE0"/>
<rect x="503" y="304" width="145" height="60" fill="#1FADE0"/>
<rect x="557" y="380" width="91" height="60" fill="#1FADE0"/>
<rect x="449" y="380" width="92" height="60" fill="#1FADE0"/>
<path d="M342 380H433V440H342V380Z" fill="#1FADE0"/>
<rect x="235" y="380" width="91" height="60" fill="#1FADE0"/>
<rect x="127" y="380" width="92" height="60" fill="#1FADE0"/>
<rect x="20" y="380" width="91" height="60" fill="#1FADE0"/>
<rect x="20" y="228" width="199" height="60" fill="#1FADE0"/>
<rect x="235" y="228" width="198" height="60" fill="#1FADE0"/>
<rect x="449" y="228" width="199" height="60" fill="#1FADE0"/>
<rect x="342" y="304" width="145" height="60" fill="#1FADE0"/>
<rect x="181" y="304" width="145" height="60" fill="#1FADE0"/>
<rect x="20" y="304" width="145" height="60" fill="#1FADE0"/>
<rect x="20" width="38" height="475" fill="#E01FAD" fill-opacity="0.15"/>
<rect x="74" width="37" height="475" fill="#E01FAD" fill-opacity="0.15"/>
<rect x="127" width="38" height="475" fill="#E01FAD" fill-opacity="0.15"/>
<rect x="181" width="38" height="475" fill="#E01FAD" fill-opacity="0.15"/>
<rect x="235" width="37" height="475" fill="#E01FAD" fill-opacity="0.15"/>
<rect x="288" width="38" height="475" fill="#E01FAD" fill-opacity="0.15"/>
<rect x="342" width="38" height="475" fill="#E01FAD" fill-opacity="0.15"/>
<rect x="396" width="37" height="475" fill="#E01FAD" fill-opacity="0.15"/>
<rect x="449" width="38" height="475" fill="#E01FAD" fill-opacity="0.15"/>
<rect x="503" width="38" height="475" fill="#E01FAD" fill-opacity="0.15"/>
<rect x="557" width="37" height="475" fill="#E01FAD" fill-opacity="0.15"/>
<rect x="610" width="38" height="475" fill="#E01FAD" fill-opacity="0.15"/>
</svg>
