<svg width="668" height="232" viewBox="0 0 668 232" fill="none" xmlns="http://www.w3.org/2000/svg">
<g clip-path="url(#clip0_94_321)">
<rect width="326" height="231.811" fill="#EBF2F4"/>
<rect x="23" width="16" height="232" fill="#E01FAD" fill-opacity="0.15"/>
<rect x="47" width="16" height="232" fill="#E01FAD" fill-opacity="0.15"/>
<rect x="71" width="16" height="232" fill="#E01FAD" fill-opacity="0.15"/>
<rect x="95" width="16" height="232" fill="#E01FAD" fill-opacity="0.15"/>
<rect x="119" width="16" height="232" fill="#E01FAD" fill-opacity="0.15"/>
<rect x="143" width="16" height="232" fill="#E01FAD" fill-opacity="0.15"/>
<rect x="167" width="16" height="232" fill="#E01FAD" fill-opacity="0.15"/>
<rect x="191" width="16" height="232" fill="#E01FAD" fill-opacity="0.15"/>
<rect x="215" width="16" height="232" fill="#E01FAD" fill-opacity="0.15"/>
<rect x="239" width="16" height="232" fill="#E01FAD" fill-opacity="0.15"/>
<rect x="263" width="16" height="232" fill="#E01FAD" fill-opacity="0.15"/>
<rect x="287" width="16" height="232" fill="#E01FAD" fill-opacity="0.15"/>
<path d="M115.435 123V108.455H124.753V110.663H118.07V114.612H124.114V116.821H118.07V123H115.435ZM127.04 123V112.091H129.611V123H127.04ZM128.332 110.543C127.925 110.543 127.575 110.408 127.281 110.138C126.988 109.863 126.841 109.534 126.841 109.151C126.841 108.762 126.988 108.433 127.281 108.163C127.575 107.889 127.925 107.751 128.332 107.751C128.744 107.751 129.095 107.889 129.384 108.163C129.677 108.433 129.824 108.762 129.824 109.151C129.824 109.534 129.677 109.863 129.384 110.138C129.095 110.408 128.744 110.543 128.332 110.543ZM134.357 112.091L136.559 116.118L138.796 112.091H141.516L138.228 117.545L141.573 123H138.867L136.559 119.072L134.272 123H131.544L134.868 117.545L131.63 112.091H134.357ZM147.924 123.213C146.83 123.213 145.886 122.986 145.09 122.531C144.299 122.072 143.691 121.423 143.265 120.585C142.839 119.742 142.626 118.75 142.626 117.609C142.626 116.487 142.839 115.502 143.265 114.655C143.696 113.803 144.297 113.14 145.069 112.666C145.841 112.188 146.747 111.949 147.789 111.949C148.461 111.949 149.096 112.058 149.692 112.276C150.294 112.489 150.824 112.82 151.283 113.27C151.747 113.72 152.112 114.293 152.377 114.989C152.642 115.68 152.775 116.504 152.775 117.46V118.249H143.833V116.516H150.31C150.306 116.023 150.199 115.585 149.991 115.202C149.782 114.813 149.491 114.508 149.117 114.286C148.748 114.063 148.317 113.952 147.825 113.952C147.299 113.952 146.837 114.08 146.44 114.335C146.042 114.586 145.732 114.918 145.509 115.33C145.291 115.737 145.18 116.184 145.175 116.672V118.185C145.175 118.819 145.291 119.364 145.523 119.818C145.755 120.268 146.08 120.614 146.496 120.855C146.913 121.092 147.401 121.21 147.96 121.21C148.334 121.21 148.672 121.158 148.975 121.054C149.278 120.945 149.541 120.786 149.763 120.578C149.986 120.37 150.154 120.112 150.268 119.804L152.668 120.074C152.517 120.708 152.228 121.262 151.802 121.736C151.38 122.205 150.841 122.569 150.183 122.83C149.524 123.085 148.772 123.213 147.924 123.213ZM158.998 123.192C158.141 123.192 157.374 122.972 156.697 122.531C156.02 122.091 155.485 121.452 155.092 120.614C154.699 119.776 154.502 118.758 154.502 117.56C154.502 116.348 154.701 115.325 155.099 114.491C155.502 113.653 156.044 113.021 156.725 112.595C157.407 112.164 158.167 111.949 159.005 111.949C159.645 111.949 160.17 112.058 160.582 112.276C160.994 112.489 161.321 112.747 161.562 113.05C161.804 113.348 161.991 113.63 162.123 113.895H162.23V108.455H164.808V123H162.279V121.281H162.123C161.991 121.546 161.799 121.828 161.548 122.126C161.297 122.42 160.966 122.671 160.554 122.879C160.142 123.088 159.623 123.192 158.998 123.192ZM159.716 121.082C160.26 121.082 160.724 120.936 161.108 120.642C161.491 120.344 161.782 119.929 161.981 119.399C162.18 118.869 162.279 118.251 162.279 117.545C162.279 116.84 162.18 116.227 161.981 115.706C161.787 115.185 161.498 114.78 161.115 114.491C160.736 114.203 160.27 114.058 159.716 114.058C159.143 114.058 158.664 114.207 158.281 114.506C157.897 114.804 157.609 115.216 157.414 115.741C157.22 116.267 157.123 116.868 157.123 117.545C157.123 118.227 157.22 118.836 157.414 119.371C157.613 119.901 157.904 120.32 158.288 120.628C158.676 120.931 159.152 121.082 159.716 121.082ZM182.366 113.099C182.248 112.716 182.085 112.373 181.876 112.07C181.673 111.762 181.427 111.499 181.138 111.281C180.854 111.063 180.527 110.9 180.158 110.791C179.788 110.678 179.386 110.621 178.95 110.621C178.169 110.621 177.473 110.817 176.862 111.21C176.251 111.603 175.771 112.181 175.42 112.943C175.075 113.701 174.902 114.624 174.902 115.713C174.902 116.812 175.075 117.742 175.42 118.504C175.766 119.267 176.247 119.847 176.862 120.244C177.478 120.637 178.193 120.834 179.007 120.834C179.746 120.834 180.385 120.692 180.925 120.408C181.469 120.124 181.888 119.721 182.182 119.2C182.475 118.675 182.622 118.059 182.622 117.354L183.219 117.446H179.27V115.386H185.172V117.134C185.172 118.379 184.907 119.456 184.376 120.365C183.846 121.274 183.117 121.975 182.189 122.467C181.261 122.955 180.196 123.199 178.993 123.199C177.653 123.199 176.476 122.898 175.463 122.297C174.455 121.691 173.666 120.831 173.098 119.719C172.535 118.601 172.253 117.276 172.253 115.741C172.253 114.567 172.419 113.518 172.75 112.595C173.086 111.672 173.555 110.888 174.156 110.244C174.758 109.596 175.463 109.103 176.273 108.767C177.082 108.426 177.963 108.256 178.915 108.256C179.72 108.256 180.47 108.374 181.166 108.611C181.862 108.843 182.48 109.174 183.02 109.605C183.564 110.036 184.012 110.547 184.362 111.139C184.713 111.731 184.942 112.384 185.051 113.099H182.366ZM187.606 123V112.091H190.099V113.909H190.213C190.412 113.279 190.752 112.794 191.235 112.453C191.723 112.107 192.279 111.935 192.904 111.935C193.047 111.935 193.205 111.942 193.38 111.956C193.56 111.965 193.709 111.982 193.828 112.006V114.371C193.719 114.333 193.546 114.3 193.309 114.271C193.077 114.238 192.852 114.222 192.635 114.222C192.166 114.222 191.744 114.323 191.37 114.527C191.001 114.726 190.71 115.003 190.497 115.358C190.284 115.713 190.177 116.123 190.177 116.587V123H187.606ZM195.536 123V112.091H198.107V123H195.536ZM196.828 110.543C196.421 110.543 196.071 110.408 195.777 110.138C195.484 109.863 195.337 109.534 195.337 109.151C195.337 108.762 195.484 108.433 195.777 108.163C196.071 107.889 196.421 107.751 196.828 107.751C197.24 107.751 197.591 107.889 197.88 108.163C198.173 108.433 198.32 108.762 198.32 109.151C198.32 109.534 198.173 109.863 197.88 110.138C197.591 110.408 197.24 110.543 196.828 110.543ZM204.799 123.192C203.942 123.192 203.175 122.972 202.498 122.531C201.821 122.091 201.286 121.452 200.893 120.614C200.5 119.776 200.303 118.758 200.303 117.56C200.303 116.348 200.502 115.325 200.9 114.491C201.302 113.653 201.844 113.021 202.526 112.595C203.208 112.164 203.968 111.949 204.806 111.949C205.445 111.949 205.971 112.058 206.383 112.276C206.795 112.489 207.121 112.747 207.363 113.05C207.604 113.348 207.791 113.63 207.924 113.895H208.031V108.455H210.609V123H208.08V121.281H207.924C207.791 121.546 207.6 121.828 207.349 122.126C207.098 122.42 206.766 122.671 206.354 122.879C205.942 123.088 205.424 123.192 204.799 123.192ZM205.516 121.082C206.061 121.082 206.525 120.936 206.908 120.642C207.292 120.344 207.583 119.929 207.782 119.399C207.981 118.869 208.08 118.251 208.08 117.545C208.08 116.84 207.981 116.227 207.782 115.706C207.588 115.185 207.299 114.78 206.915 114.491C206.537 114.203 206.07 114.058 205.516 114.058C204.943 114.058 204.465 114.207 204.082 114.506C203.698 114.804 203.409 115.216 203.215 115.741C203.021 116.267 202.924 116.868 202.924 117.545C202.924 118.227 203.021 118.836 203.215 119.371C203.414 119.901 203.705 120.32 204.089 120.628C204.477 120.931 204.953 121.082 205.516 121.082Z" fill="#2E2F30"/>
</g>
<g clip-path="url(#clip1_94_321)">
<rect x="342" width="326" height="231.811" fill="#EBF2F4"/>
<rect x="350" width="19" height="232" fill="#E01FAD" fill-opacity="0.15"/>
<rect x="377" width="18" height="232" fill="#E01FAD" fill-opacity="0.15"/>
<rect x="403" width="19" height="232" fill="#E01FAD" fill-opacity="0.15"/>
<rect x="430" width="18" height="232" fill="#E01FAD" fill-opacity="0.15"/>
<rect x="456" width="19" height="232" fill="#E01FAD" fill-opacity="0.15"/>
<rect x="483" width="18" height="232" fill="#E01FAD" fill-opacity="0.15"/>
<rect x="509" width="19" height="232" fill="#E01FAD" fill-opacity="0.15"/>
<rect x="536" width="18" height="232" fill="#E01FAD" fill-opacity="0.15"/>
<rect x="562" width="19" height="232" fill="#E01FAD" fill-opacity="0.15"/>
<rect x="589" width="18" height="232" fill="#E01FAD" fill-opacity="0.15"/>
<rect x="615" width="19" height="232" fill="#E01FAD" fill-opacity="0.15"/>
<rect x="642" width="18" height="232" fill="#E01FAD" fill-opacity="0.15"/>
<path d="M460.435 123V108.455H469.753V110.663H463.07V114.612H469.114V116.821H463.07V123H460.435ZM474.611 108.455V123H472.04V108.455H474.611ZM484.208 118.412V112.091H486.779V123H484.286V121.061H484.172C483.926 121.672 483.521 122.171 482.958 122.56C482.399 122.948 481.71 123.142 480.891 123.142C480.176 123.142 479.544 122.983 478.995 122.666C478.45 122.344 478.024 121.878 477.716 121.267C477.408 120.652 477.255 119.908 477.255 119.037V112.091H479.826V118.639C479.826 119.33 480.015 119.88 480.394 120.287C480.773 120.694 481.27 120.898 481.885 120.898C482.264 120.898 482.631 120.805 482.986 120.621C483.341 120.436 483.632 120.161 483.86 119.797C484.092 119.428 484.208 118.966 484.208 118.412ZM489.423 123V112.091H491.994V123H489.423ZM490.715 110.543C490.308 110.543 489.958 110.408 489.664 110.138C489.371 109.863 489.224 109.534 489.224 109.151C489.224 108.762 489.371 108.433 489.664 108.163C489.958 107.889 490.308 107.751 490.715 107.751C491.127 107.751 491.478 107.889 491.766 108.163C492.06 108.433 492.207 108.762 492.207 109.151C492.207 109.534 492.06 109.863 491.766 110.138C491.478 110.408 491.127 110.543 490.715 110.543ZM498.686 123.192C497.829 123.192 497.062 122.972 496.385 122.531C495.708 122.091 495.172 121.452 494.779 120.614C494.386 119.776 494.19 118.758 494.19 117.56C494.19 116.348 494.389 115.325 494.787 114.491C495.189 113.653 495.731 113.021 496.413 112.595C497.095 112.164 497.855 111.949 498.693 111.949C499.332 111.949 499.858 112.058 500.27 112.276C500.681 112.489 501.008 112.747 501.25 113.05C501.491 113.348 501.678 113.63 501.811 113.895H501.917V108.455H504.495V123H501.967V121.281H501.811C501.678 121.546 501.486 121.828 501.235 122.126C500.984 122.42 500.653 122.671 500.241 122.879C499.829 123.088 499.311 123.192 498.686 123.192ZM499.403 121.082C499.948 121.082 500.412 120.936 500.795 120.642C501.179 120.344 501.47 119.929 501.669 119.399C501.868 118.869 501.967 118.251 501.967 117.545C501.967 116.84 501.868 116.227 501.669 115.706C501.475 115.185 501.186 114.78 500.802 114.491C500.423 114.203 499.957 114.058 499.403 114.058C498.83 114.058 498.352 114.207 497.968 114.506C497.585 114.804 497.296 115.216 497.102 115.741C496.908 116.267 496.811 116.868 496.811 117.545C496.811 118.227 496.908 118.836 497.102 119.371C497.301 119.901 497.592 120.32 497.975 120.628C498.364 120.931 498.84 121.082 499.403 121.082ZM522.054 113.099C521.936 112.716 521.772 112.373 521.564 112.07C521.36 111.762 521.114 111.499 520.825 111.281C520.541 111.063 520.214 110.9 519.845 110.791C519.476 110.678 519.073 110.621 518.638 110.621C517.857 110.621 517.161 110.817 516.55 111.21C515.939 111.603 515.458 112.181 515.108 112.943C514.762 113.701 514.589 114.624 514.589 115.713C514.589 116.812 514.762 117.742 515.108 118.504C515.454 119.267 515.934 119.847 516.55 120.244C517.165 120.637 517.88 120.834 518.695 120.834C519.433 120.834 520.072 120.692 520.612 120.408C521.157 120.124 521.576 119.721 521.869 119.2C522.163 118.675 522.31 118.059 522.31 117.354L522.906 117.446H518.957V115.386H524.859V117.134C524.859 118.379 524.594 119.456 524.064 120.365C523.534 121.274 522.804 121.975 521.876 122.467C520.948 122.955 519.883 123.199 518.68 123.199C517.34 123.199 516.164 122.898 515.151 122.297C514.142 121.691 513.354 120.831 512.786 119.719C512.222 118.601 511.94 117.276 511.94 115.741C511.94 114.567 512.106 113.518 512.438 112.595C512.774 111.672 513.242 110.888 513.844 110.244C514.445 109.596 515.151 109.103 515.96 108.767C516.77 108.426 517.651 108.256 518.602 108.256C519.407 108.256 520.158 108.374 520.854 108.611C521.55 108.843 522.168 109.174 522.707 109.605C523.252 110.036 523.699 110.547 524.05 111.139C524.4 111.731 524.63 112.384 524.739 113.099H522.054ZM527.294 123V112.091H529.787V113.909H529.9C530.099 113.279 530.44 112.794 530.923 112.453C531.411 112.107 531.967 111.935 532.592 111.935C532.734 111.935 532.893 111.942 533.068 111.956C533.248 111.965 533.397 111.982 533.515 112.006V114.371C533.406 114.333 533.234 114.3 532.997 114.271C532.765 114.238 532.54 114.222 532.322 114.222C531.853 114.222 531.432 114.323 531.058 114.527C530.689 114.726 530.397 115.003 530.184 115.358C529.971 115.713 529.865 116.123 529.865 116.587V123H527.294ZM535.223 123V112.091H537.794V123H535.223ZM536.516 110.543C536.109 110.543 535.758 110.408 535.465 110.138C535.171 109.863 535.025 109.534 535.025 109.151C535.025 108.762 535.171 108.433 535.465 108.163C535.758 107.889 536.109 107.751 536.516 107.751C536.928 107.751 537.278 107.889 537.567 108.163C537.861 108.433 538.007 108.762 538.007 109.151C538.007 109.534 537.861 109.863 537.567 110.138C537.278 110.408 536.928 110.543 536.516 110.543ZM544.487 123.192C543.629 123.192 542.862 122.972 542.185 122.531C541.508 122.091 540.973 121.452 540.58 120.614C540.187 119.776 539.991 118.758 539.991 117.56C539.991 116.348 540.19 115.325 540.587 114.491C540.99 113.653 541.532 113.021 542.214 112.595C542.896 112.164 543.656 111.949 544.494 111.949C545.133 111.949 545.658 112.058 546.07 112.276C546.482 112.489 546.809 112.747 547.05 113.05C547.292 113.348 547.479 113.63 547.612 113.895H547.718V108.455H550.296V123H547.768V121.281H547.612C547.479 121.546 547.287 121.828 547.036 122.126C546.785 122.42 546.454 122.671 546.042 122.879C545.63 123.088 545.112 123.192 544.487 123.192ZM545.204 121.082C545.748 121.082 546.212 120.936 546.596 120.642C546.979 120.344 547.271 119.929 547.469 119.399C547.668 118.869 547.768 118.251 547.768 117.545C547.768 116.84 547.668 116.227 547.469 115.706C547.275 115.185 546.987 114.78 546.603 114.491C546.224 114.203 545.758 114.058 545.204 114.058C544.631 114.058 544.153 114.207 543.769 114.506C543.386 114.804 543.097 115.216 542.903 115.741C542.709 116.267 542.612 116.868 542.612 117.545C542.612 118.227 542.709 118.836 542.903 119.371C543.102 119.901 543.393 120.32 543.776 120.628C544.165 120.931 544.64 121.082 545.204 121.082Z" fill="#2E2F30"/>
</g>
<defs>
<clipPath id="clip0_94_321">
<rect width="326" height="231.811" fill="white"/>
</clipPath>
<clipPath id="clip1_94_321">
<rect width="326" height="231.811" fill="white" transform="translate(342)"/>
</clipPath>
</defs>
</svg>
