<svg width="478" height="30" viewBox="0 0 478 30" fill="none" xmlns="http://www.w3.org/2000/svg">
<path d="M10.304 23.364C9.18397 23.364 8.0453 22.8693 6.88797 21.88L6.66397 23H2.63197L6.43997 5.192L10.584 4.632L7.22397 20.34C7.74664 20.7133 8.27864 20.9 8.81997 20.9C9.88397 20.9 10.8173 20.284 11.62 19.052C12.4413 17.82 13.076 16.252 13.524 14.348C13.972 12.444 14.196 10.5213 14.196 8.58C14.196 6.75067 13.832 5.416 13.104 4.576C12.3946 3.71733 11.396 3.288 10.108 3.288C8.70797 3.288 7.44797 3.568 6.32797 4.128C5.22664 4.66933 4.35864 5.45333 3.72397 6.48C3.0893 7.50667 2.77197 8.71067 2.77197 10.092C2.77197 10.7827 2.8373 11.268 2.96797 11.548C3.09864 11.8093 3.16397 11.9587 3.16397 11.996C2.1933 11.996 1.44664 11.7907 0.923969 11.38C0.419969 10.9693 0.167969 10.3067 0.167969 9.392C0.167969 8.12267 0.643969 6.91867 1.59597 5.78C2.54797 4.64133 3.8173 3.72667 5.40397 3.036C7.0093 2.34533 8.73597 2 10.584 2C13.1413 2 15.0266 2.756 16.24 4.268C17.4533 5.78 18.06 7.712 18.06 10.064C18.06 12.192 17.696 14.292 16.968 16.364C16.2586 18.4173 15.3066 20.0973 14.112 21.404C12.9173 22.7107 11.648 23.364 10.304 23.364Z" fill="#2E2F30"/>
<path d="M23.2424 7.488C22.6264 7.488 22.1037 7.27333 21.6744 6.844C21.245 6.41467 21.0304 5.892 21.0304 5.276C21.0304 4.66 21.245 4.13733 21.6744 3.708C22.1037 3.26 22.6264 3.036 23.2424 3.036C23.8584 3.036 24.381 3.26 24.8104 3.708C25.2584 4.13733 25.4824 4.66 25.4824 5.276C25.4824 5.892 25.2584 6.41467 24.8104 6.844C24.381 7.27333 23.8584 7.488 23.2424 7.488ZM21.3384 23.168C20.4424 23.168 19.7144 22.888 19.1544 22.328C18.613 21.768 18.3424 20.928 18.3424 19.808C18.3424 19.3413 18.417 18.7347 18.5664 17.988L20.4704 9H24.5024L22.4864 18.52C22.4117 18.8 22.3744 19.0987 22.3744 19.416C22.3744 19.7893 22.4584 20.06 22.6264 20.228C22.813 20.3773 23.1117 20.452 23.5224 20.452C24.0637 20.452 24.5677 20.228 25.0344 19.78C25.501 19.3133 25.837 18.716 26.0424 17.988H27.2184C26.5277 20.004 25.641 21.376 24.5584 22.104C23.4757 22.8133 22.4024 23.168 21.3384 23.168Z" fill="#2E2F30"/>
<path d="M29.2232 23.168C28.3272 23.168 27.5712 23 26.9552 22.664C26.3392 22.3093 25.8819 21.8613 25.5832 21.32C25.2846 20.76 25.1352 20.1813 25.1352 19.584C25.1352 18.968 25.2846 18.436 25.5832 17.988C25.8632 17.5213 26.2086 17.1853 26.6192 16.98C27.3472 15.6733 27.9819 14.3573 28.5232 13.032C29.0646 11.688 29.5779 10.2413 30.0632 8.692L34.2072 8.132C34.3006 10.5213 34.4592 13.1067 34.6832 15.888C34.7766 17.008 34.8232 17.82 34.8232 18.324C34.8232 18.7533 34.7859 19.108 34.7112 19.388C35.5886 18.884 36.2606 18.4173 36.7272 17.988H37.9032C36.7086 19.3693 35.2806 20.536 33.6192 21.488C33.0779 22.0667 32.4059 22.496 31.6032 22.776C30.8192 23.0373 30.0259 23.168 29.2232 23.168ZM28.3272 20.956C29.0179 20.956 29.5966 20.7507 30.0632 20.34C30.5299 19.9293 30.7632 19.2667 30.7632 18.352C30.7632 17.792 30.7072 17.008 30.5952 16C30.4086 13.872 30.2872 12.444 30.2312 11.716C29.7832 13.1907 29.0272 14.9547 27.9632 17.008C28.3926 17.232 28.6072 17.5587 28.6072 17.988C28.6072 18.3427 28.4859 18.66 28.2432 18.94C28.0192 19.22 27.7299 19.36 27.3752 19.36C26.9832 19.36 26.7312 19.2387 26.6192 18.996C26.6192 19.668 26.7499 20.1627 27.0112 20.48C27.2912 20.7973 27.7299 20.956 28.3272 20.956Z" fill="#2E2F30"/>
<path d="M38.8506 7.964H42.8826L42.4346 10.064C43.368 9.26133 44.46 8.86 45.7106 8.86C46.756 8.86 47.5866 9.20533 48.2026 9.896C48.8186 10.5867 49.1266 11.716 49.1266 13.284C49.1266 14.7587 48.912 16.252 48.4826 17.764C48.0533 19.2573 47.3253 20.536 46.2986 21.6C45.272 22.6453 43.9186 23.168 42.2386 23.168C41.044 23.168 40.2506 22.832 39.8586 22.16L38.4026 28.992L34.1746 30L38.8506 7.964ZM41.3706 20.732C42.2666 20.732 43.004 20.312 43.5826 19.472C44.18 18.632 44.6093 17.6333 44.8706 16.476C45.1506 15.3 45.2906 14.208 45.2906 13.2C45.2906 11.6507 44.824 10.876 43.8906 10.876C43.5546 10.876 43.2093 10.9973 42.8546 11.24C42.5186 11.4827 42.22 11.8187 41.9586 12.248L40.3066 20.088C40.456 20.5173 40.8106 20.732 41.3706 20.732Z" fill="#2E2F30"/>
<path d="M52.5923 23.168C51.6963 23.168 50.9683 22.888 50.4083 22.328C49.8669 21.768 49.5963 20.928 49.5963 19.808C49.5963 19.3413 49.6709 18.7347 49.8203 17.988L52.8163 3.96L56.9603 3.4L53.7403 18.52C53.6656 18.8 53.6283 19.0987 53.6283 19.416C53.6283 19.7893 53.7123 20.06 53.8803 20.228C54.0669 20.3773 54.3656 20.452 54.7763 20.452C55.3176 20.452 55.8216 20.228 56.2883 19.78C56.7549 19.3133 57.0909 18.716 57.2963 17.988H58.4723C57.7816 20.004 56.8949 21.376 55.8123 22.104C54.7296 22.8133 53.6563 23.168 52.5923 23.168Z" fill="#2E2F30"/>
<path d="M60.6451 23.168C59.5811 23.168 58.6945 22.804 57.9851 22.076C57.2758 21.348 56.9211 20.2093 56.9211 18.66C56.9211 17.2787 57.1918 15.832 57.7331 14.32C58.2931 12.7893 59.1145 11.5013 60.1971 10.456C61.2985 9.392 62.6051 8.86 64.1171 8.86C64.8825 8.86 65.4518 8.99067 65.8251 9.252C66.1985 9.51333 66.3851 9.85867 66.3851 10.288V10.484L66.6931 9H70.7251L68.7091 18.52C68.6345 18.8 68.5971 19.0987 68.5971 19.416C68.5971 20.2187 68.9798 20.62 69.7451 20.62C70.2678 20.62 70.7158 20.3773 71.0891 19.892C71.4811 19.4067 71.7891 18.772 72.0131 17.988H73.1891C72.4985 20.004 71.6398 21.376 70.6131 22.104C69.6051 22.8133 68.5878 23.168 67.5611 23.168C66.7771 23.168 66.1425 22.9533 65.6571 22.524C65.1905 22.076 64.9105 21.432 64.8171 20.592C64.2758 21.3573 63.6691 21.9827 62.9971 22.468C62.3438 22.9347 61.5598 23.168 60.6451 23.168ZM62.4651 20.452C62.9318 20.452 63.3891 20.2373 63.8371 19.808C64.3038 19.36 64.6211 18.7533 64.7891 17.988L66.1331 11.66C66.1331 11.4173 66.0398 11.184 65.8531 10.96C65.6665 10.7173 65.3771 10.596 64.9851 10.596C64.2385 10.596 63.5665 11.0347 62.9691 11.912C62.3718 12.7707 61.9051 13.816 61.5691 15.048C61.2331 16.2613 61.0651 17.3347 61.0651 18.268C61.0651 19.2013 61.1958 19.7987 61.4571 20.06C61.7371 20.3213 62.0731 20.452 62.4651 20.452Z" fill="#2E2F30"/>
<path d="M76.3914 30C75.5141 30 74.7394 29.7107 74.0674 29.132C73.4141 28.572 73.0874 27.8533 73.0874 26.976C73.0874 26.1547 73.2927 25.4827 73.7034 24.96C74.1141 24.4373 74.6461 24.0267 75.2994 23.728C75.9527 23.4293 76.8301 23.112 77.9314 22.776L78.2114 21.544C77.2594 22.6267 76.1207 23.168 74.7954 23.168C73.8994 23.168 73.1714 22.888 72.6114 22.328C72.0701 21.768 71.7994 20.928 71.7994 19.808C71.7994 19.3413 71.8741 18.7347 72.0234 17.988L73.9274 9H77.9594L75.9434 18.52C75.8874 18.744 75.8594 18.9773 75.8594 19.22C75.8594 20.0413 76.1394 20.452 76.6994 20.452C77.2221 20.452 77.6701 20.2373 78.0434 19.808C78.4167 19.36 78.7154 18.7533 78.9394 17.988L80.8434 9H84.9034L81.4874 25.24C81.1141 27.032 80.4514 28.2733 79.4994 28.964C78.5661 29.6547 77.5301 30 76.3914 30ZM75.7474 27.508C76.0834 27.508 76.4007 27.3307 76.6994 26.976C76.9981 26.64 77.2314 26.0893 77.3994 25.324L77.7354 23.672C76.7461 24.008 75.9807 24.4 75.4394 24.848C74.8981 25.296 74.6274 25.8747 74.6274 26.584C74.6274 26.808 74.7394 27.0133 74.9634 27.2C75.1874 27.4053 75.4487 27.508 75.7474 27.508Z" fill="#2E2F30"/>
<path d="M119.052 23H112.444C111.529 23 110.913 22.9347 110.596 22.804C110.279 22.6733 110.12 22.4587 110.12 22.16V4.492C110.12 4.00667 110.325 3.66133 110.736 3.456C111.147 3.232 111.856 3.12 112.864 3.12H119.164C122.748 3.12 125.221 3.82933 126.584 5.248C127.947 6.648 128.628 9.20533 128.628 12.92C128.628 16.6347 127.919 19.248 126.5 20.76C125.081 22.2533 122.599 23 119.052 23ZM118.828 7.292C118.38 7.292 118.081 7.32933 117.932 7.404V18.716L118.996 18.828C119.556 18.828 119.976 18.38 120.256 17.484C120.555 16.588 120.704 15.0387 120.704 12.836C120.704 10.6333 120.555 9.15867 120.256 8.412C119.957 7.66533 119.481 7.292 118.828 7.292Z" fill="#2E2F30"/>
<path d="M138.16 8.524V22.328C138.16 22.5333 137.619 22.7013 136.536 22.832C135.472 22.944 134.371 23 133.232 23C132.112 23 131.384 22.9533 131.048 22.86C130.731 22.748 130.572 22.5707 130.572 22.328V9.028C130.572 8.61733 131.095 8.216 132.14 7.824C133.204 7.41333 134.362 7.208 135.612 7.208C137.311 7.208 138.16 7.64667 138.16 8.524ZM134.352 1.16C135.584 1.16 136.546 1.34667 137.236 1.72C137.946 2.07467 138.3 2.728 138.3 3.68C138.3 5.36 136.994 6.2 134.38 6.2C131.767 6.2 130.46 5.36 130.46 3.68C130.46 2 131.758 1.16 134.352 1.16Z" fill="#2E2F30"/>
<path d="M147.865 23.252C144.767 23.252 142.499 22.9533 141.061 22.356C140.333 22.0387 139.969 21.7307 139.969 21.432C139.969 20.6667 140.193 19.7707 140.641 18.744C141.089 17.7173 141.482 17.204 141.818 17.204C142.004 17.204 142.629 17.4093 143.693 17.82C144.776 18.2307 145.681 18.436 146.41 18.436C147.156 18.436 147.641 18.3893 147.865 18.296C148.108 18.2027 148.23 18.0253 148.23 17.764C148.23 17.484 148.043 17.2693 147.669 17.12C147.296 16.952 146.83 16.84 146.27 16.784C145.71 16.728 145.103 16.616 144.449 16.448C143.815 16.28 143.218 16.0653 142.658 15.804C142.098 15.5427 141.631 15.1133 141.258 14.516C140.884 13.9 140.697 13.2467 140.697 12.556C140.697 11.8467 140.716 11.324 140.753 10.988C140.791 10.6333 140.94 10.148 141.202 9.532C141.482 8.89733 141.864 8.384 142.35 7.992C142.854 7.6 143.619 7.24533 144.645 6.928C145.691 6.61067 146.857 6.452 148.145 6.452C149.433 6.452 150.507 6.49867 151.365 6.592C152.243 6.66667 152.924 6.76933 153.41 6.9C153.914 7.03067 154.324 7.18 154.641 7.348C155.183 7.628 155.454 7.936 155.454 8.272C155.454 9 155.192 9.84 154.669 10.792C154.147 11.744 153.727 12.22 153.41 12.22C153.111 12.22 152.448 12.0613 151.421 11.744C150.395 11.408 149.639 11.24 149.154 11.24C148.37 11.24 147.977 11.464 147.977 11.912C147.977 12.192 148.239 12.4067 148.762 12.556C149.303 12.6867 149.947 12.8267 150.693 12.976C151.44 13.1253 152.187 13.34 152.934 13.62C153.699 13.8813 154.343 14.3667 154.865 15.076C155.407 15.7853 155.678 16.6813 155.678 17.764C155.678 21.4227 153.073 23.252 147.865 23.252Z" fill="#2E2F30"/>
<path d="M157.367 26.388V8.58C157.367 8.188 157.889 7.78667 158.935 7.376C159.98 6.96533 161.109 6.76 162.323 6.76C162.883 6.76 163.321 6.82533 163.639 6.956C163.956 7.08667 164.152 7.21733 164.227 7.348C164.301 7.47867 164.441 8.03867 164.647 9.028H164.871C164.908 8.86 165.076 8.59867 165.375 8.244C165.673 7.88933 165.972 7.6 166.271 7.376C166.588 7.152 167.036 6.956 167.615 6.788C168.193 6.60133 168.865 6.508 169.631 6.508C170.415 6.508 171.124 6.68533 171.759 7.04C172.393 7.376 172.86 7.77733 173.159 8.244C173.476 8.692 173.719 9.27067 173.887 9.98C174.073 10.6707 174.176 11.2307 174.195 11.66C174.232 12.0707 174.251 12.6773 174.251 13.48C174.251 14.264 174.223 15.048 174.167 15.832C174.111 16.5973 174.008 17.3813 173.859 18.184C173.709 18.9867 173.495 19.6773 173.215 20.256C172.935 20.8347 172.58 21.3573 172.151 21.824C171.292 22.7573 170.032 23.224 168.371 23.224C167.773 23.224 167.241 23.14 166.775 22.972C166.327 22.7853 165.991 22.5707 165.767 22.328C165.3 21.824 165.029 21.376 164.955 20.984L164.927 20.704H164.703L165.095 23.224V26.388C165.095 26.5933 164.553 26.752 163.471 26.864C162.407 26.9947 161.305 27.06 160.167 27.06C159.047 27.06 158.3 27.004 157.927 26.892C157.553 26.7987 157.367 26.6307 157.367 26.388ZM166.663 14.796C166.663 13.2093 166.579 12.0987 166.411 11.464C166.243 10.8293 165.991 10.512 165.655 10.512C165.319 10.512 165.076 10.6987 164.927 11.072V18.408C164.927 18.8933 165.179 19.136 165.683 19.136C166.336 19.136 166.663 17.6893 166.663 14.796Z" fill="#2E2F30"/>
<path d="M183.493 2.448V22.328C183.493 22.5333 182.961 22.7013 181.897 22.832C180.833 22.944 179.732 23 178.593 23C177.473 23 176.745 22.9533 176.409 22.86C176.092 22.748 175.933 22.5707 175.933 22.328V2.952C175.933 2.54133 176.456 2.14 177.501 1.748C178.565 1.356 179.704 1.16 180.917 1.16C182.634 1.16 183.493 1.58933 183.493 2.448Z" fill="#2E2F30"/>
<path d="M190.769 23.252C189.07 23.252 187.735 22.8507 186.765 22.048C186.373 21.712 186.027 21.2173 185.729 20.564C185.449 19.9107 185.309 19.1453 185.309 18.268C185.309 17.3907 185.514 16.6253 185.925 15.972C186.354 15.3187 186.867 14.8147 187.465 14.46C188.062 14.1053 188.762 13.816 189.565 13.592C190.778 13.2747 192.113 13.116 193.569 13.116H194.493C194.493 12.3507 194.231 11.8093 193.709 11.492C193.485 11.3613 193.139 11.296 192.673 11.296C192.225 11.296 191.674 11.4173 191.021 11.66C190.386 11.9027 189.854 12.1547 189.425 12.416C188.995 12.6587 188.706 12.78 188.557 12.78C188.221 12.78 187.763 12.3413 187.185 11.464C186.606 10.568 186.317 9.756 186.317 9.028C186.317 8.78533 186.662 8.468 187.353 8.076C188.043 7.684 189.014 7.32933 190.265 7.012C191.534 6.676 192.766 6.508 193.961 6.508C195.155 6.508 196.182 6.61067 197.041 6.816C197.918 7.00267 198.627 7.236 199.169 7.516C199.729 7.796 200.195 8.16933 200.569 8.636C200.961 9.10267 201.25 9.52267 201.437 9.896C201.642 10.2693 201.791 10.7547 201.885 11.352C202.015 12.0427 202.081 12.892 202.081 13.9V22.328C202.081 22.5333 201.577 22.7013 200.569 22.832C199.579 22.944 198.59 23 197.601 23C196.63 23 195.995 22.972 195.697 22.916C195.417 22.86 195.249 22.7947 195.193 22.72C195.137 22.6453 195.09 22.5147 195.053 22.328L194.829 20.732H194.605C194.138 22.412 192.859 23.252 190.769 23.252ZM194.521 18.604V15.328C194.035 15.328 193.643 15.5333 193.345 15.944C193.046 16.3547 192.897 16.8213 192.897 17.344C192.897 18.576 193.177 19.192 193.737 19.192C193.979 19.192 194.166 19.136 194.297 19.024C194.446 18.8933 194.521 18.7533 194.521 18.604Z" fill="#2E2F30"/>
<path d="M213.478 21.18V19.528H213.254C213.161 19.6213 213.021 19.7427 212.834 19.892C212.648 20.0413 212.209 20.2373 211.518 20.48C210.828 20.7227 210.053 20.844 209.194 20.844C208.354 20.844 207.608 20.7133 206.954 20.452C206.32 20.172 205.816 19.808 205.442 19.36C205.069 18.8933 204.78 18.2773 204.574 17.512C204.22 16.2987 204.042 14.5813 204.042 12.36V8.496C204.042 8.104 204.593 7.72133 205.694 7.348C206.796 6.956 207.953 6.76 209.166 6.76C210.79 6.76 211.602 7.18 211.602 8.02V11.548C211.602 15.2813 211.901 17.148 212.498 17.148C212.853 17.148 213.03 16.896 213.03 16.392V8.496C213.03 8.104 213.618 7.72133 214.794 7.348C215.97 6.956 217.23 6.76 218.574 6.76C219.918 6.76 220.59 7.124 220.59 7.852V21.096C220.59 25.2587 217.772 27.34 212.134 27.34C209.166 27.34 207.15 27.0507 206.086 26.472C205.62 26.2107 205.386 25.94 205.386 25.66C205.386 25.212 205.573 24.456 205.946 23.392C206.32 22.3467 206.665 21.824 206.982 21.824C207.057 21.824 207.318 21.88 207.766 21.992C209.148 22.3653 210.296 22.552 211.21 22.552C212.144 22.552 212.75 22.4493 213.03 22.244C213.329 22.0387 213.478 21.684 213.478 21.18Z" fill="#2E2F30"/>
<path d="M260.252 7.692C260.252 8.66267 260.112 9.69867 259.832 10.8C259.552 11.8827 259.16 12.9653 258.656 14.048C258.152 15.112 257.527 16.1387 256.78 17.128C256.052 18.0987 255.221 18.9573 254.288 19.704C253.355 20.432 252.328 21.02 251.208 21.468C250.107 21.916 248.931 22.14 247.68 22.14C247.419 22.14 247.157 22.1213 246.896 22.084C246.635 22.0653 246.373 22.0373 246.112 22C246.616 19.424 247.111 16.9133 247.596 14.468C247.783 13.4413 247.979 12.3773 248.184 11.276C248.389 10.156 248.585 9.05467 248.772 7.972C248.959 6.88933 249.136 5.85333 249.304 4.864C249.491 3.87467 249.64 2.97867 249.752 2.176C250.555 2.02667 251.367 1.88667 252.188 1.756C253.009 1.62533 253.849 1.56 254.708 1.56C255.716 1.56 256.565 1.71867 257.256 2.036C257.965 2.35333 258.535 2.792 258.964 3.352C259.412 3.912 259.739 4.56533 259.944 5.312C260.149 6.05867 260.252 6.852 260.252 7.692ZM253.644 5.508C253.439 6.60933 253.224 7.664 253 8.672C252.776 9.68 252.552 10.6973 252.328 11.724C252.104 12.7507 251.88 13.824 251.656 14.944C251.432 16.064 251.217 17.2867 251.012 18.612C251.46 18.3133 251.889 17.912 252.3 17.408C252.729 16.8853 253.131 16.288 253.504 15.616C253.877 14.944 254.213 14.2347 254.512 13.488C254.829 12.7413 255.1 12.0133 255.324 11.304C255.548 10.5947 255.716 9.932 255.828 9.316C255.959 8.7 256.024 8.168 256.024 7.72C256.024 7.02933 255.828 6.488 255.436 6.096C255.063 5.704 254.465 5.508 253.644 5.508Z" fill="#2E2F30"/>
<path d="M263.119 21.44C262.951 21.44 262.615 21.468 262.111 21.524C261.626 21.5613 261.122 21.6173 260.599 21.692C260.077 21.748 259.601 21.804 259.171 21.86C258.761 21.916 258.537 21.9533 258.499 21.972C258.686 21.1693 258.873 20.2827 259.059 19.312C259.265 18.3227 259.47 17.296 259.675 16.232C259.881 15.1493 260.077 14.0573 260.263 12.956C260.45 11.8547 260.627 10.7907 260.795 9.764C261.187 7.37467 261.579 4.92 261.971 2.4L266.339 1.7C265.91 4.20133 265.49 6.656 265.079 9.064C264.911 10.0907 264.734 11.1547 264.547 12.256C264.379 13.3573 264.202 14.4493 264.015 15.532C263.847 16.6147 263.689 17.6693 263.539 18.696C263.39 19.704 263.25 20.6187 263.119 21.44Z" fill="#2E2F30"/>
<path d="M276.423 15.084C276.423 16.1293 276.218 17.0813 275.807 17.94C275.415 18.78 274.874 19.508 274.184 20.124C273.512 20.74 272.709 21.216 271.776 21.552C270.861 21.888 269.871 22.056 268.807 22.056C268.061 22.056 267.314 21.86 266.568 21.468C265.821 21.0573 265.102 20.4133 264.411 19.536L266.483 15.476C266.614 15.7187 266.81 15.9707 267.072 16.232C267.333 16.4747 267.622 16.6893 267.94 16.876C268.276 17.0627 268.602 17.2213 268.919 17.352C269.255 17.464 269.554 17.52 269.815 17.52C270.039 17.52 270.273 17.4827 270.516 17.408C270.758 17.3333 270.982 17.2213 271.188 17.072C271.393 16.9227 271.552 16.7547 271.664 16.568C271.794 16.3627 271.859 16.1293 271.859 15.868C271.859 15.42 271.71 15.0093 271.411 14.636C271.131 14.244 270.777 13.88 270.348 13.544C269.918 13.1893 269.452 12.8347 268.948 12.48C268.444 12.1253 267.977 11.752 267.547 11.36C267.137 10.968 266.782 10.5293 266.483 10.044C266.185 9.55867 266.035 9.01733 266.035 8.42C266.035 7.44933 266.325 6.544 266.904 5.704C267.482 4.864 268.201 4.14533 269.06 3.548C269.937 2.932 270.889 2.44667 271.915 2.092C272.942 1.73733 273.913 1.56 274.828 1.56C275.332 1.56 275.807 1.62533 276.255 1.756C276.703 1.868 277.086 2.064 277.404 2.344C277.74 2.60533 278.001 2.94133 278.188 3.352C278.393 3.76267 278.496 4.276 278.496 4.892C278.496 5.15333 278.467 5.41467 278.411 5.676C278.374 5.93733 278.337 6.21733 278.299 6.516L274.24 7.692C274.277 7.54267 274.305 7.39333 274.323 7.244C274.361 7.09467 274.379 6.94533 274.379 6.796C274.379 6.236 274.277 5.83467 274.072 5.592C273.885 5.33067 273.633 5.2 273.315 5.2C273.166 5.2 272.979 5.256 272.755 5.368C272.55 5.48 272.336 5.62933 272.112 5.816C271.906 5.984 271.729 6.18933 271.579 6.432C271.43 6.67467 271.355 6.936 271.355 7.216C271.355 7.664 271.477 8.03733 271.72 8.336C271.981 8.63467 272.298 8.91467 272.672 9.176C273.045 9.43733 273.446 9.708 273.875 9.988C274.323 10.2493 274.734 10.5947 275.108 11.024C275.481 11.4533 275.789 11.9947 276.031 12.648C276.293 13.2827 276.423 14.0947 276.423 15.084Z" fill="#2E2F30"/>
<path d="M275.967 22.028C276.527 19.508 277.059 17.044 277.563 14.636C277.768 13.628 277.983 12.564 278.207 11.444C278.431 10.324 278.645 9.22267 278.851 8.14C279.056 7.05733 279.252 6.012 279.439 5.004C279.625 3.996 279.784 3.072 279.915 2.232C280.456 2.064 280.988 1.924 281.511 1.812C282.033 1.68133 282.565 1.56933 283.107 1.476C283.667 1.38267 284.189 1.336 284.675 1.336C285.515 1.336 286.215 1.476 286.775 1.756C287.353 2.036 287.82 2.41867 288.175 2.904C288.529 3.37067 288.781 3.92133 288.931 4.556C289.08 5.19067 289.155 5.872 289.155 6.6C289.155 7.64533 288.959 8.65333 288.567 9.624C288.193 10.5947 287.68 11.4627 287.027 12.228C286.392 12.9747 285.655 13.572 284.815 14.02C283.993 14.468 283.135 14.692 282.239 14.692H281.931C281.781 15.3267 281.641 16.0173 281.511 16.764C281.38 17.5107 281.268 18.2013 281.175 18.836C281.044 19.5827 280.923 20.3293 280.811 21.076L275.967 22.028ZM283.779 4.724C283.573 5.956 283.368 7.12267 283.163 8.224C282.957 9.32533 282.733 10.5013 282.491 11.752C282.789 11.6773 283.097 11.5093 283.415 11.248C283.751 10.968 284.059 10.6133 284.339 10.184C284.619 9.736 284.843 9.22267 285.011 8.644C285.179 8.06533 285.263 7.45867 285.263 6.824C285.263 6.13333 285.104 5.61067 284.787 5.256C284.488 4.90133 284.152 4.724 283.779 4.724Z" fill="#2E2F30"/>
<path d="M294.388 21.104C293.809 21.104 293.193 21.1227 292.54 21.16C291.905 21.1973 291.261 21.2533 290.608 21.328C289.955 21.4027 289.311 21.5053 288.676 21.636C288.06 21.748 287.5 21.888 286.996 22.056C287.108 21.216 287.239 20.2827 287.388 19.256C287.537 18.2293 287.705 17.1653 287.892 16.064C288.097 14.9627 288.293 13.852 288.48 12.732C288.685 11.612 288.891 10.5387 289.096 9.512C289.563 7.06667 290.057 4.57467 290.58 2.036L295.48 1.392C294.976 3.55733 294.491 5.66667 294.024 7.72C293.819 8.59733 293.613 9.512 293.408 10.464C293.203 11.3973 293.007 12.312 292.82 13.208C292.633 14.104 292.465 14.972 292.316 15.812C292.167 16.652 292.045 17.3987 291.952 18.052C292.419 18.0147 292.913 17.996 293.436 17.996C293.977 17.9773 294.453 17.968 294.864 17.968C294.883 18.3227 294.911 18.6773 294.948 19.032C294.985 19.368 295.023 19.676 295.06 19.956C295.116 20.236 295.153 20.488 295.172 20.712C295.209 20.9173 295.237 21.0573 295.256 21.132C295.107 21.132 294.957 21.132 294.808 21.132C294.677 21.1133 294.537 21.104 294.388 21.104Z" fill="#2E2F30"/>
<path d="M305.413 21.44C304.947 21.5147 304.433 21.5987 303.873 21.692C303.313 21.7853 302.809 21.8693 302.361 21.944C302.436 21.328 302.511 20.7213 302.585 20.124C302.641 19.6013 302.688 19.0787 302.725 18.556C302.781 18.0333 302.828 17.5853 302.865 17.212H300.429L299.309 21.244C298.899 21.3 298.413 21.3653 297.853 21.44C297.293 21.496 296.771 21.552 296.285 21.608C295.688 21.6827 295.1 21.7573 294.521 21.832C295.268 19.3493 296.005 16.904 296.733 14.496C297.032 13.488 297.34 12.4333 297.657 11.332C297.993 10.2307 298.32 9.13867 298.637 8.056C298.973 6.95467 299.291 5.9 299.589 4.892C299.888 3.884 300.149 2.96 300.373 2.12C301.643 2.02667 302.931 1.91467 304.237 1.784C305.563 1.65333 306.851 1.476 308.101 1.252C308.045 1.84933 307.98 2.596 307.905 3.492C307.849 4.36933 307.793 5.33067 307.737 6.376C307.681 7.42133 307.625 8.51333 307.569 9.652C307.513 10.7907 307.457 11.9107 307.401 13.012C307.308 15.588 307.205 18.3227 307.093 21.216C306.533 21.3093 305.973 21.384 305.413 21.44ZM301.101 14.412C301.176 14.412 301.307 14.412 301.493 14.412C301.699 14.3933 301.904 14.384 302.109 14.384C302.333 14.3653 302.539 14.356 302.725 14.356C302.912 14.3373 303.043 14.3187 303.117 14.3C303.117 14.188 303.127 14.0013 303.145 13.74C303.183 13.46 303.211 13.152 303.229 12.816C303.267 12.4613 303.304 12.0787 303.341 11.668C303.379 11.2573 303.416 10.856 303.453 10.464C303.528 9.512 303.621 8.48533 303.733 7.384L303.901 4.948L303.481 4.976L302.837 7.384L301.101 14.412Z" fill="#2E2F30"/>
<path d="M309.379 21.58L310.667 15.952C310.667 15.1493 310.648 14.2813 310.611 13.348C310.592 12.396 310.555 11.444 310.499 10.492C310.443 9.54 310.387 8.62533 310.331 7.748C310.275 6.852 310.228 6.068 310.191 5.396C310.153 4.70533 310.116 4.15467 310.079 3.744C310.041 3.33333 310.023 3.128 310.023 3.128L314.587 1.392V4.808C314.587 5.27467 314.587 5.75067 314.587 6.236C314.587 6.72133 314.577 7.19733 314.559 7.664C314.559 8.13067 314.559 8.56933 314.559 8.98C314.559 9.39067 314.559 9.736 314.559 10.016C314.801 9.38133 315.091 8.59733 315.427 7.664C315.781 6.73067 316.108 5.82533 316.407 4.948C316.761 3.92133 317.125 2.83867 317.499 1.7L321.839 2.68C321.036 4.28533 320.252 5.88133 319.487 7.468C319.169 8.15867 318.833 8.87733 318.479 9.624C318.124 10.352 317.769 11.0893 317.415 11.836C317.06 12.564 316.715 13.2733 316.379 13.964C316.043 14.6547 315.735 15.2987 315.455 15.896C315.361 16.3813 315.24 16.9133 315.091 17.492C314.96 18.0707 314.829 18.6213 314.699 19.144C314.531 19.76 314.353 20.376 314.167 20.992L309.379 21.58Z" fill="#2E2F30"/>
<path d="M349.178 17.0938V6.26562C349.178 6.26562 351.415 6.26562 355.891 6.26562C356.975 6.26562 357.905 6.79883 358.68 7.86523C359.464 8.92253 359.855 10.194 359.855 11.6797C359.855 13.1745 359.464 14.4505 358.68 15.5078C357.905 16.5651 356.975 17.0938 355.891 17.0938H349.178ZM350.162 16.1094H355.891C356.702 16.1094 357.395 15.6764 357.969 14.8105C358.552 13.9447 358.844 12.901 358.844 11.6797C358.844 10.4492 358.552 9.4056 357.969 8.54883C357.395 7.68294 356.702 7.25 355.891 7.25H350.162V16.1094ZM348.193 18.0781H355.891C357.249 18.0781 358.415 17.4538 359.391 16.2051C360.375 14.9473 360.867 13.4388 360.867 11.6797C360.867 10.5221 360.639 9.45117 360.184 8.4668C359.737 7.48242 359.131 6.70768 358.365 6.14258C357.609 5.56836 356.784 5.28125 355.891 5.28125H348.193V18.0781ZM347.209 19.0625V4.29688H355.891C356.957 4.29688 357.95 4.625 358.871 5.28125C359.792 5.9375 360.521 6.83529 361.059 7.97461C361.605 9.10482 361.879 10.3398 361.879 11.6797C361.879 13.0104 361.605 14.2454 361.059 15.3848C360.521 16.5241 359.792 17.4219 358.871 18.0781C357.95 18.7344 356.957 19.0625 355.891 19.0625H347.209ZM346.225 20.0469H355.891C357.139 20.0469 358.297 19.6732 359.363 18.9258C360.439 18.1784 361.296 17.1621 361.934 15.877C362.572 14.5918 362.891 13.1927 362.891 11.6797C362.891 10.1758 362.572 8.78125 361.934 7.49609C361.296 6.20182 360.439 5.18099 359.363 4.43359C358.288 3.6862 357.13 3.3125 355.891 3.3125H346.225V20.0469ZM345.24 21.0312V2.32812H355.891C357.312 2.32812 358.639 2.7474 359.869 3.58594C361.1 4.41536 362.079 5.55013 362.809 6.99023C363.538 8.43034 363.902 9.99349 363.902 11.6797C363.902 13.3659 363.538 14.929 362.809 16.3691C362.079 17.8092 361.1 18.9486 359.869 19.7871C358.639 20.6165 357.312 21.0312 355.891 21.0312H345.24ZM344.256 22.0156H355.891C357.085 22.0156 358.238 21.7422 359.35 21.1953C360.462 20.6484 361.423 19.9147 362.234 18.9941C363.046 18.0736 363.693 16.9753 364.176 15.6992C364.668 14.4141 364.914 13.0742 364.914 11.6797C364.914 10.2852 364.668 8.94987 364.176 7.67383C363.693 6.39779 363.046 5.29948 362.234 4.37891C361.423 3.44922 360.462 2.71094 359.35 2.16406C358.238 1.61719 357.085 1.34375 355.891 1.34375H344.256V22.0156ZM355.891 23H343.271V0.359375H355.891C357.668 0.359375 359.327 0.865234 360.867 1.87695C362.408 2.88867 363.633 4.26497 364.545 6.00586C365.465 7.74674 365.926 9.63802 365.926 11.6797C365.926 13.2109 365.652 14.6784 365.105 16.082C364.568 17.4766 363.848 18.6797 362.945 19.6914C362.043 20.7031 360.972 21.5098 359.732 22.1113C358.502 22.7038 357.221 23 355.891 23Z" fill="#2E2F30"/>
<path d="M374.006 3.3125H374.99V23H374.006V3.3125ZM372.037 3.3125H373.021V23H372.037V3.3125ZM370.068 3.3125H371.053V23H370.068V3.3125ZM368.1 3.3125H369.084V23H368.1V3.3125Z" fill="#2E2F30"/>
<path d="M386.611 13.6348H385.053C383.139 13.6348 381.667 13.2474 380.637 12.4727C379.607 11.6888 379.092 10.6133 379.092 9.24609C379.092 7.97005 379.698 6.9082 380.91 6.06055C382.122 5.20378 383.822 4.77539 386.01 4.77539C387.468 4.77539 388.826 4.97591 390.084 5.37695C391.351 5.77799 392.404 6.3431 393.242 7.07227L392.477 7.6875C391.729 7.07682 390.79 6.60286 389.66 6.26562C388.53 5.92839 387.313 5.75977 386.01 5.75977C384.087 5.75977 382.615 6.08789 381.594 6.74414C380.582 7.40039 380.076 8.23438 380.076 9.24609C380.076 10.3398 380.491 11.1829 381.32 11.7754C382.159 12.3587 383.403 12.6504 385.053 12.6504H386.557C388.498 12.6504 389.984 13.0423 391.014 13.8262C392.053 14.6009 392.572 15.6719 392.572 17.0391C392.572 18.3151 391.966 19.3815 390.754 20.2383C389.542 21.0859 387.842 21.5098 385.654 21.5098C384.196 21.5098 382.833 21.3092 381.566 20.9082C380.309 20.5072 379.26 19.9421 378.422 19.2129L379.187 18.5977C379.935 19.2083 380.874 19.6823 382.004 20.0195C383.134 20.3568 384.351 20.5254 385.654 20.5254C387.577 20.5254 389.045 20.1973 390.057 19.541C391.077 18.8848 391.588 18.0508 391.588 17.0391C391.588 15.9453 391.169 15.1068 390.33 14.5234C389.501 13.931 388.261 13.6348 386.611 13.6348ZM386.611 15.6035H385.053C382.519 15.6035 380.564 15.0293 379.187 13.8809C377.811 12.7233 377.123 11.1784 377.123 9.24609C377.123 8.36198 377.319 7.53255 377.711 6.75781C378.103 5.98307 378.663 5.30404 379.393 4.7207C380.131 4.12826 381.07 3.66341 382.209 3.32617C383.348 2.97982 384.615 2.80664 386.01 2.80664C387.769 2.80664 389.414 3.07552 390.945 3.61328C392.477 4.14193 393.753 4.88477 394.773 5.8418L393.98 6.42969C393.051 5.59115 391.889 4.94401 390.494 4.48828C389.1 4.02344 387.605 3.79102 386.01 3.79102C383.549 3.79102 381.617 4.31055 380.213 5.34961C378.809 6.38867 378.107 7.6875 378.107 9.24609C378.107 10.8958 378.709 12.2038 379.912 13.1699C381.115 14.1361 382.829 14.6191 385.053 14.6191H386.557C389.255 14.6191 390.603 15.4258 390.603 17.0391C390.603 17.7682 390.189 18.3698 389.359 18.8438C388.539 19.3086 387.304 19.541 385.654 19.541C384.497 19.541 383.421 19.4089 382.428 19.1445C381.434 18.8711 380.614 18.4837 379.967 17.9824L380.746 17.3809C381.885 18.1647 383.521 18.5566 385.654 18.5566C387.021 18.5566 388.024 18.4154 388.662 18.1328C389.3 17.8503 389.619 17.4857 389.619 17.0391C389.619 16.5195 389.396 16.1504 388.949 15.9316C388.503 15.7129 387.723 15.6035 386.611 15.6035ZM386.611 11.666H385.053C382.391 11.666 381.061 10.8594 381.061 9.24609C381.061 8.51693 381.471 7.91992 382.291 7.45508C383.12 6.98112 384.36 6.74414 386.01 6.74414C387.167 6.74414 388.243 6.88086 389.236 7.1543C390.23 7.41862 391.05 7.80143 391.697 8.30273L390.918 8.9043C389.779 8.12044 388.143 7.72852 386.01 7.72852C384.643 7.72852 383.64 7.86979 383.002 8.15234C382.364 8.4349 382.045 8.79948 382.045 9.24609C382.045 9.76562 382.268 10.1348 382.715 10.3535C383.161 10.5723 383.941 10.6816 385.053 10.6816H386.611C389.145 10.6816 391.1 11.2604 392.477 12.418C393.853 13.5664 394.541 15.1068 394.541 17.0391C394.541 17.9232 394.345 18.7526 393.953 19.5273C393.561 20.3021 392.996 20.9857 392.258 21.5781C391.529 22.1615 390.594 22.6263 389.455 22.9727C388.316 23.3099 387.049 23.4785 385.654 23.4785C383.895 23.4785 382.25 23.2142 380.719 22.6855C379.187 22.1478 377.911 21.4004 376.891 20.4434L377.684 19.8555C378.613 20.694 379.775 21.3457 381.17 21.8105C382.564 22.2663 384.059 22.4941 385.654 22.4941C388.115 22.4941 390.047 21.9746 391.451 20.9355C392.855 19.8965 393.557 18.5977 393.557 17.0391C393.557 15.3893 392.955 14.0814 391.752 13.1152C390.549 12.1491 388.835 11.666 386.611 11.666Z" fill="#2E2F30"/>
<path d="M404.344 13.7305H408.514C409.334 13.7305 410.031 13.4844 410.605 12.9922C411.18 12.5 411.467 11.8073 411.467 10.9141C411.467 10.2214 411.166 9.60156 410.564 9.05469C409.963 8.50781 409.279 8.23438 408.514 8.23438H401.623V23H400.639V7.25H408.514C409.562 7.25 410.478 7.61914 411.262 8.35742C412.055 9.0957 412.451 9.94792 412.451 10.9141C412.451 12.0716 412.068 12.9967 411.303 13.6895C410.537 14.373 409.607 14.7148 408.514 14.7148H404.344V13.7305ZM404.344 15.6992H408.514C409.863 15.6992 411.02 15.2526 411.986 14.3594C412.952 13.4661 413.436 12.3177 413.436 10.9141C413.436 9.68359 412.943 8.60352 411.959 7.67383C410.975 6.73503 409.826 6.26562 408.514 6.26562H399.654V23H398.67V5.28125H408.514C410.1 5.28125 411.48 5.84635 412.656 6.97656C413.832 8.09766 414.42 9.41016 414.42 10.9141C414.42 12.5547 413.837 13.9264 412.67 15.0293C411.512 16.1322 410.127 16.6836 408.514 16.6836H404.344V15.6992ZM404.344 17.668H408.514C409.744 17.668 410.883 17.3763 411.932 16.793C412.989 16.2096 413.832 15.3984 414.461 14.3594C415.09 13.3203 415.404 12.1719 415.404 10.9141C415.404 9.75651 415.09 8.66732 414.461 7.64648C413.841 6.62565 412.998 5.81445 411.932 5.21289C410.874 4.60221 409.735 4.29688 408.514 4.29688H397.686V23H396.701V3.3125H408.514C409.553 3.3125 410.555 3.51758 411.521 3.92773C412.497 4.33789 413.34 4.88932 414.051 5.58203C414.762 6.26562 415.327 7.07682 415.746 8.01562C416.174 8.94531 416.389 9.91146 416.389 10.9141C416.389 12.0898 416.179 13.1699 415.76 14.1543C415.34 15.1387 414.771 15.959 414.051 16.6152C413.331 17.2624 412.492 17.7637 411.535 18.1191C410.587 18.4746 409.58 18.6523 408.514 18.6523H404.344V17.668ZM403.592 23H402.607V9.21875H408.514C409.051 9.21875 409.512 9.38737 409.895 9.72461C410.286 10.0527 410.482 10.4492 410.482 10.9141C410.482 12.1354 409.826 12.7461 408.514 12.7461H404.344V11.7617H408.514C409.17 11.7617 409.498 11.4792 409.498 10.9141C409.498 10.7135 409.402 10.5449 409.211 10.4082C409.02 10.2715 408.787 10.2031 408.514 10.2031H403.592V23Z" fill="#2E2F30"/>
<path d="M418.603 3.3125H419.588V23H418.603V3.3125ZM424.51 3.3125H425.494V18.0781H432.754V19.0625H425.494V20.0469H432.754V21.0312H425.494V22.0156H432.754V23H424.51V3.3125ZM422.541 3.3125H423.525V23H422.541V3.3125ZM420.572 3.3125H421.557V23H420.572V3.3125Z" fill="#2E2F30"/>
<path d="M448.9 13.293C448.9 12.1263 448.54 11.224 447.82 10.5859C447.1 9.94792 446.148 9.62891 444.963 9.62891C443.96 9.62891 443.099 9.97526 442.379 10.668C441.659 11.3607 441.299 12.1901 441.299 13.1562C441.299 13.7031 441.372 14.1953 441.518 14.6328C441.663 15.0612 441.859 15.4212 442.105 15.7129C442.361 15.9954 442.661 16.2324 443.008 16.4238C443.354 16.6061 443.714 16.7383 444.088 16.8203C444.471 16.9023 444.876 16.9434 445.305 16.9434C446.344 16.9434 447.292 16.6882 448.148 16.1777V17.1621C447.264 17.627 446.312 17.8594 445.291 17.8594C444.635 17.8594 444.015 17.7728 443.432 17.5996C442.857 17.4173 442.333 17.1484 441.859 16.793C441.385 16.4284 441.007 15.9362 440.725 15.3164C440.451 14.6875 440.314 13.9674 440.314 13.1562C440.314 11.8984 440.756 10.832 441.641 9.95703C442.525 9.08203 443.632 8.64453 444.963 8.64453C446.43 8.64453 447.615 9.05924 448.518 9.88867C449.429 10.709 449.885 11.8438 449.885 13.293V23H448.9V13.293ZM451.853 13.293V23H450.869V13.293C450.869 11.5703 450.318 10.2031 449.215 9.19141C448.112 8.17057 446.695 7.66016 444.963 7.66016C443.359 7.66016 442.019 8.19336 440.943 9.25977C439.868 10.3262 439.33 11.625 439.33 13.1562C439.33 14.0859 439.49 14.9199 439.809 15.6582C440.137 16.3965 440.579 16.9889 441.135 17.4355C441.691 17.8822 442.311 18.224 442.994 18.4609C443.687 18.6888 444.416 18.8027 445.182 18.8027C446.221 18.8027 447.21 18.5612 448.148 18.0781V19.1172C447.164 19.5273 446.171 19.7324 445.168 19.7324C444.266 19.7324 443.409 19.5957 442.598 19.3223C441.786 19.0397 441.062 18.6341 440.424 18.1055C439.786 17.5677 439.28 16.875 438.906 16.0273C438.533 15.1706 438.346 14.2135 438.346 13.1562C438.346 11.3607 438.979 9.83398 440.246 8.57617C441.522 7.30924 443.094 6.67578 444.963 6.67578C446.275 6.67578 447.451 6.94466 448.49 7.48242C449.529 8.01107 450.35 8.78125 450.951 9.79297C451.553 10.8047 451.853 11.9714 451.853 13.293ZM453.822 13.293V23H452.838V13.293C452.838 11.7891 452.492 10.4583 451.799 9.30078C451.115 8.13411 450.176 7.24089 448.982 6.62109C447.788 6.0013 446.449 5.69141 444.963 5.69141C443.55 5.69141 442.26 6.02865 441.094 6.70312C439.927 7.36849 439.011 8.27083 438.346 9.41016C437.689 10.5495 437.361 11.7982 437.361 13.1562C437.361 14.3229 437.575 15.3893 438.004 16.3555C438.432 17.3125 439.006 18.1009 439.727 18.7207C440.456 19.3405 441.281 19.8236 442.201 20.1699C443.131 20.5072 444.102 20.6758 445.113 20.6758C446.143 20.6758 447.155 20.4616 448.148 20.0332V21.0312C447.109 21.4232 446.089 21.6191 445.086 21.6191C443.509 21.6191 442.06 21.2637 440.738 20.5527C439.417 19.8418 438.359 18.8346 437.566 17.5312C436.773 16.2279 436.377 14.7695 436.377 13.1562C436.377 12.0078 436.596 10.9141 437.033 9.875C437.48 8.83594 438.081 7.93815 438.838 7.18164C439.594 6.42513 440.506 5.82357 441.572 5.37695C442.639 4.93034 443.769 4.70703 444.963 4.70703C446.631 4.70703 448.135 5.0625 449.475 5.77344C450.824 6.48438 451.885 7.49609 452.66 8.80859C453.435 10.1211 453.822 11.6159 453.822 13.293ZM455.791 13.293V23H454.807V13.293C454.807 11.4336 454.374 9.77474 453.508 8.31641C452.642 6.84896 451.462 5.71875 449.967 4.92578C448.472 4.1237 446.804 3.72266 444.963 3.72266C443.195 3.72266 441.577 4.14648 440.109 4.99414C438.642 5.8418 437.489 6.99023 436.65 8.43945C435.812 9.87956 435.393 11.4518 435.393 13.1562C435.393 14.2773 435.57 15.3438 435.926 16.3555C436.29 17.3581 436.783 18.2376 437.402 18.9941C438.031 19.7415 438.751 20.3887 439.562 20.9355C440.383 21.4824 441.262 21.8971 442.201 22.1797C443.149 22.4622 444.111 22.6035 445.086 22.6035C446.161 22.6035 447.182 22.3984 448.148 21.9883V23C447.137 23.3555 446.098 23.5332 445.031 23.5332C443.928 23.5332 442.853 23.3783 441.805 23.0684C440.766 22.7585 439.799 22.3027 438.906 21.7012C438.022 21.0905 437.243 20.375 436.568 19.5547C435.894 18.7253 435.365 17.7591 434.982 16.6562C434.6 15.5534 434.408 14.3867 434.408 13.1562C434.408 11.7435 434.672 10.3991 435.201 9.12305C435.739 7.83789 436.468 6.73047 437.389 5.80078C438.318 4.86198 439.439 4.11914 440.752 3.57227C442.074 3.01628 443.477 2.73828 444.963 2.73828C446.476 2.73828 447.898 2.99349 449.228 3.50391C450.559 4.01432 451.708 4.72526 452.674 5.63672C453.64 6.53906 454.401 7.65104 454.957 8.97266C455.513 10.2943 455.791 11.7344 455.791 13.293Z" fill="#2E2F30"/>
<path d="M476.094 3.3125H477.078L470.885 16.3555V23H469.9V16.3555L476.094 3.3125ZM474.125 3.3125H475.109L468.916 16.3555V23H467.932V16.3555L474.125 3.3125ZM472.156 3.3125H473.141L466.947 16.3555V23H465.963V16.3555L472.156 3.3125ZM470.187 3.3125H471.172L464.978 16.3555V23H463.994V16.3555L457.391 3.3125H458.375L464.473 15.3574L470.187 3.3125ZM459.373 3.3125H460.357L465.238 12.5957L464.746 13.6758L459.373 3.3125ZM461.342 3.3125H462.34L466.223 10.4355L465.717 11.5156L461.342 3.3125ZM463.338 3.3125H464.322L467.207 8.28906L466.715 9.36914L463.338 3.3125Z" fill="#2E2F30"/>
</svg>
