<svg width="30" height="30" viewBox="0 0 30 30" fill="none" xmlns="http://www.w3.org/2000/svg">
<circle cx="7" cy="7" r="7" fill="#1FADE0"/>
<circle cx="23" cy="7" r="7" fill="#E01FAD"/>
<circle cx="23" cy="23" r="7" fill="#ADE01F"/>
<g clip-path="url(#clip0_247_318)">
<path d="M7 16C5.14348 16 3.36301 16.7375 2.05025 18.0503C0.737498 19.363 0 21.1435 0 23C0 24.8565 0.737498 26.637 2.05025 27.9497C3.36301 29.2625 5.14348 30 7 30C8.85652 30 10.637 29.2625 11.9497 27.9497C13.2625 26.637 14 24.8565 14 23C14 21.1435 13.2625 19.363 11.9497 18.0503C10.637 16.7375 8.85652 16 7 16V16ZM7 28.6875C5.49158 28.6875 4.04494 28.0883 2.97833 27.0217C1.91172 25.9551 1.3125 24.5084 1.3125 23C1.3125 21.4916 1.91172 20.0449 2.97833 18.9783C4.04494 17.9117 5.49158 17.3125 7 17.3125C8.50842 17.3125 9.95506 17.9117 11.0217 18.9783C12.0883 20.0449 12.6875 21.4916 12.6875 23C12.6875 24.5084 12.0883 25.9551 11.0217 27.0217C9.95506 28.0883 8.50842 28.6875 7 28.6875V28.6875Z" fill="#596063"/>
<path d="M4.85013 25.6626L6.08738 26.8999L9.98725 23L6.08738 19.1001L4.85013 20.3374L7.51275 23L4.85013 25.6626Z" fill="#596063"/>
</g>
<defs>
<clipPath id="clip0_247_318">
<rect width="14" height="14" fill="white" transform="translate(0 16)"/>
</clipPath>
</defs>
</svg>
