<svg width="268" height="308" viewBox="0 0 268 308" fill="none" xmlns="http://www.w3.org/2000/svg">
<rect y="16" width="268" height="36" rx="2" fill="#EBF2F4"/>
<path d="M4.35085 1.27273H5.66335V7.46023C5.66335 8.01989 5.55256 8.49858 5.33097 8.89631C5.11222 9.29403 4.80398 9.59801 4.40625 9.80824C4.00852 10.0156 3.54261 10.1193 3.00852 10.1193C2.51705 10.1193 2.07528 10.0298 1.68324 9.85085C1.29403 9.67187 0.985795 9.41193 0.758523 9.07102C0.534091 8.72727 0.421875 8.30966 0.421875 7.81818H1.73011C1.73011 8.05966 1.78551 8.26847 1.89631 8.4446C2.00994 8.62074 2.16477 8.75852 2.3608 8.85795C2.55966 8.95455 2.78693 9.00284 3.04261 9.00284C3.32102 9.00284 3.55682 8.9446 3.75 8.82812C3.94602 8.70881 4.09517 8.53409 4.19744 8.30398C4.29972 8.07386 4.35085 7.79261 4.35085 7.46023V1.27273ZM7.47763 10V3.45455H8.70064V4.51989H8.78161C8.91797 4.15909 9.14098 3.87784 9.45064 3.67614C9.7603 3.47159 10.131 3.36932 10.5629 3.36932C11.0004 3.36932 11.3668 3.47159 11.6623 3.67614C11.9606 3.88068 12.1808 4.16193 12.3228 4.51989H12.391C12.5472 4.17045 12.7958 3.89205 13.1367 3.68466C13.4776 3.47443 13.8839 3.36932 14.3555 3.36932C14.9492 3.36932 15.4336 3.5554 15.8086 3.92756C16.1864 4.29972 16.3754 4.8608 16.3754 5.6108V10H15.1012V5.73011C15.1012 5.28693 14.9805 4.96591 14.739 4.76705C14.4975 4.56818 14.2092 4.46875 13.8739 4.46875C13.4592 4.46875 13.1367 4.59659 12.9066 4.85227C12.6765 5.10511 12.5614 5.4304 12.5614 5.82812V10H11.2915V5.64915C11.2915 5.29403 11.1808 5.00852 10.9592 4.79261C10.7376 4.5767 10.4492 4.46875 10.0941 4.46875C9.85263 4.46875 9.62962 4.53267 9.42507 4.66051C9.22337 4.78551 9.06001 4.96023 8.93501 5.18466C8.81286 5.40909 8.75178 5.66903 8.75178 5.96449V10H7.47763ZM20.9041 10.1321C20.2592 10.1321 19.7038 9.99432 19.2379 9.71875C18.7749 9.44034 18.4169 9.04972 18.1641 8.54688C17.9141 8.04119 17.7891 7.44886 17.7891 6.76989C17.7891 6.09943 17.9141 5.50852 18.1641 4.99716C18.4169 4.4858 18.7692 4.08665 19.2209 3.79972C19.6754 3.51278 20.2067 3.36932 20.8146 3.36932C21.1839 3.36932 21.5419 3.4304 21.8885 3.55256C22.2351 3.67472 22.5462 3.86648 22.8217 4.12784C23.0973 4.3892 23.3146 4.72869 23.4737 5.14631C23.6328 5.56108 23.7124 6.06534 23.7124 6.65909V7.1108H18.5092V6.15625H22.4638C22.4638 5.82102 22.3956 5.52415 22.2592 5.26562C22.1229 5.00426 21.9311 4.7983 21.6839 4.64773C21.4396 4.49716 21.1527 4.42188 20.8232 4.42188C20.4652 4.42188 20.1527 4.50994 19.8857 4.68608C19.6214 4.85937 19.4169 5.08665 19.272 5.3679C19.13 5.64631 19.0589 5.94886 19.0589 6.27557V7.02131C19.0589 7.45881 19.1357 7.83097 19.2891 8.13778C19.4453 8.4446 19.6626 8.67898 19.9411 8.84091C20.2195 9 20.5447 9.07955 20.9169 9.07955C21.1584 9.07955 21.3786 9.04545 21.5774 8.97727C21.7763 8.90625 21.9482 8.80114 22.093 8.66193C22.2379 8.52273 22.3487 8.35085 22.4254 8.14631L23.6314 8.36364C23.5348 8.71875 23.3615 9.02983 23.1115 9.29688C22.8643 9.56108 22.5533 9.76705 22.1783 9.91477C21.8061 10.0597 21.3814 10.1321 20.9041 10.1321ZM20.2393 2.58097L21.2365 0.616477H22.5788L21.2578 2.58097H20.2393ZM26.4002 6.11364V10H25.1261V3.45455H26.3491V4.51989H26.43C26.5806 4.1733 26.8164 3.89489 27.1374 3.68466C27.4613 3.47443 27.869 3.36932 28.3604 3.36932C28.8065 3.36932 29.1971 3.46307 29.5323 3.65057C29.8675 3.83523 30.1275 4.1108 30.3121 4.47727C30.4968 4.84375 30.5891 5.29687 30.5891 5.83665V10H29.315V5.99006C29.315 5.51562 29.1914 5.14489 28.9442 4.87784C28.6971 4.60795 28.3576 4.47301 27.9258 4.47301C27.6303 4.47301 27.3675 4.53693 27.1374 4.66477C26.9102 4.79261 26.7298 4.98011 26.5962 5.22727C26.4656 5.47159 26.4002 5.76705 26.4002 6.11364ZM35.055 10.1321C34.4414 10.1321 33.9059 9.99148 33.4485 9.71023C32.9911 9.42898 32.636 9.03551 32.3832 8.52983C32.1303 8.02415 32.0039 7.43324 32.0039 6.7571C32.0039 6.07812 32.1303 5.48437 32.3832 4.97585C32.636 4.46733 32.9911 4.07244 33.4485 3.79119C33.9059 3.50994 34.4414 3.36932 35.055 3.36932C35.6687 3.36932 36.2042 3.50994 36.6616 3.79119C37.119 4.07244 37.4741 4.46733 37.7269 4.97585C37.9798 5.48437 38.1062 6.07812 38.1062 6.7571C38.1062 7.43324 37.9798 8.02415 37.7269 8.52983C37.4741 9.03551 37.119 9.42898 36.6616 9.71023C36.2042 9.99148 35.6687 10.1321 35.055 10.1321ZM35.0593 9.0625C35.457 9.0625 35.7866 8.95739 36.0479 8.74716C36.3093 8.53693 36.5025 8.2571 36.6275 7.90767C36.7553 7.55824 36.8192 7.1733 36.8192 6.75284C36.8192 6.33523 36.7553 5.9517 36.6275 5.60227C36.5025 5.25 36.3093 4.96733 36.0479 4.75426C35.7866 4.54119 35.457 4.43466 35.0593 4.43466C34.6587 4.43466 34.3263 4.54119 34.0621 4.75426C33.8008 4.96733 33.6062 5.25 33.4783 5.60227C33.3533 5.9517 33.2908 6.33523 33.2908 6.75284C33.2908 7.1733 33.3533 7.55824 33.4783 7.90767C33.6062 8.2571 33.8008 8.53693 34.0621 8.74716C34.3263 8.95739 34.6587 9.0625 35.0593 9.0625ZM44.609 10.1449C44.1942 10.1449 43.8192 10.0682 43.484 9.91477C43.1488 9.75852 42.8832 9.53267 42.6871 9.23722C42.494 8.94176 42.3974 8.57955 42.3974 8.15057C42.3974 7.78125 42.4684 7.47727 42.6104 7.23864C42.7525 7 42.9442 6.81108 43.1857 6.67188C43.4272 6.53267 43.6971 6.42756 43.9954 6.35653C44.2937 6.28551 44.5977 6.23153 44.9073 6.1946C45.2994 6.14915 45.6175 6.11222 45.8619 6.08381C46.1062 6.05256 46.2837 6.00284 46.3945 5.93466C46.5053 5.86648 46.5607 5.75568 46.5607 5.60227V5.57244C46.5607 5.20028 46.4556 4.91193 46.2454 4.70739C46.038 4.50284 45.7283 4.40057 45.3164 4.40057C44.8874 4.40057 44.5494 4.49574 44.3022 4.68608C44.0579 4.87358 43.8888 5.08239 43.7951 5.3125L42.5977 5.03977C42.7397 4.64205 42.9471 4.32102 43.2198 4.0767C43.4954 3.82955 43.8121 3.65057 44.1701 3.53977C44.5281 3.42614 44.9045 3.36932 45.2994 3.36932C45.5607 3.36932 45.8377 3.40057 46.1303 3.46307C46.4258 3.52273 46.7013 3.63352 46.957 3.79545C47.2156 3.95739 47.4272 4.18892 47.592 4.49006C47.7567 4.78835 47.8391 5.17614 47.8391 5.65341V10H46.5948V9.10511H46.5437C46.4613 9.26989 46.3377 9.43182 46.1729 9.59091C46.0082 9.75 45.7965 9.8821 45.538 9.98722C45.2795 10.0923 44.9698 10.1449 44.609 10.1449ZM44.886 9.12216C45.2383 9.12216 45.5394 9.05256 45.7894 8.91335C46.0423 8.77415 46.234 8.59233 46.3647 8.3679C46.4982 8.14062 46.565 7.89773 46.565 7.6392V6.79545C46.5195 6.84091 46.4315 6.88352 46.3008 6.9233C46.1729 6.96023 46.0266 6.9929 45.8619 7.02131C45.6971 7.04687 45.5366 7.07102 45.3803 7.09375C45.2241 7.11364 45.0934 7.13068 44.9883 7.14489C44.7411 7.17614 44.5153 7.22869 44.3107 7.30256C44.109 7.37642 43.9471 7.48295 43.8249 7.62216C43.7056 7.75852 43.646 7.94034 43.646 8.16761C43.646 8.48295 43.7624 8.72159 43.9954 8.88352C44.2283 9.04261 44.5252 9.12216 44.886 9.12216ZM52.712 12.4545V3.45455H53.9563V4.51562H54.0629C54.1367 4.37926 54.2433 4.22159 54.3825 4.04261C54.5217 3.86364 54.7148 3.70739 54.962 3.57386C55.2092 3.4375 55.5359 3.36932 55.9421 3.36932C56.4705 3.36932 56.9421 3.50284 57.3569 3.76989C57.7717 4.03693 58.0969 4.42187 58.3327 4.92472C58.5714 5.42756 58.6907 6.03267 58.6907 6.74006C58.6907 7.44744 58.5728 8.05398 58.337 8.55966C58.1012 9.0625 57.7773 9.45028 57.3654 9.72301C56.9535 9.9929 56.4833 10.1278 55.9549 10.1278C55.5572 10.1278 55.2319 10.0611 54.979 9.92756C54.729 9.79403 54.533 9.63778 54.391 9.45881C54.2489 9.27983 54.1396 9.12074 54.0629 8.98153H53.9862V12.4545H52.712ZM53.9606 6.72727C53.9606 7.1875 54.0273 7.59091 54.1609 7.9375C54.2944 8.28409 54.4876 8.5554 54.7404 8.75142C54.9933 8.9446 55.3029 9.04119 55.6694 9.04119C56.0501 9.04119 56.3683 8.94034 56.6239 8.73864C56.8796 8.53409 57.0728 8.2571 57.2035 7.90767C57.337 7.55824 57.4038 7.16477 57.4038 6.72727C57.4038 6.29545 57.3384 5.90767 57.2077 5.56392C57.0799 5.22017 56.8867 4.94886 56.6282 4.75C56.3725 4.55114 56.0529 4.4517 55.6694 4.4517C55.3001 4.4517 54.9876 4.54687 54.7319 4.73722C54.479 4.92756 54.2873 5.19318 54.1566 5.53409C54.0259 5.875 53.9606 6.27273 53.9606 6.72727ZM60.1183 10V3.45455H61.3498V4.49432H61.418C61.5373 4.14205 61.7475 3.86506 62.0487 3.66335C62.3526 3.45881 62.6964 3.35653 63.0799 3.35653C63.1594 3.35653 63.2532 3.35937 63.3612 3.36506C63.4719 3.37074 63.5586 3.37784 63.6211 3.38636V4.60511C63.57 4.59091 63.479 4.57528 63.3484 4.55824C63.2177 4.53835 63.087 4.52841 62.9563 4.52841C62.6552 4.52841 62.3867 4.59233 62.1509 4.72017C61.918 4.84517 61.7333 5.01989 61.5969 5.24432C61.4606 5.46591 61.3924 5.71875 61.3924 6.00284V10H60.1183ZM60.9279 0.799716L61.8058 1.94176L62.6793 0.799716H63.8342V0.863636L62.3342 2.67045H61.2731L59.7773 0.863636V0.799716H60.9279ZM64.7237 10V3.45455H65.9979V10H64.7237ZM64.843 2.58097L65.8402 0.616477H67.1825L65.8615 2.58097H64.843ZM67.712 3.45455H68.9862V10.4261C68.9862 10.8636 68.9066 11.233 68.7475 11.5341C68.5913 11.8352 68.3583 12.0639 68.0487 12.2202C67.7418 12.3764 67.3626 12.4545 66.9109 12.4545C66.8654 12.4545 66.8228 12.4545 66.783 12.4545C66.7404 12.4545 66.6964 12.4531 66.6509 12.4503V11.3551C66.6907 11.3551 66.7262 11.3551 66.7575 11.3551C66.7859 11.3551 66.8185 11.3551 66.8555 11.3551C67.1566 11.3551 67.3739 11.2741 67.5075 11.1122C67.6438 10.9531 67.712 10.7216 67.712 10.4176V3.45455ZM68.3427 2.4446C68.1211 2.4446 67.9308 2.37074 67.7717 2.22301C67.6154 2.07244 67.5373 1.89347 67.5373 1.68608C67.5373 1.47585 67.6154 1.29687 67.7717 1.14915C67.9308 0.998579 68.1211 0.923295 68.3427 0.923295C68.5643 0.923295 68.7532 0.998579 68.9094 1.14915C69.0685 1.29687 69.1481 1.47585 69.1481 1.68608C69.1481 1.89347 69.0685 2.07244 68.9094 2.22301C68.7532 2.37074 68.5643 2.4446 68.3427 2.4446ZM70.7003 10V3.45455H71.9233V4.51989H72.0043C72.1406 4.15909 72.3636 3.87784 72.6733 3.67614C72.983 3.47159 73.3537 3.36932 73.7855 3.36932C74.223 3.36932 74.5895 3.47159 74.8849 3.67614C75.1832 3.88068 75.4034 4.16193 75.5455 4.51989H75.6136C75.7699 4.17045 76.0185 3.89205 76.3594 3.68466C76.7003 3.47443 77.1065 3.36932 77.5781 3.36932C78.1719 3.36932 78.6562 3.5554 79.0312 3.92756C79.4091 4.29972 79.598 4.8608 79.598 5.6108V10H78.3239V5.73011C78.3239 5.28693 78.2031 4.96591 77.9616 4.76705C77.7202 4.56818 77.4318 4.46875 77.0966 4.46875C76.6818 4.46875 76.3594 4.59659 76.1293 4.85227C75.8991 5.10511 75.7841 5.4304 75.7841 5.82812V10H74.5142V5.64915C74.5142 5.29403 74.4034 5.00852 74.1818 4.79261C73.9602 4.5767 73.6719 4.46875 73.3168 4.46875C73.0753 4.46875 72.8523 4.53267 72.6477 4.66051C72.446 4.78551 72.2827 4.96023 72.1577 5.18466C72.0355 5.40909 71.9744 5.66903 71.9744 5.96449V10H70.7003ZM84.1268 10.1321C83.4819 10.1321 82.9265 9.99432 82.4606 9.71875C81.9975 9.44034 81.6396 9.04972 81.3867 8.54688C81.1367 8.04119 81.0117 7.44886 81.0117 6.76989C81.0117 6.09943 81.1367 5.50852 81.3867 4.99716C81.6396 4.4858 81.9918 4.08665 82.4435 3.79972C82.8981 3.51278 83.4293 3.36932 84.0373 3.36932C84.4066 3.36932 84.7646 3.4304 85.1112 3.55256C85.4577 3.67472 85.7688 3.86648 86.0444 4.12784C86.32 4.3892 86.5373 4.72869 86.6964 5.14631C86.8555 5.56108 86.935 6.06534 86.935 6.65909V7.1108H81.7319V6.15625H85.6864C85.6864 5.82102 85.6183 5.52415 85.4819 5.26562C85.3455 5.00426 85.1538 4.7983 84.9066 4.64773C84.6623 4.49716 84.3754 4.42188 84.0458 4.42188C83.6879 4.42188 83.3754 4.50994 83.1083 4.68608C82.8441 4.85937 82.6396 5.08665 82.4947 5.3679C82.3526 5.64631 82.2816 5.94886 82.2816 6.27557V7.02131C82.2816 7.45881 82.3583 7.83097 82.5117 8.13778C82.668 8.4446 82.8853 8.67898 83.1637 8.84091C83.4421 9 83.7674 9.07955 84.1396 9.07955C84.381 9.07955 84.6012 9.04545 84.8001 8.97727C84.9989 8.90625 85.1708 8.80114 85.3157 8.66193C85.4606 8.52273 85.5714 8.35085 85.6481 8.14631L86.854 8.36364C86.7575 8.71875 86.5842 9.02983 86.3342 9.29688C86.087 9.56108 85.7759 9.76705 85.4009 9.91477C85.0288 10.0597 84.604 10.1321 84.1268 10.1321ZM89.6229 6.11364V10H88.3487V3.45455H89.5717V4.51989H89.6527C89.8033 4.1733 90.0391 3.89489 90.3601 3.68466C90.6839 3.47443 91.0916 3.36932 91.5831 3.36932C92.0291 3.36932 92.4197 3.46307 92.755 3.65057C93.0902 3.83523 93.3501 4.1108 93.5348 4.47727C93.7195 4.84375 93.8118 5.29687 93.8118 5.83665V10H92.5376V5.99006C92.5376 5.51562 92.4141 5.14489 92.1669 4.87784C91.9197 4.60795 91.5803 4.47301 91.1484 4.47301C90.853 4.47301 90.5902 4.53693 90.3601 4.66477C90.1328 4.79261 89.9524 4.98011 89.8189 5.22727C89.6882 5.47159 89.6229 5.76705 89.6229 6.11364ZM95.5206 10V3.45455H96.7947V10H95.5206ZM95.6399 2.58097L96.6371 0.616477H97.9794L96.6584 2.58097H95.6399Z" fill="#2E2F30"/>
<rect y="84" width="268" height="36" rx="2" fill="#EBF2F4"/>
<path d="M0.958807 78V69.2727H6.4304V70.4062H2.27557V73.0653H6.14489V74.1946H2.27557V76.8665H6.48153V78H0.958807ZM8.087 78V71.4545H9.31001V72.5199H9.39098C9.52734 72.1591 9.75036 71.8778 10.06 71.6761C10.3697 71.4716 10.7404 71.3693 11.1722 71.3693C11.6097 71.3693 11.9762 71.4716 12.2717 71.6761C12.57 71.8807 12.7901 72.1619 12.9322 72.5199H13.0004C13.1566 72.1705 13.4052 71.892 13.7461 71.6847C14.087 71.4744 14.4933 71.3693 14.9648 71.3693C15.5586 71.3693 16.043 71.5554 16.418 71.9276C16.7958 72.2997 16.9847 72.8608 16.9847 73.6108V78H15.7106V73.7301C15.7106 73.2869 15.5898 72.9659 15.3484 72.767C15.1069 72.5682 14.8185 72.4688 14.4833 72.4688C14.0685 72.4688 13.7461 72.5966 13.516 72.8523C13.2859 73.1051 13.1708 73.4304 13.1708 73.8281V78H11.9009V73.6491C11.9009 73.294 11.7901 73.0085 11.5685 72.7926C11.3469 72.5767 11.0586 72.4688 10.7035 72.4688C10.462 72.4688 10.239 72.5327 10.0344 72.6605C9.83274 72.7855 9.66939 72.9602 9.54439 73.1847C9.42223 73.4091 9.36115 73.669 9.36115 73.9645V78H8.087ZM20.5973 78.1449C20.1825 78.1449 19.8075 78.0682 19.4723 77.9148C19.1371 77.7585 18.8714 77.5327 18.6754 77.2372C18.4822 76.9418 18.3857 76.5795 18.3857 76.1506C18.3857 75.7812 18.4567 75.4773 18.5987 75.2386C18.7408 75 18.9325 74.8111 19.174 74.6719C19.4155 74.5327 19.6854 74.4276 19.9837 74.3565C20.282 74.2855 20.5859 74.2315 20.8956 74.1946C21.2876 74.1491 21.6058 74.1122 21.8501 74.0838C22.0945 74.0526 22.272 74.0028 22.3828 73.9347C22.4936 73.8665 22.549 73.7557 22.549 73.6023V73.5724C22.549 73.2003 22.4439 72.9119 22.2337 72.7074C22.0263 72.5028 21.7166 72.4006 21.3047 72.4006C20.8757 72.4006 20.5376 72.4957 20.2905 72.6861C20.0462 72.8736 19.8771 73.0824 19.7834 73.3125L18.5859 73.0398C18.728 72.642 18.9354 72.321 19.2081 72.0767C19.4837 71.8295 19.8004 71.6506 20.1584 71.5398C20.5163 71.4261 20.8928 71.3693 21.2876 71.3693C21.549 71.3693 21.826 71.4006 22.1186 71.4631C22.4141 71.5227 22.6896 71.6335 22.9453 71.7955C23.2038 71.9574 23.4155 72.1889 23.5803 72.4901C23.745 72.7884 23.8274 73.1761 23.8274 73.6534V78H22.5831V77.1051H22.532C22.4496 77.2699 22.326 77.4318 22.1612 77.5909C21.9964 77.75 21.7848 77.8821 21.5263 77.9872C21.2678 78.0923 20.9581 78.1449 20.5973 78.1449ZM20.8743 77.1222C21.2266 77.1222 21.5277 77.0526 21.7777 76.9134C22.0305 76.7741 22.2223 76.5923 22.353 76.3679C22.4865 76.1406 22.5533 75.8977 22.5533 75.6392V74.7955C22.5078 74.8409 22.4197 74.8835 22.2891 74.9233C22.1612 74.9602 22.0149 74.9929 21.8501 75.0213C21.6854 75.0469 21.5249 75.071 21.3686 75.0938C21.2124 75.1136 21.0817 75.1307 20.9766 75.1449C20.7294 75.1761 20.5036 75.2287 20.299 75.3026C20.0973 75.3764 19.9354 75.483 19.8132 75.6222C19.6939 75.7585 19.6342 75.9403 19.6342 76.1676C19.6342 76.483 19.7507 76.7216 19.9837 76.8835C20.2166 77.0426 20.5135 77.1222 20.8743 77.1222ZM25.5245 78V71.4545H26.7987V78H25.5245ZM26.168 70.4446C25.9464 70.4446 25.756 70.3707 25.5969 70.223C25.4407 70.0724 25.3626 69.8935 25.3626 69.6861C25.3626 69.4759 25.4407 69.2969 25.5969 69.1491C25.756 68.9986 25.9464 68.9233 26.168 68.9233C26.3896 68.9233 26.5785 68.9986 26.7347 69.1491C26.8938 69.2969 26.9734 69.4759 26.9734 69.6861C26.9734 69.8935 26.8938 70.0724 26.7347 70.223C26.5785 70.3707 26.3896 70.4446 26.168 70.4446ZM29.7869 69.2727V78H28.5128V69.2727H29.7869Z" fill="#2E2F30"/>
<rect y="152" width="268" height="36" rx="2" fill="#EBF2F4"/>
<path d="M0.958807 146V137.273H2.27557V141.065H6.62642V137.273H7.94744V146H6.62642V142.195H2.27557V146H0.958807ZM12.5838 146.132C11.9389 146.132 11.3835 145.994 10.9176 145.719C10.4545 145.44 10.0966 145.05 9.84375 144.547C9.59375 144.041 9.46875 143.449 9.46875 142.77C9.46875 142.099 9.59375 141.509 9.84375 140.997C10.0966 140.486 10.4489 140.087 10.9006 139.8C11.3551 139.513 11.8864 139.369 12.4943 139.369C12.8636 139.369 13.2216 139.43 13.5682 139.553C13.9148 139.675 14.2259 139.866 14.5014 140.128C14.777 140.389 14.9943 140.729 15.1534 141.146C15.3125 141.561 15.392 142.065 15.392 142.659V143.111H10.1889V142.156H14.1435C14.1435 141.821 14.0753 141.524 13.9389 141.266C13.8026 141.004 13.6108 140.798 13.3636 140.648C13.1193 140.497 12.8324 140.422 12.5028 140.422C12.1449 140.422 11.8324 140.51 11.5653 140.686C11.3011 140.859 11.0966 141.087 10.9517 141.368C10.8097 141.646 10.7386 141.949 10.7386 142.276V143.021C10.7386 143.459 10.8153 143.831 10.9688 144.138C11.125 144.445 11.3423 144.679 11.6207 144.841C11.8991 145 12.2244 145.08 12.5966 145.08C12.8381 145.08 13.0582 145.045 13.2571 144.977C13.456 144.906 13.6278 144.801 13.7727 144.662C13.9176 144.523 14.0284 144.351 14.1051 144.146L15.3111 144.364C15.2145 144.719 15.0412 145.03 14.7912 145.297C14.544 145.561 14.233 145.767 13.858 145.915C13.4858 146.06 13.0611 146.132 12.5838 146.132ZM21.7106 141.053L20.5558 141.257C20.5075 141.109 20.4308 140.969 20.3256 140.835C20.2234 140.702 20.0842 140.592 19.908 140.507C19.7319 140.422 19.5117 140.379 19.2475 140.379C18.8867 140.379 18.5856 140.46 18.3441 140.622C18.1026 140.781 17.9819 140.987 17.9819 141.24C17.9819 141.459 18.0629 141.635 18.2248 141.768C18.3867 141.902 18.6481 142.011 19.0089 142.097L20.0487 142.335C20.6509 142.474 21.0998 142.689 21.3952 142.979C21.6907 143.268 21.8384 143.645 21.8384 144.108C21.8384 144.5 21.7248 144.849 21.4975 145.156C21.2731 145.46 20.9592 145.699 20.5558 145.872C20.1552 146.045 19.6907 146.132 19.1623 146.132C18.4293 146.132 17.8313 145.976 17.3683 145.663C16.9052 145.348 16.6211 144.901 16.516 144.321L17.7475 144.134C17.8242 144.455 17.9819 144.697 18.2205 144.862C18.4592 145.024 18.7702 145.105 19.1538 145.105C19.5714 145.105 19.9052 145.018 20.1552 144.845C20.4052 144.669 20.5302 144.455 20.5302 144.202C20.5302 143.997 20.4535 143.825 20.3001 143.686C20.1495 143.547 19.918 143.442 19.6055 143.371L18.4975 143.128C17.8867 142.989 17.435 142.767 17.1424 142.463C16.8526 142.159 16.7077 141.774 16.7077 141.308C16.7077 140.922 16.8157 140.584 17.0316 140.294C17.2475 140.004 17.5458 139.778 17.9265 139.616C18.3072 139.452 18.7433 139.369 19.2347 139.369C19.9421 139.369 20.4989 139.523 20.9052 139.83C21.3114 140.134 21.5799 140.541 21.7106 141.053ZM24.5135 137.273V146H23.2393V137.273H24.5135ZM28.9847 146.132C28.3711 146.132 27.8356 145.991 27.3782 145.71C26.9208 145.429 26.5657 145.036 26.3129 144.53C26.06 144.024 25.9336 143.433 25.9336 142.757C25.9336 142.078 26.06 141.484 26.3129 140.976C26.5657 140.467 26.9208 140.072 27.3782 139.791C27.8356 139.51 28.3711 139.369 28.9847 139.369C29.5984 139.369 30.1339 139.51 30.5913 139.791C31.0487 140.072 31.4038 140.467 31.6566 140.976C31.9094 141.484 32.0359 142.078 32.0359 142.757C32.0359 143.433 31.9094 144.024 31.6566 144.53C31.4038 145.036 31.0487 145.429 30.5913 145.71C30.1339 145.991 29.5984 146.132 28.9847 146.132ZM28.989 145.062C29.3867 145.062 29.7163 144.957 29.9776 144.747C30.239 144.537 30.4322 144.257 30.5572 143.908C30.685 143.558 30.7489 143.173 30.7489 142.753C30.7489 142.335 30.685 141.952 30.5572 141.602C30.4322 141.25 30.239 140.967 29.9776 140.754C29.7163 140.541 29.3867 140.435 28.989 140.435C28.5884 140.435 28.256 140.541 27.9918 140.754C27.7305 140.967 27.5359 141.25 27.408 141.602C27.283 141.952 27.2205 142.335 27.2205 142.753C27.2205 143.173 27.283 143.558 27.408 143.908C27.5359 144.257 27.7305 144.537 27.9918 144.747C28.256 144.957 28.5884 145.062 28.989 145.062Z" fill="#2E2F30"/>
<rect y="220" width="268" height="36" rx="2" fill="#EBF2F4"/>
<path d="M0.958807 214V205.273H2.27557V209.065H6.62642V205.273H7.94744V214H6.62642V210.195H2.27557V214H0.958807ZM12.5838 214.132C11.9389 214.132 11.3835 213.994 10.9176 213.719C10.4545 213.44 10.0966 213.05 9.84375 212.547C9.59375 212.041 9.46875 211.449 9.46875 210.77C9.46875 210.099 9.59375 209.509 9.84375 208.997C10.0966 208.486 10.4489 208.087 10.9006 207.8C11.3551 207.513 11.8864 207.369 12.4943 207.369C12.8636 207.369 13.2216 207.43 13.5682 207.553C13.9148 207.675 14.2259 207.866 14.5014 208.128C14.777 208.389 14.9943 208.729 15.1534 209.146C15.3125 209.561 15.392 210.065 15.392 210.659V211.111H10.1889V210.156H14.1435C14.1435 209.821 14.0753 209.524 13.9389 209.266C13.8026 209.004 13.6108 208.798 13.3636 208.648C13.1193 208.497 12.8324 208.422 12.5028 208.422C12.1449 208.422 11.8324 208.51 11.5653 208.686C11.3011 208.859 11.0966 209.087 10.9517 209.368C10.8097 209.646 10.7386 209.949 10.7386 210.276V211.021C10.7386 211.459 10.8153 211.831 10.9688 212.138C11.125 212.445 11.3423 212.679 11.6207 212.841C11.8991 213 12.2244 213.08 12.5966 213.08C12.8381 213.08 13.0582 213.045 13.2571 212.977C13.456 212.906 13.6278 212.801 13.7727 212.662C13.9176 212.523 14.0284 212.351 14.1051 212.146L15.3111 212.364C15.2145 212.719 15.0412 213.03 14.7912 213.297C14.544 213.561 14.233 213.767 13.858 213.915C13.4858 214.06 13.0611 214.132 12.5838 214.132ZM21.7106 209.053L20.5558 209.257C20.5075 209.109 20.4308 208.969 20.3256 208.835C20.2234 208.702 20.0842 208.592 19.908 208.507C19.7319 208.422 19.5117 208.379 19.2475 208.379C18.8867 208.379 18.5856 208.46 18.3441 208.622C18.1026 208.781 17.9819 208.987 17.9819 209.24C17.9819 209.459 18.0629 209.635 18.2248 209.768C18.3867 209.902 18.6481 210.011 19.0089 210.097L20.0487 210.335C20.6509 210.474 21.0998 210.689 21.3952 210.979C21.6907 211.268 21.8384 211.645 21.8384 212.108C21.8384 212.5 21.7248 212.849 21.4975 213.156C21.2731 213.46 20.9592 213.699 20.5558 213.872C20.1552 214.045 19.6907 214.132 19.1623 214.132C18.4293 214.132 17.8313 213.976 17.3683 213.663C16.9052 213.348 16.6211 212.901 16.516 212.321L17.7475 212.134C17.8242 212.455 17.9819 212.697 18.2205 212.862C18.4592 213.024 18.7702 213.105 19.1538 213.105C19.5714 213.105 19.9052 213.018 20.1552 212.845C20.4052 212.669 20.5302 212.455 20.5302 212.202C20.5302 211.997 20.4535 211.825 20.3001 211.686C20.1495 211.547 19.918 211.442 19.6055 211.371L18.4975 211.128C17.8867 210.989 17.435 210.767 17.1424 210.463C16.8526 210.159 16.7077 209.774 16.7077 209.308C16.7077 208.922 16.8157 208.584 17.0316 208.294C17.2475 208.004 17.5458 207.778 17.9265 207.616C18.3072 207.452 18.7433 207.369 19.2347 207.369C19.9421 207.369 20.4989 207.523 20.9052 207.83C21.3114 208.134 21.5799 208.541 21.7106 209.053ZM24.5135 205.273V214H23.2393V205.273H24.5135ZM28.9847 214.132C28.3711 214.132 27.8356 213.991 27.3782 213.71C26.9208 213.429 26.5657 213.036 26.3129 212.53C26.06 212.024 25.9336 211.433 25.9336 210.757C25.9336 210.078 26.06 209.484 26.3129 208.976C26.5657 208.467 26.9208 208.072 27.3782 207.791C27.8356 207.51 28.3711 207.369 28.9847 207.369C29.5984 207.369 30.1339 207.51 30.5913 207.791C31.0487 208.072 31.4038 208.467 31.6566 208.976C31.9094 209.484 32.0359 210.078 32.0359 210.757C32.0359 211.433 31.9094 212.024 31.6566 212.53C31.4038 213.036 31.0487 213.429 30.5913 213.71C30.1339 213.991 29.5984 214.132 28.9847 214.132ZM28.989 213.062C29.3867 213.062 29.7163 212.957 29.9776 212.747C30.239 212.537 30.4322 212.257 30.5572 211.908C30.685 211.558 30.7489 211.173 30.7489 210.753C30.7489 210.335 30.685 209.952 30.5572 209.602C30.4322 209.25 30.239 208.967 29.9776 208.754C29.7163 208.541 29.3867 208.435 28.989 208.435C28.5884 208.435 28.256 208.541 27.9918 208.754C27.7305 208.967 27.5359 209.25 27.408 209.602C27.283 209.952 27.2205 210.335 27.2205 210.753C27.2205 211.173 27.283 211.558 27.408 211.908C27.5359 212.257 27.7305 212.537 27.9918 212.747C28.256 212.957 28.5884 213.062 28.989 213.062ZM36.4975 214V213.126L40.043 208.622V208.562H36.6126V207.455H41.6325V208.384L38.2234 212.832V212.892H41.7518V214H36.4975ZM44.5291 210.114V214H43.255V207.455H44.478V208.52H44.5589C44.7095 208.173 44.9453 207.895 45.2663 207.685C45.5902 207.474 45.9979 207.369 46.4893 207.369C46.9354 207.369 47.326 207.463 47.6612 207.651C47.9964 207.835 48.2564 208.111 48.4411 208.477C48.6257 208.844 48.718 209.297 48.718 209.837V214H47.4439V209.99C47.4439 209.516 47.3203 209.145 47.0732 208.878C46.826 208.608 46.4865 208.473 46.0547 208.473C45.7592 208.473 45.4964 208.537 45.2663 208.665C45.0391 208.793 44.8587 208.98 44.7251 209.227C44.5945 209.472 44.5291 209.767 44.5291 210.114ZM53.1839 214.132C52.5703 214.132 52.0348 213.991 51.5774 213.71C51.12 213.429 50.7649 213.036 50.5121 212.53C50.2592 212.024 50.1328 211.433 50.1328 210.757C50.1328 210.078 50.2592 209.484 50.5121 208.976C50.7649 208.467 51.12 208.072 51.5774 207.791C52.0348 207.51 52.5703 207.369 53.1839 207.369C53.7976 207.369 54.3331 207.51 54.7905 207.791C55.2479 208.072 55.603 208.467 55.8558 208.976C56.1087 209.484 56.2351 210.078 56.2351 210.757C56.2351 211.433 56.1087 212.024 55.8558 212.53C55.603 213.036 55.2479 213.429 54.7905 213.71C54.3331 213.991 53.7976 214.132 53.1839 214.132ZM53.1882 213.062C53.5859 213.062 53.9155 212.957 54.1768 212.747C54.4382 212.537 54.6314 212.257 54.7564 211.908C54.8842 211.558 54.9482 211.173 54.9482 210.753C54.9482 210.335 54.8842 209.952 54.7564 209.602C54.6314 209.25 54.4382 208.967 54.1768 208.754C53.9155 208.541 53.5859 208.435 53.1882 208.435C52.7876 208.435 52.4553 208.541 52.1911 208.754C51.9297 208.967 51.7351 209.25 51.6072 209.602C51.4822 209.952 51.4197 210.335 51.4197 210.753C51.4197 211.173 51.4822 211.558 51.6072 211.908C51.7351 212.257 51.9297 212.537 52.1911 212.747C52.4553 212.957 52.7876 213.062 53.1882 213.062ZM63.0341 207.455L60.6605 214H59.2969L56.919 207.455H58.2869L59.9446 212.491H60.0128L61.6662 207.455H63.0341ZM68.3778 211.286V207.455H69.6562V214H68.4034V212.866H68.3352C68.1847 213.216 67.9432 213.507 67.6108 213.74C67.2813 213.97 66.8707 214.085 66.3793 214.085C65.9588 214.085 65.5866 213.993 65.2628 213.808C64.9418 213.621 64.6889 213.344 64.5043 212.977C64.3224 212.611 64.2315 212.158 64.2315 211.618V207.455H65.5057V211.464C65.5057 211.911 65.6293 212.266 65.8764 212.53C66.1236 212.794 66.4446 212.926 66.8395 212.926C67.0781 212.926 67.3153 212.866 67.5511 212.747C67.7898 212.628 67.9872 212.447 68.1435 212.206C68.3026 211.964 68.3807 211.658 68.3778 211.286Z" fill="#2E2F30"/>
<rect y="272" width="100" height="36" rx="2" fill="#ADE01F"/>
<path d="M14.0284 285.273L16.2997 292.142H16.3892L18.6562 285.273H20.3949L17.3182 294H15.3665L12.294 285.273H14.0284ZM22.435 296.455C22.2248 296.455 22.0302 296.438 21.8512 296.403C21.6751 296.372 21.5344 296.335 21.4293 296.293L21.7873 295.091C22.0117 295.156 22.212 295.188 22.3881 295.185C22.5643 295.182 22.7191 295.126 22.8526 295.018C22.989 294.913 23.104 294.737 23.1978 294.49L23.3299 294.136L20.9563 287.455H22.5927L24.1012 292.398H24.1694L25.6822 287.455H27.3228L24.7021 294.793C24.5799 295.139 24.418 295.436 24.2163 295.683C24.0146 295.933 23.7674 296.124 23.4748 296.254C23.185 296.388 22.8384 296.455 22.435 296.455ZM31.6587 287.455V288.648H27.896V287.455H31.6587ZM28.8249 285.886H30.3675V292.031C30.3675 292.239 30.3988 292.398 30.4613 292.509C30.5266 292.616 30.6119 292.69 30.717 292.73C30.8221 292.77 30.9386 292.79 31.0664 292.79C31.163 292.79 31.2511 292.783 31.3306 292.768C31.413 292.754 31.4755 292.741 31.5181 292.73L31.7781 293.936C31.6957 293.964 31.5778 293.996 31.4244 294.03C31.2738 294.064 31.0891 294.084 30.8704 294.089C30.484 294.101 30.136 294.043 29.8263 293.915C29.5167 293.784 29.271 293.582 29.0891 293.31C28.9102 293.037 28.8221 292.696 28.8249 292.287V285.886ZM38.7955 287.455L36.4645 294H34.7599L32.429 287.455H34.0739L35.5781 292.317H35.6463L37.1548 287.455H38.7955ZM42.4954 294.128C41.8562 294.128 41.3022 293.987 40.8335 293.706C40.3647 293.425 40.0011 293.031 39.7425 292.526C39.4869 292.02 39.359 291.429 39.359 290.753C39.359 290.077 39.4869 289.484 39.7425 288.976C40.0011 288.467 40.3647 288.072 40.8335 287.791C41.3022 287.51 41.8562 287.369 42.4954 287.369C43.1346 287.369 43.6886 287.51 44.1573 287.791C44.6261 288.072 44.9883 288.467 45.244 288.976C45.5025 289.484 45.6317 290.077 45.6317 290.753C45.6317 291.429 45.5025 292.02 45.244 292.526C44.9883 293.031 44.6261 293.425 44.1573 293.706C43.6886 293.987 43.1346 294.128 42.4954 294.128ZM42.5039 292.892C42.8505 292.892 43.1403 292.797 43.3732 292.607C43.6062 292.413 43.7795 292.155 43.8931 291.831C44.0096 291.507 44.0678 291.146 44.0678 290.749C44.0678 290.348 44.0096 289.986 43.8931 289.662C43.7795 289.335 43.6062 289.075 43.3732 288.882C43.1403 288.689 42.8505 288.592 42.5039 288.592C42.1488 288.592 41.8533 288.689 41.6175 288.882C41.3846 289.075 41.2099 289.335 41.0934 289.662C40.9798 289.986 40.9229 290.348 40.9229 290.749C40.9229 291.146 40.9798 291.507 41.0934 291.831C41.2099 292.155 41.3846 292.413 41.6175 292.607C41.8533 292.797 42.1488 292.892 42.5039 292.892ZM46.9411 294V287.455H48.4368V288.545H48.505C48.6243 288.168 48.8288 287.876 49.1186 287.672C49.4112 287.464 49.745 287.361 50.12 287.361C50.2053 287.361 50.3004 287.365 50.4055 287.374C50.5135 287.379 50.603 287.389 50.674 287.403V288.822C50.6087 288.8 50.505 288.78 50.3629 288.763C50.2237 288.743 50.0888 288.733 49.9581 288.733C49.6768 288.733 49.424 288.794 49.1996 288.916C48.978 289.036 48.8033 289.202 48.6754 289.415C48.5476 289.628 48.4837 289.874 48.4837 290.152V294H46.9411ZM47.8956 284.77L48.7607 285.861L49.6257 284.77H50.9766V284.83L49.3658 286.67H48.1598L46.5447 284.83V284.77H47.8956ZM51.6989 294V287.455H53.2415V294H51.6989ZM52.4744 286.526C52.2301 286.526 52.0199 286.445 51.8438 286.283C51.6676 286.118 51.5795 285.92 51.5795 285.69C51.5795 285.457 51.6676 285.26 51.8438 285.098C52.0199 284.933 52.2301 284.851 52.4744 284.851C52.7216 284.851 52.9318 284.933 53.1051 285.098C53.2813 285.26 53.3693 285.457 53.3693 285.69C53.3693 285.92 53.2813 286.118 53.1051 286.283C52.9318 286.445 52.7216 286.526 52.4744 286.526ZM58.0962 287.455V288.648H54.3335V287.455H58.0962ZM55.2624 285.886H56.805V292.031C56.805 292.239 56.8363 292.398 56.8988 292.509C56.9641 292.616 57.0494 292.69 57.1545 292.73C57.2596 292.77 57.3761 292.79 57.5039 292.79C57.6005 292.79 57.6886 292.783 57.7681 292.768C57.8505 292.754 57.913 292.741 57.9556 292.73L58.2156 293.936C58.1332 293.964 58.0153 293.996 57.8619 294.03C57.7113 294.064 57.5266 294.084 57.3079 294.089C56.9215 294.101 56.5735 294.043 56.2638 293.915C55.9542 293.784 55.7085 293.582 55.5266 293.31C55.3477 293.037 55.2596 292.696 55.2624 292.287V285.886ZM66.5348 291.247V287.455H68.0774V294H66.5817V292.837H66.5135C66.3658 293.203 66.1229 293.503 65.7848 293.736C65.4496 293.969 65.0362 294.085 64.5447 294.085C64.1158 294.085 63.7365 293.99 63.407 293.8C63.0803 293.607 62.8246 293.327 62.6399 292.96C62.4553 292.591 62.3629 292.145 62.3629 291.622V287.455H63.9055V291.384C63.9055 291.798 64.0192 292.128 64.2464 292.372C64.4737 292.616 64.772 292.739 65.1413 292.739C65.3686 292.739 65.5888 292.683 65.8018 292.572C66.0149 292.462 66.1896 292.297 66.326 292.078C66.4652 291.857 66.5348 291.58 66.5348 291.247ZM64.6385 286.594L65.593 284.646H67.1016L65.7933 286.594H64.6385ZM72.5188 294.128C71.8654 294.128 71.3043 293.984 70.8356 293.697C70.3697 293.411 70.0103 293.014 69.7575 292.509C69.5075 292 69.3825 291.415 69.3825 290.753C69.3825 290.088 69.5103 289.501 69.766 288.993C70.0217 288.482 70.3825 288.084 70.8484 287.8C71.3171 287.513 71.8711 287.369 72.5103 287.369C73.0415 287.369 73.5117 287.467 73.9208 287.663C74.3327 287.857 74.6609 288.131 74.9052 288.486C75.1495 288.838 75.2887 289.25 75.3228 289.722H73.8484C73.7887 289.406 73.6467 289.143 73.4222 288.933C73.2006 288.72 72.9038 288.614 72.5316 288.614C72.2163 288.614 71.9393 288.699 71.7006 288.869C71.462 289.037 71.2759 289.278 71.1424 289.594C71.0117 289.909 70.9464 290.287 70.9464 290.727C70.9464 291.173 71.0117 291.557 71.1424 291.878C71.2731 292.196 71.4563 292.442 71.6921 292.615C71.9308 292.786 72.2106 292.871 72.5316 292.871C72.7589 292.871 72.962 292.828 73.141 292.743C73.3228 292.655 73.4748 292.528 73.5969 292.364C73.7191 292.199 73.8029 291.999 73.8484 291.763H75.3228C75.2859 292.226 75.1495 292.636 74.9137 292.994C74.6779 293.349 74.3569 293.628 73.9506 293.83C73.5444 294.028 73.0671 294.128 72.5188 294.128ZM71.641 284.77L72.506 285.861L73.3711 284.77H74.7219V284.83L73.1112 286.67H71.9052L70.2901 284.83V284.77H71.641ZM79.4872 294.128C78.831 294.128 78.2642 293.991 77.7869 293.719C77.3125 293.443 76.9474 293.054 76.6918 292.551C76.4361 292.045 76.3082 291.45 76.3082 290.766C76.3082 290.092 76.4361 289.501 76.6918 288.993C76.9503 288.482 77.3111 288.084 77.7741 287.8C78.2372 287.513 78.7812 287.369 79.4062 287.369C79.8097 287.369 80.1903 287.435 80.5483 287.565C80.9091 287.693 81.2273 287.892 81.5028 288.162C81.7813 288.432 82 288.776 82.1591 289.193C82.3182 289.608 82.3977 290.102 82.3977 290.676V291.149H77.0327V290.109H80.919C80.9162 289.814 80.8523 289.551 80.7273 289.321C80.6023 289.088 80.4276 288.905 80.2031 288.771C79.9815 288.638 79.723 288.571 79.4276 288.571C79.1122 288.571 78.8352 288.648 78.5966 288.801C78.358 288.952 78.1719 289.151 78.0384 289.398C77.9077 289.642 77.8409 289.911 77.8381 290.203V291.111C77.8381 291.491 77.9077 291.818 78.0469 292.091C78.1861 292.361 78.3807 292.568 78.6307 292.713C78.8807 292.855 79.1733 292.926 79.5085 292.926C79.733 292.926 79.9361 292.895 80.1179 292.832C80.2997 292.767 80.4574 292.672 80.5909 292.547C80.7244 292.422 80.8253 292.267 80.8935 292.082L82.3338 292.244C82.2429 292.625 82.0696 292.957 81.8139 293.241C81.5611 293.523 81.2372 293.741 80.8423 293.898C80.4474 294.051 79.9957 294.128 79.4872 294.128ZM86.9712 287.455V288.648H83.2085V287.455H86.9712ZM84.1374 285.886H85.68V292.031C85.68 292.239 85.7113 292.398 85.7738 292.509C85.8391 292.616 85.9244 292.69 86.0295 292.73C86.1346 292.77 86.2511 292.79 86.3789 292.79C86.4755 292.79 86.5636 292.783 86.6431 292.768C86.7255 292.754 86.788 292.741 86.8306 292.73L87.0906 293.936C87.0082 293.964 86.8903 293.996 86.7369 294.03C86.5863 294.064 86.4016 294.084 86.1829 294.089C85.7965 294.101 85.4485 294.043 85.1388 293.915C84.8292 293.784 84.5835 293.582 84.4016 293.31C84.2227 293.037 84.1346 292.696 84.1374 292.287V285.886Z" fill="#2E2F30"/>
<path d="M124.699 294V293.016L129.173 286.598H124.673V285.273H131.134V286.257L126.663 292.675H131.159V294H124.699ZM132.621 294V287.455H134.116V288.545H134.185C134.304 288.168 134.509 287.876 134.798 287.672C135.091 287.464 135.425 287.361 135.8 287.361C135.885 287.361 135.98 287.365 136.085 287.374C136.193 287.379 136.283 287.389 136.354 287.403V288.822C136.288 288.8 136.185 288.78 136.043 288.763C135.903 288.743 135.768 288.733 135.638 288.733C135.357 288.733 135.104 288.794 134.879 288.916C134.658 289.036 134.483 289.202 134.355 289.415C134.227 289.628 134.163 289.874 134.163 290.152V294H132.621ZM141.55 291.247V287.455H143.093V294H141.597V292.837H141.529C141.381 293.203 141.138 293.503 140.8 293.736C140.465 293.969 140.052 294.085 139.56 294.085C139.131 294.085 138.752 293.99 138.423 293.8C138.096 293.607 137.84 293.327 137.656 292.96C137.471 292.591 137.379 292.145 137.379 291.622V287.455H138.921V291.384C138.921 291.798 139.035 292.128 139.262 292.372C139.489 292.616 139.788 292.739 140.157 292.739C140.384 292.739 140.604 292.683 140.817 292.572C141.031 292.462 141.205 292.297 141.342 292.078C141.481 291.857 141.55 291.58 141.55 291.247ZM149.853 289.185L148.446 289.338C148.407 289.196 148.337 289.062 148.238 288.938C148.141 288.812 148.01 288.712 147.846 288.635C147.681 288.558 147.479 288.52 147.24 288.52C146.919 288.52 146.65 288.589 146.431 288.729C146.215 288.868 146.108 289.048 146.111 289.27C146.108 289.46 146.178 289.615 146.32 289.734C146.465 289.854 146.703 289.952 147.036 290.028L148.152 290.267C148.772 290.401 149.232 290.612 149.533 290.902C149.837 291.192 149.99 291.571 149.993 292.04C149.99 292.452 149.87 292.815 149.631 293.131C149.395 293.443 149.067 293.687 148.647 293.864C148.226 294.04 147.743 294.128 147.198 294.128C146.397 294.128 145.752 293.96 145.263 293.625C144.775 293.287 144.483 292.817 144.39 292.214L145.894 292.07C145.962 292.365 146.107 292.588 146.328 292.739C146.55 292.889 146.838 292.964 147.194 292.964C147.56 292.964 147.854 292.889 148.076 292.739C148.3 292.588 148.412 292.402 148.412 292.18C148.412 291.993 148.34 291.838 148.195 291.716C148.053 291.594 147.831 291.5 147.53 291.435L146.414 291.2C145.786 291.07 145.321 290.849 145.02 290.54C144.719 290.227 144.57 289.832 144.573 289.355C144.57 288.952 144.679 288.602 144.901 288.307C145.125 288.009 145.436 287.778 145.834 287.616C146.235 287.452 146.696 287.369 147.219 287.369C147.986 287.369 148.59 287.533 149.03 287.859C149.473 288.186 149.748 288.628 149.853 289.185ZM146.384 284.77L147.249 285.861L148.114 284.77H149.465V284.83L147.854 286.67H146.648L145.033 284.83V284.77H146.384ZM151.265 294V287.455H152.808V294H151.265ZM152.041 286.526C151.797 286.526 151.586 286.445 151.41 286.283C151.234 286.118 151.146 285.92 151.146 285.69C151.146 285.457 151.234 285.26 151.41 285.098C151.586 284.933 151.797 284.851 152.041 284.851C152.288 284.851 152.498 284.933 152.672 285.098C152.848 285.26 152.936 285.457 152.936 285.69C152.936 285.92 152.848 286.118 152.672 286.283C152.498 286.445 152.288 286.526 152.041 286.526ZM157.663 287.455V288.648H153.9V287.455H157.663ZM154.829 285.886H156.371V292.031C156.371 292.239 156.403 292.398 156.465 292.509C156.531 292.616 156.616 292.69 156.721 292.73C156.826 292.77 156.942 292.79 157.07 292.79C157.167 292.79 157.255 292.783 157.335 292.768C157.417 292.754 157.479 292.741 157.522 292.73L157.782 293.936C157.7 293.964 157.582 293.996 157.428 294.03C157.278 294.064 157.093 294.084 156.874 294.089C156.488 294.101 156.14 294.043 155.83 293.915C155.521 293.784 155.275 293.582 155.093 293.31C154.914 293.037 154.826 292.696 154.829 292.287V285.886Z" fill="#E01F36"/>
<rect x="113" y="273" width="57" height="34" rx="1" stroke="#E01F36" stroke-width="2"/>
</svg>
