<svg width="268" height="560" viewBox="0 0 268 560" fill="none" xmlns="http://www.w3.org/2000/svg">
<rect y="60" width="268" height="36" rx="2" fill="#EBF2F4"/>
<path d="M4.35085 45.2727H5.66335V51.4602C5.66335 52.0199 5.55256 52.4986 5.33097 52.8963C5.11222 53.294 4.80398 53.598 4.40625 53.8082C4.00852 54.0156 3.54261 54.1193 3.00852 54.1193C2.51705 54.1193 2.07528 54.0298 1.68324 53.8509C1.29403 53.6719 0.985795 53.4119 0.758523 53.071C0.534091 52.7273 0.421875 52.3097 0.421875 51.8182H1.73011C1.73011 52.0597 1.78551 52.2685 1.89631 52.4446C2.00994 52.6207 2.16477 52.7585 2.3608 52.858C2.55966 52.9545 2.78693 53.0028 3.04261 53.0028C3.32102 53.0028 3.55682 52.9446 3.75 52.8281C3.94602 52.7088 4.09517 52.5341 4.19744 52.304C4.29972 52.0739 4.35085 51.7926 4.35085 51.4602V45.2727ZM7.47763 54V47.4545H8.70064V48.5199H8.78161C8.91797 48.1591 9.14098 47.8778 9.45064 47.6761C9.7603 47.4716 10.131 47.3693 10.5629 47.3693C11.0004 47.3693 11.3668 47.4716 11.6623 47.6761C11.9606 47.8807 12.1808 48.1619 12.3228 48.5199H12.391C12.5472 48.1705 12.7958 47.892 13.1367 47.6847C13.4776 47.4744 13.8839 47.3693 14.3555 47.3693C14.9492 47.3693 15.4336 47.5554 15.8086 47.9276C16.1864 48.2997 16.3754 48.8608 16.3754 49.6108V54H15.1012V49.7301C15.1012 49.2869 14.9805 48.9659 14.739 48.767C14.4975 48.5682 14.2092 48.4688 13.8739 48.4688C13.4592 48.4688 13.1367 48.5966 12.9066 48.8523C12.6765 49.1051 12.5614 49.4304 12.5614 49.8281V54H11.2915V49.6491C11.2915 49.294 11.1808 49.0085 10.9592 48.7926C10.7376 48.5767 10.4492 48.4688 10.0941 48.4688C9.85263 48.4688 9.62962 48.5327 9.42507 48.6605C9.22337 48.7855 9.06001 48.9602 8.93501 49.1847C8.81286 49.4091 8.75178 49.669 8.75178 49.9645V54H7.47763ZM20.9041 54.1321C20.2592 54.1321 19.7038 53.9943 19.2379 53.7188C18.7749 53.4403 18.4169 53.0497 18.1641 52.5469C17.9141 52.0412 17.7891 51.4489 17.7891 50.7699C17.7891 50.0994 17.9141 49.5085 18.1641 48.9972C18.4169 48.4858 18.7692 48.0866 19.2209 47.7997C19.6754 47.5128 20.2067 47.3693 20.8146 47.3693C21.1839 47.3693 21.5419 47.4304 21.8885 47.5526C22.2351 47.6747 22.5462 47.8665 22.8217 48.1278C23.0973 48.3892 23.3146 48.7287 23.4737 49.1463C23.6328 49.5611 23.7124 50.0653 23.7124 50.6591V51.1108H18.5092V50.1562H22.4638C22.4638 49.821 22.3956 49.5241 22.2592 49.2656C22.1229 49.0043 21.9311 48.7983 21.6839 48.6477C21.4396 48.4972 21.1527 48.4219 20.8232 48.4219C20.4652 48.4219 20.1527 48.5099 19.8857 48.6861C19.6214 48.8594 19.4169 49.0866 19.272 49.3679C19.13 49.6463 19.0589 49.9489 19.0589 50.2756V51.0213C19.0589 51.4588 19.1357 51.831 19.2891 52.1378C19.4453 52.4446 19.6626 52.679 19.9411 52.8409C20.2195 53 20.5447 53.0795 20.9169 53.0795C21.1584 53.0795 21.3786 53.0455 21.5774 52.9773C21.7763 52.9062 21.9482 52.8011 22.093 52.6619C22.2379 52.5227 22.3487 52.3509 22.4254 52.1463L23.6314 52.3636C23.5348 52.7187 23.3615 53.0298 23.1115 53.2969C22.8643 53.5611 22.5533 53.767 22.1783 53.9148C21.8061 54.0597 21.3814 54.1321 20.9041 54.1321ZM20.2393 46.581L21.2365 44.6165H22.5788L21.2578 46.581H20.2393ZM26.4002 50.1136V54H25.1261V47.4545H26.3491V48.5199H26.43C26.5806 48.1733 26.8164 47.8949 27.1374 47.6847C27.4613 47.4744 27.869 47.3693 28.3604 47.3693C28.8065 47.3693 29.1971 47.4631 29.5323 47.6506C29.8675 47.8352 30.1275 48.1108 30.3121 48.4773C30.4968 48.8437 30.5891 49.2969 30.5891 49.8366V54H29.315V49.9901C29.315 49.5156 29.1914 49.1449 28.9442 48.8778C28.6971 48.608 28.3576 48.473 27.9258 48.473C27.6303 48.473 27.3675 48.5369 27.1374 48.6648C26.9102 48.7926 26.7298 48.9801 26.5962 49.2273C26.4656 49.4716 26.4002 49.767 26.4002 50.1136ZM35.055 54.1321C34.4414 54.1321 33.9059 53.9915 33.4485 53.7102C32.9911 53.429 32.636 53.0355 32.3832 52.5298C32.1303 52.0241 32.0039 51.4332 32.0039 50.7571C32.0039 50.0781 32.1303 49.4844 32.3832 48.9759C32.636 48.4673 32.9911 48.0724 33.4485 47.7912C33.9059 47.5099 34.4414 47.3693 35.055 47.3693C35.6687 47.3693 36.2042 47.5099 36.6616 47.7912C37.119 48.0724 37.4741 48.4673 37.7269 48.9759C37.9798 49.4844 38.1062 50.0781 38.1062 50.7571C38.1062 51.4332 37.9798 52.0241 37.7269 52.5298C37.4741 53.0355 37.119 53.429 36.6616 53.7102C36.2042 53.9915 35.6687 54.1321 35.055 54.1321ZM35.0593 53.0625C35.457 53.0625 35.7866 52.9574 36.0479 52.7472C36.3093 52.5369 36.5025 52.2571 36.6275 51.9077C36.7553 51.5582 36.8192 51.1733 36.8192 50.7528C36.8192 50.3352 36.7553 49.9517 36.6275 49.6023C36.5025 49.25 36.3093 48.9673 36.0479 48.7543C35.7866 48.5412 35.457 48.4347 35.0593 48.4347C34.6587 48.4347 34.3263 48.5412 34.0621 48.7543C33.8008 48.9673 33.6062 49.25 33.4783 49.6023C33.3533 49.9517 33.2908 50.3352 33.2908 50.7528C33.2908 51.1733 33.3533 51.5582 33.4783 51.9077C33.6062 52.2571 33.8008 52.5369 34.0621 52.7472C34.3263 52.9574 34.6587 53.0625 35.0593 53.0625ZM44.609 54.1449C44.1942 54.1449 43.8192 54.0682 43.484 53.9148C43.1488 53.7585 42.8832 53.5327 42.6871 53.2372C42.494 52.9418 42.3974 52.5795 42.3974 52.1506C42.3974 51.7812 42.4684 51.4773 42.6104 51.2386C42.7525 51 42.9442 50.8111 43.1857 50.6719C43.4272 50.5327 43.6971 50.4276 43.9954 50.3565C44.2937 50.2855 44.5977 50.2315 44.9073 50.1946C45.2994 50.1491 45.6175 50.1122 45.8619 50.0838C46.1062 50.0526 46.2837 50.0028 46.3945 49.9347C46.5053 49.8665 46.5607 49.7557 46.5607 49.6023V49.5724C46.5607 49.2003 46.4556 48.9119 46.2454 48.7074C46.038 48.5028 45.7283 48.4006 45.3164 48.4006C44.8874 48.4006 44.5494 48.4957 44.3022 48.6861C44.0579 48.8736 43.8888 49.0824 43.7951 49.3125L42.5977 49.0398C42.7397 48.642 42.9471 48.321 43.2198 48.0767C43.4954 47.8295 43.8121 47.6506 44.1701 47.5398C44.5281 47.4261 44.9045 47.3693 45.2994 47.3693C45.5607 47.3693 45.8377 47.4006 46.1303 47.4631C46.4258 47.5227 46.7013 47.6335 46.957 47.7955C47.2156 47.9574 47.4272 48.1889 47.592 48.4901C47.7567 48.7884 47.8391 49.1761 47.8391 49.6534V54H46.5948V53.1051H46.5437C46.4613 53.2699 46.3377 53.4318 46.1729 53.5909C46.0082 53.75 45.7965 53.8821 45.538 53.9872C45.2795 54.0923 44.9698 54.1449 44.609 54.1449ZM44.886 53.1222C45.2383 53.1222 45.5394 53.0526 45.7894 52.9134C46.0423 52.7741 46.234 52.5923 46.3647 52.3679C46.4982 52.1406 46.565 51.8977 46.565 51.6392V50.7955C46.5195 50.8409 46.4315 50.8835 46.3008 50.9233C46.1729 50.9602 46.0266 50.9929 45.8619 51.0213C45.6971 51.0469 45.5366 51.071 45.3803 51.0938C45.2241 51.1136 45.0934 51.1307 44.9883 51.1449C44.7411 51.1761 44.5153 51.2287 44.3107 51.3026C44.109 51.3764 43.9471 51.483 43.8249 51.6222C43.7056 51.7585 43.646 51.9403 43.646 52.1676C43.646 52.483 43.7624 52.7216 43.9954 52.8835C44.2283 53.0426 44.5252 53.1222 44.886 53.1222ZM52.712 56.4545V47.4545H53.9563V48.5156H54.0629C54.1367 48.3793 54.2433 48.2216 54.3825 48.0426C54.5217 47.8636 54.7148 47.7074 54.962 47.5739C55.2092 47.4375 55.5359 47.3693 55.9421 47.3693C56.4705 47.3693 56.9421 47.5028 57.3569 47.7699C57.7717 48.0369 58.0969 48.4219 58.3327 48.9247C58.5714 49.4276 58.6907 50.0327 58.6907 50.7401C58.6907 51.4474 58.5728 52.054 58.337 52.5597C58.1012 53.0625 57.7773 53.4503 57.3654 53.723C56.9535 53.9929 56.4833 54.1278 55.9549 54.1278C55.5572 54.1278 55.2319 54.0611 54.979 53.9276C54.729 53.794 54.533 53.6378 54.391 53.4588C54.2489 53.2798 54.1396 53.1207 54.0629 52.9815H53.9862V56.4545H52.712ZM53.9606 50.7273C53.9606 51.1875 54.0273 51.5909 54.1609 51.9375C54.2944 52.2841 54.4876 52.5554 54.7404 52.7514C54.9933 52.9446 55.3029 53.0412 55.6694 53.0412C56.0501 53.0412 56.3683 52.9403 56.6239 52.7386C56.8796 52.5341 57.0728 52.2571 57.2035 51.9077C57.337 51.5582 57.4038 51.1648 57.4038 50.7273C57.4038 50.2955 57.3384 49.9077 57.2077 49.5639C57.0799 49.2202 56.8867 48.9489 56.6282 48.75C56.3725 48.5511 56.0529 48.4517 55.6694 48.4517C55.3001 48.4517 54.9876 48.5469 54.7319 48.7372C54.479 48.9276 54.2873 49.1932 54.1566 49.5341C54.0259 49.875 53.9606 50.2727 53.9606 50.7273ZM60.1183 54V47.4545H61.3498V48.4943H61.418C61.5373 48.142 61.7475 47.8651 62.0487 47.6634C62.3526 47.4588 62.6964 47.3565 63.0799 47.3565C63.1594 47.3565 63.2532 47.3594 63.3612 47.3651C63.4719 47.3707 63.5586 47.3778 63.6211 47.3864V48.6051C63.57 48.5909 63.479 48.5753 63.3484 48.5582C63.2177 48.5384 63.087 48.5284 62.9563 48.5284C62.6552 48.5284 62.3867 48.5923 62.1509 48.7202C61.918 48.8452 61.7333 49.0199 61.5969 49.2443C61.4606 49.4659 61.3924 49.7187 61.3924 50.0028V54H60.1183ZM60.9279 44.7997L61.8058 45.9418L62.6793 44.7997H63.8342V44.8636L62.3342 46.6705H61.2731L59.7773 44.8636V44.7997H60.9279ZM64.7237 54V47.4545H65.9979V54H64.7237ZM64.843 46.581L65.8402 44.6165H67.1825L65.8615 46.581H64.843ZM67.712 47.4545H68.9862V54.4261C68.9862 54.8636 68.9066 55.233 68.7475 55.5341C68.5913 55.8352 68.3583 56.0639 68.0487 56.2202C67.7418 56.3764 67.3626 56.4545 66.9109 56.4545C66.8654 56.4545 66.8228 56.4545 66.783 56.4545C66.7404 56.4545 66.6964 56.4531 66.6509 56.4503V55.3551C66.6907 55.3551 66.7262 55.3551 66.7575 55.3551C66.7859 55.3551 66.8185 55.3551 66.8555 55.3551C67.1566 55.3551 67.3739 55.2741 67.5075 55.1122C67.6438 54.9531 67.712 54.7216 67.712 54.4176V47.4545ZM68.3427 46.4446C68.1211 46.4446 67.9308 46.3707 67.7717 46.223C67.6154 46.0724 67.5373 45.8935 67.5373 45.6861C67.5373 45.4759 67.6154 45.2969 67.7717 45.1491C67.9308 44.9986 68.1211 44.9233 68.3427 44.9233C68.5643 44.9233 68.7532 44.9986 68.9094 45.1491C69.0685 45.2969 69.1481 45.4759 69.1481 45.6861C69.1481 45.8935 69.0685 46.0724 68.9094 46.223C68.7532 46.3707 68.5643 46.4446 68.3427 46.4446ZM70.7003 54V47.4545H71.9233V48.5199H72.0043C72.1406 48.1591 72.3636 47.8778 72.6733 47.6761C72.983 47.4716 73.3537 47.3693 73.7855 47.3693C74.223 47.3693 74.5895 47.4716 74.8849 47.6761C75.1832 47.8807 75.4034 48.1619 75.5455 48.5199H75.6136C75.7699 48.1705 76.0185 47.892 76.3594 47.6847C76.7003 47.4744 77.1065 47.3693 77.5781 47.3693C78.1719 47.3693 78.6562 47.5554 79.0312 47.9276C79.4091 48.2997 79.598 48.8608 79.598 49.6108V54H78.3239V49.7301C78.3239 49.2869 78.2031 48.9659 77.9616 48.767C77.7202 48.5682 77.4318 48.4688 77.0966 48.4688C76.6818 48.4688 76.3594 48.5966 76.1293 48.8523C75.8991 49.1051 75.7841 49.4304 75.7841 49.8281V54H74.5142V49.6491C74.5142 49.294 74.4034 49.0085 74.1818 48.7926C73.9602 48.5767 73.6719 48.4688 73.3168 48.4688C73.0753 48.4688 72.8523 48.5327 72.6477 48.6605C72.446 48.7855 72.2827 48.9602 72.1577 49.1847C72.0355 49.4091 71.9744 49.669 71.9744 49.9645V54H70.7003ZM84.1268 54.1321C83.4819 54.1321 82.9265 53.9943 82.4606 53.7188C81.9975 53.4403 81.6396 53.0497 81.3867 52.5469C81.1367 52.0412 81.0117 51.4489 81.0117 50.7699C81.0117 50.0994 81.1367 49.5085 81.3867 48.9972C81.6396 48.4858 81.9918 48.0866 82.4435 47.7997C82.8981 47.5128 83.4293 47.3693 84.0373 47.3693C84.4066 47.3693 84.7646 47.4304 85.1112 47.5526C85.4577 47.6747 85.7688 47.8665 86.0444 48.1278C86.32 48.3892 86.5373 48.7287 86.6964 49.1463C86.8555 49.5611 86.935 50.0653 86.935 50.6591V51.1108H81.7319V50.1562H85.6864C85.6864 49.821 85.6183 49.5241 85.4819 49.2656C85.3455 49.0043 85.1538 48.7983 84.9066 48.6477C84.6623 48.4972 84.3754 48.4219 84.0458 48.4219C83.6879 48.4219 83.3754 48.5099 83.1083 48.6861C82.8441 48.8594 82.6396 49.0866 82.4947 49.3679C82.3526 49.6463 82.2816 49.9489 82.2816 50.2756V51.0213C82.2816 51.4588 82.3583 51.831 82.5117 52.1378C82.668 52.4446 82.8853 52.679 83.1637 52.8409C83.4421 53 83.7674 53.0795 84.1396 53.0795C84.381 53.0795 84.6012 53.0455 84.8001 52.9773C84.9989 52.9062 85.1708 52.8011 85.3157 52.6619C85.4606 52.5227 85.5714 52.3509 85.6481 52.1463L86.854 52.3636C86.7575 52.7187 86.5842 53.0298 86.3342 53.2969C86.087 53.5611 85.7759 53.767 85.4009 53.9148C85.0288 54.0597 84.604 54.1321 84.1268 54.1321ZM89.6229 50.1136V54H88.3487V47.4545H89.5717V48.5199H89.6527C89.8033 48.1733 90.0391 47.8949 90.3601 47.6847C90.6839 47.4744 91.0916 47.3693 91.5831 47.3693C92.0291 47.3693 92.4197 47.4631 92.755 47.6506C93.0902 47.8352 93.3501 48.1108 93.5348 48.4773C93.7195 48.8437 93.8118 49.2969 93.8118 49.8366V54H92.5376V49.9901C92.5376 49.5156 92.4141 49.1449 92.1669 48.8778C91.9197 48.608 91.5803 48.473 91.1484 48.473C90.853 48.473 90.5902 48.5369 90.3601 48.6648C90.1328 48.7926 89.9524 48.9801 89.8189 49.2273C89.6882 49.4716 89.6229 49.767 89.6229 50.1136ZM95.5206 54V47.4545H96.7947V54H95.5206ZM95.6399 46.581L96.6371 44.6165H97.9794L96.6584 46.581H95.6399Z" fill="#2E2F30"/>
<path d="M1.14773 14V2.36364H8.60227V4.13068H3.25568V7.28977H8.09091V9.05682H3.25568V14H1.14773ZM12.8651 14.1761C12.312 14.1761 11.8139 14.0777 11.3707 13.8807C10.9313 13.6799 10.5829 13.3845 10.3253 12.9943C10.0715 12.6042 9.9446 12.1231 9.9446 11.5511C9.9446 11.0587 10.0355 10.6515 10.2173 10.3295C10.3991 10.0076 10.6473 9.75 10.9616 9.55682C11.276 9.36364 11.6302 9.2178 12.0241 9.11932C12.4219 9.01705 12.8329 8.94318 13.2571 8.89773C13.7685 8.8447 14.1832 8.79735 14.5014 8.75568C14.8196 8.71023 15.0507 8.64205 15.1946 8.55114C15.3423 8.45644 15.4162 8.31061 15.4162 8.11364V8.07955C15.4162 7.65152 15.2893 7.32008 15.0355 7.08523C14.7817 6.85038 14.4162 6.73295 13.9389 6.73295C13.4351 6.73295 13.0355 6.8428 12.7401 7.0625C12.4484 7.2822 12.2514 7.54167 12.1491 7.84091L10.2287 7.56818C10.3802 7.03788 10.6302 6.5947 10.9787 6.23864C11.3272 5.87879 11.7533 5.60985 12.2571 5.43182C12.7609 5.25 13.3177 5.15909 13.9276 5.15909C14.348 5.15909 14.7666 5.20833 15.1832 5.30682C15.5999 5.4053 15.9806 5.56818 16.3253 5.79545C16.67 6.01894 16.9465 6.32386 17.1548 6.71023C17.367 7.09659 17.473 7.57955 17.473 8.15909V14H15.4957V12.8011H15.4276C15.3026 13.0436 15.1264 13.2708 14.8991 13.483C14.6757 13.6913 14.3935 13.8598 14.0526 13.9886C13.7154 14.1136 13.3196 14.1761 12.8651 14.1761ZM13.3991 12.6648C13.812 12.6648 14.17 12.5833 14.473 12.4205C14.776 12.2538 15.009 12.0341 15.1719 11.7614C15.3385 11.4886 15.4219 11.1913 15.4219 10.8693V9.84091C15.3575 9.89394 15.2476 9.94318 15.0923 9.98864C14.9408 10.0341 14.7704 10.0739 14.581 10.108C14.3916 10.142 14.2041 10.1723 14.0185 10.1989C13.8329 10.2254 13.6719 10.2481 13.5355 10.267C13.2287 10.3087 12.9541 10.3769 12.7116 10.4716C12.4692 10.5663 12.2779 10.6989 12.1378 10.8693C11.9976 11.036 11.9276 11.2519 11.9276 11.517C11.9276 11.8958 12.0658 12.1818 12.3423 12.375C12.6188 12.5682 12.9711 12.6648 13.3991 12.6648ZM21.4162 11.2614L21.4105 8.77841H21.7401L24.8764 5.27273H27.2798L23.4219 9.56818H22.9957L21.4162 11.2614ZM19.5412 14V2.36364H21.598V14H19.5412ZM25.0185 14L22.1776 10.0284L23.5639 8.57955L27.4787 14H25.0185ZM33.0085 5.27273V6.86364H27.9915V5.27273H33.0085ZM29.2301 3.18182H31.2869V11.375C31.2869 11.6515 31.3286 11.8636 31.4119 12.0114C31.4991 12.1553 31.6127 12.2538 31.7528 12.3068C31.893 12.3598 32.0483 12.3864 32.2188 12.3864C32.3475 12.3864 32.465 12.3769 32.571 12.358C32.6809 12.339 32.7642 12.322 32.821 12.3068L33.1676 13.9148C33.0578 13.9527 32.9006 13.9943 32.696 14.0398C32.4953 14.0852 32.2491 14.1117 31.9574 14.1193C31.4422 14.1345 30.9782 14.0568 30.5653 13.8864C30.1525 13.7121 29.8248 13.4432 29.5824 13.0795C29.3438 12.7159 29.2263 12.2614 29.2301 11.7159V3.18182ZM40.2912 10.3295V5.27273H42.348V14H40.3537V12.4489H40.2628C40.0658 12.9375 39.742 13.3371 39.2912 13.6477C38.8442 13.9583 38.2931 14.1136 37.6378 14.1136C37.0658 14.1136 36.5601 13.9867 36.1207 13.733C35.6851 13.4754 35.3442 13.1023 35.098 12.6136C34.8518 12.1212 34.7287 11.5265 34.7287 10.8295V5.27273H36.7855V10.5114C36.7855 11.0644 36.937 11.5038 37.2401 11.8295C37.5431 12.1553 37.9408 12.3182 38.4332 12.3182C38.7363 12.3182 39.0298 12.2443 39.3139 12.0966C39.598 11.9489 39.831 11.7292 40.0128 11.4375C40.1984 11.142 40.2912 10.7727 40.2912 10.3295ZM44.4631 14V5.27273H46.4574V6.72727H46.5483C46.7074 6.22348 46.9801 5.83523 47.3665 5.5625C47.7566 5.28598 48.2017 5.14773 48.7017 5.14773C48.8153 5.14773 48.9422 5.15341 49.0824 5.16477C49.2263 5.17235 49.3456 5.18561 49.4403 5.20455V7.09659C49.3532 7.06629 49.215 7.03977 49.0256 7.01705C48.84 6.99053 48.66 6.97727 48.4858 6.97727C48.1108 6.97727 47.7737 7.05871 47.4744 7.22159C47.179 7.38068 46.946 7.60227 46.7756 7.88636C46.6051 8.17045 46.5199 8.49811 46.5199 8.86932V14H44.4631ZM53.1619 14.1761C52.6089 14.1761 52.1108 14.0777 51.6676 13.8807C51.2282 13.6799 50.8797 13.3845 50.6222 12.9943C50.3684 12.6042 50.2415 12.1231 50.2415 11.5511C50.2415 11.0587 50.3324 10.6515 50.5142 10.3295C50.696 10.0076 50.9441 9.75 51.2585 9.55682C51.5729 9.36364 51.9271 9.2178 52.321 9.11932C52.7188 9.01705 53.1297 8.94318 53.554 8.89773C54.0653 8.8447 54.4801 8.79735 54.7983 8.75568C55.1165 8.71023 55.3475 8.64205 55.4915 8.55114C55.6392 8.45644 55.7131 8.31061 55.7131 8.11364V8.07955C55.7131 7.65152 55.5862 7.32008 55.3324 7.08523C55.0786 6.85038 54.7131 6.73295 54.2358 6.73295C53.732 6.73295 53.3324 6.8428 53.0369 7.0625C52.7453 7.2822 52.5483 7.54167 52.446 7.84091L50.5256 7.56818C50.6771 7.03788 50.9271 6.5947 51.2756 6.23864C51.6241 5.87879 52.0502 5.60985 52.554 5.43182C53.0578 5.25 53.6146 5.15909 54.2244 5.15909C54.6449 5.15909 55.0634 5.20833 55.4801 5.30682C55.8968 5.4053 56.2775 5.56818 56.6222 5.79545C56.9669 6.01894 57.2434 6.32386 57.4517 6.71023C57.6638 7.09659 57.7699 7.57955 57.7699 8.15909V14H55.7926V12.8011H55.7244C55.5994 13.0436 55.4233 13.2708 55.196 13.483C54.9725 13.6913 54.6903 13.8598 54.3494 13.9886C54.0123 14.1136 53.6165 14.1761 53.1619 14.1761ZM53.696 12.6648C54.1089 12.6648 54.4669 12.5833 54.7699 12.4205C55.0729 12.2538 55.3059 12.0341 55.4688 11.7614C55.6354 11.4886 55.7188 11.1913 55.7188 10.8693V9.84091C55.6544 9.89394 55.5445 9.94318 55.3892 9.98864C55.2377 10.0341 55.0672 10.0739 54.8778 10.108C54.6884 10.142 54.5009 10.1723 54.3153 10.1989C54.1297 10.2254 53.9688 10.2481 53.8324 10.267C53.5256 10.3087 53.2509 10.3769 53.0085 10.4716C52.7661 10.5663 52.5748 10.6989 52.4347 10.8693C52.2945 11.036 52.2244 11.2519 52.2244 11.517C52.2244 11.8958 52.3627 12.1818 52.6392 12.375C52.9157 12.5682 53.268 12.6648 53.696 12.6648ZM63.6449 14.1705C62.7737 14.1705 62.0256 13.9792 61.4006 13.5966C60.7794 13.214 60.3002 12.6856 59.9631 12.0114C59.6297 11.3333 59.4631 10.553 59.4631 9.67045C59.4631 8.78409 59.6335 8.00189 59.9744 7.32386C60.3153 6.64205 60.7964 6.11174 61.4176 5.73295C62.0426 5.35038 62.7813 5.15909 63.6335 5.15909C64.3419 5.15909 64.9688 5.28977 65.5142 5.55114C66.0634 5.80871 66.5009 6.17424 66.8267 6.64773C67.1525 7.11742 67.3381 7.66667 67.3835 8.29545H65.4176C65.3381 7.875 65.1487 7.52462 64.8494 7.24432C64.554 6.96023 64.1581 6.81818 63.6619 6.81818C63.2415 6.81818 62.8722 6.93182 62.554 7.15909C62.2358 7.38258 61.9877 7.70455 61.8097 8.125C61.6354 8.54545 61.5483 9.04924 61.5483 9.63636C61.5483 10.2311 61.6354 10.7424 61.8097 11.1705C61.9839 11.5947 62.2282 11.9223 62.5426 12.1534C62.8608 12.3807 63.2339 12.4943 63.6619 12.4943C63.965 12.4943 64.2358 12.4375 64.4744 12.3239C64.7169 12.2064 64.9195 12.0379 65.0824 11.8182C65.2453 11.5985 65.357 11.3314 65.4176 11.017H67.3835C67.3343 11.6345 67.1525 12.1818 66.8381 12.6591C66.5237 13.1326 66.0956 13.5038 65.554 13.7727C65.0123 14.0379 64.3759 14.1705 63.6449 14.1705ZM62.4744 1.69318L63.6278 3.14773L64.7812 1.69318H66.5824V1.77273L64.4347 4.22727H62.8267L60.6733 1.77273V1.69318H62.4744ZM71.1293 8.88636V14H69.0724V5.27273H71.0384V6.75568H71.1406C71.3414 6.26705 71.6615 5.87879 72.1009 5.59091C72.544 5.30303 73.0914 5.15909 73.7429 5.15909C74.3452 5.15909 74.8698 5.28788 75.3168 5.54545C75.7675 5.80303 76.116 6.17614 76.3622 6.66477C76.6122 7.15341 76.7353 7.74621 76.7315 8.44318V14H74.6747V8.76136C74.6747 8.17803 74.5232 7.72159 74.2202 7.39205C73.9209 7.0625 73.5062 6.89773 72.9759 6.89773C72.616 6.89773 72.2959 6.97727 72.0156 7.13636C71.7391 7.29167 71.5213 7.51705 71.3622 7.8125C71.2069 8.10795 71.1293 8.46591 71.1293 8.88636ZM78.8224 14V5.27273H80.8793V14H78.8224ZM79.0668 4.125L80.3395 1.52841H82.3509L80.6065 4.125H79.0668ZM92.5256 10.3295V5.27273H94.5824V14H92.5881V12.4489H92.4972C92.3002 12.9375 91.9763 13.3371 91.5256 13.6477C91.0786 13.9583 90.5275 14.1136 89.8722 14.1136C89.3002 14.1136 88.7945 13.9867 88.3551 13.733C87.9195 13.4754 87.5786 13.1023 87.3324 12.6136C87.0862 12.1212 86.9631 11.5265 86.9631 10.8295V5.27273H89.0199V10.5114C89.0199 11.0644 89.1714 11.5038 89.4744 11.8295C89.7775 12.1553 90.1752 12.3182 90.6676 12.3182C90.9706 12.3182 91.2642 12.2443 91.5483 12.0966C91.8324 11.9489 92.0653 11.7292 92.2472 11.4375C92.4328 11.142 92.5256 10.7727 92.5256 10.3295ZM89.9972 4.125L91.2699 1.52841H93.2812L91.5369 4.125H89.9972ZM99.9361 14.1534C99.2505 14.1534 98.6368 13.9773 98.0952 13.625C97.5535 13.2727 97.1255 12.7614 96.8111 12.0909C96.4967 11.4205 96.3395 10.6061 96.3395 9.64773C96.3395 8.67803 96.4986 7.85985 96.8168 7.19318C97.1387 6.52273 97.5724 6.01705 98.1179 5.67614C98.6634 5.33144 99.2713 5.15909 99.9418 5.15909C100.453 5.15909 100.874 5.24621 101.203 5.42045C101.533 5.59091 101.794 5.79735 101.987 6.03977C102.18 6.27841 102.33 6.50379 102.436 6.71591H102.521V2.36364H104.584V14H102.561V12.625H102.436C102.33 12.8371 102.177 13.0625 101.976 13.3011C101.775 13.536 101.51 13.7367 101.18 13.9034C100.851 14.0701 100.436 14.1534 99.9361 14.1534ZM100.51 12.4659C100.946 12.4659 101.317 12.3485 101.624 12.1136C101.93 11.875 102.163 11.5436 102.322 11.1193C102.482 10.6951 102.561 10.2008 102.561 9.63636C102.561 9.07197 102.482 8.58144 102.322 8.16477C102.167 7.74811 101.936 7.42424 101.629 7.19318C101.326 6.96212 100.953 6.84659 100.51 6.84659C100.052 6.84659 99.669 6.96591 99.3622 7.20455C99.0554 7.44318 98.8243 7.77273 98.669 8.19318C98.5137 8.61364 98.4361 9.0947 98.4361 9.63636C98.4361 10.1818 98.5137 10.6686 98.669 11.0966C98.8281 11.5208 99.0611 11.8561 99.3679 12.1023C99.6785 12.3447 100.059 12.4659 100.51 12.4659ZM109.287 14.1761C108.734 14.1761 108.236 14.0777 107.793 13.8807C107.353 13.6799 107.005 13.3845 106.747 12.9943C106.493 12.6042 106.366 12.1231 106.366 11.5511C106.366 11.0587 106.457 10.6515 106.639 10.3295C106.821 10.0076 107.069 9.75 107.384 9.55682C107.698 9.36364 108.052 9.2178 108.446 9.11932C108.844 9.01705 109.255 8.94318 109.679 8.89773C110.19 8.8447 110.605 8.79735 110.923 8.75568C111.241 8.71023 111.473 8.64205 111.616 8.55114C111.764 8.45644 111.838 8.31061 111.838 8.11364V8.07955C111.838 7.65152 111.711 7.32008 111.457 7.08523C111.204 6.85038 110.838 6.73295 110.361 6.73295C109.857 6.73295 109.457 6.8428 109.162 7.0625C108.87 7.2822 108.673 7.54167 108.571 7.84091L106.651 7.56818C106.802 7.03788 107.052 6.5947 107.401 6.23864C107.749 5.87879 108.175 5.60985 108.679 5.43182C109.183 5.25 109.74 5.15909 110.349 5.15909C110.77 5.15909 111.188 5.20833 111.605 5.30682C112.022 5.4053 112.402 5.56818 112.747 5.79545C113.092 6.01894 113.368 6.32386 113.577 6.71023C113.789 7.09659 113.895 7.57955 113.895 8.15909V14H111.918V12.8011H111.849C111.724 13.0436 111.548 13.2708 111.321 13.483C111.098 13.6913 110.815 13.8598 110.474 13.9886C110.137 14.1136 109.741 14.1761 109.287 14.1761ZM109.821 12.6648C110.234 12.6648 110.592 12.5833 110.895 12.4205C111.198 12.2538 111.431 12.0341 111.594 11.7614C111.76 11.4886 111.844 11.1913 111.844 10.8693V9.84091C111.779 9.89394 111.67 9.94318 111.514 9.98864C111.363 10.0341 111.192 10.0739 111.003 10.108C110.813 10.142 110.626 10.1723 110.44 10.1989C110.255 10.2254 110.094 10.2481 109.957 10.267C109.651 10.3087 109.376 10.3769 109.134 10.4716C108.891 10.5663 108.7 10.6989 108.56 10.8693C108.42 11.036 108.349 11.2519 108.349 11.517C108.349 11.8958 108.488 12.1818 108.764 12.375C109.041 12.5682 109.393 12.6648 109.821 12.6648ZM115.963 5.27273H118.02V14.5C118.02 15.1288 117.901 15.6477 117.662 16.0568C117.423 16.4659 117.079 16.7708 116.628 16.9716C116.177 17.1723 115.63 17.2727 114.986 17.2727C114.91 17.2727 114.84 17.2708 114.776 17.267C114.711 17.267 114.641 17.2652 114.565 17.2614V15.5852C114.622 15.589 114.673 15.5909 114.719 15.5909C114.764 15.5947 114.812 15.5966 114.861 15.5966C115.255 15.5966 115.537 15.5 115.707 15.3068C115.878 15.1174 115.963 14.839 115.963 14.4716V5.27273ZM116.986 4.03409C116.656 4.03409 116.374 3.92614 116.139 3.71023C115.908 3.49053 115.793 3.22727 115.793 2.92045C115.793 2.60985 115.908 2.34659 116.139 2.13068C116.374 1.91098 116.656 1.80114 116.986 1.80114C117.312 1.80114 117.59 1.91098 117.821 2.13068C118.056 2.34659 118.173 2.60985 118.173 2.92045C118.173 3.22727 118.056 3.49053 117.821 3.71023C117.59 3.92614 117.312 4.03409 116.986 4.03409ZM123.999 14.1705C123.124 14.1705 122.368 13.9886 121.732 13.625C121.099 13.2576 120.612 12.7386 120.271 12.0682C119.93 11.3939 119.76 10.6004 119.76 9.6875C119.76 8.78977 119.93 8.00189 120.271 7.32386C120.616 6.64205 121.097 6.11174 121.714 5.73295C122.332 5.35038 123.057 5.15909 123.891 5.15909C124.429 5.15909 124.936 5.24621 125.413 5.42045C125.894 5.59091 126.319 5.85606 126.686 6.21591C127.057 6.57576 127.349 7.03409 127.561 7.59091C127.773 8.14394 127.879 8.80303 127.879 9.56818V10.1989H120.726V8.8125H125.908C125.904 8.41856 125.819 8.06818 125.652 7.76136C125.485 7.45076 125.252 7.20644 124.953 7.02841C124.658 6.85038 124.313 6.76136 123.919 6.76136C123.499 6.76136 123.129 6.86364 122.811 7.06818C122.493 7.26894 122.245 7.53409 122.067 7.86364C121.893 8.18939 121.804 8.54735 121.8 8.9375V10.1477C121.8 10.6553 121.893 11.0909 122.078 11.4545C122.264 11.8144 122.523 12.0909 122.857 12.2841C123.19 12.4735 123.58 12.5682 124.027 12.5682C124.326 12.5682 124.597 12.5265 124.839 12.4432C125.082 12.3561 125.292 12.2292 125.47 12.0625C125.648 11.8958 125.783 11.6894 125.874 11.4432L127.794 11.6591C127.673 12.1667 127.442 12.6098 127.101 12.9886C126.764 13.3636 126.332 13.6553 125.805 13.8636C125.279 14.0682 124.677 14.1705 123.999 14.1705Z" fill="#596063" fill-opacity="0.75"/>
<rect y="128" width="268" height="36" rx="2" fill="#EBF2F4"/>
<path d="M1.69602 122H0.298295L3.43892 113.273H4.96023L8.10085 122H6.70312L4.2358 114.858H4.16761L1.69602 122ZM1.9304 118.582H6.46449V119.69H1.9304V118.582ZM11.6037 122.128C11.0753 122.128 10.6037 121.993 10.1889 121.723C9.77699 121.45 9.45313 121.062 9.21733 120.56C8.98438 120.054 8.8679 119.447 8.8679 118.74C8.8679 118.033 8.9858 117.428 9.22159 116.925C9.46023 116.422 9.78693 116.037 10.2017 115.77C10.6165 115.503 11.0866 115.369 11.6122 115.369C12.0185 115.369 12.3452 115.438 12.5923 115.574C12.8423 115.707 13.0355 115.864 13.1719 116.043C13.3111 116.222 13.419 116.379 13.4957 116.516H13.5724V113.273H14.8466V122H13.6023V120.982H13.4957C13.419 121.121 13.3082 121.28 13.1634 121.459C13.0213 121.638 12.8253 121.794 12.5753 121.928C12.3253 122.061 12.0014 122.128 11.6037 122.128ZM11.8849 121.041C12.2514 121.041 12.5611 120.945 12.8139 120.751C13.0696 120.555 13.2628 120.284 13.3935 119.938C13.527 119.591 13.5938 119.187 13.5938 118.727C13.5938 118.273 13.5284 117.875 13.3977 117.534C13.267 117.193 13.0753 116.928 12.8224 116.737C12.5696 116.547 12.2571 116.452 11.8849 116.452C11.5014 116.452 11.1818 116.551 10.9261 116.75C10.6705 116.949 10.4773 117.22 10.3466 117.564C10.2188 117.908 10.1548 118.295 10.1548 118.727C10.1548 119.165 10.2202 119.558 10.3509 119.908C10.4815 120.257 10.6747 120.534 10.9304 120.739C11.1889 120.94 11.5071 121.041 11.8849 121.041ZM16.6651 122V115.455H17.8967V116.494H17.9648C18.0842 116.142 18.2944 115.865 18.5955 115.663C18.8995 115.459 19.2433 115.357 19.6268 115.357C19.7063 115.357 19.8001 115.359 19.908 115.365C20.0188 115.371 20.1055 115.378 20.168 115.386V116.605C20.1168 116.591 20.0259 116.575 19.8952 116.558C19.7646 116.538 19.6339 116.528 19.5032 116.528C19.2021 116.528 18.9336 116.592 18.6978 116.72C18.4648 116.845 18.2802 117.02 18.1438 117.244C18.0075 117.466 17.9393 117.719 17.9393 118.003V122H16.6651ZM23.8572 122.132C23.2124 122.132 22.657 121.994 22.1911 121.719C21.728 121.44 21.37 121.05 21.1172 120.547C20.8672 120.041 20.7422 119.449 20.7422 118.77C20.7422 118.099 20.8672 117.509 21.1172 116.997C21.37 116.486 21.7223 116.087 22.174 115.8C22.6286 115.513 23.1598 115.369 23.7678 115.369C24.1371 115.369 24.495 115.43 24.8416 115.553C25.1882 115.675 25.4993 115.866 25.7749 116.128C26.0504 116.389 26.2678 116.729 26.4268 117.146C26.5859 117.561 26.6655 118.065 26.6655 118.659V119.111H21.4624V118.156H25.4169C25.4169 117.821 25.3487 117.524 25.2124 117.266C25.076 117.004 24.8842 116.798 24.6371 116.648C24.3928 116.497 24.1058 116.422 23.7763 116.422C23.4183 116.422 23.1058 116.51 22.8388 116.686C22.5746 116.859 22.37 117.087 22.2251 117.368C22.0831 117.646 22.0121 117.949 22.0121 118.276V119.021C22.0121 119.459 22.0888 119.831 22.2422 120.138C22.3984 120.445 22.6158 120.679 22.8942 120.841C23.1726 121 23.4979 121.08 23.87 121.08C24.1115 121.08 24.3317 121.045 24.5305 120.977C24.7294 120.906 24.9013 120.801 25.0462 120.662C25.1911 120.523 25.3018 120.351 25.3786 120.146L26.5845 120.364C26.4879 120.719 26.3146 121.03 26.0646 121.297C25.8175 121.561 25.5064 121.767 25.1314 121.915C24.7592 122.06 24.3345 122.132 23.8572 122.132ZM32.984 117.053L31.8292 117.257C31.7809 117.109 31.7042 116.969 31.5991 116.835C31.4968 116.702 31.3576 116.592 31.1815 116.507C31.0053 116.422 30.7852 116.379 30.521 116.379C30.1602 116.379 29.859 116.46 29.6175 116.622C29.3761 116.781 29.2553 116.987 29.2553 117.24C29.2553 117.459 29.3363 117.635 29.4982 117.768C29.6602 117.902 29.9215 118.011 30.2823 118.097L31.3221 118.335C31.9244 118.474 32.3732 118.689 32.6687 118.979C32.9641 119.268 33.1119 119.645 33.1119 120.108C33.1119 120.5 32.9982 120.849 32.771 121.156C32.5465 121.46 32.2326 121.699 31.8292 121.872C31.4286 122.045 30.9641 122.132 30.4357 122.132C29.7028 122.132 29.1048 121.976 28.6417 121.663C28.1786 121.348 27.8945 120.901 27.7894 120.321L29.021 120.134C29.0977 120.455 29.2553 120.697 29.494 120.862C29.7326 121.024 30.0437 121.105 30.4272 121.105C30.8448 121.105 31.1786 121.018 31.4286 120.845C31.6786 120.669 31.8036 120.455 31.8036 120.202C31.8036 119.997 31.7269 119.825 31.5735 119.686C31.4229 119.547 31.1914 119.442 30.8789 119.371L29.771 119.128C29.1602 118.989 28.7085 118.767 28.4158 118.463C28.1261 118.159 27.9812 117.774 27.9812 117.308C27.9812 116.922 28.0891 116.584 28.305 116.294C28.521 116.004 28.8192 115.778 29.1999 115.616C29.5806 115.452 30.0167 115.369 30.5082 115.369C31.2156 115.369 31.7724 115.523 32.1786 115.83C32.5849 116.134 32.8533 116.541 32.984 117.053ZM36.4176 122.145C36.0028 122.145 35.6278 122.068 35.2926 121.915C34.9574 121.759 34.6918 121.533 34.4957 121.237C34.3026 120.942 34.206 120.58 34.206 120.151C34.206 119.781 34.277 119.477 34.419 119.239C34.5611 119 34.7528 118.811 34.9943 118.672C35.2358 118.533 35.5057 118.428 35.804 118.357C36.1023 118.286 36.4063 118.232 36.7159 118.195C37.108 118.149 37.4261 118.112 37.6705 118.084C37.9148 118.053 38.0923 118.003 38.2031 117.935C38.3139 117.866 38.3693 117.756 38.3693 117.602V117.572C38.3693 117.2 38.2642 116.912 38.054 116.707C37.8466 116.503 37.5369 116.401 37.125 116.401C36.696 116.401 36.358 116.496 36.1108 116.686C35.8665 116.874 35.6974 117.082 35.6037 117.312L34.4062 117.04C34.5483 116.642 34.7557 116.321 35.0284 116.077C35.304 115.83 35.6207 115.651 35.9787 115.54C36.3366 115.426 36.7131 115.369 37.108 115.369C37.3693 115.369 37.6463 115.401 37.9389 115.463C38.2344 115.523 38.5099 115.634 38.7656 115.795C39.0241 115.957 39.2358 116.189 39.4006 116.49C39.5653 116.788 39.6477 117.176 39.6477 117.653V122H38.4034V121.105H38.3523C38.2699 121.27 38.1463 121.432 37.9815 121.591C37.8168 121.75 37.6051 121.882 37.3466 121.987C37.0881 122.092 36.7784 122.145 36.4176 122.145ZM36.6946 121.122C37.0469 121.122 37.348 121.053 37.598 120.913C37.8509 120.774 38.0426 120.592 38.1733 120.368C38.3068 120.141 38.3736 119.898 38.3736 119.639V118.795C38.3281 118.841 38.2401 118.884 38.1094 118.923C37.9815 118.96 37.8352 118.993 37.6705 119.021C37.5057 119.047 37.3452 119.071 37.1889 119.094C37.0327 119.114 36.902 119.131 36.7969 119.145C36.5497 119.176 36.3239 119.229 36.1193 119.303C35.9176 119.376 35.7557 119.483 35.6335 119.622C35.5142 119.759 35.4545 119.94 35.4545 120.168C35.4545 120.483 35.571 120.722 35.804 120.884C36.0369 121.043 36.3338 121.122 36.6946 121.122Z" fill="#2E2F30"/>
<rect y="196" width="268" height="36" rx="2" fill="#EBF2F4"/>
<path d="M0.958807 181.273H2.55682L5.33523 188.057H5.4375L8.21591 181.273H9.81392V190H8.56108V183.685H8.48011L5.90625 189.987H4.86648L2.29261 183.68H2.21165V190H0.958807V181.273ZM14.4471 190.132C13.8022 190.132 13.2468 189.994 12.7809 189.719C12.3178 189.44 11.9599 189.05 11.707 188.547C11.457 188.041 11.332 187.449 11.332 186.77C11.332 186.099 11.457 185.509 11.707 184.997C11.9599 184.486 12.3121 184.087 12.7638 183.8C13.2184 183.513 13.7496 183.369 14.3576 183.369C14.7269 183.369 15.0849 183.43 15.4315 183.553C15.7781 183.675 16.0891 183.866 16.3647 184.128C16.6403 184.389 16.8576 184.729 17.0167 185.146C17.1758 185.561 17.2553 186.065 17.2553 186.659V187.111H12.0522V186.156H16.0067C16.0067 185.821 15.9386 185.524 15.8022 185.266C15.6658 185.004 15.4741 184.798 15.2269 184.648C14.9826 184.497 14.6957 184.422 14.3661 184.422C14.0082 184.422 13.6957 184.51 13.4286 184.686C13.1644 184.859 12.9599 185.087 12.815 185.368C12.6729 185.646 12.6019 185.949 12.6019 186.276V187.021C12.6019 187.459 12.6786 187.831 12.832 188.138C12.9883 188.445 13.2056 188.679 13.484 188.841C13.7624 189 14.0877 189.08 14.4599 189.08C14.7013 189.08 14.9215 189.045 15.1204 188.977C15.3192 188.906 15.4911 188.801 15.636 188.662C15.7809 188.523 15.8917 188.351 15.9684 188.146L17.1744 188.364C17.0778 188.719 16.9045 189.03 16.6545 189.297C16.4073 189.561 16.0962 189.767 15.7212 189.915C15.3491 190.06 14.9244 190.132 14.4471 190.132ZM13.4329 180.8L14.3107 181.942L15.1843 180.8H16.3391V180.864L14.8391 182.67H13.7781L12.2823 180.864V180.8H13.4329ZM23.5739 185.053L22.419 185.257C22.3707 185.109 22.294 184.969 22.1889 184.835C22.0866 184.702 21.9474 184.592 21.7713 184.507C21.5952 184.422 21.375 184.379 21.1108 184.379C20.75 184.379 20.4489 184.46 20.2074 184.622C19.9659 184.781 19.8452 184.987 19.8452 185.24C19.8452 185.459 19.9261 185.635 20.0881 185.768C20.25 185.902 20.5114 186.011 20.8722 186.097L21.9119 186.335C22.5142 186.474 22.9631 186.689 23.2585 186.979C23.554 187.268 23.7017 187.645 23.7017 188.108C23.7017 188.5 23.5881 188.849 23.3608 189.156C23.1364 189.46 22.8224 189.699 22.419 189.872C22.0185 190.045 21.554 190.132 21.0256 190.132C20.2926 190.132 19.6946 189.976 19.2315 189.663C18.7685 189.348 18.4844 188.901 18.3793 188.321L19.6108 188.134C19.6875 188.455 19.8452 188.697 20.0838 188.862C20.3224 189.024 20.6335 189.105 21.017 189.105C21.4347 189.105 21.7685 189.018 22.0185 188.845C22.2685 188.669 22.3935 188.455 22.3935 188.202C22.3935 187.997 22.3168 187.825 22.1634 187.686C22.0128 187.547 21.7812 187.442 21.4688 187.371L20.3608 187.128C19.75 186.989 19.2983 186.767 19.0057 186.463C18.7159 186.159 18.571 185.774 18.571 185.308C18.571 184.922 18.679 184.584 18.8949 184.294C19.1108 184.004 19.4091 183.778 19.7898 183.616C20.1705 183.452 20.6065 183.369 21.098 183.369C21.8054 183.369 22.3622 183.523 22.7685 183.83C23.1747 184.134 23.4432 184.541 23.5739 185.053ZM28.158 183.455V184.477H24.5827V183.455H28.158ZM25.5415 181.886H26.8157V188.078C26.8157 188.325 26.8526 188.511 26.9265 188.636C27.0004 188.759 27.0955 188.842 27.212 188.888C27.3313 188.93 27.4606 188.952 27.5998 188.952C27.7021 188.952 27.7915 188.945 27.8683 188.93C27.945 188.916 28.0046 188.905 28.0472 188.896L28.2773 189.949C28.2035 189.977 28.0984 190.006 27.962 190.034C27.8256 190.065 27.6552 190.082 27.4506 190.085C27.1154 190.091 26.8029 190.031 26.5131 189.906C26.2234 189.781 25.989 189.588 25.81 189.327C25.631 189.065 25.5415 188.737 25.5415 188.342V181.886ZM32.2543 190.132C31.6406 190.132 31.1051 189.991 30.6477 189.71C30.1903 189.429 29.8352 189.036 29.5824 188.53C29.3295 188.024 29.2031 187.433 29.2031 186.757C29.2031 186.078 29.3295 185.484 29.5824 184.976C29.8352 184.467 30.1903 184.072 30.6477 183.791C31.1051 183.51 31.6406 183.369 32.2543 183.369C32.8679 183.369 33.4034 183.51 33.8608 183.791C34.3182 184.072 34.6733 184.467 34.9261 184.976C35.179 185.484 35.3054 186.078 35.3054 186.757C35.3054 187.433 35.179 188.024 34.9261 188.53C34.6733 189.036 34.3182 189.429 33.8608 189.71C33.4034 189.991 32.8679 190.132 32.2543 190.132ZM32.2585 189.062C32.6563 189.062 32.9858 188.957 33.2472 188.747C33.5085 188.537 33.7017 188.257 33.8267 187.908C33.9545 187.558 34.0185 187.173 34.0185 186.753C34.0185 186.335 33.9545 185.952 33.8267 185.602C33.7017 185.25 33.5085 184.967 33.2472 184.754C32.9858 184.541 32.6563 184.435 32.2585 184.435C31.858 184.435 31.5256 184.541 31.2614 184.754C31 184.967 30.8054 185.25 30.6776 185.602C30.5526 185.952 30.4901 186.335 30.4901 186.753C30.4901 187.173 30.5526 187.558 30.6776 187.908C30.8054 188.257 31 188.537 31.2614 188.747C31.5256 188.957 31.858 189.062 32.2585 189.062Z" fill="#2E2F30"/>
<rect y="264" width="268" height="36" rx="2" fill="#EBF2F4"/>
<path d="M0.958807 258V249.273H4.0696C4.74858 249.273 5.31108 249.396 5.7571 249.643C6.20313 249.891 6.53693 250.229 6.75852 250.658C6.98011 251.084 7.09091 251.564 7.09091 252.098C7.09091 252.635 6.97869 253.118 6.75426 253.547C6.53267 253.973 6.19744 254.311 5.74858 254.561C5.30256 254.808 4.74148 254.932 4.06534 254.932H1.92614V253.815H3.94602C4.375 253.815 4.72301 253.741 4.99006 253.594C5.2571 253.443 5.45312 253.239 5.57812 252.98C5.70312 252.722 5.76562 252.428 5.76562 252.098C5.76562 251.768 5.70312 251.476 5.57812 251.22C5.45312 250.964 5.25568 250.764 4.9858 250.619C4.71875 250.474 4.36648 250.402 3.92898 250.402H2.27557V258H0.958807ZM13.3945 251.565C13.3491 251.162 13.1616 250.849 12.832 250.628C12.5025 250.403 12.0877 250.291 11.5877 250.291C11.2298 250.291 10.9201 250.348 10.6587 250.462C10.3974 250.572 10.1942 250.726 10.0494 250.922C9.90732 251.115 9.83629 251.335 9.83629 251.582C9.83629 251.79 9.88459 251.969 9.98118 252.119C10.0806 252.27 10.2099 252.396 10.369 252.499C10.5309 252.598 10.7042 252.682 10.8888 252.75C11.0735 252.815 11.2511 252.869 11.4215 252.912L12.2738 253.134C12.5522 253.202 12.8377 253.294 13.1303 253.411C13.4229 253.527 13.6942 253.68 13.9442 253.871C14.1942 254.061 14.396 254.297 14.5494 254.578C14.7056 254.859 14.7837 255.196 14.7837 255.588C14.7837 256.082 14.6559 256.521 14.4002 256.905C14.1474 257.288 13.7795 257.591 13.2965 257.812C12.8164 258.034 12.2354 258.145 11.5536 258.145C10.9002 258.145 10.3349 258.041 9.8576 257.834C9.38033 257.626 9.00675 257.332 8.73686 256.952C8.46697 256.568 8.31783 256.114 8.28942 255.588H9.61044C9.63601 255.903 9.73828 256.166 9.91726 256.376C10.0991 256.584 10.3306 256.739 10.6119 256.841C10.896 256.94 11.207 256.99 11.5451 256.99C11.9173 256.99 12.2482 256.932 12.538 256.815C12.8306 256.696 13.0607 256.531 13.2283 256.321C13.396 256.108 13.4798 255.859 13.4798 255.575C13.4798 255.317 13.4059 255.105 13.2582 254.94C13.1133 254.776 12.9158 254.639 12.6658 254.531C12.4187 254.423 12.1388 254.328 11.8263 254.246L10.7951 253.964C10.0962 253.774 9.54226 253.494 9.13317 253.125C8.72692 252.756 8.52379 252.267 8.52379 251.659C8.52379 251.156 8.66016 250.717 8.93288 250.342C9.20561 249.967 9.57493 249.676 10.0408 249.469C10.5067 249.259 11.0323 249.153 11.6175 249.153C12.2085 249.153 12.7298 249.257 13.1815 249.464C13.636 249.672 13.994 249.957 14.2553 250.321C14.5167 250.682 14.6531 251.097 14.6644 251.565H13.3945ZM23.6058 252.111H22.2763C22.2251 251.827 22.13 251.577 21.9908 251.361C21.8516 251.145 21.6811 250.962 21.4794 250.811C21.2777 250.661 21.0518 250.547 20.8018 250.47C20.5547 250.393 20.2919 250.355 20.0135 250.355C19.5107 250.355 19.0604 250.482 18.6626 250.734C18.2678 250.987 17.9553 251.358 17.7251 251.847C17.4979 252.335 17.3842 252.932 17.3842 253.636C17.3842 254.347 17.4979 254.946 17.7251 255.435C17.9553 255.923 18.2692 256.293 18.6669 256.543C19.0646 256.793 19.5121 256.918 20.0092 256.918C20.2848 256.918 20.5462 256.881 20.7933 256.807C21.0433 256.73 21.2692 256.618 21.4709 256.47C21.6726 256.322 21.843 256.142 21.9822 255.929C22.1243 255.713 22.2223 255.466 22.2763 255.188L23.6058 255.192C23.5348 255.621 23.397 256.016 23.1925 256.376C22.9908 256.734 22.7308 257.044 22.4126 257.305C22.0973 257.564 21.7365 257.764 21.3303 257.906C20.924 258.048 20.4808 258.119 20.0007 258.119C19.245 258.119 18.5717 257.94 17.9808 257.582C17.3899 257.222 16.924 256.706 16.5831 256.036C16.245 255.365 16.076 254.565 16.076 253.636C16.076 252.705 16.2464 251.905 16.5874 251.237C16.9283 250.567 17.3942 250.053 17.9851 249.695C18.576 249.334 19.2479 249.153 20.0007 249.153C20.4638 249.153 20.8956 249.22 21.2962 249.354C21.6996 249.484 22.0618 249.678 22.3828 249.933C22.7038 250.186 22.9695 250.496 23.1797 250.862C23.3899 251.226 23.532 251.642 23.6058 252.111ZM19.1229 246.618L20.0007 247.76L20.8743 246.618H22.0291V246.682L20.5291 248.489H19.468L17.9723 246.682V246.618H19.1229Z" fill="#2E2F30"/>
<rect y="24" width="268" height="1" fill="#A2ACAF" fill-opacity="0.75"/>
<rect y="388" width="268" height="36" rx="2" fill="#EBF2F4"/>
<path d="M0.958807 382V373.273H2.27557V377.44H2.3821L6.04261 373.273H7.70028L4.1804 377.202L7.71307 382H6.12784L3.30682 378.101L2.27557 379.286V382H0.958807ZM8.82528 382V375.455H10.0568V376.494H10.125C10.2443 376.142 10.4545 375.865 10.7557 375.663C11.0597 375.459 11.4034 375.357 11.7869 375.357C11.8665 375.357 11.9602 375.359 12.0682 375.365C12.179 375.371 12.2656 375.378 12.3281 375.386V376.605C12.277 376.591 12.1861 376.575 12.0554 376.558C11.9247 376.538 11.794 376.528 11.6634 376.528C11.3622 376.528 11.0938 376.592 10.858 376.72C10.625 376.845 10.4403 377.02 10.304 377.244C10.1676 377.466 10.0994 377.719 10.0994 378.003V382H8.82528ZM16.0174 382.132C15.3725 382.132 14.8171 381.994 14.3512 381.719C13.8881 381.44 13.5302 381.05 13.2773 380.547C13.0273 380.041 12.9023 379.449 12.9023 378.77C12.9023 378.099 13.0273 377.509 13.2773 376.997C13.5302 376.486 13.8825 376.087 14.3342 375.8C14.7887 375.513 15.32 375.369 15.9279 375.369C16.2972 375.369 16.6552 375.43 17.0018 375.553C17.3484 375.675 17.6594 375.866 17.935 376.128C18.2106 376.389 18.4279 376.729 18.587 377.146C18.7461 377.561 18.8256 378.065 18.8256 378.659V379.111H13.6225V378.156H17.5771C17.5771 377.821 17.5089 377.524 17.3725 377.266C17.2362 377.004 17.0444 376.798 16.7972 376.648C16.5529 376.497 16.266 376.422 15.9364 376.422C15.5785 376.422 15.266 376.51 14.9989 376.686C14.7347 376.859 14.5302 377.087 14.3853 377.368C14.2433 377.646 14.1722 377.949 14.1722 378.276V379.021C14.1722 379.459 14.2489 379.831 14.4023 380.138C14.5586 380.445 14.7759 380.679 15.0543 380.841C15.3327 381 15.658 381.08 16.0302 381.08C16.2717 381.08 16.4918 381.045 16.6907 380.977C16.8896 380.906 17.0614 380.801 17.2063 380.662C17.3512 380.523 17.462 380.351 17.5387 380.146L18.7447 380.364C18.6481 380.719 18.4748 381.03 18.2248 381.297C17.9776 381.561 17.6665 381.767 17.2915 381.915C16.9194 382.06 16.4947 382.132 16.0174 382.132ZM22.6896 382.128C22.1612 382.128 21.6896 381.993 21.2749 381.723C20.8629 381.45 20.5391 381.062 20.3033 380.56C20.0703 380.054 19.9538 379.447 19.9538 378.74C19.9538 378.033 20.0717 377.428 20.3075 376.925C20.5462 376.422 20.8729 376.037 21.2876 375.77C21.7024 375.503 22.1726 375.369 22.6982 375.369C23.1044 375.369 23.4311 375.438 23.6783 375.574C23.9283 375.707 24.1214 375.864 24.2578 376.043C24.397 376.222 24.505 376.379 24.5817 376.516H24.6584V373.273H25.9325V382H24.6882V380.982H24.5817C24.505 381.121 24.3942 381.28 24.2493 381.459C24.1072 381.638 23.9112 381.794 23.6612 381.928C23.4112 382.061 23.0874 382.128 22.6896 382.128ZM22.9709 381.041C23.3374 381.041 23.647 380.945 23.8999 380.751C24.1555 380.555 24.3487 380.284 24.4794 379.938C24.6129 379.591 24.6797 379.187 24.6797 378.727C24.6797 378.273 24.6143 377.875 24.4837 377.534C24.353 377.193 24.1612 376.928 23.9084 376.737C23.6555 376.547 23.343 376.452 22.9709 376.452C22.5874 376.452 22.2678 376.551 22.0121 376.75C21.7564 376.949 21.5632 377.22 21.4325 377.564C21.3047 377.908 21.2408 378.295 21.2408 378.727C21.2408 379.165 21.3061 379.558 21.4368 379.908C21.5675 380.257 21.7607 380.534 22.0163 380.739C22.2749 380.94 22.593 381.041 22.9709 381.041ZM27.7511 382V375.455H29.0252V382H27.7511ZM28.3945 374.445C28.1729 374.445 27.9826 374.371 27.8235 374.223C27.6673 374.072 27.5891 373.893 27.5891 373.686C27.5891 373.476 27.6673 373.297 27.8235 373.149C27.9826 372.999 28.1729 372.923 28.3945 372.923C28.6161 372.923 28.805 372.999 28.9613 373.149C29.1204 373.297 29.1999 373.476 29.1999 373.686C29.1999 373.893 29.1204 374.072 28.9613 374.223C28.805 374.371 28.6161 374.445 28.3945 374.445ZM33.7947 375.455V376.477H30.2195V375.455H33.7947ZM31.1783 373.886H32.4524V380.078C32.4524 380.325 32.4893 380.511 32.5632 380.636C32.6371 380.759 32.7322 380.842 32.8487 380.888C32.968 380.93 33.0973 380.952 33.2365 380.952C33.3388 380.952 33.4283 380.945 33.505 380.93C33.5817 380.916 33.6413 380.905 33.6839 380.896L33.9141 381.949C33.8402 381.977 33.7351 382.006 33.5987 382.034C33.4624 382.065 33.2919 382.082 33.0874 382.085C32.7521 382.091 32.4396 382.031 32.1499 381.906C31.8601 381.781 31.6257 381.588 31.4467 381.327C31.2678 381.065 31.1783 380.737 31.1783 380.342V373.886ZM36.4783 378.114V382H35.2042V375.455H36.4272V376.52H36.5082C36.6587 376.173 36.8945 375.895 37.2156 375.685C37.5394 375.474 37.9471 375.369 38.4386 375.369C38.8846 375.369 39.2752 375.463 39.6104 375.651C39.9457 375.835 40.2056 376.111 40.3903 376.477C40.5749 376.844 40.6673 377.297 40.6673 377.837V382H39.3931V377.99C39.3931 377.516 39.2695 377.145 39.0224 376.878C38.7752 376.608 38.4357 376.473 38.0039 376.473C37.7085 376.473 37.4457 376.537 37.2156 376.665C36.9883 376.793 36.8079 376.98 36.6744 377.227C36.5437 377.472 36.4783 377.767 36.4783 378.114ZM42.3761 382V375.455H43.6502V382H42.3761ZM42.4954 374.581L43.4925 372.616H44.8349L43.5138 374.581H42.4954ZM49.712 379.78L49.7035 378.224H49.9251L52.533 375.455H54.0586L51.0842 378.608H50.8839L49.712 379.78ZM48.5401 382V373.273H49.8143V382H48.5401ZM52.6737 382L50.3299 378.889L51.2077 377.999L54.2376 382H52.6737ZM57.1246 382.145C56.7099 382.145 56.3349 382.068 55.9996 381.915C55.6644 381.759 55.3988 381.533 55.2028 381.237C55.0096 380.942 54.913 380.58 54.913 380.151C54.913 379.781 54.984 379.477 55.1261 379.239C55.2681 379 55.4599 378.811 55.7013 378.672C55.9428 378.533 56.2127 378.428 56.511 378.357C56.8093 378.286 57.1133 378.232 57.4229 378.195C57.815 378.149 58.1332 378.112 58.3775 378.084C58.6218 378.053 58.7994 378.003 58.9102 377.935C59.021 377.866 59.0763 377.756 59.0763 377.602V377.572C59.0763 377.2 58.9712 376.912 58.761 376.707C58.5536 376.503 58.244 376.401 57.832 376.401C57.4031 376.401 57.065 376.496 56.8178 376.686C56.5735 376.874 56.4045 377.082 56.3107 377.312L55.1133 377.04C55.2553 376.642 55.4627 376.321 55.7354 376.077C56.011 375.83 56.3278 375.651 56.6857 375.54C57.0437 375.426 57.4201 375.369 57.815 375.369C58.0763 375.369 58.3533 375.401 58.646 375.463C58.9414 375.523 59.217 375.634 59.4727 375.795C59.7312 375.957 59.9428 376.189 60.1076 376.49C60.2724 376.788 60.3548 377.176 60.3548 377.653V382H59.1104V381.105H59.0593C58.9769 381.27 58.8533 381.432 58.6886 381.591C58.5238 381.75 58.3121 381.882 58.0536 381.987C57.7951 382.092 57.4854 382.145 57.1246 382.145ZM57.4016 381.122C57.7539 381.122 58.055 381.053 58.305 380.913C58.5579 380.774 58.7496 380.592 58.8803 380.368C59.0138 380.141 59.0806 379.898 59.0806 379.639V378.795C59.0352 378.841 58.9471 378.884 58.8164 378.923C58.6886 378.96 58.5423 378.993 58.3775 379.021C58.2127 379.047 58.0522 379.071 57.896 379.094C57.7397 379.114 57.609 379.131 57.5039 379.145C57.2567 379.176 57.0309 379.229 56.8263 379.303C56.6246 379.376 56.4627 379.483 56.3406 379.622C56.2212 379.759 56.1616 379.94 56.1616 380.168C56.1616 380.483 56.2781 380.722 56.511 380.884C56.744 381.043 57.0408 381.122 57.4016 381.122ZM62.0518 382V375.455H63.2834V376.494H63.3516C63.4709 376.142 63.6811 375.865 63.9822 375.663C64.2862 375.459 64.63 375.357 65.0135 375.357C65.093 375.357 65.1868 375.359 65.2947 375.365C65.4055 375.371 65.4922 375.378 65.5547 375.386V376.605C65.5036 376.591 65.4126 376.575 65.282 376.558C65.1513 376.538 65.0206 376.528 64.8899 376.528C64.5888 376.528 64.3203 376.592 64.0845 376.72C63.8516 376.845 63.6669 377.02 63.5305 377.244C63.3942 377.466 63.326 377.719 63.326 378.003V382H62.0518ZM70.0994 375.455V376.477H66.5241V375.455H70.0994ZM67.483 373.886H68.7571V380.078C68.7571 380.325 68.794 380.511 68.8679 380.636C68.9418 380.759 69.0369 380.842 69.1534 380.888C69.2727 380.93 69.402 380.952 69.5412 380.952C69.6435 380.952 69.733 380.945 69.8097 380.93C69.8864 380.916 69.946 380.905 69.9886 380.896L70.2188 381.949C70.1449 381.977 70.0398 382.006 69.9034 382.034C69.767 382.065 69.5966 382.082 69.392 382.085C69.0568 382.091 68.7443 382.031 68.4545 381.906C68.1648 381.781 67.9304 381.588 67.7514 381.327C67.5724 381.065 67.483 380.737 67.483 380.342V373.886ZM73.4137 382.145C72.9989 382.145 72.6239 382.068 72.2887 381.915C71.9535 381.759 71.6879 381.533 71.4918 381.237C71.2987 380.942 71.2021 380.58 71.2021 380.151C71.2021 379.781 71.2731 379.477 71.4151 379.239C71.5572 379 71.7489 378.811 71.9904 378.672C72.2319 378.533 72.5018 378.428 72.8001 378.357C73.0984 378.286 73.4023 378.232 73.712 378.195C74.104 378.149 74.4222 378.112 74.6665 378.084C74.9109 378.053 75.0884 378.003 75.1992 377.935C75.31 377.866 75.3654 377.756 75.3654 377.602V377.572C75.3654 377.2 75.2603 376.912 75.0501 376.707C74.8427 376.503 74.533 376.401 74.1211 376.401C73.6921 376.401 73.354 376.496 73.1069 376.686C72.8626 376.874 72.6935 377.082 72.5998 377.312L71.4023 377.04C71.5444 376.642 71.7518 376.321 72.0245 376.077C72.3001 375.83 72.6168 375.651 72.9748 375.54C73.3327 375.426 73.7092 375.369 74.104 375.369C74.3654 375.369 74.6424 375.401 74.935 375.463C75.2305 375.523 75.506 375.634 75.7617 375.795C76.0202 375.957 76.2319 376.189 76.3967 376.49C76.5614 376.788 76.6438 377.176 76.6438 377.653V382H75.3995V381.105H75.3484C75.266 381.27 75.1424 381.432 74.9776 381.591C74.8129 381.75 74.6012 381.882 74.3427 381.987C74.0842 382.092 73.7745 382.145 73.4137 382.145ZM73.6907 381.122C74.043 381.122 74.3441 381.053 74.5941 380.913C74.8469 380.774 75.0387 380.592 75.1694 380.368C75.3029 380.141 75.3697 379.898 75.3697 379.639V378.795C75.3242 378.841 75.2362 378.884 75.1055 378.923C74.9776 378.96 74.8313 378.993 74.6665 379.021C74.5018 379.047 74.3413 379.071 74.185 379.094C74.0288 379.114 73.8981 379.131 73.793 379.145C73.5458 379.176 73.32 379.229 73.1154 379.303C72.9137 379.376 72.7518 379.483 72.6296 379.622C72.5103 379.759 72.4506 379.94 72.4506 380.168C72.4506 380.483 72.5671 380.722 72.8001 380.884C73.033 381.043 73.3299 381.122 73.6907 381.122Z" fill="#2E2F30"/>
<path d="M1.14773 342V330.364H5.51136C6.4053 330.364 7.1553 330.53 7.76136 330.864C8.37121 331.197 8.83144 331.655 9.14205 332.239C9.45644 332.818 9.61364 333.477 9.61364 334.216C9.61364 334.962 9.45644 335.625 9.14205 336.205C8.82765 336.784 8.36364 337.241 7.75 337.574C7.13636 337.903 6.38068 338.068 5.48295 338.068H2.59091V336.335H5.19886C5.72159 336.335 6.14962 336.244 6.48295 336.062C6.81629 335.881 7.0625 335.631 7.22159 335.312C7.38447 334.994 7.46591 334.629 7.46591 334.216C7.46591 333.803 7.38447 333.439 7.22159 333.125C7.0625 332.811 6.81439 332.566 6.47727 332.392C6.14394 332.214 5.71402 332.125 5.1875 332.125H3.25568V342H1.14773ZM13.4105 330.364V342H11.3537V330.364H13.4105ZM18.0369 342.176C17.4839 342.176 16.9858 342.078 16.5426 341.881C16.1032 341.68 15.7547 341.384 15.4972 340.994C15.2434 340.604 15.1165 340.123 15.1165 339.551C15.1165 339.059 15.2074 338.652 15.3892 338.33C15.571 338.008 15.8191 337.75 16.1335 337.557C16.4479 337.364 16.8021 337.218 17.196 337.119C17.5938 337.017 18.0047 336.943 18.429 336.898C18.9403 336.845 19.3551 336.797 19.6733 336.756C19.9915 336.71 20.2225 336.642 20.3665 336.551C20.5142 336.456 20.5881 336.311 20.5881 336.114V336.08C20.5881 335.652 20.4612 335.32 20.2074 335.085C19.9536 334.85 19.5881 334.733 19.1108 334.733C18.607 334.733 18.2074 334.843 17.9119 335.062C17.6203 335.282 17.4233 335.542 17.321 335.841L15.4006 335.568C15.5521 335.038 15.8021 334.595 16.1506 334.239C16.4991 333.879 16.9252 333.61 17.429 333.432C17.9328 333.25 18.4896 333.159 19.0994 333.159C19.5199 333.159 19.9384 333.208 20.3551 333.307C20.7718 333.405 21.1525 333.568 21.4972 333.795C21.8419 334.019 22.1184 334.324 22.3267 334.71C22.5388 335.097 22.6449 335.58 22.6449 336.159V342H20.6676V340.801H20.5994C20.4744 341.044 20.2983 341.271 20.071 341.483C19.8475 341.691 19.5653 341.86 19.2244 341.989C18.8873 342.114 18.4915 342.176 18.0369 342.176ZM18.571 340.665C18.9839 340.665 19.3419 340.583 19.6449 340.42C19.9479 340.254 20.1809 340.034 20.3438 339.761C20.5104 339.489 20.5938 339.191 20.5938 338.869V337.841C20.5294 337.894 20.4195 337.943 20.2642 337.989C20.1127 338.034 19.9422 338.074 19.7528 338.108C19.5634 338.142 19.3759 338.172 19.1903 338.199C19.0047 338.225 18.8438 338.248 18.7074 338.267C18.4006 338.309 18.1259 338.377 17.8835 338.472C17.6411 338.566 17.4498 338.699 17.3097 338.869C17.1695 339.036 17.0994 339.252 17.0994 339.517C17.0994 339.896 17.2377 340.182 17.5142 340.375C17.7907 340.568 18.143 340.665 18.571 340.665ZM29.071 333.273V334.864H24.054V333.273H29.071ZM25.2926 331.182H27.3494V339.375C27.3494 339.652 27.3911 339.864 27.4744 340.011C27.5616 340.155 27.6752 340.254 27.8153 340.307C27.9555 340.36 28.1108 340.386 28.2812 340.386C28.41 340.386 28.5275 340.377 28.6335 340.358C28.7434 340.339 28.8267 340.322 28.8835 340.307L29.2301 341.915C29.1203 341.953 28.9631 341.994 28.7585 342.04C28.5578 342.085 28.3116 342.112 28.0199 342.119C27.5047 342.134 27.0407 342.057 26.6278 341.886C26.215 341.712 25.8873 341.443 25.6449 341.08C25.4063 340.716 25.2888 340.261 25.2926 339.716V331.182ZM34.5611 342.17C33.6861 342.17 32.9304 341.989 32.294 341.625C31.6615 341.258 31.1747 340.739 30.8338 340.068C30.4929 339.394 30.3224 338.6 30.3224 337.688C30.3224 336.79 30.4929 336.002 30.8338 335.324C31.1785 334.642 31.6596 334.112 32.277 333.733C32.8944 333.35 33.6198 333.159 34.4531 333.159C34.991 333.159 35.4986 333.246 35.9759 333.42C36.4569 333.591 36.8812 333.856 37.2486 334.216C37.6198 334.576 37.9115 335.034 38.1236 335.591C38.3357 336.144 38.4418 336.803 38.4418 337.568V338.199H31.2884V336.812H36.4702C36.4664 336.419 36.3812 336.068 36.2145 335.761C36.0478 335.451 35.8149 335.206 35.5156 335.028C35.2202 334.85 34.8755 334.761 34.4815 334.761C34.0611 334.761 33.6918 334.864 33.3736 335.068C33.0554 335.269 32.8073 335.534 32.6293 335.864C32.455 336.189 32.366 336.547 32.3622 336.938V338.148C32.3622 338.655 32.455 339.091 32.6406 339.455C32.8262 339.814 33.0857 340.091 33.419 340.284C33.7524 340.473 34.1425 340.568 34.5895 340.568C34.8887 340.568 35.1596 340.527 35.402 340.443C35.6444 340.356 35.8546 340.229 36.0327 340.062C36.2107 339.896 36.3452 339.689 36.4361 339.443L38.3565 339.659C38.2353 340.167 38.0043 340.61 37.6634 340.989C37.3262 341.364 36.8944 341.655 36.3679 341.864C35.8414 342.068 35.2391 342.17 34.5611 342.17ZM40.2727 342V330.364H42.3295V334.716H42.4148C42.5208 334.504 42.6705 334.278 42.8636 334.04C43.0568 333.797 43.3182 333.591 43.6477 333.42C43.9773 333.246 44.3977 333.159 44.9091 333.159C45.5833 333.159 46.1913 333.331 46.733 333.676C47.2784 334.017 47.7102 334.523 48.0284 335.193C48.3504 335.86 48.5114 336.678 48.5114 337.648C48.5114 338.606 48.3542 339.42 48.0398 340.091C47.7254 340.761 47.2973 341.273 46.7557 341.625C46.214 341.977 45.6004 342.153 44.9148 342.153C44.4148 342.153 44 342.07 43.6705 341.903C43.3409 341.737 43.0758 341.536 42.875 341.301C42.678 341.062 42.5246 340.837 42.4148 340.625H42.2955V342H40.2727ZM42.2898 337.636C42.2898 338.201 42.3693 338.695 42.5284 339.119C42.6913 339.544 42.9242 339.875 43.2273 340.114C43.5341 340.348 43.9053 340.466 44.3409 340.466C44.7955 340.466 45.1761 340.345 45.483 340.102C45.7898 339.856 46.0208 339.521 46.1761 339.097C46.3352 338.669 46.4148 338.182 46.4148 337.636C46.4148 337.095 46.3371 336.614 46.1818 336.193C46.0265 335.773 45.7955 335.443 45.4886 335.205C45.1818 334.966 44.7992 334.847 44.3409 334.847C43.9015 334.847 43.5284 334.962 43.2216 335.193C42.9148 335.424 42.6818 335.748 42.5227 336.165C42.3674 336.581 42.2898 337.072 42.2898 337.636ZM52.3168 336.886V342H50.2599V333.273H52.2259V334.756H52.3281C52.5289 334.267 52.849 333.879 53.2884 333.591C53.7315 333.303 54.2789 333.159 54.9304 333.159C55.5327 333.159 56.0573 333.288 56.5043 333.545C56.955 333.803 57.3035 334.176 57.5497 334.665C57.7997 335.153 57.9228 335.746 57.919 336.443V342H55.8622V336.761C55.8622 336.178 55.7107 335.722 55.4077 335.392C55.1084 335.062 54.6937 334.898 54.1634 334.898C53.8035 334.898 53.4834 334.977 53.2031 335.136C52.9266 335.292 52.7088 335.517 52.5497 335.812C52.3944 336.108 52.3168 336.466 52.3168 336.886ZM60.0099 342V333.273H62.0668V342H60.0099ZM60.2543 332.125L61.527 329.528H63.5384L61.794 332.125H60.2543ZM68.1506 342V333.273H70.1165V334.756H70.2188C70.4006 334.256 70.7017 333.866 71.1222 333.585C71.5426 333.301 72.0445 333.159 72.6278 333.159C73.2188 333.159 73.7169 333.303 74.1222 333.591C74.5313 333.875 74.8191 334.263 74.9858 334.756H75.0767C75.2699 334.271 75.5956 333.884 76.054 333.597C76.5161 333.305 77.0634 333.159 77.696 333.159C78.4991 333.159 79.1544 333.413 79.6619 333.92C80.1695 334.428 80.4233 335.169 80.4233 336.142V342H78.3608V336.46C78.3608 335.919 78.2169 335.523 77.929 335.273C77.6411 335.019 77.2888 334.892 76.8722 334.892C76.3759 334.892 75.9877 335.047 75.7074 335.358C75.4309 335.665 75.2926 336.064 75.2926 336.557V342H73.2756V336.375C73.2756 335.924 73.1392 335.564 72.8665 335.295C72.5975 335.027 72.2453 334.892 71.8097 334.892C71.5142 334.892 71.2453 334.968 71.0028 335.119C70.7604 335.267 70.5672 335.477 70.4233 335.75C70.2794 336.019 70.2074 336.333 70.2074 336.693V342H68.1506ZM86.3736 342.17C85.4986 342.17 84.7429 341.989 84.1065 341.625C83.474 341.258 82.9872 340.739 82.6463 340.068C82.3054 339.394 82.1349 338.6 82.1349 337.688C82.1349 336.79 82.3054 336.002 82.6463 335.324C82.991 334.642 83.4721 334.112 84.0895 333.733C84.7069 333.35 85.4323 333.159 86.2656 333.159C86.8035 333.159 87.3111 333.246 87.7884 333.42C88.2694 333.591 88.6937 333.856 89.0611 334.216C89.4323 334.576 89.724 335.034 89.9361 335.591C90.1482 336.144 90.2543 336.803 90.2543 337.568V338.199H83.1009V336.812H88.2827C88.2789 336.419 88.1937 336.068 88.027 335.761C87.8603 335.451 87.6274 335.206 87.3281 335.028C87.0327 334.85 86.688 334.761 86.294 334.761C85.8736 334.761 85.5043 334.864 85.1861 335.068C84.8679 335.269 84.6198 335.534 84.4418 335.864C84.2675 336.189 84.1785 336.547 84.1747 336.938V338.148C84.1747 338.655 84.2675 339.091 84.4531 339.455C84.6387 339.814 84.8982 340.091 85.2315 340.284C85.5649 340.473 85.955 340.568 86.402 340.568C86.7012 340.568 86.9721 340.527 87.2145 340.443C87.4569 340.356 87.6671 340.229 87.8452 340.062C88.0232 339.896 88.1577 339.689 88.2486 339.443L90.169 339.659C90.0478 340.167 89.8168 340.61 89.4759 340.989C89.1387 341.364 88.7069 341.655 88.1804 341.864C87.6539 342.068 87.0516 342.17 86.3736 342.17ZM96.3523 333.273V334.864H91.3352V333.273H96.3523ZM92.5739 331.182H94.6307V339.375C94.6307 339.652 94.6723 339.864 94.7557 340.011C94.8428 340.155 94.9564 340.254 95.0966 340.307C95.2367 340.36 95.392 340.386 95.5625 340.386C95.6913 340.386 95.8087 340.377 95.9148 340.358C96.0246 340.339 96.108 340.322 96.1648 340.307L96.5114 341.915C96.4015 341.953 96.2443 341.994 96.0398 342.04C95.839 342.085 95.5928 342.112 95.3011 342.119C94.786 342.134 94.322 342.057 93.9091 341.886C93.4962 341.712 93.1686 341.443 92.9261 341.08C92.6875 340.716 92.5701 340.261 92.5739 339.716V331.182ZM101.786 342.17C100.933 342.17 100.195 341.983 99.5696 341.608C98.9446 341.233 98.4598 340.708 98.1151 340.034C97.7741 339.36 97.6037 338.572 97.6037 337.67C97.6037 336.769 97.7741 335.979 98.1151 335.301C98.4598 334.623 98.9446 334.097 99.5696 333.722C100.195 333.347 100.933 333.159 101.786 333.159C102.638 333.159 103.376 333.347 104.001 333.722C104.626 334.097 105.109 334.623 105.45 335.301C105.795 335.979 105.967 336.769 105.967 337.67C105.967 338.572 105.795 339.36 105.45 340.034C105.109 340.708 104.626 341.233 104.001 341.608C103.376 341.983 102.638 342.17 101.786 342.17ZM101.797 340.523C102.259 340.523 102.645 340.396 102.956 340.142C103.267 339.884 103.498 339.54 103.649 339.108C103.804 338.676 103.882 338.195 103.882 337.665C103.882 337.131 103.804 336.648 103.649 336.216C103.498 335.78 103.267 335.434 102.956 335.176C102.645 334.919 102.259 334.79 101.797 334.79C101.323 334.79 100.929 334.919 100.615 335.176C100.304 335.434 100.071 335.78 99.9162 336.216C99.7647 336.648 99.6889 337.131 99.6889 337.665C99.6889 338.195 99.7647 338.676 99.9162 339.108C100.071 339.54 100.304 339.884 100.615 340.142C100.929 340.396 101.323 340.523 101.797 340.523ZM110.952 342.153C110.266 342.153 109.652 341.977 109.111 341.625C108.569 341.273 108.141 340.761 107.827 340.091C107.512 339.42 107.355 338.606 107.355 337.648C107.355 336.678 107.514 335.86 107.832 335.193C108.154 334.523 108.588 334.017 109.134 333.676C109.679 333.331 110.287 333.159 110.957 333.159C111.469 333.159 111.889 333.246 112.219 333.42C112.548 333.591 112.81 333.797 113.003 334.04C113.196 334.278 113.346 334.504 113.452 334.716H113.537V330.364H115.599V342H113.577V340.625H113.452C113.346 340.837 113.192 341.062 112.991 341.301C112.791 341.536 112.526 341.737 112.196 341.903C111.866 342.07 111.452 342.153 110.952 342.153ZM111.526 340.466C111.961 340.466 112.332 340.348 112.639 340.114C112.946 339.875 113.179 339.544 113.338 339.119C113.497 338.695 113.577 338.201 113.577 337.636C113.577 337.072 113.497 336.581 113.338 336.165C113.183 335.748 112.952 335.424 112.645 335.193C112.342 334.962 111.969 334.847 111.526 334.847C111.067 334.847 110.685 334.966 110.378 335.205C110.071 335.443 109.84 335.773 109.685 336.193C109.529 336.614 109.452 337.095 109.452 337.636C109.452 338.182 109.529 338.669 109.685 339.097C109.844 339.521 110.077 339.856 110.384 340.102C110.694 340.345 111.075 340.466 111.526 340.466ZM120.303 342.176C119.75 342.176 119.251 342.078 118.808 341.881C118.369 341.68 118.02 341.384 117.763 340.994C117.509 340.604 117.382 340.123 117.382 339.551C117.382 339.059 117.473 338.652 117.655 338.33C117.837 338.008 118.085 337.75 118.399 337.557C118.714 337.364 119.068 337.218 119.462 337.119C119.859 337.017 120.27 336.943 120.695 336.898C121.206 336.845 121.621 336.797 121.939 336.756C122.257 336.71 122.488 336.642 122.632 336.551C122.78 336.456 122.854 336.311 122.854 336.114V336.08C122.854 335.652 122.727 335.32 122.473 335.085C122.219 334.85 121.854 334.733 121.376 334.733C120.873 334.733 120.473 334.843 120.178 335.062C119.886 335.282 119.689 335.542 119.587 335.841L117.666 335.568C117.818 335.038 118.068 334.595 118.416 334.239C118.765 333.879 119.191 333.61 119.695 333.432C120.198 333.25 120.755 333.159 121.365 333.159C121.786 333.159 122.204 333.208 122.621 333.307C123.037 333.405 123.418 333.568 123.763 333.795C124.107 334.019 124.384 334.324 124.592 334.71C124.804 335.097 124.911 335.58 124.911 336.159V342H122.933V340.801H122.865C122.74 341.044 122.564 341.271 122.337 341.483C122.113 341.691 121.831 341.86 121.49 341.989C121.153 342.114 120.757 342.176 120.303 342.176ZM120.837 340.665C121.25 340.665 121.607 340.583 121.911 340.42C122.214 340.254 122.446 340.034 122.609 339.761C122.776 339.489 122.859 339.191 122.859 338.869V337.841C122.795 337.894 122.685 337.943 122.53 337.989C122.378 338.034 122.208 338.074 122.018 338.108C121.829 338.142 121.642 338.172 121.456 338.199C121.27 338.225 121.109 338.248 120.973 338.267C120.666 338.309 120.392 338.377 120.149 338.472C119.907 338.566 119.715 338.699 119.575 338.869C119.435 339.036 119.365 339.252 119.365 339.517C119.365 339.896 119.503 340.182 119.78 340.375C120.056 340.568 120.409 340.665 120.837 340.665Z" fill="#596063" fill-opacity="0.75"/>
<rect y="456" width="168" height="36" rx="2" fill="#EBF2F4"/>
<rect x="180" y="456" width="88" height="36" rx="2" fill="#EBF2F4"/>
<path d="M3.78409 450H0.958807V441.273H3.87358C4.72869 441.273 5.46307 441.447 6.0767 441.797C6.69034 442.143 7.16051 442.642 7.48722 443.293C7.81676 443.94 7.98153 444.717 7.98153 445.624C7.98153 446.533 7.81534 447.314 7.48295 447.967C7.15341 448.621 6.67614 449.124 6.05114 449.476C5.42614 449.825 4.67045 450 3.78409 450ZM2.27557 448.849H3.71165C4.37642 448.849 4.92898 448.724 5.36932 448.474C5.80966 448.222 6.1392 447.857 6.35795 447.379C6.5767 446.899 6.68608 446.314 6.68608 445.624C6.68608 444.939 6.5767 444.358 6.35795 443.881C6.14205 443.403 5.8196 443.041 5.39062 442.794C4.96165 442.547 4.42898 442.423 3.79261 442.423H2.27557V448.849ZM11.4215 450.145C11.0067 450.145 10.6317 450.068 10.2965 449.915C9.96129 449.759 9.69567 449.533 9.49964 449.237C9.30646 448.942 9.20987 448.58 9.20987 448.151C9.20987 447.781 9.28089 447.477 9.42294 447.239C9.56499 447 9.75675 446.811 9.99822 446.672C10.2397 446.533 10.5096 446.428 10.8079 446.357C11.1062 446.286 11.4102 446.232 11.7198 446.195C12.1119 446.149 12.43 446.112 12.6744 446.084C12.9187 446.053 13.0962 446.003 13.207 445.935C13.3178 445.866 13.3732 445.756 13.3732 445.602V445.572C13.3732 445.2 13.2681 444.912 13.0579 444.707C12.8505 444.503 12.5408 444.401 12.1289 444.401C11.6999 444.401 11.3619 444.496 11.1147 444.686C10.8704 444.874 10.7013 445.082 10.6076 445.312L9.41016 445.04C9.5522 444.642 9.75959 444.321 10.0323 444.077C10.3079 443.83 10.6246 443.651 10.9826 443.54C11.3406 443.426 11.717 443.369 12.1119 443.369C12.3732 443.369 12.6502 443.401 12.9428 443.463C13.2383 443.523 13.5138 443.634 13.7695 443.795C14.0281 443.957 14.2397 444.189 14.4045 444.49C14.5692 444.788 14.6516 445.176 14.6516 445.653V450H13.4073V449.105H13.3562C13.2738 449.27 13.1502 449.432 12.9854 449.591C12.8207 449.75 12.609 449.882 12.3505 449.987C12.092 450.092 11.7823 450.145 11.4215 450.145ZM11.6985 449.122C12.0508 449.122 12.3519 449.053 12.6019 448.913C12.8548 448.774 13.0465 448.592 13.1772 448.368C13.3107 448.141 13.3775 447.898 13.3775 447.639V446.795C13.332 446.841 13.244 446.884 13.1133 446.923C12.9854 446.96 12.8391 446.993 12.6744 447.021C12.5096 447.047 12.3491 447.071 12.1928 447.094C12.0366 447.114 11.9059 447.131 11.8008 447.145C11.5536 447.176 11.3278 447.229 11.1232 447.303C10.9215 447.376 10.7596 447.483 10.6374 447.622C10.5181 447.759 10.4585 447.94 10.4585 448.168C10.4585 448.483 10.5749 448.722 10.8079 448.884C11.0408 449.043 11.3377 449.122 11.6985 449.122ZM19.4041 443.455V444.477H15.8288V443.455H19.4041ZM16.7876 441.886H18.0618V448.078C18.0618 448.325 18.0987 448.511 18.1726 448.636C18.2464 448.759 18.3416 448.842 18.4581 448.888C18.5774 448.93 18.7067 448.952 18.8459 448.952C18.9482 448.952 19.0376 448.945 19.1143 448.93C19.1911 448.916 19.2507 448.905 19.2933 448.896L19.5234 449.949C19.4496 449.977 19.3445 450.006 19.2081 450.034C19.0717 450.065 18.9013 450.082 18.6967 450.085C18.3615 450.091 18.049 450.031 17.7592 449.906C17.4695 449.781 17.2351 449.588 17.0561 449.327C16.8771 449.065 16.7876 448.737 16.7876 448.342V441.886ZM24.9599 447.286V443.455H26.2383V450H24.9854V448.866H24.9173C24.7667 449.216 24.5252 449.507 24.1928 449.74C23.8633 449.97 23.4528 450.085 22.9613 450.085C22.5408 450.085 22.1687 449.993 21.8448 449.808C21.5238 449.621 21.271 449.344 21.0863 448.977C20.9045 448.611 20.8136 448.158 20.8136 447.618V443.455H22.0877V447.464C22.0877 447.911 22.2113 448.266 22.4585 448.53C22.7056 448.794 23.0266 448.926 23.4215 448.926C23.6602 448.926 23.8974 448.866 24.1332 448.747C24.3718 448.628 24.5692 448.447 24.7255 448.206C24.8846 447.964 24.9627 447.658 24.9599 447.286ZM27.9503 450V443.455H29.1733V444.52H29.2543C29.3906 444.159 29.6136 443.878 29.9233 443.676C30.233 443.472 30.6037 443.369 31.0355 443.369C31.473 443.369 31.8395 443.472 32.1349 443.676C32.4332 443.881 32.6534 444.162 32.7955 444.52H32.8636C33.0199 444.17 33.2685 443.892 33.6094 443.685C33.9503 443.474 34.3565 443.369 34.8281 443.369C35.4219 443.369 35.9062 443.555 36.2812 443.928C36.6591 444.3 36.848 444.861 36.848 445.611V450H35.5739V445.73C35.5739 445.287 35.4531 444.966 35.2116 444.767C34.9702 444.568 34.6818 444.469 34.3466 444.469C33.9318 444.469 33.6094 444.597 33.3793 444.852C33.1491 445.105 33.0341 445.43 33.0341 445.828V450H31.7642V445.649C31.7642 445.294 31.6534 445.009 31.4318 444.793C31.2102 444.577 30.9219 444.469 30.5668 444.469C30.3253 444.469 30.1023 444.533 29.8977 444.661C29.696 444.786 29.5327 444.96 29.4077 445.185C29.2855 445.409 29.2244 445.669 29.2244 445.964V450H27.9503ZM47.331 443.455L44.9574 450H43.5938L41.2159 443.455H42.5838L44.2415 448.491H44.3097L45.9631 443.455H47.331ZM49.3338 452.455C49.1435 452.455 48.9702 452.439 48.8139 452.408C48.6577 452.379 48.5412 452.348 48.4645 452.314L48.7713 451.27C49.0043 451.332 49.2116 451.359 49.3935 451.351C49.5753 451.342 49.7358 451.274 49.875 451.146C50.017 451.018 50.142 450.81 50.25 450.52L50.4077 450.085L48.0128 443.455H49.3764L51.0341 448.534H51.1023L52.7599 443.455H54.1278L51.4304 450.874C51.3054 451.214 51.1463 451.503 50.9531 451.739C50.7599 451.977 50.5298 452.156 50.2628 452.276C49.9957 452.395 49.6861 452.455 49.3338 452.455ZM55.3253 452.455V443.455H56.5696V444.516H56.6761C56.75 444.379 56.8565 444.222 56.9957 444.043C57.1349 443.864 57.3281 443.707 57.5753 443.574C57.8224 443.438 58.1491 443.369 58.5554 443.369C59.0838 443.369 59.5554 443.503 59.9702 443.77C60.3849 444.037 60.7102 444.422 60.946 444.925C61.1847 445.428 61.304 446.033 61.304 446.74C61.304 447.447 61.1861 448.054 60.9503 448.56C60.7145 449.062 60.3906 449.45 59.9787 449.723C59.5668 449.993 59.0966 450.128 58.5682 450.128C58.1705 450.128 57.8452 450.061 57.5923 449.928C57.3423 449.794 57.1463 449.638 57.0043 449.459C56.8622 449.28 56.7528 449.121 56.6761 448.982H56.5994V452.455H55.3253ZM56.5739 446.727C56.5739 447.187 56.6406 447.591 56.7741 447.938C56.9077 448.284 57.1009 448.555 57.3537 448.751C57.6065 448.945 57.9162 449.041 58.2827 449.041C58.6634 449.041 58.9815 448.94 59.2372 448.739C59.4929 448.534 59.6861 448.257 59.8168 447.908C59.9503 447.558 60.017 447.165 60.017 446.727C60.017 446.295 59.9517 445.908 59.821 445.564C59.6932 445.22 59.5 444.949 59.2415 444.75C58.9858 444.551 58.6662 444.452 58.2827 444.452C57.9134 444.452 57.6009 444.547 57.3452 444.737C57.0923 444.928 56.9006 445.193 56.7699 445.534C56.6392 445.875 56.5739 446.273 56.5739 446.727ZM62.7315 450V443.455H63.9631V444.494H64.0312C64.1506 444.142 64.3608 443.865 64.6619 443.663C64.9659 443.459 65.3097 443.357 65.6932 443.357C65.7727 443.357 65.8665 443.359 65.9744 443.365C66.0852 443.371 66.1719 443.378 66.2344 443.386V444.605C66.1832 444.591 66.0923 444.575 65.9616 444.558C65.831 444.538 65.7003 444.528 65.5696 444.528C65.2685 444.528 65 444.592 64.7642 444.72C64.5313 444.845 64.3466 445.02 64.2102 445.244C64.0739 445.466 64.0057 445.719 64.0057 446.003V450H62.7315ZM72.2418 445.053L71.087 445.257C71.0387 445.109 70.962 444.969 70.8569 444.835C70.7546 444.702 70.6154 444.592 70.4393 444.507C70.2631 444.422 70.043 444.379 69.7788 444.379C69.418 444.379 69.1168 444.46 68.8754 444.622C68.6339 444.781 68.5131 444.987 68.5131 445.24C68.5131 445.459 68.5941 445.635 68.756 445.768C68.918 445.902 69.1793 446.011 69.5401 446.097L70.5799 446.335C71.1822 446.474 71.631 446.689 71.9265 446.979C72.2219 447.268 72.3697 447.645 72.3697 448.108C72.3697 448.5 72.256 448.849 72.0288 449.156C71.8043 449.46 71.4904 449.699 71.087 449.872C70.6864 450.045 70.2219 450.132 69.6935 450.132C68.9606 450.132 68.3626 449.976 67.8995 449.663C67.4364 449.348 67.1523 448.901 67.0472 448.321L68.2788 448.134C68.3555 448.455 68.5131 448.697 68.7518 448.862C68.9904 449.024 69.3015 449.105 69.685 449.105C70.1026 449.105 70.4364 449.018 70.6864 448.845C70.9364 448.669 71.0614 448.455 71.0614 448.202C71.0614 447.997 70.9847 447.825 70.8313 447.686C70.6808 447.547 70.4492 447.442 70.1367 447.371L69.0288 447.128C68.418 446.989 67.9663 446.767 67.6737 446.463C67.3839 446.159 67.239 445.774 67.239 445.308C67.239 444.922 67.3469 444.584 67.5629 444.294C67.7788 444.004 68.0771 443.778 68.4577 443.616C68.8384 443.452 69.2745 443.369 69.766 443.369C70.4734 443.369 71.0302 443.523 71.4364 443.83C71.8427 444.134 72.1112 444.541 72.2418 445.053ZM68.9052 440.8L69.783 441.942L70.6566 440.8H71.8114V440.864L70.3114 442.67H69.2504L67.7546 440.864V440.8H68.9052ZM76.5916 450.132C75.9467 450.132 75.3913 449.994 74.9254 449.719C74.4624 449.44 74.1044 449.05 73.8516 448.547C73.6016 448.041 73.4766 447.449 73.4766 446.77C73.4766 446.099 73.6016 445.509 73.8516 444.997C74.1044 444.486 74.4567 444.087 74.9084 443.8C75.3629 443.513 75.8942 443.369 76.5021 443.369C76.8714 443.369 77.2294 443.43 77.576 443.553C77.9226 443.675 78.2337 443.866 78.5092 444.128C78.7848 444.389 79.0021 444.729 79.1612 445.146C79.3203 445.561 79.3999 446.065 79.3999 446.659V447.111H74.1967V446.156H78.1513C78.1513 445.821 78.0831 445.524 77.9467 445.266C77.8104 445.004 77.6186 444.798 77.3714 444.648C77.1271 444.497 76.8402 444.422 76.5107 444.422C76.1527 444.422 75.8402 444.51 75.5732 444.686C75.3089 444.859 75.1044 445.087 74.9595 445.368C74.8175 445.646 74.7464 445.949 74.7464 446.276V447.021C74.7464 447.459 74.8232 447.831 74.9766 448.138C75.1328 448.445 75.3501 448.679 75.6286 448.841C75.907 449 76.2322 449.08 76.6044 449.08C76.8459 449.08 77.0661 449.045 77.2649 448.977C77.4638 448.906 77.6357 448.801 77.7805 448.662C77.9254 448.523 78.0362 448.351 78.1129 448.146L79.3189 448.364C79.2223 448.719 79.049 449.03 78.799 449.297C78.5518 449.561 78.2408 449.767 77.8658 449.915C77.4936 450.06 77.0689 450.132 76.5916 450.132ZM82.0877 446.114V450H80.8136V443.455H82.0366V444.52H82.1175C82.2681 444.173 82.5039 443.895 82.8249 443.685C83.1488 443.474 83.5565 443.369 84.0479 443.369C84.494 443.369 84.8846 443.463 85.2198 443.651C85.555 443.835 85.815 444.111 85.9996 444.477C86.1843 444.844 86.2766 445.297 86.2766 445.837V450H85.0025V445.99C85.0025 445.516 84.8789 445.145 84.6317 444.878C84.3846 444.608 84.0451 444.473 83.6133 444.473C83.3178 444.473 83.055 444.537 82.8249 444.665C82.5977 444.793 82.4173 444.98 82.2837 445.227C82.1531 445.472 82.0877 445.767 82.0877 446.114ZM87.9854 450V443.455H89.2596V450H87.9854ZM88.1048 442.581L89.1019 440.616H90.4442L89.1232 442.581H88.1048ZM94.1495 452.455V443.455H95.3938V444.516H95.5004C95.5742 444.379 95.6808 444.222 95.82 444.043C95.9592 443.864 96.1523 443.707 96.3995 443.574C96.6467 443.438 96.9734 443.369 97.3796 443.369C97.908 443.369 98.3796 443.503 98.7944 443.77C99.2092 444.037 99.5344 444.422 99.7702 444.925C100.009 445.428 100.128 446.033 100.128 446.74C100.128 447.447 100.01 448.054 99.7745 448.56C99.5387 449.062 99.2148 449.45 98.8029 449.723C98.391 449.993 97.9208 450.128 97.3924 450.128C96.9947 450.128 96.6694 450.061 96.4165 449.928C96.1665 449.794 95.9705 449.638 95.8285 449.459C95.6864 449.28 95.5771 449.121 95.5004 448.982H95.4237V452.455H94.1495ZM95.3981 446.727C95.3981 447.187 95.4648 447.591 95.5984 447.938C95.7319 448.284 95.9251 448.555 96.1779 448.751C96.4308 448.945 96.7404 449.041 97.1069 449.041C97.4876 449.041 97.8058 448.94 98.0614 448.739C98.3171 448.534 98.5103 448.257 98.641 447.908C98.7745 447.558 98.8413 447.165 98.8413 446.727C98.8413 446.295 98.7759 445.908 98.6452 445.564C98.5174 445.22 98.3242 444.949 98.0657 444.75C97.81 444.551 97.4904 444.452 97.1069 444.452C96.7376 444.452 96.4251 444.547 96.1694 444.737C95.9165 444.928 95.7248 445.193 95.5941 445.534C95.4634 445.875 95.3981 446.273 95.3981 446.727ZM102.83 441.273V450H101.556V441.273H102.83ZM106.449 450.145C106.034 450.145 105.659 450.068 105.324 449.915C104.989 449.759 104.723 449.533 104.527 449.237C104.334 448.942 104.237 448.58 104.237 448.151C104.237 447.781 104.308 447.477 104.45 447.239C104.592 447 104.784 446.811 105.026 446.672C105.267 446.533 105.537 446.428 105.835 446.357C106.134 446.286 106.438 446.232 106.747 446.195C107.139 446.149 107.457 446.112 107.702 446.084C107.946 446.053 108.124 446.003 108.234 445.935C108.345 445.866 108.401 445.756 108.401 445.602V445.572C108.401 445.2 108.295 444.912 108.085 444.707C107.878 444.503 107.568 444.401 107.156 444.401C106.727 444.401 106.389 444.496 106.142 444.686C105.898 444.874 105.729 445.082 105.635 445.312L104.438 445.04C104.58 444.642 104.787 444.321 105.06 444.077C105.335 443.83 105.652 443.651 106.01 443.54C106.368 443.426 106.744 443.369 107.139 443.369C107.401 443.369 107.678 443.401 107.97 443.463C108.266 443.523 108.541 443.634 108.797 443.795C109.055 443.957 109.267 444.189 109.432 444.49C109.597 444.788 109.679 445.176 109.679 445.653V450H108.435V449.105H108.384C108.301 449.27 108.178 449.432 108.013 449.591C107.848 449.75 107.636 449.882 107.378 449.987C107.119 450.092 106.81 450.145 106.449 450.145ZM106.726 449.122C107.078 449.122 107.379 449.053 107.629 448.913C107.882 448.774 108.074 448.592 108.205 448.368C108.338 448.141 108.405 447.898 108.405 447.639V446.795C108.359 446.841 108.271 446.884 108.141 446.923C108.013 446.96 107.866 446.993 107.702 447.021C107.537 447.047 107.376 447.071 107.22 447.094C107.064 447.114 106.933 447.131 106.828 447.145C106.581 447.176 106.355 447.229 106.151 447.303C105.949 447.376 105.787 447.483 105.665 447.622C105.545 447.759 105.486 447.94 105.486 448.168C105.486 448.483 105.602 448.722 105.835 448.884C106.068 449.043 106.365 449.122 106.726 449.122ZM114.431 443.455V444.477H110.856V443.455H114.431ZM111.815 441.886H113.089V448.078C113.089 448.325 113.126 448.511 113.2 448.636C113.274 448.759 113.369 448.842 113.485 448.888C113.605 448.93 113.734 448.952 113.873 448.952C113.975 448.952 114.065 448.945 114.142 448.93C114.218 448.916 114.278 448.905 114.321 448.896L114.551 449.949C114.477 449.977 114.372 450.006 114.235 450.034C114.099 450.065 113.929 450.082 113.724 450.085C113.389 450.091 113.076 450.031 112.787 449.906C112.497 449.781 112.262 449.588 112.083 449.327C111.904 449.065 111.815 448.737 111.815 448.342V441.886ZM117.115 446.114V450H115.841V443.455H117.064V444.52H117.145C117.295 444.173 117.531 443.895 117.852 443.685C118.176 443.474 118.584 443.369 119.075 443.369C119.521 443.369 119.912 443.463 120.247 443.651C120.582 443.835 120.842 444.111 121.027 444.477C121.212 444.844 121.304 445.297 121.304 445.837V450H120.03V445.99C120.03 445.516 119.906 445.145 119.659 444.878C119.412 444.608 119.072 444.473 118.641 444.473C118.345 444.473 118.082 444.537 117.852 444.665C117.625 444.793 117.445 444.98 117.311 445.227C117.18 445.472 117.115 445.767 117.115 446.114ZM125.77 450.132C125.156 450.132 124.621 449.991 124.163 449.71C123.706 449.429 123.351 449.036 123.098 448.53C122.845 448.024 122.719 447.433 122.719 446.757C122.719 446.078 122.845 445.484 123.098 444.976C123.351 444.467 123.706 444.072 124.163 443.791C124.621 443.51 125.156 443.369 125.77 443.369C126.384 443.369 126.919 443.51 127.376 443.791C127.834 444.072 128.189 444.467 128.442 444.976C128.695 445.484 128.821 446.078 128.821 446.757C128.821 447.433 128.695 448.024 128.442 448.53C128.189 449.036 127.834 449.429 127.376 449.71C126.919 449.991 126.384 450.132 125.77 450.132ZM125.774 449.062C126.172 449.062 126.501 448.957 126.763 448.747C127.024 448.537 127.217 448.257 127.342 447.908C127.47 447.558 127.534 447.173 127.534 446.753C127.534 446.335 127.47 445.952 127.342 445.602C127.217 445.25 127.024 444.967 126.763 444.754C126.501 444.541 126.172 444.435 125.774 444.435C125.374 444.435 125.041 444.541 124.777 444.754C124.516 444.967 124.321 445.25 124.193 445.602C124.068 445.952 124.006 446.335 124.006 446.753C124.006 447.173 124.068 447.558 124.193 447.908C124.321 448.257 124.516 448.537 124.777 448.747C125.041 448.957 125.374 449.062 125.774 449.062ZM135.148 445.053L133.993 445.257C133.945 445.109 133.868 444.969 133.763 444.835C133.661 444.702 133.522 444.592 133.346 444.507C133.169 444.422 132.949 444.379 132.685 444.379C132.324 444.379 132.023 444.46 131.782 444.622C131.54 444.781 131.419 444.987 131.419 445.24C131.419 445.459 131.5 445.635 131.662 445.768C131.824 445.902 132.086 446.011 132.446 446.097L133.486 446.335C134.088 446.474 134.537 446.689 134.833 446.979C135.128 447.268 135.276 447.645 135.276 448.108C135.276 448.5 135.162 448.849 134.935 449.156C134.711 449.46 134.397 449.699 133.993 449.872C133.593 450.045 133.128 450.132 132.6 450.132C131.867 450.132 131.269 449.976 130.806 449.663C130.343 449.348 130.059 448.901 129.953 448.321L131.185 448.134C131.262 448.455 131.419 448.697 131.658 448.862C131.897 449.024 132.208 449.105 132.591 449.105C133.009 449.105 133.343 449.018 133.593 448.845C133.843 448.669 133.968 448.455 133.968 448.202C133.968 447.997 133.891 447.825 133.738 447.686C133.587 447.547 133.355 447.442 133.043 447.371L131.935 447.128C131.324 446.989 130.873 446.767 130.58 446.463C130.29 446.159 130.145 445.774 130.145 445.308C130.145 444.922 130.253 444.584 130.469 444.294C130.685 444.004 130.983 443.778 131.364 443.616C131.745 443.452 132.181 443.369 132.672 443.369C133.38 443.369 133.936 443.523 134.343 443.83C134.749 444.134 135.017 444.541 135.148 445.053ZM139.732 443.455V444.477H136.157V443.455H139.732ZM137.116 441.886H138.39V448.078C138.39 448.325 138.427 448.511 138.501 448.636C138.575 448.759 138.67 448.842 138.786 448.888C138.906 448.93 139.035 448.952 139.174 448.952C139.276 448.952 139.366 448.945 139.442 448.93C139.519 448.916 139.579 448.905 139.621 448.896L139.852 449.949C139.778 449.977 139.673 450.006 139.536 450.034C139.4 450.065 139.229 450.082 139.025 450.085C138.69 450.091 138.377 450.031 138.087 449.906C137.798 449.781 137.563 449.588 137.384 449.327C137.205 449.065 137.116 448.737 137.116 448.342V441.886ZM141.142 450V443.455H142.416V450H141.142ZM141.785 442.445C141.564 442.445 141.373 442.371 141.214 442.223C141.058 442.072 140.98 441.893 140.98 441.686C140.98 441.476 141.058 441.297 141.214 441.149C141.373 440.999 141.564 440.923 141.785 440.923C142.007 440.923 142.196 440.999 142.352 441.149C142.511 441.297 142.591 441.476 142.591 441.686C142.591 441.893 142.511 442.072 142.352 442.223C142.196 442.371 142.007 442.445 141.785 442.445Z" fill="#2E2F30"/>
<path d="M188.207 444.111H186.878C186.827 443.827 186.732 443.577 186.592 443.361C186.453 443.145 186.283 442.962 186.081 442.811C185.879 442.661 185.653 442.547 185.403 442.47C185.156 442.393 184.893 442.355 184.615 442.355C184.112 442.355 183.662 442.482 183.264 442.734C182.869 442.987 182.557 443.358 182.327 443.847C182.099 444.335 181.986 444.932 181.986 445.636C181.986 446.347 182.099 446.946 182.327 447.435C182.557 447.923 182.871 448.293 183.268 448.543C183.666 448.793 184.114 448.918 184.611 448.918C184.886 448.918 185.148 448.881 185.395 448.807C185.645 448.73 185.871 448.618 186.072 448.47C186.274 448.322 186.445 448.142 186.584 447.929C186.726 447.713 186.824 447.466 186.878 447.188L188.207 447.192C188.136 447.621 187.999 448.016 187.794 448.376C187.592 448.734 187.332 449.044 187.014 449.305C186.699 449.564 186.338 449.764 185.932 449.906C185.526 450.048 185.082 450.119 184.602 450.119C183.847 450.119 183.173 449.94 182.582 449.582C181.991 449.222 181.526 448.706 181.185 448.036C180.847 447.365 180.678 446.565 180.678 445.636C180.678 444.705 180.848 443.905 181.189 443.237C181.53 442.567 181.996 442.053 182.587 441.695C183.178 441.334 183.849 441.153 184.602 441.153C185.065 441.153 185.497 441.22 185.898 441.354C186.301 441.484 186.663 441.678 186.984 441.933C187.305 442.186 187.571 442.496 187.781 442.862C187.991 443.226 188.134 443.642 188.207 444.111ZM190.546 441.273L192.975 448.381H193.073L195.502 441.273H196.925L193.784 450H192.263L189.123 441.273H190.546ZM198.948 441.273L201.377 448.381H201.475L203.904 441.273H205.327L202.187 450H200.665L197.525 441.273H198.948Z" fill="#2E2F30"/>
<rect y="524" width="268" height="36" rx="2" fill="#EBF2F4"/>
<path d="M4.35085 509.273H5.66335V515.46C5.66335 516.02 5.55256 516.499 5.33097 516.896C5.11222 517.294 4.80398 517.598 4.40625 517.808C4.00852 518.016 3.54261 518.119 3.00852 518.119C2.51705 518.119 2.07528 518.03 1.68324 517.851C1.29403 517.672 0.985795 517.412 0.758523 517.071C0.534091 516.727 0.421875 516.31 0.421875 515.818H1.73011C1.73011 516.06 1.78551 516.268 1.89631 516.445C2.00994 516.621 2.16477 516.759 2.3608 516.858C2.55966 516.955 2.78693 517.003 3.04261 517.003C3.32102 517.003 3.55682 516.945 3.75 516.828C3.94602 516.709 4.09517 516.534 4.19744 516.304C4.29972 516.074 4.35085 515.793 4.35085 515.46V509.273ZM7.47763 518V511.455H8.70064V512.52H8.78161C8.91797 512.159 9.14098 511.878 9.45064 511.676C9.7603 511.472 10.131 511.369 10.5629 511.369C11.0004 511.369 11.3668 511.472 11.6623 511.676C11.9606 511.881 12.1808 512.162 12.3228 512.52H12.391C12.5472 512.17 12.7958 511.892 13.1367 511.685C13.4776 511.474 13.8839 511.369 14.3555 511.369C14.9492 511.369 15.4336 511.555 15.8086 511.928C16.1864 512.3 16.3754 512.861 16.3754 513.611V518H15.1012V513.73C15.1012 513.287 14.9805 512.966 14.739 512.767C14.4975 512.568 14.2092 512.469 13.8739 512.469C13.4592 512.469 13.1367 512.597 12.9066 512.852C12.6765 513.105 12.5614 513.43 12.5614 513.828V518H11.2915V513.649C11.2915 513.294 11.1808 513.009 10.9592 512.793C10.7376 512.577 10.4492 512.469 10.0941 512.469C9.85263 512.469 9.62962 512.533 9.42507 512.661C9.22337 512.786 9.06001 512.96 8.93501 513.185C8.81286 513.409 8.75178 513.669 8.75178 513.964V518H7.47763ZM20.9041 518.132C20.2592 518.132 19.7038 517.994 19.2379 517.719C18.7749 517.44 18.4169 517.05 18.1641 516.547C17.9141 516.041 17.7891 515.449 17.7891 514.77C17.7891 514.099 17.9141 513.509 18.1641 512.997C18.4169 512.486 18.7692 512.087 19.2209 511.8C19.6754 511.513 20.2067 511.369 20.8146 511.369C21.1839 511.369 21.5419 511.43 21.8885 511.553C22.2351 511.675 22.5462 511.866 22.8217 512.128C23.0973 512.389 23.3146 512.729 23.4737 513.146C23.6328 513.561 23.7124 514.065 23.7124 514.659V515.111H18.5092V514.156H22.4638C22.4638 513.821 22.3956 513.524 22.2592 513.266C22.1229 513.004 21.9311 512.798 21.6839 512.648C21.4396 512.497 21.1527 512.422 20.8232 512.422C20.4652 512.422 20.1527 512.51 19.8857 512.686C19.6214 512.859 19.4169 513.087 19.272 513.368C19.13 513.646 19.0589 513.949 19.0589 514.276V515.021C19.0589 515.459 19.1357 515.831 19.2891 516.138C19.4453 516.445 19.6626 516.679 19.9411 516.841C20.2195 517 20.5447 517.08 20.9169 517.08C21.1584 517.08 21.3786 517.045 21.5774 516.977C21.7763 516.906 21.9482 516.801 22.093 516.662C22.2379 516.523 22.3487 516.351 22.4254 516.146L23.6314 516.364C23.5348 516.719 23.3615 517.03 23.1115 517.297C22.8643 517.561 22.5533 517.767 22.1783 517.915C21.8061 518.06 21.3814 518.132 20.9041 518.132ZM20.2393 510.581L21.2365 508.616H22.5788L21.2578 510.581H20.2393ZM26.4002 514.114V518H25.1261V511.455H26.3491V512.52H26.43C26.5806 512.173 26.8164 511.895 27.1374 511.685C27.4613 511.474 27.869 511.369 28.3604 511.369C28.8065 511.369 29.1971 511.463 29.5323 511.651C29.8675 511.835 30.1275 512.111 30.3121 512.477C30.4968 512.844 30.5891 513.297 30.5891 513.837V518H29.315V513.99C29.315 513.516 29.1914 513.145 28.9442 512.878C28.6971 512.608 28.3576 512.473 27.9258 512.473C27.6303 512.473 27.3675 512.537 27.1374 512.665C26.9102 512.793 26.7298 512.98 26.5962 513.227C26.4656 513.472 26.4002 513.767 26.4002 514.114ZM35.055 518.132C34.4414 518.132 33.9059 517.991 33.4485 517.71C32.9911 517.429 32.636 517.036 32.3832 516.53C32.1303 516.024 32.0039 515.433 32.0039 514.757C32.0039 514.078 32.1303 513.484 32.3832 512.976C32.636 512.467 32.9911 512.072 33.4485 511.791C33.9059 511.51 34.4414 511.369 35.055 511.369C35.6687 511.369 36.2042 511.51 36.6616 511.791C37.119 512.072 37.4741 512.467 37.7269 512.976C37.9798 513.484 38.1062 514.078 38.1062 514.757C38.1062 515.433 37.9798 516.024 37.7269 516.53C37.4741 517.036 37.119 517.429 36.6616 517.71C36.2042 517.991 35.6687 518.132 35.055 518.132ZM35.0593 517.062C35.457 517.062 35.7866 516.957 36.0479 516.747C36.3093 516.537 36.5025 516.257 36.6275 515.908C36.7553 515.558 36.8192 515.173 36.8192 514.753C36.8192 514.335 36.7553 513.952 36.6275 513.602C36.5025 513.25 36.3093 512.967 36.0479 512.754C35.7866 512.541 35.457 512.435 35.0593 512.435C34.6587 512.435 34.3263 512.541 34.0621 512.754C33.8008 512.967 33.6062 513.25 33.4783 513.602C33.3533 513.952 33.2908 514.335 33.2908 514.753C33.2908 515.173 33.3533 515.558 33.4783 515.908C33.6062 516.257 33.8008 516.537 34.0621 516.747C34.3263 516.957 34.6587 517.062 35.0593 517.062ZM43.9783 514.114V518H42.7042V511.455H43.9272V512.52H44.0082C44.1587 512.173 44.3945 511.895 44.7156 511.685C45.0394 511.474 45.4471 511.369 45.9386 511.369C46.3846 511.369 46.7752 511.463 47.1104 511.651C47.4457 511.835 47.7056 512.111 47.8903 512.477C48.0749 512.844 48.1673 513.297 48.1673 513.837V518H46.8931V513.99C46.8931 513.516 46.7695 513.145 46.5224 512.878C46.2752 512.608 45.9357 512.473 45.5039 512.473C45.2085 512.473 44.9457 512.537 44.7156 512.665C44.4883 512.793 44.3079 512.98 44.1744 513.227C44.0437 513.472 43.9783 513.767 43.9783 514.114ZM51.7809 518.145C51.3661 518.145 50.9911 518.068 50.6559 517.915C50.3207 517.759 50.055 517.533 49.859 517.237C49.6658 516.942 49.5692 516.58 49.5692 516.151C49.5692 515.781 49.6403 515.477 49.7823 515.239C49.9244 515 50.1161 514.811 50.3576 514.672C50.5991 514.533 50.869 514.428 51.1673 514.357C51.4656 514.286 51.7695 514.232 52.0792 514.195C52.4712 514.149 52.7894 514.112 53.0337 514.084C53.2781 514.053 53.4556 514.003 53.5664 513.935C53.6772 513.866 53.7326 513.756 53.7326 513.602V513.572C53.7326 513.2 53.6275 512.912 53.4173 512.707C53.2099 512.503 52.9002 512.401 52.4883 512.401C52.0593 512.401 51.7212 512.496 51.4741 512.686C51.2298 512.874 51.0607 513.082 50.967 513.312L49.7695 513.04C49.9116 512.642 50.119 512.321 50.3917 512.077C50.6673 511.83 50.984 511.651 51.342 511.54C51.6999 511.426 52.0763 511.369 52.4712 511.369C52.7326 511.369 53.0096 511.401 53.3022 511.463C53.5977 511.523 53.8732 511.634 54.1289 511.795C54.3874 511.957 54.5991 512.189 54.7638 512.49C54.9286 512.788 55.011 513.176 55.011 513.653V518H53.7667V517.105H53.7156C53.6332 517.27 53.5096 517.432 53.3448 517.591C53.18 517.75 52.9684 517.882 52.7099 517.987C52.4513 518.092 52.1417 518.145 51.7809 518.145ZM52.0579 517.122C52.4102 517.122 52.7113 517.053 52.9613 516.913C53.2141 516.774 53.4059 516.592 53.5366 516.368C53.6701 516.141 53.7369 515.898 53.7369 515.639V514.795C53.6914 514.841 53.6033 514.884 53.4727 514.923C53.3448 514.96 53.1985 514.993 53.0337 515.021C52.869 515.047 52.7085 515.071 52.5522 515.094C52.396 515.114 52.2653 515.131 52.1602 515.145C51.913 515.176 51.6871 515.229 51.4826 515.303C51.2809 515.376 51.119 515.483 50.9968 515.622C50.8775 515.759 50.8178 515.94 50.8178 516.168C50.8178 516.483 50.9343 516.722 51.1673 516.884C51.4002 517.043 51.6971 517.122 52.0579 517.122ZM61.0558 515.78L61.0472 514.224H61.2688L63.8768 511.455H65.4023L62.4279 514.608H62.2276L61.0558 515.78ZM59.8839 518V509.273H61.158V518H59.8839ZM64.0174 518L61.6737 514.889L62.5515 513.999L65.5813 518H64.0174ZM68.4684 518.145C68.0536 518.145 67.6786 518.068 67.3434 517.915C67.0082 517.759 66.7425 517.533 66.5465 517.237C66.3533 516.942 66.2567 516.58 66.2567 516.151C66.2567 515.781 66.3278 515.477 66.4698 515.239C66.6119 515 66.8036 514.811 67.0451 514.672C67.2866 514.533 67.5565 514.428 67.8548 514.357C68.1531 514.286 68.457 514.232 68.7667 514.195C69.1587 514.149 69.4769 514.112 69.7212 514.084C69.9656 514.053 70.1431 514.003 70.2539 513.935C70.3647 513.866 70.4201 513.756 70.4201 513.602V513.572C70.4201 513.2 70.315 512.912 70.1048 512.707C69.8974 512.503 69.5877 512.401 69.1758 512.401C68.7468 512.401 68.4087 512.496 68.1616 512.686C67.9173 512.874 67.7482 513.082 67.6545 513.312L66.457 513.04C66.5991 512.642 66.8065 512.321 67.0792 512.077C67.3548 511.83 67.6715 511.651 68.0295 511.54C68.3874 511.426 68.7638 511.369 69.1587 511.369C69.4201 511.369 69.6971 511.401 69.9897 511.463C70.2852 511.523 70.5607 511.634 70.8164 511.795C71.0749 511.957 71.2866 512.189 71.4513 512.49C71.6161 512.788 71.6985 513.176 71.6985 513.653V518H70.4542V517.105H70.4031C70.3207 517.27 70.1971 517.432 70.0323 517.591C69.8675 517.75 69.6559 517.882 69.3974 517.987C69.1388 518.092 68.8292 518.145 68.4684 518.145ZM68.7454 517.122C69.0977 517.122 69.3988 517.053 69.6488 516.913C69.9016 516.774 70.0934 516.592 70.2241 516.368C70.3576 516.141 70.4244 515.898 70.4244 515.639V514.795C70.3789 514.841 70.2908 514.884 70.1602 514.923C70.0323 514.96 69.886 514.993 69.7212 515.021C69.5565 515.047 69.396 515.071 69.2397 515.094C69.0835 515.114 68.9528 515.131 68.8477 515.145C68.6005 515.176 68.3746 515.229 68.1701 515.303C67.9684 515.376 67.8065 515.483 67.6843 515.622C67.565 515.759 67.5053 515.94 67.5053 516.168C67.5053 516.483 67.6218 516.722 67.8548 516.884C68.0877 517.043 68.3846 517.122 68.7454 517.122ZM73.3956 518V511.455H74.6271V512.494H74.6953C74.8146 512.142 75.0249 511.865 75.326 511.663C75.63 511.459 75.9737 511.357 76.3572 511.357C76.4368 511.357 76.5305 511.359 76.6385 511.365C76.7493 511.371 76.8359 511.378 76.8984 511.386V512.605C76.8473 512.591 76.7564 512.575 76.6257 512.558C76.495 512.538 76.3643 512.528 76.2337 512.528C75.9325 512.528 75.6641 512.592 75.4283 512.72C75.1953 512.845 75.0107 513.02 74.8743 513.244C74.7379 513.466 74.6697 513.719 74.6697 514.003V518H73.3956ZM81.4432 511.455V512.477H77.8679V511.455H81.4432ZM78.8267 509.886H80.1009V516.078C80.1009 516.325 80.1378 516.511 80.2116 516.636C80.2855 516.759 80.3807 516.842 80.4972 516.888C80.6165 516.93 80.7457 516.952 80.8849 516.952C80.9872 516.952 81.0767 516.945 81.1534 516.93C81.2301 516.916 81.2898 516.905 81.3324 516.896L81.5625 517.949C81.4886 517.977 81.3835 518.006 81.2472 518.034C81.1108 518.065 80.9403 518.082 80.7358 518.085C80.4006 518.091 80.0881 518.031 79.7983 517.906C79.5085 517.781 79.2741 517.588 79.0952 517.327C78.9162 517.065 78.8267 516.737 78.8267 516.342V509.886ZM85.6033 518.132C84.9585 518.132 84.4031 517.994 83.9371 517.719C83.4741 517.44 83.1161 517.05 82.8633 516.547C82.6133 516.041 82.4883 515.449 82.4883 514.77C82.4883 514.099 82.6133 513.509 82.8633 512.997C83.1161 512.486 83.4684 512.087 83.9201 511.8C84.3746 511.513 84.9059 511.369 85.5138 511.369C85.8832 511.369 86.2411 511.43 86.5877 511.553C86.9343 511.675 87.2454 511.866 87.521 512.128C87.7965 512.389 88.0138 512.729 88.1729 513.146C88.332 513.561 88.4116 514.065 88.4116 514.659V515.111H83.2085V514.156H87.163C87.163 513.821 87.0948 513.524 86.9585 513.266C86.8221 513.004 86.6303 512.798 86.3832 512.648C86.1388 512.497 85.8519 512.422 85.5224 512.422C85.1644 512.422 84.8519 512.51 84.5849 512.686C84.3207 512.859 84.1161 513.087 83.9712 513.368C83.8292 513.646 83.7582 513.949 83.7582 514.276V515.021C83.7582 515.459 83.8349 515.831 83.9883 516.138C84.1445 516.445 84.3619 516.679 84.6403 516.841C84.9187 517 85.244 517.08 85.6161 517.08C85.8576 517.08 86.0778 517.045 86.2766 516.977C86.4755 516.906 86.6474 516.801 86.7923 516.662C86.9371 516.523 87.0479 516.351 87.1246 516.146L88.3306 516.364C88.234 516.719 88.0607 517.03 87.8107 517.297C87.5636 517.561 87.2525 517.767 86.8775 517.915C86.5053 518.06 86.0806 518.132 85.6033 518.132ZM84.5891 508.8L85.467 509.942L86.3406 508.8H87.4954V508.864L85.9954 510.67H84.9343L83.4386 508.864V508.8H84.5891Z" fill="#2E2F30"/>
<rect y="352" width="268" height="1" fill="#A2ACAF" fill-opacity="0.75"/>
</svg>
