<svg width="568" height="310" viewBox="0 0 568 310" fill="none" xmlns="http://www.w3.org/2000/svg">
<path d="M447.75 275L429 293.75L420.25 285L414 291.25L429 306.25L454 281.25L447.75 275Z" fill="#1FE03E"/>
<g clip-path="url(#clip0_129_274)">
<path d="M149.708 299.708L140 290L149.708 280.292C149.894 280.104 149.998 279.85 149.998 279.585C149.998 279.32 149.894 279.066 149.708 278.878L145.122 274.292C145.029 274.199 144.919 274.125 144.798 274.075C144.676 274.024 144.546 273.999 144.415 273.999C144.284 273.999 144.154 274.024 144.032 274.075C143.911 274.125 143.801 274.199 143.708 274.292L134 284L124.292 274.292C124.105 274.105 123.85 273.999 123.585 273.999C123.32 273.999 123.066 274.105 122.878 274.292L118.292 278.878C118.199 278.971 118.125 279.081 118.075 279.202C118.024 279.324 117.998 279.454 117.998 279.585C117.998 279.717 118.024 279.847 118.075 279.968C118.125 280.089 118.199 280.199 118.292 280.292L128 290L118.292 299.708C118.105 299.896 117.999 300.15 117.999 300.415C117.999 300.68 118.105 300.935 118.292 301.122L122.878 305.708C122.971 305.801 123.081 305.875 123.202 305.925C123.324 305.976 123.454 306.002 123.585 306.002C123.716 306.002 123.846 305.976 123.968 305.925C124.089 305.875 124.199 305.801 124.292 305.708L134 296L143.708 305.708C143.896 305.896 144.15 306.001 144.415 306.001C144.68 306.001 144.935 305.896 145.122 305.708L149.708 301.122C149.801 301.029 149.875 300.919 149.925 300.798C149.976 300.677 150.002 300.547 150.002 300.415C150.002 300.284 149.976 300.154 149.925 300.032C149.875 299.911 149.801 299.801 149.708 299.708V299.708Z" fill="#E01F1F"/>
</g>
<rect y="18" width="268" height="36" rx="2" fill="#EBF2F4"/>
<path d="M8.20739 6.1108H6.87784C6.8267 5.8267 6.73153 5.5767 6.59233 5.3608C6.45313 5.14489 6.28267 4.96165 6.08097 4.81108C5.87926 4.66051 5.65341 4.54687 5.40341 4.47017C5.15625 4.39347 4.89347 4.35511 4.61506 4.35511C4.11222 4.35511 3.66193 4.48153 3.2642 4.73438C2.86932 4.98722 2.55682 5.35795 2.3267 5.84659C2.09943 6.33523 1.9858 6.93182 1.9858 7.63636C1.9858 8.34659 2.09943 8.94602 2.3267 9.43466C2.55682 9.9233 2.87074 10.2926 3.26847 10.5426C3.66619 10.7926 4.11364 10.9176 4.6108 10.9176C4.88636 10.9176 5.14773 10.8807 5.39489 10.8068C5.64489 10.7301 5.87074 10.6179 6.07244 10.4702C6.27415 10.3224 6.4446 10.142 6.58381 9.92898C6.72585 9.71307 6.82386 9.46591 6.87784 9.1875L8.20739 9.19176C8.13636 9.62074 7.99858 10.0156 7.79403 10.3764C7.59233 10.7344 7.33239 11.044 7.0142 11.3054C6.69886 11.5639 6.33807 11.7642 5.93182 11.9062C5.52557 12.0483 5.08239 12.1193 4.60227 12.1193C3.84659 12.1193 3.1733 11.9403 2.58239 11.5824C1.99148 11.2216 1.52557 10.706 1.18466 10.0355C0.846591 9.36506 0.677557 8.56534 0.677557 7.63636C0.677557 6.70455 0.848011 5.90483 1.18892 5.23722C1.52983 4.56676 1.99574 4.05256 2.58665 3.6946C3.17756 3.33381 3.84943 3.15341 4.60227 3.15341C5.06534 3.15341 5.49716 3.22017 5.89773 3.35369C6.30114 3.48437 6.66335 3.67756 6.98438 3.93324C7.3054 4.18608 7.57102 4.49574 7.78125 4.86222C7.99148 5.22585 8.13352 5.64205 8.20739 6.1108ZM3.72443 0.617897L4.60227 1.75994L5.47585 0.617897H6.63068V0.681818L5.13068 2.48864H4.0696L2.57386 0.681818V0.617897H3.72443ZM9.68075 12V5.45455H10.9549V12H9.68075ZM9.80007 4.58097L10.7972 2.61648H12.1396L10.8185 4.58097H9.80007ZM17.5739 7.05256L16.419 7.2571C16.3707 7.10937 16.294 6.96875 16.1889 6.83523C16.0866 6.7017 15.9474 6.59233 15.7713 6.5071C15.5952 6.42187 15.375 6.37926 15.1108 6.37926C14.75 6.37926 14.4489 6.46023 14.2074 6.62216C13.9659 6.78125 13.8452 6.98722 13.8452 7.24006C13.8452 7.45881 13.9261 7.63494 14.0881 7.76847C14.25 7.90199 14.5114 8.01136 14.8722 8.09659L15.9119 8.33523C16.5142 8.47443 16.9631 8.68892 17.2585 8.97869C17.554 9.26847 17.7017 9.64489 17.7017 10.108C17.7017 10.5 17.5881 10.8494 17.3608 11.1562C17.1364 11.4602 16.8224 11.6989 16.419 11.8722C16.0185 12.0455 15.554 12.1321 15.0256 12.1321C14.2926 12.1321 13.6946 11.9759 13.2315 11.6634C12.7685 11.348 12.4844 10.9006 12.3793 10.321L13.6108 10.1335C13.6875 10.4545 13.8452 10.6974 14.0838 10.8622C14.3224 11.0241 14.6335 11.1051 15.017 11.1051C15.4347 11.1051 15.7685 11.0185 16.0185 10.8452C16.2685 10.669 16.3935 10.4545 16.3935 10.2017C16.3935 9.99716 16.3168 9.82528 16.1634 9.68608C16.0128 9.54687 15.7812 9.44176 15.4688 9.37074L14.3608 9.12784C13.75 8.98864 13.2983 8.76705 13.0057 8.46307C12.7159 8.15909 12.571 7.77415 12.571 7.30824C12.571 6.92187 12.679 6.58381 12.8949 6.29403C13.1108 6.00426 13.4091 5.77841 13.7898 5.61648C14.1705 5.4517 14.6065 5.36932 15.098 5.36932C15.8054 5.36932 16.3622 5.52273 16.7685 5.82955C17.1747 6.13352 17.4432 6.54119 17.5739 7.05256ZM20.3768 3.27273V12H19.1026V3.27273H20.3768ZM24.848 12.1321C24.2344 12.1321 23.6989 11.9915 23.2415 11.7102C22.7841 11.429 22.429 11.0355 22.1761 10.5298C21.9233 10.0241 21.7969 9.43324 21.7969 8.7571C21.7969 8.07812 21.9233 7.48437 22.1761 6.97585C22.429 6.46733 22.7841 6.07244 23.2415 5.79119C23.6989 5.50994 24.2344 5.36932 24.848 5.36932C25.4616 5.36932 25.9972 5.50994 26.4545 5.79119C26.9119 6.07244 27.267 6.46733 27.5199 6.97585C27.7727 7.48437 27.8991 8.07812 27.8991 8.7571C27.8991 9.43324 27.7727 10.0241 27.5199 10.5298C27.267 11.0355 26.9119 11.429 26.4545 11.7102C25.9972 11.9915 25.4616 12.1321 24.848 12.1321ZM24.8523 11.0625C25.25 11.0625 25.5795 10.9574 25.8409 10.7472C26.1023 10.5369 26.2955 10.2571 26.4205 9.90767C26.5483 9.55824 26.6122 9.1733 26.6122 8.75284C26.6122 8.33523 26.5483 7.9517 26.4205 7.60227C26.2955 7.25 26.1023 6.96733 25.8409 6.75426C25.5795 6.54119 25.25 6.43466 24.8523 6.43466C24.4517 6.43466 24.1193 6.54119 23.8551 6.75426C23.5938 6.96733 23.3991 7.25 23.2713 7.60227C23.1463 7.9517 23.0838 8.33523 23.0838 8.75284C23.0838 9.1733 23.1463 9.55824 23.2713 9.90767C23.3991 10.2571 23.5938 10.5369 23.8551 10.7472C24.1193 10.9574 24.4517 11.0625 24.8523 11.0625ZM33.669 9.77983L33.6605 8.22443H33.8821L36.4901 5.45455H38.0156L35.0412 8.60795H34.8409L33.669 9.77983ZM32.4972 12V3.27273H33.7713V12H32.4972ZM36.6307 12L34.2869 8.8892L35.1648 7.99858L38.1946 12H36.6307ZM39.1768 12V5.45455H40.4084V6.49432H40.4766C40.5959 6.14205 40.8061 5.86506 41.1072 5.66335C41.4112 5.45881 41.755 5.35653 42.1385 5.35653C42.218 5.35653 42.3118 5.35937 42.4197 5.36506C42.5305 5.37074 42.6172 5.37784 42.6797 5.38636V6.60511C42.6286 6.59091 42.5376 6.57528 42.407 6.55824C42.2763 6.53835 42.1456 6.52841 42.0149 6.52841C41.7138 6.52841 41.4453 6.59233 41.2095 6.72017C40.9766 6.84517 40.7919 7.01989 40.6555 7.24432C40.5192 7.46591 40.451 7.71875 40.451 8.00284V12H39.1768ZM46.369 12.1321C45.7241 12.1321 45.1687 11.9943 44.7028 11.7188C44.2397 11.4403 43.8817 11.0497 43.6289 10.5469C43.3789 10.0412 43.2539 9.44886 43.2539 8.76989C43.2539 8.09943 43.3789 7.50852 43.6289 6.99716C43.8817 6.4858 44.234 6.08665 44.6857 5.79972C45.1403 5.51278 45.6715 5.36932 46.2795 5.36932C46.6488 5.36932 47.0067 5.4304 47.3533 5.55256C47.6999 5.67472 48.011 5.86648 48.2866 6.12784C48.5621 6.3892 48.7795 6.72869 48.9386 7.14631C49.0977 7.56108 49.1772 8.06534 49.1772 8.65909V9.1108H43.9741V8.15625H47.9286C47.9286 7.82102 47.8604 7.52415 47.7241 7.26562C47.5877 7.00426 47.396 6.7983 47.1488 6.64773C46.9045 6.49716 46.6175 6.42188 46.288 6.42188C45.93 6.42188 45.6175 6.50994 45.3505 6.68608C45.0863 6.85937 44.8817 7.08665 44.7369 7.3679C44.5948 7.64631 44.5238 7.94886 44.5238 8.27557V9.02131C44.5238 9.45881 44.6005 9.83097 44.7539 10.1378C44.9102 10.4446 45.1275 10.679 45.4059 10.8409C45.6843 11 46.0096 11.0795 46.3817 11.0795C46.6232 11.0795 46.8434 11.0455 47.0423 10.9773C47.2411 10.9062 47.413 10.8011 47.5579 10.6619C47.7028 10.5227 47.8136 10.3509 47.8903 10.1463L49.0962 10.3636C48.9996 10.7187 48.8263 11.0298 48.5763 11.2969C48.3292 11.5611 48.0181 11.767 47.6431 11.9148C47.271 12.0597 46.8462 12.1321 46.369 12.1321ZM53.0412 12.1278C52.5128 12.1278 52.0412 11.9929 51.6264 11.723C51.2145 11.4503 50.8906 11.0625 50.6548 10.5597C50.4219 10.054 50.3054 9.44744 50.3054 8.74006C50.3054 8.03267 50.4233 7.42756 50.6591 6.92472C50.8977 6.42187 51.2244 6.03693 51.6392 5.76989C52.054 5.50284 52.5241 5.36932 53.0497 5.36932C53.456 5.36932 53.7827 5.4375 54.0298 5.57386C54.2798 5.70739 54.473 5.86364 54.6094 6.04261C54.7486 6.22159 54.8565 6.37926 54.9332 6.51562H55.0099V3.27273H56.2841V12H55.0398V10.9815H54.9332C54.8565 11.1207 54.7457 11.2798 54.6009 11.4588C54.4588 11.6378 54.2628 11.794 54.0128 11.9276C53.7628 12.0611 53.4389 12.1278 53.0412 12.1278ZM53.3224 11.0412C53.6889 11.0412 53.9986 10.9446 54.2514 10.7514C54.5071 10.5554 54.7003 10.2841 54.831 9.9375C54.9645 9.59091 55.0312 9.1875 55.0312 8.72727C55.0312 8.27273 54.9659 7.875 54.8352 7.53409C54.7045 7.19318 54.5128 6.92756 54.2599 6.73722C54.0071 6.54687 53.6946 6.4517 53.3224 6.4517C52.9389 6.4517 52.6193 6.55114 52.3636 6.75C52.108 6.94886 51.9148 7.22017 51.7841 7.56392C51.6563 7.90767 51.5923 8.29545 51.5923 8.72727C51.5923 9.16477 51.6577 9.55824 51.7884 9.90767C51.919 10.2571 52.1122 10.5341 52.3679 10.7386C52.6264 10.9403 52.9446 11.0412 53.3224 11.0412ZM58.1026 12V5.45455H59.3768V12H58.1026ZM58.7461 4.4446C58.5245 4.4446 58.3342 4.37074 58.1751 4.22301C58.0188 4.07244 57.9407 3.89347 57.9407 3.68608C57.9407 3.47585 58.0188 3.29687 58.1751 3.14915C58.3342 2.99858 58.5245 2.9233 58.7461 2.9233C58.9677 2.9233 59.1566 2.99858 59.3129 3.14915C59.4719 3.29687 59.5515 3.47585 59.5515 3.68608C59.5515 3.89347 59.4719 4.07244 59.3129 4.22301C59.1566 4.37074 58.9677 4.4446 58.7461 4.4446ZM64.1463 5.45455V6.47727H60.571V5.45455H64.1463ZM61.5298 3.88636H62.804V10.0781C62.804 10.3253 62.8409 10.5114 62.9148 10.6364C62.9886 10.7585 63.0838 10.8423 63.2003 10.8878C63.3196 10.9304 63.4489 10.9517 63.5881 10.9517C63.6903 10.9517 63.7798 10.9446 63.8565 10.9304C63.9332 10.9162 63.9929 10.9048 64.0355 10.8963L64.2656 11.9489C64.1918 11.9773 64.0866 12.0057 63.9503 12.0341C63.8139 12.0653 63.6435 12.0824 63.4389 12.0852C63.1037 12.0909 62.7912 12.0312 62.5014 11.9062C62.2116 11.7812 61.9773 11.5881 61.7983 11.3267C61.6193 11.0653 61.5298 10.7372 61.5298 10.3423V3.88636ZM66.8299 8.11364V12H65.5558V5.45455H66.7788V6.51989H66.8597C67.0103 6.1733 67.2461 5.89489 67.5671 5.68466C67.891 5.47443 68.2987 5.36932 68.7901 5.36932C69.2362 5.36932 69.6268 5.46307 69.962 5.65057C70.2972 5.83523 70.5572 6.1108 70.7418 6.47727C70.9265 6.84375 71.0188 7.29687 71.0188 7.83665V12H69.7447V7.99006C69.7447 7.51562 69.6211 7.14489 69.3739 6.87784C69.1268 6.60795 68.7873 6.47301 68.3555 6.47301C68.06 6.47301 67.7972 6.53693 67.5671 6.66477C67.3398 6.79261 67.1594 6.98011 67.0259 7.22727C66.8952 7.47159 66.8299 7.76705 66.8299 8.11364ZM72.7276 12V5.45455H74.0018V12H72.7276ZM72.8469 4.58097L73.8441 2.61648H75.1864L73.8654 4.58097H72.8469ZM80.0636 9.77983L80.055 8.22443H80.2766L82.8846 5.45455H84.4102L81.4357 8.60795H81.2354L80.0636 9.77983ZM78.8917 12V3.27273H80.1658V12H78.8917ZM83.0252 12L80.6815 8.8892L81.5593 7.99858L84.5891 12H83.0252ZM87.4762 12.1449C87.0614 12.1449 86.6864 12.0682 86.3512 11.9148C86.016 11.7585 85.7504 11.5327 85.5543 11.2372C85.3612 10.9418 85.2646 10.5795 85.2646 10.1506C85.2646 9.78125 85.3356 9.47727 85.4776 9.23864C85.6197 9 85.8114 8.81108 86.0529 8.67188C86.2944 8.53267 86.5643 8.42756 86.8626 8.35653C87.1609 8.28551 87.4648 8.23153 87.7745 8.1946C88.1665 8.14915 88.4847 8.11222 88.729 8.08381C88.9734 8.05256 89.1509 8.00284 89.2617 7.93466C89.3725 7.86648 89.4279 7.75568 89.4279 7.60227V7.57244C89.4279 7.20028 89.3228 6.91193 89.1126 6.70739C88.9052 6.50284 88.5955 6.40057 88.1836 6.40057C87.7546 6.40057 87.4165 6.49574 87.1694 6.68608C86.9251 6.87358 86.756 7.08239 86.6623 7.3125L85.4648 7.03977C85.6069 6.64205 85.8143 6.32102 86.087 6.0767C86.3626 5.82955 86.6793 5.65057 87.0373 5.53977C87.3952 5.42614 87.7717 5.36932 88.1665 5.36932C88.4279 5.36932 88.7049 5.40057 88.9975 5.46307C89.293 5.52273 89.5685 5.63352 89.8242 5.79545C90.0827 5.95739 90.2944 6.18892 90.4592 6.49006C90.6239 6.78835 90.7063 7.17614 90.7063 7.65341V12H89.462V11.1051H89.4109C89.3285 11.2699 89.2049 11.4318 89.0401 11.5909C88.8754 11.75 88.6637 11.8821 88.4052 11.9872C88.1467 12.0923 87.837 12.1449 87.4762 12.1449ZM87.7532 11.1222C88.1055 11.1222 88.4066 11.0526 88.6566 10.9134C88.9094 10.7741 89.1012 10.5923 89.2319 10.3679C89.3654 10.1406 89.4322 9.89773 89.4322 9.6392V8.79545C89.3867 8.84091 89.2987 8.88352 89.168 8.9233C89.0401 8.96023 88.8938 8.9929 88.729 9.02131C88.5643 9.04687 88.4038 9.07102 88.2475 9.09375C88.0913 9.11364 87.9606 9.13068 87.8555 9.14489C87.6083 9.17614 87.3825 9.22869 87.1779 9.30256C86.9762 9.37642 86.8143 9.48295 86.6921 9.62216C86.5728 9.75852 86.5131 9.94034 86.5131 10.1676C86.5131 10.483 86.6296 10.7216 86.8626 10.8835C87.0955 11.0426 87.3924 11.1222 87.7532 11.1222ZM92.4034 12V5.45455H93.6349V6.49432H93.7031C93.8224 6.14205 94.0327 5.86506 94.3338 5.66335C94.6378 5.45881 94.9815 5.35653 95.3651 5.35653C95.4446 5.35653 95.5384 5.35937 95.6463 5.36506C95.7571 5.37074 95.8438 5.37784 95.9062 5.38636V6.60511C95.8551 6.59091 95.7642 6.57528 95.6335 6.55824C95.5028 6.53835 95.3722 6.52841 95.2415 6.52841C94.9403 6.52841 94.6719 6.59233 94.4361 6.72017C94.2031 6.84517 94.0185 7.01989 93.8821 7.24432C93.7457 7.46591 93.6776 7.71875 93.6776 8.00284V12H92.4034ZM100.451 5.45455V6.47727H96.8757V5.45455H100.451ZM97.8345 3.88636H99.1087V10.0781C99.1087 10.3253 99.1456 10.5114 99.2195 10.6364C99.2933 10.7585 99.3885 10.8423 99.505 10.8878C99.6243 10.9304 99.7536 10.9517 99.8928 10.9517C99.995 10.9517 100.085 10.9446 100.161 10.9304C100.238 10.9162 100.298 10.9048 100.34 10.8963L100.57 11.9489C100.496 11.9773 100.391 12.0057 100.255 12.0341C100.119 12.0653 99.9482 12.0824 99.7436 12.0852C99.4084 12.0909 99.0959 12.0312 98.8061 11.9062C98.5163 11.7812 98.282 11.5881 98.103 11.3267C97.924 11.0653 97.8345 10.7372 97.8345 10.3423V3.88636ZM102.666 14.4545C102.475 14.4545 102.302 14.4389 102.146 14.4077C101.99 14.3793 101.873 14.348 101.797 14.3139L102.103 13.2699C102.336 13.3324 102.544 13.3594 102.725 13.3509C102.907 13.3423 103.068 13.2741 103.207 13.1463C103.349 13.0185 103.474 12.8097 103.582 12.5199L103.74 12.0852L101.345 5.45455H102.708L104.366 10.5341H104.434L106.092 5.45455H107.46L104.762 12.8736C104.637 13.2145 104.478 13.5028 104.285 13.7386C104.092 13.9773 103.862 14.1563 103.595 14.2756C103.328 14.3949 103.018 14.4545 102.666 14.4545Z" fill="#2E2F30"/>
<rect y="86" width="268" height="36" rx="2" fill="#EBF2F4"/>
<path d="M1.69602 80H0.298295L3.43892 71.2727H4.96023L8.10085 80H6.70312L4.2358 72.858H4.16761L1.69602 80ZM1.9304 76.5824H6.46449V77.6903H1.9304V76.5824ZM11.6037 80.1278C11.0753 80.1278 10.6037 79.9929 10.1889 79.723C9.77699 79.4503 9.45313 79.0625 9.21733 78.5597C8.98438 78.054 8.8679 77.4474 8.8679 76.7401C8.8679 76.0327 8.9858 75.4276 9.22159 74.9247C9.46023 74.4219 9.78693 74.0369 10.2017 73.7699C10.6165 73.5028 11.0866 73.3693 11.6122 73.3693C12.0185 73.3693 12.3452 73.4375 12.5923 73.5739C12.8423 73.7074 13.0355 73.8636 13.1719 74.0426C13.3111 74.2216 13.419 74.3793 13.4957 74.5156H13.5724V71.2727H14.8466V80H13.6023V78.9815H13.4957C13.419 79.1207 13.3082 79.2798 13.1634 79.4588C13.0213 79.6378 12.8253 79.794 12.5753 79.9276C12.3253 80.0611 12.0014 80.1278 11.6037 80.1278ZM11.8849 79.0412C12.2514 79.0412 12.5611 78.9446 12.8139 78.7514C13.0696 78.5554 13.2628 78.2841 13.3935 77.9375C13.527 77.5909 13.5938 77.1875 13.5938 76.7273C13.5938 76.2727 13.5284 75.875 13.3977 75.5341C13.267 75.1932 13.0753 74.9276 12.8224 74.7372C12.5696 74.5469 12.2571 74.4517 11.8849 74.4517C11.5014 74.4517 11.1818 74.5511 10.9261 74.75C10.6705 74.9489 10.4773 75.2202 10.3466 75.5639C10.2188 75.9077 10.1548 76.2955 10.1548 76.7273C10.1548 77.1648 10.2202 77.5582 10.3509 77.9077C10.4815 78.2571 10.6747 78.5341 10.9304 78.7386C11.1889 78.9403 11.5071 79.0412 11.8849 79.0412ZM16.6651 80V73.4545H17.8967V74.4943H17.9648C18.0842 74.142 18.2944 73.8651 18.5955 73.6634C18.8995 73.4588 19.2433 73.3565 19.6268 73.3565C19.7063 73.3565 19.8001 73.3594 19.908 73.3651C20.0188 73.3707 20.1055 73.3778 20.168 73.3864V74.6051C20.1168 74.5909 20.0259 74.5753 19.8952 74.5582C19.7646 74.5384 19.6339 74.5284 19.5032 74.5284C19.2021 74.5284 18.9336 74.5923 18.6978 74.7202C18.4648 74.8452 18.2802 75.0199 18.1438 75.2443C18.0075 75.4659 17.9393 75.7187 17.9393 76.0028V80H16.6651ZM23.8572 80.1321C23.2124 80.1321 22.657 79.9943 22.1911 79.7188C21.728 79.4403 21.37 79.0497 21.1172 78.5469C20.8672 78.0412 20.7422 77.4489 20.7422 76.7699C20.7422 76.0994 20.8672 75.5085 21.1172 74.9972C21.37 74.4858 21.7223 74.0866 22.174 73.7997C22.6286 73.5128 23.1598 73.3693 23.7678 73.3693C24.1371 73.3693 24.495 73.4304 24.8416 73.5526C25.1882 73.6747 25.4993 73.8665 25.7749 74.1278C26.0504 74.3892 26.2678 74.7287 26.4268 75.1463C26.5859 75.5611 26.6655 76.0653 26.6655 76.6591V77.1108H21.4624V76.1562H25.4169C25.4169 75.821 25.3487 75.5241 25.2124 75.2656C25.076 75.0043 24.8842 74.7983 24.6371 74.6477C24.3928 74.4972 24.1058 74.4219 23.7763 74.4219C23.4183 74.4219 23.1058 74.5099 22.8388 74.6861C22.5746 74.8594 22.37 75.0866 22.2251 75.3679C22.0831 75.6463 22.0121 75.9489 22.0121 76.2756V77.0213C22.0121 77.4588 22.0888 77.831 22.2422 78.1378C22.3984 78.4446 22.6158 78.679 22.8942 78.8409C23.1726 79 23.4979 79.0795 23.87 79.0795C24.1115 79.0795 24.3317 79.0455 24.5305 78.9773C24.7294 78.9062 24.9013 78.8011 25.0462 78.6619C25.1911 78.5227 25.3018 78.3509 25.3786 78.1463L26.5845 78.3636C26.4879 78.7187 26.3146 79.0298 26.0646 79.2969C25.8175 79.5611 25.5064 79.767 25.1314 79.9148C24.7592 80.0597 24.3345 80.1321 23.8572 80.1321ZM32.984 75.0526L31.8292 75.2571C31.7809 75.1094 31.7042 74.9687 31.5991 74.8352C31.4968 74.7017 31.3576 74.5923 31.1815 74.5071C31.0053 74.4219 30.7852 74.3793 30.521 74.3793C30.1602 74.3793 29.859 74.4602 29.6175 74.6222C29.3761 74.7812 29.2553 74.9872 29.2553 75.2401C29.2553 75.4588 29.3363 75.6349 29.4982 75.7685C29.6602 75.902 29.9215 76.0114 30.2823 76.0966L31.3221 76.3352C31.9244 76.4744 32.3732 76.6889 32.6687 76.9787C32.9641 77.2685 33.1119 77.6449 33.1119 78.108C33.1119 78.5 32.9982 78.8494 32.771 79.1562C32.5465 79.4602 32.2326 79.6989 31.8292 79.8722C31.4286 80.0455 30.9641 80.1321 30.4357 80.1321C29.7028 80.1321 29.1048 79.9759 28.6417 79.6634C28.1786 79.348 27.8945 78.9006 27.7894 78.321L29.021 78.1335C29.0977 78.4545 29.2553 78.6974 29.494 78.8622C29.7326 79.0241 30.0437 79.1051 30.4272 79.1051C30.8448 79.1051 31.1786 79.0185 31.4286 78.8452C31.6786 78.669 31.8036 78.4545 31.8036 78.2017C31.8036 77.9972 31.7269 77.8253 31.5735 77.6861C31.4229 77.5469 31.1914 77.4418 30.8789 77.3707L29.771 77.1278C29.1602 76.9886 28.7085 76.767 28.4158 76.4631C28.1261 76.1591 27.9812 75.7741 27.9812 75.3082C27.9812 74.9219 28.0891 74.5838 28.305 74.294C28.521 74.0043 28.8192 73.7784 29.1999 73.6165C29.5806 73.4517 30.0167 73.3693 30.5082 73.3693C31.2156 73.3693 31.7724 73.5227 32.1786 73.8295C32.5849 74.1335 32.8533 74.5412 32.984 75.0526ZM36.4176 80.1449C36.0028 80.1449 35.6278 80.0682 35.2926 79.9148C34.9574 79.7585 34.6918 79.5327 34.4957 79.2372C34.3026 78.9418 34.206 78.5795 34.206 78.1506C34.206 77.7812 34.277 77.4773 34.419 77.2386C34.5611 77 34.7528 76.8111 34.9943 76.6719C35.2358 76.5327 35.5057 76.4276 35.804 76.3565C36.1023 76.2855 36.4063 76.2315 36.7159 76.1946C37.108 76.1491 37.4261 76.1122 37.6705 76.0838C37.9148 76.0526 38.0923 76.0028 38.2031 75.9347C38.3139 75.8665 38.3693 75.7557 38.3693 75.6023V75.5724C38.3693 75.2003 38.2642 74.9119 38.054 74.7074C37.8466 74.5028 37.5369 74.4006 37.125 74.4006C36.696 74.4006 36.358 74.4957 36.1108 74.6861C35.8665 74.8736 35.6974 75.0824 35.6037 75.3125L34.4062 75.0398C34.5483 74.642 34.7557 74.321 35.0284 74.0767C35.304 73.8295 35.6207 73.6506 35.9787 73.5398C36.3366 73.4261 36.7131 73.3693 37.108 73.3693C37.3693 73.3693 37.6463 73.4006 37.9389 73.4631C38.2344 73.5227 38.5099 73.6335 38.7656 73.7955C39.0241 73.9574 39.2358 74.1889 39.4006 74.4901C39.5653 74.7884 39.6477 75.1761 39.6477 75.6534V80H38.4034V79.1051H38.3523C38.2699 79.2699 38.1463 79.4318 37.9815 79.5909C37.8168 79.75 37.6051 79.8821 37.3466 79.9872C37.0881 80.0923 36.7784 80.1449 36.4176 80.1449ZM36.6946 79.1222C37.0469 79.1222 37.348 79.0526 37.598 78.9134C37.8509 78.7741 38.0426 78.5923 38.1733 78.3679C38.3068 78.1406 38.3736 77.8977 38.3736 77.6392V76.7955C38.3281 76.8409 38.2401 76.8835 38.1094 76.9233C37.9815 76.9602 37.8352 76.9929 37.6705 77.0213C37.5057 77.0469 37.3452 77.071 37.1889 77.0938C37.0327 77.1136 36.902 77.1307 36.7969 77.1449C36.5497 77.1761 36.3239 77.2287 36.1193 77.3026C35.9176 77.3764 35.7557 77.483 35.6335 77.6222C35.5142 77.7585 35.4545 77.9403 35.4545 78.1676C35.4545 78.483 35.571 78.7216 35.804 78.8835C36.0369 79.0426 36.3338 79.1222 36.6946 79.1222Z" fill="#2E2F30"/>
<rect y="154" width="268" height="36" rx="2" fill="#EBF2F4"/>
<path d="M4.35085 139.273H5.66335V145.46C5.66335 146.02 5.55256 146.499 5.33097 146.896C5.11222 147.294 4.80398 147.598 4.40625 147.808C4.00852 148.016 3.54261 148.119 3.00852 148.119C2.51705 148.119 2.07528 148.03 1.68324 147.851C1.29403 147.672 0.985795 147.412 0.758523 147.071C0.534091 146.727 0.421875 146.31 0.421875 145.818H1.73011C1.73011 146.06 1.78551 146.268 1.89631 146.445C2.00994 146.621 2.16477 146.759 2.3608 146.858C2.55966 146.955 2.78693 147.003 3.04261 147.003C3.32102 147.003 3.55682 146.945 3.75 146.828C3.94602 146.709 4.09517 146.534 4.19744 146.304C4.29972 146.074 4.35085 145.793 4.35085 145.46V139.273ZM7.47763 148V141.455H8.70064V142.52H8.78161C8.91797 142.159 9.14098 141.878 9.45064 141.676C9.7603 141.472 10.131 141.369 10.5629 141.369C11.0004 141.369 11.3668 141.472 11.6623 141.676C11.9606 141.881 12.1808 142.162 12.3228 142.52H12.391C12.5472 142.17 12.7958 141.892 13.1367 141.685C13.4776 141.474 13.8839 141.369 14.3555 141.369C14.9492 141.369 15.4336 141.555 15.8086 141.928C16.1864 142.3 16.3754 142.861 16.3754 143.611V148H15.1012V143.73C15.1012 143.287 14.9805 142.966 14.739 142.767C14.4975 142.568 14.2092 142.469 13.8739 142.469C13.4592 142.469 13.1367 142.597 12.9066 142.852C12.6765 143.105 12.5614 143.43 12.5614 143.828V148H11.2915V143.649C11.2915 143.294 11.1808 143.009 10.9592 142.793C10.7376 142.577 10.4492 142.469 10.0941 142.469C9.85263 142.469 9.62962 142.533 9.42507 142.661C9.22337 142.786 9.06001 142.96 8.93501 143.185C8.81286 143.409 8.75178 143.669 8.75178 143.964V148H7.47763ZM20.9041 148.132C20.2592 148.132 19.7038 147.994 19.2379 147.719C18.7749 147.44 18.4169 147.05 18.1641 146.547C17.9141 146.041 17.7891 145.449 17.7891 144.77C17.7891 144.099 17.9141 143.509 18.1641 142.997C18.4169 142.486 18.7692 142.087 19.2209 141.8C19.6754 141.513 20.2067 141.369 20.8146 141.369C21.1839 141.369 21.5419 141.43 21.8885 141.553C22.2351 141.675 22.5462 141.866 22.8217 142.128C23.0973 142.389 23.3146 142.729 23.4737 143.146C23.6328 143.561 23.7124 144.065 23.7124 144.659V145.111H18.5092V144.156H22.4638C22.4638 143.821 22.3956 143.524 22.2592 143.266C22.1229 143.004 21.9311 142.798 21.6839 142.648C21.4396 142.497 21.1527 142.422 20.8232 142.422C20.4652 142.422 20.1527 142.51 19.8857 142.686C19.6214 142.859 19.4169 143.087 19.272 143.368C19.13 143.646 19.0589 143.949 19.0589 144.276V145.021C19.0589 145.459 19.1357 145.831 19.2891 146.138C19.4453 146.445 19.6626 146.679 19.9411 146.841C20.2195 147 20.5447 147.08 20.9169 147.08C21.1584 147.08 21.3786 147.045 21.5774 146.977C21.7763 146.906 21.9482 146.801 22.093 146.662C22.2379 146.523 22.3487 146.351 22.4254 146.146L23.6314 146.364C23.5348 146.719 23.3615 147.03 23.1115 147.297C22.8643 147.561 22.5533 147.767 22.1783 147.915C21.8061 148.06 21.3814 148.132 20.9041 148.132ZM20.2393 140.581L21.2365 138.616H22.5788L21.2578 140.581H20.2393ZM26.4002 144.114V148H25.1261V141.455H26.3491V142.52H26.43C26.5806 142.173 26.8164 141.895 27.1374 141.685C27.4613 141.474 27.869 141.369 28.3604 141.369C28.8065 141.369 29.1971 141.463 29.5323 141.651C29.8675 141.835 30.1275 142.111 30.3121 142.477C30.4968 142.844 30.5891 143.297 30.5891 143.837V148H29.315V143.99C29.315 143.516 29.1914 143.145 28.9442 142.878C28.6971 142.608 28.3576 142.473 27.9258 142.473C27.6303 142.473 27.3675 142.537 27.1374 142.665C26.9102 142.793 26.7298 142.98 26.5962 143.227C26.4656 143.472 26.4002 143.767 26.4002 144.114ZM35.055 148.132C34.4414 148.132 33.9059 147.991 33.4485 147.71C32.9911 147.429 32.636 147.036 32.3832 146.53C32.1303 146.024 32.0039 145.433 32.0039 144.757C32.0039 144.078 32.1303 143.484 32.3832 142.976C32.636 142.467 32.9911 142.072 33.4485 141.791C33.9059 141.51 34.4414 141.369 35.055 141.369C35.6687 141.369 36.2042 141.51 36.6616 141.791C37.119 142.072 37.4741 142.467 37.7269 142.976C37.9798 143.484 38.1062 144.078 38.1062 144.757C38.1062 145.433 37.9798 146.024 37.7269 146.53C37.4741 147.036 37.119 147.429 36.6616 147.71C36.2042 147.991 35.6687 148.132 35.055 148.132ZM35.0593 147.062C35.457 147.062 35.7866 146.957 36.0479 146.747C36.3093 146.537 36.5025 146.257 36.6275 145.908C36.7553 145.558 36.8192 145.173 36.8192 144.753C36.8192 144.335 36.7553 143.952 36.6275 143.602C36.5025 143.25 36.3093 142.967 36.0479 142.754C35.7866 142.541 35.457 142.435 35.0593 142.435C34.6587 142.435 34.3263 142.541 34.0621 142.754C33.8008 142.967 33.6062 143.25 33.4783 143.602C33.3533 143.952 33.2908 144.335 33.2908 144.753C33.2908 145.173 33.3533 145.558 33.4783 145.908C33.6062 146.257 33.8008 146.537 34.0621 146.747C34.3263 146.957 34.6587 147.062 35.0593 147.062ZM44.609 148.145C44.1942 148.145 43.8192 148.068 43.484 147.915C43.1488 147.759 42.8832 147.533 42.6871 147.237C42.494 146.942 42.3974 146.58 42.3974 146.151C42.3974 145.781 42.4684 145.477 42.6104 145.239C42.7525 145 42.9442 144.811 43.1857 144.672C43.4272 144.533 43.6971 144.428 43.9954 144.357C44.2937 144.286 44.5977 144.232 44.9073 144.195C45.2994 144.149 45.6175 144.112 45.8619 144.084C46.1062 144.053 46.2837 144.003 46.3945 143.935C46.5053 143.866 46.5607 143.756 46.5607 143.602V143.572C46.5607 143.2 46.4556 142.912 46.2454 142.707C46.038 142.503 45.7283 142.401 45.3164 142.401C44.8874 142.401 44.5494 142.496 44.3022 142.686C44.0579 142.874 43.8888 143.082 43.7951 143.312L42.5977 143.04C42.7397 142.642 42.9471 142.321 43.2198 142.077C43.4954 141.83 43.8121 141.651 44.1701 141.54C44.5281 141.426 44.9045 141.369 45.2994 141.369C45.5607 141.369 45.8377 141.401 46.1303 141.463C46.4258 141.523 46.7013 141.634 46.957 141.795C47.2156 141.957 47.4272 142.189 47.592 142.49C47.7567 142.788 47.8391 143.176 47.8391 143.653V148H46.5948V147.105H46.5437C46.4613 147.27 46.3377 147.432 46.1729 147.591C46.0082 147.75 45.7965 147.882 45.538 147.987C45.2795 148.092 44.9698 148.145 44.609 148.145ZM44.886 147.122C45.2383 147.122 45.5394 147.053 45.7894 146.913C46.0423 146.774 46.234 146.592 46.3647 146.368C46.4982 146.141 46.565 145.898 46.565 145.639V144.795C46.5195 144.841 46.4315 144.884 46.3008 144.923C46.1729 144.96 46.0266 144.993 45.8619 145.021C45.6971 145.047 45.5366 145.071 45.3803 145.094C45.2241 145.114 45.0934 145.131 44.9883 145.145C44.7411 145.176 44.5153 145.229 44.3107 145.303C44.109 145.376 43.9471 145.483 43.8249 145.622C43.7056 145.759 43.646 145.94 43.646 146.168C43.646 146.483 43.7624 146.722 43.9954 146.884C44.2283 147.043 44.5252 147.122 44.886 147.122ZM52.712 150.455V141.455H53.9563V142.516H54.0629C54.1367 142.379 54.2433 142.222 54.3825 142.043C54.5217 141.864 54.7148 141.707 54.962 141.574C55.2092 141.438 55.5359 141.369 55.9421 141.369C56.4705 141.369 56.9421 141.503 57.3569 141.77C57.7717 142.037 58.0969 142.422 58.3327 142.925C58.5714 143.428 58.6907 144.033 58.6907 144.74C58.6907 145.447 58.5728 146.054 58.337 146.56C58.1012 147.062 57.7773 147.45 57.3654 147.723C56.9535 147.993 56.4833 148.128 55.9549 148.128C55.5572 148.128 55.2319 148.061 54.979 147.928C54.729 147.794 54.533 147.638 54.391 147.459C54.2489 147.28 54.1396 147.121 54.0629 146.982H53.9862V150.455H52.712ZM53.9606 144.727C53.9606 145.187 54.0273 145.591 54.1609 145.938C54.2944 146.284 54.4876 146.555 54.7404 146.751C54.9933 146.945 55.3029 147.041 55.6694 147.041C56.0501 147.041 56.3683 146.94 56.6239 146.739C56.8796 146.534 57.0728 146.257 57.2035 145.908C57.337 145.558 57.4038 145.165 57.4038 144.727C57.4038 144.295 57.3384 143.908 57.2077 143.564C57.0799 143.22 56.8867 142.949 56.6282 142.75C56.3725 142.551 56.0529 142.452 55.6694 142.452C55.3001 142.452 54.9876 142.547 54.7319 142.737C54.479 142.928 54.2873 143.193 54.1566 143.534C54.0259 143.875 53.9606 144.273 53.9606 144.727ZM60.1183 148V141.455H61.3498V142.494H61.418C61.5373 142.142 61.7475 141.865 62.0487 141.663C62.3526 141.459 62.6964 141.357 63.0799 141.357C63.1594 141.357 63.2532 141.359 63.3612 141.365C63.4719 141.371 63.5586 141.378 63.6211 141.386V142.605C63.57 142.591 63.479 142.575 63.3484 142.558C63.2177 142.538 63.087 142.528 62.9563 142.528C62.6552 142.528 62.3867 142.592 62.1509 142.72C61.918 142.845 61.7333 143.02 61.5969 143.244C61.4606 143.466 61.3924 143.719 61.3924 144.003V148H60.1183ZM60.9279 138.8L61.8058 139.942L62.6793 138.8H63.8342V138.864L62.3342 140.67H61.2731L59.7773 138.864V138.8H60.9279ZM64.7237 148V141.455H65.9979V148H64.7237ZM64.843 140.581L65.8402 138.616H67.1825L65.8615 140.581H64.843ZM67.712 141.455H68.9862V148.426C68.9862 148.864 68.9066 149.233 68.7475 149.534C68.5913 149.835 68.3583 150.064 68.0487 150.22C67.7418 150.376 67.3626 150.455 66.9109 150.455C66.8654 150.455 66.8228 150.455 66.783 150.455C66.7404 150.455 66.6964 150.453 66.6509 150.45V149.355C66.6907 149.355 66.7262 149.355 66.7575 149.355C66.7859 149.355 66.8185 149.355 66.8555 149.355C67.1566 149.355 67.3739 149.274 67.5075 149.112C67.6438 148.953 67.712 148.722 67.712 148.418V141.455ZM68.3427 140.445C68.1211 140.445 67.9308 140.371 67.7717 140.223C67.6154 140.072 67.5373 139.893 67.5373 139.686C67.5373 139.476 67.6154 139.297 67.7717 139.149C67.9308 138.999 68.1211 138.923 68.3427 138.923C68.5643 138.923 68.7532 138.999 68.9094 139.149C69.0685 139.297 69.1481 139.476 69.1481 139.686C69.1481 139.893 69.0685 140.072 68.9094 140.223C68.7532 140.371 68.5643 140.445 68.3427 140.445ZM70.7003 148V141.455H71.9233V142.52H72.0043C72.1406 142.159 72.3636 141.878 72.6733 141.676C72.983 141.472 73.3537 141.369 73.7855 141.369C74.223 141.369 74.5895 141.472 74.8849 141.676C75.1832 141.881 75.4034 142.162 75.5455 142.52H75.6136C75.7699 142.17 76.0185 141.892 76.3594 141.685C76.7003 141.474 77.1065 141.369 77.5781 141.369C78.1719 141.369 78.6562 141.555 79.0312 141.928C79.4091 142.3 79.598 142.861 79.598 143.611V148H78.3239V143.73C78.3239 143.287 78.2031 142.966 77.9616 142.767C77.7202 142.568 77.4318 142.469 77.0966 142.469C76.6818 142.469 76.3594 142.597 76.1293 142.852C75.8991 143.105 75.7841 143.43 75.7841 143.828V148H74.5142V143.649C74.5142 143.294 74.4034 143.009 74.1818 142.793C73.9602 142.577 73.6719 142.469 73.3168 142.469C73.0753 142.469 72.8523 142.533 72.6477 142.661C72.446 142.786 72.2827 142.96 72.1577 143.185C72.0355 143.409 71.9744 143.669 71.9744 143.964V148H70.7003ZM84.1268 148.132C83.4819 148.132 82.9265 147.994 82.4606 147.719C81.9975 147.44 81.6396 147.05 81.3867 146.547C81.1367 146.041 81.0117 145.449 81.0117 144.77C81.0117 144.099 81.1367 143.509 81.3867 142.997C81.6396 142.486 81.9918 142.087 82.4435 141.8C82.8981 141.513 83.4293 141.369 84.0373 141.369C84.4066 141.369 84.7646 141.43 85.1112 141.553C85.4577 141.675 85.7688 141.866 86.0444 142.128C86.32 142.389 86.5373 142.729 86.6964 143.146C86.8555 143.561 86.935 144.065 86.935 144.659V145.111H81.7319V144.156H85.6864C85.6864 143.821 85.6183 143.524 85.4819 143.266C85.3455 143.004 85.1538 142.798 84.9066 142.648C84.6623 142.497 84.3754 142.422 84.0458 142.422C83.6879 142.422 83.3754 142.51 83.1083 142.686C82.8441 142.859 82.6396 143.087 82.4947 143.368C82.3526 143.646 82.2816 143.949 82.2816 144.276V145.021C82.2816 145.459 82.3583 145.831 82.5117 146.138C82.668 146.445 82.8853 146.679 83.1637 146.841C83.4421 147 83.7674 147.08 84.1396 147.08C84.381 147.08 84.6012 147.045 84.8001 146.977C84.9989 146.906 85.1708 146.801 85.3157 146.662C85.4606 146.523 85.5714 146.351 85.6481 146.146L86.854 146.364C86.7575 146.719 86.5842 147.03 86.3342 147.297C86.087 147.561 85.7759 147.767 85.4009 147.915C85.0288 148.06 84.604 148.132 84.1268 148.132ZM89.6229 144.114V148H88.3487V141.455H89.5717V142.52H89.6527C89.8033 142.173 90.0391 141.895 90.3601 141.685C90.6839 141.474 91.0916 141.369 91.5831 141.369C92.0291 141.369 92.4197 141.463 92.755 141.651C93.0902 141.835 93.3501 142.111 93.5348 142.477C93.7195 142.844 93.8118 143.297 93.8118 143.837V148H92.5376V143.99C92.5376 143.516 92.4141 143.145 92.1669 142.878C91.9197 142.608 91.5803 142.473 91.1484 142.473C90.853 142.473 90.5902 142.537 90.3601 142.665C90.1328 142.793 89.9524 142.98 89.8189 143.227C89.6882 143.472 89.6229 143.767 89.6229 144.114ZM95.5206 148V141.455H96.7947V148H95.5206ZM95.6399 140.581L96.6371 138.616H97.9794L96.6584 140.581H95.6399Z" fill="#2E2F30"/>
<rect y="222" width="268" height="36" rx="2" fill="#EBF2F4"/>
<path d="M0.958807 216V207.273H6.4304V208.406H2.27557V211.065H6.14489V212.195H2.27557V214.866H6.48153V216H0.958807ZM8.087 216V209.455H9.31001V210.52H9.39098C9.52734 210.159 9.75036 209.878 10.06 209.676C10.3697 209.472 10.7404 209.369 11.1722 209.369C11.6097 209.369 11.9762 209.472 12.2717 209.676C12.57 209.881 12.7901 210.162 12.9322 210.52H13.0004C13.1566 210.17 13.4052 209.892 13.7461 209.685C14.087 209.474 14.4933 209.369 14.9648 209.369C15.5586 209.369 16.043 209.555 16.418 209.928C16.7958 210.3 16.9847 210.861 16.9847 211.611V216H15.7106V211.73C15.7106 211.287 15.5898 210.966 15.3484 210.767C15.1069 210.568 14.8185 210.469 14.4833 210.469C14.0685 210.469 13.7461 210.597 13.516 210.852C13.2859 211.105 13.1708 211.43 13.1708 211.828V216H11.9009V211.649C11.9009 211.294 11.7901 211.009 11.5685 210.793C11.3469 210.577 11.0586 210.469 10.7035 210.469C10.462 210.469 10.239 210.533 10.0344 210.661C9.83274 210.786 9.66939 210.96 9.54439 211.185C9.42223 211.409 9.36115 211.669 9.36115 211.964V216H8.087ZM20.5973 216.145C20.1825 216.145 19.8075 216.068 19.4723 215.915C19.1371 215.759 18.8714 215.533 18.6754 215.237C18.4822 214.942 18.3857 214.58 18.3857 214.151C18.3857 213.781 18.4567 213.477 18.5987 213.239C18.7408 213 18.9325 212.811 19.174 212.672C19.4155 212.533 19.6854 212.428 19.9837 212.357C20.282 212.286 20.5859 212.232 20.8956 212.195C21.2876 212.149 21.6058 212.112 21.8501 212.084C22.0945 212.053 22.272 212.003 22.3828 211.935C22.4936 211.866 22.549 211.756 22.549 211.602V211.572C22.549 211.2 22.4439 210.912 22.2337 210.707C22.0263 210.503 21.7166 210.401 21.3047 210.401C20.8757 210.401 20.5376 210.496 20.2905 210.686C20.0462 210.874 19.8771 211.082 19.7834 211.312L18.5859 211.04C18.728 210.642 18.9354 210.321 19.2081 210.077C19.4837 209.83 19.8004 209.651 20.1584 209.54C20.5163 209.426 20.8928 209.369 21.2876 209.369C21.549 209.369 21.826 209.401 22.1186 209.463C22.4141 209.523 22.6896 209.634 22.9453 209.795C23.2038 209.957 23.4155 210.189 23.5803 210.49C23.745 210.788 23.8274 211.176 23.8274 211.653V216H22.5831V215.105H22.532C22.4496 215.27 22.326 215.432 22.1612 215.591C21.9964 215.75 21.7848 215.882 21.5263 215.987C21.2678 216.092 20.9581 216.145 20.5973 216.145ZM20.8743 215.122C21.2266 215.122 21.5277 215.053 21.7777 214.913C22.0305 214.774 22.2223 214.592 22.353 214.368C22.4865 214.141 22.5533 213.898 22.5533 213.639V212.795C22.5078 212.841 22.4197 212.884 22.2891 212.923C22.1612 212.96 22.0149 212.993 21.8501 213.021C21.6854 213.047 21.5249 213.071 21.3686 213.094C21.2124 213.114 21.0817 213.131 20.9766 213.145C20.7294 213.176 20.5036 213.229 20.299 213.303C20.0973 213.376 19.9354 213.483 19.8132 213.622C19.6939 213.759 19.6342 213.94 19.6342 214.168C19.6342 214.483 19.7507 214.722 19.9837 214.884C20.2166 215.043 20.5135 215.122 20.8743 215.122ZM25.5245 216V209.455H26.7987V216H25.5245ZM26.168 208.445C25.9464 208.445 25.756 208.371 25.5969 208.223C25.4407 208.072 25.3626 207.893 25.3626 207.686C25.3626 207.476 25.4407 207.297 25.5969 207.149C25.756 206.999 25.9464 206.923 26.168 206.923C26.3896 206.923 26.5785 206.999 26.7347 207.149C26.8938 207.297 26.9734 207.476 26.9734 207.686C26.9734 207.893 26.8938 208.072 26.7347 208.223C26.5785 208.371 26.3896 208.445 26.168 208.445ZM29.7869 207.273V216H28.5128V207.273H29.7869Z" fill="#2E2F30"/>
<rect x="300" y="18" width="268" height="36" rx="2" fill="#EBF2F4"/>
<path d="M304.351 3.27273H305.663V9.46023C305.663 10.0199 305.553 10.4986 305.331 10.8963C305.112 11.294 304.804 11.598 304.406 11.8082C304.009 12.0156 303.543 12.1193 303.009 12.1193C302.517 12.1193 302.075 12.0298 301.683 11.8509C301.294 11.6719 300.986 11.4119 300.759 11.071C300.534 10.7273 300.422 10.3097 300.422 9.81818H301.73C301.73 10.0597 301.786 10.2685 301.896 10.4446C302.01 10.6207 302.165 10.7585 302.361 10.858C302.56 10.9545 302.787 11.0028 303.043 11.0028C303.321 11.0028 303.557 10.9446 303.75 10.8281C303.946 10.7088 304.095 10.5341 304.197 10.304C304.3 10.0739 304.351 9.79261 304.351 9.46023V3.27273ZM307.478 12V5.45455H308.701V6.51989H308.782C308.918 6.15909 309.141 5.87784 309.451 5.67614C309.76 5.47159 310.131 5.36932 310.563 5.36932C311 5.36932 311.367 5.47159 311.662 5.67614C311.961 5.88068 312.181 6.16193 312.323 6.51989H312.391C312.547 6.17045 312.796 5.89205 313.137 5.68466C313.478 5.47443 313.884 5.36932 314.355 5.36932C314.949 5.36932 315.434 5.5554 315.809 5.92756C316.186 6.29972 316.375 6.8608 316.375 7.6108V12H315.101V7.73011C315.101 7.28693 314.98 6.96591 314.739 6.76705C314.498 6.56818 314.209 6.46875 313.874 6.46875C313.459 6.46875 313.137 6.59659 312.907 6.85227C312.676 7.10511 312.561 7.4304 312.561 7.82812V12H311.292V7.64915C311.292 7.29403 311.181 7.00852 310.959 6.79261C310.738 6.5767 310.449 6.46875 310.094 6.46875C309.853 6.46875 309.63 6.53267 309.425 6.66051C309.223 6.78551 309.06 6.96023 308.935 7.18466C308.813 7.40909 308.752 7.66903 308.752 7.96449V12H307.478ZM320.904 12.1321C320.259 12.1321 319.704 11.9943 319.238 11.7188C318.775 11.4403 318.417 11.0497 318.164 10.5469C317.914 10.0412 317.789 9.44886 317.789 8.76989C317.789 8.09943 317.914 7.50852 318.164 6.99716C318.417 6.4858 318.769 6.08665 319.221 5.79972C319.675 5.51278 320.207 5.36932 320.815 5.36932C321.184 5.36932 321.542 5.4304 321.888 5.55256C322.235 5.67472 322.546 5.86648 322.822 6.12784C323.097 6.3892 323.315 6.72869 323.474 7.14631C323.633 7.56108 323.712 8.06534 323.712 8.65909V9.1108H318.509V8.15625H322.464C322.464 7.82102 322.396 7.52415 322.259 7.26562C322.123 7.00426 321.931 6.7983 321.684 6.64773C321.44 6.49716 321.153 6.42188 320.823 6.42188C320.465 6.42188 320.153 6.50994 319.886 6.68608C319.621 6.85937 319.417 7.08665 319.272 7.3679C319.13 7.64631 319.059 7.94886 319.059 8.27557V9.02131C319.059 9.45881 319.136 9.83097 319.289 10.1378C319.445 10.4446 319.663 10.679 319.941 10.8409C320.219 11 320.545 11.0795 320.917 11.0795C321.158 11.0795 321.379 11.0455 321.577 10.9773C321.776 10.9062 321.948 10.8011 322.093 10.6619C322.238 10.5227 322.349 10.3509 322.425 10.1463L323.631 10.3636C323.535 10.7187 323.362 11.0298 323.112 11.2969C322.864 11.5611 322.553 11.767 322.178 11.9148C321.806 12.0597 321.381 12.1321 320.904 12.1321ZM320.239 4.58097L321.237 2.61648H322.579L321.258 4.58097H320.239ZM326.4 8.11364V12H325.126V5.45455H326.349V6.51989H326.43C326.581 6.1733 326.816 5.89489 327.137 5.68466C327.461 5.47443 327.869 5.36932 328.36 5.36932C328.806 5.36932 329.197 5.46307 329.532 5.65057C329.868 5.83523 330.127 6.1108 330.312 6.47727C330.497 6.84375 330.589 7.29687 330.589 7.83665V12H329.315V7.99006C329.315 7.51562 329.191 7.14489 328.944 6.87784C328.697 6.60795 328.358 6.47301 327.926 6.47301C327.63 6.47301 327.368 6.53693 327.137 6.66477C326.91 6.79261 326.73 6.98011 326.596 7.22727C326.466 7.47159 326.4 7.76705 326.4 8.11364ZM335.055 12.1321C334.441 12.1321 333.906 11.9915 333.449 11.7102C332.991 11.429 332.636 11.0355 332.383 10.5298C332.13 10.0241 332.004 9.43324 332.004 8.7571C332.004 8.07812 332.13 7.48437 332.383 6.97585C332.636 6.46733 332.991 6.07244 333.449 5.79119C333.906 5.50994 334.441 5.36932 335.055 5.36932C335.669 5.36932 336.204 5.50994 336.662 5.79119C337.119 6.07244 337.474 6.46733 337.727 6.97585C337.98 7.48437 338.106 8.07812 338.106 8.7571C338.106 9.43324 337.98 10.0241 337.727 10.5298C337.474 11.0355 337.119 11.429 336.662 11.7102C336.204 11.9915 335.669 12.1321 335.055 12.1321ZM335.059 11.0625C335.457 11.0625 335.787 10.9574 336.048 10.7472C336.309 10.5369 336.502 10.2571 336.627 9.90767C336.755 9.55824 336.819 9.1733 336.819 8.75284C336.819 8.33523 336.755 7.9517 336.627 7.60227C336.502 7.25 336.309 6.96733 336.048 6.75426C335.787 6.54119 335.457 6.43466 335.059 6.43466C334.659 6.43466 334.326 6.54119 334.062 6.75426C333.801 6.96733 333.606 7.25 333.478 7.60227C333.353 7.9517 333.291 8.33523 333.291 8.75284C333.291 9.1733 333.353 9.55824 333.478 9.90767C333.606 10.2571 333.801 10.5369 334.062 10.7472C334.326 10.9574 334.659 11.0625 335.059 11.0625ZM344.609 12.1449C344.194 12.1449 343.819 12.0682 343.484 11.9148C343.149 11.7585 342.883 11.5327 342.687 11.2372C342.494 10.9418 342.397 10.5795 342.397 10.1506C342.397 9.78125 342.468 9.47727 342.61 9.23864C342.752 9 342.944 8.81108 343.186 8.67188C343.427 8.53267 343.697 8.42756 343.995 8.35653C344.294 8.28551 344.598 8.23153 344.907 8.1946C345.299 8.14915 345.618 8.11222 345.862 8.08381C346.106 8.05256 346.284 8.00284 346.395 7.93466C346.505 7.86648 346.561 7.75568 346.561 7.60227V7.57244C346.561 7.20028 346.456 6.91193 346.245 6.70739C346.038 6.50284 345.728 6.40057 345.316 6.40057C344.887 6.40057 344.549 6.49574 344.302 6.68608C344.058 6.87358 343.889 7.08239 343.795 7.3125L342.598 7.03977C342.74 6.64205 342.947 6.32102 343.22 6.0767C343.495 5.82955 343.812 5.65057 344.17 5.53977C344.528 5.42614 344.904 5.36932 345.299 5.36932C345.561 5.36932 345.838 5.40057 346.13 5.46307C346.426 5.52273 346.701 5.63352 346.957 5.79545C347.216 5.95739 347.427 6.18892 347.592 6.49006C347.757 6.78835 347.839 7.17614 347.839 7.65341V12H346.595V11.1051H346.544C346.461 11.2699 346.338 11.4318 346.173 11.5909C346.008 11.75 345.797 11.8821 345.538 11.9872C345.279 12.0923 344.97 12.1449 344.609 12.1449ZM344.886 11.1222C345.238 11.1222 345.539 11.0526 345.789 10.9134C346.042 10.7741 346.234 10.5923 346.365 10.3679C346.498 10.1406 346.565 9.89773 346.565 9.6392V8.79545C346.52 8.84091 346.431 8.88352 346.301 8.9233C346.173 8.96023 346.027 8.9929 345.862 9.02131C345.697 9.04687 345.537 9.07102 345.38 9.09375C345.224 9.11364 345.093 9.13068 344.988 9.14489C344.741 9.17614 344.515 9.22869 344.311 9.30256C344.109 9.37642 343.947 9.48295 343.825 9.62216C343.706 9.75852 343.646 9.94034 343.646 10.1676C343.646 10.483 343.762 10.7216 343.995 10.8835C344.228 11.0426 344.525 11.1222 344.886 11.1222ZM352.712 14.4545V5.45455H353.956V6.51562H354.063C354.137 6.37926 354.243 6.22159 354.382 6.04261C354.522 5.86364 354.715 5.70739 354.962 5.57386C355.209 5.4375 355.536 5.36932 355.942 5.36932C356.471 5.36932 356.942 5.50284 357.357 5.76989C357.772 6.03693 358.097 6.42187 358.333 6.92472C358.571 7.42756 358.691 8.03267 358.691 8.74006C358.691 9.44744 358.573 10.054 358.337 10.5597C358.101 11.0625 357.777 11.4503 357.365 11.723C356.953 11.9929 356.483 12.1278 355.955 12.1278C355.557 12.1278 355.232 12.0611 354.979 11.9276C354.729 11.794 354.533 11.6378 354.391 11.4588C354.249 11.2798 354.14 11.1207 354.063 10.9815H353.986V14.4545H352.712ZM353.961 8.72727C353.961 9.1875 354.027 9.59091 354.161 9.9375C354.294 10.2841 354.488 10.5554 354.74 10.7514C354.993 10.9446 355.303 11.0412 355.669 11.0412C356.05 11.0412 356.368 10.9403 356.624 10.7386C356.88 10.5341 357.073 10.2571 357.203 9.90767C357.337 9.55824 357.404 9.16477 357.404 8.72727C357.404 8.29545 357.338 7.90767 357.208 7.56392C357.08 7.22017 356.887 6.94886 356.628 6.75C356.373 6.55114 356.053 6.4517 355.669 6.4517C355.3 6.4517 354.988 6.54687 354.732 6.73722C354.479 6.92756 354.287 7.19318 354.157 7.53409C354.026 7.875 353.961 8.27273 353.961 8.72727ZM360.118 12V5.45455H361.35V6.49432H361.418C361.537 6.14205 361.748 5.86506 362.049 5.66335C362.353 5.45881 362.696 5.35653 363.08 5.35653C363.159 5.35653 363.253 5.35937 363.361 5.36506C363.472 5.37074 363.559 5.37784 363.621 5.38636V6.60511C363.57 6.59091 363.479 6.57528 363.348 6.55824C363.218 6.53835 363.087 6.52841 362.956 6.52841C362.655 6.52841 362.387 6.59233 362.151 6.72017C361.918 6.84517 361.733 7.01989 361.597 7.24432C361.461 7.46591 361.392 7.71875 361.392 8.00284V12H360.118ZM360.928 2.79972L361.806 3.94176L362.679 2.79972H363.834V2.86364L362.334 4.67045H361.273L359.777 2.86364V2.79972H360.928ZM364.724 12V5.45455H365.998V12H364.724ZM364.843 4.58097L365.84 2.61648H367.183L365.862 4.58097H364.843ZM367.712 5.45455H368.986V12.4261C368.986 12.8636 368.907 13.233 368.748 13.5341C368.591 13.8352 368.358 14.0639 368.049 14.2202C367.742 14.3764 367.363 14.4545 366.911 14.4545C366.865 14.4545 366.823 14.4545 366.783 14.4545C366.74 14.4545 366.696 14.4531 366.651 14.4503V13.3551C366.691 13.3551 366.726 13.3551 366.757 13.3551C366.786 13.3551 366.819 13.3551 366.855 13.3551C367.157 13.3551 367.374 13.2741 367.507 13.1122C367.644 12.9531 367.712 12.7216 367.712 12.4176V5.45455ZM368.343 4.4446C368.121 4.4446 367.931 4.37074 367.772 4.22301C367.615 4.07244 367.537 3.89347 367.537 3.68608C367.537 3.47585 367.615 3.29687 367.772 3.14915C367.931 2.99858 368.121 2.9233 368.343 2.9233C368.564 2.9233 368.753 2.99858 368.909 3.14915C369.069 3.29687 369.148 3.47585 369.148 3.68608C369.148 3.89347 369.069 4.07244 368.909 4.22301C368.753 4.37074 368.564 4.4446 368.343 4.4446ZM370.7 12V5.45455H371.923V6.51989H372.004C372.141 6.15909 372.364 5.87784 372.673 5.67614C372.983 5.47159 373.354 5.36932 373.786 5.36932C374.223 5.36932 374.589 5.47159 374.885 5.67614C375.183 5.88068 375.403 6.16193 375.545 6.51989H375.614C375.77 6.17045 376.018 5.89205 376.359 5.68466C376.7 5.47443 377.107 5.36932 377.578 5.36932C378.172 5.36932 378.656 5.5554 379.031 5.92756C379.409 6.29972 379.598 6.8608 379.598 7.6108V12H378.324V7.73011C378.324 7.28693 378.203 6.96591 377.962 6.76705C377.72 6.56818 377.432 6.46875 377.097 6.46875C376.682 6.46875 376.359 6.59659 376.129 6.85227C375.899 7.10511 375.784 7.4304 375.784 7.82812V12H374.514V7.64915C374.514 7.29403 374.403 7.00852 374.182 6.79261C373.96 6.5767 373.672 6.46875 373.317 6.46875C373.075 6.46875 372.852 6.53267 372.648 6.66051C372.446 6.78551 372.283 6.96023 372.158 7.18466C372.036 7.40909 371.974 7.66903 371.974 7.96449V12H370.7ZM384.127 12.1321C383.482 12.1321 382.926 11.9943 382.461 11.7188C381.998 11.4403 381.64 11.0497 381.387 10.5469C381.137 10.0412 381.012 9.44886 381.012 8.76989C381.012 8.09943 381.137 7.50852 381.387 6.99716C381.64 6.4858 381.992 6.08665 382.444 5.79972C382.898 5.51278 383.429 5.36932 384.037 5.36932C384.407 5.36932 384.765 5.4304 385.111 5.55256C385.458 5.67472 385.769 5.86648 386.044 6.12784C386.32 6.3892 386.537 6.72869 386.696 7.14631C386.855 7.56108 386.935 8.06534 386.935 8.65909V9.1108H381.732V8.15625H385.686C385.686 7.82102 385.618 7.52415 385.482 7.26562C385.346 7.00426 385.154 6.7983 384.907 6.64773C384.662 6.49716 384.375 6.42188 384.046 6.42188C383.688 6.42188 383.375 6.50994 383.108 6.68608C382.844 6.85937 382.64 7.08665 382.495 7.3679C382.353 7.64631 382.282 7.94886 382.282 8.27557V9.02131C382.282 9.45881 382.358 9.83097 382.512 10.1378C382.668 10.4446 382.885 10.679 383.164 10.8409C383.442 11 383.767 11.0795 384.14 11.0795C384.381 11.0795 384.601 11.0455 384.8 10.9773C384.999 10.9062 385.171 10.8011 385.316 10.6619C385.461 10.5227 385.571 10.3509 385.648 10.1463L386.854 10.3636C386.757 10.7187 386.584 11.0298 386.334 11.2969C386.087 11.5611 385.776 11.767 385.401 11.9148C385.029 12.0597 384.604 12.1321 384.127 12.1321ZM389.623 8.11364V12H388.349V5.45455H389.572V6.51989H389.653C389.803 6.1733 390.039 5.89489 390.36 5.68466C390.684 5.47443 391.092 5.36932 391.583 5.36932C392.029 5.36932 392.42 5.46307 392.755 5.65057C393.09 5.83523 393.35 6.1108 393.535 6.47727C393.719 6.84375 393.812 7.29687 393.812 7.83665V12H392.538V7.99006C392.538 7.51562 392.414 7.14489 392.167 6.87784C391.92 6.60795 391.58 6.47301 391.148 6.47301C390.853 6.47301 390.59 6.53693 390.36 6.66477C390.133 6.79261 389.952 6.98011 389.819 7.22727C389.688 7.47159 389.623 7.76705 389.623 8.11364ZM395.521 12V5.45455H396.795V12H395.521ZM395.64 4.58097L396.637 2.61648H397.979L396.658 4.58097H395.64Z" fill="#2E2F30"/>
<rect x="300" y="86" width="268" height="36" rx="2" fill="#EBF2F4"/>
<path d="M300.959 80V71.2727H306.43V72.4062H302.276V75.0653H306.145V76.1946H302.276V78.8665H306.482V80H300.959ZM308.087 80V73.4545H309.31V74.5199H309.391C309.527 74.1591 309.75 73.8778 310.06 73.6761C310.37 73.4716 310.74 73.3693 311.172 73.3693C311.61 73.3693 311.976 73.4716 312.272 73.6761C312.57 73.8807 312.79 74.1619 312.932 74.5199H313C313.157 74.1705 313.405 73.892 313.746 73.6847C314.087 73.4744 314.493 73.3693 314.965 73.3693C315.559 73.3693 316.043 73.5554 316.418 73.9276C316.796 74.2997 316.985 74.8608 316.985 75.6108V80H315.711V75.7301C315.711 75.2869 315.59 74.9659 315.348 74.767C315.107 74.5682 314.819 74.4688 314.483 74.4688C314.069 74.4688 313.746 74.5966 313.516 74.8523C313.286 75.1051 313.171 75.4304 313.171 75.8281V80H311.901V75.6491C311.901 75.294 311.79 75.0085 311.569 74.7926C311.347 74.5767 311.059 74.4688 310.703 74.4688C310.462 74.4688 310.239 74.5327 310.034 74.6605C309.833 74.7855 309.669 74.9602 309.544 75.1847C309.422 75.4091 309.361 75.669 309.361 75.9645V80H308.087ZM320.597 80.1449C320.183 80.1449 319.808 80.0682 319.472 79.9148C319.137 79.7585 318.871 79.5327 318.675 79.2372C318.482 78.9418 318.386 78.5795 318.386 78.1506C318.386 77.7812 318.457 77.4773 318.599 77.2386C318.741 77 318.933 76.8111 319.174 76.6719C319.415 76.5327 319.685 76.4276 319.984 76.3565C320.282 76.2855 320.586 76.2315 320.896 76.1946C321.288 76.1491 321.606 76.1122 321.85 76.0838C322.094 76.0526 322.272 76.0028 322.383 75.9347C322.494 75.8665 322.549 75.7557 322.549 75.6023V75.5724C322.549 75.2003 322.444 74.9119 322.234 74.7074C322.026 74.5028 321.717 74.4006 321.305 74.4006C320.876 74.4006 320.538 74.4957 320.29 74.6861C320.046 74.8736 319.877 75.0824 319.783 75.3125L318.586 75.0398C318.728 74.642 318.935 74.321 319.208 74.0767C319.484 73.8295 319.8 73.6506 320.158 73.5398C320.516 73.4261 320.893 73.3693 321.288 73.3693C321.549 73.3693 321.826 73.4006 322.119 73.4631C322.414 73.5227 322.69 73.6335 322.945 73.7955C323.204 73.9574 323.415 74.1889 323.58 74.4901C323.745 74.7884 323.827 75.1761 323.827 75.6534V80H322.583V79.1051H322.532C322.45 79.2699 322.326 79.4318 322.161 79.5909C321.996 79.75 321.785 79.8821 321.526 79.9872C321.268 80.0923 320.958 80.1449 320.597 80.1449ZM320.874 79.1222C321.227 79.1222 321.528 79.0526 321.778 78.9134C322.031 78.7741 322.222 78.5923 322.353 78.3679C322.487 78.1406 322.553 77.8977 322.553 77.6392V76.7955C322.508 76.8409 322.42 76.8835 322.289 76.9233C322.161 76.9602 322.015 76.9929 321.85 77.0213C321.685 77.0469 321.525 77.071 321.369 77.0938C321.212 77.1136 321.082 77.1307 320.977 77.1449C320.729 77.1761 320.504 77.2287 320.299 77.3026C320.097 77.3764 319.935 77.483 319.813 77.6222C319.694 77.7585 319.634 77.9403 319.634 78.1676C319.634 78.483 319.751 78.7216 319.984 78.8835C320.217 79.0426 320.513 79.1222 320.874 79.1222ZM325.525 80V73.4545H326.799V80H325.525ZM326.168 72.4446C325.946 72.4446 325.756 72.3707 325.597 72.223C325.441 72.0724 325.363 71.8935 325.363 71.6861C325.363 71.4759 325.441 71.2969 325.597 71.1491C325.756 70.9986 325.946 70.9233 326.168 70.9233C326.39 70.9233 326.578 70.9986 326.735 71.1491C326.894 71.2969 326.973 71.4759 326.973 71.6861C326.973 71.8935 326.894 72.0724 326.735 72.223C326.578 72.3707 326.39 72.4446 326.168 72.4446ZM329.787 71.2727V80H328.513V71.2727H329.787Z" fill="#2E2F30"/>
<rect x="300" y="154" width="268" height="36" rx="2" fill="#EBF2F4"/>
<path d="M301.696 148H300.298L303.439 139.273H304.96L308.101 148H306.703L304.236 140.858H304.168L301.696 148ZM301.93 144.582H306.464V145.69H301.93V144.582ZM311.604 148.128C311.075 148.128 310.604 147.993 310.189 147.723C309.777 147.45 309.453 147.062 309.217 146.56C308.984 146.054 308.868 145.447 308.868 144.74C308.868 144.033 308.986 143.428 309.222 142.925C309.46 142.422 309.787 142.037 310.202 141.77C310.616 141.503 311.087 141.369 311.612 141.369C312.018 141.369 312.345 141.438 312.592 141.574C312.842 141.707 313.036 141.864 313.172 142.043C313.311 142.222 313.419 142.379 313.496 142.516H313.572V139.273H314.847V148H313.602V146.982H313.496C313.419 147.121 313.308 147.28 313.163 147.459C313.021 147.638 312.825 147.794 312.575 147.928C312.325 148.061 312.001 148.128 311.604 148.128ZM311.885 147.041C312.251 147.041 312.561 146.945 312.814 146.751C313.07 146.555 313.263 146.284 313.393 145.938C313.527 145.591 313.594 145.187 313.594 144.727C313.594 144.273 313.528 143.875 313.398 143.534C313.267 143.193 313.075 142.928 312.822 142.737C312.57 142.547 312.257 142.452 311.885 142.452C311.501 142.452 311.182 142.551 310.926 142.75C310.67 142.949 310.477 143.22 310.347 143.564C310.219 143.908 310.155 144.295 310.155 144.727C310.155 145.165 310.22 145.558 310.351 145.908C310.482 146.257 310.675 146.534 310.93 146.739C311.189 146.94 311.507 147.041 311.885 147.041ZM316.665 148V141.455H317.897V142.494H317.965C318.084 142.142 318.294 141.865 318.596 141.663C318.9 141.459 319.243 141.357 319.627 141.357C319.706 141.357 319.8 141.359 319.908 141.365C320.019 141.371 320.105 141.378 320.168 141.386V142.605C320.117 142.591 320.026 142.575 319.895 142.558C319.765 142.538 319.634 142.528 319.503 142.528C319.202 142.528 318.934 142.592 318.698 142.72C318.465 142.845 318.28 143.02 318.144 143.244C318.007 143.466 317.939 143.719 317.939 144.003V148H316.665ZM323.857 148.132C323.212 148.132 322.657 147.994 322.191 147.719C321.728 147.44 321.37 147.05 321.117 146.547C320.867 146.041 320.742 145.449 320.742 144.77C320.742 144.099 320.867 143.509 321.117 142.997C321.37 142.486 321.722 142.087 322.174 141.8C322.629 141.513 323.16 141.369 323.768 141.369C324.137 141.369 324.495 141.43 324.842 141.553C325.188 141.675 325.499 141.866 325.775 142.128C326.05 142.389 326.268 142.729 326.427 143.146C326.586 143.561 326.665 144.065 326.665 144.659V145.111H321.462V144.156H325.417C325.417 143.821 325.349 143.524 325.212 143.266C325.076 143.004 324.884 142.798 324.637 142.648C324.393 142.497 324.106 142.422 323.776 142.422C323.418 142.422 323.106 142.51 322.839 142.686C322.575 142.859 322.37 143.087 322.225 143.368C322.083 143.646 322.012 143.949 322.012 144.276V145.021C322.012 145.459 322.089 145.831 322.242 146.138C322.398 146.445 322.616 146.679 322.894 146.841C323.173 147 323.498 147.08 323.87 147.08C324.112 147.08 324.332 147.045 324.531 146.977C324.729 146.906 324.901 146.801 325.046 146.662C325.191 146.523 325.302 146.351 325.379 146.146L326.585 146.364C326.488 146.719 326.315 147.03 326.065 147.297C325.817 147.561 325.506 147.767 325.131 147.915C324.759 148.06 324.335 148.132 323.857 148.132ZM332.984 143.053L331.829 143.257C331.781 143.109 331.704 142.969 331.599 142.835C331.497 142.702 331.358 142.592 331.181 142.507C331.005 142.422 330.785 142.379 330.521 142.379C330.16 142.379 329.859 142.46 329.618 142.622C329.376 142.781 329.255 142.987 329.255 143.24C329.255 143.459 329.336 143.635 329.498 143.768C329.66 143.902 329.922 144.011 330.282 144.097L331.322 144.335C331.924 144.474 332.373 144.689 332.669 144.979C332.964 145.268 333.112 145.645 333.112 146.108C333.112 146.5 332.998 146.849 332.771 147.156C332.547 147.46 332.233 147.699 331.829 147.872C331.429 148.045 330.964 148.132 330.436 148.132C329.703 148.132 329.105 147.976 328.642 147.663C328.179 147.348 327.895 146.901 327.789 146.321L329.021 146.134C329.098 146.455 329.255 146.697 329.494 146.862C329.733 147.024 330.044 147.105 330.427 147.105C330.845 147.105 331.179 147.018 331.429 146.845C331.679 146.669 331.804 146.455 331.804 146.202C331.804 145.997 331.727 145.825 331.574 145.686C331.423 145.547 331.191 145.442 330.879 145.371L329.771 145.128C329.16 144.989 328.708 144.767 328.416 144.463C328.126 144.159 327.981 143.774 327.981 143.308C327.981 142.922 328.089 142.584 328.305 142.294C328.521 142.004 328.819 141.778 329.2 141.616C329.581 141.452 330.017 141.369 330.508 141.369C331.216 141.369 331.772 141.523 332.179 141.83C332.585 142.134 332.853 142.541 332.984 143.053ZM336.418 148.145C336.003 148.145 335.628 148.068 335.293 147.915C334.957 147.759 334.692 147.533 334.496 147.237C334.303 146.942 334.206 146.58 334.206 146.151C334.206 145.781 334.277 145.477 334.419 145.239C334.561 145 334.753 144.811 334.994 144.672C335.236 144.533 335.506 144.428 335.804 144.357C336.102 144.286 336.406 144.232 336.716 144.195C337.108 144.149 337.426 144.112 337.67 144.084C337.915 144.053 338.092 144.003 338.203 143.935C338.314 143.866 338.369 143.756 338.369 143.602V143.572C338.369 143.2 338.264 142.912 338.054 142.707C337.847 142.503 337.537 142.401 337.125 142.401C336.696 142.401 336.358 142.496 336.111 142.686C335.866 142.874 335.697 143.082 335.604 143.312L334.406 143.04C334.548 142.642 334.756 142.321 335.028 142.077C335.304 141.83 335.621 141.651 335.979 141.54C336.337 141.426 336.713 141.369 337.108 141.369C337.369 141.369 337.646 141.401 337.939 141.463C338.234 141.523 338.51 141.634 338.766 141.795C339.024 141.957 339.236 142.189 339.401 142.49C339.565 142.788 339.648 143.176 339.648 143.653V148H338.403V147.105H338.352C338.27 147.27 338.146 147.432 337.982 147.591C337.817 147.75 337.605 147.882 337.347 147.987C337.088 148.092 336.778 148.145 336.418 148.145ZM336.695 147.122C337.047 147.122 337.348 147.053 337.598 146.913C337.851 146.774 338.043 146.592 338.173 146.368C338.307 146.141 338.374 145.898 338.374 145.639V144.795C338.328 144.841 338.24 144.884 338.109 144.923C337.982 144.96 337.835 144.993 337.67 145.021C337.506 145.047 337.345 145.071 337.189 145.094C337.033 145.114 336.902 145.131 336.797 145.145C336.55 145.176 336.324 145.229 336.119 145.303C335.918 145.376 335.756 145.483 335.634 145.622C335.514 145.759 335.455 145.94 335.455 146.168C335.455 146.483 335.571 146.722 335.804 146.884C336.037 147.043 336.334 147.122 336.695 147.122Z" fill="#2E2F30"/>
<rect x="300" y="222" width="268" height="36" rx="2" fill="#EBF2F4"/>
<path d="M308.207 210.111H306.878C306.827 209.827 306.732 209.577 306.592 209.361C306.453 209.145 306.283 208.962 306.081 208.811C305.879 208.661 305.653 208.547 305.403 208.47C305.156 208.393 304.893 208.355 304.615 208.355C304.112 208.355 303.662 208.482 303.264 208.734C302.869 208.987 302.557 209.358 302.327 209.847C302.099 210.335 301.986 210.932 301.986 211.636C301.986 212.347 302.099 212.946 302.327 213.435C302.557 213.923 302.871 214.293 303.268 214.543C303.666 214.793 304.114 214.918 304.611 214.918C304.886 214.918 305.148 214.881 305.395 214.807C305.645 214.73 305.871 214.618 306.072 214.47C306.274 214.322 306.445 214.142 306.584 213.929C306.726 213.713 306.824 213.466 306.878 213.188L308.207 213.192C308.136 213.621 307.999 214.016 307.794 214.376C307.592 214.734 307.332 215.044 307.014 215.305C306.699 215.564 306.338 215.764 305.932 215.906C305.526 216.048 305.082 216.119 304.602 216.119C303.847 216.119 303.173 215.94 302.582 215.582C301.991 215.222 301.526 214.706 301.185 214.036C300.847 213.365 300.678 212.565 300.678 211.636C300.678 210.705 300.848 209.905 301.189 209.237C301.53 208.567 301.996 208.053 302.587 207.695C303.178 207.334 303.849 207.153 304.602 207.153C305.065 207.153 305.497 207.22 305.898 207.354C306.301 207.484 306.663 207.678 306.984 207.933C307.305 208.186 307.571 208.496 307.781 208.862C307.991 209.226 308.134 209.642 308.207 210.111ZM303.724 204.618L304.602 205.76L305.476 204.618H306.631V204.682L305.131 206.489H304.07L302.574 204.682V204.618H303.724ZM309.681 216V209.455H310.955V216H309.681ZM309.8 208.581L310.797 206.616H312.14L310.819 208.581H309.8ZM317.574 211.053L316.419 211.257C316.371 211.109 316.294 210.969 316.189 210.835C316.087 210.702 315.947 210.592 315.771 210.507C315.595 210.422 315.375 210.379 315.111 210.379C314.75 210.379 314.449 210.46 314.207 210.622C313.966 210.781 313.845 210.987 313.845 211.24C313.845 211.459 313.926 211.635 314.088 211.768C314.25 211.902 314.511 212.011 314.872 212.097L315.912 212.335C316.514 212.474 316.963 212.689 317.259 212.979C317.554 213.268 317.702 213.645 317.702 214.108C317.702 214.5 317.588 214.849 317.361 215.156C317.136 215.46 316.822 215.699 316.419 215.872C316.018 216.045 315.554 216.132 315.026 216.132C314.293 216.132 313.695 215.976 313.232 215.663C312.768 215.348 312.484 214.901 312.379 214.321L313.611 214.134C313.688 214.455 313.845 214.697 314.084 214.862C314.322 215.024 314.634 215.105 315.017 215.105C315.435 215.105 315.768 215.018 316.018 214.845C316.268 214.669 316.393 214.455 316.393 214.202C316.393 213.997 316.317 213.825 316.163 213.686C316.013 213.547 315.781 213.442 315.469 213.371L314.361 213.128C313.75 212.989 313.298 212.767 313.006 212.463C312.716 212.159 312.571 211.774 312.571 211.308C312.571 210.922 312.679 210.584 312.895 210.294C313.111 210.004 313.409 209.778 313.79 209.616C314.17 209.452 314.607 209.369 315.098 209.369C315.805 209.369 316.362 209.523 316.768 209.83C317.175 210.134 317.443 210.541 317.574 211.053ZM320.377 207.273V216H319.103V207.273H320.377ZM324.848 216.132C324.234 216.132 323.699 215.991 323.241 215.71C322.784 215.429 322.429 215.036 322.176 214.53C321.923 214.024 321.797 213.433 321.797 212.757C321.797 212.078 321.923 211.484 322.176 210.976C322.429 210.467 322.784 210.072 323.241 209.791C323.699 209.51 324.234 209.369 324.848 209.369C325.462 209.369 325.997 209.51 326.455 209.791C326.912 210.072 327.267 210.467 327.52 210.976C327.773 211.484 327.899 212.078 327.899 212.757C327.899 213.433 327.773 214.024 327.52 214.53C327.267 215.036 326.912 215.429 326.455 215.71C325.997 215.991 325.462 216.132 324.848 216.132ZM324.852 215.062C325.25 215.062 325.58 214.957 325.841 214.747C326.102 214.537 326.295 214.257 326.42 213.908C326.548 213.558 326.612 213.173 326.612 212.753C326.612 212.335 326.548 211.952 326.42 211.602C326.295 211.25 326.102 210.967 325.841 210.754C325.58 210.541 325.25 210.435 324.852 210.435C324.452 210.435 324.119 210.541 323.855 210.754C323.594 210.967 323.399 211.25 323.271 211.602C323.146 211.952 323.084 212.335 323.084 212.753C323.084 213.173 323.146 213.558 323.271 213.908C323.399 214.257 323.594 214.537 323.855 214.747C324.119 214.957 324.452 215.062 324.852 215.062ZM333.669 213.78L333.661 212.224H333.882L336.49 209.455H338.016L335.041 212.608H334.841L333.669 213.78ZM332.497 216V207.273H333.771V216H332.497ZM336.631 216L334.287 212.889L335.165 211.999L338.195 216H336.631ZM339.177 216V209.455H340.408V210.494H340.477C340.596 210.142 340.806 209.865 341.107 209.663C341.411 209.459 341.755 209.357 342.138 209.357C342.218 209.357 342.312 209.359 342.42 209.365C342.531 209.371 342.617 209.378 342.68 209.386V210.605C342.629 210.591 342.538 210.575 342.407 210.558C342.276 210.538 342.146 210.528 342.015 210.528C341.714 210.528 341.445 210.592 341.21 210.72C340.977 210.845 340.792 211.02 340.656 211.244C340.519 211.466 340.451 211.719 340.451 212.003V216H339.177ZM346.369 216.132C345.724 216.132 345.169 215.994 344.703 215.719C344.24 215.44 343.882 215.05 343.629 214.547C343.379 214.041 343.254 213.449 343.254 212.77C343.254 212.099 343.379 211.509 343.629 210.997C343.882 210.486 344.234 210.087 344.686 209.8C345.14 209.513 345.672 209.369 346.279 209.369C346.649 209.369 347.007 209.43 347.353 209.553C347.7 209.675 348.011 209.866 348.287 210.128C348.562 210.389 348.779 210.729 348.939 211.146C349.098 211.561 349.177 212.065 349.177 212.659V213.111H343.974V212.156H347.929C347.929 211.821 347.86 211.524 347.724 211.266C347.588 211.004 347.396 210.798 347.149 210.648C346.904 210.497 346.618 210.422 346.288 210.422C345.93 210.422 345.618 210.51 345.35 210.686C345.086 210.859 344.882 211.087 344.737 211.368C344.595 211.646 344.524 211.949 344.524 212.276V213.021C344.524 213.459 344.6 213.831 344.754 214.138C344.91 214.445 345.127 214.679 345.406 214.841C345.684 215 346.01 215.08 346.382 215.08C346.623 215.08 346.843 215.045 347.042 214.977C347.241 214.906 347.413 214.801 347.558 214.662C347.703 214.523 347.814 214.351 347.89 214.146L349.096 214.364C349 214.719 348.826 215.03 348.576 215.297C348.329 215.561 348.018 215.767 347.643 215.915C347.271 216.06 346.846 216.132 346.369 216.132ZM353.041 216.128C352.513 216.128 352.041 215.993 351.626 215.723C351.214 215.45 350.891 215.062 350.655 214.56C350.422 214.054 350.305 213.447 350.305 212.74C350.305 212.033 350.423 211.428 350.659 210.925C350.898 210.422 351.224 210.037 351.639 209.77C352.054 209.503 352.524 209.369 353.05 209.369C353.456 209.369 353.783 209.438 354.03 209.574C354.28 209.707 354.473 209.864 354.609 210.043C354.749 210.222 354.857 210.379 354.933 210.516H355.01V207.273H356.284V216H355.04V214.982H354.933C354.857 215.121 354.746 215.28 354.601 215.459C354.459 215.638 354.263 215.794 354.013 215.928C353.763 216.061 353.439 216.128 353.041 216.128ZM353.322 215.041C353.689 215.041 353.999 214.945 354.251 214.751C354.507 214.555 354.7 214.284 354.831 213.938C354.964 213.591 355.031 213.187 355.031 212.727C355.031 212.273 354.966 211.875 354.835 211.534C354.705 211.193 354.513 210.928 354.26 210.737C354.007 210.547 353.695 210.452 353.322 210.452C352.939 210.452 352.619 210.551 352.364 210.75C352.108 210.949 351.915 211.22 351.784 211.564C351.656 211.908 351.592 212.295 351.592 212.727C351.592 213.165 351.658 213.558 351.788 213.908C351.919 214.257 352.112 214.534 352.368 214.739C352.626 214.94 352.945 215.041 353.322 215.041ZM358.103 216V209.455H359.377V216H358.103ZM358.746 208.445C358.525 208.445 358.334 208.371 358.175 208.223C358.019 208.072 357.941 207.893 357.941 207.686C357.941 207.476 358.019 207.297 358.175 207.149C358.334 206.999 358.525 206.923 358.746 206.923C358.968 206.923 359.157 206.999 359.313 207.149C359.472 207.297 359.551 207.476 359.551 207.686C359.551 207.893 359.472 208.072 359.313 208.223C359.157 208.371 358.968 208.445 358.746 208.445ZM364.146 209.455V210.477H360.571V209.455H364.146ZM361.53 207.886H362.804V214.078C362.804 214.325 362.841 214.511 362.915 214.636C362.989 214.759 363.084 214.842 363.2 214.888C363.32 214.93 363.449 214.952 363.588 214.952C363.69 214.952 363.78 214.945 363.857 214.93C363.933 214.916 363.993 214.905 364.036 214.896L364.266 215.949C364.192 215.977 364.087 216.006 363.95 216.034C363.814 216.065 363.643 216.082 363.439 216.085C363.104 216.091 362.791 216.031 362.501 215.906C362.212 215.781 361.977 215.588 361.798 215.327C361.619 215.065 361.53 214.737 361.53 214.342V207.886ZM366.83 212.114V216H365.556V209.455H366.779V210.52H366.86C367.01 210.173 367.246 209.895 367.567 209.685C367.891 209.474 368.299 209.369 368.79 209.369C369.236 209.369 369.627 209.463 369.962 209.651C370.297 209.835 370.557 210.111 370.742 210.477C370.926 210.844 371.019 211.297 371.019 211.837V216H369.745V211.99C369.745 211.516 369.621 211.145 369.374 210.878C369.127 210.608 368.787 210.473 368.355 210.473C368.06 210.473 367.797 210.537 367.567 210.665C367.34 210.793 367.159 210.98 367.026 211.227C366.895 211.472 366.83 211.767 366.83 212.114ZM372.728 216V209.455H374.002V216H372.728ZM372.847 208.581L373.844 206.616H375.186L373.865 208.581H372.847ZM380.064 213.78L380.055 212.224H380.277L382.885 209.455H384.41L381.436 212.608H381.235L380.064 213.78ZM378.892 216V207.273H380.166V216H378.892ZM383.025 216L380.681 212.889L381.559 211.999L384.589 216H383.025ZM387.476 216.145C387.061 216.145 386.686 216.068 386.351 215.915C386.016 215.759 385.75 215.533 385.554 215.237C385.361 214.942 385.265 214.58 385.265 214.151C385.265 213.781 385.336 213.477 385.478 213.239C385.62 213 385.811 212.811 386.053 212.672C386.294 212.533 386.564 212.428 386.863 212.357C387.161 212.286 387.465 212.232 387.775 212.195C388.167 212.149 388.485 212.112 388.729 212.084C388.973 212.053 389.151 212.003 389.262 211.935C389.373 211.866 389.428 211.756 389.428 211.602V211.572C389.428 211.2 389.323 210.912 389.113 210.707C388.905 210.503 388.596 210.401 388.184 210.401C387.755 210.401 387.417 210.496 387.169 210.686C386.925 210.874 386.756 211.082 386.662 211.312L385.465 211.04C385.607 210.642 385.814 210.321 386.087 210.077C386.363 209.83 386.679 209.651 387.037 209.54C387.395 209.426 387.772 209.369 388.167 209.369C388.428 209.369 388.705 209.401 388.998 209.463C389.293 209.523 389.569 209.634 389.824 209.795C390.083 209.957 390.294 210.189 390.459 210.49C390.624 210.788 390.706 211.176 390.706 211.653V216H389.462V215.105H389.411C389.328 215.27 389.205 215.432 389.04 215.591C388.875 215.75 388.664 215.882 388.405 215.987C388.147 216.092 387.837 216.145 387.476 216.145ZM387.753 215.122C388.105 215.122 388.407 215.053 388.657 214.913C388.909 214.774 389.101 214.592 389.232 214.368C389.365 214.141 389.432 213.898 389.432 213.639V212.795C389.387 212.841 389.299 212.884 389.168 212.923C389.04 212.96 388.894 212.993 388.729 213.021C388.564 213.047 388.404 213.071 388.248 213.094C388.091 213.114 387.961 213.131 387.855 213.145C387.608 213.176 387.382 213.229 387.178 213.303C386.976 213.376 386.814 213.483 386.692 213.622C386.573 213.759 386.513 213.94 386.513 214.168C386.513 214.483 386.63 214.722 386.863 214.884C387.096 215.043 387.392 215.122 387.753 215.122ZM392.403 216V209.455H393.635V210.494H393.703C393.822 210.142 394.033 209.865 394.334 209.663C394.638 209.459 394.982 209.357 395.365 209.357C395.445 209.357 395.538 209.359 395.646 209.365C395.757 209.371 395.844 209.378 395.906 209.386V210.605C395.855 210.591 395.764 210.575 395.634 210.558C395.503 210.538 395.372 210.528 395.241 210.528C394.94 210.528 394.672 210.592 394.436 210.72C394.203 210.845 394.018 211.02 393.882 211.244C393.746 211.466 393.678 211.719 393.678 212.003V216H392.403ZM400.451 209.455V210.477H396.876V209.455H400.451ZM397.835 207.886H399.109V214.078C399.109 214.325 399.146 214.511 399.219 214.636C399.293 214.759 399.388 214.842 399.505 214.888C399.624 214.93 399.754 214.952 399.893 214.952C399.995 214.952 400.085 214.945 400.161 214.93C400.238 214.916 400.298 214.905 400.34 214.896L400.57 215.949C400.496 215.977 400.391 216.006 400.255 216.034C400.119 216.065 399.948 216.082 399.744 216.085C399.408 216.091 399.096 216.031 398.806 215.906C398.516 215.781 398.282 215.588 398.103 215.327C397.924 215.065 397.835 214.737 397.835 214.342V207.886ZM402.666 218.455C402.475 218.455 402.302 218.439 402.146 218.408C401.99 218.379 401.873 218.348 401.797 218.314L402.103 217.27C402.336 217.332 402.544 217.359 402.725 217.351C402.907 217.342 403.068 217.274 403.207 217.146C403.349 217.018 403.474 216.81 403.582 216.52L403.74 216.085L401.345 209.455H402.708L404.366 214.534H404.434L406.092 209.455H407.46L404.762 216.874C404.637 217.214 404.478 217.503 404.285 217.739C404.092 217.977 403.862 218.156 403.595 218.276C403.328 218.395 403.018 218.455 402.666 218.455Z" fill="#2E2F30"/>
<defs>
<clipPath id="clip0_129_274">
<rect width="32" height="32" fill="white" transform="translate(118 274)"/>
</clipPath>
</defs>
</svg>
