<svg width="268" height="188" viewBox="0 0 268 188" fill="none" xmlns="http://www.w3.org/2000/svg">
<rect y="16" width="268" height="36" rx="2" fill="#EBF2F4"/>
<path d="M0.958807 10V1.27273H2.27557V5.44034H2.3821L6.04261 1.27273H7.70028L4.1804 5.2017L7.71307 10H6.12784L3.30682 6.10085L2.27557 7.28551V10H0.958807ZM8.82528 10V3.45455H10.0568V4.49432H10.125C10.2443 4.14205 10.4545 3.86506 10.7557 3.66335C11.0597 3.45881 11.4034 3.35653 11.7869 3.35653C11.8665 3.35653 11.9602 3.35937 12.0682 3.36506C12.179 3.37074 12.2656 3.37784 12.3281 3.38636V4.60511C12.277 4.59091 12.1861 4.57528 12.0554 4.55824C11.9247 4.53835 11.794 4.52841 11.6634 4.52841C11.3622 4.52841 11.0938 4.59233 10.858 4.72017C10.625 4.84517 10.4403 5.01989 10.304 5.24432C10.1676 5.46591 10.0994 5.71875 10.0994 6.00284V10H8.82528ZM16.0174 10.1321C15.3725 10.1321 14.8171 9.99432 14.3512 9.71875C13.8881 9.44034 13.5302 9.04972 13.2773 8.54688C13.0273 8.04119 12.9023 7.44886 12.9023 6.76989C12.9023 6.09943 13.0273 5.50852 13.2773 4.99716C13.5302 4.4858 13.8825 4.08665 14.3342 3.79972C14.7887 3.51278 15.32 3.36932 15.9279 3.36932C16.2972 3.36932 16.6552 3.4304 17.0018 3.55256C17.3484 3.67472 17.6594 3.86648 17.935 4.12784C18.2106 4.3892 18.4279 4.72869 18.587 5.14631C18.7461 5.56108 18.8256 6.06534 18.8256 6.65909V7.1108H13.6225V6.15625H17.5771C17.5771 5.82102 17.5089 5.52415 17.3725 5.26562C17.2362 5.00426 17.0444 4.7983 16.7972 4.64773C16.5529 4.49716 16.266 4.42188 15.9364 4.42188C15.5785 4.42188 15.266 4.50994 14.9989 4.68608C14.7347 4.85937 14.5302 5.08665 14.3853 5.3679C14.2433 5.64631 14.1722 5.94886 14.1722 6.27557V7.02131C14.1722 7.45881 14.2489 7.83097 14.4023 8.13778C14.5586 8.4446 14.7759 8.67898 15.0543 8.84091C15.3327 9 15.658 9.07955 16.0302 9.07955C16.2717 9.07955 16.4918 9.04545 16.6907 8.97727C16.8896 8.90625 17.0614 8.80114 17.2063 8.66193C17.3512 8.52273 17.462 8.35085 17.5387 8.14631L18.7447 8.36364C18.6481 8.71875 18.4748 9.02983 18.2248 9.29688C17.9776 9.56108 17.6665 9.76705 17.2915 9.91477C16.9194 10.0597 16.4947 10.1321 16.0174 10.1321ZM22.6896 10.1278C22.1612 10.1278 21.6896 9.9929 21.2749 9.72301C20.8629 9.45028 20.5391 9.0625 20.3033 8.55966C20.0703 8.05398 19.9538 7.44744 19.9538 6.74006C19.9538 6.03267 20.0717 5.42756 20.3075 4.92472C20.5462 4.42187 20.8729 4.03693 21.2876 3.76989C21.7024 3.50284 22.1726 3.36932 22.6982 3.36932C23.1044 3.36932 23.4311 3.4375 23.6783 3.57386C23.9283 3.70739 24.1214 3.86364 24.2578 4.04261C24.397 4.22159 24.505 4.37926 24.5817 4.51562H24.6584V1.27273H25.9325V10H24.6882V8.98153H24.5817C24.505 9.12074 24.3942 9.27983 24.2493 9.45881C24.1072 9.63778 23.9112 9.79403 23.6612 9.92756C23.4112 10.0611 23.0874 10.1278 22.6896 10.1278ZM22.9709 9.04119C23.3374 9.04119 23.647 8.9446 23.8999 8.75142C24.1555 8.5554 24.3487 8.28409 24.4794 7.9375C24.6129 7.59091 24.6797 7.1875 24.6797 6.72727C24.6797 6.27273 24.6143 5.875 24.4837 5.53409C24.353 5.19318 24.1612 4.92756 23.9084 4.73722C23.6555 4.54687 23.343 4.4517 22.9709 4.4517C22.5874 4.4517 22.2678 4.55114 22.0121 4.75C21.7564 4.94886 21.5632 5.22017 21.4325 5.56392C21.3047 5.90767 21.2408 6.29545 21.2408 6.72727C21.2408 7.16477 21.3061 7.55824 21.4368 7.90767C21.5675 8.2571 21.7607 8.53409 22.0163 8.73864C22.2749 8.94034 22.593 9.04119 22.9709 9.04119ZM27.7511 10V3.45455H29.0252V10H27.7511ZM28.3945 2.4446C28.1729 2.4446 27.9826 2.37074 27.8235 2.22301C27.6673 2.07244 27.5891 1.89347 27.5891 1.68608C27.5891 1.47585 27.6673 1.29687 27.8235 1.14915C27.9826 0.998579 28.1729 0.923295 28.3945 0.923295C28.6161 0.923295 28.805 0.998579 28.9613 1.14915C29.1204 1.29687 29.1999 1.47585 29.1999 1.68608C29.1999 1.89347 29.1204 2.07244 28.9613 2.22301C28.805 2.37074 28.6161 2.4446 28.3945 2.4446ZM33.7947 3.45455V4.47727H30.2195V3.45455H33.7947ZM31.1783 1.88636H32.4524V8.07812C32.4524 8.32528 32.4893 8.51136 32.5632 8.63636C32.6371 8.75852 32.7322 8.84233 32.8487 8.88778C32.968 8.9304 33.0973 8.9517 33.2365 8.9517C33.3388 8.9517 33.4283 8.9446 33.505 8.9304C33.5817 8.91619 33.6413 8.90483 33.6839 8.89631L33.9141 9.94886C33.8402 9.97727 33.7351 10.0057 33.5987 10.0341C33.4624 10.0653 33.2919 10.0824 33.0874 10.0852C32.7521 10.0909 32.4396 10.0312 32.1499 9.90625C31.8601 9.78125 31.6257 9.58807 31.4467 9.3267C31.2678 9.06534 31.1783 8.73722 31.1783 8.34233V1.88636ZM36.4783 6.11364V10H35.2042V3.45455H36.4272V4.51989H36.5082C36.6587 4.1733 36.8945 3.89489 37.2156 3.68466C37.5394 3.47443 37.9471 3.36932 38.4386 3.36932C38.8846 3.36932 39.2752 3.46307 39.6104 3.65057C39.9457 3.83523 40.2056 4.1108 40.3903 4.47727C40.5749 4.84375 40.6673 5.29687 40.6673 5.83665V10H39.3931V5.99006C39.3931 5.51562 39.2695 5.14489 39.0224 4.87784C38.7752 4.60795 38.4357 4.47301 38.0039 4.47301C37.7085 4.47301 37.4457 4.53693 37.2156 4.66477C36.9883 4.79261 36.8079 4.98011 36.6744 5.22727C36.5437 5.47159 36.4783 5.76705 36.4783 6.11364ZM42.3761 10V3.45455H43.6502V10H42.3761ZM42.4954 2.58097L43.4925 0.616477H44.8349L43.5138 2.58097H42.4954ZM49.712 7.77983L49.7035 6.22443H49.9251L52.533 3.45455H54.0586L51.0842 6.60795H50.8839L49.712 7.77983ZM48.5401 10V1.27273H49.8143V10H48.5401ZM52.6737 10L50.3299 6.8892L51.2077 5.99858L54.2376 10H52.6737ZM57.1246 10.1449C56.7099 10.1449 56.3349 10.0682 55.9996 9.91477C55.6644 9.75852 55.3988 9.53267 55.2028 9.23722C55.0096 8.94176 54.913 8.57955 54.913 8.15057C54.913 7.78125 54.984 7.47727 55.1261 7.23864C55.2681 7 55.4599 6.81108 55.7013 6.67188C55.9428 6.53267 56.2127 6.42756 56.511 6.35653C56.8093 6.28551 57.1133 6.23153 57.4229 6.1946C57.815 6.14915 58.1332 6.11222 58.3775 6.08381C58.6218 6.05256 58.7994 6.00284 58.9102 5.93466C59.021 5.86648 59.0763 5.75568 59.0763 5.60227V5.57244C59.0763 5.20028 58.9712 4.91193 58.761 4.70739C58.5536 4.50284 58.244 4.40057 57.832 4.40057C57.4031 4.40057 57.065 4.49574 56.8178 4.68608C56.5735 4.87358 56.4045 5.08239 56.3107 5.3125L55.1133 5.03977C55.2553 4.64205 55.4627 4.32102 55.7354 4.0767C56.011 3.82955 56.3278 3.65057 56.6857 3.53977C57.0437 3.42614 57.4201 3.36932 57.815 3.36932C58.0763 3.36932 58.3533 3.40057 58.646 3.46307C58.9414 3.52273 59.217 3.63352 59.4727 3.79545C59.7312 3.95739 59.9428 4.18892 60.1076 4.49006C60.2724 4.78835 60.3548 5.17614 60.3548 5.65341V10H59.1104V9.10511H59.0593C58.9769 9.26989 58.8533 9.43182 58.6886 9.59091C58.5238 9.75 58.3121 9.8821 58.0536 9.98722C57.7951 10.0923 57.4854 10.1449 57.1246 10.1449ZM57.4016 9.12216C57.7539 9.12216 58.055 9.05256 58.305 8.91335C58.5579 8.77415 58.7496 8.59233 58.8803 8.3679C59.0138 8.14062 59.0806 7.89773 59.0806 7.6392V6.79545C59.0352 6.84091 58.9471 6.88352 58.8164 6.9233C58.6886 6.96023 58.5423 6.9929 58.3775 7.02131C58.2127 7.04687 58.0522 7.07102 57.896 7.09375C57.7397 7.11364 57.609 7.13068 57.5039 7.14489C57.2567 7.17614 57.0309 7.22869 56.8263 7.30256C56.6246 7.37642 56.4627 7.48295 56.3406 7.62216C56.2212 7.75852 56.1616 7.94034 56.1616 8.16761C56.1616 8.48295 56.2781 8.72159 56.511 8.88352C56.744 9.04261 57.0408 9.12216 57.4016 9.12216ZM62.0518 10V3.45455H63.2834V4.49432H63.3516C63.4709 4.14205 63.6811 3.86506 63.9822 3.66335C64.2862 3.45881 64.63 3.35653 65.0135 3.35653C65.093 3.35653 65.1868 3.35937 65.2947 3.36506C65.4055 3.37074 65.4922 3.37784 65.5547 3.38636V4.60511C65.5036 4.59091 65.4126 4.57528 65.282 4.55824C65.1513 4.53835 65.0206 4.52841 64.8899 4.52841C64.5888 4.52841 64.3203 4.59233 64.0845 4.72017C63.8516 4.84517 63.6669 5.01989 63.5305 5.24432C63.3942 5.46591 63.326 5.71875 63.326 6.00284V10H62.0518ZM70.0994 3.45455V4.47727H66.5241V3.45455H70.0994ZM67.483 1.88636H68.7571V8.07812C68.7571 8.32528 68.794 8.51136 68.8679 8.63636C68.9418 8.75852 69.0369 8.84233 69.1534 8.88778C69.2727 8.9304 69.402 8.9517 69.5412 8.9517C69.6435 8.9517 69.733 8.9446 69.8097 8.9304C69.8864 8.91619 69.946 8.90483 69.9886 8.89631L70.2188 9.94886C70.1449 9.97727 70.0398 10.0057 69.9034 10.0341C69.767 10.0653 69.5966 10.0824 69.392 10.0852C69.0568 10.0909 68.7443 10.0312 68.4545 9.90625C68.1648 9.78125 67.9304 9.58807 67.7514 9.3267C67.5724 9.06534 67.483 8.73722 67.483 8.34233V1.88636ZM73.4137 10.1449C72.9989 10.1449 72.6239 10.0682 72.2887 9.91477C71.9535 9.75852 71.6879 9.53267 71.4918 9.23722C71.2987 8.94176 71.2021 8.57955 71.2021 8.15057C71.2021 7.78125 71.2731 7.47727 71.4151 7.23864C71.5572 7 71.7489 6.81108 71.9904 6.67188C72.2319 6.53267 72.5018 6.42756 72.8001 6.35653C73.0984 6.28551 73.4023 6.23153 73.712 6.1946C74.104 6.14915 74.4222 6.11222 74.6665 6.08381C74.9109 6.05256 75.0884 6.00284 75.1992 5.93466C75.31 5.86648 75.3654 5.75568 75.3654 5.60227V5.57244C75.3654 5.20028 75.2603 4.91193 75.0501 4.70739C74.8427 4.50284 74.533 4.40057 74.1211 4.40057C73.6921 4.40057 73.354 4.49574 73.1069 4.68608C72.8626 4.87358 72.6935 5.08239 72.5998 5.3125L71.4023 5.03977C71.5444 4.64205 71.7518 4.32102 72.0245 4.0767C72.3001 3.82955 72.6168 3.65057 72.9748 3.53977C73.3327 3.42614 73.7092 3.36932 74.104 3.36932C74.3654 3.36932 74.6424 3.40057 74.935 3.46307C75.2305 3.52273 75.506 3.63352 75.7617 3.79545C76.0202 3.95739 76.2319 4.18892 76.3967 4.49006C76.5614 4.78835 76.6438 5.17614 76.6438 5.65341V10H75.3995V9.10511H75.3484C75.266 9.26989 75.1424 9.43182 74.9776 9.59091C74.8129 9.75 74.6012 9.8821 74.3427 9.98722C74.0842 10.0923 73.7745 10.1449 73.4137 10.1449ZM73.6907 9.12216C74.043 9.12216 74.3441 9.05256 74.5941 8.91335C74.8469 8.77415 75.0387 8.59233 75.1694 8.3679C75.3029 8.14062 75.3697 7.89773 75.3697 7.6392V6.79545C75.3242 6.84091 75.2362 6.88352 75.1055 6.9233C74.9776 6.96023 74.8313 6.9929 74.6665 7.02131C74.5018 7.04687 74.3413 7.07102 74.185 7.09375C74.0288 7.11364 73.8981 7.13068 73.793 7.14489C73.5458 7.17614 73.32 7.22869 73.1154 7.30256C72.9137 7.37642 72.7518 7.48295 72.6296 7.62216C72.5103 7.75852 72.4506 7.94034 72.4506 8.16761C72.4506 8.48295 72.5671 8.72159 72.8001 8.88352C73.033 9.04261 73.3299 9.12216 73.6907 9.12216Z" fill="#2E2F30"/>
<rect y="84" width="168" height="36" rx="2" fill="#EBF2F4"/>
<rect x="180" y="84" width="88" height="36" rx="2" fill="#EBF2F4"/>
<path d="M3.78409 78H0.958807V69.2727H3.87358C4.72869 69.2727 5.46307 69.4474 6.0767 69.7969C6.69034 70.1435 7.16051 70.642 7.48722 71.2926C7.81676 71.9403 7.98153 72.7173 7.98153 73.6236C7.98153 74.5327 7.81534 75.3139 7.48295 75.9673C7.15341 76.6207 6.67614 77.1236 6.05114 77.4759C5.42614 77.8253 4.67045 78 3.78409 78ZM2.27557 76.8494H3.71165C4.37642 76.8494 4.92898 76.7244 5.36932 76.4744C5.80966 76.2216 6.1392 75.8565 6.35795 75.3793C6.5767 74.8991 6.68608 74.3139 6.68608 73.6236C6.68608 72.9389 6.5767 72.358 6.35795 71.8807C6.14205 71.4034 5.8196 71.0412 5.39062 70.794C4.96165 70.5469 4.42898 70.4233 3.79261 70.4233H2.27557V76.8494ZM11.4215 78.1449C11.0067 78.1449 10.6317 78.0682 10.2965 77.9148C9.96129 77.7585 9.69567 77.5327 9.49964 77.2372C9.30646 76.9418 9.20987 76.5795 9.20987 76.1506C9.20987 75.7812 9.28089 75.4773 9.42294 75.2386C9.56499 75 9.75675 74.8111 9.99822 74.6719C10.2397 74.5327 10.5096 74.4276 10.8079 74.3565C11.1062 74.2855 11.4102 74.2315 11.7198 74.1946C12.1119 74.1491 12.43 74.1122 12.6744 74.0838C12.9187 74.0526 13.0962 74.0028 13.207 73.9347C13.3178 73.8665 13.3732 73.7557 13.3732 73.6023V73.5724C13.3732 73.2003 13.2681 72.9119 13.0579 72.7074C12.8505 72.5028 12.5408 72.4006 12.1289 72.4006C11.6999 72.4006 11.3619 72.4957 11.1147 72.6861C10.8704 72.8736 10.7013 73.0824 10.6076 73.3125L9.41016 73.0398C9.5522 72.642 9.75959 72.321 10.0323 72.0767C10.3079 71.8295 10.6246 71.6506 10.9826 71.5398C11.3406 71.4261 11.717 71.3693 12.1119 71.3693C12.3732 71.3693 12.6502 71.4006 12.9428 71.4631C13.2383 71.5227 13.5138 71.6335 13.7695 71.7955C14.0281 71.9574 14.2397 72.1889 14.4045 72.4901C14.5692 72.7884 14.6516 73.1761 14.6516 73.6534V78H13.4073V77.1051H13.3562C13.2738 77.2699 13.1502 77.4318 12.9854 77.5909C12.8207 77.75 12.609 77.8821 12.3505 77.9872C12.092 78.0923 11.7823 78.1449 11.4215 78.1449ZM11.6985 77.1222C12.0508 77.1222 12.3519 77.0526 12.6019 76.9134C12.8548 76.7741 13.0465 76.5923 13.1772 76.3679C13.3107 76.1406 13.3775 75.8977 13.3775 75.6392V74.7955C13.332 74.8409 13.244 74.8835 13.1133 74.9233C12.9854 74.9602 12.8391 74.9929 12.6744 75.0213C12.5096 75.0469 12.3491 75.071 12.1928 75.0938C12.0366 75.1136 11.9059 75.1307 11.8008 75.1449C11.5536 75.1761 11.3278 75.2287 11.1232 75.3026C10.9215 75.3764 10.7596 75.483 10.6374 75.6222C10.5181 75.7585 10.4585 75.9403 10.4585 76.1676C10.4585 76.483 10.5749 76.7216 10.8079 76.8835C11.0408 77.0426 11.3377 77.1222 11.6985 77.1222ZM19.4041 71.4545V72.4773H15.8288V71.4545H19.4041ZM16.7876 69.8864H18.0618V76.0781C18.0618 76.3253 18.0987 76.5114 18.1726 76.6364C18.2464 76.7585 18.3416 76.8423 18.4581 76.8878C18.5774 76.9304 18.7067 76.9517 18.8459 76.9517C18.9482 76.9517 19.0376 76.9446 19.1143 76.9304C19.1911 76.9162 19.2507 76.9048 19.2933 76.8963L19.5234 77.9489C19.4496 77.9773 19.3445 78.0057 19.2081 78.0341C19.0717 78.0653 18.9013 78.0824 18.6967 78.0852C18.3615 78.0909 18.049 78.0312 17.7592 77.9062C17.4695 77.7812 17.2351 77.5881 17.0561 77.3267C16.8771 77.0653 16.7876 76.7372 16.7876 76.3423V69.8864ZM24.9599 75.2855V71.4545H26.2383V78H24.9854V76.8665H24.9173C24.7667 77.2159 24.5252 77.5071 24.1928 77.7401C23.8633 77.9702 23.4528 78.0852 22.9613 78.0852C22.5408 78.0852 22.1687 77.9929 21.8448 77.8082C21.5238 77.6207 21.271 77.3438 21.0863 76.9773C20.9045 76.6108 20.8136 76.1577 20.8136 75.6179V71.4545H22.0877V75.4645C22.0877 75.9105 22.2113 76.2656 22.4585 76.5298C22.7056 76.794 23.0266 76.9261 23.4215 76.9261C23.6602 76.9261 23.8974 76.8665 24.1332 76.7472C24.3718 76.6278 24.5692 76.4474 24.7255 76.206C24.8846 75.9645 24.9627 75.6577 24.9599 75.2855ZM27.9503 78V71.4545H29.1733V72.5199H29.2543C29.3906 72.1591 29.6136 71.8778 29.9233 71.6761C30.233 71.4716 30.6037 71.3693 31.0355 71.3693C31.473 71.3693 31.8395 71.4716 32.1349 71.6761C32.4332 71.8807 32.6534 72.1619 32.7955 72.5199H32.8636C33.0199 72.1705 33.2685 71.892 33.6094 71.6847C33.9503 71.4744 34.3565 71.3693 34.8281 71.3693C35.4219 71.3693 35.9062 71.5554 36.2812 71.9276C36.6591 72.2997 36.848 72.8608 36.848 73.6108V78H35.5739V73.7301C35.5739 73.2869 35.4531 72.9659 35.2116 72.767C34.9702 72.5682 34.6818 72.4688 34.3466 72.4688C33.9318 72.4688 33.6094 72.5966 33.3793 72.8523C33.1491 73.1051 33.0341 73.4304 33.0341 73.8281V78H31.7642V73.6491C31.7642 73.294 31.6534 73.0085 31.4318 72.7926C31.2102 72.5767 30.9219 72.4688 30.5668 72.4688C30.3253 72.4688 30.1023 72.5327 29.8977 72.6605C29.696 72.7855 29.5327 72.9602 29.4077 73.1847C29.2855 73.4091 29.2244 73.669 29.2244 73.9645V78H27.9503ZM47.331 71.4545L44.9574 78H43.5938L41.2159 71.4545H42.5838L44.2415 76.4915H44.3097L45.9631 71.4545H47.331ZM49.3338 80.4545C49.1435 80.4545 48.9702 80.4389 48.8139 80.4077C48.6577 80.3793 48.5412 80.348 48.4645 80.3139L48.7713 79.2699C49.0043 79.3324 49.2116 79.3594 49.3935 79.3509C49.5753 79.3423 49.7358 79.2741 49.875 79.1463C50.017 79.0185 50.142 78.8097 50.25 78.5199L50.4077 78.0852L48.0128 71.4545H49.3764L51.0341 76.5341H51.1023L52.7599 71.4545H54.1278L51.4304 78.8736C51.3054 79.2145 51.1463 79.5028 50.9531 79.7386C50.7599 79.9773 50.5298 80.1563 50.2628 80.2756C49.9957 80.3949 49.6861 80.4545 49.3338 80.4545ZM55.3253 80.4545V71.4545H56.5696V72.5156H56.6761C56.75 72.3793 56.8565 72.2216 56.9957 72.0426C57.1349 71.8636 57.3281 71.7074 57.5753 71.5739C57.8224 71.4375 58.1491 71.3693 58.5554 71.3693C59.0838 71.3693 59.5554 71.5028 59.9702 71.7699C60.3849 72.0369 60.7102 72.4219 60.946 72.9247C61.1847 73.4276 61.304 74.0327 61.304 74.7401C61.304 75.4474 61.1861 76.054 60.9503 76.5597C60.7145 77.0625 60.3906 77.4503 59.9787 77.723C59.5668 77.9929 59.0966 78.1278 58.5682 78.1278C58.1705 78.1278 57.8452 78.0611 57.5923 77.9276C57.3423 77.794 57.1463 77.6378 57.0043 77.4588C56.8622 77.2798 56.7528 77.1207 56.6761 76.9815H56.5994V80.4545H55.3253ZM56.5739 74.7273C56.5739 75.1875 56.6406 75.5909 56.7741 75.9375C56.9077 76.2841 57.1009 76.5554 57.3537 76.7514C57.6065 76.9446 57.9162 77.0412 58.2827 77.0412C58.6634 77.0412 58.9815 76.9403 59.2372 76.7386C59.4929 76.5341 59.6861 76.2571 59.8168 75.9077C59.9503 75.5582 60.017 75.1648 60.017 74.7273C60.017 74.2955 59.9517 73.9077 59.821 73.5639C59.6932 73.2202 59.5 72.9489 59.2415 72.75C58.9858 72.5511 58.6662 72.4517 58.2827 72.4517C57.9134 72.4517 57.6009 72.5469 57.3452 72.7372C57.0923 72.9276 56.9006 73.1932 56.7699 73.5341C56.6392 73.875 56.5739 74.2727 56.5739 74.7273ZM62.7315 78V71.4545H63.9631V72.4943H64.0312C64.1506 72.142 64.3608 71.8651 64.6619 71.6634C64.9659 71.4588 65.3097 71.3565 65.6932 71.3565C65.7727 71.3565 65.8665 71.3594 65.9744 71.3651C66.0852 71.3707 66.1719 71.3778 66.2344 71.3864V72.6051C66.1832 72.5909 66.0923 72.5753 65.9616 72.5582C65.831 72.5384 65.7003 72.5284 65.5696 72.5284C65.2685 72.5284 65 72.5923 64.7642 72.7202C64.5313 72.8452 64.3466 73.0199 64.2102 73.2443C64.0739 73.4659 64.0057 73.7187 64.0057 74.0028V78H62.7315ZM72.2418 73.0526L71.087 73.2571C71.0387 73.1094 70.962 72.9687 70.8569 72.8352C70.7546 72.7017 70.6154 72.5923 70.4393 72.5071C70.2631 72.4219 70.043 72.3793 69.7788 72.3793C69.418 72.3793 69.1168 72.4602 68.8754 72.6222C68.6339 72.7812 68.5131 72.9872 68.5131 73.2401C68.5131 73.4588 68.5941 73.6349 68.756 73.7685C68.918 73.902 69.1793 74.0114 69.5401 74.0966L70.5799 74.3352C71.1822 74.4744 71.631 74.6889 71.9265 74.9787C72.2219 75.2685 72.3697 75.6449 72.3697 76.108C72.3697 76.5 72.256 76.8494 72.0288 77.1562C71.8043 77.4602 71.4904 77.6989 71.087 77.8722C70.6864 78.0455 70.2219 78.1321 69.6935 78.1321C68.9606 78.1321 68.3626 77.9759 67.8995 77.6634C67.4364 77.348 67.1523 76.9006 67.0472 76.321L68.2788 76.1335C68.3555 76.4545 68.5131 76.6974 68.7518 76.8622C68.9904 77.0241 69.3015 77.1051 69.685 77.1051C70.1026 77.1051 70.4364 77.0185 70.6864 76.8452C70.9364 76.669 71.0614 76.4545 71.0614 76.2017C71.0614 75.9972 70.9847 75.8253 70.8313 75.6861C70.6808 75.5469 70.4492 75.4418 70.1367 75.3707L69.0288 75.1278C68.418 74.9886 67.9663 74.767 67.6737 74.4631C67.3839 74.1591 67.239 73.7741 67.239 73.3082C67.239 72.9219 67.3469 72.5838 67.5629 72.294C67.7788 72.0043 68.0771 71.7784 68.4577 71.6165C68.8384 71.4517 69.2745 71.3693 69.766 71.3693C70.4734 71.3693 71.0302 71.5227 71.4364 71.8295C71.8427 72.1335 72.1112 72.5412 72.2418 73.0526ZM68.9052 68.7997L69.783 69.9418L70.6566 68.7997H71.8114V68.8636L70.3114 70.6705H69.2504L67.7546 68.8636V68.7997H68.9052ZM76.5916 78.1321C75.9467 78.1321 75.3913 77.9943 74.9254 77.7188C74.4624 77.4403 74.1044 77.0497 73.8516 76.5469C73.6016 76.0412 73.4766 75.4489 73.4766 74.7699C73.4766 74.0994 73.6016 73.5085 73.8516 72.9972C74.1044 72.4858 74.4567 72.0866 74.9084 71.7997C75.3629 71.5128 75.8942 71.3693 76.5021 71.3693C76.8714 71.3693 77.2294 71.4304 77.576 71.5526C77.9226 71.6747 78.2337 71.8665 78.5092 72.1278C78.7848 72.3892 79.0021 72.7287 79.1612 73.1463C79.3203 73.5611 79.3999 74.0653 79.3999 74.6591V75.1108H74.1967V74.1562H78.1513C78.1513 73.821 78.0831 73.5241 77.9467 73.2656C77.8104 73.0043 77.6186 72.7983 77.3714 72.6477C77.1271 72.4972 76.8402 72.4219 76.5107 72.4219C76.1527 72.4219 75.8402 72.5099 75.5732 72.6861C75.3089 72.8594 75.1044 73.0866 74.9595 73.3679C74.8175 73.6463 74.7464 73.9489 74.7464 74.2756V75.0213C74.7464 75.4588 74.8232 75.831 74.9766 76.1378C75.1328 76.4446 75.3501 76.679 75.6286 76.8409C75.907 77 76.2322 77.0795 76.6044 77.0795C76.8459 77.0795 77.0661 77.0455 77.2649 76.9773C77.4638 76.9062 77.6357 76.8011 77.7805 76.6619C77.9254 76.5227 78.0362 76.3509 78.1129 76.1463L79.3189 76.3636C79.2223 76.7187 79.049 77.0298 78.799 77.2969C78.5518 77.5611 78.2408 77.767 77.8658 77.9148C77.4936 78.0597 77.0689 78.1321 76.5916 78.1321ZM82.0877 74.1136V78H80.8136V71.4545H82.0366V72.5199H82.1175C82.2681 72.1733 82.5039 71.8949 82.8249 71.6847C83.1488 71.4744 83.5565 71.3693 84.0479 71.3693C84.494 71.3693 84.8846 71.4631 85.2198 71.6506C85.555 71.8352 85.815 72.1108 85.9996 72.4773C86.1843 72.8437 86.2766 73.2969 86.2766 73.8366V78H85.0025V73.9901C85.0025 73.5156 84.8789 73.1449 84.6317 72.8778C84.3846 72.608 84.0451 72.473 83.6133 72.473C83.3178 72.473 83.055 72.5369 82.8249 72.6648C82.5977 72.7926 82.4173 72.9801 82.2837 73.2273C82.1531 73.4716 82.0877 73.767 82.0877 74.1136ZM87.9854 78V71.4545H89.2596V78H87.9854ZM88.1048 70.581L89.1019 68.6165H90.4442L89.1232 70.581H88.1048ZM94.1495 80.4545V71.4545H95.3938V72.5156H95.5004C95.5742 72.3793 95.6808 72.2216 95.82 72.0426C95.9592 71.8636 96.1523 71.7074 96.3995 71.5739C96.6467 71.4375 96.9734 71.3693 97.3796 71.3693C97.908 71.3693 98.3796 71.5028 98.7944 71.7699C99.2092 72.0369 99.5344 72.4219 99.7702 72.9247C100.009 73.4276 100.128 74.0327 100.128 74.7401C100.128 75.4474 100.01 76.054 99.7745 76.5597C99.5387 77.0625 99.2148 77.4503 98.8029 77.723C98.391 77.9929 97.9208 78.1278 97.3924 78.1278C96.9947 78.1278 96.6694 78.0611 96.4165 77.9276C96.1665 77.794 95.9705 77.6378 95.8285 77.4588C95.6864 77.2798 95.5771 77.1207 95.5004 76.9815H95.4237V80.4545H94.1495ZM95.3981 74.7273C95.3981 75.1875 95.4648 75.5909 95.5984 75.9375C95.7319 76.2841 95.9251 76.5554 96.1779 76.7514C96.4308 76.9446 96.7404 77.0412 97.1069 77.0412C97.4876 77.0412 97.8058 76.9403 98.0614 76.7386C98.3171 76.5341 98.5103 76.2571 98.641 75.9077C98.7745 75.5582 98.8413 75.1648 98.8413 74.7273C98.8413 74.2955 98.7759 73.9077 98.6452 73.5639C98.5174 73.2202 98.3242 72.9489 98.0657 72.75C97.81 72.5511 97.4904 72.4517 97.1069 72.4517C96.7376 72.4517 96.4251 72.5469 96.1694 72.7372C95.9165 72.9276 95.7248 73.1932 95.5941 73.5341C95.4634 73.875 95.3981 74.2727 95.3981 74.7273ZM102.83 69.2727V78H101.556V69.2727H102.83ZM106.449 78.1449C106.034 78.1449 105.659 78.0682 105.324 77.9148C104.989 77.7585 104.723 77.5327 104.527 77.2372C104.334 76.9418 104.237 76.5795 104.237 76.1506C104.237 75.7812 104.308 75.4773 104.45 75.2386C104.592 75 104.784 74.8111 105.026 74.6719C105.267 74.5327 105.537 74.4276 105.835 74.3565C106.134 74.2855 106.438 74.2315 106.747 74.1946C107.139 74.1491 107.457 74.1122 107.702 74.0838C107.946 74.0526 108.124 74.0028 108.234 73.9347C108.345 73.8665 108.401 73.7557 108.401 73.6023V73.5724C108.401 73.2003 108.295 72.9119 108.085 72.7074C107.878 72.5028 107.568 72.4006 107.156 72.4006C106.727 72.4006 106.389 72.4957 106.142 72.6861C105.898 72.8736 105.729 73.0824 105.635 73.3125L104.438 73.0398C104.58 72.642 104.787 72.321 105.06 72.0767C105.335 71.8295 105.652 71.6506 106.01 71.5398C106.368 71.4261 106.744 71.3693 107.139 71.3693C107.401 71.3693 107.678 71.4006 107.97 71.4631C108.266 71.5227 108.541 71.6335 108.797 71.7955C109.055 71.9574 109.267 72.1889 109.432 72.4901C109.597 72.7884 109.679 73.1761 109.679 73.6534V78H108.435V77.1051H108.384C108.301 77.2699 108.178 77.4318 108.013 77.5909C107.848 77.75 107.636 77.8821 107.378 77.9872C107.119 78.0923 106.81 78.1449 106.449 78.1449ZM106.726 77.1222C107.078 77.1222 107.379 77.0526 107.629 76.9134C107.882 76.7741 108.074 76.5923 108.205 76.3679C108.338 76.1406 108.405 75.8977 108.405 75.6392V74.7955C108.359 74.8409 108.271 74.8835 108.141 74.9233C108.013 74.9602 107.866 74.9929 107.702 75.0213C107.537 75.0469 107.376 75.071 107.22 75.0938C107.064 75.1136 106.933 75.1307 106.828 75.1449C106.581 75.1761 106.355 75.2287 106.151 75.3026C105.949 75.3764 105.787 75.483 105.665 75.6222C105.545 75.7585 105.486 75.9403 105.486 76.1676C105.486 76.483 105.602 76.7216 105.835 76.8835C106.068 77.0426 106.365 77.1222 106.726 77.1222ZM114.431 71.4545V72.4773H110.856V71.4545H114.431ZM111.815 69.8864H113.089V76.0781C113.089 76.3253 113.126 76.5114 113.2 76.6364C113.274 76.7585 113.369 76.8423 113.485 76.8878C113.605 76.9304 113.734 76.9517 113.873 76.9517C113.975 76.9517 114.065 76.9446 114.142 76.9304C114.218 76.9162 114.278 76.9048 114.321 76.8963L114.551 77.9489C114.477 77.9773 114.372 78.0057 114.235 78.0341C114.099 78.0653 113.929 78.0824 113.724 78.0852C113.389 78.0909 113.076 78.0312 112.787 77.9062C112.497 77.7812 112.262 77.5881 112.083 77.3267C111.904 77.0653 111.815 76.7372 111.815 76.3423V69.8864ZM117.115 74.1136V78H115.841V71.4545H117.064V72.5199H117.145C117.295 72.1733 117.531 71.8949 117.852 71.6847C118.176 71.4744 118.584 71.3693 119.075 71.3693C119.521 71.3693 119.912 71.4631 120.247 71.6506C120.582 71.8352 120.842 72.1108 121.027 72.4773C121.212 72.8437 121.304 73.2969 121.304 73.8366V78H120.03V73.9901C120.03 73.5156 119.906 73.1449 119.659 72.8778C119.412 72.608 119.072 72.473 118.641 72.473C118.345 72.473 118.082 72.5369 117.852 72.6648C117.625 72.7926 117.445 72.9801 117.311 73.2273C117.18 73.4716 117.115 73.767 117.115 74.1136ZM125.77 78.1321C125.156 78.1321 124.621 77.9915 124.163 77.7102C123.706 77.429 123.351 77.0355 123.098 76.5298C122.845 76.0241 122.719 75.4332 122.719 74.7571C122.719 74.0781 122.845 73.4844 123.098 72.9759C123.351 72.4673 123.706 72.0724 124.163 71.7912C124.621 71.5099 125.156 71.3693 125.77 71.3693C126.384 71.3693 126.919 71.5099 127.376 71.7912C127.834 72.0724 128.189 72.4673 128.442 72.9759C128.695 73.4844 128.821 74.0781 128.821 74.7571C128.821 75.4332 128.695 76.0241 128.442 76.5298C128.189 77.0355 127.834 77.429 127.376 77.7102C126.919 77.9915 126.384 78.1321 125.77 78.1321ZM125.774 77.0625C126.172 77.0625 126.501 76.9574 126.763 76.7472C127.024 76.5369 127.217 76.2571 127.342 75.9077C127.47 75.5582 127.534 75.1733 127.534 74.7528C127.534 74.3352 127.47 73.9517 127.342 73.6023C127.217 73.25 127.024 72.9673 126.763 72.7543C126.501 72.5412 126.172 72.4347 125.774 72.4347C125.374 72.4347 125.041 72.5412 124.777 72.7543C124.516 72.9673 124.321 73.25 124.193 73.6023C124.068 73.9517 124.006 74.3352 124.006 74.7528C124.006 75.1733 124.068 75.5582 124.193 75.9077C124.321 76.2571 124.516 76.5369 124.777 76.7472C125.041 76.9574 125.374 77.0625 125.774 77.0625ZM135.148 73.0526L133.993 73.2571C133.945 73.1094 133.868 72.9687 133.763 72.8352C133.661 72.7017 133.522 72.5923 133.346 72.5071C133.169 72.4219 132.949 72.3793 132.685 72.3793C132.324 72.3793 132.023 72.4602 131.782 72.6222C131.54 72.7812 131.419 72.9872 131.419 73.2401C131.419 73.4588 131.5 73.6349 131.662 73.7685C131.824 73.902 132.086 74.0114 132.446 74.0966L133.486 74.3352C134.088 74.4744 134.537 74.6889 134.833 74.9787C135.128 75.2685 135.276 75.6449 135.276 76.108C135.276 76.5 135.162 76.8494 134.935 77.1562C134.711 77.4602 134.397 77.6989 133.993 77.8722C133.593 78.0455 133.128 78.1321 132.6 78.1321C131.867 78.1321 131.269 77.9759 130.806 77.6634C130.343 77.348 130.059 76.9006 129.953 76.321L131.185 76.1335C131.262 76.4545 131.419 76.6974 131.658 76.8622C131.897 77.0241 132.208 77.1051 132.591 77.1051C133.009 77.1051 133.343 77.0185 133.593 76.8452C133.843 76.669 133.968 76.4545 133.968 76.2017C133.968 75.9972 133.891 75.8253 133.738 75.6861C133.587 75.5469 133.355 75.4418 133.043 75.3707L131.935 75.1278C131.324 74.9886 130.873 74.767 130.58 74.4631C130.29 74.1591 130.145 73.7741 130.145 73.3082C130.145 72.9219 130.253 72.5838 130.469 72.294C130.685 72.0043 130.983 71.7784 131.364 71.6165C131.745 71.4517 132.181 71.3693 132.672 71.3693C133.38 71.3693 133.936 71.5227 134.343 71.8295C134.749 72.1335 135.017 72.5412 135.148 73.0526ZM139.732 71.4545V72.4773H136.157V71.4545H139.732ZM137.116 69.8864H138.39V76.0781C138.39 76.3253 138.427 76.5114 138.501 76.6364C138.575 76.7585 138.67 76.8423 138.786 76.8878C138.906 76.9304 139.035 76.9517 139.174 76.9517C139.276 76.9517 139.366 76.9446 139.442 76.9304C139.519 76.9162 139.579 76.9048 139.621 76.8963L139.852 77.9489C139.778 77.9773 139.673 78.0057 139.536 78.0341C139.4 78.0653 139.229 78.0824 139.025 78.0852C138.69 78.0909 138.377 78.0312 138.087 77.9062C137.798 77.7812 137.563 77.5881 137.384 77.3267C137.205 77.0653 137.116 76.7372 137.116 76.3423V69.8864ZM141.142 78V71.4545H142.416V78H141.142ZM141.785 70.4446C141.564 70.4446 141.373 70.3707 141.214 70.223C141.058 70.0724 140.98 69.8935 140.98 69.6861C140.98 69.4759 141.058 69.2969 141.214 69.1491C141.373 68.9986 141.564 68.9233 141.785 68.9233C142.007 68.9233 142.196 68.9986 142.352 69.1491C142.511 69.2969 142.591 69.4759 142.591 69.6861C142.591 69.8935 142.511 70.0724 142.352 70.223C142.196 70.3707 142.007 70.4446 141.785 70.4446Z" fill="#2E2F30"/>
<path d="M188.207 72.1108H186.878C186.827 71.8267 186.732 71.5767 186.592 71.3608C186.453 71.1449 186.283 70.9616 186.081 70.8111C185.879 70.6605 185.653 70.5469 185.403 70.4702C185.156 70.3935 184.893 70.3551 184.615 70.3551C184.112 70.3551 183.662 70.4815 183.264 70.7344C182.869 70.9872 182.557 71.358 182.327 71.8466C182.099 72.3352 181.986 72.9318 181.986 73.6364C181.986 74.3466 182.099 74.946 182.327 75.4347C182.557 75.9233 182.871 76.2926 183.268 76.5426C183.666 76.7926 184.114 76.9176 184.611 76.9176C184.886 76.9176 185.148 76.8807 185.395 76.8068C185.645 76.7301 185.871 76.6179 186.072 76.4702C186.274 76.3224 186.445 76.142 186.584 75.929C186.726 75.7131 186.824 75.4659 186.878 75.1875L188.207 75.1918C188.136 75.6207 187.999 76.0156 187.794 76.3764C187.592 76.7344 187.332 77.044 187.014 77.3054C186.699 77.5639 186.338 77.7642 185.932 77.9062C185.526 78.0483 185.082 78.1193 184.602 78.1193C183.847 78.1193 183.173 77.9403 182.582 77.5824C181.991 77.2216 181.526 76.706 181.185 76.0355C180.847 75.3651 180.678 74.5653 180.678 73.6364C180.678 72.7045 180.848 71.9048 181.189 71.2372C181.53 70.5668 181.996 70.0526 182.587 69.6946C183.178 69.3338 183.849 69.1534 184.602 69.1534C185.065 69.1534 185.497 69.2202 185.898 69.3537C186.301 69.4844 186.663 69.6776 186.984 69.9332C187.305 70.1861 187.571 70.4957 187.781 70.8622C187.991 71.2259 188.134 71.642 188.207 72.1108ZM190.546 69.2727L192.975 76.3807H193.073L195.502 69.2727H196.925L193.784 78H192.263L189.123 69.2727H190.546ZM198.948 69.2727L201.377 76.3807H201.475L203.904 69.2727H205.327L202.187 78H200.665L197.525 69.2727H198.948Z" fill="#2E2F30"/>
<rect y="152" width="268" height="36" rx="2" fill="#EBF2F4"/>
<path d="M4.35085 137.273H5.66335V143.46C5.66335 144.02 5.55256 144.499 5.33097 144.896C5.11222 145.294 4.80398 145.598 4.40625 145.808C4.00852 146.016 3.54261 146.119 3.00852 146.119C2.51705 146.119 2.07528 146.03 1.68324 145.851C1.29403 145.672 0.985795 145.412 0.758523 145.071C0.534091 144.727 0.421875 144.31 0.421875 143.818H1.73011C1.73011 144.06 1.78551 144.268 1.89631 144.445C2.00994 144.621 2.16477 144.759 2.3608 144.858C2.55966 144.955 2.78693 145.003 3.04261 145.003C3.32102 145.003 3.55682 144.945 3.75 144.828C3.94602 144.709 4.09517 144.534 4.19744 144.304C4.29972 144.074 4.35085 143.793 4.35085 143.46V137.273ZM7.47763 146V139.455H8.70064V140.52H8.78161C8.91797 140.159 9.14098 139.878 9.45064 139.676C9.7603 139.472 10.131 139.369 10.5629 139.369C11.0004 139.369 11.3668 139.472 11.6623 139.676C11.9606 139.881 12.1808 140.162 12.3228 140.52H12.391C12.5472 140.17 12.7958 139.892 13.1367 139.685C13.4776 139.474 13.8839 139.369 14.3555 139.369C14.9492 139.369 15.4336 139.555 15.8086 139.928C16.1864 140.3 16.3754 140.861 16.3754 141.611V146H15.1012V141.73C15.1012 141.287 14.9805 140.966 14.739 140.767C14.4975 140.568 14.2092 140.469 13.8739 140.469C13.4592 140.469 13.1367 140.597 12.9066 140.852C12.6765 141.105 12.5614 141.43 12.5614 141.828V146H11.2915V141.649C11.2915 141.294 11.1808 141.009 10.9592 140.793C10.7376 140.577 10.4492 140.469 10.0941 140.469C9.85263 140.469 9.62962 140.533 9.42507 140.661C9.22337 140.786 9.06001 140.96 8.93501 141.185C8.81286 141.409 8.75178 141.669 8.75178 141.964V146H7.47763ZM20.9041 146.132C20.2592 146.132 19.7038 145.994 19.2379 145.719C18.7749 145.44 18.4169 145.05 18.1641 144.547C17.9141 144.041 17.7891 143.449 17.7891 142.77C17.7891 142.099 17.9141 141.509 18.1641 140.997C18.4169 140.486 18.7692 140.087 19.2209 139.8C19.6754 139.513 20.2067 139.369 20.8146 139.369C21.1839 139.369 21.5419 139.43 21.8885 139.553C22.2351 139.675 22.5462 139.866 22.8217 140.128C23.0973 140.389 23.3146 140.729 23.4737 141.146C23.6328 141.561 23.7124 142.065 23.7124 142.659V143.111H18.5092V142.156H22.4638C22.4638 141.821 22.3956 141.524 22.2592 141.266C22.1229 141.004 21.9311 140.798 21.6839 140.648C21.4396 140.497 21.1527 140.422 20.8232 140.422C20.4652 140.422 20.1527 140.51 19.8857 140.686C19.6214 140.859 19.4169 141.087 19.272 141.368C19.13 141.646 19.0589 141.949 19.0589 142.276V143.021C19.0589 143.459 19.1357 143.831 19.2891 144.138C19.4453 144.445 19.6626 144.679 19.9411 144.841C20.2195 145 20.5447 145.08 20.9169 145.08C21.1584 145.08 21.3786 145.045 21.5774 144.977C21.7763 144.906 21.9482 144.801 22.093 144.662C22.2379 144.523 22.3487 144.351 22.4254 144.146L23.6314 144.364C23.5348 144.719 23.3615 145.03 23.1115 145.297C22.8643 145.561 22.5533 145.767 22.1783 145.915C21.8061 146.06 21.3814 146.132 20.9041 146.132ZM20.2393 138.581L21.2365 136.616H22.5788L21.2578 138.581H20.2393ZM26.4002 142.114V146H25.1261V139.455H26.3491V140.52H26.43C26.5806 140.173 26.8164 139.895 27.1374 139.685C27.4613 139.474 27.869 139.369 28.3604 139.369C28.8065 139.369 29.1971 139.463 29.5323 139.651C29.8675 139.835 30.1275 140.111 30.3121 140.477C30.4968 140.844 30.5891 141.297 30.5891 141.837V146H29.315V141.99C29.315 141.516 29.1914 141.145 28.9442 140.878C28.6971 140.608 28.3576 140.473 27.9258 140.473C27.6303 140.473 27.3675 140.537 27.1374 140.665C26.9102 140.793 26.7298 140.98 26.5962 141.227C26.4656 141.472 26.4002 141.767 26.4002 142.114ZM35.055 146.132C34.4414 146.132 33.9059 145.991 33.4485 145.71C32.9911 145.429 32.636 145.036 32.3832 144.53C32.1303 144.024 32.0039 143.433 32.0039 142.757C32.0039 142.078 32.1303 141.484 32.3832 140.976C32.636 140.467 32.9911 140.072 33.4485 139.791C33.9059 139.51 34.4414 139.369 35.055 139.369C35.6687 139.369 36.2042 139.51 36.6616 139.791C37.119 140.072 37.4741 140.467 37.7269 140.976C37.9798 141.484 38.1062 142.078 38.1062 142.757C38.1062 143.433 37.9798 144.024 37.7269 144.53C37.4741 145.036 37.119 145.429 36.6616 145.71C36.2042 145.991 35.6687 146.132 35.055 146.132ZM35.0593 145.062C35.457 145.062 35.7866 144.957 36.0479 144.747C36.3093 144.537 36.5025 144.257 36.6275 143.908C36.7553 143.558 36.8192 143.173 36.8192 142.753C36.8192 142.335 36.7553 141.952 36.6275 141.602C36.5025 141.25 36.3093 140.967 36.0479 140.754C35.7866 140.541 35.457 140.435 35.0593 140.435C34.6587 140.435 34.3263 140.541 34.0621 140.754C33.8008 140.967 33.6062 141.25 33.4783 141.602C33.3533 141.952 33.2908 142.335 33.2908 142.753C33.2908 143.173 33.3533 143.558 33.4783 143.908C33.6062 144.257 33.8008 144.537 34.0621 144.747C34.3263 144.957 34.6587 145.062 35.0593 145.062ZM43.9783 142.114V146H42.7042V139.455H43.9272V140.52H44.0082C44.1587 140.173 44.3945 139.895 44.7156 139.685C45.0394 139.474 45.4471 139.369 45.9386 139.369C46.3846 139.369 46.7752 139.463 47.1104 139.651C47.4457 139.835 47.7056 140.111 47.8903 140.477C48.0749 140.844 48.1673 141.297 48.1673 141.837V146H46.8931V141.99C46.8931 141.516 46.7695 141.145 46.5224 140.878C46.2752 140.608 45.9357 140.473 45.5039 140.473C45.2085 140.473 44.9457 140.537 44.7156 140.665C44.4883 140.793 44.3079 140.98 44.1744 141.227C44.0437 141.472 43.9783 141.767 43.9783 142.114ZM51.7809 146.145C51.3661 146.145 50.9911 146.068 50.6559 145.915C50.3207 145.759 50.055 145.533 49.859 145.237C49.6658 144.942 49.5692 144.58 49.5692 144.151C49.5692 143.781 49.6403 143.477 49.7823 143.239C49.9244 143 50.1161 142.811 50.3576 142.672C50.5991 142.533 50.869 142.428 51.1673 142.357C51.4656 142.286 51.7695 142.232 52.0792 142.195C52.4712 142.149 52.7894 142.112 53.0337 142.084C53.2781 142.053 53.4556 142.003 53.5664 141.935C53.6772 141.866 53.7326 141.756 53.7326 141.602V141.572C53.7326 141.2 53.6275 140.912 53.4173 140.707C53.2099 140.503 52.9002 140.401 52.4883 140.401C52.0593 140.401 51.7212 140.496 51.4741 140.686C51.2298 140.874 51.0607 141.082 50.967 141.312L49.7695 141.04C49.9116 140.642 50.119 140.321 50.3917 140.077C50.6673 139.83 50.984 139.651 51.342 139.54C51.6999 139.426 52.0763 139.369 52.4712 139.369C52.7326 139.369 53.0096 139.401 53.3022 139.463C53.5977 139.523 53.8732 139.634 54.1289 139.795C54.3874 139.957 54.5991 140.189 54.7638 140.49C54.9286 140.788 55.011 141.176 55.011 141.653V146H53.7667V145.105H53.7156C53.6332 145.27 53.5096 145.432 53.3448 145.591C53.18 145.75 52.9684 145.882 52.7099 145.987C52.4513 146.092 52.1417 146.145 51.7809 146.145ZM52.0579 145.122C52.4102 145.122 52.7113 145.053 52.9613 144.913C53.2141 144.774 53.4059 144.592 53.5366 144.368C53.6701 144.141 53.7369 143.898 53.7369 143.639V142.795C53.6914 142.841 53.6033 142.884 53.4727 142.923C53.3448 142.96 53.1985 142.993 53.0337 143.021C52.869 143.047 52.7085 143.071 52.5522 143.094C52.396 143.114 52.2653 143.131 52.1602 143.145C51.913 143.176 51.6871 143.229 51.4826 143.303C51.2809 143.376 51.119 143.483 50.9968 143.622C50.8775 143.759 50.8178 143.94 50.8178 144.168C50.8178 144.483 50.9343 144.722 51.1673 144.884C51.4002 145.043 51.6971 145.122 52.0579 145.122ZM61.0558 143.78L61.0472 142.224H61.2688L63.8768 139.455H65.4023L62.4279 142.608H62.2276L61.0558 143.78ZM59.8839 146V137.273H61.158V146H59.8839ZM64.0174 146L61.6737 142.889L62.5515 141.999L65.5813 146H64.0174ZM68.4684 146.145C68.0536 146.145 67.6786 146.068 67.3434 145.915C67.0082 145.759 66.7425 145.533 66.5465 145.237C66.3533 144.942 66.2567 144.58 66.2567 144.151C66.2567 143.781 66.3278 143.477 66.4698 143.239C66.6119 143 66.8036 142.811 67.0451 142.672C67.2866 142.533 67.5565 142.428 67.8548 142.357C68.1531 142.286 68.457 142.232 68.7667 142.195C69.1587 142.149 69.4769 142.112 69.7212 142.084C69.9656 142.053 70.1431 142.003 70.2539 141.935C70.3647 141.866 70.4201 141.756 70.4201 141.602V141.572C70.4201 141.2 70.315 140.912 70.1048 140.707C69.8974 140.503 69.5877 140.401 69.1758 140.401C68.7468 140.401 68.4087 140.496 68.1616 140.686C67.9173 140.874 67.7482 141.082 67.6545 141.312L66.457 141.04C66.5991 140.642 66.8065 140.321 67.0792 140.077C67.3548 139.83 67.6715 139.651 68.0295 139.54C68.3874 139.426 68.7638 139.369 69.1587 139.369C69.4201 139.369 69.6971 139.401 69.9897 139.463C70.2852 139.523 70.5607 139.634 70.8164 139.795C71.0749 139.957 71.2866 140.189 71.4513 140.49C71.6161 140.788 71.6985 141.176 71.6985 141.653V146H70.4542V145.105H70.4031C70.3207 145.27 70.1971 145.432 70.0323 145.591C69.8675 145.75 69.6559 145.882 69.3974 145.987C69.1388 146.092 68.8292 146.145 68.4684 146.145ZM68.7454 145.122C69.0977 145.122 69.3988 145.053 69.6488 144.913C69.9016 144.774 70.0934 144.592 70.2241 144.368C70.3576 144.141 70.4244 143.898 70.4244 143.639V142.795C70.3789 142.841 70.2908 142.884 70.1602 142.923C70.0323 142.96 69.886 142.993 69.7212 143.021C69.5565 143.047 69.396 143.071 69.2397 143.094C69.0835 143.114 68.9528 143.131 68.8477 143.145C68.6005 143.176 68.3746 143.229 68.1701 143.303C67.9684 143.376 67.8065 143.483 67.6843 143.622C67.565 143.759 67.5053 143.94 67.5053 144.168C67.5053 144.483 67.6218 144.722 67.8548 144.884C68.0877 145.043 68.3846 145.122 68.7454 145.122ZM73.3956 146V139.455H74.6271V140.494H74.6953C74.8146 140.142 75.0249 139.865 75.326 139.663C75.63 139.459 75.9737 139.357 76.3572 139.357C76.4368 139.357 76.5305 139.359 76.6385 139.365C76.7493 139.371 76.8359 139.378 76.8984 139.386V140.605C76.8473 140.591 76.7564 140.575 76.6257 140.558C76.495 140.538 76.3643 140.528 76.2337 140.528C75.9325 140.528 75.6641 140.592 75.4283 140.72C75.1953 140.845 75.0107 141.02 74.8743 141.244C74.7379 141.466 74.6697 141.719 74.6697 142.003V146H73.3956ZM81.4432 139.455V140.477H77.8679V139.455H81.4432ZM78.8267 137.886H80.1009V144.078C80.1009 144.325 80.1378 144.511 80.2116 144.636C80.2855 144.759 80.3807 144.842 80.4972 144.888C80.6165 144.93 80.7457 144.952 80.8849 144.952C80.9872 144.952 81.0767 144.945 81.1534 144.93C81.2301 144.916 81.2898 144.905 81.3324 144.896L81.5625 145.949C81.4886 145.977 81.3835 146.006 81.2472 146.034C81.1108 146.065 80.9403 146.082 80.7358 146.085C80.4006 146.091 80.0881 146.031 79.7983 145.906C79.5085 145.781 79.2741 145.588 79.0952 145.327C78.9162 145.065 78.8267 144.737 78.8267 144.342V137.886ZM85.6033 146.132C84.9585 146.132 84.4031 145.994 83.9371 145.719C83.4741 145.44 83.1161 145.05 82.8633 144.547C82.6133 144.041 82.4883 143.449 82.4883 142.77C82.4883 142.099 82.6133 141.509 82.8633 140.997C83.1161 140.486 83.4684 140.087 83.9201 139.8C84.3746 139.513 84.9059 139.369 85.5138 139.369C85.8832 139.369 86.2411 139.43 86.5877 139.553C86.9343 139.675 87.2454 139.866 87.521 140.128C87.7965 140.389 88.0138 140.729 88.1729 141.146C88.332 141.561 88.4116 142.065 88.4116 142.659V143.111H83.2085V142.156H87.163C87.163 141.821 87.0948 141.524 86.9585 141.266C86.8221 141.004 86.6303 140.798 86.3832 140.648C86.1388 140.497 85.8519 140.422 85.5224 140.422C85.1644 140.422 84.8519 140.51 84.5849 140.686C84.3207 140.859 84.1161 141.087 83.9712 141.368C83.8292 141.646 83.7582 141.949 83.7582 142.276V143.021C83.7582 143.459 83.8349 143.831 83.9883 144.138C84.1445 144.445 84.3619 144.679 84.6403 144.841C84.9187 145 85.244 145.08 85.6161 145.08C85.8576 145.08 86.0778 145.045 86.2766 144.977C86.4755 144.906 86.6474 144.801 86.7923 144.662C86.9371 144.523 87.0479 144.351 87.1246 144.146L88.3306 144.364C88.234 144.719 88.0607 145.03 87.8107 145.297C87.5636 145.561 87.2525 145.767 86.8775 145.915C86.5053 146.06 86.0806 146.132 85.6033 146.132ZM84.5891 136.8L85.467 137.942L86.3406 136.8H87.4954V136.864L85.9954 138.67H84.9343L83.4386 136.864V136.8H84.5891Z" fill="#2E2F30"/>
</svg>
