<svg width="560" height="256" viewBox="0 0 560 256" fill="none" xmlns="http://www.w3.org/2000/svg">
<rect y="16" width="268" height="36" rx="2" fill="#EBF2F4"/>
<path d="M4.35085 1.27273H5.66335V7.46023C5.66335 8.01989 5.55256 8.49858 5.33097 8.89631C5.11222 9.29403 4.80398 9.59801 4.40625 9.80824C4.00852 10.0156 3.54261 10.1193 3.00852 10.1193C2.51705 10.1193 2.07528 10.0298 1.68324 9.85085C1.29403 9.67187 0.985795 9.41193 0.758523 9.07102C0.534091 8.72727 0.421875 8.30966 0.421875 7.81818H1.73011C1.73011 8.05966 1.78551 8.26847 1.89631 8.4446C2.00994 8.62074 2.16477 8.75852 2.3608 8.85795C2.55966 8.95455 2.78693 9.00284 3.04261 9.00284C3.32102 9.00284 3.55682 8.9446 3.75 8.82812C3.94602 8.70881 4.09517 8.53409 4.19744 8.30398C4.29972 8.07386 4.35085 7.79261 4.35085 7.46023V1.27273ZM7.47763 10V3.45455H8.70064V4.51989H8.78161C8.91797 4.15909 9.14098 3.87784 9.45064 3.67614C9.7603 3.47159 10.131 3.36932 10.5629 3.36932C11.0004 3.36932 11.3668 3.47159 11.6623 3.67614C11.9606 3.88068 12.1808 4.16193 12.3228 4.51989H12.391C12.5472 4.17045 12.7958 3.89205 13.1367 3.68466C13.4776 3.47443 13.8839 3.36932 14.3555 3.36932C14.9492 3.36932 15.4336 3.5554 15.8086 3.92756C16.1864 4.29972 16.3754 4.8608 16.3754 5.6108V10H15.1012V5.73011C15.1012 5.28693 14.9805 4.96591 14.739 4.76705C14.4975 4.56818 14.2092 4.46875 13.8739 4.46875C13.4592 4.46875 13.1367 4.59659 12.9066 4.85227C12.6765 5.10511 12.5614 5.4304 12.5614 5.82812V10H11.2915V5.64915C11.2915 5.29403 11.1808 5.00852 10.9592 4.79261C10.7376 4.5767 10.4492 4.46875 10.0941 4.46875C9.85263 4.46875 9.62962 4.53267 9.42507 4.66051C9.22337 4.78551 9.06001 4.96023 8.93501 5.18466C8.81286 5.40909 8.75178 5.66903 8.75178 5.96449V10H7.47763ZM20.9041 10.1321C20.2592 10.1321 19.7038 9.99432 19.2379 9.71875C18.7749 9.44034 18.4169 9.04972 18.1641 8.54688C17.9141 8.04119 17.7891 7.44886 17.7891 6.76989C17.7891 6.09943 17.9141 5.50852 18.1641 4.99716C18.4169 4.4858 18.7692 4.08665 19.2209 3.79972C19.6754 3.51278 20.2067 3.36932 20.8146 3.36932C21.1839 3.36932 21.5419 3.4304 21.8885 3.55256C22.2351 3.67472 22.5462 3.86648 22.8217 4.12784C23.0973 4.3892 23.3146 4.72869 23.4737 5.14631C23.6328 5.56108 23.7124 6.06534 23.7124 6.65909V7.1108H18.5092V6.15625H22.4638C22.4638 5.82102 22.3956 5.52415 22.2592 5.26562C22.1229 5.00426 21.9311 4.7983 21.6839 4.64773C21.4396 4.49716 21.1527 4.42188 20.8232 4.42188C20.4652 4.42188 20.1527 4.50994 19.8857 4.68608C19.6214 4.85937 19.4169 5.08665 19.272 5.3679C19.13 5.64631 19.0589 5.94886 19.0589 6.27557V7.02131C19.0589 7.45881 19.1357 7.83097 19.2891 8.13778C19.4453 8.4446 19.6626 8.67898 19.9411 8.84091C20.2195 9 20.5447 9.07955 20.9169 9.07955C21.1584 9.07955 21.3786 9.04545 21.5774 8.97727C21.7763 8.90625 21.9482 8.80114 22.093 8.66193C22.2379 8.52273 22.3487 8.35085 22.4254 8.14631L23.6314 8.36364C23.5348 8.71875 23.3615 9.02983 23.1115 9.29688C22.8643 9.56108 22.5533 9.76705 22.1783 9.91477C21.8061 10.0597 21.3814 10.1321 20.9041 10.1321ZM20.2393 2.58097L21.2365 0.616477H22.5788L21.2578 2.58097H20.2393ZM26.4002 6.11364V10H25.1261V3.45455H26.3491V4.51989H26.43C26.5806 4.1733 26.8164 3.89489 27.1374 3.68466C27.4613 3.47443 27.869 3.36932 28.3604 3.36932C28.8065 3.36932 29.1971 3.46307 29.5323 3.65057C29.8675 3.83523 30.1275 4.1108 30.3121 4.47727C30.4968 4.84375 30.5891 5.29687 30.5891 5.83665V10H29.315V5.99006C29.315 5.51562 29.1914 5.14489 28.9442 4.87784C28.6971 4.60795 28.3576 4.47301 27.9258 4.47301C27.6303 4.47301 27.3675 4.53693 27.1374 4.66477C26.9102 4.79261 26.7298 4.98011 26.5962 5.22727C26.4656 5.47159 26.4002 5.76705 26.4002 6.11364ZM35.055 10.1321C34.4414 10.1321 33.9059 9.99148 33.4485 9.71023C32.9911 9.42898 32.636 9.03551 32.3832 8.52983C32.1303 8.02415 32.0039 7.43324 32.0039 6.7571C32.0039 6.07812 32.1303 5.48437 32.3832 4.97585C32.636 4.46733 32.9911 4.07244 33.4485 3.79119C33.9059 3.50994 34.4414 3.36932 35.055 3.36932C35.6687 3.36932 36.2042 3.50994 36.6616 3.79119C37.119 4.07244 37.4741 4.46733 37.7269 4.97585C37.9798 5.48437 38.1062 6.07812 38.1062 6.7571C38.1062 7.43324 37.9798 8.02415 37.7269 8.52983C37.4741 9.03551 37.119 9.42898 36.6616 9.71023C36.2042 9.99148 35.6687 10.1321 35.055 10.1321ZM35.0593 9.0625C35.457 9.0625 35.7866 8.95739 36.0479 8.74716C36.3093 8.53693 36.5025 8.2571 36.6275 7.90767C36.7553 7.55824 36.8192 7.1733 36.8192 6.75284C36.8192 6.33523 36.7553 5.9517 36.6275 5.60227C36.5025 5.25 36.3093 4.96733 36.0479 4.75426C35.7866 4.54119 35.457 4.43466 35.0593 4.43466C34.6587 4.43466 34.3263 4.54119 34.0621 4.75426C33.8008 4.96733 33.6062 5.25 33.4783 5.60227C33.3533 5.9517 33.2908 6.33523 33.2908 6.75284C33.2908 7.1733 33.3533 7.55824 33.4783 7.90767C33.6062 8.2571 33.8008 8.53693 34.0621 8.74716C34.3263 8.95739 34.6587 9.0625 35.0593 9.0625ZM44.609 10.1449C44.1942 10.1449 43.8192 10.0682 43.484 9.91477C43.1488 9.75852 42.8832 9.53267 42.6871 9.23722C42.494 8.94176 42.3974 8.57955 42.3974 8.15057C42.3974 7.78125 42.4684 7.47727 42.6104 7.23864C42.7525 7 42.9442 6.81108 43.1857 6.67188C43.4272 6.53267 43.6971 6.42756 43.9954 6.35653C44.2937 6.28551 44.5977 6.23153 44.9073 6.1946C45.2994 6.14915 45.6175 6.11222 45.8619 6.08381C46.1062 6.05256 46.2837 6.00284 46.3945 5.93466C46.5053 5.86648 46.5607 5.75568 46.5607 5.60227V5.57244C46.5607 5.20028 46.4556 4.91193 46.2454 4.70739C46.038 4.50284 45.7283 4.40057 45.3164 4.40057C44.8874 4.40057 44.5494 4.49574 44.3022 4.68608C44.0579 4.87358 43.8888 5.08239 43.7951 5.3125L42.5977 5.03977C42.7397 4.64205 42.9471 4.32102 43.2198 4.0767C43.4954 3.82955 43.8121 3.65057 44.1701 3.53977C44.5281 3.42614 44.9045 3.36932 45.2994 3.36932C45.5607 3.36932 45.8377 3.40057 46.1303 3.46307C46.4258 3.52273 46.7013 3.63352 46.957 3.79545C47.2156 3.95739 47.4272 4.18892 47.592 4.49006C47.7567 4.78835 47.8391 5.17614 47.8391 5.65341V10H46.5948V9.10511H46.5437C46.4613 9.26989 46.3377 9.43182 46.1729 9.59091C46.0082 9.75 45.7965 9.8821 45.538 9.98722C45.2795 10.0923 44.9698 10.1449 44.609 10.1449ZM44.886 9.12216C45.2383 9.12216 45.5394 9.05256 45.7894 8.91335C46.0423 8.77415 46.234 8.59233 46.3647 8.3679C46.4982 8.14062 46.565 7.89773 46.565 7.6392V6.79545C46.5195 6.84091 46.4315 6.88352 46.3008 6.9233C46.1729 6.96023 46.0266 6.9929 45.8619 7.02131C45.6971 7.04687 45.5366 7.07102 45.3803 7.09375C45.2241 7.11364 45.0934 7.13068 44.9883 7.14489C44.7411 7.17614 44.5153 7.22869 44.3107 7.30256C44.109 7.37642 43.9471 7.48295 43.8249 7.62216C43.7056 7.75852 43.646 7.94034 43.646 8.16761C43.646 8.48295 43.7624 8.72159 43.9954 8.88352C44.2283 9.04261 44.5252 9.12216 44.886 9.12216ZM52.712 12.4545V3.45455H53.9563V4.51562H54.0629C54.1367 4.37926 54.2433 4.22159 54.3825 4.04261C54.5217 3.86364 54.7148 3.70739 54.962 3.57386C55.2092 3.4375 55.5359 3.36932 55.9421 3.36932C56.4705 3.36932 56.9421 3.50284 57.3569 3.76989C57.7717 4.03693 58.0969 4.42187 58.3327 4.92472C58.5714 5.42756 58.6907 6.03267 58.6907 6.74006C58.6907 7.44744 58.5728 8.05398 58.337 8.55966C58.1012 9.0625 57.7773 9.45028 57.3654 9.72301C56.9535 9.9929 56.4833 10.1278 55.9549 10.1278C55.5572 10.1278 55.2319 10.0611 54.979 9.92756C54.729 9.79403 54.533 9.63778 54.391 9.45881C54.2489 9.27983 54.1396 9.12074 54.0629 8.98153H53.9862V12.4545H52.712ZM53.9606 6.72727C53.9606 7.1875 54.0273 7.59091 54.1609 7.9375C54.2944 8.28409 54.4876 8.5554 54.7404 8.75142C54.9933 8.9446 55.3029 9.04119 55.6694 9.04119C56.0501 9.04119 56.3683 8.94034 56.6239 8.73864C56.8796 8.53409 57.0728 8.2571 57.2035 7.90767C57.337 7.55824 57.4038 7.16477 57.4038 6.72727C57.4038 6.29545 57.3384 5.90767 57.2077 5.56392C57.0799 5.22017 56.8867 4.94886 56.6282 4.75C56.3725 4.55114 56.0529 4.4517 55.6694 4.4517C55.3001 4.4517 54.9876 4.54687 54.7319 4.73722C54.479 4.92756 54.2873 5.19318 54.1566 5.53409C54.0259 5.875 53.9606 6.27273 53.9606 6.72727ZM60.1183 10V3.45455H61.3498V4.49432H61.418C61.5373 4.14205 61.7475 3.86506 62.0487 3.66335C62.3526 3.45881 62.6964 3.35653 63.0799 3.35653C63.1594 3.35653 63.2532 3.35937 63.3612 3.36506C63.4719 3.37074 63.5586 3.37784 63.6211 3.38636V4.60511C63.57 4.59091 63.479 4.57528 63.3484 4.55824C63.2177 4.53835 63.087 4.52841 62.9563 4.52841C62.6552 4.52841 62.3867 4.59233 62.1509 4.72017C61.918 4.84517 61.7333 5.01989 61.5969 5.24432C61.4606 5.46591 61.3924 5.71875 61.3924 6.00284V10H60.1183ZM60.9279 0.799716L61.8058 1.94176L62.6793 0.799716H63.8342V0.863636L62.3342 2.67045H61.2731L59.7773 0.863636V0.799716H60.9279ZM64.7237 10V3.45455H65.9979V10H64.7237ZM64.843 2.58097L65.8402 0.616477H67.1825L65.8615 2.58097H64.843ZM67.712 3.45455H68.9862V10.4261C68.9862 10.8636 68.9066 11.233 68.7475 11.5341C68.5913 11.8352 68.3583 12.0639 68.0487 12.2202C67.7418 12.3764 67.3626 12.4545 66.9109 12.4545C66.8654 12.4545 66.8228 12.4545 66.783 12.4545C66.7404 12.4545 66.6964 12.4531 66.6509 12.4503V11.3551C66.6907 11.3551 66.7262 11.3551 66.7575 11.3551C66.7859 11.3551 66.8185 11.3551 66.8555 11.3551C67.1566 11.3551 67.3739 11.2741 67.5075 11.1122C67.6438 10.9531 67.712 10.7216 67.712 10.4176V3.45455ZM68.3427 2.4446C68.1211 2.4446 67.9308 2.37074 67.7717 2.22301C67.6154 2.07244 67.5373 1.89347 67.5373 1.68608C67.5373 1.47585 67.6154 1.29687 67.7717 1.14915C67.9308 0.998579 68.1211 0.923295 68.3427 0.923295C68.5643 0.923295 68.7532 0.998579 68.9094 1.14915C69.0685 1.29687 69.1481 1.47585 69.1481 1.68608C69.1481 1.89347 69.0685 2.07244 68.9094 2.22301C68.7532 2.37074 68.5643 2.4446 68.3427 2.4446ZM70.7003 10V3.45455H71.9233V4.51989H72.0043C72.1406 4.15909 72.3636 3.87784 72.6733 3.67614C72.983 3.47159 73.3537 3.36932 73.7855 3.36932C74.223 3.36932 74.5895 3.47159 74.8849 3.67614C75.1832 3.88068 75.4034 4.16193 75.5455 4.51989H75.6136C75.7699 4.17045 76.0185 3.89205 76.3594 3.68466C76.7003 3.47443 77.1065 3.36932 77.5781 3.36932C78.1719 3.36932 78.6562 3.5554 79.0312 3.92756C79.4091 4.29972 79.598 4.8608 79.598 5.6108V10H78.3239V5.73011C78.3239 5.28693 78.2031 4.96591 77.9616 4.76705C77.7202 4.56818 77.4318 4.46875 77.0966 4.46875C76.6818 4.46875 76.3594 4.59659 76.1293 4.85227C75.8991 5.10511 75.7841 5.4304 75.7841 5.82812V10H74.5142V5.64915C74.5142 5.29403 74.4034 5.00852 74.1818 4.79261C73.9602 4.5767 73.6719 4.46875 73.3168 4.46875C73.0753 4.46875 72.8523 4.53267 72.6477 4.66051C72.446 4.78551 72.2827 4.96023 72.1577 5.18466C72.0355 5.40909 71.9744 5.66903 71.9744 5.96449V10H70.7003ZM84.1268 10.1321C83.4819 10.1321 82.9265 9.99432 82.4606 9.71875C81.9975 9.44034 81.6396 9.04972 81.3867 8.54688C81.1367 8.04119 81.0117 7.44886 81.0117 6.76989C81.0117 6.09943 81.1367 5.50852 81.3867 4.99716C81.6396 4.4858 81.9918 4.08665 82.4435 3.79972C82.8981 3.51278 83.4293 3.36932 84.0373 3.36932C84.4066 3.36932 84.7646 3.4304 85.1112 3.55256C85.4577 3.67472 85.7688 3.86648 86.0444 4.12784C86.32 4.3892 86.5373 4.72869 86.6964 5.14631C86.8555 5.56108 86.935 6.06534 86.935 6.65909V7.1108H81.7319V6.15625H85.6864C85.6864 5.82102 85.6183 5.52415 85.4819 5.26562C85.3455 5.00426 85.1538 4.7983 84.9066 4.64773C84.6623 4.49716 84.3754 4.42188 84.0458 4.42188C83.6879 4.42188 83.3754 4.50994 83.1083 4.68608C82.8441 4.85937 82.6396 5.08665 82.4947 5.3679C82.3526 5.64631 82.2816 5.94886 82.2816 6.27557V7.02131C82.2816 7.45881 82.3583 7.83097 82.5117 8.13778C82.668 8.4446 82.8853 8.67898 83.1637 8.84091C83.4421 9 83.7674 9.07955 84.1396 9.07955C84.381 9.07955 84.6012 9.04545 84.8001 8.97727C84.9989 8.90625 85.1708 8.80114 85.3157 8.66193C85.4606 8.52273 85.5714 8.35085 85.6481 8.14631L86.854 8.36364C86.7575 8.71875 86.5842 9.02983 86.3342 9.29688C86.087 9.56108 85.7759 9.76705 85.4009 9.91477C85.0288 10.0597 84.604 10.1321 84.1268 10.1321ZM89.6229 6.11364V10H88.3487V3.45455H89.5717V4.51989H89.6527C89.8033 4.1733 90.0391 3.89489 90.3601 3.68466C90.6839 3.47443 91.0916 3.36932 91.5831 3.36932C92.0291 3.36932 92.4197 3.46307 92.755 3.65057C93.0902 3.83523 93.3501 4.1108 93.5348 4.47727C93.7195 4.84375 93.8118 5.29687 93.8118 5.83665V10H92.5376V5.99006C92.5376 5.51562 92.4141 5.14489 92.1669 4.87784C91.9197 4.60795 91.5803 4.47301 91.1484 4.47301C90.853 4.47301 90.5902 4.53693 90.3601 4.66477C90.1328 4.79261 89.9524 4.98011 89.8189 5.22727C89.6882 5.47159 89.6229 5.76705 89.6229 6.11364ZM95.5206 10V3.45455H96.7947V10H95.5206ZM95.6399 2.58097L96.6371 0.616477H97.9794L96.6584 2.58097H95.6399Z" fill="#2E2F30"/>
<rect x="292" y="16" width="268" height="36" rx="2" fill="#EBF2F4"/>
<path d="M292.959 10V1.27273H294.276V5.06534H298.626V1.27273H299.947V10H298.626V6.1946H294.276V10H292.959ZM304.584 10.1321C303.939 10.1321 303.384 9.99432 302.918 9.71875C302.455 9.44034 302.097 9.04972 301.844 8.54688C301.594 8.04119 301.469 7.44886 301.469 6.76989C301.469 6.09943 301.594 5.50852 301.844 4.99716C302.097 4.4858 302.449 4.08665 302.901 3.79972C303.355 3.51278 303.886 3.36932 304.494 3.36932C304.864 3.36932 305.222 3.4304 305.568 3.55256C305.915 3.67472 306.226 3.86648 306.501 4.12784C306.777 4.3892 306.994 4.72869 307.153 5.14631C307.313 5.56108 307.392 6.06534 307.392 6.65909V7.1108H302.189V6.15625H306.143C306.143 5.82102 306.075 5.52415 305.939 5.26562C305.803 5.00426 305.611 4.7983 305.364 4.64773C305.119 4.49716 304.832 4.42188 304.503 4.42188C304.145 4.42188 303.832 4.50994 303.565 4.68608C303.301 4.85937 303.097 5.08665 302.952 5.3679C302.81 5.64631 302.739 5.94886 302.739 6.27557V7.02131C302.739 7.45881 302.815 7.83097 302.969 8.13778C303.125 8.4446 303.342 8.67898 303.621 8.84091C303.899 9 304.224 9.07955 304.597 9.07955C304.838 9.07955 305.058 9.04545 305.257 8.97727C305.456 8.90625 305.628 8.80114 305.773 8.66193C305.918 8.52273 306.028 8.35085 306.105 8.14631L307.311 8.36364C307.214 8.71875 307.041 9.02983 306.791 9.29688C306.544 9.56108 306.233 9.76705 305.858 9.91477C305.486 10.0597 305.061 10.1321 304.584 10.1321ZM313.711 5.05256L312.556 5.2571C312.507 5.10937 312.431 4.96875 312.326 4.83523C312.223 4.7017 312.084 4.59233 311.908 4.5071C311.732 4.42187 311.512 4.37926 311.248 4.37926C310.887 4.37926 310.586 4.46023 310.344 4.62216C310.103 4.78125 309.982 4.98722 309.982 5.24006C309.982 5.45881 310.063 5.63494 310.225 5.76847C310.387 5.90199 310.648 6.01136 311.009 6.09659L312.049 6.33523C312.651 6.47443 313.1 6.68892 313.395 6.97869C313.691 7.26847 313.838 7.64489 313.838 8.10795C313.838 8.5 313.725 8.84943 313.498 9.15625C313.273 9.46023 312.959 9.69886 312.556 9.87216C312.155 10.0455 311.691 10.1321 311.162 10.1321C310.429 10.1321 309.831 9.97585 309.368 9.66335C308.905 9.34801 308.621 8.90057 308.516 8.32102L309.748 8.13352C309.824 8.45455 309.982 8.69744 310.221 8.86222C310.459 9.02415 310.77 9.10511 311.154 9.10511C311.571 9.10511 311.905 9.01847 312.155 8.84517C312.405 8.66903 312.53 8.45455 312.53 8.2017C312.53 7.99716 312.453 7.82528 312.3 7.68608C312.15 7.54687 311.918 7.44176 311.605 7.37074L310.498 7.12784C309.887 6.98864 309.435 6.76705 309.142 6.46307C308.853 6.15909 308.708 5.77415 308.708 5.30824C308.708 4.92187 308.816 4.58381 309.032 4.29403C309.248 4.00426 309.546 3.77841 309.926 3.61648C310.307 3.4517 310.743 3.36932 311.235 3.36932C311.942 3.36932 312.499 3.52273 312.905 3.82955C313.311 4.13352 313.58 4.54119 313.711 5.05256ZM316.513 1.27273V10H315.239V1.27273H316.513ZM320.985 10.1321C320.371 10.1321 319.836 9.99148 319.378 9.71023C318.921 9.42898 318.566 9.03551 318.313 8.52983C318.06 8.02415 317.934 7.43324 317.934 6.7571C317.934 6.07812 318.06 5.48437 318.313 4.97585C318.566 4.46733 318.921 4.07244 319.378 3.79119C319.836 3.50994 320.371 3.36932 320.985 3.36932C321.598 3.36932 322.134 3.50994 322.591 3.79119C323.049 4.07244 323.404 4.46733 323.657 4.97585C323.909 5.48437 324.036 6.07812 324.036 6.7571C324.036 7.43324 323.909 8.02415 323.657 8.52983C323.404 9.03551 323.049 9.42898 322.591 9.71023C322.134 9.99148 321.598 10.1321 320.985 10.1321ZM320.989 9.0625C321.387 9.0625 321.716 8.95739 321.978 8.74716C322.239 8.53693 322.432 8.2571 322.557 7.90767C322.685 7.55824 322.749 7.1733 322.749 6.75284C322.749 6.33523 322.685 5.9517 322.557 5.60227C322.432 5.25 322.239 4.96733 321.978 4.75426C321.716 4.54119 321.387 4.43466 320.989 4.43466C320.588 4.43466 320.256 4.54119 319.992 4.75426C319.73 4.96733 319.536 5.25 319.408 5.60227C319.283 5.9517 319.221 6.33523 319.221 6.75284C319.221 7.1733 319.283 7.55824 319.408 7.90767C319.536 8.2571 319.73 8.53693 319.992 8.74716C320.256 8.95739 320.588 9.0625 320.989 9.0625Z" fill="#2E2F30"/>
<rect x="292" y="84" width="268" height="36" rx="2" fill="#EBF2F4"/>
<path d="M292.959 78V69.2727H294.276V73.0653H298.626V69.2727H299.947V78H298.626V74.1946H294.276V78H292.959ZM304.584 78.1321C303.939 78.1321 303.384 77.9943 302.918 77.7188C302.455 77.4403 302.097 77.0497 301.844 76.5469C301.594 76.0412 301.469 75.4489 301.469 74.7699C301.469 74.0994 301.594 73.5085 301.844 72.9972C302.097 72.4858 302.449 72.0866 302.901 71.7997C303.355 71.5128 303.886 71.3693 304.494 71.3693C304.864 71.3693 305.222 71.4304 305.568 71.5526C305.915 71.6747 306.226 71.8665 306.501 72.1278C306.777 72.3892 306.994 72.7287 307.153 73.1463C307.313 73.5611 307.392 74.0653 307.392 74.6591V75.1108H302.189V74.1562H306.143C306.143 73.821 306.075 73.5241 305.939 73.2656C305.803 73.0043 305.611 72.7983 305.364 72.6477C305.119 72.4972 304.832 72.4219 304.503 72.4219C304.145 72.4219 303.832 72.5099 303.565 72.6861C303.301 72.8594 303.097 73.0866 302.952 73.3679C302.81 73.6463 302.739 73.9489 302.739 74.2756V75.0213C302.739 75.4588 302.815 75.831 302.969 76.1378C303.125 76.4446 303.342 76.679 303.621 76.8409C303.899 77 304.224 77.0795 304.597 77.0795C304.838 77.0795 305.058 77.0455 305.257 76.9773C305.456 76.9062 305.628 76.8011 305.773 76.6619C305.918 76.5227 306.028 76.3509 306.105 76.1463L307.311 76.3636C307.214 76.7187 307.041 77.0298 306.791 77.2969C306.544 77.5611 306.233 77.767 305.858 77.9148C305.486 78.0597 305.061 78.1321 304.584 78.1321ZM313.711 73.0526L312.556 73.2571C312.507 73.1094 312.431 72.9687 312.326 72.8352C312.223 72.7017 312.084 72.5923 311.908 72.5071C311.732 72.4219 311.512 72.3793 311.248 72.3793C310.887 72.3793 310.586 72.4602 310.344 72.6222C310.103 72.7812 309.982 72.9872 309.982 73.2401C309.982 73.4588 310.063 73.6349 310.225 73.7685C310.387 73.902 310.648 74.0114 311.009 74.0966L312.049 74.3352C312.651 74.4744 313.1 74.6889 313.395 74.9787C313.691 75.2685 313.838 75.6449 313.838 76.108C313.838 76.5 313.725 76.8494 313.498 77.1562C313.273 77.4602 312.959 77.6989 312.556 77.8722C312.155 78.0455 311.691 78.1321 311.162 78.1321C310.429 78.1321 309.831 77.9759 309.368 77.6634C308.905 77.348 308.621 76.9006 308.516 76.321L309.748 76.1335C309.824 76.4545 309.982 76.6974 310.221 76.8622C310.459 77.0241 310.77 77.1051 311.154 77.1051C311.571 77.1051 311.905 77.0185 312.155 76.8452C312.405 76.669 312.53 76.4545 312.53 76.2017C312.53 75.9972 312.453 75.8253 312.3 75.6861C312.15 75.5469 311.918 75.4418 311.605 75.3707L310.498 75.1278C309.887 74.9886 309.435 74.767 309.142 74.4631C308.853 74.1591 308.708 73.7741 308.708 73.3082C308.708 72.9219 308.816 72.5838 309.032 72.294C309.248 72.0043 309.546 71.7784 309.926 71.6165C310.307 71.4517 310.743 71.3693 311.235 71.3693C311.942 71.3693 312.499 71.5227 312.905 71.8295C313.311 72.1335 313.58 72.5412 313.711 73.0526ZM316.513 69.2727V78H315.239V69.2727H316.513ZM320.985 78.1321C320.371 78.1321 319.836 77.9915 319.378 77.7102C318.921 77.429 318.566 77.0355 318.313 76.5298C318.06 76.0241 317.934 75.4332 317.934 74.7571C317.934 74.0781 318.06 73.4844 318.313 72.9759C318.566 72.4673 318.921 72.0724 319.378 71.7912C319.836 71.5099 320.371 71.3693 320.985 71.3693C321.598 71.3693 322.134 71.5099 322.591 71.7912C323.049 72.0724 323.404 72.4673 323.657 72.9759C323.909 73.4844 324.036 74.0781 324.036 74.7571C324.036 75.4332 323.909 76.0241 323.657 76.5298C323.404 77.0355 323.049 77.429 322.591 77.7102C322.134 77.9915 321.598 78.1321 320.985 78.1321ZM320.989 77.0625C321.387 77.0625 321.716 76.9574 321.978 76.7472C322.239 76.5369 322.432 76.2571 322.557 75.9077C322.685 75.5582 322.749 75.1733 322.749 74.7528C322.749 74.3352 322.685 73.9517 322.557 73.6023C322.432 73.25 322.239 72.9673 321.978 72.7543C321.716 72.5412 321.387 72.4347 320.989 72.4347C320.588 72.4347 320.256 72.5412 319.992 72.7543C319.73 72.9673 319.536 73.25 319.408 73.6023C319.283 73.9517 319.221 74.3352 319.221 74.7528C319.221 75.1733 319.283 75.5582 319.408 75.9077C319.536 76.2571 319.73 76.5369 319.992 76.7472C320.256 76.9574 320.588 77.0625 320.989 77.0625ZM328.498 78V77.1264L332.043 72.6222V72.5625H328.613V71.4545H333.632V72.3835L330.223 76.8324V76.892H333.752V78H328.498ZM336.529 74.1136V78H335.255V71.4545H336.478V72.5199H336.559C336.71 72.1733 336.945 71.8949 337.266 71.6847C337.59 71.4744 337.998 71.3693 338.489 71.3693C338.935 71.3693 339.326 71.4631 339.661 71.6506C339.996 71.8352 340.256 72.1108 340.441 72.4773C340.626 72.8437 340.718 73.2969 340.718 73.8366V78H339.444V73.9901C339.444 73.5156 339.32 73.1449 339.073 72.8778C338.826 72.608 338.487 72.473 338.055 72.473C337.759 72.473 337.496 72.5369 337.266 72.6648C337.039 72.7926 336.859 72.9801 336.725 73.2273C336.594 73.4716 336.529 73.767 336.529 74.1136ZM345.184 78.1321C344.57 78.1321 344.035 77.9915 343.577 77.7102C343.12 77.429 342.765 77.0355 342.512 76.5298C342.259 76.0241 342.133 75.4332 342.133 74.7571C342.133 74.0781 342.259 73.4844 342.512 72.9759C342.765 72.4673 343.12 72.0724 343.577 71.7912C344.035 71.5099 344.57 71.3693 345.184 71.3693C345.798 71.3693 346.333 71.5099 346.79 71.7912C347.248 72.0724 347.603 72.4673 347.856 72.9759C348.109 73.4844 348.235 74.0781 348.235 74.7571C348.235 75.4332 348.109 76.0241 347.856 76.5298C347.603 77.0355 347.248 77.429 346.79 77.7102C346.333 77.9915 345.798 78.1321 345.184 78.1321ZM345.188 77.0625C345.586 77.0625 345.915 76.9574 346.177 76.7472C346.438 76.5369 346.631 76.2571 346.756 75.9077C346.884 75.5582 346.948 75.1733 346.948 74.7528C346.948 74.3352 346.884 73.9517 346.756 73.6023C346.631 73.25 346.438 72.9673 346.177 72.7543C345.915 72.5412 345.586 72.4347 345.188 72.4347C344.788 72.4347 344.455 72.5412 344.191 72.7543C343.93 72.9673 343.735 73.25 343.607 73.6023C343.482 73.9517 343.42 74.3352 343.42 74.7528C343.42 75.1733 343.482 75.5582 343.607 75.9077C343.735 76.2571 343.93 76.5369 344.191 76.7472C344.455 76.9574 344.788 77.0625 345.188 77.0625ZM355.034 71.4545L352.661 78H351.297L348.919 71.4545H350.287L351.945 76.4915H352.013L353.666 71.4545H355.034ZM360.378 75.2855V71.4545H361.656V78H360.403V76.8665H360.335C360.185 77.2159 359.943 77.5071 359.611 77.7401C359.281 77.9702 358.871 78.0852 358.379 78.0852C357.959 78.0852 357.587 77.9929 357.263 77.8082C356.942 77.6207 356.689 77.3438 356.504 76.9773C356.322 76.6108 356.232 76.1577 356.232 75.6179V71.4545H357.506V75.4645C357.506 75.9105 357.629 76.2656 357.876 76.5298C358.124 76.794 358.445 76.9261 358.839 76.9261C359.078 76.9261 359.315 76.8665 359.551 76.7472C359.79 76.6278 359.987 76.4474 360.143 76.206C360.303 75.9645 360.381 75.6577 360.378 75.2855Z" fill="#2E2F30"/>
<rect y="84" width="268" height="36" rx="2" fill="#EBF2F4"/>
<path d="M1.69602 78H0.298295L3.43892 69.2727H4.96023L8.10085 78H6.70312L4.2358 70.858H4.16761L1.69602 78ZM1.9304 74.5824H6.46449V75.6903H1.9304V74.5824ZM11.6037 78.1278C11.0753 78.1278 10.6037 77.9929 10.1889 77.723C9.77699 77.4503 9.45313 77.0625 9.21733 76.5597C8.98438 76.054 8.8679 75.4474 8.8679 74.7401C8.8679 74.0327 8.9858 73.4276 9.22159 72.9247C9.46023 72.4219 9.78693 72.0369 10.2017 71.7699C10.6165 71.5028 11.0866 71.3693 11.6122 71.3693C12.0185 71.3693 12.3452 71.4375 12.5923 71.5739C12.8423 71.7074 13.0355 71.8636 13.1719 72.0426C13.3111 72.2216 13.419 72.3793 13.4957 72.5156H13.5724V69.2727H14.8466V78H13.6023V76.9815H13.4957C13.419 77.1207 13.3082 77.2798 13.1634 77.4588C13.0213 77.6378 12.8253 77.794 12.5753 77.9276C12.3253 78.0611 12.0014 78.1278 11.6037 78.1278ZM11.8849 77.0412C12.2514 77.0412 12.5611 76.9446 12.8139 76.7514C13.0696 76.5554 13.2628 76.2841 13.3935 75.9375C13.527 75.5909 13.5938 75.1875 13.5938 74.7273C13.5938 74.2727 13.5284 73.875 13.3977 73.5341C13.267 73.1932 13.0753 72.9276 12.8224 72.7372C12.5696 72.5469 12.2571 72.4517 11.8849 72.4517C11.5014 72.4517 11.1818 72.5511 10.9261 72.75C10.6705 72.9489 10.4773 73.2202 10.3466 73.5639C10.2188 73.9077 10.1548 74.2955 10.1548 74.7273C10.1548 75.1648 10.2202 75.5582 10.3509 75.9077C10.4815 76.2571 10.6747 76.5341 10.9304 76.7386C11.1889 76.9403 11.5071 77.0412 11.8849 77.0412ZM16.6651 78V71.4545H17.8967V72.4943H17.9648C18.0842 72.142 18.2944 71.8651 18.5955 71.6634C18.8995 71.4588 19.2433 71.3565 19.6268 71.3565C19.7063 71.3565 19.8001 71.3594 19.908 71.3651C20.0188 71.3707 20.1055 71.3778 20.168 71.3864V72.6051C20.1168 72.5909 20.0259 72.5753 19.8952 72.5582C19.7646 72.5384 19.6339 72.5284 19.5032 72.5284C19.2021 72.5284 18.9336 72.5923 18.6978 72.7202C18.4648 72.8452 18.2802 73.0199 18.1438 73.2443C18.0075 73.4659 17.9393 73.7187 17.9393 74.0028V78H16.6651ZM23.8572 78.1321C23.2124 78.1321 22.657 77.9943 22.1911 77.7188C21.728 77.4403 21.37 77.0497 21.1172 76.5469C20.8672 76.0412 20.7422 75.4489 20.7422 74.7699C20.7422 74.0994 20.8672 73.5085 21.1172 72.9972C21.37 72.4858 21.7223 72.0866 22.174 71.7997C22.6286 71.5128 23.1598 71.3693 23.7678 71.3693C24.1371 71.3693 24.495 71.4304 24.8416 71.5526C25.1882 71.6747 25.4993 71.8665 25.7749 72.1278C26.0504 72.3892 26.2678 72.7287 26.4268 73.1463C26.5859 73.5611 26.6655 74.0653 26.6655 74.6591V75.1108H21.4624V74.1562H25.4169C25.4169 73.821 25.3487 73.5241 25.2124 73.2656C25.076 73.0043 24.8842 72.7983 24.6371 72.6477C24.3928 72.4972 24.1058 72.4219 23.7763 72.4219C23.4183 72.4219 23.1058 72.5099 22.8388 72.6861C22.5746 72.8594 22.37 73.0866 22.2251 73.3679C22.0831 73.6463 22.0121 73.9489 22.0121 74.2756V75.0213C22.0121 75.4588 22.0888 75.831 22.2422 76.1378C22.3984 76.4446 22.6158 76.679 22.8942 76.8409C23.1726 77 23.4979 77.0795 23.87 77.0795C24.1115 77.0795 24.3317 77.0455 24.5305 76.9773C24.7294 76.9062 24.9013 76.8011 25.0462 76.6619C25.1911 76.5227 25.3018 76.3509 25.3786 76.1463L26.5845 76.3636C26.4879 76.7187 26.3146 77.0298 26.0646 77.2969C25.8175 77.5611 25.5064 77.767 25.1314 77.9148C24.7592 78.0597 24.3345 78.1321 23.8572 78.1321ZM32.984 73.0526L31.8292 73.2571C31.7809 73.1094 31.7042 72.9687 31.5991 72.8352C31.4968 72.7017 31.3576 72.5923 31.1815 72.5071C31.0053 72.4219 30.7852 72.3793 30.521 72.3793C30.1602 72.3793 29.859 72.4602 29.6175 72.6222C29.3761 72.7812 29.2553 72.9872 29.2553 73.2401C29.2553 73.4588 29.3363 73.6349 29.4982 73.7685C29.6602 73.902 29.9215 74.0114 30.2823 74.0966L31.3221 74.3352C31.9244 74.4744 32.3732 74.6889 32.6687 74.9787C32.9641 75.2685 33.1119 75.6449 33.1119 76.108C33.1119 76.5 32.9982 76.8494 32.771 77.1562C32.5465 77.4602 32.2326 77.6989 31.8292 77.8722C31.4286 78.0455 30.9641 78.1321 30.4357 78.1321C29.7028 78.1321 29.1048 77.9759 28.6417 77.6634C28.1786 77.348 27.8945 76.9006 27.7894 76.321L29.021 76.1335C29.0977 76.4545 29.2553 76.6974 29.494 76.8622C29.7326 77.0241 30.0437 77.1051 30.4272 77.1051C30.8448 77.1051 31.1786 77.0185 31.4286 76.8452C31.6786 76.669 31.8036 76.4545 31.8036 76.2017C31.8036 75.9972 31.7269 75.8253 31.5735 75.6861C31.4229 75.5469 31.1914 75.4418 30.8789 75.3707L29.771 75.1278C29.1602 74.9886 28.7085 74.767 28.4158 74.4631C28.1261 74.1591 27.9812 73.7741 27.9812 73.3082C27.9812 72.9219 28.0891 72.5838 28.305 72.294C28.521 72.0043 28.8192 71.7784 29.1999 71.6165C29.5806 71.4517 30.0167 71.3693 30.5082 71.3693C31.2156 71.3693 31.7724 71.5227 32.1786 71.8295C32.5849 72.1335 32.8533 72.5412 32.984 73.0526ZM36.4176 78.1449C36.0028 78.1449 35.6278 78.0682 35.2926 77.9148C34.9574 77.7585 34.6918 77.5327 34.4957 77.2372C34.3026 76.9418 34.206 76.5795 34.206 76.1506C34.206 75.7812 34.277 75.4773 34.419 75.2386C34.5611 75 34.7528 74.8111 34.9943 74.6719C35.2358 74.5327 35.5057 74.4276 35.804 74.3565C36.1023 74.2855 36.4063 74.2315 36.7159 74.1946C37.108 74.1491 37.4261 74.1122 37.6705 74.0838C37.9148 74.0526 38.0923 74.0028 38.2031 73.9347C38.3139 73.8665 38.3693 73.7557 38.3693 73.6023V73.5724C38.3693 73.2003 38.2642 72.9119 38.054 72.7074C37.8466 72.5028 37.5369 72.4006 37.125 72.4006C36.696 72.4006 36.358 72.4957 36.1108 72.6861C35.8665 72.8736 35.6974 73.0824 35.6037 73.3125L34.4062 73.0398C34.5483 72.642 34.7557 72.321 35.0284 72.0767C35.304 71.8295 35.6207 71.6506 35.9787 71.5398C36.3366 71.4261 36.7131 71.3693 37.108 71.3693C37.3693 71.3693 37.6463 71.4006 37.9389 71.4631C38.2344 71.5227 38.5099 71.6335 38.7656 71.7955C39.0241 71.9574 39.2358 72.1889 39.4006 72.4901C39.5653 72.7884 39.6477 73.1761 39.6477 73.6534V78H38.4034V77.1051H38.3523C38.2699 77.2699 38.1463 77.4318 37.9815 77.5909C37.8168 77.75 37.6051 77.8821 37.3466 77.9872C37.0881 78.0923 36.7784 78.1449 36.4176 78.1449ZM36.6946 77.1222C37.0469 77.1222 37.348 77.0526 37.598 76.9134C37.8509 76.7741 38.0426 76.5923 38.1733 76.3679C38.3068 76.1406 38.3736 75.8977 38.3736 75.6392V74.7955C38.3281 74.8409 38.2401 74.8835 38.1094 74.9233C37.9815 74.9602 37.8352 74.9929 37.6705 75.0213C37.5057 75.0469 37.3452 75.071 37.1889 75.0938C37.0327 75.1136 36.902 75.1307 36.7969 75.1449C36.5497 75.1761 36.3239 75.2287 36.1193 75.3026C35.9176 75.3764 35.7557 75.483 35.6335 75.6222C35.5142 75.7585 35.4545 75.9403 35.4545 76.1676C35.4545 76.483 35.571 76.7216 35.804 76.8835C36.0369 77.0426 36.3338 77.1222 36.6946 77.1222Z" fill="#2E2F30"/>
<rect y="152" width="268" height="36" rx="2" fill="#EBF2F4"/>
<path d="M0.958807 137.273H2.55682L5.33523 144.057H5.4375L8.21591 137.273H9.81392V146H8.56108V139.685H8.48011L5.90625 145.987H4.86648L2.29261 139.68H2.21165V146H0.958807V137.273ZM14.4471 146.132C13.8022 146.132 13.2468 145.994 12.7809 145.719C12.3178 145.44 11.9599 145.05 11.707 144.547C11.457 144.041 11.332 143.449 11.332 142.77C11.332 142.099 11.457 141.509 11.707 140.997C11.9599 140.486 12.3121 140.087 12.7638 139.8C13.2184 139.513 13.7496 139.369 14.3576 139.369C14.7269 139.369 15.0849 139.43 15.4315 139.553C15.7781 139.675 16.0891 139.866 16.3647 140.128C16.6403 140.389 16.8576 140.729 17.0167 141.146C17.1758 141.561 17.2553 142.065 17.2553 142.659V143.111H12.0522V142.156H16.0067C16.0067 141.821 15.9386 141.524 15.8022 141.266C15.6658 141.004 15.4741 140.798 15.2269 140.648C14.9826 140.497 14.6957 140.422 14.3661 140.422C14.0082 140.422 13.6957 140.51 13.4286 140.686C13.1644 140.859 12.9599 141.087 12.815 141.368C12.6729 141.646 12.6019 141.949 12.6019 142.276V143.021C12.6019 143.459 12.6786 143.831 12.832 144.138C12.9883 144.445 13.2056 144.679 13.484 144.841C13.7624 145 14.0877 145.08 14.4599 145.08C14.7013 145.08 14.9215 145.045 15.1204 144.977C15.3192 144.906 15.4911 144.801 15.636 144.662C15.7809 144.523 15.8917 144.351 15.9684 144.146L17.1744 144.364C17.0778 144.719 16.9045 145.03 16.6545 145.297C16.4073 145.561 16.0962 145.767 15.7212 145.915C15.3491 146.06 14.9244 146.132 14.4471 146.132ZM13.4329 136.8L14.3107 137.942L15.1843 136.8H16.3391V136.864L14.8391 138.67H13.7781L12.2823 136.864V136.8H13.4329ZM23.5739 141.053L22.419 141.257C22.3707 141.109 22.294 140.969 22.1889 140.835C22.0866 140.702 21.9474 140.592 21.7713 140.507C21.5952 140.422 21.375 140.379 21.1108 140.379C20.75 140.379 20.4489 140.46 20.2074 140.622C19.9659 140.781 19.8452 140.987 19.8452 141.24C19.8452 141.459 19.9261 141.635 20.0881 141.768C20.25 141.902 20.5114 142.011 20.8722 142.097L21.9119 142.335C22.5142 142.474 22.9631 142.689 23.2585 142.979C23.554 143.268 23.7017 143.645 23.7017 144.108C23.7017 144.5 23.5881 144.849 23.3608 145.156C23.1364 145.46 22.8224 145.699 22.419 145.872C22.0185 146.045 21.554 146.132 21.0256 146.132C20.2926 146.132 19.6946 145.976 19.2315 145.663C18.7685 145.348 18.4844 144.901 18.3793 144.321L19.6108 144.134C19.6875 144.455 19.8452 144.697 20.0838 144.862C20.3224 145.024 20.6335 145.105 21.017 145.105C21.4347 145.105 21.7685 145.018 22.0185 144.845C22.2685 144.669 22.3935 144.455 22.3935 144.202C22.3935 143.997 22.3168 143.825 22.1634 143.686C22.0128 143.547 21.7812 143.442 21.4688 143.371L20.3608 143.128C19.75 142.989 19.2983 142.767 19.0057 142.463C18.7159 142.159 18.571 141.774 18.571 141.308C18.571 140.922 18.679 140.584 18.8949 140.294C19.1108 140.004 19.4091 139.778 19.7898 139.616C20.1705 139.452 20.6065 139.369 21.098 139.369C21.8054 139.369 22.3622 139.523 22.7685 139.83C23.1747 140.134 23.4432 140.541 23.5739 141.053ZM28.158 139.455V140.477H24.5827V139.455H28.158ZM25.5415 137.886H26.8157V144.078C26.8157 144.325 26.8526 144.511 26.9265 144.636C27.0004 144.759 27.0955 144.842 27.212 144.888C27.3313 144.93 27.4606 144.952 27.5998 144.952C27.7021 144.952 27.7915 144.945 27.8683 144.93C27.945 144.916 28.0046 144.905 28.0472 144.896L28.2773 145.949C28.2035 145.977 28.0984 146.006 27.962 146.034C27.8256 146.065 27.6552 146.082 27.4506 146.085C27.1154 146.091 26.8029 146.031 26.5131 145.906C26.2234 145.781 25.989 145.588 25.81 145.327C25.631 145.065 25.5415 144.737 25.5415 144.342V137.886ZM32.2543 146.132C31.6406 146.132 31.1051 145.991 30.6477 145.71C30.1903 145.429 29.8352 145.036 29.5824 144.53C29.3295 144.024 29.2031 143.433 29.2031 142.757C29.2031 142.078 29.3295 141.484 29.5824 140.976C29.8352 140.467 30.1903 140.072 30.6477 139.791C31.1051 139.51 31.6406 139.369 32.2543 139.369C32.8679 139.369 33.4034 139.51 33.8608 139.791C34.3182 140.072 34.6733 140.467 34.9261 140.976C35.179 141.484 35.3054 142.078 35.3054 142.757C35.3054 143.433 35.179 144.024 34.9261 144.53C34.6733 145.036 34.3182 145.429 33.8608 145.71C33.4034 145.991 32.8679 146.132 32.2543 146.132ZM32.2585 145.062C32.6563 145.062 32.9858 144.957 33.2472 144.747C33.5085 144.537 33.7017 144.257 33.8267 143.908C33.9545 143.558 34.0185 143.173 34.0185 142.753C34.0185 142.335 33.9545 141.952 33.8267 141.602C33.7017 141.25 33.5085 140.967 33.2472 140.754C32.9858 140.541 32.6563 140.435 32.2585 140.435C31.858 140.435 31.5256 140.541 31.2614 140.754C31 140.967 30.8054 141.25 30.6776 141.602C30.5526 141.952 30.4901 142.335 30.4901 142.753C30.4901 143.173 30.5526 143.558 30.6776 143.908C30.8054 144.257 31 144.537 31.2614 144.747C31.5256 144.957 31.858 145.062 32.2585 145.062Z" fill="#2E2F30"/>
<rect y="220" width="268" height="36" rx="2" fill="#EBF2F4"/>
<path d="M0.958807 214V205.273H4.0696C4.74858 205.273 5.31108 205.396 5.7571 205.643C6.20313 205.891 6.53693 206.229 6.75852 206.658C6.98011 207.084 7.09091 207.564 7.09091 208.098C7.09091 208.635 6.97869 209.118 6.75426 209.547C6.53267 209.973 6.19744 210.311 5.74858 210.561C5.30256 210.808 4.74148 210.932 4.06534 210.932H1.92614V209.815H3.94602C4.375 209.815 4.72301 209.741 4.99006 209.594C5.2571 209.443 5.45312 209.239 5.57812 208.98C5.70312 208.722 5.76562 208.428 5.76562 208.098C5.76562 207.768 5.70312 207.476 5.57812 207.22C5.45312 206.964 5.25568 206.764 4.9858 206.619C4.71875 206.474 4.36648 206.402 3.92898 206.402H2.27557V214H0.958807ZM13.3945 207.565C13.3491 207.162 13.1616 206.849 12.832 206.628C12.5025 206.403 12.0877 206.291 11.5877 206.291C11.2298 206.291 10.9201 206.348 10.6587 206.462C10.3974 206.572 10.1942 206.726 10.0494 206.922C9.90732 207.115 9.83629 207.335 9.83629 207.582C9.83629 207.79 9.88459 207.969 9.98118 208.119C10.0806 208.27 10.2099 208.396 10.369 208.499C10.5309 208.598 10.7042 208.682 10.8888 208.75C11.0735 208.815 11.2511 208.869 11.4215 208.912L12.2738 209.134C12.5522 209.202 12.8377 209.294 13.1303 209.411C13.4229 209.527 13.6942 209.68 13.9442 209.871C14.1942 210.061 14.396 210.297 14.5494 210.578C14.7056 210.859 14.7837 211.196 14.7837 211.588C14.7837 212.082 14.6559 212.521 14.4002 212.905C14.1474 213.288 13.7795 213.591 13.2965 213.812C12.8164 214.034 12.2354 214.145 11.5536 214.145C10.9002 214.145 10.3349 214.041 9.8576 213.834C9.38033 213.626 9.00675 213.332 8.73686 212.952C8.46697 212.568 8.31783 212.114 8.28942 211.588H9.61044C9.63601 211.903 9.73828 212.166 9.91726 212.376C10.0991 212.584 10.3306 212.739 10.6119 212.841C10.896 212.94 11.207 212.99 11.5451 212.99C11.9173 212.99 12.2482 212.932 12.538 212.815C12.8306 212.696 13.0607 212.531 13.2283 212.321C13.396 212.108 13.4798 211.859 13.4798 211.575C13.4798 211.317 13.4059 211.105 13.2582 210.94C13.1133 210.776 12.9158 210.639 12.6658 210.531C12.4187 210.423 12.1388 210.328 11.8263 210.246L10.7951 209.964C10.0962 209.774 9.54226 209.494 9.13317 209.125C8.72692 208.756 8.52379 208.267 8.52379 207.659C8.52379 207.156 8.66016 206.717 8.93288 206.342C9.20561 205.967 9.57493 205.676 10.0408 205.469C10.5067 205.259 11.0323 205.153 11.6175 205.153C12.2085 205.153 12.7298 205.257 13.1815 205.464C13.636 205.672 13.994 205.957 14.2553 206.321C14.5167 206.682 14.6531 207.097 14.6644 207.565H13.3945ZM23.6058 208.111H22.2763C22.2251 207.827 22.13 207.577 21.9908 207.361C21.8516 207.145 21.6811 206.962 21.4794 206.811C21.2777 206.661 21.0518 206.547 20.8018 206.47C20.5547 206.393 20.2919 206.355 20.0135 206.355C19.5107 206.355 19.0604 206.482 18.6626 206.734C18.2678 206.987 17.9553 207.358 17.7251 207.847C17.4979 208.335 17.3842 208.932 17.3842 209.636C17.3842 210.347 17.4979 210.946 17.7251 211.435C17.9553 211.923 18.2692 212.293 18.6669 212.543C19.0646 212.793 19.5121 212.918 20.0092 212.918C20.2848 212.918 20.5462 212.881 20.7933 212.807C21.0433 212.73 21.2692 212.618 21.4709 212.47C21.6726 212.322 21.843 212.142 21.9822 211.929C22.1243 211.713 22.2223 211.466 22.2763 211.188L23.6058 211.192C23.5348 211.621 23.397 212.016 23.1925 212.376C22.9908 212.734 22.7308 213.044 22.4126 213.305C22.0973 213.564 21.7365 213.764 21.3303 213.906C20.924 214.048 20.4808 214.119 20.0007 214.119C19.245 214.119 18.5717 213.94 17.9808 213.582C17.3899 213.222 16.924 212.706 16.5831 212.036C16.245 211.365 16.076 210.565 16.076 209.636C16.076 208.705 16.2464 207.905 16.5874 207.237C16.9283 206.567 17.3942 206.053 17.9851 205.695C18.576 205.334 19.2479 205.153 20.0007 205.153C20.4638 205.153 20.8956 205.22 21.2962 205.354C21.6996 205.484 22.0618 205.678 22.3828 205.933C22.7038 206.186 22.9695 206.496 23.1797 206.862C23.3899 207.226 23.532 207.642 23.6058 208.111ZM19.1229 202.618L20.0007 203.76L20.8743 202.618H22.0291V202.682L20.5291 204.489H19.468L17.9723 202.682V202.618H19.1229Z" fill="#2E2F30"/>
</svg>
