<svg width="268" height="256" viewBox="0 0 268 256" fill="none" xmlns="http://www.w3.org/2000/svg">
<rect y="100" width="268" height="36" rx="2" fill="#EBF2F4"/>
<path d="M4.35085 85.2727H5.66335V91.4602C5.66335 92.0199 5.55256 92.4986 5.33097 92.8963C5.11222 93.294 4.80398 93.598 4.40625 93.8082C4.00852 94.0156 3.54261 94.1193 3.00852 94.1193C2.51705 94.1193 2.07528 94.0298 1.68324 93.8509C1.29403 93.6719 0.985795 93.4119 0.758523 93.071C0.534091 92.7273 0.421875 92.3097 0.421875 91.8182H1.73011C1.73011 92.0597 1.78551 92.2685 1.89631 92.4446C2.00994 92.6207 2.16477 92.7585 2.3608 92.858C2.55966 92.9545 2.78693 93.0028 3.04261 93.0028C3.32102 93.0028 3.55682 92.9446 3.75 92.8281C3.94602 92.7088 4.09517 92.5341 4.19744 92.304C4.29972 92.0739 4.35085 91.7926 4.35085 91.4602V85.2727ZM7.47763 94V87.4545H8.70064V88.5199H8.78161C8.91797 88.1591 9.14098 87.8778 9.45064 87.6761C9.7603 87.4716 10.131 87.3693 10.5629 87.3693C11.0004 87.3693 11.3668 87.4716 11.6623 87.6761C11.9606 87.8807 12.1808 88.1619 12.3228 88.5199H12.391C12.5472 88.1705 12.7958 87.892 13.1367 87.6847C13.4776 87.4744 13.8839 87.3693 14.3555 87.3693C14.9492 87.3693 15.4336 87.5554 15.8086 87.9276C16.1864 88.2997 16.3754 88.8608 16.3754 89.6108V94H15.1012V89.7301C15.1012 89.2869 14.9805 88.9659 14.739 88.767C14.4975 88.5682 14.2092 88.4688 13.8739 88.4688C13.4592 88.4688 13.1367 88.5966 12.9066 88.8523C12.6765 89.1051 12.5614 89.4304 12.5614 89.8281V94H11.2915V89.6491C11.2915 89.294 11.1808 89.0085 10.9592 88.7926C10.7376 88.5767 10.4492 88.4688 10.0941 88.4688C9.85263 88.4688 9.62962 88.5327 9.42507 88.6605C9.22337 88.7855 9.06001 88.9602 8.93501 89.1847C8.81286 89.4091 8.75178 89.669 8.75178 89.9645V94H7.47763ZM20.9041 94.1321C20.2592 94.1321 19.7038 93.9943 19.2379 93.7188C18.7749 93.4403 18.4169 93.0497 18.1641 92.5469C17.9141 92.0412 17.7891 91.4489 17.7891 90.7699C17.7891 90.0994 17.9141 89.5085 18.1641 88.9972C18.4169 88.4858 18.7692 88.0866 19.2209 87.7997C19.6754 87.5128 20.2067 87.3693 20.8146 87.3693C21.1839 87.3693 21.5419 87.4304 21.8885 87.5526C22.2351 87.6747 22.5462 87.8665 22.8217 88.1278C23.0973 88.3892 23.3146 88.7287 23.4737 89.1463C23.6328 89.5611 23.7124 90.0653 23.7124 90.6591V91.1108H18.5092V90.1562H22.4638C22.4638 89.821 22.3956 89.5241 22.2592 89.2656C22.1229 89.0043 21.9311 88.7983 21.6839 88.6477C21.4396 88.4972 21.1527 88.4219 20.8232 88.4219C20.4652 88.4219 20.1527 88.5099 19.8857 88.6861C19.6214 88.8594 19.4169 89.0866 19.272 89.3679C19.13 89.6463 19.0589 89.9489 19.0589 90.2756V91.0213C19.0589 91.4588 19.1357 91.831 19.2891 92.1378C19.4453 92.4446 19.6626 92.679 19.9411 92.8409C20.2195 93 20.5447 93.0795 20.9169 93.0795C21.1584 93.0795 21.3786 93.0455 21.5774 92.9773C21.7763 92.9062 21.9482 92.8011 22.093 92.6619C22.2379 92.5227 22.3487 92.3509 22.4254 92.1463L23.6314 92.3636C23.5348 92.7187 23.3615 93.0298 23.1115 93.2969C22.8643 93.5611 22.5533 93.767 22.1783 93.9148C21.8061 94.0597 21.3814 94.1321 20.9041 94.1321ZM20.2393 86.581L21.2365 84.6165H22.5788L21.2578 86.581H20.2393ZM26.4002 90.1136V94H25.1261V87.4545H26.3491V88.5199H26.43C26.5806 88.1733 26.8164 87.8949 27.1374 87.6847C27.4613 87.4744 27.869 87.3693 28.3604 87.3693C28.8065 87.3693 29.1971 87.4631 29.5323 87.6506C29.8675 87.8352 30.1275 88.1108 30.3121 88.4773C30.4968 88.8437 30.5891 89.2969 30.5891 89.8366V94H29.315V89.9901C29.315 89.5156 29.1914 89.1449 28.9442 88.8778C28.6971 88.608 28.3576 88.473 27.9258 88.473C27.6303 88.473 27.3675 88.5369 27.1374 88.6648C26.9102 88.7926 26.7298 88.9801 26.5962 89.2273C26.4656 89.4716 26.4002 89.767 26.4002 90.1136ZM35.055 94.1321C34.4414 94.1321 33.9059 93.9915 33.4485 93.7102C32.9911 93.429 32.636 93.0355 32.3832 92.5298C32.1303 92.0241 32.0039 91.4332 32.0039 90.7571C32.0039 90.0781 32.1303 89.4844 32.3832 88.9759C32.636 88.4673 32.9911 88.0724 33.4485 87.7912C33.9059 87.5099 34.4414 87.3693 35.055 87.3693C35.6687 87.3693 36.2042 87.5099 36.6616 87.7912C37.119 88.0724 37.4741 88.4673 37.7269 88.9759C37.9798 89.4844 38.1062 90.0781 38.1062 90.7571C38.1062 91.4332 37.9798 92.0241 37.7269 92.5298C37.4741 93.0355 37.119 93.429 36.6616 93.7102C36.2042 93.9915 35.6687 94.1321 35.055 94.1321ZM35.0593 93.0625C35.457 93.0625 35.7866 92.9574 36.0479 92.7472C36.3093 92.5369 36.5025 92.2571 36.6275 91.9077C36.7553 91.5582 36.8192 91.1733 36.8192 90.7528C36.8192 90.3352 36.7553 89.9517 36.6275 89.6023C36.5025 89.25 36.3093 88.9673 36.0479 88.7543C35.7866 88.5412 35.457 88.4347 35.0593 88.4347C34.6587 88.4347 34.3263 88.5412 34.0621 88.7543C33.8008 88.9673 33.6062 89.25 33.4783 89.6023C33.3533 89.9517 33.2908 90.3352 33.2908 90.7528C33.2908 91.1733 33.3533 91.5582 33.4783 91.9077C33.6062 92.2571 33.8008 92.5369 34.0621 92.7472C34.3263 92.9574 34.6587 93.0625 35.0593 93.0625ZM44.609 94.1449C44.1942 94.1449 43.8192 94.0682 43.484 93.9148C43.1488 93.7585 42.8832 93.5327 42.6871 93.2372C42.494 92.9418 42.3974 92.5795 42.3974 92.1506C42.3974 91.7812 42.4684 91.4773 42.6104 91.2386C42.7525 91 42.9442 90.8111 43.1857 90.6719C43.4272 90.5327 43.6971 90.4276 43.9954 90.3565C44.2937 90.2855 44.5977 90.2315 44.9073 90.1946C45.2994 90.1491 45.6175 90.1122 45.8619 90.0838C46.1062 90.0526 46.2837 90.0028 46.3945 89.9347C46.5053 89.8665 46.5607 89.7557 46.5607 89.6023V89.5724C46.5607 89.2003 46.4556 88.9119 46.2454 88.7074C46.038 88.5028 45.7283 88.4006 45.3164 88.4006C44.8874 88.4006 44.5494 88.4957 44.3022 88.6861C44.0579 88.8736 43.8888 89.0824 43.7951 89.3125L42.5977 89.0398C42.7397 88.642 42.9471 88.321 43.2198 88.0767C43.4954 87.8295 43.8121 87.6506 44.1701 87.5398C44.5281 87.4261 44.9045 87.3693 45.2994 87.3693C45.5607 87.3693 45.8377 87.4006 46.1303 87.4631C46.4258 87.5227 46.7013 87.6335 46.957 87.7955C47.2156 87.9574 47.4272 88.1889 47.592 88.4901C47.7567 88.7884 47.8391 89.1761 47.8391 89.6534V94H46.5948V93.1051H46.5437C46.4613 93.2699 46.3377 93.4318 46.1729 93.5909C46.0082 93.75 45.7965 93.8821 45.538 93.9872C45.2795 94.0923 44.9698 94.1449 44.609 94.1449ZM44.886 93.1222C45.2383 93.1222 45.5394 93.0526 45.7894 92.9134C46.0423 92.7741 46.234 92.5923 46.3647 92.3679C46.4982 92.1406 46.565 91.8977 46.565 91.6392V90.7955C46.5195 90.8409 46.4315 90.8835 46.3008 90.9233C46.1729 90.9602 46.0266 90.9929 45.8619 91.0213C45.6971 91.0469 45.5366 91.071 45.3803 91.0938C45.2241 91.1136 45.0934 91.1307 44.9883 91.1449C44.7411 91.1761 44.5153 91.2287 44.3107 91.3026C44.109 91.3764 43.9471 91.483 43.8249 91.6222C43.7056 91.7585 43.646 91.9403 43.646 92.1676C43.646 92.483 43.7624 92.7216 43.9954 92.8835C44.2283 93.0426 44.5252 93.1222 44.886 93.1222ZM52.712 96.4545V87.4545H53.9563V88.5156H54.0629C54.1367 88.3793 54.2433 88.2216 54.3825 88.0426C54.5217 87.8636 54.7148 87.7074 54.962 87.5739C55.2092 87.4375 55.5359 87.3693 55.9421 87.3693C56.4705 87.3693 56.9421 87.5028 57.3569 87.7699C57.7717 88.0369 58.0969 88.4219 58.3327 88.9247C58.5714 89.4276 58.6907 90.0327 58.6907 90.7401C58.6907 91.4474 58.5728 92.054 58.337 92.5597C58.1012 93.0625 57.7773 93.4503 57.3654 93.723C56.9535 93.9929 56.4833 94.1278 55.9549 94.1278C55.5572 94.1278 55.2319 94.0611 54.979 93.9276C54.729 93.794 54.533 93.6378 54.391 93.4588C54.2489 93.2798 54.1396 93.1207 54.0629 92.9815H53.9862V96.4545H52.712ZM53.9606 90.7273C53.9606 91.1875 54.0273 91.5909 54.1609 91.9375C54.2944 92.2841 54.4876 92.5554 54.7404 92.7514C54.9933 92.9446 55.3029 93.0412 55.6694 93.0412C56.0501 93.0412 56.3683 92.9403 56.6239 92.7386C56.8796 92.5341 57.0728 92.2571 57.2035 91.9077C57.337 91.5582 57.4038 91.1648 57.4038 90.7273C57.4038 90.2955 57.3384 89.9077 57.2077 89.5639C57.0799 89.2202 56.8867 88.9489 56.6282 88.75C56.3725 88.5511 56.0529 88.4517 55.6694 88.4517C55.3001 88.4517 54.9876 88.5469 54.7319 88.7372C54.479 88.9276 54.2873 89.1932 54.1566 89.5341C54.0259 89.875 53.9606 90.2727 53.9606 90.7273ZM60.1183 94V87.4545H61.3498V88.4943H61.418C61.5373 88.142 61.7475 87.8651 62.0487 87.6634C62.3526 87.4588 62.6964 87.3565 63.0799 87.3565C63.1594 87.3565 63.2532 87.3594 63.3612 87.3651C63.4719 87.3707 63.5586 87.3778 63.6211 87.3864V88.6051C63.57 88.5909 63.479 88.5753 63.3484 88.5582C63.2177 88.5384 63.087 88.5284 62.9563 88.5284C62.6552 88.5284 62.3867 88.5923 62.1509 88.7202C61.918 88.8452 61.7333 89.0199 61.5969 89.2443C61.4606 89.4659 61.3924 89.7187 61.3924 90.0028V94H60.1183ZM60.9279 84.7997L61.8058 85.9418L62.6793 84.7997H63.8342V84.8636L62.3342 86.6705H61.2731L59.7773 84.8636V84.7997H60.9279ZM64.7237 94V87.4545H65.9979V94H64.7237ZM64.843 86.581L65.8402 84.6165H67.1825L65.8615 86.581H64.843ZM67.712 87.4545H68.9862V94.4261C68.9862 94.8636 68.9066 95.233 68.7475 95.5341C68.5913 95.8352 68.3583 96.0639 68.0487 96.2202C67.7418 96.3764 67.3626 96.4545 66.9109 96.4545C66.8654 96.4545 66.8228 96.4545 66.783 96.4545C66.7404 96.4545 66.6964 96.4531 66.6509 96.4503V95.3551C66.6907 95.3551 66.7262 95.3551 66.7575 95.3551C66.7859 95.3551 66.8185 95.3551 66.8555 95.3551C67.1566 95.3551 67.3739 95.2741 67.5075 95.1122C67.6438 94.9531 67.712 94.7216 67.712 94.4176V87.4545ZM68.3427 86.4446C68.1211 86.4446 67.9308 86.3707 67.7717 86.223C67.6154 86.0724 67.5373 85.8935 67.5373 85.6861C67.5373 85.4759 67.6154 85.2969 67.7717 85.1491C67.9308 84.9986 68.1211 84.9233 68.3427 84.9233C68.5643 84.9233 68.7532 84.9986 68.9094 85.1491C69.0685 85.2969 69.1481 85.4759 69.1481 85.6861C69.1481 85.8935 69.0685 86.0724 68.9094 86.223C68.7532 86.3707 68.5643 86.4446 68.3427 86.4446ZM70.7003 94V87.4545H71.9233V88.5199H72.0043C72.1406 88.1591 72.3636 87.8778 72.6733 87.6761C72.983 87.4716 73.3537 87.3693 73.7855 87.3693C74.223 87.3693 74.5895 87.4716 74.8849 87.6761C75.1832 87.8807 75.4034 88.1619 75.5455 88.5199H75.6136C75.7699 88.1705 76.0185 87.892 76.3594 87.6847C76.7003 87.4744 77.1065 87.3693 77.5781 87.3693C78.1719 87.3693 78.6562 87.5554 79.0312 87.9276C79.4091 88.2997 79.598 88.8608 79.598 89.6108V94H78.3239V89.7301C78.3239 89.2869 78.2031 88.9659 77.9616 88.767C77.7202 88.5682 77.4318 88.4688 77.0966 88.4688C76.6818 88.4688 76.3594 88.5966 76.1293 88.8523C75.8991 89.1051 75.7841 89.4304 75.7841 89.8281V94H74.5142V89.6491C74.5142 89.294 74.4034 89.0085 74.1818 88.7926C73.9602 88.5767 73.6719 88.4688 73.3168 88.4688C73.0753 88.4688 72.8523 88.5327 72.6477 88.6605C72.446 88.7855 72.2827 88.9602 72.1577 89.1847C72.0355 89.4091 71.9744 89.669 71.9744 89.9645V94H70.7003ZM84.1268 94.1321C83.4819 94.1321 82.9265 93.9943 82.4606 93.7188C81.9975 93.4403 81.6396 93.0497 81.3867 92.5469C81.1367 92.0412 81.0117 91.4489 81.0117 90.7699C81.0117 90.0994 81.1367 89.5085 81.3867 88.9972C81.6396 88.4858 81.9918 88.0866 82.4435 87.7997C82.8981 87.5128 83.4293 87.3693 84.0373 87.3693C84.4066 87.3693 84.7646 87.4304 85.1112 87.5526C85.4577 87.6747 85.7688 87.8665 86.0444 88.1278C86.32 88.3892 86.5373 88.7287 86.6964 89.1463C86.8555 89.5611 86.935 90.0653 86.935 90.6591V91.1108H81.7319V90.1562H85.6864C85.6864 89.821 85.6183 89.5241 85.4819 89.2656C85.3455 89.0043 85.1538 88.7983 84.9066 88.6477C84.6623 88.4972 84.3754 88.4219 84.0458 88.4219C83.6879 88.4219 83.3754 88.5099 83.1083 88.6861C82.8441 88.8594 82.6396 89.0866 82.4947 89.3679C82.3526 89.6463 82.2816 89.9489 82.2816 90.2756V91.0213C82.2816 91.4588 82.3583 91.831 82.5117 92.1378C82.668 92.4446 82.8853 92.679 83.1637 92.8409C83.4421 93 83.7674 93.0795 84.1396 93.0795C84.381 93.0795 84.6012 93.0455 84.8001 92.9773C84.9989 92.9062 85.1708 92.8011 85.3157 92.6619C85.4606 92.5227 85.5714 92.3509 85.6481 92.1463L86.854 92.3636C86.7575 92.7187 86.5842 93.0298 86.3342 93.2969C86.087 93.5611 85.7759 93.767 85.4009 93.9148C85.0288 94.0597 84.604 94.1321 84.1268 94.1321ZM89.6229 90.1136V94H88.3487V87.4545H89.5717V88.5199H89.6527C89.8033 88.1733 90.0391 87.8949 90.3601 87.6847C90.6839 87.4744 91.0916 87.3693 91.5831 87.3693C92.0291 87.3693 92.4197 87.4631 92.755 87.6506C93.0902 87.8352 93.3501 88.1108 93.5348 88.4773C93.7195 88.8437 93.8118 89.2969 93.8118 89.8366V94H92.5376V89.9901C92.5376 89.5156 92.4141 89.1449 92.1669 88.8778C91.9197 88.608 91.5803 88.473 91.1484 88.473C90.853 88.473 90.5902 88.5369 90.3601 88.6648C90.1328 88.7926 89.9524 88.9801 89.8189 89.2273C89.6882 89.4716 89.6229 89.767 89.6229 90.1136ZM95.5206 94V87.4545H96.7947V94H95.5206ZM95.6399 86.581L96.6371 84.6165H97.9794L96.6584 86.581H95.6399Z" fill="#2E2F30"/>
<rect y="168" width="268" height="36" rx="2" fill="#EBF2F4"/>
<path d="M0.958807 162V153.273H6.4304V154.406H2.27557V157.065H6.14489V158.195H2.27557V160.866H6.48153V162H0.958807ZM8.087 162V155.455H9.31001V156.52H9.39098C9.52734 156.159 9.75036 155.878 10.06 155.676C10.3697 155.472 10.7404 155.369 11.1722 155.369C11.6097 155.369 11.9762 155.472 12.2717 155.676C12.57 155.881 12.7901 156.162 12.9322 156.52H13.0004C13.1566 156.17 13.4052 155.892 13.7461 155.685C14.087 155.474 14.4933 155.369 14.9648 155.369C15.5586 155.369 16.043 155.555 16.418 155.928C16.7958 156.3 16.9847 156.861 16.9847 157.611V162H15.7106V157.73C15.7106 157.287 15.5898 156.966 15.3484 156.767C15.1069 156.568 14.8185 156.469 14.4833 156.469C14.0685 156.469 13.7461 156.597 13.516 156.852C13.2859 157.105 13.1708 157.43 13.1708 157.828V162H11.9009V157.649C11.9009 157.294 11.7901 157.009 11.5685 156.793C11.3469 156.577 11.0586 156.469 10.7035 156.469C10.462 156.469 10.239 156.533 10.0344 156.661C9.83274 156.786 9.66939 156.96 9.54439 157.185C9.42223 157.409 9.36115 157.669 9.36115 157.964V162H8.087ZM20.5973 162.145C20.1825 162.145 19.8075 162.068 19.4723 161.915C19.1371 161.759 18.8714 161.533 18.6754 161.237C18.4822 160.942 18.3857 160.58 18.3857 160.151C18.3857 159.781 18.4567 159.477 18.5987 159.239C18.7408 159 18.9325 158.811 19.174 158.672C19.4155 158.533 19.6854 158.428 19.9837 158.357C20.282 158.286 20.5859 158.232 20.8956 158.195C21.2876 158.149 21.6058 158.112 21.8501 158.084C22.0945 158.053 22.272 158.003 22.3828 157.935C22.4936 157.866 22.549 157.756 22.549 157.602V157.572C22.549 157.2 22.4439 156.912 22.2337 156.707C22.0263 156.503 21.7166 156.401 21.3047 156.401C20.8757 156.401 20.5376 156.496 20.2905 156.686C20.0462 156.874 19.8771 157.082 19.7834 157.312L18.5859 157.04C18.728 156.642 18.9354 156.321 19.2081 156.077C19.4837 155.83 19.8004 155.651 20.1584 155.54C20.5163 155.426 20.8928 155.369 21.2876 155.369C21.549 155.369 21.826 155.401 22.1186 155.463C22.4141 155.523 22.6896 155.634 22.9453 155.795C23.2038 155.957 23.4155 156.189 23.5803 156.49C23.745 156.788 23.8274 157.176 23.8274 157.653V162H22.5831V161.105H22.532C22.4496 161.27 22.326 161.432 22.1612 161.591C21.9964 161.75 21.7848 161.882 21.5263 161.987C21.2678 162.092 20.9581 162.145 20.5973 162.145ZM20.8743 161.122C21.2266 161.122 21.5277 161.053 21.7777 160.913C22.0305 160.774 22.2223 160.592 22.353 160.368C22.4865 160.141 22.5533 159.898 22.5533 159.639V158.795C22.5078 158.841 22.4197 158.884 22.2891 158.923C22.1612 158.96 22.0149 158.993 21.8501 159.021C21.6854 159.047 21.5249 159.071 21.3686 159.094C21.2124 159.114 21.0817 159.131 20.9766 159.145C20.7294 159.176 20.5036 159.229 20.299 159.303C20.0973 159.376 19.9354 159.483 19.8132 159.622C19.6939 159.759 19.6342 159.94 19.6342 160.168C19.6342 160.483 19.7507 160.722 19.9837 160.884C20.2166 161.043 20.5135 161.122 20.8743 161.122ZM25.5245 162V155.455H26.7987V162H25.5245ZM26.168 154.445C25.9464 154.445 25.756 154.371 25.5969 154.223C25.4407 154.072 25.3626 153.893 25.3626 153.686C25.3626 153.476 25.4407 153.297 25.5969 153.149C25.756 152.999 25.9464 152.923 26.168 152.923C26.3896 152.923 26.5785 152.999 26.7347 153.149C26.8938 153.297 26.9734 153.476 26.9734 153.686C26.9734 153.893 26.8938 154.072 26.7347 154.223C26.5785 154.371 26.3896 154.445 26.168 154.445ZM29.7869 153.273V162H28.5128V153.273H29.7869Z" fill="#2E2F30"/>
<rect y="220" width="90" height="36" rx="2" fill="#ADE01F"/>
<path d="M12.7926 244.455V235.455H14.3097V236.537H14.3991C14.4787 236.378 14.5909 236.209 14.7358 236.03C14.8807 235.848 15.0767 235.693 15.3239 235.565C15.571 235.435 15.8864 235.369 16.2699 235.369C16.7756 235.369 17.2315 235.499 17.6378 235.757C18.0469 236.013 18.3707 236.392 18.6094 236.895C18.8509 237.395 18.9716 238.009 18.9716 238.736C18.9716 239.455 18.8537 240.065 18.6179 240.568C18.3821 241.071 18.0611 241.455 17.6548 241.719C17.2486 241.983 16.7884 242.115 16.2741 242.115C15.8991 242.115 15.5881 242.053 15.3409 241.928C15.0938 241.803 14.8949 241.652 14.7443 241.476C14.5966 241.297 14.4815 241.128 14.3991 240.969H14.3352V244.455H12.7926ZM14.3054 238.727C14.3054 239.151 14.3651 239.521 14.4844 239.839C14.6065 240.158 14.7813 240.406 15.0085 240.585C15.2386 240.761 15.517 240.849 15.8438 240.849C16.1847 240.849 16.4702 240.759 16.7003 240.577C16.9304 240.392 17.1037 240.141 17.2202 239.822C17.3395 239.501 17.3991 239.136 17.3991 238.727C17.3991 238.321 17.3409 237.96 17.2244 237.645C17.108 237.33 16.9347 237.082 16.7045 236.903C16.4744 236.724 16.1875 236.635 15.8438 236.635C15.5142 236.635 15.2344 236.722 15.0043 236.895C14.7741 237.068 14.5994 237.311 14.4801 237.624C14.3636 237.936 14.3054 238.304 14.3054 238.727ZM23.1477 242.128C22.5085 242.128 21.9545 241.987 21.4858 241.706C21.017 241.425 20.6534 241.031 20.3949 240.526C20.1392 240.02 20.0114 239.429 20.0114 238.753C20.0114 238.077 20.1392 237.484 20.3949 236.976C20.6534 236.467 21.017 236.072 21.4858 235.791C21.9545 235.51 22.5085 235.369 23.1477 235.369C23.7869 235.369 24.3409 235.51 24.8097 235.791C25.2784 236.072 25.6406 236.467 25.8963 236.976C26.1548 237.484 26.2841 238.077 26.2841 238.753C26.2841 239.429 26.1548 240.02 25.8963 240.526C25.6406 241.031 25.2784 241.425 24.8097 241.706C24.3409 241.987 23.7869 242.128 23.1477 242.128ZM23.1562 240.892C23.5028 240.892 23.7926 240.797 24.0256 240.607C24.2585 240.413 24.4318 240.155 24.5455 239.831C24.6619 239.507 24.7202 239.146 24.7202 238.749C24.7202 238.348 24.6619 237.986 24.5455 237.662C24.4318 237.335 24.2585 237.075 24.0256 236.882C23.7926 236.689 23.5028 236.592 23.1562 236.592C22.8011 236.592 22.5057 236.689 22.2699 236.882C22.0369 237.075 21.8622 237.335 21.7457 237.662C21.6321 237.986 21.5753 238.348 21.5753 238.749C21.5753 239.146 21.6321 239.507 21.7457 239.831C21.8622 240.155 22.0369 240.413 22.2699 240.607C22.5057 240.797 22.8011 240.892 23.1562 240.892ZM28.9996 239.946L28.9954 238.084H29.2425L31.5948 235.455H33.3974L30.5039 238.676H30.1843L28.9996 239.946ZM27.5934 242V233.273H29.136V242H27.5934ZM31.7013 242L29.5707 239.021L30.6104 237.935L33.5465 242H31.7013ZM34.4254 242V235.455H35.9212V236.545H35.9893C36.1087 236.168 36.3132 235.876 36.603 235.672C36.8956 235.464 37.2294 235.361 37.6044 235.361C37.6896 235.361 37.7848 235.365 37.8899 235.374C37.9979 235.379 38.0874 235.389 38.1584 235.403V236.822C38.093 236.8 37.9893 236.78 37.8473 236.763C37.7081 236.743 37.5732 236.733 37.4425 236.733C37.1612 236.733 36.9084 236.794 36.6839 236.916C36.4624 237.036 36.2876 237.202 36.1598 237.415C36.032 237.628 35.968 237.874 35.968 238.152V242H34.4254ZM40.9496 242.132C40.5348 242.132 40.1612 242.058 39.8288 241.911C39.4993 241.76 39.2379 241.538 39.0447 241.246C38.8544 240.953 38.7592 240.592 38.7592 240.163C38.7592 239.794 38.8274 239.489 38.9638 239.247C39.1001 239.006 39.2862 238.812 39.522 238.668C39.7578 238.523 40.0234 238.413 40.3189 238.339C40.6172 238.263 40.9254 238.207 41.2436 238.173C41.6271 238.134 41.9382 238.098 42.1768 238.067C42.4155 238.033 42.5888 237.982 42.6967 237.913C42.8075 237.842 42.8629 237.733 42.8629 237.585V237.56C42.8629 237.239 42.7678 236.99 42.5774 236.814C42.3871 236.638 42.1129 236.55 41.755 236.55C41.3771 236.55 41.0774 236.632 40.8558 236.797C40.6371 236.962 40.4893 237.156 40.4126 237.381L38.9723 237.176C39.0859 236.778 39.2734 236.446 39.5348 236.179C39.7962 235.909 40.1158 235.707 40.4936 235.574C40.8714 235.438 41.2891 235.369 41.7464 235.369C42.0618 235.369 42.3757 235.406 42.6882 235.48C43.0007 235.554 43.2862 235.676 43.5447 235.847C43.8033 236.014 44.0107 236.243 44.1669 236.533C44.326 236.822 44.4055 237.185 44.4055 237.619V242H42.9226V241.101H42.8714C42.7777 241.283 42.6456 241.453 42.4751 241.612C42.3075 241.768 42.0959 241.895 41.8402 241.991C41.5874 242.085 41.2905 242.132 40.9496 242.132ZM41.3501 240.999C41.6598 240.999 41.9283 240.937 42.1555 240.815C42.3828 240.69 42.5575 240.526 42.6797 240.321C42.8047 240.116 42.8672 239.893 42.8672 239.652V238.881C42.8189 238.92 42.7365 238.957 42.62 238.991C42.5064 239.026 42.3786 239.055 42.2365 239.081C42.0945 239.107 41.9538 239.129 41.8146 239.149C41.6754 239.169 41.5547 239.186 41.4524 239.2C41.2223 239.232 41.0163 239.283 40.8345 239.354C40.6527 239.425 40.5092 239.524 40.4041 239.652C40.299 239.777 40.2464 239.939 40.2464 240.138C40.2464 240.422 40.3501 240.636 40.5575 240.781C40.7649 240.926 41.0291 240.999 41.3501 240.999ZM48.8118 242.128C48.1584 242.128 47.5973 241.984 47.1286 241.697C46.6626 241.411 46.3033 241.014 46.0504 240.509C45.8004 240 45.6754 239.415 45.6754 238.753C45.6754 238.088 45.8033 237.501 46.0589 236.993C46.3146 236.482 46.6754 236.084 47.1413 235.8C47.6101 235.513 48.1641 235.369 48.8033 235.369C49.3345 235.369 49.8047 235.467 50.2138 235.663C50.6257 235.857 50.9538 236.131 51.1982 236.486C51.4425 236.838 51.5817 237.25 51.6158 237.722H50.1413C50.0817 237.406 49.9396 237.143 49.7152 236.933C49.4936 236.72 49.1967 236.614 48.8246 236.614C48.5092 236.614 48.2322 236.699 47.9936 236.869C47.755 237.037 47.5689 237.278 47.4354 237.594C47.3047 237.909 47.2393 238.287 47.2393 238.727C47.2393 239.173 47.3047 239.557 47.4354 239.878C47.5661 240.196 47.7493 240.442 47.9851 240.615C48.2237 240.786 48.5036 240.871 48.8246 240.871C49.0518 240.871 49.255 240.828 49.4339 240.743C49.6158 240.655 49.7678 240.528 49.8899 240.364C50.0121 240.199 50.0959 239.999 50.1413 239.763H51.6158C51.5788 240.226 51.4425 240.636 51.2067 240.994C50.9709 241.349 50.6499 241.628 50.2436 241.83C49.8374 242.028 49.3601 242.128 48.8118 242.128ZM47.9339 232.77L48.799 233.861L49.6641 232.77H51.0149V232.83L49.4041 234.67H48.1982L46.5831 232.83V232.77H47.9339ZM55.7376 242.128C55.0984 242.128 54.5444 241.987 54.0756 241.706C53.6069 241.425 53.2433 241.031 52.9847 240.526C52.729 240.02 52.6012 239.429 52.6012 238.753C52.6012 238.077 52.729 237.484 52.9847 236.976C53.2433 236.467 53.6069 236.072 54.0756 235.791C54.5444 235.51 55.0984 235.369 55.7376 235.369C56.3768 235.369 56.9308 235.51 57.3995 235.791C57.8683 236.072 58.2305 236.467 58.4862 236.976C58.7447 237.484 58.8739 238.077 58.8739 238.753C58.8739 239.429 58.7447 240.02 58.4862 240.526C58.2305 241.031 57.8683 241.425 57.3995 241.706C56.9308 241.987 56.3768 242.128 55.7376 242.128ZM55.7461 240.892C56.0927 240.892 56.3825 240.797 56.6154 240.607C56.8484 240.413 57.0217 240.155 57.1353 239.831C57.2518 239.507 57.31 239.146 57.31 238.749C57.31 238.348 57.2518 237.986 57.1353 237.662C57.0217 237.335 56.8484 237.075 56.6154 236.882C56.3825 236.689 56.0927 236.592 55.7461 236.592C55.391 236.592 55.0955 236.689 54.8597 236.882C54.6268 237.075 54.4521 237.335 54.3356 237.662C54.2219 237.986 54.1651 238.348 54.1651 238.749C54.1651 239.146 54.2219 239.507 54.3356 239.831C54.4521 240.155 54.6268 240.413 54.8597 240.607C55.0955 240.797 55.391 240.892 55.7461 240.892ZM65.8072 235.455L63.4762 242H61.7717L59.4407 235.455H61.0856L62.5898 240.317H62.658L64.1665 235.455H65.8072ZM68.5707 242.132C68.1559 242.132 67.7823 242.058 67.4499 241.911C67.1204 241.76 66.859 241.538 66.6658 241.246C66.4755 240.953 66.3803 240.592 66.3803 240.163C66.3803 239.794 66.4485 239.489 66.5849 239.247C66.7212 239.006 66.9073 238.812 67.1431 238.668C67.3789 238.523 67.6445 238.413 67.94 238.339C68.2383 238.263 68.5465 238.207 68.8647 238.173C69.2482 238.134 69.5593 238.098 69.7979 238.067C70.0366 238.033 70.2099 237.982 70.3178 237.913C70.4286 237.842 70.484 237.733 70.484 237.585V237.56C70.484 237.239 70.3888 236.99 70.1985 236.814C70.0082 236.638 69.734 236.55 69.3761 236.55C68.9982 236.55 68.6985 236.632 68.4769 236.797C68.2582 236.962 68.1104 237.156 68.0337 237.381L66.5934 237.176C66.707 236.778 66.8945 236.446 67.1559 236.179C67.4173 235.909 67.7369 235.707 68.1147 235.574C68.4925 235.438 68.9102 235.369 69.3675 235.369C69.6829 235.369 69.9968 235.406 70.3093 235.48C70.6218 235.554 70.9073 235.676 71.1658 235.847C71.4244 236.014 71.6317 236.243 71.788 236.533C71.9471 236.822 72.0266 237.185 72.0266 237.619V242H70.5437V241.101H70.4925C70.3988 241.283 70.2667 241.453 70.0962 241.612C69.9286 241.768 69.717 241.895 69.4613 241.991C69.2085 242.085 68.9116 242.132 68.5707 242.132ZM68.9712 240.999C69.2809 240.999 69.5494 240.937 69.7766 240.815C70.0039 240.69 70.1786 240.526 70.3008 240.321C70.4258 240.116 70.4883 239.893 70.4883 239.652V238.881C70.44 238.92 70.3576 238.957 70.2411 238.991C70.1275 239.026 69.9996 239.055 69.8576 239.081C69.7156 239.107 69.5749 239.129 69.4357 239.149C69.2965 239.169 69.1758 239.186 69.0735 239.2C68.8434 239.232 68.6374 239.283 68.4556 239.354C68.2738 239.425 68.1303 239.524 68.0252 239.652C67.9201 239.777 67.8675 239.939 67.8675 240.138C67.8675 240.422 67.9712 240.636 68.1786 240.781C68.386 240.926 68.6502 240.999 68.9712 240.999ZM76.8462 235.455V236.648H73.0835V235.455H76.8462ZM74.0124 233.886H75.555V240.031C75.555 240.239 75.5863 240.398 75.6488 240.509C75.7141 240.616 75.7994 240.69 75.9045 240.73C76.0096 240.77 76.1261 240.79 76.2539 240.79C76.3505 240.79 76.4386 240.783 76.5181 240.768C76.6005 240.754 76.663 240.741 76.7056 240.73L76.9656 241.936C76.8832 241.964 76.7653 241.996 76.6119 242.03C76.4613 242.064 76.2766 242.084 76.0579 242.089C75.6715 242.101 75.3235 242.043 75.0138 241.915C74.7042 241.784 74.4585 241.582 74.2766 241.31C74.0977 241.037 74.0096 240.696 74.0124 240.287V233.886Z" fill="#2E2F30"/>
<path d="M114.707 242V241.02L118.082 236.788V236.733H114.818V235.455H119.97V236.507L116.757 240.666V240.722H120.081V242H114.707ZM121.531 244.455V235.455H123.048V236.537H123.137C123.217 236.378 123.329 236.209 123.474 236.03C123.619 235.848 123.815 235.693 124.062 235.565C124.309 235.435 124.625 235.369 125.008 235.369C125.514 235.369 125.97 235.499 126.376 235.757C126.785 236.013 127.109 236.392 127.348 236.895C127.589 237.395 127.71 238.009 127.71 238.736C127.71 239.455 127.592 240.065 127.356 240.568C127.12 241.071 126.799 241.455 126.393 241.719C125.987 241.983 125.527 242.115 125.012 242.115C124.637 242.115 124.326 242.053 124.079 241.928C123.832 241.803 123.633 241.652 123.483 241.476C123.335 241.297 123.22 241.128 123.137 240.969H123.074V244.455H121.531ZM123.044 238.727C123.044 239.151 123.103 239.521 123.223 239.839C123.345 240.158 123.52 240.406 123.747 240.585C123.977 240.761 124.255 240.849 124.582 240.849C124.923 240.849 125.208 240.759 125.439 240.577C125.669 240.392 125.842 240.141 125.958 239.822C126.078 239.501 126.137 239.136 126.137 238.727C126.137 238.321 126.079 237.96 125.963 237.645C125.846 237.33 125.673 237.082 125.443 236.903C125.213 236.724 124.926 236.635 124.582 236.635C124.252 236.635 123.973 236.722 123.743 236.895C123.512 237.068 123.338 237.311 123.218 237.624C123.102 237.936 123.044 238.304 123.044 238.727ZM131.929 242.128C131.272 242.128 130.706 241.991 130.228 241.719C129.754 241.443 129.389 241.054 129.133 240.551C128.877 240.045 128.75 239.45 128.75 238.766C128.75 238.092 128.877 237.501 129.133 236.993C129.392 236.482 129.752 236.084 130.216 235.8C130.679 235.513 131.223 235.369 131.848 235.369C132.251 235.369 132.632 235.435 132.99 235.565C133.35 235.693 133.669 235.892 133.944 236.162C134.223 236.432 134.441 236.776 134.6 237.193C134.76 237.608 134.839 238.102 134.839 238.676V239.149H129.474V238.109H133.36C133.358 237.814 133.294 237.551 133.169 237.321C133.044 237.088 132.869 236.905 132.645 236.771C132.423 236.638 132.164 236.571 131.869 236.571C131.554 236.571 131.277 236.648 131.038 236.801C130.799 236.952 130.613 237.151 130.48 237.398C130.349 237.642 130.282 237.911 130.279 238.203V239.111C130.279 239.491 130.349 239.818 130.488 240.091C130.627 240.361 130.822 240.568 131.072 240.713C131.322 240.855 131.615 240.926 131.95 240.926C132.174 240.926 132.377 240.895 132.559 240.832C132.741 240.767 132.899 240.672 133.032 240.547C133.166 240.422 133.267 240.267 133.335 240.082L134.775 240.244C134.684 240.625 134.511 240.957 134.255 241.241C134.002 241.523 133.679 241.741 133.284 241.898C132.889 242.051 132.437 242.128 131.929 242.128ZM130.94 232.77L131.805 233.861L132.67 232.77H134.021V232.83L132.41 234.67H131.204L129.589 232.83V232.77H130.94ZM139.413 235.455V236.648H135.65V235.455H139.413ZM136.579 233.886H138.121V240.031C138.121 240.239 138.153 240.398 138.215 240.509C138.281 240.616 138.366 240.69 138.471 240.73C138.576 240.77 138.692 240.79 138.82 240.79C138.917 240.79 139.005 240.783 139.085 240.768C139.167 240.754 139.229 240.741 139.272 240.73L139.532 241.936C139.45 241.964 139.332 241.996 139.178 242.03C139.028 242.064 138.843 242.084 138.624 242.089C138.238 242.101 137.89 242.043 137.58 241.915C137.271 241.784 137.025 241.582 136.843 241.31C136.664 241.037 136.576 240.696 136.579 240.287V233.886Z" fill="#E01F36"/>
<rect x="103" y="221" width="48" height="34" rx="1" stroke="#E01F36" stroke-width="2"/>
<path d="M11.5455 48.1818C11.5455 49.4356 11.3106 50.5095 10.8409 51.4034C10.375 52.2936 9.73864 52.9754 8.93182 53.4489C8.12879 53.9223 7.2178 54.1591 6.19886 54.1591C5.17992 54.1591 4.26705 53.9223 3.46023 53.4489C2.6572 52.9716 2.02083 52.2879 1.55114 51.3977C1.08523 50.5038 0.852273 49.4318 0.852273 48.1818C0.852273 46.928 1.08523 45.8561 1.55114 44.9659C2.02083 44.072 2.6572 43.3883 3.46023 42.9148C4.26705 42.4413 5.17992 42.2045 6.19886 42.2045C7.2178 42.2045 8.12879 42.4413 8.93182 42.9148C9.73864 43.3883 10.375 44.072 10.8409 44.9659C11.3106 45.8561 11.5455 46.928 11.5455 48.1818ZM9.42614 48.1818C9.42614 47.2992 9.28788 46.5549 9.01136 45.9489C8.73864 45.339 8.35985 44.8788 7.875 44.5682C7.39015 44.2538 6.83144 44.0966 6.19886 44.0966C5.56629 44.0966 5.00758 44.2538 4.52273 44.5682C4.03788 44.8788 3.6572 45.339 3.38068 45.9489C3.10795 46.5549 2.97159 47.2992 2.97159 48.1818C2.97159 49.0644 3.10795 49.8106 3.38068 50.4205C3.6572 51.0265 4.03788 51.4867 4.52273 51.8011C5.00758 52.1117 5.56629 52.267 6.19886 52.267C6.83144 52.267 7.39015 52.1117 7.875 51.8011C8.35985 51.4867 8.73864 51.0265 9.01136 50.4205C9.28788 49.8106 9.42614 49.0644 9.42614 48.1818ZM20.3452 47.5795L18.4702 47.7841C18.4171 47.5947 18.3243 47.4167 18.1918 47.25C18.063 47.0833 17.8887 46.9489 17.669 46.8466C17.4493 46.7443 17.1804 46.6932 16.8622 46.6932C16.4342 46.6932 16.0743 46.786 15.7827 46.9716C15.4948 47.1572 15.3527 47.3977 15.3565 47.6932C15.3527 47.947 15.4455 48.1534 15.6349 48.3125C15.8281 48.4716 16.1463 48.6023 16.5895 48.7045L18.0781 49.0227C18.9039 49.2008 19.5175 49.483 19.919 49.8693C20.3243 50.2557 20.5289 50.7614 20.5327 51.3864C20.5289 51.9356 20.3679 52.4205 20.0497 52.8409C19.7353 53.2576 19.2978 53.5833 18.7372 53.8182C18.1766 54.053 17.5327 54.1705 16.8054 54.1705C15.7372 54.1705 14.8774 53.947 14.2259 53.5C13.5743 53.0492 13.1861 52.4223 13.0611 51.6193L15.0668 51.4261C15.1577 51.8201 15.3509 52.1174 15.6463 52.3182C15.9418 52.5189 16.3262 52.6193 16.7997 52.6193C17.2884 52.6193 17.6804 52.5189 17.9759 52.3182C18.2751 52.1174 18.4247 51.8693 18.4247 51.5739C18.4247 51.3239 18.3281 51.1174 18.1349 50.9545C17.9455 50.7917 17.6501 50.6667 17.2486 50.5795L15.7599 50.267C14.9228 50.0928 14.3035 49.7992 13.902 49.3864C13.5005 48.9697 13.3016 48.4432 13.3054 47.8068C13.3016 47.2689 13.4474 46.803 13.7429 46.4091C14.0421 46.0114 14.4569 45.7045 14.9872 45.4886C15.5213 45.2689 16.1368 45.1591 16.8338 45.1591C17.8565 45.1591 18.6615 45.3769 19.2486 45.8125C19.8395 46.2481 20.205 46.8371 20.3452 47.5795ZM26.0355 54.1705C25.1832 54.1705 24.4446 53.983 23.8196 53.608C23.1946 53.233 22.7098 52.7083 22.3651 52.0341C22.0241 51.3598 21.8537 50.572 21.8537 49.6705C21.8537 48.7689 22.0241 47.9792 22.3651 47.3011C22.7098 46.6231 23.1946 46.0966 23.8196 45.7216C24.4446 45.3466 25.1832 45.1591 26.0355 45.1591C26.8878 45.1591 27.6264 45.3466 28.2514 45.7216C28.8764 46.0966 29.3594 46.6231 29.7003 47.3011C30.045 47.9792 30.2173 48.7689 30.2173 49.6705C30.2173 50.572 30.045 51.3598 29.7003 52.0341C29.3594 52.7083 28.8764 53.233 28.2514 53.608C27.6264 53.983 26.8878 54.1705 26.0355 54.1705ZM26.0469 52.5227C26.509 52.5227 26.8954 52.3958 27.206 52.142C27.5166 51.8845 27.7476 51.5398 27.8991 51.108C28.0545 50.6761 28.1321 50.1951 28.1321 49.6648C28.1321 49.1307 28.0545 48.6477 27.8991 48.2159C27.7476 47.7803 27.5166 47.4337 27.206 47.1761C26.8954 46.9186 26.509 46.7898 26.0469 46.7898C25.5734 46.7898 25.1795 46.9186 24.8651 47.1761C24.5545 47.4337 24.3215 47.7803 24.1662 48.2159C24.0147 48.6477 23.9389 49.1307 23.9389 49.6648C23.9389 50.1951 24.0147 50.6761 24.1662 51.108C24.3215 51.5398 24.5545 51.8845 24.8651 52.142C25.1795 52.3958 25.5734 52.5227 26.0469 52.5227ZM32.054 54V42.3636H34.1108V46.7159H34.196C34.3021 46.5038 34.4517 46.2784 34.6449 46.0398C34.8381 45.7973 35.0994 45.5909 35.429 45.4205C35.7585 45.2462 36.179 45.1591 36.6903 45.1591C37.3646 45.1591 37.9725 45.3314 38.5142 45.6761C39.0597 46.017 39.4915 46.5227 39.8097 47.1932C40.1316 47.8598 40.2926 48.678 40.2926 49.6477C40.2926 50.6061 40.1354 51.4205 39.821 52.0909C39.5066 52.7614 39.0786 53.2727 38.5369 53.625C37.9953 53.9773 37.3816 54.1534 36.696 54.1534C36.196 54.1534 35.7813 54.0701 35.4517 53.9034C35.1222 53.7367 34.857 53.536 34.6562 53.3011C34.4593 53.0625 34.3059 52.8371 34.196 52.625H34.0767V54H32.054ZM34.071 49.6364C34.071 50.2008 34.1506 50.6951 34.3097 51.1193C34.4725 51.5436 34.7055 51.875 35.0085 52.1136C35.3153 52.3485 35.6866 52.4659 36.1222 52.4659C36.5767 52.4659 36.9574 52.3447 37.2642 52.1023C37.571 51.8561 37.8021 51.5208 37.9574 51.0966C38.1165 50.6686 38.196 50.1818 38.196 49.6364C38.196 49.0947 38.1184 48.6136 37.9631 48.1932C37.8078 47.7727 37.5767 47.4432 37.2699 47.2045C36.9631 46.9659 36.5805 46.8466 36.1222 46.8466C35.6828 46.8466 35.3097 46.9621 35.0028 47.1932C34.696 47.4242 34.4631 47.7481 34.304 48.1648C34.1487 48.5814 34.071 49.072 34.071 49.6364ZM44.098 48.8864V54H42.0412V45.2727H44.0071V46.7557H44.1094C44.3101 46.267 44.6302 45.8788 45.0696 45.5909C45.5128 45.303 46.0601 45.1591 46.7116 45.1591C47.3139 45.1591 47.8385 45.2879 48.2855 45.5455C48.7363 45.803 49.0848 46.1761 49.331 46.6648C49.581 47.1534 49.7041 47.7462 49.7003 48.4432V54H47.6435V48.7614C47.6435 48.178 47.492 47.7216 47.1889 47.392C46.8897 47.0625 46.4749 46.8977 45.9446 46.8977C45.5848 46.8977 45.2647 46.9773 44.9844 47.1364C44.7079 47.2917 44.4901 47.517 44.331 47.8125C44.1757 48.108 44.098 48.4659 44.098 48.8864ZM51.7912 54V45.2727H53.848V54H51.7912ZM52.0355 44.125L53.3082 41.5284H55.3196L53.5753 44.125H52.0355ZM59.9318 54V45.2727H61.9886V54H59.9318ZM60.9659 44.0341C60.6402 44.0341 60.3598 43.9261 60.125 43.7102C59.8902 43.4905 59.7727 43.2273 59.7727 42.9205C59.7727 42.6098 59.8902 42.3466 60.125 42.1307C60.3598 41.911 60.6402 41.8011 60.9659 41.8011C61.2955 41.8011 61.5758 41.911 61.8068 42.1307C62.0417 42.3466 62.1591 42.6098 62.1591 42.9205C62.1591 43.2273 62.0417 43.4905 61.8068 43.7102C61.5758 43.9261 61.2955 44.0341 60.9659 44.0341ZM66.1605 48.8864V54H64.1037V45.2727H66.0696V46.7557H66.1719C66.3726 46.267 66.6927 45.8788 67.1321 45.5909C67.5753 45.303 68.1226 45.1591 68.7741 45.1591C69.3764 45.1591 69.901 45.2879 70.348 45.5455C70.7988 45.803 71.1473 46.1761 71.3935 46.6648C71.6435 47.1534 71.7666 47.7462 71.7628 48.4432V54H69.706V48.7614C69.706 48.178 69.5545 47.7216 69.2514 47.392C68.9522 47.0625 68.5374 46.8977 68.0071 46.8977C67.6473 46.8977 67.3272 46.9773 67.0469 47.1364C66.7704 47.2917 66.5526 47.517 66.3935 47.8125C66.2382 48.108 66.1605 48.4659 66.1605 48.8864ZM78.2741 45.2727V46.8636H73.1151V45.2727H78.2741ZM74.4048 54V44.4489C74.4048 43.8617 74.526 43.3731 74.7685 42.983C75.0147 42.5928 75.3442 42.3011 75.7571 42.108C76.17 41.9148 76.6283 41.8182 77.1321 41.8182C77.4882 41.8182 77.8045 41.8466 78.081 41.9034C78.3575 41.9602 78.562 42.0114 78.6946 42.0568L78.2855 43.6477C78.1984 43.6212 78.0885 43.5947 77.956 43.5682C77.8234 43.5379 77.6757 43.5227 77.5128 43.5227C77.1302 43.5227 76.8594 43.6155 76.7003 43.8011C76.545 43.983 76.4673 44.2443 76.4673 44.5852V54H74.4048ZM83.3636 54.1705C82.5114 54.1705 81.7727 53.983 81.1477 53.608C80.5227 53.233 80.0379 52.7083 79.6932 52.0341C79.3523 51.3598 79.1818 50.572 79.1818 49.6705C79.1818 48.7689 79.3523 47.9792 79.6932 47.3011C80.0379 46.6231 80.5227 46.0966 81.1477 45.7216C81.7727 45.3466 82.5114 45.1591 83.3636 45.1591C84.2159 45.1591 84.9545 45.3466 85.5795 45.7216C86.2045 46.0966 86.6875 46.6231 87.0284 47.3011C87.3731 47.9792 87.5455 48.7689 87.5455 49.6705C87.5455 50.572 87.3731 51.3598 87.0284 52.0341C86.6875 52.7083 86.2045 53.233 85.5795 53.608C84.9545 53.983 84.2159 54.1705 83.3636 54.1705ZM83.375 52.5227C83.8371 52.5227 84.2235 52.3958 84.5341 52.142C84.8447 51.8845 85.0758 51.5398 85.2273 51.108C85.3826 50.6761 85.4602 50.1951 85.4602 49.6648C85.4602 49.1307 85.3826 48.6477 85.2273 48.2159C85.0758 47.7803 84.8447 47.4337 84.5341 47.1761C84.2235 46.9186 83.8371 46.7898 83.375 46.7898C82.9015 46.7898 82.5076 46.9186 82.1932 47.1761C81.8826 47.4337 81.6496 47.7803 81.4943 48.2159C81.3428 48.6477 81.267 49.1307 81.267 49.6648C81.267 50.1951 81.3428 50.6761 81.4943 51.108C81.6496 51.5398 81.8826 51.8845 82.1932 52.142C82.5076 52.3958 82.9015 52.5227 83.375 52.5227ZM89.2912 54V45.2727H91.2855V46.7273H91.3764C91.5355 46.2235 91.8082 45.8352 92.1946 45.5625C92.5848 45.286 93.0298 45.1477 93.5298 45.1477C93.6435 45.1477 93.7704 45.1534 93.9105 45.1648C94.0545 45.1723 94.1738 45.1856 94.2685 45.2045V47.0966C94.1813 47.0663 94.0431 47.0398 93.8537 47.017C93.6681 46.9905 93.4882 46.9773 93.3139 46.9773C92.9389 46.9773 92.6018 47.0587 92.3026 47.2216C92.0071 47.3807 91.7741 47.6023 91.6037 47.8864C91.4332 48.1705 91.348 48.4981 91.348 48.8693V54H89.2912ZM95.6349 54V45.2727H97.6009V46.7557H97.7031C97.8849 46.2557 98.1861 45.8655 98.6065 45.5852C99.027 45.3011 99.5289 45.1591 100.112 45.1591C100.703 45.1591 101.201 45.303 101.607 45.5909C102.016 45.875 102.304 46.2633 102.47 46.7557H102.561C102.754 46.2708 103.08 45.8845 103.538 45.5966C104 45.3049 104.548 45.1591 105.18 45.1591C105.983 45.1591 106.639 45.4129 107.146 45.9205C107.654 46.428 107.908 47.1686 107.908 48.142V54H105.845V48.4602C105.845 47.9186 105.701 47.5227 105.413 47.2727C105.125 47.0189 104.773 46.892 104.357 46.892C103.86 46.892 103.472 47.0473 103.192 47.358C102.915 47.6648 102.777 48.0644 102.777 48.5568V54H100.76V48.375C100.76 47.9242 100.624 47.5644 100.351 47.2955C100.082 47.0265 99.7296 46.892 99.294 46.892C98.9986 46.892 98.7296 46.9678 98.4872 47.1193C98.2448 47.267 98.0516 47.4773 97.9077 47.75C97.7637 48.0189 97.6918 48.3333 97.6918 48.6932V54H95.6349ZM112.506 54.1761C111.953 54.1761 111.455 54.0777 111.011 53.8807C110.572 53.6799 110.223 53.3845 109.966 52.9943C109.712 52.6042 109.585 52.1231 109.585 51.5511C109.585 51.0587 109.676 50.6515 109.858 50.3295C110.04 50.0076 110.288 49.75 110.602 49.5568C110.917 49.3636 111.271 49.2178 111.665 49.1193C112.063 49.017 112.473 48.9432 112.898 48.8977C113.409 48.8447 113.824 48.7973 114.142 48.7557C114.46 48.7102 114.691 48.642 114.835 48.5511C114.983 48.4564 115.057 48.3106 115.057 48.1136V48.0795C115.057 47.6515 114.93 47.3201 114.676 47.0852C114.422 46.8504 114.057 46.733 113.58 46.733C113.076 46.733 112.676 46.8428 112.381 47.0625C112.089 47.2822 111.892 47.5417 111.79 47.8409L109.869 47.5682C110.021 47.0379 110.271 46.5947 110.619 46.2386C110.968 45.8788 111.394 45.6098 111.898 45.4318C112.402 45.25 112.958 45.1591 113.568 45.1591C113.989 45.1591 114.407 45.2083 114.824 45.3068C115.241 45.4053 115.621 45.5682 115.966 45.7955C116.311 46.0189 116.587 46.3239 116.795 46.7102C117.008 47.0966 117.114 47.5795 117.114 48.1591V54H115.136V52.8011H115.068C114.943 53.0436 114.767 53.2708 114.54 53.483C114.316 53.6913 114.034 53.8598 113.693 53.9886C113.356 54.1136 112.96 54.1761 112.506 54.1761ZM113.04 52.6648C113.453 52.6648 113.811 52.5833 114.114 52.4205C114.417 52.2538 114.65 52.0341 114.812 51.7614C114.979 51.4886 115.062 51.1913 115.062 50.8693V49.8409C114.998 49.8939 114.888 49.9432 114.733 49.9886C114.581 50.0341 114.411 50.0739 114.222 50.108C114.032 50.142 113.845 50.1723 113.659 50.1989C113.473 50.2254 113.313 50.2481 113.176 50.267C112.869 50.3087 112.595 50.3769 112.352 50.4716C112.11 50.5663 111.919 50.6989 111.778 50.8693C111.638 51.036 111.568 51.2519 111.568 51.517C111.568 51.8958 111.706 52.1818 111.983 52.375C112.259 52.5682 112.612 52.6648 113.04 52.6648ZM122.989 54.1705C122.117 54.1705 121.369 53.9792 120.744 53.5966C120.123 53.214 119.644 52.6856 119.307 52.0114C118.973 51.3333 118.807 50.553 118.807 49.6705C118.807 48.7841 118.977 48.0019 119.318 47.3239C119.659 46.642 120.14 46.1117 120.761 45.733C121.386 45.3504 122.125 45.1591 122.977 45.1591C123.686 45.1591 124.313 45.2898 124.858 45.5511C125.407 45.8087 125.845 46.1742 126.17 46.6477C126.496 47.1174 126.682 47.6667 126.727 48.2955H124.761C124.682 47.875 124.492 47.5246 124.193 47.2443C123.898 46.9602 123.502 46.8182 123.006 46.8182C122.585 46.8182 122.216 46.9318 121.898 47.1591C121.58 47.3826 121.331 47.7045 121.153 48.125C120.979 48.5455 120.892 49.0492 120.892 49.6364C120.892 50.2311 120.979 50.7424 121.153 51.1705C121.328 51.5947 121.572 51.9223 121.886 52.1534C122.205 52.3807 122.578 52.4943 123.006 52.4943C123.309 52.4943 123.58 52.4375 123.818 52.3239C124.061 52.2064 124.263 52.0379 124.426 51.8182C124.589 51.5985 124.701 51.3314 124.761 51.017H126.727C126.678 51.6345 126.496 52.1818 126.182 52.6591C125.867 53.1326 125.439 53.5038 124.898 53.7727C124.356 54.0379 123.72 54.1705 122.989 54.1705ZM132.28 54.1705C131.405 54.1705 130.649 53.9886 130.013 53.625C129.38 53.2576 128.893 52.7386 128.553 52.0682C128.212 51.3939 128.041 50.6004 128.041 49.6875C128.041 48.7898 128.212 48.0019 128.553 47.3239C128.897 46.642 129.378 46.1117 129.996 45.733C130.613 45.3504 131.339 45.1591 132.172 45.1591C132.71 45.1591 133.217 45.2462 133.695 45.4205C134.176 45.5909 134.6 45.8561 134.967 46.2159C135.339 46.5758 135.63 47.0341 135.842 47.5909C136.054 48.1439 136.161 48.803 136.161 49.5682V50.1989H129.007V48.8125H134.189C134.185 48.4186 134.1 48.0682 133.933 47.7614C133.767 47.4508 133.534 47.2064 133.234 47.0284C132.939 46.8504 132.594 46.7614 132.2 46.7614C131.78 46.7614 131.411 46.8636 131.092 47.0682C130.774 47.2689 130.526 47.5341 130.348 47.8636C130.174 48.1894 130.085 48.5473 130.081 48.9375V50.1477C130.081 50.6553 130.174 51.0909 130.359 51.4545C130.545 51.8144 130.804 52.0909 131.138 52.2841C131.471 52.4735 131.861 52.5682 132.308 52.5682C132.607 52.5682 132.878 52.5265 133.121 52.4432C133.363 52.3561 133.573 52.2292 133.751 52.0625C133.929 51.8958 134.064 51.6894 134.155 51.4432L136.075 51.6591C135.954 52.1667 135.723 52.6098 135.382 52.9886C135.045 53.3636 134.613 53.6553 134.087 53.8636C133.56 54.0682 132.958 54.1705 132.28 54.1705Z" fill="#596063" fill-opacity="0.75"/>
<path d="M8.53977 7.63636C8.53977 8.56818 8.36932 9.36932 8.02841 10.0398C7.6875 10.7074 7.22017 11.2216 6.62642 11.5824C6.03551 11.9403 5.36364 12.1193 4.6108 12.1193C3.85511 12.1193 3.1804 11.9403 2.58665 11.5824C1.99574 11.2216 1.52983 10.706 1.18892 10.0355C0.848011 9.36506 0.677557 8.56534 0.677557 7.63636C0.677557 6.70455 0.848011 5.90483 1.18892 5.23722C1.52983 4.56676 1.99574 4.05256 2.58665 3.6946C3.1804 3.33381 3.85511 3.15341 4.6108 3.15341C5.36364 3.15341 6.03551 3.33381 6.62642 3.6946C7.22017 4.05256 7.6875 4.56676 8.02841 5.23722C8.36932 5.90483 8.53977 6.70455 8.53977 7.63636ZM7.2358 7.63636C7.2358 6.92614 7.12074 6.32812 6.89062 5.84233C6.66335 5.35369 6.35085 4.98438 5.95312 4.73438C5.55824 4.48153 5.1108 4.35511 4.6108 4.35511C4.10795 4.35511 3.65909 4.48153 3.2642 4.73438C2.86932 4.98438 2.55682 5.35369 2.3267 5.84233C2.09943 6.32812 1.9858 6.92614 1.9858 7.63636C1.9858 8.34659 2.09943 8.94602 2.3267 9.43466C2.55682 9.92045 2.86932 10.2898 3.2642 10.5426C3.65909 10.7926 4.10795 10.9176 4.6108 10.9176C5.1108 10.9176 5.55824 10.7926 5.95312 10.5426C6.35085 10.2898 6.66335 9.92045 6.89062 9.43466C7.12074 8.94602 7.2358 8.34659 7.2358 7.63636ZM14.984 7.05256L13.8292 7.2571C13.7809 7.10937 13.7042 6.96875 13.5991 6.83523C13.4968 6.7017 13.3576 6.59233 13.1815 6.5071C13.0053 6.42187 12.7852 6.37926 12.521 6.37926C12.1602 6.37926 11.859 6.46023 11.6175 6.62216C11.3761 6.78125 11.2553 6.98722 11.2553 7.24006C11.2553 7.45881 11.3363 7.63494 11.4982 7.76847C11.6602 7.90199 11.9215 8.01136 12.2823 8.09659L13.3221 8.33523C13.9244 8.47443 14.3732 8.68892 14.6687 8.97869C14.9641 9.26847 15.1119 9.64489 15.1119 10.108C15.1119 10.5 14.9982 10.8494 14.771 11.1562C14.5465 11.4602 14.2326 11.6989 13.8292 11.8722C13.4286 12.0455 12.9641 12.1321 12.4357 12.1321C11.7028 12.1321 11.1048 11.9759 10.6417 11.6634C10.1786 11.348 9.89453 10.9006 9.78942 10.321L11.021 10.1335C11.0977 10.4545 11.2553 10.6974 11.494 10.8622C11.7326 11.0241 12.0437 11.1051 12.4272 11.1051C12.8448 11.1051 13.1786 11.0185 13.4286 10.8452C13.6786 10.669 13.8036 10.4545 13.8036 10.2017C13.8036 9.99716 13.7269 9.82528 13.5735 9.68608C13.4229 9.54687 13.1914 9.44176 12.8789 9.37074L11.771 9.12784C11.1602 8.98864 10.7085 8.76705 10.4158 8.46307C10.1261 8.15909 9.98118 7.77415 9.98118 7.30824C9.98118 6.92187 10.0891 6.58381 10.305 6.29403C10.521 6.00426 10.8192 5.77841 11.1999 5.61648C11.5806 5.4517 12.0167 5.36932 12.5082 5.36932C13.2156 5.36932 13.7724 5.52273 14.1786 5.82955C14.5849 6.13352 14.8533 6.54119 14.984 7.05256ZM19.2699 12.1321C18.6563 12.1321 18.1207 11.9915 17.6634 11.7102C17.206 11.429 16.8509 11.0355 16.598 10.5298C16.3452 10.0241 16.2188 9.43324 16.2188 8.7571C16.2188 8.07812 16.3452 7.48437 16.598 6.97585C16.8509 6.46733 17.206 6.07244 17.6634 5.79119C18.1207 5.50994 18.6563 5.36932 19.2699 5.36932C19.8835 5.36932 20.419 5.50994 20.8764 5.79119C21.3338 6.07244 21.6889 6.46733 21.9418 6.97585C22.1946 7.48437 22.321 8.07812 22.321 8.7571C22.321 9.43324 22.1946 10.0241 21.9418 10.5298C21.6889 11.0355 21.3338 11.429 20.8764 11.7102C20.419 11.9915 19.8835 12.1321 19.2699 12.1321ZM19.2741 11.0625C19.6719 11.0625 20.0014 10.9574 20.2628 10.7472C20.5241 10.5369 20.7173 10.2571 20.8423 9.90767C20.9702 9.55824 21.0341 9.1733 21.0341 8.75284C21.0341 8.33523 20.9702 7.9517 20.8423 7.60227C20.7173 7.25 20.5241 6.96733 20.2628 6.75426C20.0014 6.54119 19.6719 6.43466 19.2741 6.43466C18.8736 6.43466 18.5412 6.54119 18.277 6.75426C18.0156 6.96733 17.821 7.25 17.6932 7.60227C17.5682 7.9517 17.5057 8.33523 17.5057 8.75284C17.5057 9.1733 17.5682 9.55824 17.6932 9.90767C17.821 10.2571 18.0156 10.5369 18.277 10.7472C18.5412 10.9574 18.8736 11.0625 19.2741 11.0625ZM23.8455 12V3.27273H25.1197V6.51562H25.1964C25.2702 6.37926 25.3768 6.22159 25.516 6.04261C25.6552 5.86364 25.8484 5.70739 26.0955 5.57386C26.3427 5.4375 26.6694 5.36932 27.0756 5.36932C27.604 5.36932 28.0756 5.50284 28.4904 5.76989C28.9052 6.03693 29.2305 6.42187 29.4663 6.92472C29.7049 7.42756 29.8242 8.03267 29.8242 8.74006C29.8242 9.44744 29.7063 10.054 29.4705 10.5597C29.2347 11.0625 28.9109 11.4503 28.4989 11.723C28.087 11.9929 27.6168 12.1278 27.0884 12.1278C26.6907 12.1278 26.3654 12.0611 26.1126 11.9276C25.8626 11.794 25.6665 11.6378 25.5245 11.4588C25.3825 11.2798 25.2731 11.1207 25.1964 10.9815H25.0898V12H23.8455ZM25.0941 8.72727C25.0941 9.1875 25.1609 9.59091 25.2944 9.9375C25.4279 10.2841 25.6211 10.5554 25.8739 10.7514C26.1268 10.9446 26.4364 11.0412 26.8029 11.0412C27.1836 11.0412 27.5018 10.9403 27.7575 10.7386C28.0131 10.5341 28.2063 10.2571 28.337 9.90767C28.4705 9.55824 28.5373 9.16477 28.5373 8.72727C28.5373 8.29545 28.4719 7.90767 28.3413 7.56392C28.2134 7.22017 28.0202 6.94886 27.7617 6.75C27.506 6.55114 27.1864 6.4517 26.8029 6.4517C26.4336 6.4517 26.1211 6.54687 25.8654 6.73722C25.6126 6.92756 25.4208 7.19318 25.2901 7.53409C25.1594 7.875 25.0941 8.27273 25.0941 8.72727ZM32.5291 8.11364V12H31.255V5.45455H32.478V6.51989H32.5589C32.7095 6.1733 32.9453 5.89489 33.2663 5.68466C33.5902 5.47443 33.9979 5.36932 34.4893 5.36932C34.9354 5.36932 35.326 5.46307 35.6612 5.65057C35.9964 5.83523 36.2564 6.1108 36.4411 6.47727C36.6257 6.84375 36.718 7.29687 36.718 7.83665V12H35.4439V7.99006C35.4439 7.51562 35.3203 7.14489 35.0732 6.87784C34.826 6.60795 34.4865 6.47301 34.0547 6.47301C33.7592 6.47301 33.4964 6.53693 33.2663 6.66477C33.0391 6.79261 32.8587 6.98011 32.7251 7.22727C32.5945 7.47159 32.5291 7.76705 32.5291 8.11364ZM38.4268 12V5.45455H39.701V12H38.4268ZM38.5462 4.58097L39.5433 2.61648H40.8857L39.5646 4.58097H38.5462ZM44.5909 12V5.45455H45.8651V12H44.5909ZM45.2344 4.4446C45.0128 4.4446 44.8224 4.37074 44.6634 4.22301C44.5071 4.07244 44.429 3.89347 44.429 3.68608C44.429 3.47585 44.5071 3.29687 44.6634 3.14915C44.8224 2.99858 45.0128 2.9233 45.2344 2.9233C45.456 2.9233 45.6449 2.99858 45.8011 3.14915C45.9602 3.29687 46.0398 3.47585 46.0398 3.68608C46.0398 3.89347 45.9602 4.07244 45.8011 4.22301C45.6449 4.37074 45.456 4.4446 45.2344 4.4446ZM48.8533 8.11364V12H47.5792V5.45455H48.8022V6.51989H48.8832C49.0337 6.1733 49.2695 5.89489 49.5906 5.68466C49.9144 5.47443 50.3221 5.36932 50.8136 5.36932C51.2596 5.36932 51.6502 5.46307 51.9854 5.65057C52.3207 5.83523 52.5806 6.1108 52.7653 6.47727C52.9499 6.84375 53.0423 7.29687 53.0423 7.83665V12H51.7681V7.99006C51.7681 7.51562 51.6445 7.14489 51.3974 6.87784C51.1502 6.60795 50.8107 6.47301 50.3789 6.47301C50.0835 6.47301 49.8207 6.53693 49.5906 6.66477C49.3633 6.79261 49.1829 6.98011 49.0494 7.22727C48.9187 7.47159 48.8533 7.76705 48.8533 8.11364ZM57.8661 5.45455V6.47727H54.1673V5.45455H57.8661ZM55.1815 12V4.69602C55.1815 4.28693 55.271 3.94744 55.4499 3.67756C55.6289 3.40483 55.8661 3.2017 56.1616 3.06818C56.457 2.93182 56.7781 2.86364 57.1246 2.86364C57.3803 2.86364 57.5991 2.88494 57.7809 2.92756C57.9627 2.96733 58.0977 3.00426 58.1857 3.03835L57.8874 4.0696C57.8278 4.05256 57.7511 4.03267 57.6573 4.00994C57.5636 3.98437 57.4499 3.97159 57.3164 3.97159C57.0067 3.97159 56.7852 4.0483 56.6516 4.2017C56.521 4.35511 56.4556 4.5767 56.4556 4.86648V12H55.1815ZM61.68 12.1321C61.0664 12.1321 60.5309 11.9915 60.0735 11.7102C59.6161 11.429 59.261 11.0355 59.0082 10.5298C58.7553 10.0241 58.6289 9.43324 58.6289 8.7571C58.6289 8.07812 58.7553 7.48437 59.0082 6.97585C59.261 6.46733 59.6161 6.07244 60.0735 5.79119C60.5309 5.50994 61.0664 5.36932 61.68 5.36932C62.2937 5.36932 62.8292 5.50994 63.2866 5.79119C63.744 6.07244 64.0991 6.46733 64.3519 6.97585C64.6048 7.48437 64.7312 8.07812 64.7312 8.7571C64.7312 9.43324 64.6048 10.0241 64.3519 10.5298C64.0991 11.0355 63.744 11.429 63.2866 11.7102C62.8292 11.9915 62.2937 12.1321 61.68 12.1321ZM61.6843 11.0625C62.082 11.0625 62.4116 10.9574 62.6729 10.7472C62.9343 10.5369 63.1275 10.2571 63.2525 9.90767C63.3803 9.55824 63.4442 9.1733 63.4442 8.75284C63.4442 8.33523 63.3803 7.9517 63.2525 7.60227C63.1275 7.25 62.9343 6.96733 62.6729 6.75426C62.4116 6.54119 62.082 6.43466 61.6843 6.43466C61.2837 6.43466 60.9513 6.54119 60.6871 6.75426C60.4258 6.96733 60.2312 7.25 60.1033 7.60227C59.9783 7.9517 59.9158 8.33523 59.9158 8.75284C59.9158 9.1733 59.9783 9.55824 60.1033 9.90767C60.2312 10.2571 60.4258 10.5369 60.6871 10.7472C60.9513 10.9574 61.2837 11.0625 61.6843 11.0625ZM66.1534 12V5.45455H67.3849V6.49432H67.4531C67.5724 6.14205 67.7827 5.86506 68.0838 5.66335C68.3878 5.45881 68.7315 5.35653 69.1151 5.35653C69.1946 5.35653 69.2884 5.35937 69.3963 5.36506C69.5071 5.37074 69.5938 5.37784 69.6562 5.38636V6.60511C69.6051 6.59091 69.5142 6.57528 69.3835 6.55824C69.2528 6.53835 69.1222 6.52841 68.9915 6.52841C68.6903 6.52841 68.4219 6.59233 68.1861 6.72017C67.9531 6.84517 67.7685 7.01989 67.6321 7.24432C67.4957 7.46591 67.4276 7.71875 67.4276 8.00284V12H66.1534ZM70.7589 12V5.45455H71.9819V6.51989H72.0629C72.1992 6.15909 72.4222 5.87784 72.7319 5.67614C73.0415 5.47159 73.4123 5.36932 73.8441 5.36932C74.2816 5.36932 74.6481 5.47159 74.9435 5.67614C75.2418 5.88068 75.462 6.16193 75.604 6.51989H75.6722C75.8285 6.17045 76.0771 5.89205 76.418 5.68466C76.7589 5.47443 77.1651 5.36932 77.6367 5.36932C78.2305 5.36932 78.7148 5.5554 79.0898 5.92756C79.4677 6.29972 79.6566 6.8608 79.6566 7.6108V12H78.3825V7.73011C78.3825 7.28693 78.2617 6.96591 78.0202 6.76705C77.7788 6.56818 77.4904 6.46875 77.1552 6.46875C76.7404 6.46875 76.418 6.59659 76.1879 6.85227C75.9577 7.10511 75.8427 7.4304 75.8427 7.82812V12H74.5728V7.64915C74.5728 7.29403 74.462 7.00852 74.2404 6.79261C74.0188 6.5767 73.7305 6.46875 73.3754 6.46875C73.1339 6.46875 72.9109 6.53267 72.7063 6.66051C72.5046 6.78551 72.3413 6.96023 72.2163 7.18466C72.0941 7.40909 72.033 7.66903 72.033 7.96449V12H70.7589ZM83.2692 12.1449C82.8544 12.1449 82.4794 12.0682 82.1442 11.9148C81.8089 11.7585 81.5433 11.5327 81.3473 11.2372C81.1541 10.9418 81.0575 10.5795 81.0575 10.1506C81.0575 9.78125 81.1286 9.47727 81.2706 9.23864C81.4126 9 81.6044 8.81108 81.8459 8.67188C82.0874 8.53267 82.3572 8.42756 82.6555 8.35653C82.9538 8.28551 83.2578 8.23153 83.5675 8.1946C83.9595 8.14915 84.2777 8.11222 84.522 8.08381C84.7663 8.05256 84.9439 8.00284 85.0547 7.93466C85.1655 7.86648 85.2209 7.75568 85.2209 7.60227V7.57244C85.2209 7.20028 85.1158 6.91193 84.9055 6.70739C84.6982 6.50284 84.3885 6.40057 83.9766 6.40057C83.5476 6.40057 83.2095 6.49574 82.9624 6.68608C82.718 6.87358 82.549 7.08239 82.4553 7.3125L81.2578 7.03977C81.3999 6.64205 81.6072 6.32102 81.88 6.0767C82.1555 5.82955 82.4723 5.65057 82.8303 5.53977C83.1882 5.42614 83.5646 5.36932 83.9595 5.36932C84.2209 5.36932 84.4979 5.40057 84.7905 5.46307C85.0859 5.52273 85.3615 5.63352 85.6172 5.79545C85.8757 5.95739 86.0874 6.18892 86.2521 6.49006C86.4169 6.78835 86.4993 7.17614 86.4993 7.65341V12H85.255V11.1051H85.2038C85.1214 11.2699 84.9979 11.4318 84.8331 11.5909C84.6683 11.75 84.4567 11.8821 84.1982 11.9872C83.9396 12.0923 83.63 12.1449 83.2692 12.1449ZM83.5462 11.1222C83.8984 11.1222 84.1996 11.0526 84.4496 10.9134C84.7024 10.7741 84.8942 10.5923 85.0249 10.3679C85.1584 10.1406 85.2251 9.89773 85.2251 9.6392V8.79545C85.1797 8.84091 85.0916 8.88352 84.9609 8.9233C84.8331 8.96023 84.6868 8.9929 84.522 9.02131C84.3572 9.04687 84.1967 9.07102 84.0405 9.09375C83.8842 9.11364 83.7536 9.13068 83.6484 9.14489C83.4013 9.17614 83.1754 9.22869 82.9709 9.30256C82.7692 9.37642 82.6072 9.48295 82.4851 9.62216C82.3658 9.75852 82.3061 9.94034 82.3061 10.1676C82.3061 10.483 82.4226 10.7216 82.6555 10.8835C82.8885 11.0426 83.1854 11.1222 83.5462 11.1222ZM90.9535 12.1321C90.32 12.1321 89.7745 11.9886 89.3171 11.7017C88.8626 11.4119 88.5131 11.0128 88.2688 10.5043C88.0245 9.99574 87.9023 9.41335 87.9023 8.7571C87.9023 8.09233 88.0273 7.50568 88.2773 6.99716C88.5273 6.4858 88.8796 6.08665 89.3342 5.79972C89.7887 5.51278 90.3242 5.36932 90.9407 5.36932C91.4379 5.36932 91.881 5.46165 92.2702 5.64631C92.6594 5.82812 92.9734 6.08381 93.212 6.41335C93.4535 6.7429 93.5969 7.12784 93.6424 7.56818H92.4023C92.3342 7.26136 92.1779 6.99716 91.9336 6.77557C91.6921 6.55398 91.3683 6.44318 90.962 6.44318C90.6069 6.44318 90.2958 6.53693 90.0288 6.72443C89.7646 6.90909 89.5586 7.1733 89.4109 7.51705C89.2631 7.85795 89.1893 8.26136 89.1893 8.72727C89.1893 9.20455 89.2617 9.61648 89.4066 9.96307C89.5515 10.3097 89.756 10.5781 90.0202 10.7685C90.2873 10.9588 90.6012 11.054 90.962 11.054C91.2035 11.054 91.4222 11.0099 91.6183 10.9219C91.8171 10.831 91.9833 10.7017 92.1168 10.5341C92.2532 10.3665 92.3484 10.1648 92.4023 9.92898H93.6424C93.5969 10.3523 93.4592 10.7301 93.229 11.0625C92.9989 11.3949 92.6907 11.6562 92.3043 11.8466C91.9208 12.0369 91.4705 12.1321 90.9535 12.1321ZM97.826 12.1321C97.1811 12.1321 96.6257 11.9943 96.1598 11.7188C95.6967 11.4403 95.3388 11.0497 95.0859 10.5469C94.8359 10.0412 94.7109 9.44886 94.7109 8.76989C94.7109 8.09943 94.8359 7.50852 95.0859 6.99716C95.3388 6.4858 95.6911 6.08665 96.1428 5.79972C96.5973 5.51278 97.1286 5.36932 97.7365 5.36932C98.1058 5.36932 98.4638 5.4304 98.8104 5.55256C99.157 5.67472 99.468 5.86648 99.7436 6.12784C100.019 6.3892 100.237 6.72869 100.396 7.14631C100.555 7.56108 100.634 8.06534 100.634 8.65909V9.1108H95.4311V8.15625H99.3857C99.3857 7.82102 99.3175 7.52415 99.1811 7.26562C99.0447 7.00426 98.853 6.7983 98.6058 6.64773C98.3615 6.49716 98.0746 6.42188 97.745 6.42188C97.3871 6.42188 97.0746 6.50994 96.8075 6.68608C96.5433 6.85937 96.3388 7.08665 96.1939 7.3679C96.0518 7.64631 95.9808 7.94886 95.9808 8.27557V9.02131C95.9808 9.45881 96.0575 9.83097 96.2109 10.1378C96.3672 10.4446 96.5845 10.679 96.8629 10.8409C97.1413 11 97.4666 11.0795 97.8388 11.0795C98.0803 11.0795 98.3004 11.0455 98.4993 10.9773C98.6982 10.9062 98.87 10.8011 99.0149 10.6619C99.1598 10.5227 99.2706 10.3509 99.3473 10.1463L100.553 10.3636C100.457 10.7187 100.283 11.0298 100.033 11.2969C99.7862 11.5611 99.4751 11.767 99.1001 11.9148C98.728 12.0597 98.3033 12.1321 97.826 12.1321Z" fill="#596063" fill-opacity="0.75"/>
<rect y="64" width="268" height="1" fill="#A2ACAF" fill-opacity="0.75"/>
<rect y="16" width="128" height="4" rx="2" fill="#ADE01F"/>
<path d="M140.959 12V3.27273H144.07C144.749 3.27273 145.311 3.39631 145.757 3.64347C146.203 3.89062 146.537 4.22869 146.759 4.65767C146.98 5.08381 147.091 5.56392 147.091 6.09801C147.091 6.63494 146.979 7.1179 146.754 7.54688C146.533 7.97301 146.197 8.31108 145.749 8.56108C145.303 8.80824 144.741 8.93182 144.065 8.93182H141.926V7.81534H143.946C144.375 7.81534 144.723 7.74148 144.99 7.59375C145.257 7.44318 145.453 7.23864 145.578 6.98011C145.703 6.72159 145.766 6.42756 145.766 6.09801C145.766 5.76847 145.703 5.47585 145.578 5.22017C145.453 4.96449 145.256 4.7642 144.986 4.61932C144.719 4.47443 144.366 4.40199 143.929 4.40199H142.276V12H140.959ZM149.806 3.27273V12H148.532V3.27273H149.806ZM153.425 12.1449C153.011 12.1449 152.636 12.0682 152.3 11.9148C151.965 11.7585 151.7 11.5327 151.504 11.2372C151.31 10.9418 151.214 10.5795 151.214 10.1506C151.214 9.78125 151.285 9.47727 151.427 9.23864C151.569 9 151.761 8.81108 152.002 8.67188C152.244 8.53267 152.513 8.42756 152.812 8.35653C153.11 8.28551 153.414 8.23153 153.724 8.1946C154.116 8.14915 154.434 8.11222 154.678 8.08381C154.923 8.05256 155.1 8.00284 155.211 7.93466C155.322 7.86648 155.377 7.75568 155.377 7.60227V7.57244C155.377 7.20028 155.272 6.91193 155.062 6.70739C154.854 6.50284 154.545 6.40057 154.133 6.40057C153.704 6.40057 153.366 6.49574 153.119 6.68608C152.874 6.87358 152.705 7.08239 152.612 7.3125L151.414 7.03977C151.556 6.64205 151.763 6.32102 152.036 6.0767C152.312 5.82955 152.629 5.65057 152.987 5.53977C153.344 5.42614 153.721 5.36932 154.116 5.36932C154.377 5.36932 154.654 5.40057 154.947 5.46307C155.242 5.52273 155.518 5.63352 155.773 5.79545C156.032 5.95739 156.244 6.18892 156.408 6.49006C156.573 6.78835 156.656 7.17614 156.656 7.65341V12H155.411V11.1051H155.36C155.278 11.2699 155.154 11.4318 154.989 11.5909C154.825 11.75 154.613 11.8821 154.354 11.9872C154.096 12.0923 153.786 12.1449 153.425 12.1449ZM153.702 11.1222C154.055 11.1222 154.356 11.0526 154.606 10.9134C154.859 10.7741 155.05 10.5923 155.181 10.3679C155.315 10.1406 155.381 9.89773 155.381 9.6392V8.79545C155.336 8.84091 155.248 8.88352 155.117 8.9233C154.989 8.96023 154.843 8.9929 154.678 9.02131C154.513 9.04687 154.353 9.07102 154.197 9.09375C154.04 9.11364 153.91 9.13068 153.805 9.14489C153.558 9.17614 153.332 9.22869 153.127 9.30256C152.925 9.37642 152.763 9.48295 152.641 9.62216C152.522 9.75852 152.462 9.94034 152.462 10.1676C152.462 10.483 152.579 10.7216 152.812 10.8835C153.045 11.0426 153.342 11.1222 153.702 11.1222ZM161.408 5.45455V6.47727H157.833V5.45455H161.408ZM158.792 3.88636H160.066V10.0781C160.066 10.3253 160.103 10.5114 160.176 10.6364C160.25 10.7585 160.346 10.8423 160.462 10.8878C160.581 10.9304 160.711 10.9517 160.85 10.9517C160.952 10.9517 161.042 10.9446 161.118 10.9304C161.195 10.9162 161.255 10.9048 161.297 10.8963L161.527 11.9489C161.453 11.9773 161.348 12.0057 161.212 12.0341C161.076 12.0653 160.905 12.0824 160.701 12.0852C160.365 12.0909 160.053 12.0312 159.763 11.9062C159.473 11.7812 159.239 11.5881 159.06 11.3267C158.881 11.0653 158.792 10.7372 158.792 10.3423V3.88636ZM165.568 12.1321C164.923 12.1321 164.368 11.9943 163.902 11.7188C163.439 11.4403 163.081 11.0497 162.828 10.5469C162.578 10.0412 162.453 9.44886 162.453 8.76989C162.453 8.09943 162.578 7.50852 162.828 6.99716C163.081 6.4858 163.433 6.08665 163.885 5.79972C164.339 5.51278 164.871 5.36932 165.479 5.36932C165.848 5.36932 166.206 5.4304 166.553 5.55256C166.899 5.67472 167.21 5.86648 167.486 6.12784C167.761 6.3892 167.979 6.72869 168.138 7.14631C168.297 7.56108 168.376 8.06534 168.376 8.65909V9.1108H163.173V8.15625H167.128C167.128 7.82102 167.06 7.52415 166.923 7.26562C166.787 7.00426 166.595 6.7983 166.348 6.64773C166.104 6.49716 165.817 6.42188 165.487 6.42188C165.129 6.42188 164.817 6.50994 164.55 6.68608C164.286 6.85937 164.081 7.08665 163.936 7.3679C163.794 7.64631 163.723 7.94886 163.723 8.27557V9.02131C163.723 9.45881 163.8 9.83097 163.953 10.1378C164.109 10.4446 164.327 10.679 164.605 10.8409C164.884 11 165.209 11.0795 165.581 11.0795C165.822 11.0795 166.043 11.0455 166.241 10.9773C166.44 10.9062 166.612 10.8011 166.757 10.6619C166.902 10.5227 167.013 10.3509 167.089 10.1463L168.295 10.3636C168.199 10.7187 168.026 11.0298 167.776 11.2969C167.528 11.5611 167.217 11.767 166.842 11.9148C166.47 12.0597 166.045 12.1321 165.568 12.1321ZM169.892 12V3.27273H171.167V6.51562H171.243C171.317 6.37926 171.424 6.22159 171.563 6.04261C171.702 5.86364 171.895 5.70739 172.142 5.57386C172.39 5.4375 172.716 5.36932 173.123 5.36932C173.651 5.36932 174.123 5.50284 174.537 5.76989C174.952 6.03693 175.277 6.42187 175.513 6.92472C175.752 7.42756 175.871 8.03267 175.871 8.74006C175.871 9.44744 175.753 10.054 175.517 10.5597C175.282 11.0625 174.958 11.4503 174.546 11.723C174.134 11.9929 173.664 12.1278 173.135 12.1278C172.738 12.1278 172.412 12.0611 172.159 11.9276C171.909 11.794 171.713 11.6378 171.571 11.4588C171.429 11.2798 171.32 11.1207 171.243 10.9815H171.137V12H169.892ZM171.141 8.72727C171.141 9.1875 171.208 9.59091 171.341 9.9375C171.475 10.2841 171.668 10.5554 171.921 10.7514C172.174 10.9446 172.483 11.0412 172.85 11.0412C173.23 11.0412 173.549 10.9403 173.804 10.7386C174.06 10.5341 174.253 10.2571 174.384 9.90767C174.517 9.55824 174.584 9.16477 174.584 8.72727C174.584 8.29545 174.519 7.90767 174.388 7.56392C174.26 7.22017 174.067 6.94886 173.809 6.75C173.553 6.55114 173.233 6.4517 172.85 6.4517C172.48 6.4517 172.168 6.54687 171.912 6.73722C171.659 6.92756 171.468 7.19318 171.337 7.53409C171.206 7.875 171.141 8.27273 171.141 8.72727ZM178.576 8.11364V12H177.302V5.45455H178.525V6.51989H178.606C178.756 6.1733 178.992 5.89489 179.313 5.68466C179.637 5.47443 180.045 5.36932 180.536 5.36932C180.982 5.36932 181.373 5.46307 181.708 5.65057C182.043 5.83523 182.303 6.1108 182.488 6.47727C182.673 6.84375 182.765 7.29687 182.765 7.83665V12H181.491V7.99006C181.491 7.51562 181.367 7.14489 181.12 6.87784C180.873 6.60795 180.533 6.47301 180.102 6.47301C179.806 6.47301 179.543 6.53693 179.313 6.66477C179.086 6.79261 178.906 6.98011 178.772 7.22727C178.641 7.47159 178.576 7.76705 178.576 8.11364ZM184.474 12V5.45455H185.748V12H184.474ZM184.593 4.58097L185.59 2.61648H186.933L185.612 4.58097H184.593ZM190.638 12V5.45455H191.861V6.51989H191.942C192.078 6.15909 192.301 5.87784 192.611 5.67614C192.92 5.47159 193.291 5.36932 193.723 5.36932C194.161 5.36932 194.527 5.47159 194.822 5.67614C195.121 5.88068 195.341 6.16193 195.483 6.51989H195.551C195.707 6.17045 195.956 5.89205 196.297 5.68466C196.638 5.47443 197.044 5.36932 197.516 5.36932C198.109 5.36932 198.594 5.5554 198.969 5.92756C199.347 6.29972 199.536 6.8608 199.536 7.6108V12H198.261V7.73011C198.261 7.28693 198.141 6.96591 197.899 6.76705C197.658 6.56818 197.369 6.46875 197.034 6.46875C196.619 6.46875 196.297 6.59659 196.067 6.85227C195.837 7.10511 195.722 7.4304 195.722 7.82812V12H194.452V7.64915C194.452 7.29403 194.341 7.00852 194.119 6.79261C193.898 6.5767 193.609 6.46875 193.254 6.46875C193.013 6.46875 192.79 6.53267 192.585 6.66051C192.384 6.78551 192.22 6.96023 192.095 7.18466C191.973 7.40909 191.912 7.66903 191.912 7.96449V12H190.638ZM204.064 12.1321C203.419 12.1321 202.864 11.9943 202.398 11.7188C201.935 11.4403 201.577 11.0497 201.324 10.5469C201.074 10.0412 200.949 9.44886 200.949 8.76989C200.949 8.09943 201.074 7.50852 201.324 6.99716C201.577 6.4858 201.929 6.08665 202.381 5.79972C202.836 5.51278 203.367 5.36932 203.975 5.36932C204.344 5.36932 204.702 5.4304 205.049 5.55256C205.395 5.67472 205.706 5.86648 205.982 6.12784C206.257 6.3892 206.475 6.72869 206.634 7.14631C206.793 7.56108 206.873 8.06534 206.873 8.65909V9.1108H201.669V8.15625H205.624C205.624 7.82102 205.556 7.52415 205.419 7.26562C205.283 7.00426 205.091 6.7983 204.844 6.64773C204.6 6.49716 204.313 6.42188 203.983 6.42188C203.625 6.42188 203.313 6.50994 203.046 6.68608C202.782 6.85937 202.577 7.08665 202.432 7.3679C202.29 7.64631 202.219 7.94886 202.219 8.27557V9.02131C202.219 9.45881 202.296 9.83097 202.449 10.1378C202.605 10.4446 202.823 10.679 203.101 10.8409C203.38 11 203.705 11.0795 204.077 11.0795C204.319 11.0795 204.539 11.0455 204.738 10.9773C204.936 10.9062 205.108 10.8011 205.253 10.6619C205.398 10.5227 205.509 10.3509 205.586 10.1463L206.792 10.3636C206.695 10.7187 206.522 11.0298 206.272 11.2969C206.025 11.5611 205.713 11.767 205.338 11.9148C204.966 12.0597 204.542 12.1321 204.064 12.1321ZM211.342 5.45455V6.47727H207.766V5.45455H211.342ZM208.725 3.88636H209.999V10.0781C209.999 10.3253 210.036 10.5114 210.11 10.6364C210.184 10.7585 210.279 10.8423 210.396 10.8878C210.515 10.9304 210.644 10.9517 210.783 10.9517C210.886 10.9517 210.975 10.9446 211.052 10.9304C211.129 10.9162 211.188 10.9048 211.231 10.8963L211.461 11.9489C211.387 11.9773 211.282 12.0057 211.146 12.0341C211.009 12.0653 210.839 12.0824 210.634 12.0852C210.299 12.0909 209.987 12.0312 209.697 11.9062C209.407 11.7812 209.173 11.5881 208.994 11.3267C208.815 11.0653 208.725 10.7372 208.725 10.3423V3.88636ZM215.438 12.1321C214.824 12.1321 214.289 11.9915 213.831 11.7102C213.374 11.429 213.019 11.0355 212.766 10.5298C212.513 10.0241 212.387 9.43324 212.387 8.7571C212.387 8.07812 212.513 7.48437 212.766 6.97585C213.019 6.46733 213.374 6.07244 213.831 5.79119C214.289 5.50994 214.824 5.36932 215.438 5.36932C216.051 5.36932 216.587 5.50994 217.044 5.79119C217.502 6.07244 217.857 6.46733 218.11 6.97585C218.363 7.48437 218.489 8.07812 218.489 8.7571C218.489 9.43324 218.363 10.0241 218.11 10.5298C217.857 11.0355 217.502 11.429 217.044 11.7102C216.587 11.9915 216.051 12.1321 215.438 12.1321ZM215.442 11.0625C215.84 11.0625 216.169 10.9574 216.431 10.7472C216.692 10.5369 216.885 10.2571 217.01 9.90767C217.138 9.55824 217.202 9.1733 217.202 8.75284C217.202 8.33523 217.138 7.9517 217.01 7.60227C216.885 7.25 216.692 6.96733 216.431 6.75426C216.169 6.54119 215.84 6.43466 215.442 6.43466C215.042 6.43466 214.709 6.54119 214.445 6.75426C214.184 6.96733 213.989 7.25 213.861 7.60227C213.736 7.9517 213.674 8.33523 213.674 8.75284C213.674 9.1733 213.736 9.55824 213.861 9.90767C213.989 10.2571 214.184 10.5369 214.445 10.7472C214.709 10.9574 215.042 11.0625 215.442 11.0625ZM222.362 12.1278C221.833 12.1278 221.362 11.9929 220.947 11.723C220.535 11.4503 220.211 11.0625 219.975 10.5597C219.742 10.054 219.626 9.44744 219.626 8.74006C219.626 8.03267 219.744 7.42756 219.979 6.92472C220.218 6.42187 220.545 6.03693 220.96 5.76989C221.374 5.50284 221.844 5.36932 222.37 5.36932C222.776 5.36932 223.103 5.4375 223.35 5.57386C223.6 5.70739 223.793 5.86364 223.93 6.04261C224.069 6.22159 224.177 6.37926 224.254 6.51562H224.33V3.27273H225.604V12H224.36V10.9815H224.254C224.177 11.1207 224.066 11.2798 223.921 11.4588C223.779 11.6378 223.583 11.794 223.333 11.9276C223.083 12.0611 222.759 12.1278 222.362 12.1278ZM222.643 11.0412C223.009 11.0412 223.319 10.9446 223.572 10.7514C223.827 10.5554 224.021 10.2841 224.151 9.9375C224.285 9.59091 224.352 9.1875 224.352 8.72727C224.352 8.27273 224.286 7.875 224.156 7.53409C224.025 7.19318 223.833 6.92756 223.58 6.73722C223.327 6.54687 223.015 6.4517 222.643 6.4517C222.259 6.4517 221.94 6.55114 221.684 6.75C221.428 6.94886 221.235 7.22017 221.104 7.56392C220.977 7.90767 220.913 8.29545 220.913 8.72727C220.913 9.16477 220.978 9.55824 221.109 9.90767C221.239 10.2571 221.433 10.5341 221.688 10.7386C221.947 10.9403 222.265 11.0412 222.643 11.0412ZM229.328 12.1449C228.913 12.1449 228.538 12.0682 228.203 11.9148C227.868 11.7585 227.602 11.5327 227.406 11.2372C227.213 10.9418 227.116 10.5795 227.116 10.1506C227.116 9.78125 227.187 9.47727 227.329 9.23864C227.471 9 227.663 8.81108 227.904 8.67188C228.146 8.53267 228.416 8.42756 228.714 8.35653C229.012 8.28551 229.316 8.23153 229.626 8.1946C230.018 8.14915 230.336 8.11222 230.581 8.08381C230.825 8.05256 231.002 8.00284 231.113 7.93466C231.224 7.86648 231.279 7.75568 231.279 7.60227V7.57244C231.279 7.20028 231.174 6.91193 230.964 6.70739C230.757 6.50284 230.447 6.40057 230.035 6.40057C229.606 6.40057 229.268 6.49574 229.021 6.68608C228.777 6.87358 228.608 7.08239 228.514 7.3125L227.316 7.03977C227.458 6.64205 227.666 6.32102 227.939 6.0767C228.214 5.82955 228.531 5.65057 228.889 5.53977C229.247 5.42614 229.623 5.36932 230.018 5.36932C230.279 5.36932 230.556 5.40057 230.849 5.46307C231.145 5.52273 231.42 5.63352 231.676 5.79545C231.934 5.95739 232.146 6.18892 232.311 6.49006C232.475 6.78835 232.558 7.17614 232.558 7.65341V12H231.314V11.1051H231.262C231.18 11.2699 231.056 11.4318 230.892 11.5909C230.727 11.75 230.515 11.8821 230.257 11.9872C229.998 12.0923 229.689 12.1449 229.328 12.1449ZM229.605 11.1222C229.957 11.1222 230.258 11.0526 230.508 10.9134C230.761 10.7741 230.953 10.5923 231.083 10.3679C231.217 10.1406 231.284 9.89773 231.284 9.6392V8.79545C231.238 8.84091 231.15 8.88352 231.02 8.9233C230.892 8.96023 230.745 8.9929 230.581 9.02131C230.416 9.04687 230.255 9.07102 230.099 9.09375C229.943 9.11364 229.812 9.13068 229.707 9.14489C229.46 9.17614 229.234 9.22869 229.029 9.30256C228.828 9.37642 228.666 9.48295 228.544 9.62216C228.424 9.75852 228.365 9.94034 228.365 10.1676C228.365 10.483 228.481 10.7216 228.714 10.8835C228.947 11.0426 229.244 11.1222 229.605 11.1222Z" fill="#596063" fill-opacity="0.75"/>
<rect x="140" y="16" width="128" height="4" rx="2" fill="#EBF2F4"/>
</svg>
