<svg width="268" height="52" viewBox="0 0 268 52" fill="none" xmlns="http://www.w3.org/2000/svg">
<rect y="16" width="268" height="36" rx="2" fill="#EBF2F4"/>
<path d="M17.8636 28.3636H19.2727V36.6818C19.2727 37.4242 19.1364 38.0549 18.8636 38.5739C18.5909 39.0928 18.2064 39.4867 17.7102 39.7557C17.214 40.0246 16.6288 40.1591 15.9545 40.1591C15.3182 40.1591 14.7519 40.0436 14.2557 39.8125C13.7595 39.5777 13.3693 39.2443 13.0852 38.8125C12.8011 38.3807 12.6591 37.8674 12.6591 37.2727H14.0455C14.0455 37.6023 14.1269 37.8902 14.2898 38.1364C14.4564 38.3788 14.6837 38.5682 14.9716 38.7045C15.2595 38.8409 15.5871 38.9091 15.9545 38.9091C16.3598 38.9091 16.7045 38.8239 16.9886 38.6534C17.2727 38.483 17.4886 38.233 17.6364 37.9034C17.7879 37.5701 17.8636 37.1629 17.8636 36.6818V28.3636ZM21.9148 40V31.2727H23.2557V40H21.9148ZM22.5966 29.8182C22.3352 29.8182 22.1098 29.7292 21.9205 29.5511C21.7348 29.3731 21.642 29.1591 21.642 28.9091C21.642 28.6591 21.7348 28.4451 21.9205 28.267C22.1098 28.089 22.3352 28 22.5966 28C22.858 28 23.0814 28.089 23.267 28.267C23.4564 28.4451 23.5511 28.6591 23.5511 28.9091C23.5511 29.1591 23.4564 29.3731 23.267 29.5511C23.0814 29.7292 22.858 29.8182 22.5966 29.8182ZM25.7116 40V31.2727H27.0071V32.5909H27.098C27.2571 32.1591 27.545 31.8087 27.9616 31.5398C28.3783 31.2708 28.848 31.1364 29.3707 31.1364C29.4692 31.1364 29.5923 31.1383 29.7401 31.142C29.8878 31.1458 29.9995 31.1515 30.0753 31.1591V32.5227C30.0298 32.5114 29.9257 32.4943 29.7628 32.4716C29.6037 32.4451 29.4351 32.4318 29.2571 32.4318C28.8329 32.4318 28.4541 32.5208 28.1207 32.6989C27.7912 32.8731 27.5298 33.1155 27.3366 33.4261C27.1473 33.733 27.0526 34.0833 27.0526 34.4773V40H25.7116ZM26.598 27.7727L27.7798 29.3636L28.9616 27.7727H30.2344V27.8636L28.3935 30.2273H27.1662L25.3253 27.8636V27.7727H26.598ZM31.6648 40V31.2727H33.0057V40H31.6648ZM31.733 30.0909L33.1193 27.4545H34.6875L32.9148 30.0909H31.733ZM46.5071 31.2727C46.4389 30.697 46.1624 30.25 45.6776 29.9318C45.1927 29.6136 44.598 29.4545 43.8935 29.4545C43.3783 29.4545 42.9276 29.5379 42.5412 29.7045C42.1586 29.8712 41.8594 30.1004 41.6435 30.392C41.4313 30.6837 41.3253 31.0152 41.3253 31.3864C41.3253 31.697 41.3991 31.964 41.5469 32.1875C41.6984 32.4072 41.8916 32.5909 42.1264 32.7386C42.3613 32.8826 42.6075 33.0019 42.8651 33.0966C43.1226 33.1875 43.3594 33.2614 43.5753 33.3182L44.7571 33.6364C45.0601 33.7159 45.3973 33.8258 45.7685 33.9659C46.1435 34.1061 46.5014 34.2973 46.8423 34.5398C47.187 34.7784 47.4711 35.0852 47.6946 35.4602C47.9181 35.8352 48.0298 36.2955 48.0298 36.8409C48.0298 37.4697 47.8651 38.0379 47.5355 38.5455C47.2098 39.053 46.7325 39.4564 46.1037 39.7557C45.4787 40.0549 44.7192 40.2045 43.8253 40.2045C42.992 40.2045 42.2704 40.0701 41.6605 39.8011C41.0545 39.5322 40.5772 39.1572 40.2287 38.6761C39.884 38.1951 39.6889 37.6364 39.6435 37H41.098C41.1359 37.4394 41.2836 37.803 41.5412 38.0909C41.8026 38.375 42.1321 38.5871 42.5298 38.7273C42.9313 38.8636 43.3632 38.9318 43.8253 38.9318C44.3632 38.9318 44.8461 38.8447 45.2741 38.6705C45.7022 38.4924 46.0412 38.2462 46.2912 37.9318C46.5412 37.6136 46.6662 37.2424 46.6662 36.8182C46.6662 36.4318 46.5582 36.1174 46.3423 35.875C46.1264 35.6326 45.8423 35.4356 45.4901 35.2841C45.1378 35.1326 44.7571 35 44.348 34.8864L42.9162 34.4773C42.0071 34.2159 41.2874 33.8428 40.7571 33.358C40.2268 32.8731 39.9616 32.2386 39.9616 31.4545C39.9616 30.803 40.1378 30.2348 40.4901 29.75C40.8461 29.2614 41.3234 28.8826 41.9219 28.6136C42.5241 28.3409 43.1965 28.2045 43.9389 28.2045C44.6889 28.2045 45.3556 28.339 45.9389 28.608C46.5223 28.8731 46.9844 29.2367 47.3253 29.6989C47.67 30.161 47.8518 30.6856 47.8707 31.2727H46.5071ZM52.733 40.2045C52.1799 40.2045 51.678 40.1004 51.2273 39.892C50.7765 39.6799 50.4186 39.375 50.1534 38.9773C49.8883 38.5758 49.7557 38.0909 49.7557 37.5227C49.7557 37.0227 49.8542 36.6174 50.0511 36.3068C50.2481 35.9924 50.5114 35.7462 50.8409 35.5682C51.1705 35.3902 51.5341 35.2576 51.9318 35.1705C52.3333 35.0795 52.7367 35.0076 53.142 34.9545C53.6723 34.8864 54.1023 34.8352 54.4318 34.8011C54.7652 34.7633 55.0076 34.7008 55.1591 34.6136C55.3144 34.5265 55.392 34.375 55.392 34.1591V34.1136C55.392 33.553 55.2386 33.1174 54.9318 32.8068C54.6288 32.4962 54.1686 32.3409 53.5511 32.3409C52.911 32.3409 52.4091 32.4811 52.0455 32.7614C51.6818 33.0417 51.4261 33.3409 51.2784 33.6591L50.0057 33.2045C50.233 32.6742 50.536 32.2614 50.9148 31.9659C51.2973 31.6667 51.714 31.4583 52.1648 31.3409C52.6193 31.2197 53.0663 31.1591 53.5057 31.1591C53.786 31.1591 54.108 31.1932 54.4716 31.2614C54.839 31.3258 55.1932 31.4602 55.5341 31.6648C55.8788 31.8693 56.1648 32.178 56.392 32.5909C56.6193 33.0038 56.733 33.5568 56.733 34.25V40H55.392V38.8182H55.3239C55.233 39.0076 55.0814 39.2102 54.8693 39.4261C54.6572 39.642 54.375 39.8258 54.0227 39.9773C53.6705 40.1288 53.2405 40.2045 52.733 40.2045ZM52.9375 39C53.4678 39 53.9148 38.8958 54.2784 38.6875C54.6458 38.4792 54.9223 38.2102 55.108 37.8807C55.2973 37.5511 55.392 37.2045 55.392 36.8409V35.6136C55.3352 35.6818 55.2102 35.7443 55.017 35.8011C54.8277 35.8542 54.608 35.9015 54.358 35.9432C54.1117 35.9811 53.8712 36.0152 53.6364 36.0455C53.4053 36.072 53.2178 36.0947 53.0739 36.1136C52.7254 36.1591 52.3996 36.233 52.0966 36.3352C51.7973 36.4337 51.5549 36.5833 51.3693 36.7841C51.1875 36.9811 51.0966 37.25 51.0966 37.5909C51.0966 38.0568 51.2689 38.4091 51.6136 38.6477C51.9621 38.8826 52.4034 39 52.9375 39ZM62.9759 31.2727V32.4091H58.4531V31.2727H62.9759ZM59.7713 29.1818H61.1122V37.5C61.1122 37.8788 61.1671 38.1629 61.277 38.3523C61.3906 38.5379 61.5346 38.6629 61.7088 38.7273C61.8868 38.7879 62.0743 38.8182 62.2713 38.8182C62.419 38.8182 62.5402 38.8106 62.6349 38.7955C62.7296 38.7765 62.8054 38.7614 62.8622 38.75L63.1349 39.9545C63.044 39.9886 62.9171 40.0227 62.7543 40.0568C62.5914 40.0947 62.3849 40.1136 62.1349 40.1136C61.7562 40.1136 61.3849 40.0322 61.0213 39.8693C60.6615 39.7064 60.3622 39.4583 60.1236 39.125C59.8887 38.7917 59.7713 38.3712 59.7713 37.8636V29.1818ZM68.4446 40.1818C67.6567 40.1818 66.9654 39.9943 66.3707 39.6193C65.7798 39.2443 65.3177 38.7197 64.9844 38.0455C64.6548 37.3712 64.4901 36.5833 64.4901 35.6818C64.4901 34.7727 64.6548 33.9792 64.9844 33.3011C65.3177 32.6231 65.7798 32.0966 66.3707 31.7216C66.9654 31.3466 67.6567 31.1591 68.4446 31.1591C69.2325 31.1591 69.9219 31.3466 70.5128 31.7216C71.1075 32.0966 71.5696 32.6231 71.8991 33.3011C72.2325 33.9792 72.3991 34.7727 72.3991 35.6818C72.3991 36.5833 72.2325 37.3712 71.8991 38.0455C71.5696 38.7197 71.1075 39.2443 70.5128 39.6193C69.9219 39.9943 69.2325 40.1818 68.4446 40.1818ZM68.4446 38.9773C69.0431 38.9773 69.5355 38.8239 69.9219 38.517C70.3082 38.2102 70.5942 37.8068 70.7798 37.3068C70.9654 36.8068 71.0582 36.2652 71.0582 35.6818C71.0582 35.0985 70.9654 34.5549 70.7798 34.0511C70.5942 33.5473 70.3082 33.1402 69.9219 32.8295C69.5355 32.5189 69.0431 32.3636 68.4446 32.3636C67.8461 32.3636 67.3537 32.5189 66.9673 32.8295C66.581 33.1402 66.295 33.5473 66.1094 34.0511C65.9238 34.5549 65.831 35.0985 65.831 35.6818C65.831 36.2652 65.9238 36.8068 66.1094 37.3068C66.295 37.8068 66.581 38.2102 66.9673 38.517C67.3537 38.8239 67.8461 38.9773 68.4446 38.9773ZM74.446 40V31.2727H75.7415V32.5909H75.8324C75.9915 32.1591 76.2794 31.8087 76.696 31.5398C77.1127 31.2708 77.5824 31.1364 78.1051 31.1364C78.2036 31.1364 78.3267 31.1383 78.4744 31.142C78.6222 31.1458 78.7339 31.1515 78.8097 31.1591V32.5227C78.7642 32.5114 78.66 32.4943 78.4972 32.4716C78.3381 32.4451 78.1695 32.4318 77.9915 32.4318C77.5672 32.4318 77.1884 32.5208 76.8551 32.6989C76.5256 32.8731 76.2642 33.1155 76.071 33.4261C75.8816 33.733 75.7869 34.0833 75.7869 34.4773V40H74.446ZM82.9673 40.2045C82.4143 40.2045 81.9124 40.1004 81.4616 39.892C81.0109 39.6799 80.6529 39.375 80.3878 38.9773C80.1226 38.5758 79.9901 38.0909 79.9901 37.5227C79.9901 37.0227 80.0885 36.6174 80.2855 36.3068C80.4825 35.9924 80.7457 35.7462 81.0753 35.5682C81.4048 35.3902 81.7685 35.2576 82.1662 35.1705C82.5677 35.0795 82.9711 35.0076 83.3764 34.9545C83.9067 34.8864 84.3366 34.8352 84.6662 34.8011C84.9995 34.7633 85.242 34.7008 85.3935 34.6136C85.5488 34.5265 85.6264 34.375 85.6264 34.1591V34.1136C85.6264 33.553 85.473 33.1174 85.1662 32.8068C84.8632 32.4962 84.4029 32.3409 83.7855 32.3409C83.1454 32.3409 82.6435 32.4811 82.2798 32.7614C81.9162 33.0417 81.6605 33.3409 81.5128 33.6591L80.2401 33.2045C80.4673 32.6742 80.7704 32.2614 81.1491 31.9659C81.5317 31.6667 81.9484 31.4583 82.3991 31.3409C82.8537 31.2197 83.3007 31.1591 83.7401 31.1591C84.0204 31.1591 84.3423 31.1932 84.706 31.2614C85.0734 31.3258 85.4276 31.4602 85.7685 31.6648C86.1132 31.8693 86.3991 32.178 86.6264 32.5909C86.8537 33.0038 86.9673 33.5568 86.9673 34.25V40H85.6264V38.8182H85.5582C85.4673 39.0076 85.3158 39.2102 85.1037 39.4261C84.8916 39.642 84.6094 39.8258 84.2571 39.9773C83.9048 40.1288 83.4749 40.2045 82.9673 40.2045ZM83.1719 39C83.7022 39 84.1491 38.8958 84.5128 38.6875C84.8802 38.4792 85.1567 38.2102 85.3423 37.8807C85.5317 37.5511 85.6264 37.2045 85.6264 36.8409V35.6136C85.5696 35.6818 85.4446 35.7443 85.2514 35.8011C85.062 35.8542 84.8423 35.9015 84.5923 35.9432C84.3461 35.9811 84.1056 36.0152 83.8707 36.0455C83.6397 36.072 83.4522 36.0947 83.3082 36.1136C82.9598 36.1591 82.634 36.233 82.331 36.3352C82.0317 36.4337 81.7893 36.5833 81.6037 36.7841C81.4219 36.9811 81.331 37.25 81.331 37.5909C81.331 38.0568 81.5033 38.4091 81.848 38.6477C82.1965 38.8826 82.6378 39 83.1719 39Z" fill="#2E2F30"/>
<path d="M4.30398 1.27273H5.87216V7.40909C5.86932 7.97159 5.75 8.45597 5.5142 8.86222C5.27841 9.26562 4.94886 9.5767 4.52557 9.79545C4.10511 10.0114 3.61506 10.1193 3.0554 10.1193C2.54403 10.1193 2.08381 10.0284 1.67472 9.84659C1.26847 9.66193 0.946023 9.3892 0.707386 9.02841C0.46875 8.66761 0.349432 8.21875 0.349432 7.68182H1.92188C1.92472 7.91761 1.97585 8.12074 2.07528 8.29119C2.17756 8.46165 2.31818 8.59233 2.49716 8.68324C2.67614 8.77415 2.8821 8.8196 3.11506 8.8196C3.3679 8.8196 3.58239 8.76705 3.75852 8.66193C3.93466 8.55398 4.06818 8.39489 4.15909 8.18466C4.25284 7.97443 4.30114 7.71591 4.30398 7.40909V1.27273ZM7.51918 10V3.45455H8.99361V4.56676H9.07031C9.20668 4.19176 9.43253 3.89915 9.74787 3.68892C10.0632 3.47585 10.4396 3.36932 10.8771 3.36932C11.3203 3.36932 11.6939 3.47727 11.9979 3.69318C12.3047 3.90625 12.5206 4.19744 12.6456 4.56676H12.7138C12.8587 4.20312 13.103 3.91335 13.4467 3.69744C13.7933 3.47869 14.2038 3.36932 14.6783 3.36932C15.2805 3.36932 15.772 3.55966 16.1527 3.94034C16.5334 4.32102 16.7237 4.87642 16.7237 5.60653V10H15.1768V5.84517C15.1768 5.43892 15.0689 5.14205 14.853 4.95455C14.6371 4.7642 14.3729 4.66903 14.0604 4.66903C13.6882 4.66903 13.397 4.78551 13.1868 5.01847C12.9794 5.24858 12.8757 5.5483 12.8757 5.91761V10H11.3629V5.78125C11.3629 5.44318 11.2607 5.1733 11.0561 4.97159C10.8544 4.76989 10.5902 4.66903 10.2635 4.66903C10.0419 4.66903 9.8402 4.72585 9.65838 4.83949C9.47656 4.95028 9.33168 5.10795 9.22372 5.3125C9.11577 5.5142 9.06179 5.75 9.06179 6.01989V10H7.51918ZM21.1864 10.1278C20.5302 10.1278 19.9634 9.99148 19.4862 9.71875C19.0117 9.44318 18.6467 9.05398 18.391 8.55114C18.1353 8.04545 18.0075 7.45028 18.0075 6.76562C18.0075 6.09233 18.1353 5.50142 18.391 4.9929C18.6495 4.48153 19.0103 4.08381 19.4734 3.79972C19.9364 3.51278 20.4805 3.36932 21.1055 3.36932C21.5089 3.36932 21.8896 3.43466 22.2475 3.56534C22.6083 3.69318 22.9265 3.89205 23.2021 4.16193C23.4805 4.43182 23.6992 4.77557 23.8583 5.19318C24.0174 5.60795 24.0969 6.10227 24.0969 6.67614V7.14915H18.7319V6.10938H22.6183C22.6154 5.81392 22.5515 5.55114 22.4265 5.32102C22.3015 5.08807 22.1268 4.90483 21.9023 4.77131C21.6808 4.63778 21.4222 4.57102 21.1268 4.57102C20.8114 4.57102 20.5344 4.64773 20.2958 4.80114C20.0572 4.9517 19.8711 5.15057 19.7376 5.39773C19.6069 5.64205 19.5401 5.91051 19.5373 6.20312V7.1108C19.5373 7.49148 19.6069 7.81818 19.7461 8.09091C19.8853 8.3608 20.0799 8.56818 20.3299 8.71307C20.5799 8.85511 20.8725 8.92614 21.2077 8.92614C21.4322 8.92614 21.6353 8.89489 21.8171 8.83239C21.9989 8.76705 22.1566 8.67188 22.2901 8.54688C22.4237 8.42188 22.5245 8.26705 22.5927 8.08239L24.033 8.24432C23.9421 8.625 23.7688 8.95739 23.5131 9.24148C23.2603 9.52273 22.9364 9.74148 22.5415 9.89773C22.1467 10.0511 21.695 10.1278 21.1864 10.1278ZM20.4705 2.59375L21.4251 0.646307H22.9336L21.6254 2.59375H20.4705ZM26.9446 6.16477V10H25.402V3.45455H26.8764V4.56676H26.9531C27.1037 4.20028 27.3438 3.90909 27.6733 3.69318C28.0057 3.47727 28.4162 3.36932 28.9048 3.36932C29.3565 3.36932 29.75 3.46591 30.0852 3.65909C30.4233 3.85227 30.6847 4.1321 30.8693 4.49858C31.0568 4.86506 31.1491 5.30966 31.1463 5.83239V10H29.6037V6.07102C29.6037 5.63352 29.4901 5.29119 29.2628 5.04403C29.0384 4.79687 28.7273 4.6733 28.3295 4.6733C28.0597 4.6733 27.8196 4.73295 27.6094 4.85227C27.402 4.96875 27.2386 5.13778 27.1193 5.35938C27.0028 5.58097 26.9446 5.84943 26.9446 6.16477ZM35.5696 10.1278C34.9304 10.1278 34.3764 9.98722 33.9077 9.70597C33.4389 9.42472 33.0753 9.03125 32.8168 8.52557C32.5611 8.01989 32.4332 7.42898 32.4332 6.75284C32.4332 6.0767 32.5611 5.48437 32.8168 4.97585C33.0753 4.46733 33.4389 4.07244 33.9077 3.79119C34.3764 3.50994 34.9304 3.36932 35.5696 3.36932C36.2088 3.36932 36.7628 3.50994 37.2315 3.79119C37.7003 4.07244 38.0625 4.46733 38.3182 4.97585C38.5767 5.48437 38.706 6.0767 38.706 6.75284C38.706 7.42898 38.5767 8.01989 38.3182 8.52557C38.0625 9.03125 37.7003 9.42472 37.2315 9.70597C36.7628 9.98722 36.2088 10.1278 35.5696 10.1278ZM35.5781 8.89205C35.9247 8.89205 36.2145 8.79687 36.4474 8.60653C36.6804 8.41335 36.8537 8.15483 36.9673 7.83097C37.0838 7.5071 37.142 7.14631 37.142 6.74858C37.142 6.34801 37.0838 5.9858 36.9673 5.66193C36.8537 5.33523 36.6804 5.07528 36.4474 4.8821C36.2145 4.68892 35.9247 4.59233 35.5781 4.59233C35.223 4.59233 34.9276 4.68892 34.6918 4.8821C34.4588 5.07528 34.2841 5.33523 34.1676 5.66193C34.054 5.9858 33.9972 6.34801 33.9972 6.74858C33.9972 7.14631 34.054 7.5071 34.1676 7.83097C34.2841 8.15483 34.4588 8.41335 34.6918 8.60653C34.9276 8.79687 35.223 8.89205 35.5781 8.89205ZM44.8754 10.1321C44.4606 10.1321 44.087 10.0582 43.7546 9.91051C43.4251 9.75994 43.1637 9.53835 42.9705 9.24574C42.7802 8.95312 42.685 8.59233 42.685 8.16335C42.685 7.79403 42.7532 7.48864 42.8896 7.24716C43.0259 7.00568 43.212 6.8125 43.4478 6.66761C43.6836 6.52273 43.9492 6.41335 44.2447 6.33949C44.543 6.26278 44.8512 6.20739 45.1694 6.1733C45.5529 6.13352 45.864 6.09801 46.1026 6.06676C46.3413 6.03267 46.5146 5.98153 46.6225 5.91335C46.7333 5.84233 46.7887 5.73295 46.7887 5.58523V5.55966C46.7887 5.23864 46.6935 4.99006 46.5032 4.81392C46.3129 4.63778 46.0387 4.54972 45.6808 4.54972C45.3029 4.54972 45.0032 4.6321 44.7816 4.79688C44.5629 4.96165 44.4151 5.15625 44.3384 5.38068L42.8981 5.17614C43.0117 4.77841 43.1992 4.44602 43.4606 4.17898C43.7219 3.90909 44.0415 3.70739 44.4194 3.57386C44.7972 3.4375 45.2148 3.36932 45.6722 3.36932C45.9876 3.36932 46.3015 3.40625 46.614 3.48011C46.9265 3.55398 47.212 3.67614 47.4705 3.84659C47.729 4.0142 47.9364 4.2429 48.0927 4.53267C48.2518 4.82244 48.3313 5.18466 48.3313 5.61932V10H46.8484V9.10085H46.7972C46.7035 9.28267 46.5714 9.45312 46.4009 9.61222C46.2333 9.76847 46.0217 9.89489 45.766 9.99148C45.5131 10.0852 45.2163 10.1321 44.8754 10.1321ZM45.2759 8.99858C45.5856 8.99858 45.854 8.9375 46.0813 8.81534C46.3086 8.69034 46.4833 8.52557 46.6055 8.32102C46.7305 8.11648 46.793 7.89347 46.793 7.65199V6.88068C46.7447 6.92045 46.6623 6.95739 46.5458 6.99148C46.4322 7.02557 46.3043 7.0554 46.1623 7.08097C46.0202 7.10653 45.8796 7.12926 45.7404 7.14915C45.6012 7.16903 45.4805 7.18608 45.3782 7.20028C45.1481 7.23153 44.9421 7.28267 44.7603 7.35369C44.5785 7.42472 44.435 7.52415 44.3299 7.65199C44.2248 7.77699 44.1722 7.93892 44.1722 8.13778C44.1722 8.42188 44.2759 8.63636 44.4833 8.78125C44.6907 8.92614 44.9549 8.99858 45.2759 8.99858ZM52.859 12.4545V3.45455H54.3761V4.53693H54.4656C54.5451 4.37784 54.6573 4.20881 54.8022 4.02983C54.9471 3.84801 55.1431 3.69318 55.3903 3.56534C55.6374 3.43466 55.9528 3.36932 56.3363 3.36932C56.842 3.36932 57.2979 3.49858 57.7042 3.7571C58.1133 4.01278 58.4371 4.39205 58.6758 4.89489C58.9173 5.39489 59.038 6.00852 59.038 6.7358C59.038 7.45455 58.9201 8.06534 58.6843 8.56818C58.4485 9.07102 58.1275 9.45455 57.7212 9.71875C57.315 9.98295 56.8548 10.1151 56.3406 10.1151C55.9656 10.1151 55.6545 10.0526 55.4073 9.92756C55.1602 9.80256 54.9613 9.65199 54.8107 9.47585C54.663 9.29687 54.5479 9.12784 54.4656 8.96875H54.4016V12.4545H52.859ZM54.3718 6.72727C54.3718 7.15057 54.4315 7.52131 54.5508 7.83949C54.6729 8.15767 54.8477 8.40625 55.0749 8.58523C55.305 8.76136 55.5835 8.84943 55.9102 8.84943C56.2511 8.84943 56.5366 8.75852 56.7667 8.5767C56.9968 8.39205 57.1701 8.14062 57.2866 7.82244C57.4059 7.50142 57.4656 7.13636 57.4656 6.72727C57.4656 6.32102 57.4073 5.96023 57.2908 5.64489C57.1744 5.32955 57.0011 5.08239 56.771 4.90341C56.5408 4.72443 56.2539 4.63494 55.9102 4.63494C55.5806 4.63494 55.3008 4.72159 55.0707 4.89489C54.8406 5.06818 54.6658 5.31108 54.5465 5.62358C54.43 5.93608 54.3718 6.30398 54.3718 6.72727ZM60.359 10V3.45455H61.8548V4.54545H61.9229C62.0423 4.16761 62.2468 3.87642 62.5366 3.67188C62.8292 3.46449 63.163 3.3608 63.538 3.3608C63.6232 3.3608 63.7184 3.36506 63.8235 3.37358C63.9315 3.37926 64.021 3.3892 64.092 3.40341V4.82244C64.0266 4.79972 63.9229 4.77983 63.7809 4.76278C63.6417 4.7429 63.5067 4.73295 63.3761 4.73295C63.0948 4.73295 62.842 4.79403 62.6175 4.91619C62.396 5.03551 62.2212 5.2017 62.0934 5.41477C61.9656 5.62784 61.9016 5.87358 61.9016 6.15199V10H60.359ZM61.3136 0.769886L62.1786 1.8608L63.0437 0.769886H64.3945V0.829545L62.7837 2.67045H61.5778L59.9627 0.829545V0.769886H61.3136ZM65.1168 10V3.45455H66.6594V10H65.1168ZM65.3001 2.59375L66.2546 0.646307H67.7631L66.4549 2.59375H65.3001ZM68.2457 3.45455H69.7884V10.375C69.7884 10.8466 69.6989 11.2358 69.5199 11.5426C69.3409 11.8494 69.0824 12.0781 68.7443 12.2287C68.4063 12.3793 67.9957 12.4545 67.5128 12.4545C67.456 12.4545 67.4034 12.4531 67.3551 12.4503C67.3068 12.4503 67.2543 12.4489 67.1974 12.446V11.1889C67.2401 11.1918 67.2784 11.1932 67.3125 11.1932C67.3466 11.196 67.3821 11.1974 67.419 11.1974C67.7145 11.1974 67.9261 11.125 68.054 10.9801C68.1818 10.8381 68.2457 10.6293 68.2457 10.3537V3.45455ZM69.0128 2.52557C68.7656 2.52557 68.554 2.4446 68.3778 2.28267C68.2045 2.1179 68.1179 1.92045 68.1179 1.69034C68.1179 1.45739 68.2045 1.25994 68.3778 1.09801C68.554 0.933238 68.7656 0.850852 69.0128 0.850852C69.2571 0.850852 69.4659 0.933238 69.6392 1.09801C69.8153 1.25994 69.9034 1.45739 69.9034 1.69034C69.9034 1.92045 69.8153 2.1179 69.6392 2.28267C69.4659 2.4446 69.2571 2.52557 69.0128 2.52557ZM71.3746 10V3.45455H72.8491V4.56676H72.9258C73.0621 4.19176 73.288 3.89915 73.6033 3.68892C73.9187 3.47585 74.2951 3.36932 74.7326 3.36932C75.1758 3.36932 75.5494 3.47727 75.8533 3.69318C76.1602 3.90625 76.3761 4.19744 76.5011 4.56676H76.5692C76.7141 4.20312 76.9585 3.91335 77.3022 3.69744C77.6488 3.47869 78.0593 3.36932 78.5337 3.36932C79.136 3.36932 79.6275 3.55966 80.0082 3.94034C80.3888 4.32102 80.5792 4.87642 80.5792 5.60653V10H79.0323V5.84517C79.0323 5.43892 78.9244 5.14205 78.7085 4.95455C78.4925 4.7642 78.2283 4.66903 77.9158 4.66903C77.5437 4.66903 77.2525 4.78551 77.0423 5.01847C76.8349 5.24858 76.7312 5.5483 76.7312 5.91761V10H75.2184V5.78125C75.2184 5.44318 75.1161 5.1733 74.9116 4.97159C74.7099 4.76989 74.4457 4.66903 74.119 4.66903C73.8974 4.66903 73.6957 4.72585 73.5138 4.83949C73.332 4.95028 73.1871 5.10795 73.0792 5.3125C72.9712 5.5142 72.9173 5.75 72.9173 6.01989V10H71.3746ZM85.0419 10.1278C84.3857 10.1278 83.8189 9.99148 83.3416 9.71875C82.8672 9.44318 82.5021 9.05398 82.2464 8.55114C81.9908 8.04545 81.8629 7.45028 81.8629 6.76562C81.8629 6.09233 81.9908 5.50142 82.2464 4.9929C82.505 4.48153 82.8658 4.08381 83.3288 3.79972C83.7919 3.51278 84.3359 3.36932 84.9609 3.36932C85.3643 3.36932 85.745 3.43466 86.103 3.56534C86.4638 3.69318 86.782 3.89205 87.0575 4.16193C87.3359 4.43182 87.5547 4.77557 87.7138 5.19318C87.8729 5.60795 87.9524 6.10227 87.9524 6.67614V7.14915H82.5874V6.10938H86.4737C86.4709 5.81392 86.407 5.55114 86.282 5.32102C86.157 5.08807 85.9822 4.90483 85.7578 4.77131C85.5362 4.63778 85.2777 4.57102 84.9822 4.57102C84.6669 4.57102 84.3899 4.64773 84.1513 4.80114C83.9126 4.9517 83.7266 5.15057 83.593 5.39773C83.4624 5.64205 83.3956 5.91051 83.3928 6.20312V7.1108C83.3928 7.49148 83.4624 7.81818 83.6016 8.09091C83.7408 8.3608 83.9354 8.56818 84.1854 8.71307C84.4354 8.85511 84.728 8.92614 85.0632 8.92614C85.2876 8.92614 85.4908 8.89489 85.6726 8.83239C85.8544 8.76705 86.0121 8.67188 86.1456 8.54688C86.2791 8.42188 86.38 8.26705 86.4482 8.08239L87.8885 8.24432C87.7976 8.625 87.6243 8.95739 87.3686 9.24148C87.1158 9.52273 86.7919 9.74148 86.397 9.89773C86.0021 10.0511 85.5504 10.1278 85.0419 10.1278ZM90.8001 6.16477V10H89.2575V3.45455H90.7319V4.56676H90.8086C90.9592 4.20028 91.1992 3.90909 91.5288 3.69318C91.8612 3.47727 92.2717 3.36932 92.7603 3.36932C93.212 3.36932 93.6055 3.46591 93.9407 3.65909C94.2788 3.85227 94.5401 4.1321 94.7248 4.49858C94.9123 4.86506 95.0046 5.30966 95.0018 5.83239V10H93.4592V6.07102C93.4592 5.63352 93.3455 5.29119 93.1183 5.04403C92.8938 4.79687 92.5827 4.6733 92.185 4.6733C91.9151 4.6733 91.6751 4.73295 91.4648 4.85227C91.2575 4.96875 91.0941 5.13778 90.9748 5.35938C90.8583 5.58097 90.8001 5.84943 90.8001 6.16477ZM96.57 10V3.45455H98.1126V10H96.57ZM96.7532 2.59375L97.7077 0.646307H99.2163L97.908 2.59375H96.7532Z" fill="#2E2F30"/>
</svg>
