<svg width="268" height="152" viewBox="0 0 268 152" fill="none" xmlns="http://www.w3.org/2000/svg">
<rect x="0.5" y="16.5" width="267" height="35" rx="1.5" fill="#EBF2F4" stroke="#1FE03E"/>
<path d="M17.8636 28.3636H19.2727V36.6818C19.2727 37.4242 19.1364 38.0549 18.8636 38.5739C18.5909 39.0928 18.2064 39.4867 17.7102 39.7557C17.214 40.0246 16.6288 40.1591 15.9545 40.1591C15.3182 40.1591 14.7519 40.0436 14.2557 39.8125C13.7595 39.5777 13.3693 39.2443 13.0852 38.8125C12.8011 38.3807 12.6591 37.8674 12.6591 37.2727H14.0455C14.0455 37.6023 14.1269 37.8902 14.2898 38.1364C14.4564 38.3788 14.6837 38.5682 14.9716 38.7045C15.2595 38.8409 15.5871 38.9091 15.9545 38.9091C16.3598 38.9091 16.7045 38.8239 16.9886 38.6534C17.2727 38.483 17.4886 38.233 17.6364 37.9034C17.7879 37.5701 17.8636 37.1629 17.8636 36.6818V28.3636ZM21.9148 40V31.2727H23.2557V40H21.9148ZM22.5966 29.8182C22.3352 29.8182 22.1098 29.7292 21.9205 29.5511C21.7348 29.3731 21.642 29.1591 21.642 28.9091C21.642 28.6591 21.7348 28.4451 21.9205 28.267C22.1098 28.089 22.3352 28 22.5966 28C22.858 28 23.0814 28.089 23.267 28.267C23.4564 28.4451 23.5511 28.6591 23.5511 28.9091C23.5511 29.1591 23.4564 29.3731 23.267 29.5511C23.0814 29.7292 22.858 29.8182 22.5966 29.8182ZM25.7116 40V31.2727H27.0071V32.5909H27.098C27.2571 32.1591 27.545 31.8087 27.9616 31.5398C28.3783 31.2708 28.848 31.1364 29.3707 31.1364C29.4692 31.1364 29.5923 31.1383 29.7401 31.142C29.8878 31.1458 29.9995 31.1515 30.0753 31.1591V32.5227C30.0298 32.5114 29.9257 32.4943 29.7628 32.4716C29.6037 32.4451 29.4351 32.4318 29.2571 32.4318C28.8329 32.4318 28.4541 32.5208 28.1207 32.6989C27.7912 32.8731 27.5298 33.1155 27.3366 33.4261C27.1473 33.733 27.0526 34.0833 27.0526 34.4773V40H25.7116ZM26.598 27.7727L27.7798 29.3636L28.9616 27.7727H30.2344V27.8636L28.3935 30.2273H27.1662L25.3253 27.8636V27.7727H26.598ZM31.6648 40V31.2727H33.0057V40H31.6648ZM31.733 30.0909L33.1193 27.4545H34.6875L32.9148 30.0909H31.733ZM46.5071 31.2727C46.4389 30.697 46.1624 30.25 45.6776 29.9318C45.1927 29.6136 44.598 29.4545 43.8935 29.4545C43.3783 29.4545 42.9276 29.5379 42.5412 29.7045C42.1586 29.8712 41.8594 30.1004 41.6435 30.392C41.4313 30.6837 41.3253 31.0152 41.3253 31.3864C41.3253 31.697 41.3991 31.964 41.5469 32.1875C41.6984 32.4072 41.8916 32.5909 42.1264 32.7386C42.3613 32.8826 42.6075 33.0019 42.8651 33.0966C43.1226 33.1875 43.3594 33.2614 43.5753 33.3182L44.7571 33.6364C45.0601 33.7159 45.3973 33.8258 45.7685 33.9659C46.1435 34.1061 46.5014 34.2973 46.8423 34.5398C47.187 34.7784 47.4711 35.0852 47.6946 35.4602C47.9181 35.8352 48.0298 36.2955 48.0298 36.8409C48.0298 37.4697 47.8651 38.0379 47.5355 38.5455C47.2098 39.053 46.7325 39.4564 46.1037 39.7557C45.4787 40.0549 44.7192 40.2045 43.8253 40.2045C42.992 40.2045 42.2704 40.0701 41.6605 39.8011C41.0545 39.5322 40.5772 39.1572 40.2287 38.6761C39.884 38.1951 39.6889 37.6364 39.6435 37H41.098C41.1359 37.4394 41.2836 37.803 41.5412 38.0909C41.8026 38.375 42.1321 38.5871 42.5298 38.7273C42.9313 38.8636 43.3632 38.9318 43.8253 38.9318C44.3632 38.9318 44.8461 38.8447 45.2741 38.6705C45.7022 38.4924 46.0412 38.2462 46.2912 37.9318C46.5412 37.6136 46.6662 37.2424 46.6662 36.8182C46.6662 36.4318 46.5582 36.1174 46.3423 35.875C46.1264 35.6326 45.8423 35.4356 45.4901 35.2841C45.1378 35.1326 44.7571 35 44.348 34.8864L42.9162 34.4773C42.0071 34.2159 41.2874 33.8428 40.7571 33.358C40.2268 32.8731 39.9616 32.2386 39.9616 31.4545C39.9616 30.803 40.1378 30.2348 40.4901 29.75C40.8461 29.2614 41.3234 28.8826 41.9219 28.6136C42.5241 28.3409 43.1965 28.2045 43.9389 28.2045C44.6889 28.2045 45.3556 28.339 45.9389 28.608C46.5223 28.8731 46.9844 29.2367 47.3253 29.6989C47.67 30.161 47.8518 30.6856 47.8707 31.2727H46.5071ZM52.733 40.2045C52.1799 40.2045 51.678 40.1004 51.2273 39.892C50.7765 39.6799 50.4186 39.375 50.1534 38.9773C49.8883 38.5758 49.7557 38.0909 49.7557 37.5227C49.7557 37.0227 49.8542 36.6174 50.0511 36.3068C50.2481 35.9924 50.5114 35.7462 50.8409 35.5682C51.1705 35.3902 51.5341 35.2576 51.9318 35.1705C52.3333 35.0795 52.7367 35.0076 53.142 34.9545C53.6723 34.8864 54.1023 34.8352 54.4318 34.8011C54.7652 34.7633 55.0076 34.7008 55.1591 34.6136C55.3144 34.5265 55.392 34.375 55.392 34.1591V34.1136C55.392 33.553 55.2386 33.1174 54.9318 32.8068C54.6288 32.4962 54.1686 32.3409 53.5511 32.3409C52.911 32.3409 52.4091 32.4811 52.0455 32.7614C51.6818 33.0417 51.4261 33.3409 51.2784 33.6591L50.0057 33.2045C50.233 32.6742 50.536 32.2614 50.9148 31.9659C51.2973 31.6667 51.714 31.4583 52.1648 31.3409C52.6193 31.2197 53.0663 31.1591 53.5057 31.1591C53.786 31.1591 54.108 31.1932 54.4716 31.2614C54.839 31.3258 55.1932 31.4602 55.5341 31.6648C55.8788 31.8693 56.1648 32.178 56.392 32.5909C56.6193 33.0038 56.733 33.5568 56.733 34.25V40H55.392V38.8182H55.3239C55.233 39.0076 55.0814 39.2102 54.8693 39.4261C54.6572 39.642 54.375 39.8258 54.0227 39.9773C53.6705 40.1288 53.2405 40.2045 52.733 40.2045ZM52.9375 39C53.4678 39 53.9148 38.8958 54.2784 38.6875C54.6458 38.4792 54.9223 38.2102 55.108 37.8807C55.2973 37.5511 55.392 37.2045 55.392 36.8409V35.6136C55.3352 35.6818 55.2102 35.7443 55.017 35.8011C54.8277 35.8542 54.608 35.9015 54.358 35.9432C54.1117 35.9811 53.8712 36.0152 53.6364 36.0455C53.4053 36.072 53.2178 36.0947 53.0739 36.1136C52.7254 36.1591 52.3996 36.233 52.0966 36.3352C51.7973 36.4337 51.5549 36.5833 51.3693 36.7841C51.1875 36.9811 51.0966 37.25 51.0966 37.5909C51.0966 38.0568 51.2689 38.4091 51.6136 38.6477C51.9621 38.8826 52.4034 39 52.9375 39ZM62.9759 31.2727V32.4091H58.4531V31.2727H62.9759ZM59.7713 29.1818H61.1122V37.5C61.1122 37.8788 61.1671 38.1629 61.277 38.3523C61.3906 38.5379 61.5346 38.6629 61.7088 38.7273C61.8868 38.7879 62.0743 38.8182 62.2713 38.8182C62.419 38.8182 62.5402 38.8106 62.6349 38.7955C62.7296 38.7765 62.8054 38.7614 62.8622 38.75L63.1349 39.9545C63.044 39.9886 62.9171 40.0227 62.7543 40.0568C62.5914 40.0947 62.3849 40.1136 62.1349 40.1136C61.7562 40.1136 61.3849 40.0322 61.0213 39.8693C60.6615 39.7064 60.3622 39.4583 60.1236 39.125C59.8887 38.7917 59.7713 38.3712 59.7713 37.8636V29.1818ZM68.4446 40.1818C67.6567 40.1818 66.9654 39.9943 66.3707 39.6193C65.7798 39.2443 65.3177 38.7197 64.9844 38.0455C64.6548 37.3712 64.4901 36.5833 64.4901 35.6818C64.4901 34.7727 64.6548 33.9792 64.9844 33.3011C65.3177 32.6231 65.7798 32.0966 66.3707 31.7216C66.9654 31.3466 67.6567 31.1591 68.4446 31.1591C69.2325 31.1591 69.9219 31.3466 70.5128 31.7216C71.1075 32.0966 71.5696 32.6231 71.8991 33.3011C72.2325 33.9792 72.3991 34.7727 72.3991 35.6818C72.3991 36.5833 72.2325 37.3712 71.8991 38.0455C71.5696 38.7197 71.1075 39.2443 70.5128 39.6193C69.9219 39.9943 69.2325 40.1818 68.4446 40.1818ZM68.4446 38.9773C69.0431 38.9773 69.5355 38.8239 69.9219 38.517C70.3082 38.2102 70.5942 37.8068 70.7798 37.3068C70.9654 36.8068 71.0582 36.2652 71.0582 35.6818C71.0582 35.0985 70.9654 34.5549 70.7798 34.0511C70.5942 33.5473 70.3082 33.1402 69.9219 32.8295C69.5355 32.5189 69.0431 32.3636 68.4446 32.3636C67.8461 32.3636 67.3537 32.5189 66.9673 32.8295C66.581 33.1402 66.295 33.5473 66.1094 34.0511C65.9238 34.5549 65.831 35.0985 65.831 35.6818C65.831 36.2652 65.9238 36.8068 66.1094 37.3068C66.295 37.8068 66.581 38.2102 66.9673 38.517C67.3537 38.8239 67.8461 38.9773 68.4446 38.9773ZM74.446 40V31.2727H75.7415V32.5909H75.8324C75.9915 32.1591 76.2794 31.8087 76.696 31.5398C77.1127 31.2708 77.5824 31.1364 78.1051 31.1364C78.2036 31.1364 78.3267 31.1383 78.4744 31.142C78.6222 31.1458 78.7339 31.1515 78.8097 31.1591V32.5227C78.7642 32.5114 78.66 32.4943 78.4972 32.4716C78.3381 32.4451 78.1695 32.4318 77.9915 32.4318C77.5672 32.4318 77.1884 32.5208 76.8551 32.6989C76.5256 32.8731 76.2642 33.1155 76.071 33.4261C75.8816 33.733 75.7869 34.0833 75.7869 34.4773V40H74.446ZM82.9673 40.2045C82.4143 40.2045 81.9124 40.1004 81.4616 39.892C81.0109 39.6799 80.6529 39.375 80.3878 38.9773C80.1226 38.5758 79.9901 38.0909 79.9901 37.5227C79.9901 37.0227 80.0885 36.6174 80.2855 36.3068C80.4825 35.9924 80.7457 35.7462 81.0753 35.5682C81.4048 35.3902 81.7685 35.2576 82.1662 35.1705C82.5677 35.0795 82.9711 35.0076 83.3764 34.9545C83.9067 34.8864 84.3366 34.8352 84.6662 34.8011C84.9995 34.7633 85.242 34.7008 85.3935 34.6136C85.5488 34.5265 85.6264 34.375 85.6264 34.1591V34.1136C85.6264 33.553 85.473 33.1174 85.1662 32.8068C84.8632 32.4962 84.4029 32.3409 83.7855 32.3409C83.1454 32.3409 82.6435 32.4811 82.2798 32.7614C81.9162 33.0417 81.6605 33.3409 81.5128 33.6591L80.2401 33.2045C80.4673 32.6742 80.7704 32.2614 81.1491 31.9659C81.5317 31.6667 81.9484 31.4583 82.3991 31.3409C82.8537 31.2197 83.3007 31.1591 83.7401 31.1591C84.0204 31.1591 84.3423 31.1932 84.706 31.2614C85.0734 31.3258 85.4276 31.4602 85.7685 31.6648C86.1132 31.8693 86.3991 32.178 86.6264 32.5909C86.8537 33.0038 86.9673 33.5568 86.9673 34.25V40H85.6264V38.8182H85.5582C85.4673 39.0076 85.3158 39.2102 85.1037 39.4261C84.8916 39.642 84.6094 39.8258 84.2571 39.9773C83.9048 40.1288 83.4749 40.2045 82.9673 40.2045ZM83.1719 39C83.7022 39 84.1491 38.8958 84.5128 38.6875C84.8802 38.4792 85.1567 38.2102 85.3423 37.8807C85.5317 37.5511 85.6264 37.2045 85.6264 36.8409V35.6136C85.5696 35.6818 85.4446 35.7443 85.2514 35.8011C85.062 35.8542 84.8423 35.9015 84.5923 35.9432C84.3461 35.9811 84.1056 36.0152 83.8707 36.0455C83.6397 36.072 83.4522 36.0947 83.3082 36.1136C82.9598 36.1591 82.634 36.233 82.331 36.3352C82.0317 36.4337 81.7893 36.5833 81.6037 36.7841C81.4219 36.9811 81.331 37.25 81.331 37.5909C81.331 38.0568 81.5033 38.4091 81.848 38.6477C82.1965 38.8826 82.6378 39 83.1719 39Z" fill="#2E2F30"/>
<path d="M6.36222 1.27273H7.94318V6.97443C7.94318 7.59943 7.79545 8.14915 7.5 8.62358C7.20739 9.09801 6.79545 9.46875 6.2642 9.7358C5.73295 10 5.11222 10.1321 4.40199 10.1321C3.68892 10.1321 3.06676 10 2.53551 9.7358C2.00426 9.46875 1.59233 9.09801 1.29972 8.62358C1.0071 8.14915 0.860795 7.59943 0.860795 6.97443V1.27273H2.44176V6.84233C2.44176 7.20597 2.52131 7.52983 2.6804 7.81392C2.84233 8.09801 3.0696 8.32102 3.36222 8.48295C3.65483 8.64205 4.00142 8.72159 4.40199 8.72159C4.80256 8.72159 5.14915 8.64205 5.44176 8.48295C5.73722 8.32102 5.96449 8.09801 6.12358 7.81392C6.28267 7.52983 6.36222 7.20597 6.36222 6.84233V1.27273ZM9.50817 10V9.01989L12.8832 4.78835V4.73295H9.61896V3.45455H14.771V4.5071L11.5579 8.66619V8.72159H14.8817V10H9.50817ZM11.2979 0.769886L12.163 1.8608L13.0281 0.769886H14.3789V0.829545L12.7638 2.67045H11.5579L9.94709 0.829545V0.769886H11.2979ZM16.3317 10V3.45455H17.8743V10H16.3317ZM17.1072 2.52557C16.8629 2.52557 16.6527 2.4446 16.4766 2.28267C16.3004 2.1179 16.2124 1.92045 16.2124 1.69034C16.2124 1.45739 16.3004 1.25994 16.4766 1.09801C16.6527 0.933238 16.8629 0.850852 17.1072 0.850852C17.3544 0.850852 17.5646 0.933238 17.7379 1.09801C17.9141 1.25994 18.0021 1.45739 18.0021 1.69034C18.0021 1.92045 17.9141 2.1179 17.7379 2.28267C17.5646 2.4446 17.3544 2.52557 17.1072 2.52557ZM25.3072 3.45455L22.9762 10H21.2717L18.9407 3.45455H20.5856L22.0898 8.31676H22.158L23.6665 3.45455H25.3072ZM28.0707 10.1321C27.6559 10.1321 27.2823 10.0582 26.9499 9.91051C26.6204 9.75994 26.359 9.53835 26.1658 9.24574C25.9755 8.95312 25.8803 8.59233 25.8803 8.16335C25.8803 7.79403 25.9485 7.48864 26.0849 7.24716C26.2212 7.00568 26.4073 6.8125 26.6431 6.66761C26.8789 6.52273 27.1445 6.41335 27.44 6.33949C27.7383 6.26278 28.0465 6.20739 28.3647 6.1733C28.7482 6.13352 29.0593 6.09801 29.2979 6.06676C29.5366 6.03267 29.7099 5.98153 29.8178 5.91335C29.9286 5.84233 29.984 5.73295 29.984 5.58523V5.55966C29.984 5.23864 29.8888 4.99006 29.6985 4.81392C29.5082 4.63778 29.234 4.54972 28.8761 4.54972C28.4982 4.54972 28.1985 4.6321 27.9769 4.79688C27.7582 4.96165 27.6104 5.15625 27.5337 5.38068L26.0934 5.17614C26.207 4.77841 26.3945 4.44602 26.6559 4.17898C26.9173 3.90909 27.2369 3.70739 27.6147 3.57386C27.9925 3.4375 28.4102 3.36932 28.8675 3.36932C29.1829 3.36932 29.4968 3.40625 29.8093 3.48011C30.1218 3.55398 30.4073 3.67614 30.6658 3.84659C30.9244 4.0142 31.1317 4.2429 31.288 4.53267C31.4471 4.82244 31.5266 5.18466 31.5266 5.61932V10H30.0437V9.10085H29.9925C29.8988 9.28267 29.7667 9.45312 29.5962 9.61222C29.4286 9.76847 29.217 9.89489 28.9613 9.99148C28.7085 10.0852 28.4116 10.1321 28.0707 10.1321ZM28.4712 8.99858C28.7809 8.99858 29.0494 8.9375 29.2766 8.81534C29.5039 8.69034 29.6786 8.52557 29.8008 8.32102C29.9258 8.11648 29.9883 7.89347 29.9883 7.65199V6.88068C29.94 6.92045 29.8576 6.95739 29.7411 6.99148C29.6275 7.02557 29.4996 7.0554 29.3576 7.08097C29.2156 7.10653 29.0749 7.12926 28.9357 7.14915C28.7965 7.16903 28.6758 7.18608 28.5735 7.20028C28.3434 7.23153 28.1374 7.28267 27.9556 7.35369C27.7738 7.42472 27.6303 7.52415 27.5252 7.65199C27.4201 7.77699 27.3675 7.93892 27.3675 8.13778C27.3675 8.42188 27.4712 8.63636 27.6786 8.78125C27.886 8.92614 28.1502 8.99858 28.4712 8.99858ZM36.3462 3.45455V4.64773H32.5835V3.45455H36.3462ZM33.5124 1.88636H35.055V8.03125C35.055 8.23864 35.0863 8.39773 35.1488 8.50852C35.2141 8.61648 35.2994 8.69034 35.4045 8.73011C35.5096 8.76989 35.6261 8.78977 35.7539 8.78977C35.8505 8.78977 35.9386 8.78267 36.0181 8.76847C36.1005 8.75426 36.163 8.74148 36.2056 8.73011L36.4656 9.93608C36.3832 9.96449 36.2653 9.99574 36.1119 10.0298C35.9613 10.0639 35.7766 10.0838 35.5579 10.0895C35.1715 10.1009 34.8235 10.0426 34.5138 9.91477C34.2042 9.78409 33.9585 9.58239 33.7766 9.30966C33.5977 9.03693 33.5096 8.69602 33.5124 8.28693V1.88636ZM40.4638 10.1278C39.8075 10.1278 39.2408 9.99148 38.7635 9.71875C38.2891 9.44318 37.924 9.05398 37.6683 8.55114C37.4126 8.04545 37.2848 7.45028 37.2848 6.76562C37.2848 6.09233 37.4126 5.50142 37.6683 4.9929C37.9268 4.48153 38.2876 4.08381 38.7507 3.79972C39.2138 3.51278 39.7578 3.36932 40.3828 3.36932C40.7862 3.36932 41.1669 3.43466 41.5249 3.56534C41.8857 3.69318 42.2038 3.89205 42.4794 4.16193C42.7578 4.43182 42.9766 4.77557 43.1357 5.19318C43.2947 5.60795 43.3743 6.10227 43.3743 6.67614V7.14915H38.0092V6.10938H41.8956C41.8928 5.81392 41.8288 5.55114 41.7038 5.32102C41.5788 5.08807 41.4041 4.90483 41.1797 4.77131C40.9581 4.63778 40.6996 4.57102 40.4041 4.57102C40.0888 4.57102 39.8118 4.64773 39.5732 4.80114C39.3345 4.9517 39.1484 5.15057 39.0149 5.39773C38.8842 5.64205 38.8175 5.91051 38.8146 6.20312V7.1108C38.8146 7.49148 38.8842 7.81818 39.0234 8.09091C39.1626 8.3608 39.3572 8.56818 39.6072 8.71307C39.8572 8.85511 40.1499 8.92614 40.4851 8.92614C40.7095 8.92614 40.9126 8.89489 41.0945 8.83239C41.2763 8.76705 41.4339 8.67188 41.5675 8.54688C41.701 8.42188 41.8018 8.26705 41.87 8.08239L43.3104 8.24432C43.2195 8.625 43.0462 8.95739 42.7905 9.24148C42.5376 9.52273 42.2138 9.74148 41.8189 9.89773C41.424 10.0511 40.9723 10.1278 40.4638 10.1278ZM46.2219 1.27273V10H44.6793V1.27273H46.2219ZM52.9815 5.18466L51.5753 5.33807C51.5355 5.19602 51.4659 5.0625 51.3665 4.9375C51.2699 4.8125 51.1392 4.71165 50.9744 4.63494C50.8097 4.55824 50.608 4.51989 50.3693 4.51989C50.0483 4.51989 49.7784 4.58949 49.5597 4.72869C49.3438 4.8679 49.2372 5.0483 49.2401 5.26989C49.2372 5.46023 49.3068 5.61506 49.4489 5.73438C49.5938 5.85369 49.8324 5.9517 50.1648 6.02841L51.2812 6.26705C51.9006 6.40057 52.3608 6.61222 52.6619 6.90199C52.9659 7.19176 53.1193 7.57102 53.1222 8.03977C53.1193 8.4517 52.9986 8.81534 52.7599 9.13068C52.5241 9.44318 52.196 9.6875 51.7756 9.86364C51.3551 10.0398 50.8722 10.1278 50.3267 10.1278C49.5256 10.1278 48.8807 9.96023 48.392 9.625C47.9034 9.28693 47.6122 8.81676 47.5185 8.21449L49.0227 8.0696C49.0909 8.36506 49.2358 8.58807 49.4574 8.73864C49.679 8.8892 49.9673 8.96449 50.3224 8.96449C50.6889 8.96449 50.983 8.8892 51.2045 8.73864C51.429 8.58807 51.5412 8.40199 51.5412 8.1804C51.5412 7.9929 51.4688 7.83807 51.3239 7.71591C51.1818 7.59375 50.9602 7.5 50.6591 7.43466L49.5426 7.20028C48.9148 7.0696 48.4503 6.84943 48.1491 6.53977C47.848 6.22727 47.6989 5.83239 47.7017 5.35511C47.6989 4.9517 47.8082 4.60227 48.0298 4.30682C48.2543 4.00852 48.5653 3.77841 48.9631 3.61648C49.3636 3.4517 49.8253 3.36932 50.348 3.36932C51.1151 3.36932 51.7188 3.53267 52.1591 3.85938C52.6023 4.18608 52.8764 4.62784 52.9815 5.18466ZM55.8004 7.94602L55.7962 6.08381H56.0433L58.3956 3.45455H60.1982L57.3047 6.67614H56.9851L55.8004 7.94602ZM54.3942 10V1.27273H55.9368V10H54.3942ZM58.5021 10L56.3714 7.02131L57.4112 5.93466L60.3473 10H58.5021ZM63.8544 10.1278C63.1982 10.1278 62.6314 9.99148 62.1541 9.71875C61.6797 9.44318 61.3146 9.05398 61.0589 8.55114C60.8033 8.04545 60.6754 7.45028 60.6754 6.76562C60.6754 6.09233 60.8033 5.50142 61.0589 4.9929C61.3175 4.48153 61.6783 4.08381 62.1413 3.79972C62.6044 3.51278 63.1484 3.36932 63.7734 3.36932C64.1768 3.36932 64.5575 3.43466 64.9155 3.56534C65.2763 3.69318 65.5945 3.89205 65.87 4.16193C66.1484 4.43182 66.3672 4.77557 66.5263 5.19318C66.6854 5.60795 66.7649 6.10227 66.7649 6.67614V7.14915H61.3999V6.10938H65.2862C65.2834 5.81392 65.2195 5.55114 65.0945 5.32102C64.9695 5.08807 64.7947 4.90483 64.5703 4.77131C64.3487 4.63778 64.0902 4.57102 63.7947 4.57102C63.4794 4.57102 63.2024 4.64773 62.9638 4.80114C62.7251 4.9517 62.5391 5.15057 62.4055 5.39773C62.2749 5.64205 62.2081 5.91051 62.2053 6.20312V7.1108C62.2053 7.49148 62.2749 7.81818 62.4141 8.09091C62.5533 8.3608 62.7479 8.56818 62.9979 8.71307C63.2479 8.85511 63.5405 8.92614 63.8757 8.92614C64.1001 8.92614 64.3033 8.89489 64.4851 8.83239C64.6669 8.76705 64.8246 8.67188 64.9581 8.54688C65.0916 8.42188 65.1925 8.26705 65.2607 8.08239L66.701 8.24432C66.6101 8.625 66.4368 8.95739 66.1811 9.24148C65.9283 9.52273 65.6044 9.74148 65.2095 9.89773C64.8146 10.0511 64.3629 10.1278 63.8544 10.1278ZM63.1385 2.59375L64.093 0.646307H65.6016L64.2933 2.59375H63.1385ZM71.0465 3.45455H72.5891V10.375C72.5891 10.8466 72.4996 11.2358 72.3207 11.5426C72.1417 11.8494 71.8832 12.0781 71.5451 12.2287C71.207 12.3793 70.7965 12.4545 70.3136 12.4545C70.2567 12.4545 70.2042 12.4531 70.1559 12.4503C70.1076 12.4503 70.055 12.4489 69.9982 12.446V11.1889C70.0408 11.1918 70.0792 11.1932 70.1133 11.1932C70.1474 11.196 70.1829 11.1974 70.2198 11.1974C70.5153 11.1974 70.7269 11.125 70.8548 10.9801C70.9826 10.8381 71.0465 10.6293 71.0465 10.3537V3.45455ZM71.8136 2.52557C71.5664 2.52557 71.3548 2.4446 71.1786 2.28267C71.0053 2.1179 70.9187 1.92045 70.9187 1.69034C70.9187 1.45739 71.0053 1.25994 71.1786 1.09801C71.3548 0.933238 71.5664 0.850852 71.8136 0.850852C72.0579 0.850852 72.2667 0.933238 72.44 1.09801C72.6161 1.25994 72.7042 1.45739 72.7042 1.69034C72.7042 1.92045 72.6161 2.1179 72.44 2.28267C72.2667 2.4446 72.0579 2.52557 71.8136 2.52557ZM74.1754 10V3.45455H75.6499V4.56676H75.7266C75.8629 4.19176 76.0888 3.89915 76.4041 3.68892C76.7195 3.47585 77.0959 3.36932 77.5334 3.36932C77.9766 3.36932 78.3501 3.47727 78.6541 3.69318C78.9609 3.90625 79.1768 4.19744 79.3018 4.56676H79.37C79.5149 4.20312 79.7592 3.91335 80.103 3.69744C80.4496 3.47869 80.8601 3.36932 81.3345 3.36932C81.9368 3.36932 82.4283 3.55966 82.8089 3.94034C83.1896 4.32102 83.38 4.87642 83.38 5.60653V10H81.8331V5.84517C81.8331 5.43892 81.7251 5.14205 81.5092 4.95455C81.2933 4.7642 81.0291 4.66903 80.7166 4.66903C80.3445 4.66903 80.0533 4.78551 79.843 5.01847C79.6357 5.24858 79.532 5.5483 79.532 5.91761V10H78.0192V5.78125C78.0192 5.44318 77.9169 5.1733 77.7124 4.97159C77.5107 4.76989 77.2464 4.66903 76.9197 4.66903C76.6982 4.66903 76.4964 4.72585 76.3146 4.83949C76.1328 4.95028 75.9879 5.10795 75.88 5.3125C75.772 5.5142 75.718 5.75 75.718 6.01989V10H74.1754ZM87.8427 10.1278C87.1864 10.1278 86.6197 9.99148 86.1424 9.71875C85.668 9.44318 85.3029 9.05398 85.0472 8.55114C84.7915 8.04545 84.6637 7.45028 84.6637 6.76562C84.6637 6.09233 84.7915 5.50142 85.0472 4.9929C85.3058 4.48153 85.6665 4.08381 86.1296 3.79972C86.5927 3.51278 87.1367 3.36932 87.7617 3.36932C88.1651 3.36932 88.5458 3.43466 88.9038 3.56534C89.2646 3.69318 89.5827 3.89205 89.8583 4.16193C90.1367 4.43182 90.3555 4.77557 90.5146 5.19318C90.6737 5.60795 90.7532 6.10227 90.7532 6.67614V7.14915H85.3881V6.10938H89.2745C89.2717 5.81392 89.2077 5.55114 89.0827 5.32102C88.9577 5.08807 88.783 4.90483 88.5586 4.77131C88.337 4.63778 88.0785 4.57102 87.783 4.57102C87.4677 4.57102 87.1907 4.64773 86.9521 4.80114C86.7134 4.9517 86.5273 5.15057 86.3938 5.39773C86.2631 5.64205 86.1964 5.91051 86.1935 6.20312V7.1108C86.1935 7.49148 86.2631 7.81818 86.4023 8.09091C86.5415 8.3608 86.7362 8.56818 86.9862 8.71307C87.2362 8.85511 87.5288 8.92614 87.864 8.92614C88.0884 8.92614 88.2915 8.89489 88.4734 8.83239C88.6552 8.76705 88.8129 8.67188 88.9464 8.54688C89.0799 8.42188 89.1808 8.26705 89.2489 8.08239L90.6893 8.24432C90.5984 8.625 90.4251 8.95739 90.1694 9.24148C89.9165 9.52273 89.5927 9.74148 89.1978 9.89773C88.8029 10.0511 88.3512 10.1278 87.8427 10.1278ZM87.1268 2.59375L88.0813 0.646307H89.5898L88.2816 2.59375H87.1268ZM93.6009 6.16477V10H92.0582V3.45455H93.5327V4.56676H93.6094C93.7599 4.20028 94 3.90909 94.3295 3.69318C94.6619 3.47727 95.0724 3.36932 95.5611 3.36932C96.0128 3.36932 96.4063 3.46591 96.7415 3.65909C97.0795 3.85227 97.3409 4.1321 97.5256 4.49858C97.7131 4.86506 97.8054 5.30966 97.8026 5.83239V10H96.2599V6.07102C96.2599 5.63352 96.1463 5.29119 95.919 5.04403C95.6946 4.79687 95.3835 4.6733 94.9858 4.6733C94.7159 4.6733 94.4759 4.73295 94.2656 4.85227C94.0582 4.96875 93.8949 5.13778 93.7756 5.35938C93.6591 5.58097 93.6009 5.84943 93.6009 6.16477ZM102.226 10.1278C101.587 10.1278 101.033 9.98722 100.564 9.70597C100.095 9.42472 99.7315 9.03125 99.473 8.52557C99.2173 8.01989 99.0895 7.42898 99.0895 6.75284C99.0895 6.0767 99.2173 5.48437 99.473 4.97585C99.7315 4.46733 100.095 4.07244 100.564 3.79119C101.033 3.50994 101.587 3.36932 102.226 3.36932C102.865 3.36932 103.419 3.50994 103.888 3.79119C104.357 4.07244 104.719 4.46733 104.974 4.97585C105.233 5.48437 105.362 6.0767 105.362 6.75284C105.362 7.42898 105.233 8.01989 104.974 8.52557C104.719 9.03125 104.357 9.42472 103.888 9.70597C103.419 9.98722 102.865 10.1278 102.226 10.1278ZM102.234 8.89205C102.581 8.89205 102.871 8.79687 103.104 8.60653C103.337 8.41335 103.51 8.15483 103.624 7.83097C103.74 7.5071 103.798 7.14631 103.798 6.74858C103.798 6.34801 103.74 5.9858 103.624 5.66193C103.51 5.33523 103.337 5.07528 103.104 4.8821C102.871 4.68892 102.581 4.59233 102.234 4.59233C101.879 4.59233 101.584 4.68892 101.348 4.8821C101.115 5.07528 100.94 5.33523 100.824 5.66193C100.71 5.9858 100.653 6.34801 100.653 6.74858C100.653 7.14631 100.71 7.5071 100.824 7.83097C100.94 8.15483 101.115 8.41335 101.348 8.60653C101.584 8.79687 101.879 8.89205 102.234 8.89205Z" fill="#2E2F30"/>
<path d="M14.5284 58.4062V57.2727H21.2827V58.4062H18.5597V66H17.2472V58.4062H14.5284ZM24.4808 66.1321C23.8672 66.1321 23.3317 65.9915 22.8743 65.7102C22.4169 65.429 22.0618 65.0355 21.8089 64.5298C21.5561 64.0241 21.4297 63.4332 21.4297 62.7571C21.4297 62.0781 21.5561 61.4844 21.8089 60.9759C22.0618 60.4673 22.4169 60.0724 22.8743 59.7912C23.3317 59.5099 23.8672 59.3693 24.4808 59.3693C25.0945 59.3693 25.63 59.5099 26.0874 59.7912C26.5447 60.0724 26.8999 60.4673 27.1527 60.9759C27.4055 61.4844 27.532 62.0781 27.532 62.7571C27.532 63.4332 27.4055 64.0241 27.1527 64.5298C26.8999 65.0355 26.5447 65.429 26.0874 65.7102C25.63 65.9915 25.0945 66.1321 24.4808 66.1321ZM24.4851 65.0625C24.8828 65.0625 25.2124 64.9574 25.4737 64.7472C25.7351 64.5369 25.9283 64.2571 26.0533 63.9077C26.1811 63.5582 26.245 63.1733 26.245 62.7528C26.245 62.3352 26.1811 61.9517 26.0533 61.6023C25.9283 61.25 25.7351 60.9673 25.4737 60.7543C25.2124 60.5412 24.8828 60.4347 24.4851 60.4347C24.0845 60.4347 23.7521 60.5412 23.4879 60.7543C23.2266 60.9673 23.032 61.25 22.9041 61.6023C22.7791 61.9517 22.7166 62.3352 22.7166 62.7528C22.7166 63.1733 22.7791 63.5582 22.9041 63.9077C23.032 64.2571 23.2266 64.5369 23.4879 64.7472C23.7521 64.9574 24.0845 65.0625 24.4851 65.0625ZM32.0096 59.4545V60.4773H28.4343V59.4545H32.0096ZM29.3931 57.8864H30.6673V64.0781C30.6673 64.3253 30.7042 64.5114 30.7781 64.6364C30.8519 64.7585 30.9471 64.8423 31.0636 64.8878C31.1829 64.9304 31.3121 64.9517 31.4513 64.9517C31.5536 64.9517 31.6431 64.9446 31.7198 64.9304C31.7965 64.9162 31.8562 64.9048 31.8988 64.8963L32.1289 65.9489C32.055 65.9773 31.9499 66.0057 31.8136 66.0341C31.6772 66.0653 31.5067 66.0824 31.3022 66.0852C30.967 66.0909 30.6545 66.0312 30.3647 65.9062C30.0749 65.7812 29.8406 65.5881 29.6616 65.3267C29.4826 65.0653 29.3931 64.7372 29.3931 64.3423V57.8864ZM36.1058 66.1321C35.4922 66.1321 34.9567 65.9915 34.4993 65.7102C34.0419 65.429 33.6868 65.0355 33.4339 64.5298C33.1811 64.0241 33.0547 63.4332 33.0547 62.7571C33.0547 62.0781 33.1811 61.4844 33.4339 60.9759C33.6868 60.4673 34.0419 60.0724 34.4993 59.7912C34.9567 59.5099 35.4922 59.3693 36.1058 59.3693C36.7195 59.3693 37.255 59.5099 37.7124 59.7912C38.1697 60.0724 38.5249 60.4673 38.7777 60.9759C39.0305 61.4844 39.157 62.0781 39.157 62.7571C39.157 63.4332 39.0305 64.0241 38.7777 64.5298C38.5249 65.0355 38.1697 65.429 37.7124 65.7102C37.255 65.9915 36.7195 66.1321 36.1058 66.1321ZM36.1101 65.0625C36.5078 65.0625 36.8374 64.9574 37.0987 64.7472C37.3601 64.5369 37.5533 64.2571 37.6783 63.9077C37.8061 63.5582 37.87 63.1733 37.87 62.7528C37.87 62.3352 37.8061 61.9517 37.6783 61.6023C37.5533 61.25 37.3601 60.9673 37.0987 60.7543C36.8374 60.5412 36.5078 60.4347 36.1101 60.4347C35.7095 60.4347 35.3771 60.5412 35.1129 60.7543C34.8516 60.9673 34.657 61.25 34.5291 61.6023C34.4041 61.9517 34.3416 62.3352 34.3416 62.7528C34.3416 63.1733 34.4041 63.5582 34.5291 63.9077C34.657 64.2571 34.8516 64.5369 35.1129 64.7472C35.3771 64.9574 35.7095 65.0625 36.1101 65.0625ZM47.9013 63.2855V59.4545H49.1797V66H47.9268V64.8665H47.8587C47.7081 65.2159 47.4666 65.5071 47.1342 65.7401C46.8047 65.9702 46.3942 66.0852 45.9027 66.0852C45.4822 66.0852 45.1101 65.9929 44.7862 65.8082C44.4652 65.6207 44.2124 65.3438 44.0277 64.9773C43.8459 64.6108 43.755 64.1577 43.755 63.6179V59.4545H45.0291V63.4645C45.0291 63.9105 45.1527 64.2656 45.3999 64.5298C45.647 64.794 45.968 64.9261 46.3629 64.9261C46.6016 64.9261 46.8388 64.8665 47.0746 64.7472C47.3132 64.6278 47.5107 64.4474 47.6669 64.206C47.826 63.9645 47.9041 63.6577 47.9013 63.2855ZM50.7553 66V65.1264L54.3008 60.6222V60.5625H50.8704V59.4545H55.8903V60.3835L52.4812 64.8324V64.892H56.0096V66H50.7553ZM52.4599 56.7997L53.3335 57.9418L54.2113 56.7997H55.3619V56.8636L53.8661 58.6705H52.805L51.305 56.8636V56.7997H52.4599ZM57.5128 66V59.4545H58.7869V66H57.5128ZM58.1562 58.4446C57.9347 58.4446 57.7443 58.3707 57.5852 58.223C57.429 58.0724 57.3509 57.8935 57.3509 57.6861C57.3509 57.4759 57.429 57.2969 57.5852 57.1491C57.7443 56.9986 57.9347 56.9233 58.1562 56.9233C58.3778 56.9233 58.5668 56.9986 58.723 57.1491C58.8821 57.2969 58.9616 57.4759 58.9616 57.6861C58.9616 57.8935 58.8821 58.0724 58.723 58.223C58.5668 58.3707 58.3778 58.4446 58.1562 58.4446ZM66.1005 59.4545L63.7269 66H62.3633L59.9854 59.4545H61.3533L63.011 64.4915H63.0792L64.7326 59.4545H66.1005ZM69.0153 66.1449C68.6005 66.1449 68.2255 66.0682 67.8903 65.9148C67.555 65.7585 67.2894 65.5327 67.0934 65.2372C66.9002 64.9418 66.8036 64.5795 66.8036 64.1506C66.8036 63.7812 66.8746 63.4773 67.0167 63.2386C67.1587 63 67.3505 62.8111 67.592 62.6719C67.8335 62.5327 68.1033 62.4276 68.4016 62.3565C68.6999 62.2855 69.0039 62.2315 69.3136 62.1946C69.7056 62.1491 70.0238 62.1122 70.2681 62.0838C70.5124 62.0526 70.69 62.0028 70.8008 61.9347C70.9116 61.8665 70.967 61.7557 70.967 61.6023V61.5724C70.967 61.2003 70.8619 60.9119 70.6516 60.7074C70.4442 60.5028 70.1346 60.4006 69.7227 60.4006C69.2937 60.4006 68.9556 60.4957 68.7085 60.6861C68.4641 60.8736 68.2951 61.0824 68.2013 61.3125L67.0039 61.0398C67.146 60.642 67.3533 60.321 67.6261 60.0767C67.9016 59.8295 68.2184 59.6506 68.5763 59.5398C68.9343 59.4261 69.3107 59.3693 69.7056 59.3693C69.967 59.3693 70.244 59.4006 70.5366 59.4631C70.832 59.5227 71.1076 59.6335 71.3633 59.7955C71.6218 59.9574 71.8335 60.1889 71.9982 60.4901C72.163 60.7884 72.2454 61.1761 72.2454 61.6534V66H71.0011V65.1051H70.9499C70.8675 65.2699 70.744 65.4318 70.5792 65.5909C70.4144 65.75 70.2028 65.8821 69.9442 65.9872C69.6857 66.0923 69.3761 66.1449 69.0153 66.1449ZM69.2923 65.1222C69.6445 65.1222 69.9457 65.0526 70.1957 64.9134C70.4485 64.7741 70.6403 64.5923 70.771 64.3679C70.9045 64.1406 70.9712 63.8977 70.9712 63.6392V62.7955C70.9258 62.8409 70.8377 62.8835 70.707 62.9233C70.5792 62.9602 70.4329 62.9929 70.2681 63.0213C70.1033 63.0469 69.9428 63.071 69.7866 63.0938C69.6303 63.1136 69.4996 63.1307 69.3945 63.1449C69.1474 63.1761 68.9215 63.2287 68.717 63.3026C68.5153 63.3764 68.3533 63.483 68.2312 63.6222C68.1119 63.7585 68.0522 63.9403 68.0522 64.1676C68.0522 64.483 68.1687 64.7216 68.4016 64.8835C68.6346 65.0426 68.9315 65.1222 69.2923 65.1222ZM76.9979 59.4545V60.4773H73.4226V59.4545H76.9979ZM74.3814 57.8864H75.6555V64.0781C75.6555 64.3253 75.6925 64.5114 75.7663 64.6364C75.8402 64.7585 75.9354 64.8423 76.0518 64.8878C76.1712 64.9304 76.3004 64.9517 76.4396 64.9517C76.5419 64.9517 76.6314 64.9446 76.7081 64.9304C76.7848 64.9162 76.8445 64.9048 76.8871 64.8963L77.1172 65.9489C77.0433 65.9773 76.9382 66.0057 76.8018 66.0341C76.6655 66.0653 76.495 66.0824 76.2905 66.0852C75.9553 66.0909 75.6428 66.0312 75.353 65.9062C75.0632 65.7812 74.8288 65.5881 74.6499 65.3267C74.4709 65.0653 74.3814 64.7372 74.3814 64.3423V57.8864ZM81.158 66.1321C80.5131 66.1321 79.9577 65.9943 79.4918 65.7188C79.0288 65.4403 78.6708 65.0497 78.418 64.5469C78.168 64.0412 78.043 63.4489 78.043 62.7699C78.043 62.0994 78.168 61.5085 78.418 60.9972C78.6708 60.4858 79.0231 60.0866 79.4748 59.7997C79.9293 59.5128 80.4606 59.3693 81.0685 59.3693C81.4379 59.3693 81.7958 59.4304 82.1424 59.5526C82.489 59.6747 82.8001 59.8665 83.0756 60.1278C83.3512 60.3892 83.5685 60.7287 83.7276 61.1463C83.8867 61.5611 83.9663 62.0653 83.9663 62.6591V63.1108H78.7631V62.1562H82.7177C82.7177 61.821 82.6495 61.5241 82.5131 61.2656C82.3768 61.0043 82.185 60.7983 81.9379 60.6477C81.6935 60.4972 81.4066 60.4219 81.0771 60.4219C80.7191 60.4219 80.4066 60.5099 80.1396 60.6861C79.8754 60.8594 79.6708 61.0866 79.5259 61.3679C79.3839 61.6463 79.3129 61.9489 79.3129 62.2756V63.0213C79.3129 63.4588 79.3896 63.831 79.543 64.1378C79.6992 64.4446 79.9165 64.679 80.195 64.8409C80.4734 65 80.7987 65.0795 81.1708 65.0795C81.4123 65.0795 81.6325 65.0455 81.8313 64.9773C82.0302 64.9062 82.2021 64.8011 82.3469 64.6619C82.4918 64.5227 82.6026 64.3509 82.6793 64.1463L83.8853 64.3636C83.7887 64.7187 83.6154 65.0298 83.3654 65.2969C83.1183 65.5611 82.8072 65.767 82.4322 65.9148C82.06 66.0597 81.6353 66.1321 81.158 66.1321ZM86.6541 57.2727V66H85.38V57.2727H86.6541ZM93.2731 61.0526L92.1183 61.2571C92.07 61.1094 91.9933 60.9687 91.8881 60.8352C91.7859 60.7017 91.6467 60.5923 91.4705 60.5071C91.2944 60.4219 91.0742 60.3793 90.81 60.3793C90.4492 60.3793 90.1481 60.4602 89.9066 60.6222C89.6651 60.7812 89.5444 60.9872 89.5444 61.2401C89.5444 61.4588 89.6254 61.6349 89.7873 61.7685C89.9492 61.902 90.2106 62.0114 90.5714 62.0966L91.6112 62.3352C92.2134 62.4744 92.6623 62.6889 92.9577 62.9787C93.2532 63.2685 93.4009 63.6449 93.4009 64.108C93.4009 64.5 93.2873 64.8494 93.06 65.1562C92.8356 65.4602 92.5217 65.6989 92.1183 65.8722C91.7177 66.0455 91.2532 66.1321 90.7248 66.1321C89.9918 66.1321 89.3938 65.9759 88.9308 65.6634C88.4677 65.348 88.1836 64.9006 88.0785 64.321L89.31 64.1335C89.3867 64.4545 89.5444 64.6974 89.783 64.8622C90.0217 65.0241 90.3327 65.1051 90.7163 65.1051C91.1339 65.1051 91.4677 65.0185 91.7177 64.8452C91.9677 64.669 92.0927 64.4545 92.0927 64.2017C92.0927 63.9972 92.016 63.8253 91.8626 63.6861C91.712 63.5469 91.4805 63.4418 91.168 63.3707L90.06 63.1278C89.4492 62.9886 88.9975 62.767 88.7049 62.4631C88.4151 62.1591 88.2702 61.7741 88.2702 61.3082C88.2702 60.9219 88.3782 60.5838 88.5941 60.294C88.81 60.0043 89.1083 59.7784 89.489 59.6165C89.8697 59.4517 90.3058 59.3693 90.7972 59.3693C91.5046 59.3693 92.0614 59.5227 92.4677 59.8295C92.8739 60.1335 93.1424 60.5412 93.2731 61.0526ZM95.9737 63.7798L95.9652 62.2244H96.1868L98.7947 59.4545H100.32L97.3459 62.608H97.1456L95.9737 63.7798ZM94.8018 66V57.2727H96.076V66H94.8018ZM98.9354 66L96.5916 62.8892L97.4695 61.9986L100.499 66H98.9354ZM104.033 66.1321C103.388 66.1321 102.833 65.9943 102.367 65.7188C101.904 65.4403 101.546 65.0497 101.293 64.5469C101.043 64.0412 100.918 63.4489 100.918 62.7699C100.918 62.0994 101.043 61.5085 101.293 60.9972C101.546 60.4858 101.898 60.0866 102.35 59.7997C102.804 59.5128 103.336 59.3693 103.944 59.3693C104.313 59.3693 104.671 59.4304 105.017 59.5526C105.364 59.6747 105.675 59.8665 105.951 60.1278C106.226 60.3892 106.444 60.7287 106.603 61.1463C106.762 61.5611 106.841 62.0653 106.841 62.6591V63.1108H101.638V62.1562H105.593C105.593 61.821 105.525 61.5241 105.388 61.2656C105.252 61.0043 105.06 60.7983 104.813 60.6477C104.569 60.4972 104.282 60.4219 103.952 60.4219C103.594 60.4219 103.282 60.5099 103.015 60.6861C102.75 60.8594 102.546 61.0866 102.401 61.3679C102.259 61.6463 102.188 61.9489 102.188 62.2756V63.0213C102.188 63.4588 102.265 63.831 102.418 64.1378C102.574 64.4446 102.792 64.679 103.07 64.8409C103.348 65 103.674 65.0795 104.046 65.0795C104.287 65.0795 104.507 65.0455 104.706 64.9773C104.905 64.9062 105.077 64.8011 105.222 64.6619C105.367 64.5227 105.478 64.3509 105.554 64.1463L106.76 64.3636C106.664 64.7187 106.49 65.0298 106.24 65.2969C105.993 65.5611 105.682 65.767 105.307 65.9148C104.935 66.0597 104.51 66.1321 104.033 66.1321ZM103.368 58.581L104.365 56.6165H105.708L104.387 58.581H103.368ZM111.431 59.4545H112.705V66.4261C112.705 66.8636 112.625 67.233 112.466 67.5341C112.31 67.8352 112.077 68.0639 111.767 68.2202C111.461 68.3764 111.081 68.4545 110.63 68.4545C110.584 68.4545 110.542 68.4545 110.502 68.4545C110.459 68.4545 110.415 68.4531 110.37 68.4503V67.3551C110.409 67.3551 110.445 67.3551 110.476 67.3551C110.505 67.3551 110.537 67.3551 110.574 67.3551C110.875 67.3551 111.093 67.2741 111.226 67.1122C111.363 66.9531 111.431 66.7216 111.431 66.4176V59.4545ZM112.061 58.4446C111.84 58.4446 111.65 58.3707 111.49 58.223C111.334 58.0724 111.256 57.8935 111.256 57.6861C111.256 57.4759 111.334 57.2969 111.49 57.1491C111.65 56.9986 111.84 56.9233 112.061 56.9233C112.283 56.9233 112.472 56.9986 112.628 57.1491C112.787 57.2969 112.867 57.4759 112.867 57.6861C112.867 57.8935 112.787 58.0724 112.628 58.223C112.472 58.3707 112.283 58.4446 112.061 58.4446ZM114.419 66V59.4545H115.642V60.5199H115.723C115.859 60.1591 116.082 59.8778 116.392 59.6761C116.702 59.4716 117.072 59.3693 117.504 59.3693C117.942 59.3693 118.308 59.4716 118.604 59.6761C118.902 59.8807 119.122 60.1619 119.264 60.5199H119.332C119.489 60.1705 119.737 59.892 120.078 59.6847C120.419 59.4744 120.825 59.3693 121.297 59.3693C121.891 59.3693 122.375 59.5554 122.75 59.9276C123.128 60.2997 123.317 60.8608 123.317 61.6108V66H122.043V61.7301C122.043 61.2869 121.922 60.9659 121.68 60.767C121.439 60.5682 121.151 60.4688 120.815 60.4688C120.401 60.4688 120.078 60.5966 119.848 60.8523C119.618 61.1051 119.503 61.4304 119.503 61.8281V66H118.233V61.6491C118.233 61.294 118.122 61.0085 117.901 60.7926C117.679 60.5767 117.391 60.4688 117.036 60.4688C116.794 60.4688 116.571 60.5327 116.366 60.6605C116.165 60.7855 116.001 60.9602 115.876 61.1847C115.754 61.4091 115.693 61.669 115.693 61.9645V66H114.419ZM127.846 66.1321C127.201 66.1321 126.645 65.9943 126.179 65.7188C125.716 65.4403 125.358 65.0497 125.105 64.5469C124.855 64.0412 124.73 63.4489 124.73 62.7699C124.73 62.0994 124.855 61.5085 125.105 60.9972C125.358 60.4858 125.711 60.0866 126.162 59.7997C126.617 59.5128 127.148 59.3693 127.756 59.3693C128.125 59.3693 128.483 59.4304 128.83 59.5526C129.176 59.6747 129.488 59.8665 129.763 60.1278C130.039 60.3892 130.256 60.7287 130.415 61.1463C130.574 61.5611 130.654 62.0653 130.654 62.6591V63.1108H125.451V62.1562H129.405C129.405 61.821 129.337 61.5241 129.201 61.2656C129.064 61.0043 128.873 60.7983 128.625 60.6477C128.381 60.4972 128.094 60.4219 127.765 60.4219C127.407 60.4219 127.094 60.5099 126.827 60.6861C126.563 60.8594 126.358 61.0866 126.213 61.3679C126.071 61.6463 126 61.9489 126 62.2756V63.0213C126 63.4588 126.077 63.831 126.23 64.1378C126.387 64.4446 126.604 64.679 126.882 64.8409C127.161 65 127.486 65.0795 127.858 65.0795C128.1 65.0795 128.32 65.0455 128.519 64.9773C128.718 64.9062 128.89 64.8011 129.034 64.6619C129.179 64.5227 129.29 64.3509 129.367 64.1463L130.573 64.3636C130.476 64.7187 130.303 65.0298 130.053 65.2969C129.806 65.5611 129.495 65.767 129.12 65.9148C128.748 66.0597 128.323 66.1321 127.846 66.1321ZM127.181 58.581L128.178 56.6165H129.52L128.199 58.581H127.181ZM133.342 62.1136V66H132.067V59.4545H133.29V60.5199H133.371C133.522 60.1733 133.758 59.8949 134.079 59.6847C134.403 59.4744 134.81 59.3693 135.302 59.3693C135.748 59.3693 136.138 59.4631 136.474 59.6506C136.809 59.8352 137.069 60.1108 137.254 60.4773C137.438 60.8437 137.531 61.2969 137.531 61.8366V66H136.256V61.9901C136.256 61.5156 136.133 61.1449 135.886 60.8778C135.638 60.608 135.299 60.473 134.867 60.473C134.572 60.473 134.309 60.5369 134.079 60.6648C133.852 60.7926 133.671 60.9801 133.538 61.2273C133.407 61.4716 133.342 61.767 133.342 62.1136ZM141.996 66.1321C141.383 66.1321 140.847 65.9915 140.39 65.7102C139.933 65.429 139.577 65.0355 139.325 64.5298C139.072 64.0241 138.945 63.4332 138.945 62.7571C138.945 62.0781 139.072 61.4844 139.325 60.9759C139.577 60.4673 139.933 60.0724 140.39 59.7912C140.847 59.5099 141.383 59.3693 141.996 59.3693C142.61 59.3693 143.146 59.5099 143.603 59.7912C144.06 60.0724 144.415 60.4673 144.668 60.9759C144.921 61.4844 145.048 62.0781 145.048 62.7571C145.048 63.4332 144.921 64.0241 144.668 64.5298C144.415 65.0355 144.06 65.429 143.603 65.7102C143.146 65.9915 142.61 66.1321 141.996 66.1321ZM142.001 65.0625C142.398 65.0625 142.728 64.9574 142.989 64.7472C143.251 64.5369 143.444 64.2571 143.569 63.9077C143.697 63.5582 143.761 63.1733 143.761 62.7528C143.761 62.3352 143.697 61.9517 143.569 61.6023C143.444 61.25 143.251 60.9673 142.989 60.7543C142.728 60.5412 142.398 60.4347 142.001 60.4347C141.6 60.4347 141.268 60.5412 141.004 60.7543C140.742 60.9673 140.548 61.25 140.42 61.6023C140.295 61.9517 140.232 62.3352 140.232 62.7528C140.232 63.1733 140.295 63.5582 140.42 63.9077C140.548 64.2571 140.742 64.5369 141.004 64.7472C141.268 64.9574 141.6 65.0625 142.001 65.0625ZM149.646 59.4545H150.92V66.4261C150.92 66.8636 150.84 67.233 150.681 67.5341C150.525 67.8352 150.292 68.0639 149.982 68.2202C149.675 68.3764 149.296 68.4545 148.844 68.4545C148.799 68.4545 148.756 68.4545 148.717 68.4545C148.674 68.4545 148.63 68.4531 148.585 68.4503V67.3551C148.624 67.3551 148.66 67.3551 148.691 67.3551C148.719 67.3551 148.752 67.3551 148.789 67.3551C149.09 67.3551 149.308 67.2741 149.441 67.1122C149.577 66.9531 149.646 66.7216 149.646 66.4176V59.4545ZM150.276 58.4446C150.055 58.4446 149.864 58.3707 149.705 58.223C149.549 58.0724 149.471 57.8935 149.471 57.6861C149.471 57.4759 149.549 57.2969 149.705 57.1491C149.864 56.9986 150.055 56.9233 150.276 56.9233C150.498 56.9233 150.687 56.9986 150.843 57.1491C151.002 57.2969 151.082 57.4759 151.082 57.6861C151.082 57.8935 151.002 58.0724 150.843 58.223C150.687 58.3707 150.498 58.4446 150.276 58.4446ZM155.455 66.1321C154.81 66.1321 154.255 65.9943 153.789 65.7188C153.326 65.4403 152.968 65.0497 152.715 64.5469C152.465 64.0412 152.34 63.4489 152.34 62.7699C152.34 62.0994 152.465 61.5085 152.715 60.9972C152.968 60.4858 153.32 60.0866 153.772 59.7997C154.226 59.5128 154.757 59.3693 155.365 59.3693C155.735 59.3693 156.093 59.4304 156.439 59.5526C156.786 59.6747 157.097 59.8665 157.373 60.1278C157.648 60.3892 157.865 60.7287 158.025 61.1463C158.184 61.5611 158.263 62.0653 158.263 62.6591V63.1108H153.06V62.1562H157.015C157.015 61.821 156.946 61.5241 156.81 61.2656C156.674 61.0043 156.482 60.7983 156.235 60.6477C155.99 60.4972 155.703 60.4219 155.374 60.4219C155.016 60.4219 154.703 60.5099 154.436 60.6861C154.172 60.8594 153.968 61.0866 153.823 61.3679C153.681 61.6463 153.61 61.9489 153.61 62.2756V63.0213C153.61 63.4588 153.686 63.831 153.84 64.1378C153.996 64.4446 154.213 64.679 154.492 64.8409C154.77 65 155.096 65.0795 155.468 65.0795C155.709 65.0795 155.929 65.0455 156.128 64.9773C156.327 64.9062 156.499 64.8011 156.644 64.6619C156.789 64.5227 156.9 64.3509 156.976 64.1463L158.182 64.3636C158.086 64.7187 157.912 65.0298 157.662 65.2969C157.415 65.5611 157.104 65.767 156.729 65.9148C156.357 66.0597 155.932 66.1321 155.455 66.1321ZM168.452 59.4545L166.078 66H164.715L162.337 59.4545H163.705L165.363 64.4915H165.431L167.084 59.4545H168.452ZM172.184 66.1321C171.57 66.1321 171.035 65.9915 170.577 65.7102C170.12 65.429 169.765 65.0355 169.512 64.5298C169.259 64.0241 169.133 63.4332 169.133 62.7571C169.133 62.0781 169.259 61.4844 169.512 60.9759C169.765 60.4673 170.12 60.0724 170.577 59.7912C171.035 59.5099 171.57 59.3693 172.184 59.3693C172.798 59.3693 173.333 59.5099 173.79 59.7912C174.248 60.0724 174.603 60.4673 174.856 60.9759C175.109 61.4844 175.235 62.0781 175.235 62.7571C175.235 63.4332 175.109 64.0241 174.856 64.5298C174.603 65.0355 174.248 65.429 173.79 65.7102C173.333 65.9915 172.798 66.1321 172.184 66.1321ZM172.188 65.0625C172.586 65.0625 172.915 64.9574 173.177 64.7472C173.438 64.5369 173.631 64.2571 173.756 63.9077C173.884 63.5582 173.948 63.1733 173.948 62.7528C173.948 62.3352 173.884 61.9517 173.756 61.6023C173.631 61.25 173.438 60.9673 173.177 60.7543C172.915 60.5412 172.586 60.4347 172.188 60.4347C171.788 60.4347 171.455 60.5412 171.191 60.7543C170.93 60.9673 170.735 61.25 170.607 61.6023C170.482 61.9517 170.42 62.3352 170.42 62.7528C170.42 63.1733 170.482 63.5582 170.607 63.9077C170.735 64.2571 170.93 64.5369 171.191 64.7472C171.455 64.9574 171.788 65.0625 172.188 65.0625ZM177.931 57.2727V66H176.657V57.2727H177.931ZM180.92 62.1136V66H179.646V59.4545H180.869V60.5199H180.95C181.1 60.1733 181.336 59.8949 181.657 59.6847C181.981 59.4744 182.388 59.3693 182.88 59.3693C183.326 59.3693 183.717 59.4631 184.052 59.6506C184.387 59.8352 184.647 60.1108 184.832 60.4773C185.016 60.8437 185.109 61.2969 185.109 61.8366V66H183.835V61.9901C183.835 61.5156 183.711 61.1449 183.464 60.8778C183.217 60.608 182.877 60.473 182.445 60.473C182.15 60.473 181.887 60.5369 181.657 60.6648C181.43 60.7926 181.249 60.9801 181.116 61.2273C180.985 61.4716 180.92 61.767 180.92 62.1136ZM189.638 66.1321C188.994 66.1321 188.438 65.9943 187.972 65.7188C187.509 65.4403 187.151 65.0497 186.898 64.5469C186.648 64.0412 186.523 63.4489 186.523 62.7699C186.523 62.0994 186.648 61.5085 186.898 60.9972C187.151 60.4858 187.504 60.0866 187.955 59.7997C188.41 59.5128 188.941 59.3693 189.549 59.3693C189.918 59.3693 190.276 59.4304 190.623 59.5526C190.969 59.6747 191.281 59.8665 191.556 60.1278C191.832 60.3892 192.049 60.7287 192.208 61.1463C192.367 61.5611 192.447 62.0653 192.447 62.6591V63.1108H187.244V62.1562H191.198C191.198 61.821 191.13 61.5241 190.994 61.2656C190.857 61.0043 190.665 60.7983 190.418 60.6477C190.174 60.4972 189.887 60.4219 189.558 60.4219C189.2 60.4219 188.887 60.5099 188.62 60.6861C188.356 60.8594 188.151 61.0866 188.006 61.3679C187.864 61.6463 187.793 61.9489 187.793 62.2756V63.0213C187.793 63.4588 187.87 63.831 188.023 64.1378C188.18 64.4446 188.397 64.679 188.675 64.8409C188.954 65 189.279 65.0795 189.651 65.0795C189.893 65.0795 190.113 65.0455 190.312 64.9773C190.511 64.9062 190.683 64.8011 190.827 64.6619C190.972 64.5227 191.083 64.3509 191.16 64.1463L192.366 64.3636C192.269 64.7187 192.096 65.0298 191.846 65.2969C191.599 65.5611 191.288 65.767 190.913 65.9148C190.54 66.0597 190.116 66.1321 189.638 66.1321ZM188.974 58.581L189.971 56.6165H191.313L189.992 58.581H188.974Z" fill="#1FE03E"/>
<path d="M5.5 56.6875C4.54818 56.6875 3.61773 56.9697 2.82632 57.4986C2.03491 58.0274 1.41808 58.779 1.05383 59.6583C0.689585 60.5377 0.594282 61.5053 0.779973 62.4389C0.965664 63.3724 1.42401 64.2299 2.09705 64.903C2.77009 65.576 3.6276 66.0343 4.56113 66.22C5.49466 66.4057 6.4623 66.3104 7.34167 65.9462C8.22104 65.5819 8.97265 64.9651 9.50145 64.1737C10.0303 63.3823 10.3125 62.4518 10.3125 61.5C10.3125 60.2236 9.80547 58.9996 8.90295 58.097C8.00043 57.1945 6.77636 56.6875 5.5 56.6875V56.6875ZM4.8125 63.4216L3.09375 61.7028L3.64031 61.1562L4.8125 62.3284L7.35969 59.7812L7.90831 60.3264L4.8125 63.4216Z" fill="#1FE03E"/>
<rect x="0.5" y="100.5" width="267" height="35" rx="1.5" fill="#EBF2F4" stroke="#E01F36"/>
<path d="M15.4545 118.909L15.5455 116.409L13.4318 117.75L12.8864 116.795L15.1136 115.636L12.8864 114.477L13.4318 113.523L15.5455 114.864L15.4545 112.364H16.5455L16.4545 114.864L18.5682 113.523L19.1136 114.477L16.8864 115.636L19.1136 116.795L18.5682 117.75L16.4545 116.409L16.5455 118.909H15.4545ZM23.4545 118.909L23.5455 116.409L21.4318 117.75L20.8864 116.795L23.1136 115.636L20.8864 114.477L21.4318 113.523L23.5455 114.864L23.4545 112.364H24.5455L24.4545 114.864L26.5682 113.523L27.1136 114.477L24.8864 115.636L27.1136 116.795L26.5682 117.75L24.4545 116.409L24.5455 118.909H23.4545ZM31.4545 118.909L31.5455 116.409L29.4318 117.75L28.8864 116.795L31.1136 115.636L28.8864 114.477L29.4318 113.523L31.5455 114.864L31.4545 112.364H32.5455L32.4545 114.864L34.5682 113.523L35.1136 114.477L32.8864 115.636L35.1136 116.795L34.5682 117.75L32.4545 116.409L32.5455 118.909H31.4545Z" fill="#2E2F30"/>
<path d="M0.860795 94V85.2727H2.44176V88.9673H6.4858V85.2727H8.07102V94H6.4858V90.2926H2.44176V94H0.860795ZM12.62 94.1278C11.9638 94.1278 11.397 93.9915 10.9197 93.7188C10.4453 93.4432 10.0803 93.054 9.82457 92.5511C9.56889 92.0455 9.44105 91.4503 9.44105 90.7656C9.44105 90.0923 9.56889 89.5014 9.82457 88.9929C10.0831 88.4815 10.4439 88.0838 10.907 87.7997C11.37 87.5128 11.9141 87.3693 12.5391 87.3693C12.9425 87.3693 13.3232 87.4347 13.6811 87.5653C14.0419 87.6932 14.3601 87.892 14.6357 88.1619C14.9141 88.4318 15.1328 88.7756 15.2919 89.1932C15.451 89.608 15.5305 90.1023 15.5305 90.6761V91.1491H10.1655V90.1094H14.0518C14.049 89.8139 13.9851 89.5511 13.8601 89.321C13.7351 89.0881 13.5604 88.9048 13.3359 88.7713C13.1143 88.6378 12.8558 88.571 12.5604 88.571C12.245 88.571 11.968 88.6477 11.7294 88.8011C11.4908 88.9517 11.3047 89.1506 11.1712 89.3977C11.0405 89.642 10.9737 89.9105 10.9709 90.2031V91.1108C10.9709 91.4915 11.0405 91.8182 11.1797 92.0909C11.3189 92.3608 11.5135 92.5682 11.7635 92.7131C12.0135 92.8551 12.3061 92.9261 12.6413 92.9261C12.8658 92.9261 13.0689 92.8949 13.2507 92.8324C13.4325 92.767 13.5902 92.6719 13.7237 92.5469C13.8572 92.4219 13.9581 92.267 14.0263 92.0824L15.4666 92.2443C15.3757 92.625 15.2024 92.9574 14.9467 93.2415C14.6939 93.5227 14.37 93.7415 13.9751 93.8977C13.5803 94.0511 13.1286 94.1278 12.62 94.1278ZM22.0089 89.1847L20.6026 89.3381C20.5629 89.196 20.4933 89.0625 20.3938 88.9375C20.2972 88.8125 20.1665 88.7116 20.0018 88.6349C19.837 88.5582 19.6353 88.5199 19.3967 88.5199C19.0756 88.5199 18.8058 88.5895 18.587 88.7287C18.3711 88.8679 18.2646 89.0483 18.2674 89.2699C18.2646 89.4602 18.3342 89.6151 18.4762 89.7344C18.6211 89.8537 18.8597 89.9517 19.1921 90.0284L20.3086 90.267C20.9279 90.4006 21.3881 90.6122 21.6893 90.902C21.9933 91.1918 22.1467 91.571 22.1495 92.0398C22.1467 92.4517 22.0259 92.8153 21.7873 93.1307C21.5515 93.4432 21.2234 93.6875 20.8029 93.8636C20.3825 94.0398 19.8995 94.1278 19.354 94.1278C18.5529 94.1278 17.908 93.9602 17.4194 93.625C16.9308 93.2869 16.6396 92.8168 16.5458 92.2145L18.0501 92.0696C18.1183 92.3651 18.2631 92.5881 18.4847 92.7386C18.7063 92.8892 18.9947 92.9645 19.3498 92.9645C19.7163 92.9645 20.0103 92.8892 20.2319 92.7386C20.4563 92.5881 20.5685 92.402 20.5685 92.1804C20.5685 91.9929 20.4961 91.8381 20.3512 91.7159C20.2092 91.5937 19.9876 91.5 19.6864 91.4347L18.57 91.2003C17.9421 91.0696 17.4776 90.8494 17.1765 90.5398C16.8754 90.2273 16.7262 89.8324 16.729 89.3551C16.7262 88.9517 16.8356 88.6023 17.0572 88.3068C17.2816 88.0085 17.5927 87.7784 17.9904 87.6165C18.391 87.4517 18.8526 87.3693 19.3754 87.3693C20.1424 87.3693 20.7461 87.5327 21.1864 87.8594C21.6296 88.1861 21.9038 88.6278 22.0089 89.1847ZM24.9641 85.2727V94H23.4215V85.2727H24.9641ZM29.4055 94.1278C28.7663 94.1278 28.2124 93.9872 27.7436 93.706C27.2749 93.4247 26.9112 93.0312 26.6527 92.5256C26.397 92.0199 26.2692 91.429 26.2692 90.7528C26.2692 90.0767 26.397 89.4844 26.6527 88.9759C26.9112 88.4673 27.2749 88.0724 27.7436 87.7912C28.2124 87.5099 28.7663 87.3693 29.4055 87.3693C30.0447 87.3693 30.5987 87.5099 31.0675 87.7912C31.5362 88.0724 31.8984 88.4673 32.1541 88.9759C32.4126 89.4844 32.5419 90.0767 32.5419 90.7528C32.5419 91.429 32.4126 92.0199 32.1541 92.5256C31.8984 93.0312 31.5362 93.4247 31.0675 93.706C30.5987 93.9872 30.0447 94.1278 29.4055 94.1278ZM29.4141 92.892C29.7607 92.892 30.0504 92.7969 30.2834 92.6065C30.5163 92.4134 30.6896 92.1548 30.8033 91.831C30.9197 91.5071 30.978 91.1463 30.978 90.7486C30.978 90.348 30.9197 89.9858 30.8033 89.6619C30.6896 89.3352 30.5163 89.0753 30.2834 88.8821C30.0504 88.6889 29.7607 88.5923 29.4141 88.5923C29.0589 88.5923 28.7635 88.6889 28.5277 88.8821C28.2947 89.0753 28.12 89.3352 28.0036 89.6619C27.8899 89.9858 27.8331 90.348 27.8331 90.7486C27.8331 91.1463 27.8899 91.5071 28.0036 91.831C28.12 92.1548 28.2947 92.4134 28.5277 92.6065C28.7635 92.7969 29.0589 92.892 29.4141 92.892Z" fill="#2E2F30"/>
<path d="M19.7188 143.565C19.6733 143.162 19.4858 142.849 19.1562 142.628C18.8267 142.403 18.4119 142.291 17.9119 142.291C17.554 142.291 17.2443 142.348 16.983 142.462C16.7216 142.572 16.5185 142.726 16.3736 142.922C16.2315 143.115 16.1605 143.335 16.1605 143.582C16.1605 143.79 16.2088 143.969 16.3054 144.119C16.4048 144.27 16.5341 144.396 16.6932 144.499C16.8551 144.598 17.0284 144.682 17.2131 144.75C17.3977 144.815 17.5753 144.869 17.7457 144.912L18.598 145.134C18.8764 145.202 19.1619 145.294 19.4545 145.411C19.7472 145.527 20.0185 145.68 20.2685 145.871C20.5185 146.061 20.7202 146.297 20.8736 146.578C21.0298 146.859 21.108 147.196 21.108 147.588C21.108 148.082 20.9801 148.521 20.7244 148.905C20.4716 149.288 20.1037 149.591 19.6207 149.812C19.1406 150.034 18.5597 150.145 17.8778 150.145C17.2244 150.145 16.6591 150.041 16.1818 149.834C15.7045 149.626 15.331 149.332 15.0611 148.952C14.7912 148.568 14.642 148.114 14.6136 147.588H15.9347C15.9602 147.903 16.0625 148.166 16.2415 148.376C16.4233 148.584 16.6548 148.739 16.9361 148.841C17.2202 148.94 17.5312 148.99 17.8693 148.99C18.2415 148.99 18.5724 148.932 18.8622 148.815C19.1548 148.696 19.3849 148.531 19.5526 148.321C19.7202 148.108 19.804 147.859 19.804 147.575C19.804 147.317 19.7301 147.105 19.5824 146.94C19.4375 146.776 19.2401 146.639 18.9901 146.531C18.7429 146.423 18.4631 146.328 18.1506 146.246L17.1193 145.964C16.4205 145.774 15.8665 145.494 15.4574 145.125C15.0511 144.756 14.848 144.267 14.848 143.659C14.848 143.156 14.9844 142.717 15.2571 142.342C15.5298 141.967 15.8991 141.676 16.3651 141.469C16.831 141.259 17.3565 141.153 17.9418 141.153C18.5327 141.153 19.054 141.257 19.5057 141.464C19.9602 141.672 20.3182 141.957 20.5795 142.321C20.8409 142.682 20.9773 143.097 20.9886 143.565H19.7188ZM23.8533 141.273V150H22.5792V141.273H23.8533ZM27.4723 150.145C27.0575 150.145 26.6825 150.068 26.3473 149.915C26.0121 149.759 25.7464 149.533 25.5504 149.237C25.3572 148.942 25.2607 148.58 25.2607 148.151C25.2607 147.781 25.3317 147.477 25.4737 147.239C25.6158 147 25.8075 146.811 26.049 146.672C26.2905 146.533 26.5604 146.428 26.8587 146.357C27.157 146.286 27.4609 146.232 27.7706 146.195C28.1626 146.149 28.4808 146.112 28.7251 146.084C28.9695 146.053 29.147 146.003 29.2578 145.935C29.3686 145.866 29.424 145.756 29.424 145.602V145.572C29.424 145.2 29.3189 144.912 29.1087 144.707C28.9013 144.503 28.5916 144.401 28.1797 144.401C27.7507 144.401 27.4126 144.496 27.1655 144.686C26.9212 144.874 26.7521 145.082 26.6584 145.312L25.4609 145.04C25.603 144.642 25.8104 144.321 26.0831 144.077C26.3587 143.83 26.6754 143.651 27.0334 143.54C27.3913 143.426 27.7678 143.369 28.1626 143.369C28.424 143.369 28.701 143.401 28.9936 143.463C29.2891 143.523 29.5646 143.634 29.8203 143.795C30.0788 143.957 30.2905 144.189 30.4553 144.49C30.62 144.788 30.7024 145.176 30.7024 145.653V150H29.4581V149.105H29.407C29.3246 149.27 29.201 149.432 29.0362 149.591C28.8714 149.75 28.6598 149.882 28.4013 149.987C28.1428 150.092 27.8331 150.145 27.4723 150.145ZM27.7493 149.122C28.1016 149.122 28.4027 149.053 28.6527 148.913C28.9055 148.774 29.0973 148.592 29.228 148.368C29.3615 148.141 29.4283 147.898 29.4283 147.639V146.795C29.3828 146.841 29.2947 146.884 29.1641 146.923C29.0362 146.96 28.8899 146.993 28.7251 147.021C28.5604 147.047 28.3999 147.071 28.2436 147.094C28.0874 147.114 27.9567 147.131 27.8516 147.145C27.6044 147.176 27.3786 147.229 27.174 147.303C26.9723 147.376 26.8104 147.483 26.6882 147.622C26.5689 147.759 26.5092 147.94 26.5092 148.168C26.5092 148.483 26.6257 148.722 26.8587 148.884C27.0916 149.043 27.3885 149.122 27.7493 149.122ZM32.5018 150V141.273H33.7759V144.516H33.8526C33.9265 144.379 34.033 144.222 34.1722 144.043C34.3114 143.864 34.5046 143.707 34.7518 143.574C34.9989 143.438 35.3256 143.369 35.7319 143.369C36.2603 143.369 36.7319 143.503 37.1467 143.77C37.5614 144.037 37.8867 144.422 38.1225 144.925C38.3612 145.428 38.4805 146.033 38.4805 146.74C38.4805 147.447 38.3626 148.054 38.1268 148.56C37.891 149.062 37.5671 149.45 37.1552 149.723C36.7433 149.993 36.2731 150.128 35.7447 150.128C35.3469 150.128 35.0217 150.061 34.7688 149.928C34.5188 149.794 34.3228 149.638 34.1808 149.459C34.0387 149.28 33.9293 149.121 33.8526 148.982H33.7461V150H32.5018ZM33.7504 146.727C33.7504 147.187 33.8171 147.591 33.9506 147.938C34.0842 148.284 34.2773 148.555 34.5302 148.751C34.783 148.945 35.0927 149.041 35.4592 149.041C35.8398 149.041 36.158 148.94 36.4137 148.739C36.6694 148.534 36.8626 148.257 36.9933 147.908C37.1268 147.558 37.1935 147.165 37.1935 146.727C37.1935 146.295 37.1282 145.908 36.9975 145.564C36.8697 145.22 36.6765 144.949 36.418 144.75C36.1623 144.551 35.8427 144.452 35.4592 144.452C35.0898 144.452 34.7773 144.547 34.5217 144.737C34.2688 144.928 34.0771 145.193 33.9464 145.534C33.8157 145.875 33.7504 146.273 33.7504 146.727ZM42.7322 150.132C42.0874 150.132 41.532 149.994 41.0661 149.719C40.603 149.44 40.245 149.05 39.9922 148.547C39.7422 148.041 39.6172 147.449 39.6172 146.77C39.6172 146.099 39.7422 145.509 39.9922 144.997C40.245 144.486 40.5973 144.087 41.049 143.8C41.5036 143.513 42.0348 143.369 42.6428 143.369C43.0121 143.369 43.37 143.43 43.7166 143.553C44.0632 143.675 44.3743 143.866 44.6499 144.128C44.9254 144.389 45.1428 144.729 45.3018 145.146C45.4609 145.561 45.5405 146.065 45.5405 146.659V147.111H40.3374V146.156H44.2919C44.2919 145.821 44.2237 145.524 44.0874 145.266C43.951 145.004 43.7592 144.798 43.5121 144.648C43.2678 144.497 42.9808 144.422 42.6513 144.422C42.2933 144.422 41.9808 144.51 41.7138 144.686C41.4496 144.859 41.245 145.087 41.1001 145.368C40.9581 145.646 40.8871 145.949 40.8871 146.276V147.021C40.8871 147.459 40.9638 147.831 41.1172 148.138C41.2734 148.445 41.4908 148.679 41.7692 148.841C42.0476 149 42.3729 149.08 42.745 149.08C42.9865 149.08 43.2067 149.045 43.4055 148.977C43.6044 148.906 43.7763 148.801 43.9212 148.662C44.0661 148.523 44.1768 148.351 44.2536 148.146L45.4595 148.364C45.3629 148.719 45.1896 149.03 44.9396 149.297C44.6925 149.561 44.3814 149.767 44.0064 149.915C43.6342 150.06 43.2095 150.132 42.7322 150.132ZM42.0675 142.581L43.0646 140.616H44.407L43.0859 142.581H42.0675ZM51.4041 146.114V150H50.13V141.273H51.3871V144.52H51.468C51.6214 144.168 51.8558 143.888 52.1712 143.68C52.4865 143.473 52.8984 143.369 53.407 143.369C53.8558 143.369 54.2479 143.462 54.5831 143.646C54.9212 143.831 55.1825 144.107 55.3672 144.473C55.5547 144.837 55.6484 145.291 55.6484 145.837V150H54.3743V145.99C54.3743 145.51 54.2507 145.138 54.0036 144.874C53.7564 144.607 53.4126 144.473 52.9723 144.473C52.6712 144.473 52.4013 144.537 52.1626 144.665C51.9268 144.793 51.7408 144.98 51.6044 145.227C51.4709 145.472 51.4041 145.767 51.4041 146.114ZM60.1697 150.132C59.5249 150.132 58.9695 149.994 58.5036 149.719C58.0405 149.44 57.6825 149.05 57.4297 148.547C57.1797 148.041 57.0547 147.449 57.0547 146.77C57.0547 146.099 57.1797 145.509 57.4297 144.997C57.6825 144.486 58.0348 144.087 58.4865 143.8C58.9411 143.513 59.4723 143.369 60.0803 143.369C60.4496 143.369 60.8075 143.43 61.1541 143.553C61.5007 143.675 61.8118 143.866 62.0874 144.128C62.3629 144.389 62.5803 144.729 62.7393 145.146C62.8984 145.561 62.978 146.065 62.978 146.659V147.111H57.7749V146.156H61.7294C61.7294 145.821 61.6612 145.524 61.5249 145.266C61.3885 145.004 61.1967 144.798 60.9496 144.648C60.7053 144.497 60.4183 144.422 60.0888 144.422C59.7308 144.422 59.4183 144.51 59.1513 144.686C58.8871 144.859 58.6825 145.087 58.5376 145.368C58.3956 145.646 58.3246 145.949 58.3246 146.276V147.021C58.3246 147.459 58.4013 147.831 58.5547 148.138C58.7109 148.445 58.9283 148.679 59.2067 148.841C59.4851 149 59.8104 149.08 60.1825 149.08C60.424 149.08 60.6442 149.045 60.843 148.977C61.0419 148.906 61.2138 148.801 61.3587 148.662C61.5036 148.523 61.6143 148.351 61.6911 148.146L62.897 148.364C62.8004 148.719 62.6271 149.03 62.3771 149.297C62.13 149.561 61.8189 149.767 61.4439 149.915C61.0717 150.06 60.647 150.132 60.1697 150.132ZM69.2965 145.053L68.1417 145.257C68.0934 145.109 68.0167 144.969 67.9116 144.835C67.8093 144.702 67.6701 144.592 67.494 144.507C67.3178 144.422 67.0977 144.379 66.8335 144.379C66.4727 144.379 66.1715 144.46 65.93 144.622C65.6886 144.781 65.5678 144.987 65.5678 145.24C65.5678 145.459 65.6488 145.635 65.8107 145.768C65.9727 145.902 66.234 146.011 66.5948 146.097L67.6346 146.335C68.2369 146.474 68.6857 146.689 68.9812 146.979C69.2766 147.268 69.4244 147.645 69.4244 148.108C69.4244 148.5 69.3107 148.849 69.0835 149.156C68.859 149.46 68.5451 149.699 68.1417 149.872C67.7411 150.045 67.2766 150.132 66.7482 150.132C66.0153 150.132 65.4173 149.976 64.9542 149.663C64.4911 149.348 64.207 148.901 64.1019 148.321L65.3335 148.134C65.4102 148.455 65.5678 148.697 65.8065 148.862C66.0451 149.024 66.3562 149.105 66.7397 149.105C67.1573 149.105 67.4911 149.018 67.7411 148.845C67.9911 148.669 68.1161 148.455 68.1161 148.202C68.1161 147.997 68.0394 147.825 67.886 147.686C67.7354 147.547 67.5039 147.442 67.1914 147.371L66.0835 147.128C65.4727 146.989 65.021 146.767 64.7283 146.463C64.4386 146.159 64.2937 145.774 64.2937 145.308C64.2937 144.922 64.4016 144.584 64.6175 144.294C64.8335 144.004 65.1317 143.778 65.5124 143.616C65.8931 143.452 66.3292 143.369 66.8207 143.369C67.5281 143.369 68.0849 143.523 68.4911 143.83C68.8974 144.134 69.1658 144.541 69.2965 145.053ZM72.0994 141.273V150H70.8253V141.273H72.0994ZM76.5707 150.132C75.957 150.132 75.4215 149.991 74.9641 149.71C74.5067 149.429 74.1516 149.036 73.8988 148.53C73.646 148.024 73.5195 147.433 73.5195 146.757C73.5195 146.078 73.646 145.484 73.8988 144.976C74.1516 144.467 74.5067 144.072 74.9641 143.791C75.4215 143.51 75.957 143.369 76.5707 143.369C77.1843 143.369 77.7198 143.51 78.1772 143.791C78.6346 144.072 78.9897 144.467 79.2425 144.976C79.4954 145.484 79.6218 146.078 79.6218 146.757C79.6218 147.433 79.4954 148.024 79.2425 148.53C78.9897 149.036 78.6346 149.429 78.1772 149.71C77.7198 149.991 77.1843 150.132 76.5707 150.132ZM76.5749 149.062C76.9727 149.062 77.3022 148.957 77.5636 148.747C77.8249 148.537 78.0181 148.257 78.1431 147.908C78.271 147.558 78.3349 147.173 78.3349 146.753C78.3349 146.335 78.271 145.952 78.1431 145.602C78.0181 145.25 77.8249 144.967 77.5636 144.754C77.3022 144.541 76.9727 144.435 76.5749 144.435C76.1744 144.435 75.842 144.541 75.5778 144.754C75.3164 144.967 75.1218 145.25 74.994 145.602C74.869 145.952 74.8065 146.335 74.8065 146.753C74.8065 147.173 74.869 147.558 74.994 147.908C75.1218 148.257 75.3164 148.537 75.5778 148.747C75.842 148.957 76.1744 149.062 76.5749 149.062Z" fill="#E01F36"/>
<path d="M5.5 140.688C2.85313 140.688 0.6875 142.853 0.6875 145.5C0.6875 148.147 2.85313 150.312 5.5 150.312C8.14687 150.312 10.3125 148.147 10.3125 145.5C10.3125 142.853 8.14687 140.688 5.5 140.688ZM7.35625 147.906L5.5 146.05L3.64375 147.906L3.09375 147.356L4.95 145.5L3.09375 143.644L3.64375 143.094L5.5 144.95L7.35625 143.094L7.90625 143.644L6.05 145.5L7.90625 147.356L7.35625 147.906Z" fill="#E01F36"/>
</svg>
