<svg width="268" height="52" viewBox="0 0 268 52" fill="none" xmlns="http://www.w3.org/2000/svg">
<rect y="16" width="268" height="36" rx="2" fill="#EBF2F4"/>
<path d="M0.860795 10V1.27273H6.53693V2.59801H2.44176V4.96733H6.2429V6.29261H2.44176V8.67472H6.57102V10H0.860795ZM8.08168 10V3.45455H9.55611V4.56676H9.63281C9.76918 4.19176 9.99503 3.89915 10.3104 3.68892C10.6257 3.47585 11.0021 3.36932 11.4396 3.36932C11.8828 3.36932 12.2564 3.47727 12.5604 3.69318C12.8672 3.90625 13.0831 4.19744 13.2081 4.56676H13.2763C13.4212 4.20312 13.6655 3.91335 14.0092 3.69744C14.3558 3.47869 14.7663 3.36932 15.2408 3.36932C15.843 3.36932 16.3345 3.55966 16.7152 3.94034C17.0959 4.32102 17.2862 4.87642 17.2862 5.60653V10H15.7393V5.84517C15.7393 5.43892 15.6314 5.14205 15.4155 4.95455C15.1996 4.7642 14.9354 4.66903 14.6229 4.66903C14.2507 4.66903 13.9595 4.78551 13.7493 5.01847C13.5419 5.24858 13.4382 5.5483 13.4382 5.91761V10H11.9254V5.78125C11.9254 5.44318 11.8232 5.1733 11.6186 4.97159C11.4169 4.76989 11.1527 4.66903 10.826 4.66903C10.6044 4.66903 10.4027 4.72585 10.2209 4.83949C10.0391 4.95028 9.89418 5.10795 9.78622 5.3125C9.67827 5.5142 9.62429 5.75 9.62429 6.01989V10H8.08168ZM20.7347 10.1321C20.32 10.1321 19.9464 10.0582 19.614 9.91051C19.2844 9.75994 19.0231 9.53835 18.8299 9.24574C18.6396 8.95312 18.5444 8.59233 18.5444 8.16335C18.5444 7.79403 18.6126 7.48864 18.7489 7.24716C18.8853 7.00568 19.0714 6.8125 19.3072 6.66761C19.543 6.52273 19.8086 6.41335 20.104 6.33949C20.4023 6.26278 20.7106 6.20739 21.0288 6.1733C21.4123 6.13352 21.7234 6.09801 21.962 6.06676C22.2006 6.03267 22.3739 5.98153 22.4819 5.91335C22.5927 5.84233 22.6481 5.73295 22.6481 5.58523V5.55966C22.6481 5.23864 22.5529 4.99006 22.3626 4.81392C22.1722 4.63778 21.8981 4.54972 21.5401 4.54972C21.1623 4.54972 20.8626 4.6321 20.641 4.79688C20.4222 4.96165 20.2745 5.15625 20.1978 5.38068L18.7575 5.17614C18.8711 4.77841 19.0586 4.44602 19.32 4.17898C19.5813 3.90909 19.9009 3.70739 20.2788 3.57386C20.6566 3.4375 21.0742 3.36932 21.5316 3.36932C21.8469 3.36932 22.1609 3.40625 22.4734 3.48011C22.7859 3.55398 23.0714 3.67614 23.3299 3.84659C23.5884 4.0142 23.7958 4.2429 23.9521 4.53267C24.1112 4.82244 24.1907 5.18466 24.1907 5.61932V10H22.7077V9.10085H22.6566C22.5629 9.28267 22.4308 9.45312 22.2603 9.61222C22.0927 9.76847 21.881 9.89489 21.6254 9.99148C21.3725 10.0852 21.0756 10.1321 20.7347 10.1321ZM21.1353 8.99858C21.445 8.99858 21.7134 8.9375 21.9407 8.81534C22.168 8.69034 22.3427 8.52557 22.4648 8.32102C22.5898 8.11648 22.6523 7.89347 22.6523 7.65199V6.88068C22.604 6.92045 22.5217 6.95739 22.4052 6.99148C22.2915 7.02557 22.1637 7.0554 22.0217 7.08097C21.8796 7.10653 21.739 7.12926 21.5998 7.14915C21.4606 7.16903 21.3398 7.18608 21.2376 7.20028C21.0075 7.23153 20.8015 7.28267 20.6197 7.35369C20.4379 7.42472 20.2944 7.52415 20.1893 7.65199C20.0842 7.77699 20.0316 7.93892 20.0316 8.13778C20.0316 8.42188 20.1353 8.63636 20.3427 8.78125C20.5501 8.92614 20.8143 8.99858 21.1353 8.99858ZM25.7418 10V3.45455H27.2844V10H25.7418ZM26.5174 2.52557C26.2731 2.52557 26.0629 2.4446 25.8867 2.28267C25.7106 2.1179 25.6225 1.92045 25.6225 1.69034C25.6225 1.45739 25.7106 1.25994 25.8867 1.09801C26.0629 0.933238 26.2731 0.850852 26.5174 0.850852C26.7646 0.850852 26.9748 0.933238 27.1481 1.09801C27.3242 1.25994 27.4123 1.45739 27.4123 1.69034C27.4123 1.92045 27.3242 2.1179 27.1481 2.28267C26.9748 2.4446 26.7646 2.52557 26.5174 2.52557ZM30.4134 1.27273V10H28.8707V1.27273H30.4134Z" fill="#2E2F30"/>
<g clip-path="url(#clip0_144_419)">
<path d="M24.6663 24H11.3338C10.4504 24.0026 9.60398 24.3547 8.97935 24.9793C8.35472 25.604 8.00264 26.4504 8 27.3338L8 40.6663C8 42.5013 9.5 44 11.3338 44H24.6663C25.5497 43.9977 26.3963 43.6457 27.021 43.021C27.6457 42.3963 27.9977 41.5497 28 40.6663V27.3338C28 25.5 26.5 24 24.6663 24ZM24.6663 26.5C24.8225 26.5 24.97 26.545 25.0963 26.6237L17.9988 32.4913L10.9025 26.6237C11.0314 26.5429 11.1804 26.5001 11.3325 26.5H24.665H24.6663ZM11.3338 41.5C11.2965 41.5 11.2594 41.4975 11.2225 41.4925L15.6288 35.38L15.0575 34.8088L10.5 39.3663V27.43L18 36.5L25.5 27.43V39.3663L20.9425 34.8088L20.3713 35.38L24.7775 41.4925C24.741 41.4975 24.7043 41.5 24.6675 41.5H11.335H11.3338Z" fill="#A2ACAF"/>
</g>
<defs>
<clipPath id="clip0_144_419">
<rect width="20" height="20" fill="white" transform="translate(8 24)"/>
</clipPath>
</defs>
</svg>
