<svg width="568" height="52" viewBox="0 0 568 52" fill="none" xmlns="http://www.w3.org/2000/svg">
<rect x="300" y="16" width="268" height="36" rx="2" fill="#EBF2F4"/>
<path d="M303.818 10H300.861V1.27273H303.878C304.744 1.27273 305.489 1.44744 306.111 1.79688C306.736 2.14347 307.216 2.64205 307.551 3.29261C307.886 3.94318 308.054 4.72159 308.054 5.62784C308.054 6.53693 307.885 7.31818 307.547 7.97159C307.212 8.625 306.727 9.12642 306.094 9.47585C305.463 9.82528 304.705 10 303.818 10ZM302.442 8.6321H303.741C304.349 8.6321 304.857 8.52131 305.263 8.29972C305.669 8.07528 305.974 7.74148 306.179 7.2983C306.384 6.85227 306.486 6.29545 306.486 5.62784C306.486 4.96023 306.384 4.40625 306.179 3.96591C305.974 3.52273 305.672 3.19176 305.271 2.97301C304.874 2.75142 304.379 2.64062 303.788 2.64062H302.442V8.6321ZM311.371 10.1321C310.957 10.1321 310.583 10.0582 310.251 9.91051C309.921 9.75994 309.66 9.53835 309.467 9.24574C309.276 8.95312 309.181 8.59233 309.181 8.16335C309.181 7.79403 309.249 7.48864 309.386 7.24716C309.522 7.00568 309.708 6.8125 309.944 6.66761C310.18 6.52273 310.445 6.41335 310.741 6.33949C311.039 6.26278 311.347 6.20739 311.665 6.1733C312.049 6.13352 312.36 6.09801 312.599 6.06676C312.837 6.03267 313.011 5.98153 313.119 5.91335C313.229 5.84233 313.285 5.73295 313.285 5.58523V5.55966C313.285 5.23864 313.19 4.99006 312.999 4.81392C312.809 4.63778 312.535 4.54972 312.177 4.54972C311.799 4.54972 311.499 4.6321 311.278 4.79688C311.059 4.96165 310.911 5.15625 310.835 5.38068L309.394 5.17614C309.508 4.77841 309.695 4.44602 309.957 4.17898C310.218 3.90909 310.538 3.70739 310.915 3.57386C311.293 3.4375 311.711 3.36932 312.168 3.36932C312.484 3.36932 312.798 3.40625 313.11 3.48011C313.423 3.55398 313.708 3.67614 313.967 3.84659C314.225 4.0142 314.433 4.2429 314.589 4.53267C314.748 4.82244 314.827 5.18466 314.827 5.61932V10H313.344V9.10085H313.293C313.2 9.28267 313.067 9.45312 312.897 9.61222C312.729 9.76847 312.518 9.89489 312.262 9.99148C312.009 10.0852 311.712 10.1321 311.371 10.1321ZM311.772 8.99858C312.082 8.99858 312.35 8.9375 312.577 8.81534C312.805 8.69034 312.979 8.52557 313.102 8.32102C313.227 8.11648 313.289 7.89347 313.289 7.65199V6.88068C313.241 6.92045 313.158 6.95739 313.042 6.99148C312.928 7.02557 312.8 7.0554 312.658 7.08097C312.516 7.10653 312.376 7.12926 312.237 7.14915C312.097 7.16903 311.977 7.18608 311.874 7.20028C311.644 7.23153 311.438 7.28267 311.256 7.35369C311.075 7.42472 310.931 7.52415 310.826 7.65199C310.721 7.77699 310.668 7.93892 310.668 8.13778C310.668 8.42188 310.772 8.63636 310.979 8.78125C311.187 8.92614 311.451 8.99858 311.772 8.99858ZM319.647 3.45455V4.64773H315.884V3.45455H319.647ZM316.813 1.88636H318.356V8.03125C318.356 8.23864 318.387 8.39773 318.45 8.50852C318.515 8.61648 318.6 8.69034 318.705 8.73011C318.81 8.76989 318.927 8.78977 319.055 8.78977C319.151 8.78977 319.239 8.78267 319.319 8.76847C319.401 8.75426 319.464 8.74148 319.506 8.73011L319.766 9.93608C319.684 9.96449 319.566 9.99574 319.413 10.0298C319.262 10.0639 319.077 10.0838 318.859 10.0895C318.472 10.1009 318.124 10.0426 317.815 9.91477C317.505 9.78409 317.259 9.58239 317.077 9.30966C316.898 9.03693 316.81 8.69602 316.813 8.28693V1.88636ZM325.109 7.24716V3.45455H326.652V10H325.156V8.83665H325.088C324.94 9.20312 324.697 9.50284 324.359 9.7358C324.024 9.96875 323.61 10.0852 323.119 10.0852C322.69 10.0852 322.311 9.99006 321.981 9.79972C321.654 9.60653 321.399 9.3267 321.214 8.96023C321.029 8.59091 320.937 8.14489 320.937 7.62216V3.45455H322.48V7.38352C322.48 7.7983 322.593 8.12784 322.821 8.37216C323.048 8.61648 323.346 8.73864 323.716 8.73864C323.943 8.73864 324.163 8.68324 324.376 8.57244C324.589 8.46165 324.764 8.29688 324.9 8.07812C325.039 7.85653 325.109 7.57955 325.109 7.24716ZM328.238 10V3.45455H329.712V4.56676H329.789C329.925 4.19176 330.151 3.89915 330.467 3.68892C330.782 3.47585 331.158 3.36932 331.596 3.36932C332.039 3.36932 332.413 3.47727 332.717 3.69318C333.023 3.90625 333.239 4.19744 333.364 4.56676H333.433C333.577 4.20312 333.822 3.91335 334.165 3.69744C334.512 3.47869 334.923 3.36932 335.397 3.36932C335.999 3.36932 336.491 3.55966 336.871 3.94034C337.252 4.32102 337.442 4.87642 337.442 5.60653V10H335.896V5.84517C335.896 5.43892 335.788 5.14205 335.572 4.95455C335.356 4.7642 335.092 4.66903 334.779 4.66903C334.407 4.66903 334.116 4.78551 333.906 5.01847C333.698 5.24858 333.594 5.5483 333.594 5.91761V10H332.082V5.78125C332.082 5.44318 331.979 5.1733 331.775 4.97159C331.573 4.76989 331.309 4.66903 330.982 4.66903C330.761 4.66903 330.559 4.72585 330.377 4.83949C330.195 4.95028 330.05 5.10795 329.942 5.3125C329.835 5.5142 329.781 5.75 329.781 6.01989V10H328.238ZM343.527 6.16477V10H341.984V3.45455H343.458V4.56676H343.535C343.686 4.20028 343.926 3.90909 344.255 3.69318C344.588 3.47727 344.998 3.36932 345.487 3.36932C345.939 3.36932 346.332 3.46591 346.667 3.65909C347.005 3.85227 347.267 4.1321 347.451 4.49858C347.639 4.86506 347.731 5.30966 347.728 5.83239V10H346.186V6.07102C346.186 5.63352 346.072 5.29119 345.845 5.04403C345.62 4.79687 345.309 4.6733 344.912 4.6733C344.642 4.6733 344.402 4.73295 344.191 4.85227C343.984 4.96875 343.821 5.13778 343.701 5.35938C343.585 5.58097 343.527 5.84943 343.527 6.16477ZM351.18 10.1321C350.765 10.1321 350.392 10.0582 350.059 9.91051C349.73 9.75994 349.468 9.53835 349.275 9.24574C349.085 8.95312 348.99 8.59233 348.99 8.16335C348.99 7.79403 349.058 7.48864 349.194 7.24716C349.331 7.00568 349.517 6.8125 349.752 6.66761C349.988 6.52273 350.254 6.41335 350.549 6.33949C350.848 6.26278 351.156 6.20739 351.474 6.1733C351.858 6.13352 352.169 6.09801 352.407 6.06676C352.646 6.03267 352.819 5.98153 352.927 5.91335C353.038 5.84233 353.093 5.73295 353.093 5.58523V5.55966C353.093 5.23864 352.998 4.99006 352.808 4.81392C352.618 4.63778 352.343 4.54972 351.985 4.54972C351.608 4.54972 351.308 4.6321 351.086 4.79688C350.868 4.96165 350.72 5.15625 350.643 5.38068L349.203 5.17614C349.316 4.77841 349.504 4.44602 349.765 4.17898C350.027 3.90909 350.346 3.70739 350.724 3.57386C351.102 3.4375 351.52 3.36932 351.977 3.36932C352.292 3.36932 352.606 3.40625 352.919 3.48011C353.231 3.55398 353.517 3.67614 353.775 3.84659C354.034 4.0142 354.241 4.2429 354.397 4.53267C354.556 4.82244 354.636 5.18466 354.636 5.61932V10H353.153V9.10085H353.102C353.008 9.28267 352.876 9.45312 352.706 9.61222C352.538 9.76847 352.326 9.89489 352.071 9.99148C351.818 10.0852 351.521 10.1321 351.18 10.1321ZM351.581 8.99858C351.89 8.99858 352.159 8.9375 352.386 8.81534C352.613 8.69034 352.788 8.52557 352.91 8.32102C353.035 8.11648 353.098 7.89347 353.098 7.65199V6.88068C353.049 6.92045 352.967 6.95739 352.85 6.99148C352.737 7.02557 352.609 7.0554 352.467 7.08097C352.325 7.10653 352.184 7.12926 352.045 7.14915C351.906 7.16903 351.785 7.18608 351.683 7.20028C351.453 7.23153 351.247 7.28267 351.065 7.35369C350.883 7.42472 350.74 7.52415 350.635 7.65199C350.529 7.77699 350.477 7.93892 350.477 8.13778C350.477 8.42188 350.581 8.63636 350.788 8.78125C350.995 8.92614 351.26 8.99858 351.581 8.99858ZM356.187 10V3.45455H357.683V4.54545H357.751C357.87 4.16761 358.075 3.87642 358.365 3.67188C358.657 3.46449 358.991 3.3608 359.366 3.3608C359.451 3.3608 359.547 3.36506 359.652 3.37358C359.76 3.37926 359.849 3.3892 359.92 3.40341V4.82244C359.855 4.79972 359.751 4.77983 359.609 4.76278C359.47 4.7429 359.335 4.73295 359.204 4.73295C358.923 4.73295 358.67 4.79403 358.446 4.91619C358.224 5.03551 358.049 5.2017 357.922 5.41477C357.794 5.62784 357.73 5.87358 357.73 6.15199V10H356.187ZM363.531 10.1278C362.891 10.1278 362.337 9.98722 361.869 9.70597C361.4 9.42472 361.036 9.03125 360.778 8.52557C360.522 8.01989 360.394 7.42898 360.394 6.75284C360.394 6.0767 360.522 5.48437 360.778 4.97585C361.036 4.46733 361.4 4.07244 361.869 3.79119C362.337 3.50994 362.891 3.36932 363.531 3.36932C364.17 3.36932 364.724 3.50994 365.192 3.79119C365.661 4.07244 366.023 4.46733 366.279 4.97585C366.538 5.48437 366.667 6.0767 366.667 6.75284C366.667 7.42898 366.538 8.01989 366.279 8.52557C366.023 9.03125 365.661 9.42472 365.192 9.70597C364.724 9.98722 364.17 10.1278 363.531 10.1278ZM363.539 8.89205C363.886 8.89205 364.175 8.79687 364.408 8.60653C364.641 8.41335 364.815 8.15483 364.928 7.83097C365.045 7.5071 365.103 7.14631 365.103 6.74858C365.103 6.34801 365.045 5.9858 364.928 5.66193C364.815 5.33523 364.641 5.07528 364.408 4.8821C364.175 4.68892 363.886 4.59233 363.539 4.59233C363.184 4.59233 362.888 4.68892 362.653 4.8821C362.42 5.07528 362.245 5.33523 362.129 5.66193C362.015 5.9858 361.958 6.34801 361.958 6.74858C361.958 7.14631 362.015 7.5071 362.129 7.83097C362.245 8.15483 362.42 8.41335 362.653 8.60653C362.888 8.79687 363.184 8.89205 363.539 8.89205ZM367.891 10V9.01989L371.266 4.78835V4.73295H368.002V3.45455H373.154V4.5071L369.941 8.66619V8.72159H373.265V10H367.891ZM377.425 10.1278C376.768 10.1278 376.202 9.99148 375.724 9.71875C375.25 9.44318 374.885 9.05398 374.629 8.55114C374.374 8.04545 374.246 7.45028 374.246 6.76562C374.246 6.09233 374.374 5.50142 374.629 4.9929C374.888 4.48153 375.249 4.08381 375.712 3.79972C376.175 3.51278 376.719 3.36932 377.344 3.36932C377.747 3.36932 378.128 3.43466 378.486 3.56534C378.847 3.69318 379.165 3.89205 379.44 4.16193C379.719 4.43182 379.938 4.77557 380.097 5.19318C380.256 5.60795 380.335 6.10227 380.335 6.67614V7.14915H374.97V6.10938H378.857C378.854 5.81392 378.79 5.55114 378.665 5.32102C378.54 5.08807 378.365 4.90483 378.141 4.77131C377.919 4.63778 377.661 4.57102 377.365 4.57102C377.05 4.57102 376.773 4.64773 376.534 4.80114C376.295 4.9517 376.109 5.15057 375.976 5.39773C375.845 5.64205 375.778 5.91051 375.776 6.20312V7.1108C375.776 7.49148 375.845 7.81818 375.984 8.09091C376.124 8.3608 376.318 8.56818 376.568 8.71307C376.818 8.85511 377.111 8.92614 377.446 8.92614C377.67 8.92614 377.874 8.89489 378.055 8.83239C378.237 8.76705 378.395 8.67188 378.528 8.54688C378.662 8.42188 378.763 8.26705 378.831 8.08239L380.271 8.24432C380.18 8.625 380.007 8.95739 379.751 9.24148C379.499 9.52273 379.175 9.74148 378.78 9.89773C378.385 10.0511 377.933 10.1278 377.425 10.1278ZM383.183 6.16477V10H381.64V3.45455H383.115V4.56676H383.191C383.342 4.20028 383.582 3.90909 383.912 3.69318C384.244 3.47727 384.654 3.36932 385.143 3.36932C385.595 3.36932 385.988 3.46591 386.324 3.65909C386.662 3.85227 386.923 4.1321 387.108 4.49858C387.295 4.86506 387.387 5.30966 387.385 5.83239V10H385.842V6.07102C385.842 5.63352 385.728 5.29119 385.501 5.04403C385.277 4.79687 384.966 4.6733 384.568 4.6733C384.298 4.6733 384.058 4.73295 383.848 4.85227C383.64 4.96875 383.477 5.13778 383.358 5.35938C383.241 5.58097 383.183 5.84943 383.183 6.16477ZM388.953 10V3.45455H390.495V10H388.953ZM389.136 2.59375L390.091 0.646307H391.599L390.291 2.59375H389.136Z" fill="#2E2F30"/>
<path d="M493.152 10H490.459V1.27273H493.272C494.118 1.27273 494.843 1.44744 495.445 1.79688C496.047 2.14347 496.509 2.64205 496.83 3.29261C497.151 3.94034 497.311 4.71591 497.311 5.61932C497.311 6.52841 497.15 7.31108 496.826 7.96733C496.502 8.62074 496.03 9.12358 495.411 9.47585C494.792 9.82528 494.039 10 493.152 10ZM491.516 9.0625H493.084C493.806 9.0625 494.404 8.9233 494.878 8.64489C495.353 8.36648 495.706 7.97017 495.939 7.45597C496.172 6.94176 496.289 6.32955 496.289 5.61932C496.289 4.91477 496.174 4.30824 495.944 3.79972C495.713 3.28835 495.37 2.89631 494.912 2.62358C494.455 2.34801 493.885 2.21023 493.203 2.21023H491.516V9.0625ZM501.777 10H499.084V1.27273H501.897C502.743 1.27273 503.468 1.44744 504.07 1.79688C504.672 2.14347 505.134 2.64205 505.455 3.29261C505.776 3.94034 505.936 4.71591 505.936 5.61932C505.936 6.52841 505.775 7.31108 505.451 7.96733C505.127 8.62074 504.655 9.12358 504.036 9.47585C503.417 9.82528 502.664 10 501.777 10ZM500.141 9.0625H501.709C502.431 9.0625 503.029 8.9233 503.503 8.64489C503.978 8.36648 504.331 7.97017 504.564 7.45597C504.797 6.94176 504.914 6.32955 504.914 5.61932C504.914 4.91477 504.799 4.30824 504.569 3.79972C504.338 3.28835 503.995 2.89631 503.537 2.62358C503.08 2.34801 502.51 2.21023 501.828 2.21023H500.141V9.0625ZM510.178 0.863636L507.365 11.3125H506.445L509.257 0.863636H510.178ZM511.506 1.27273H512.767L515.733 8.51705H515.836L518.801 1.27273H520.063V10H519.074V3.36932H518.989L516.262 10H515.307L512.58 3.36932H512.495V10H511.506V1.27273ZM522.182 1.27273H523.443L526.409 8.51705H526.511L529.477 1.27273H530.739V10H529.75V3.36932H529.665L526.938 10H525.983L523.256 3.36932H523.17V10H522.182V1.27273ZM535.806 0.863636L532.994 11.3125H532.074L534.886 0.863636H535.806ZM536.385 1.27273H537.595L540.016 5.34659H540.118L542.538 1.27273H543.749L540.595 6.40341V10H539.538V6.40341L536.385 1.27273ZM544.365 1.27273H545.576L547.996 5.34659H548.098L550.519 1.27273H551.729L548.576 6.40341V10H547.519V6.40341L544.365 1.27273ZM552.346 1.27273H553.556L555.977 5.34659H556.079L558.499 1.27273H559.71L556.556 6.40341V10H555.499V6.40341L552.346 1.27273ZM560.326 1.27273H561.537L563.957 5.34659H564.059L566.48 1.27273H567.69L564.537 6.40341V10H563.48V6.40341L560.326 1.27273Z" fill="#A2ACAF"/>
<rect y="16" width="268" height="36" rx="2" fill="#EBF2F4"/>
<path d="M17 40H13.4091V28.3636H17.1591C18.2879 28.3636 19.2538 28.5966 20.0568 29.0625C20.8598 29.5246 21.4754 30.1894 21.9034 31.0568C22.3314 31.9205 22.5455 32.9545 22.5455 34.1591C22.5455 35.3712 22.3295 36.4148 21.8977 37.2898C21.4659 38.161 20.8371 38.8314 20.0114 39.3011C19.1856 39.767 18.1818 40 17 40ZM14.8182 38.75H16.9091C17.8712 38.75 18.6686 38.5644 19.3011 38.1932C19.9337 37.822 20.4053 37.2936 20.7159 36.608C21.0265 35.9223 21.1818 35.1061 21.1818 34.1591C21.1818 33.2197 21.0284 32.411 20.7216 31.733C20.4148 31.0511 19.9564 30.5284 19.3466 30.1648C18.7367 29.7973 17.9773 29.6136 17.0682 29.6136H14.8182V38.75ZM28.5 40H24.9091V28.3636H28.6591C29.7879 28.3636 30.7538 28.5966 31.5568 29.0625C32.3598 29.5246 32.9754 30.1894 33.4034 31.0568C33.8314 31.9205 34.0455 32.9545 34.0455 34.1591C34.0455 35.3712 33.8295 36.4148 33.3977 37.2898C32.9659 38.161 32.3371 38.8314 31.5114 39.3011C30.6856 39.767 29.6818 40 28.5 40ZM26.3182 38.75H28.4091C29.3712 38.75 30.1686 38.5644 30.8011 38.1932C31.4337 37.822 31.9053 37.2936 32.2159 36.608C32.5265 35.9223 32.6818 35.1061 32.6818 34.1591C32.6818 33.2197 32.5284 32.411 32.2216 31.733C31.9148 31.0511 31.4564 30.5284 30.8466 30.1648C30.2367 29.7973 29.4773 29.6136 28.5682 29.6136H26.3182V38.75ZM39.7003 27.8182L35.9503 41.75H34.723L38.473 27.8182H39.7003ZM41.4716 28.3636H43.1534L47.108 38.0227H47.2443L51.1989 28.3636H52.8807V40H51.5625V31.1591H51.4489L47.8125 40H46.5398L42.9034 31.1591H42.7898V40H41.4716V28.3636ZM55.706 28.3636H57.3878L61.3423 38.0227H61.4787L65.4332 28.3636H67.1151V40H65.7969V31.1591H65.6832L62.0469 40H60.7741L57.1378 31.1591H57.0241V40H55.706V28.3636ZM73.8722 27.8182L70.1222 41.75H68.8949L72.6449 27.8182H73.8722ZM74.6435 28.3636H76.2571L79.4844 33.7955H79.6207L82.848 28.3636H84.4616L80.2571 35.2045V40H78.848V35.2045L74.6435 28.3636ZM85.2841 28.3636H86.8977L90.125 33.7955H90.2614L93.4886 28.3636H95.1023L90.8977 35.2045V40H89.4886V35.2045L85.2841 28.3636ZM95.9247 28.3636H97.5384L100.766 33.7955H100.902L104.129 28.3636H105.743L101.538 35.2045V40H100.129V35.2045L95.9247 28.3636ZM106.565 28.3636H108.179L111.406 33.7955H111.543L114.77 28.3636H116.384L112.179 35.2045V40H110.77V35.2045L106.565 28.3636Z" fill="#A2ACAF"/>
<path d="M3.81818 10H0.860795V1.27273H3.87784C4.74432 1.27273 5.48864 1.44744 6.1108 1.79688C6.7358 2.14347 7.21591 2.64205 7.55114 3.29261C7.88636 3.94318 8.05398 4.72159 8.05398 5.62784C8.05398 6.53693 7.88494 7.31818 7.54688 7.97159C7.21165 8.625 6.72727 9.12642 6.09375 9.47585C5.46307 9.82528 4.70455 10 3.81818 10ZM2.44176 8.6321H3.74148C4.34943 8.6321 4.85653 8.52131 5.26278 8.29972C5.66903 8.07528 5.97443 7.74148 6.17898 7.2983C6.38352 6.85227 6.4858 6.29545 6.4858 5.62784C6.4858 4.96023 6.38352 4.40625 6.17898 3.96591C5.97443 3.52273 5.67188 3.19176 5.27131 2.97301C4.87358 2.75142 4.37926 2.64062 3.78835 2.64062H2.44176V8.6321ZM11.3714 10.1321C10.9567 10.1321 10.5831 10.0582 10.2507 9.91051C9.92116 9.75994 9.6598 9.53835 9.46662 9.24574C9.27628 8.95312 9.18111 8.59233 9.18111 8.16335C9.18111 7.79403 9.24929 7.48864 9.38565 7.24716C9.52202 7.00568 9.7081 6.8125 9.94389 6.66761C10.1797 6.52273 10.4453 6.41335 10.7408 6.33949C11.0391 6.26278 11.3473 6.20739 11.6655 6.1733C12.049 6.13352 12.3601 6.09801 12.5987 6.06676C12.8374 6.03267 13.0107 5.98153 13.1186 5.91335C13.2294 5.84233 13.2848 5.73295 13.2848 5.58523V5.55966C13.2848 5.23864 13.1896 4.99006 12.9993 4.81392C12.8089 4.63778 12.5348 4.54972 12.1768 4.54972C11.799 4.54972 11.4993 4.6321 11.2777 4.79688C11.0589 4.96165 10.9112 5.15625 10.8345 5.38068L9.39418 5.17614C9.50781 4.77841 9.69531 4.44602 9.95668 4.17898C10.218 3.90909 10.5376 3.70739 10.9155 3.57386C11.2933 3.4375 11.7109 3.36932 12.1683 3.36932C12.4837 3.36932 12.7976 3.40625 13.1101 3.48011C13.4226 3.55398 13.7081 3.67614 13.9666 3.84659C14.2251 4.0142 14.4325 4.2429 14.5888 4.53267C14.7479 4.82244 14.8274 5.18466 14.8274 5.61932V10H13.3445V9.10085H13.2933C13.1996 9.28267 13.0675 9.45312 12.897 9.61222C12.7294 9.76847 12.5178 9.89489 12.2621 9.99148C12.0092 10.0852 11.7124 10.1321 11.3714 10.1321ZM11.772 8.99858C12.0817 8.99858 12.3501 8.9375 12.5774 8.81534C12.8047 8.69034 12.9794 8.52557 13.1016 8.32102C13.2266 8.11648 13.2891 7.89347 13.2891 7.65199V6.88068C13.2408 6.92045 13.1584 6.95739 13.0419 6.99148C12.9283 7.02557 12.8004 7.0554 12.6584 7.08097C12.5163 7.10653 12.3757 7.12926 12.2365 7.14915C12.0973 7.16903 11.9766 7.18608 11.8743 7.20028C11.6442 7.23153 11.4382 7.28267 11.2564 7.35369C11.0746 7.42472 10.9311 7.52415 10.826 7.65199C10.7209 7.77699 10.6683 7.93892 10.6683 8.13778C10.6683 8.42188 10.772 8.63636 10.9794 8.78125C11.1868 8.92614 11.451 8.99858 11.772 8.99858ZM19.647 3.45455V4.64773H15.8842V3.45455H19.647ZM16.8132 1.88636H18.3558V8.03125C18.3558 8.23864 18.3871 8.39773 18.4496 8.50852C18.5149 8.61648 18.6001 8.69034 18.7053 8.73011C18.8104 8.76989 18.9268 8.78977 19.0547 8.78977C19.1513 8.78977 19.2393 8.78267 19.3189 8.76847C19.4013 8.75426 19.4638 8.74148 19.5064 8.73011L19.7663 9.93608C19.6839 9.96449 19.5661 9.99574 19.4126 10.0298C19.2621 10.0639 19.0774 10.0838 18.8587 10.0895C18.4723 10.1009 18.1243 10.0426 17.8146 9.91477C17.505 9.78409 17.2592 9.58239 17.0774 9.30966C16.8984 9.03693 16.8104 8.69602 16.8132 8.28693V1.88636ZM25.109 7.24716V3.45455H26.6516V10H25.1559V8.83665H25.0877C24.94 9.20312 24.6971 9.50284 24.359 9.7358C24.0238 9.96875 23.6104 10.0852 23.119 10.0852C22.69 10.0852 22.3107 9.99006 21.9812 9.79972C21.6545 9.60653 21.3988 9.3267 21.2141 8.96023C21.0295 8.59091 20.9371 8.14489 20.9371 7.62216V3.45455H22.4798V7.38352C22.4798 7.7983 22.5934 8.12784 22.8207 8.37216C23.0479 8.61648 23.3462 8.73864 23.7156 8.73864C23.9428 8.73864 24.163 8.68324 24.3761 8.57244C24.5891 8.46165 24.7638 8.29688 24.9002 8.07812C25.0394 7.85653 25.109 7.57955 25.109 7.24716ZM28.2379 10V3.45455H29.7124V4.56676H29.7891C29.9254 4.19176 30.1513 3.89915 30.4666 3.68892C30.782 3.47585 31.1584 3.36932 31.5959 3.36932C32.0391 3.36932 32.4126 3.47727 32.7166 3.69318C33.0234 3.90625 33.2393 4.19744 33.3643 4.56676H33.4325C33.5774 4.20312 33.8217 3.91335 34.1655 3.69744C34.5121 3.47869 34.9226 3.36932 35.397 3.36932C35.9993 3.36932 36.4908 3.55966 36.8714 3.94034C37.2521 4.32102 37.4425 4.87642 37.4425 5.60653V10H35.8956V5.84517C35.8956 5.43892 35.7876 5.14205 35.5717 4.95455C35.3558 4.7642 35.0916 4.66903 34.7791 4.66903C34.407 4.66903 34.1158 4.78551 33.9055 5.01847C33.6982 5.24858 33.5945 5.5483 33.5945 5.91761V10H32.0817V5.78125C32.0817 5.44318 31.9794 5.1733 31.7749 4.97159C31.5732 4.76989 31.3089 4.66903 30.9822 4.66903C30.7607 4.66903 30.5589 4.72585 30.3771 4.83949C30.1953 4.95028 30.0504 5.10795 29.9425 5.3125C29.8345 5.5142 29.7805 5.75 29.7805 6.01989V10H28.2379ZM43.5266 6.16477V10H41.984V3.45455H43.4585V4.56676H43.5352C43.6857 4.20028 43.9258 3.90909 44.2553 3.69318C44.5877 3.47727 44.9982 3.36932 45.4869 3.36932C45.9386 3.36932 46.332 3.46591 46.6673 3.65909C47.0053 3.85227 47.2667 4.1321 47.4513 4.49858C47.6388 4.86506 47.7312 5.30966 47.7283 5.83239V10H46.1857V6.07102C46.1857 5.63352 46.0721 5.29119 45.8448 5.04403C45.6204 4.79687 45.3093 4.6733 44.9116 4.6733C44.6417 4.6733 44.4016 4.73295 44.1914 4.85227C43.984 4.96875 43.8207 5.13778 43.7013 5.35938C43.5849 5.58097 43.5266 5.84943 43.5266 6.16477ZM51.18 10.1321C50.7653 10.1321 50.3917 10.0582 50.0593 9.91051C49.7298 9.75994 49.4684 9.53835 49.2752 9.24574C49.0849 8.95312 48.9897 8.59233 48.9897 8.16335C48.9897 7.79403 49.0579 7.48864 49.1942 7.24716C49.3306 7.00568 49.5167 6.8125 49.7525 6.66761C49.9883 6.52273 50.2539 6.41335 50.5494 6.33949C50.8477 6.26278 51.1559 6.20739 51.4741 6.1733C51.8576 6.13352 52.1687 6.09801 52.4073 6.06676C52.646 6.03267 52.8192 5.98153 52.9272 5.91335C53.038 5.84233 53.0934 5.73295 53.0934 5.58523V5.55966C53.0934 5.23864 52.9982 4.99006 52.8079 4.81392C52.6175 4.63778 52.3434 4.54972 51.9854 4.54972C51.6076 4.54972 51.3079 4.6321 51.0863 4.79688C50.8675 4.96165 50.7198 5.15625 50.6431 5.38068L49.2028 5.17614C49.3164 4.77841 49.5039 4.44602 49.7653 4.17898C50.0266 3.90909 50.3462 3.70739 50.7241 3.57386C51.1019 3.4375 51.5195 3.36932 51.9769 3.36932C52.2923 3.36932 52.6062 3.40625 52.9187 3.48011C53.2312 3.55398 53.5167 3.67614 53.7752 3.84659C54.0337 4.0142 54.2411 4.2429 54.3974 4.53267C54.5565 4.82244 54.636 5.18466 54.636 5.61932V10H53.1531V9.10085H53.1019C53.0082 9.28267 52.8761 9.45312 52.7056 9.61222C52.538 9.76847 52.3263 9.89489 52.0707 9.99148C51.8178 10.0852 51.521 10.1321 51.18 10.1321ZM51.5806 8.99858C51.8903 8.99858 52.1587 8.9375 52.386 8.81534C52.6133 8.69034 52.788 8.52557 52.9102 8.32102C53.0352 8.11648 53.0977 7.89347 53.0977 7.65199V6.88068C53.0494 6.92045 52.967 6.95739 52.8505 6.99148C52.7369 7.02557 52.609 7.0554 52.467 7.08097C52.3249 7.10653 52.1843 7.12926 52.0451 7.14915C51.9059 7.16903 51.7852 7.18608 51.6829 7.20028C51.4528 7.23153 51.2468 7.28267 51.065 7.35369C50.8832 7.42472 50.7397 7.52415 50.6346 7.65199C50.5295 7.77699 50.4769 7.93892 50.4769 8.13778C50.4769 8.42188 50.5806 8.63636 50.788 8.78125C50.9954 8.92614 51.2596 8.99858 51.5806 8.99858ZM56.1871 10V3.45455H57.6829V4.54545H57.7511C57.8704 4.16761 58.0749 3.87642 58.3647 3.67188C58.6573 3.46449 58.9911 3.3608 59.3661 3.3608C59.4513 3.3608 59.5465 3.36506 59.6516 3.37358C59.7596 3.37926 59.8491 3.3892 59.9201 3.40341V4.82244C59.8548 4.79972 59.7511 4.77983 59.609 4.76278C59.4698 4.7429 59.3349 4.73295 59.2042 4.73295C58.9229 4.73295 58.6701 4.79403 58.4457 4.91619C58.2241 5.03551 58.0494 5.2017 57.9215 5.41477C57.7937 5.62784 57.7298 5.87358 57.7298 6.15199V10H56.1871ZM63.5305 10.1278C62.8913 10.1278 62.3374 9.98722 61.8686 9.70597C61.3999 9.42472 61.0362 9.03125 60.7777 8.52557C60.522 8.01989 60.3942 7.42898 60.3942 6.75284C60.3942 6.0767 60.522 5.48437 60.7777 4.97585C61.0362 4.46733 61.3999 4.07244 61.8686 3.79119C62.3374 3.50994 62.8913 3.36932 63.5305 3.36932C64.1697 3.36932 64.7237 3.50994 65.1925 3.79119C65.6612 4.07244 66.0234 4.46733 66.2791 4.97585C66.5376 5.48437 66.6669 6.0767 66.6669 6.75284C66.6669 7.42898 66.5376 8.01989 66.2791 8.52557C66.0234 9.03125 65.6612 9.42472 65.1925 9.70597C64.7237 9.98722 64.1697 10.1278 63.5305 10.1278ZM63.5391 8.89205C63.8857 8.89205 64.1754 8.79687 64.4084 8.60653C64.6413 8.41335 64.8146 8.15483 64.9283 7.83097C65.0447 7.5071 65.103 7.14631 65.103 6.74858C65.103 6.34801 65.0447 5.9858 64.9283 5.66193C64.8146 5.33523 64.6413 5.07528 64.4084 4.8821C64.1754 4.68892 63.8857 4.59233 63.5391 4.59233C63.1839 4.59233 62.8885 4.68892 62.6527 4.8821C62.4197 5.07528 62.245 5.33523 62.1286 5.66193C62.0149 5.9858 61.9581 6.34801 61.9581 6.74858C61.9581 7.14631 62.0149 7.5071 62.1286 7.83097C62.245 8.15483 62.4197 8.41335 62.6527 8.60653C62.8885 8.79687 63.1839 8.89205 63.5391 8.89205ZM67.891 10V9.01989L71.266 4.78835V4.73295H68.0018V3.45455H73.1538V4.5071L69.9407 8.66619V8.72159H73.2646V10H67.891ZM77.4247 10.1278C76.7685 10.1278 76.2017 9.99148 75.7244 9.71875C75.25 9.44318 74.8849 9.05398 74.6293 8.55114C74.3736 8.04545 74.2457 7.45028 74.2457 6.76562C74.2457 6.09233 74.3736 5.50142 74.6293 4.9929C74.8878 4.48153 75.2486 4.08381 75.7116 3.79972C76.1747 3.51278 76.7188 3.36932 77.3438 3.36932C77.7472 3.36932 78.1278 3.43466 78.4858 3.56534C78.8466 3.69318 79.1648 3.89205 79.4403 4.16193C79.7188 4.43182 79.9375 4.77557 80.0966 5.19318C80.2557 5.60795 80.3352 6.10227 80.3352 6.67614V7.14915H74.9702V6.10938H78.8565C78.8537 5.81392 78.7898 5.55114 78.6648 5.32102C78.5398 5.08807 78.3651 4.90483 78.1406 4.77131C77.919 4.63778 77.6605 4.57102 77.3651 4.57102C77.0497 4.57102 76.7727 4.64773 76.5341 4.80114C76.2955 4.9517 76.1094 5.15057 75.9759 5.39773C75.8452 5.64205 75.7784 5.91051 75.7756 6.20312V7.1108C75.7756 7.49148 75.8452 7.81818 75.9844 8.09091C76.1236 8.3608 76.3182 8.56818 76.5682 8.71307C76.8182 8.85511 77.1108 8.92614 77.446 8.92614C77.6705 8.92614 77.8736 8.89489 78.0554 8.83239C78.2372 8.76705 78.3949 8.67188 78.5284 8.54688C78.6619 8.42188 78.7628 8.26705 78.831 8.08239L80.2713 8.24432C80.1804 8.625 80.0071 8.95739 79.7514 9.24148C79.4986 9.52273 79.1747 9.74148 78.7798 9.89773C78.3849 10.0511 77.9332 10.1278 77.4247 10.1278ZM83.1829 6.16477V10H81.6403V3.45455H83.1147V4.56676H83.1914C83.342 4.20028 83.582 3.90909 83.9116 3.69318C84.244 3.47727 84.6545 3.36932 85.1431 3.36932C85.5948 3.36932 85.9883 3.46591 86.3235 3.65909C86.6616 3.85227 86.9229 4.1321 87.1076 4.49858C87.2951 4.86506 87.3874 5.30966 87.3846 5.83239V10H85.842V6.07102C85.842 5.63352 85.7283 5.29119 85.5011 5.04403C85.2766 4.79687 84.9656 4.6733 84.5678 4.6733C84.2979 4.6733 84.0579 4.73295 83.8477 4.85227C83.6403 4.96875 83.4769 5.13778 83.3576 5.35938C83.2411 5.58097 83.1829 5.84943 83.1829 6.16477ZM88.9528 10V3.45455H90.4954V10H88.9528ZM89.136 2.59375L90.0906 0.646307H91.5991L90.2908 2.59375H89.136Z" fill="#2E2F30"/>
</svg>
