<svg width="240" height="204" viewBox="0 0 240 204" fill="none" xmlns="http://www.w3.org/2000/svg">
<g clip-path="url(#clip0_54_242)">
<path d="M15.0201 86.2786C12.7389 86.2811 10.5519 87.1927 8.93886 88.8133C7.32581 90.4339 6.41847 92.6311 6.41589 94.9229V131.582C6.41847 133.874 7.32581 136.071 8.93886 137.692C10.5519 139.312 12.7389 140.224 15.0201 140.226H71.6457C73.9269 140.224 76.1139 139.312 77.727 137.692C79.3401 136.071 80.2474 133.874 80.25 131.582V94.9229C80.2474 92.6311 79.3401 90.4339 77.727 88.8133C76.1139 87.1927 73.9269 86.2811 71.6457 86.2786H15.0201Z" fill="white"/>
<path d="M71.6456 140.564H15.0201C12.6499 140.561 10.3775 139.614 8.70156 137.93C7.02559 136.246 6.08286 133.963 6.0802 131.582V94.9229C6.08286 92.5417 7.02559 90.2587 8.70156 88.575C10.3775 86.8912 12.6499 85.944 15.0201 85.9414H71.6456C74.0158 85.944 76.2881 86.8912 77.9641 88.575C79.6401 90.2587 80.5828 92.5417 80.5855 94.9229V131.582C80.5828 133.963 79.6401 136.246 77.9641 137.93C76.2881 139.614 74.0158 140.561 71.6456 140.564V140.564ZM15.0201 86.6157C12.8278 86.6182 10.7261 87.4942 9.17599 89.0516C7.62586 90.609 6.75391 92.7205 6.75142 94.9229V131.582C6.75391 133.784 7.62586 135.896 9.17599 137.453C10.7261 139.011 12.8278 139.887 15.0201 139.889H71.6456C73.8378 139.887 75.9396 139.011 77.4897 137.453C79.0398 135.896 79.9118 133.784 79.9143 131.582V94.9229C79.9118 92.7205 79.0398 90.609 77.4897 89.0516C75.9396 87.4942 73.8378 86.6182 71.6456 86.6157H15.0201Z" fill="#3F3D56"/>
<path d="M38.3557 103.962C37.4241 104.938 36.5316 105.952 35.6913 107.006C33.8412 109.244 32.0171 111.502 30.1866 113.753C29.0465 115.154 27.9065 116.555 26.7795 117.955C26.4216 117.724 26.0819 117.466 25.7633 117.183C23.9632 115.613 22.8467 113.398 22.653 111.011C22.4593 108.624 23.2038 106.256 24.727 104.414C26.2503 102.572 28.431 101.403 30.8019 101.157C33.1729 100.911 35.5454 101.608 37.4111 103.098C37.7474 103.362 38.0631 103.651 38.3557 103.962Z" fill="#1FADE0"/>
<path d="M72.2167 102.899V104.258L71.6126 104.035L63.1116 100.913C57.2219 105.128 54.9533 103.141 54.7214 98.0066C54.604 95.4073 49.5933 97.3255 47.1232 98.1044C46.2394 100.004 44.9679 101.867 41.203 101.796C40.1749 101.777 39.7163 103.216 39.0082 103.961C38.7766 104.207 38.545 104.453 38.3168 104.7C37.6322 105.448 36.2953 105.994 36.3434 107.006C36.4941 110.17 35.9092 113.003 30.8394 113.753C29.0555 114.016 27.1302 116.179 27.4296 117.954C28.6159 124.987 21.9209 128.191 16.2001 131.869C15.699 131.863 15.2002 131.8 14.7134 131.68C18.5091 126.943 22.3228 122.218 26.1543 117.505C26.2416 117.398 26.3288 117.29 26.4161 117.182C26.8658 116.619 27.3256 116.052 27.782 115.489C29.6916 113.139 31.6024 110.791 33.5142 108.446C34.9036 106.739 36.283 105.027 37.7798 103.408C37.8704 103.304 37.9644 103.202 38.0617 103.098C38.206 102.943 38.3504 102.791 38.498 102.633C41.7501 99.2575 45.8076 96.2735 50.6672 96.1926C53.5266 96.1488 56.2887 97.0592 58.9467 98.0201C61.8095 99.062 64.6622 100.121 67.5216 101.173L72.2167 102.899Z" fill="#3F3D56"/>
<path d="M69.846 111.437V112.494L69.3759 112.321L62.7603 109.891C58.1768 113.172 56.4113 111.625 56.2308 107.629C56.1395 105.607 52.24 107.099 50.3177 107.706C49.63 109.184 48.6405 110.634 45.7106 110.579C44.9104 110.564 44.5536 111.683 44.0025 112.263C43.8223 112.455 43.642 112.646 43.4644 112.838C42.9316 113.42 41.8913 113.846 41.9287 114.633C42.046 117.095 41.5908 119.3 37.6454 119.883C36.2571 120.089 34.7589 121.771 34.9919 123.153C35.915 128.626 30.7049 131.12 26.2529 133.982C25.8629 133.977 25.4746 133.928 25.0958 133.835C28.0497 130.148 31.0176 126.471 33.9994 122.804C34.0673 122.72 34.1352 122.636 34.2031 122.552C34.5531 122.114 34.9109 121.673 35.2661 121.235C36.7522 119.406 38.2392 117.579 39.727 115.753C40.8083 114.425 41.8817 113.092 43.0466 111.833C43.1171 111.752 43.1902 111.673 43.266 111.592C43.3783 111.471 43.4906 111.353 43.6055 111.229C46.1363 108.603 49.2939 106.281 53.0758 106.218C55.301 106.184 57.4505 106.892 59.519 107.64C61.7469 108.451 63.9669 109.275 66.1921 110.093L69.846 111.437Z" fill="#3F3D56"/>
<path d="M67.8323 119.637V120.394L67.4962 120.27L62.7659 118.532C59.4887 120.878 58.2263 119.772 58.0973 116.915C58.032 115.469 55.2438 116.536 53.8694 116.969C53.3776 118.027 52.6701 119.063 50.5752 119.024C50.0031 119.013 49.7479 119.814 49.3538 120.228C49.225 120.365 49.0961 120.502 48.9691 120.639C48.5882 121.056 47.8443 121.36 47.8711 121.923C47.9549 123.683 47.6295 125.26 44.8085 125.677C43.8158 125.824 42.7445 127.027 42.9111 128.015C43.5712 131.928 39.8459 133.711 36.6626 135.757C36.3838 135.754 36.1062 135.719 35.8353 135.652C37.9474 133.016 40.0695 130.387 42.2015 127.765L42.3472 127.585C42.5974 127.272 42.8533 126.956 43.1072 126.643C44.1698 125.335 45.233 124.029 46.2968 122.724C47.07 121.774 47.8375 120.821 48.6704 119.921C48.7208 119.863 48.7731 119.806 48.8272 119.748C48.9075 119.662 48.9878 119.577 49.07 119.489C50.8796 117.611 53.1373 115.951 55.8414 115.906C57.4325 115.881 58.9694 116.388 60.4484 116.923C62.0414 117.502 63.6287 118.091 65.2198 118.677L67.8323 119.637Z" fill="#3F3D56"/>
<path d="M125.981 66.1604L130.806 73.6325L127 76.7484L122.174 68.6825C121.895 68.584 121.632 68.4464 121.392 68.274C121.068 68.065 120.789 67.7919 120.572 67.4712C120.356 67.1505 120.207 66.789 120.134 66.4085C120.061 66.0281 120.066 65.6367 120.148 65.2582C120.23 64.8797 120.388 64.522 120.613 64.2068C120.837 63.8916 121.123 63.6255 121.452 63.4248C121.782 63.2241 122.149 63.0928 122.531 63.0391C122.913 62.9853 123.302 63.0102 123.674 63.1122C124.046 63.2141 124.394 63.3911 124.695 63.6322C125.098 63.9167 125.426 64.2957 125.65 64.7363C125.874 65.1769 125.987 65.6657 125.981 66.1604V66.1604Z" fill="#FFB6B6"/>
<path d="M192.891 194.801L189.944 196.727L181.15 186.222L185.5 183.381L192.891 194.801Z" fill="#FFB6B6"/>
<path d="M194.994 197.822L185.931 203.743L185.857 203.628C185.249 202.688 185.037 201.544 185.268 200.447C185.5 199.35 186.155 198.391 187.09 197.779L187.091 197.779L187.929 195.436L191.835 194.68L192.626 194.163L194.994 197.822Z" fill="#2F2E41"/>
<path d="M142.385 199.846L138.87 199.846L137.198 186.223L142.386 186.224L142.385 199.846Z" fill="#FFB6B6"/>
<path d="M142.509 203.53L131.699 203.53V203.393C131.699 202.272 132.142 201.196 132.931 200.404C133.72 199.611 134.791 199.166 135.907 199.165H135.907L137.881 197.66L141.566 199.166L142.509 199.166L142.509 203.53Z" fill="#2F2E41"/>
<path d="M178.772 115.787L147.249 116.484L144.124 120.408C144.124 120.408 140.439 122.339 140.199 123.859C139.958 125.378 137.832 152.36 138.982 153.376C140.131 154.392 136.802 161.408 136.557 161.836C136.313 162.264 133.677 183.381 136.557 185.117L137.639 192.488H142.673C142.673 192.488 147.716 186.625 146.701 185.562C145.687 184.499 148.589 180.965 148.7 179.07C148.811 177.175 149.871 168.579 149.05 167.2C148.229 165.822 147.119 160.65 149.202 158.644C151.285 156.639 161 131.998 161 131.998C161 131.998 163.823 160.886 163.817 163.154C163.808 166.104 165.736 164.644 165.736 167.234C165.736 167.757 172.015 181.204 176.234 185.408L184.96 192.151L188.987 189.117V184.733C188.987 184.733 185.255 176.601 183.953 175.293C182.651 173.985 177.844 169.981 177.844 168.15C177.844 166.318 175.581 165.68 177.103 163.253C178.625 160.825 178.104 159.778 177.584 158.732C177.063 157.686 183.052 124.724 183.052 124.724L178.772 115.787Z" fill="#2F2E41"/>
<path d="M172.803 55.9755L159.126 55.3153L155.626 61.0839C155.626 61.0839 145.403 62.1147 146.865 65.9775C148.327 69.8403 149.596 92.7763 147.53 96.0887C145.463 99.401 142.291 96.6552 145.049 103.129C147.806 109.603 141.67 120.994 141.67 120.994L159.524 124.776C159.524 124.776 173.845 120.591 176.449 117.975C179.053 115.359 181.396 113.266 179.834 112.481C178.271 111.696 173.845 111.173 176.188 107.511C178.532 103.848 178.818 104.017 178.805 101.578C178.792 99.1394 177.423 93.0955 177.423 93.0955C177.423 93.0955 186.41 67.4853 183.703 66.5183C180.995 65.5513 173.437 61.0839 173.437 61.0839L172.803 55.9755Z" fill="#E6E6E6"/>
<path d="M155.104 63.8315C155.104 63.8315 147.26 60.0865 146.103 65.2264C144.946 70.3663 140.479 83.2606 140.479 83.2606C140.479 83.2606 135.531 80.3826 136.313 78.8134C137.095 77.2442 132.861 77.0058 134.23 74.3662C135.598 71.7267 129.282 69.1343 129.282 69.1343L121.731 72.2735C121.731 72.2735 124.655 76.6762 126.598 78.6173C128.54 80.5584 125.638 80.905 127.98 83.2606C130.323 85.6162 135.039 94.4284 135.039 94.4284L141.18 97.0006L158.427 86.4153L155.104 63.8315Z" fill="#E6E6E6"/>
<path d="M165.628 52.2148C170.888 52.2148 175.153 47.9301 175.153 42.6448C175.153 37.3594 170.888 33.0748 165.628 33.0748C160.367 33.0748 156.102 37.3594 156.102 42.6448C156.102 47.9301 160.367 52.2148 165.628 52.2148Z" fill="#FFB6B6"/>
<path d="M171.833 45.1036C172.285 44.8725 172.862 45.2763 172.97 45.7745C173.001 46.0279 172.981 46.2851 172.91 46.5303C172.839 46.7756 172.719 47.0036 172.557 47.2006C172.232 47.5919 171.94 48.0103 171.686 48.4513C171.561 48.6744 171.503 48.9285 171.518 49.1837C171.533 49.4389 171.619 49.6846 171.768 49.8919C171.931 50.0505 172.134 50.1597 172.356 50.2067C172.578 50.2537 172.808 50.2365 173.02 50.1572C173.443 49.9913 173.817 49.7201 174.106 49.369C175.927 47.384 177.827 44.0887 176.896 41.5564C176.819 41.2857 176.788 41.0038 176.805 40.7227C176.787 40.4006 176.728 39.9152 177.03 39.8056C177.873 39.4998 175.508 34.5493 171.857 33.4723C172.035 31.7819 163.251 29.3505 163.731 31.4726C163.817 31.8537 162.969 31.6466 162.58 31.6677C159.601 31.8297 156.235 32.5821 156.506 36.052C156.611 37.3958 156.058 37.0858 155.614 38.3576C156.306 38.7721 156.533 39.681 157.067 39.0745C157.6 38.4679 158.056 37.7083 158.82 37.4536C159.635 37.1823 160.518 37.5881 161.212 38.094C161.907 38.5999 162.544 39.2285 163.36 39.4935C164.276 39.7907 165.274 39.584 166.229 39.7043C167.586 39.8752 168.791 40.7084 169.688 41.7458C170.543 42.8203 171.264 43.9953 171.836 45.245" fill="#2F2E41"/>
<path d="M207.669 203.896L101.832 204C101.727 203.999 101.626 203.957 101.551 203.882C101.477 203.806 101.435 203.705 101.435 203.599C101.435 203.492 101.477 203.391 101.551 203.315C101.626 203.24 101.727 203.198 101.832 203.197L207.669 203.093C207.775 203.094 207.876 203.137 207.951 203.212C208.025 203.287 208.067 203.389 208.067 203.495C208.067 203.601 208.025 203.703 207.951 203.778C207.876 203.853 207.775 203.896 207.669 203.896V203.896Z" fill="#CACACA"/>
<path d="M174.435 119.996C172.153 119.999 169.966 120.91 168.353 122.531C166.74 124.151 165.833 126.349 165.83 128.64V165.3C165.833 167.591 166.74 169.789 168.353 171.409C169.966 173.03 172.153 173.941 174.435 173.944H231.06C233.341 173.941 235.528 173.03 237.141 171.409C238.755 169.789 239.662 167.591 239.664 165.3V128.64C239.662 126.349 238.755 124.151 237.141 122.531C235.528 120.91 233.341 119.999 231.06 119.996H174.435Z" fill="white"/>
<path d="M231.06 174.281H174.435C172.064 174.278 169.792 173.331 168.116 171.647C166.44 169.964 165.497 167.681 165.495 165.3V128.64C165.497 126.259 166.44 123.976 168.116 122.292C169.792 120.609 172.064 119.661 174.435 119.659H231.06C233.43 119.661 235.703 120.609 237.379 122.292C239.055 123.976 239.997 126.259 240 128.64V165.3C239.997 167.681 239.055 169.964 237.379 171.647C235.703 173.331 233.43 174.278 231.06 174.281V174.281ZM174.435 120.333C172.242 120.336 170.141 121.212 168.591 122.769C167.04 124.326 166.168 126.438 166.166 128.64V165.3C166.168 167.502 167.04 169.613 168.591 171.171C170.141 172.728 172.242 173.604 174.435 173.607H231.06C233.252 173.604 235.354 172.728 236.904 171.171C238.454 169.613 239.326 167.502 239.329 165.3V128.64C239.326 126.438 238.454 124.326 236.904 122.769C235.354 121.212 233.252 120.336 231.06 120.333H174.435Z" fill="#3F3D56"/>
<path d="M199.446 156.723C199.586 155.755 198.576 154.805 197.19 154.602C195.804 154.4 194.567 155.021 194.426 155.99C194.286 156.958 195.296 157.908 196.682 158.11C198.068 158.313 199.305 157.692 199.446 156.723Z" fill="#E6E6E6"/>
<path d="M215.948 155.105C216.088 154.137 215.079 153.187 213.692 152.985C212.306 152.782 211.069 153.403 210.929 154.372C210.789 155.34 211.798 156.29 213.184 156.493C214.57 156.695 215.808 156.074 215.948 155.105Z" fill="#3F3D56"/>
<path d="M194.927 143.301C195.067 142.332 194.057 141.383 192.671 141.18C191.285 140.978 190.048 141.599 189.908 142.567C189.767 143.536 190.777 144.486 192.163 144.688C193.549 144.891 194.787 144.27 194.927 143.301Z" fill="#E01FAD"/>
<path d="M187.756 137.803C187.763 136.914 187.269 136.189 186.653 136.184C186.038 136.18 185.533 136.897 185.526 137.786C185.52 138.675 186.013 139.4 186.629 139.405C187.245 139.409 187.75 138.692 187.756 137.803Z" fill="#E6E6E6"/>
<path d="M185.324 127.563C185.331 126.673 184.837 125.948 184.222 125.944C183.606 125.939 183.101 126.656 183.095 127.546C183.088 128.435 183.582 129.16 184.197 129.164C184.813 129.169 185.318 128.452 185.324 127.563Z" fill="#3F3D56"/>
<path d="M204.234 145.585C204.241 144.696 203.747 143.971 203.132 143.966C202.516 143.962 202.011 144.679 202.004 145.568C201.998 146.458 202.492 147.182 203.107 147.187C203.723 147.192 204.228 146.474 204.234 145.585Z" fill="#E6E6E6"/>
<path d="M196.26 149.585C196.266 148.696 195.773 147.971 195.157 147.967C194.541 147.962 194.037 148.679 194.03 149.568C194.023 150.458 194.517 151.183 195.133 151.187C195.748 151.192 196.253 150.475 196.26 149.585Z" fill="#E01FAD"/>
<path d="M207.361 156.979C207.368 156.09 206.874 155.365 206.258 155.36C205.642 155.355 205.138 156.073 205.131 156.962C205.124 157.851 205.618 158.576 206.234 158.581C206.85 158.585 207.354 157.868 207.361 156.979Z" fill="#3F3D56"/>
<path d="M211.066 152.655C212.04 152.655 212.83 151.514 212.83 150.107C212.83 148.7 212.04 147.559 211.066 147.559C210.091 147.559 209.301 148.7 209.301 150.107C209.301 151.514 210.091 152.655 211.066 152.655Z" fill="#E6E6E6"/>
<path d="M207.096 136.481C208.07 136.481 208.86 135.341 208.86 133.933C208.86 132.526 208.07 131.385 207.096 131.385C206.122 131.385 205.332 132.526 205.332 133.933C205.332 135.341 206.122 136.481 207.096 136.481Z" fill="#3F3D56"/>
<path d="M198.495 159.08C199.47 159.08 200.26 157.939 200.26 156.532C200.26 155.125 199.47 153.984 198.495 153.984C197.521 153.984 196.731 155.125 196.731 156.532C196.731 157.939 197.521 159.08 198.495 159.08Z" fill="#E01FAD"/>
<path d="M194.417 164.124C195.294 164.003 195.936 163.408 195.852 162.795C195.768 162.182 194.989 161.784 194.112 161.905C193.235 162.026 192.593 162.622 192.677 163.235C192.761 163.847 193.54 164.246 194.417 164.124Z" fill="#E6E6E6"/>
<path d="M184.68 168.016C185.557 167.895 186.2 167.3 186.116 166.687C186.032 166.074 185.253 165.676 184.376 165.797C183.499 165.918 182.856 166.514 182.94 167.127C183.024 167.739 183.803 168.138 184.68 168.016Z" fill="#3F3D56"/>
<path d="M199.709 146.621C200.586 146.5 201.229 145.905 201.145 145.292C201.061 144.679 200.282 144.281 199.405 144.402C198.528 144.523 197.885 145.119 197.969 145.731C198.053 146.344 198.833 146.743 199.709 146.621Z" fill="#E6E6E6"/>
<path d="M204.798 153.974C205.675 153.852 206.317 153.257 206.233 152.644C206.149 152.031 205.37 151.633 204.493 151.754C203.617 151.876 202.974 152.471 203.058 153.084C203.142 153.697 203.921 154.095 204.798 153.974Z" fill="#E01FAD"/>
<path d="M210.482 141.873C211.359 141.751 212.002 141.156 211.918 140.543C211.834 139.93 211.055 139.532 210.178 139.653C209.301 139.775 208.658 140.37 208.742 140.983C208.826 141.596 209.605 141.994 210.482 141.873Z" fill="#3F3D56"/>
<path d="M64.019 12.4374C61.7378 12.4399 59.5508 13.3515 57.9378 14.9721C56.3247 16.5927 55.4174 18.7899 55.4148 21.0817V57.7409C55.4174 60.0327 56.3247 62.2299 57.9378 63.8505C59.5508 65.4711 61.7378 66.3827 64.019 66.3853H120.645C122.926 66.3827 125.113 65.4711 126.726 63.8505C128.339 62.2299 129.246 60.0327 129.249 57.7409V21.0817C129.246 18.7899 128.339 16.5927 126.726 14.9721C125.113 13.3515 122.926 12.4399 120.645 12.4374H64.019Z" fill="white"/>
<path d="M120.645 66.7224H64.0191C61.6489 66.7197 59.3766 65.7726 57.7006 64.0888C56.0247 62.405 55.0819 60.1221 55.0792 57.7409V21.0817C55.0819 18.7005 56.0247 16.4176 57.7006 14.7338C59.3766 13.05 61.6489 12.1029 64.0191 12.1002H120.645C123.015 12.1029 125.287 13.05 126.963 14.7338C128.639 16.4176 129.582 18.7005 129.585 21.0817V57.7409C129.582 60.1221 128.639 62.405 126.963 64.0888C125.287 65.7726 123.015 66.7197 120.645 66.7224V66.7224ZM64.0191 12.7745C61.8269 12.777 59.7251 13.653 58.175 15.2104C56.6248 16.7678 55.7529 18.8793 55.7504 21.0817V57.7409C55.7529 59.9433 56.6248 62.0549 58.175 63.6122C59.7251 65.1696 61.8269 66.0456 64.0191 66.0481H120.645C122.837 66.0456 124.939 65.1696 126.489 63.6122C128.039 62.0549 128.911 59.9433 128.913 57.7409V21.0817C128.911 18.8793 128.039 16.7678 126.489 15.2104C124.939 13.653 122.837 12.777 120.645 12.7745H64.0191Z" fill="#3F3D56"/>
<path d="M86.5649 49.0233C85.8631 48.3184 85.0284 47.7612 84.1096 47.3844C83.1907 47.0076 82.2063 46.8189 81.214 46.8291L81.1347 46.8293C79.7813 46.8299 78.452 46.4692 77.2829 45.7843L77.1612 45.7131L77.2592 45.6116C77.7897 45.0602 78.2327 44.4302 78.5726 43.7435C78.3312 43.9696 78.0433 44.1397 77.7292 44.2416C77.4151 44.3436 77.0826 44.3749 76.7551 44.3334C76.4094 44.292 76.0775 44.1725 75.7843 43.9838C75.4911 43.7951 75.2443 43.5422 75.0622 43.244C74.3441 42.0734 73.488 40.4123 73.488 39.1469C73.4892 38.0773 73.7121 37.0197 74.1426 36.0414C74.5731 35.0632 75.2017 34.1858 75.9884 33.4652C76.4865 33.014 76.8843 32.4624 77.156 31.8464C77.4276 31.2304 77.567 30.5638 77.565 29.89L77.5646 29.7941C77.5645 28.9071 77.6724 28.0234 77.8859 27.1626L77.9076 27.0757L77.9966 27.0788C78.5706 27.0985 79.1449 27.0501 79.7076 26.9348C79.1798 26.8698 78.6634 26.7318 78.1731 26.5248L78.0773 26.4859L78.1098 26.3873C80.35 24.9938 85.4066 25.7154 88.3416 18.969C90.7215 13.4985 99.1186 23.8251 99.1186 29.7941C99.1186 30.4032 98.5186 31.2081 98.9677 31.6106C103.823 35.9623 100.473 38.7568 99.4167 41.5686C99.1661 42.2357 99.7095 42.9681 99.7095 43.6899C99.7095 43.8124 99.7064 43.9388 99.7003 44.0657L99.6909 44.2607L99.529 44.1525C99.2088 43.9417 98.9119 43.6971 98.6435 43.4228C98.922 44.0665 99.0532 44.7648 99.0275 45.4662C99.0019 46.1676 98.82 46.8543 98.4953 47.4758C98.1322 48.2415 97.6369 48.9366 97.0323 49.5286C95.5523 50.801 93.6444 51.4573 91.6988 51.3634C89.7531 51.2695 87.9167 50.4324 86.5649 49.0233V49.0233Z" fill="#1FADE0"/>
<path d="M94.6935 63.5384C94.7266 63.5384 94.7586 63.5264 94.7836 63.5046C94.8086 63.4828 94.8249 63.4527 94.8295 63.4197C95.1891 60.198 95.2106 56.9473 94.8937 53.7211C94.419 48.6316 92.8948 41.301 88.3286 35.2805C88.3177 35.266 88.304 35.2539 88.2884 35.2447C88.2728 35.2355 88.2555 35.2295 88.2376 35.227C88.2196 35.2246 88.2014 35.2257 88.1839 35.2303C88.1664 35.235 88.15 35.243 88.1356 35.254C88.1212 35.2651 88.1091 35.2788 88.1 35.2945C88.0909 35.3103 88.085 35.3276 88.0826 35.3457C88.0802 35.3637 88.0814 35.382 88.0861 35.3996C88.0907 35.4171 88.0988 35.4336 88.1098 35.448C92.6365 41.4165 94.1485 48.6933 94.6198 53.7469C94.9351 56.9515 94.9141 60.1806 94.5572 63.3808C94.5545 63.4004 94.5559 63.4204 94.5615 63.4394C94.5671 63.4583 94.5767 63.4759 94.5896 63.4908C94.6025 63.5058 94.6185 63.5178 94.6364 63.526C94.6544 63.5342 94.6738 63.5384 94.6935 63.5384V63.5384Z" fill="#3F3D56"/>
<path d="M90.9673 43.7727C90.9964 43.7727 91.0247 43.7635 91.0482 43.7464C91.0717 43.7292 91.0892 43.7051 91.0982 43.6773C91.1072 43.6496 91.1072 43.6197 91.0982 43.5919C91.0892 43.5642 91.0718 43.54 91.0483 43.5228C89.7472 42.638 88.3417 41.9192 86.864 41.3828C84.5555 40.5337 81.045 39.7639 77.431 40.9195C77.3963 40.9306 77.3673 40.9552 77.3506 40.9877C77.3338 41.0202 77.3306 41.0581 77.3417 41.0931C77.3527 41.128 77.3772 41.157 77.4095 41.1739C77.4419 41.1907 77.4797 41.1939 77.5144 41.1828C81.0543 40.051 84.5012 40.808 86.7694 41.6423C88.2233 42.1695 89.6063 42.8762 90.8866 43.7463C90.91 43.7635 90.9383 43.7727 90.9673 43.7727Z" fill="#3F3D56"/>
<path d="M97.2613 28.0237C97.2634 27.9946 97.2563 27.9655 97.241 27.9407C97.2257 27.9159 97.203 27.8967 97.176 27.8856C97.1491 27.8746 97.1194 27.8725 97.0912 27.8795C97.063 27.8864 97.0378 27.9022 97.019 27.9245C96.0469 29.1646 95.2321 30.5212 94.5932 31.9633C93.584 34.2154 92.567 37.6777 93.4539 41.3823C93.4581 41.4 93.4658 41.4166 93.4764 41.4313C93.487 41.4459 93.5004 41.4584 93.5158 41.4678C93.5312 41.4773 93.5483 41.4836 93.5662 41.4865C93.584 41.4893 93.6022 41.4886 93.6198 41.4843C93.6373 41.4801 93.6539 41.4724 93.6685 41.4617C93.6831 41.4511 93.6955 41.4376 93.7049 41.4221C93.7143 41.4067 93.7206 41.3895 93.7234 41.3716C93.7262 41.3536 93.7255 41.3353 93.7213 41.3177C92.8526 37.689 93.8524 34.2896 94.844 32.0768C95.4721 30.6578 96.2733 29.3229 97.2293 28.1027C97.248 28.0804 97.2592 28.0527 97.2613 28.0237V28.0237Z" fill="#3F3D56"/>
<path d="M110.138 23.061C108.408 15.7626 108.697 8.57406 111.659 1.53116C111.69 1.09544 111.892 0.689964 112.22 0.403697C112.549 0.11743 112.977 -0.0262503 113.411 0.00417735L129.595 1.15791C130.029 1.18933 130.432 1.3923 130.717 1.72229C131.002 2.05229 131.145 2.48236 131.115 2.91816L129.594 24.448C129.563 24.8837 129.361 25.2892 129.033 25.5755C128.704 25.8617 128.276 26.0054 127.842 25.975L111.658 24.8212C111.224 24.7898 110.821 24.5869 110.536 24.2569C110.251 23.9269 110.108 23.4968 110.138 23.061V23.061Z" fill="#F2F2F2"/>
<path d="M111.839 16.6466C110.455 13.0501 111.34 8.10367 112.816 2.80526C112.846 2.39718 113.035 2.01744 113.342 1.74934C113.65 1.48124 114.051 1.34668 114.457 1.37519L128.366 2.36673C128.772 2.39614 129.15 2.58622 129.417 2.89527C129.684 3.20432 129.818 3.60711 129.79 4.01526L128.437 23.1739C128.407 23.582 128.218 23.9617 127.911 24.2298C127.603 24.4979 127.202 24.6325 126.796 24.6039L118.179 23.9897C116.37 23.8587 114.686 23.012 113.498 21.6354C112.309 20.2587 111.712 18.4646 111.839 16.6466Z" fill="white"/>
<path d="M118.649 20.1363C119.442 20.1363 120.084 19.4911 120.084 18.6953C120.084 17.8994 119.442 17.2542 118.649 17.2542C117.857 17.2542 117.215 17.8994 117.215 18.6953C117.215 19.4911 117.857 20.1363 118.649 20.1363Z" fill="#1FADE0"/>
<path d="M124.222 6.08765C123.88 5.30492 122.883 5.11106 122.037 5.02193C121.169 4.89157 120.288 4.87796 119.417 4.98147C118.981 5.03554 118.56 5.17578 118.178 5.39409C117.797 5.61241 117.462 5.90449 117.193 6.25347C116.578 7.14148 116.605 8.31702 116.738 9.39047C116.996 11.4555 117.555 13.4711 118.398 15.372L118.961 15.8749C120.371 14.8797 121.568 13.6113 122.482 12.1442C123.396 10.6772 124.009 9.04117 124.284 7.33258C124.381 6.92 124.359 6.48836 124.222 6.08765V6.08765Z" fill="#1FADE0"/>
<path d="M1.065 146.804C-0.664658 139.506 -0.376213 132.317 2.58559 125.274C2.61686 124.838 2.81888 124.433 3.14735 124.147C3.47581 123.86 3.90389 123.717 4.33766 123.747L20.522 124.901C20.9557 124.932 21.3593 125.135 21.6442 125.465C21.9292 125.795 22.0722 126.225 22.0419 126.661L20.5213 148.191C20.49 148.627 20.288 149.032 19.9596 149.318C19.6311 149.605 19.203 149.748 18.7692 149.718L2.58491 148.564C2.1512 148.533 1.74761 148.33 1.46267 148C1.17773 147.67 1.03471 147.24 1.065 146.804V146.804Z" fill="#F2F2F2"/>
<path d="M2.76574 140.39C1.38152 136.793 2.26657 131.847 3.74332 126.548C3.77259 126.14 3.9618 125.76 4.26942 125.492C4.57704 125.224 4.97794 125.09 5.38419 125.118L19.2933 126.11C19.6995 126.139 20.0775 126.329 20.3443 126.638C20.6112 126.947 20.7451 127.35 20.7168 127.758L19.3637 146.917C19.3344 147.325 19.1452 147.705 18.8375 147.973C18.5299 148.241 18.129 148.375 17.7227 148.347L9.10633 147.733C7.29705 147.602 5.61339 146.755 4.42471 145.378C3.23603 144.002 2.63941 142.208 2.76574 140.39Z" fill="white"/>
<path d="M17.4001 131.538C14.1319 133.155 11.5496 134.653 10.1921 138.033C9.31755 136.009 8.44304 135.332 7.56851 133.307C7.31128 132.712 6.44361 133.226 6.69915 133.818C7.73431 136.215 8.76948 138.612 9.80466 141.009C9.98725 141.431 10.6107 141.266 10.7248 140.888C11.2849 139.058 12.211 137.363 13.4462 135.905C14.6814 134.448 16.1998 133.259 17.9083 132.411C18.4895 132.124 17.9799 131.251 17.4001 131.538Z" fill="#1FADE0"/>
<path d="M170.883 143.769C169.154 136.471 169.442 129.282 172.404 122.24C172.435 121.804 172.637 121.398 172.966 121.112C173.294 120.826 173.722 120.682 174.156 120.713L190.34 121.866C190.774 121.898 191.178 122.101 191.463 122.431C191.748 122.761 191.891 123.191 191.86 123.627L190.34 145.156C190.308 145.592 190.106 145.998 189.778 146.284C189.449 146.57 189.021 146.714 188.588 146.683L172.403 145.53C171.97 145.498 171.566 145.295 171.281 144.965C170.996 144.635 170.853 144.205 170.883 143.769V143.769Z" fill="#F2F2F2"/>
<path d="M172.584 137.355C171.2 133.758 172.085 128.812 173.562 123.514C173.591 123.106 173.78 122.726 174.088 122.458C174.395 122.19 174.796 122.055 175.203 122.084L189.112 123.075C189.518 123.105 189.896 123.295 190.163 123.604C190.43 123.913 190.563 124.316 190.535 124.724L189.182 143.882C189.153 144.29 188.964 144.67 188.656 144.938C188.348 145.206 187.947 145.341 187.541 145.312L178.925 144.698C177.115 144.567 175.432 143.72 174.243 142.344C173.054 140.967 172.458 139.173 172.584 137.355V137.355Z" fill="white"/>
<path d="M187.218 128.503C183.95 130.12 181.368 131.618 180.01 134.999C179.136 132.974 178.261 132.298 177.387 130.273C177.13 129.677 176.262 130.192 176.518 130.783C177.553 133.18 178.588 135.577 179.623 137.974C179.806 138.397 180.429 138.232 180.543 137.853C181.103 136.024 182.029 134.328 183.265 132.87C184.5 131.413 186.018 130.224 187.727 129.377C188.308 129.089 187.798 128.216 187.218 128.503Z" fill="#1FADE0"/>
<path d="M176.327 118.666L180.767 111.378L185.265 113.345L180.298 120.883C180.372 121.41 180.299 121.947 180.085 122.434C179.872 122.921 179.528 123.339 179.091 123.64C178.655 123.941 178.143 124.114 177.614 124.139C177.085 124.165 176.559 124.041 176.096 123.783C175.633 123.524 175.251 123.141 174.993 122.676C174.735 122.212 174.611 121.684 174.635 121.152C174.659 120.621 174.83 120.107 175.129 119.667C175.428 119.228 175.843 118.881 176.327 118.666V118.666Z" fill="#FFB6B6"/>
<path d="M176.758 67.6594C176.758 67.6594 182.958 65.3931 183.739 66.9627C184.521 68.5323 188.715 97.1743 188.18 98.68C187.645 100.186 184.26 96.0002 187.645 100.186C191.03 104.371 190.509 103.325 189.728 104.11C188.947 104.895 185.725 115.884 185.725 115.884L176.758 114.697L179.834 97.5698L175.873 76.1755L176.758 67.6594Z" fill="#E6E6E6"/>
</g>
<defs>
<clipPath id="clip0_54_242">
<rect width="240" height="204" fill="white"/>
</clipPath>
</defs>
</svg>
