<svg width="477" height="46" viewBox="0 0 477 46" fill="none" xmlns="http://www.w3.org/2000/svg">
<path d="M6.1543 2.09356H3.02344V21.9998H5.48438V14.0564L5.2793 6.03106L8.65625 16.4627H10.1055L13.7832 5.74395L13.5781 14.0564V21.9998H16.0391V2.09356H12.8945L9.39453 12.0467L6.1543 2.09356Z" fill="#2E2F30"/>
<path d="M19.4844 14.4666V14.7674C19.4844 15.8338 19.6393 16.8227 19.9492 17.7342C20.2591 18.6456 20.7057 19.4386 21.2891 20.1131C21.8633 20.7876 22.5651 21.3162 23.3945 21.699C24.2331 22.0818 25.1764 22.2732 26.2246 22.2732C27.2637 22.2732 28.1979 22.0818 29.0273 21.699C29.8568 21.3162 30.5632 20.7876 31.1465 20.1131C31.7207 19.4386 32.1628 18.6456 32.4727 17.7342C32.7826 16.8227 32.9375 15.8338 32.9375 14.7674V14.4666C32.9375 13.4002 32.7826 12.4113 32.4727 11.4998C32.1628 10.5792 31.7207 9.78171 31.1465 9.10723C30.5632 8.43275 29.8522 7.9041 29.0137 7.52129C28.1842 7.12936 27.2454 6.9334 26.1973 6.9334C25.1582 6.9334 24.224 7.12936 23.3945 7.52129C22.5651 7.9041 21.8633 8.43275 21.2891 9.10723C20.7057 9.78171 20.2591 10.5792 19.9492 11.4998C19.6393 12.4113 19.4844 13.4002 19.4844 14.4666ZM22.0137 14.7674V14.4666C22.0137 13.7466 22.1003 13.0584 22.2734 12.4021C22.4466 11.7368 22.7109 11.1535 23.0664 10.6521C23.4128 10.1508 23.8457 9.75436 24.3652 9.4627C24.8848 9.16191 25.4954 9.01152 26.1973 9.01152C26.8991 9.01152 27.5098 9.16191 28.0293 9.4627C28.5579 9.75436 29 10.1508 29.3555 10.6521C29.7018 11.1535 29.9616 11.7368 30.1348 12.4021C30.3171 13.0584 30.4082 13.7466 30.4082 14.4666V14.7674C30.4082 15.4966 30.3216 16.1938 30.1484 16.8592C29.9753 17.5154 29.7155 18.0942 29.3691 18.5955C29.0137 19.0968 28.5716 19.4933 28.043 19.785C27.5234 20.0766 26.9173 20.2225 26.2246 20.2225C25.5228 20.2225 24.9076 20.0766 24.3789 19.785C23.8503 19.4933 23.4128 19.0968 23.0664 18.5955C22.7109 18.0942 22.4466 17.5154 22.2734 16.8592C22.1003 16.1938 22.0137 15.4966 22.0137 14.7674Z" fill="#2E2F30"/>
<path d="M37.0117 21.9998H39.541V11.3904C39.7142 11.0714 39.9147 10.7798 40.1426 10.5154C40.3796 10.2511 40.6348 10.0187 40.9082 9.81816C41.2454 9.5903 41.6146 9.41257 42.0156 9.28496C42.4167 9.14824 42.8496 9.07988 43.3145 9.07988C43.8522 9.07988 44.3262 9.14369 44.7363 9.27129C45.1556 9.39889 45.5111 9.60397 45.8027 9.88652C46.0853 10.1691 46.2995 10.5382 46.4453 10.9939C46.5911 11.4497 46.6641 12.0057 46.6641 12.6619V21.9998H49.1934V12.6072C49.1934 11.6229 49.0703 10.7752 48.8242 10.0643C48.5872 9.34421 48.2454 8.75176 47.7988 8.28691C47.3522 7.82207 46.8099 7.48027 46.1719 7.26152C45.543 7.04277 44.8411 6.9334 44.0664 6.9334C43.4922 6.94251 42.9453 7.0291 42.4258 7.19316C41.9154 7.34811 41.4414 7.57142 41.0039 7.86309C40.7122 8.05449 40.4342 8.28236 40.1699 8.54668C39.9147 8.80189 39.6777 9.08444 39.459 9.39434L39.2812 7.20684H37.0117V21.9998Z" fill="#2E2F30"/>
<path d="M53.1172 14.4666V14.7674C53.1172 15.8338 53.2721 16.8227 53.582 17.7342C53.8919 18.6456 54.3385 19.4386 54.9219 20.1131C55.4961 20.7876 56.1979 21.3162 57.0273 21.699C57.8659 22.0818 58.8092 22.2732 59.8574 22.2732C60.8965 22.2732 61.8307 22.0818 62.6602 21.699C63.4896 21.3162 64.196 20.7876 64.7793 20.1131C65.3535 19.4386 65.7956 18.6456 66.1055 17.7342C66.4154 16.8227 66.5703 15.8338 66.5703 14.7674V14.4666C66.5703 13.4002 66.4154 12.4113 66.1055 11.4998C65.7956 10.5792 65.3535 9.78171 64.7793 9.10723C64.196 8.43275 63.485 7.9041 62.6465 7.52129C61.8171 7.12936 60.8783 6.9334 59.8301 6.9334C58.791 6.9334 57.8568 7.12936 57.0273 7.52129C56.1979 7.9041 55.4961 8.43275 54.9219 9.10723C54.3385 9.78171 53.8919 10.5792 53.582 11.4998C53.2721 12.4113 53.1172 13.4002 53.1172 14.4666ZM55.6465 14.7674V14.4666C55.6465 13.7466 55.7331 13.0584 55.9062 12.4021C56.0794 11.7368 56.3438 11.1535 56.6992 10.6521C57.0456 10.1508 57.4785 9.75436 57.998 9.4627C58.5176 9.16191 59.1283 9.01152 59.8301 9.01152C60.5319 9.01152 61.1426 9.16191 61.6621 9.4627C62.1908 9.75436 62.6328 10.1508 62.9883 10.6521C63.3346 11.1535 63.5944 11.7368 63.7676 12.4021C63.9499 13.0584 64.041 13.7466 64.041 14.4666V14.7674C64.041 15.4966 63.9544 16.1938 63.7812 16.8592C63.6081 17.5154 63.3483 18.0942 63.002 18.5955C62.6465 19.0968 62.2044 19.4933 61.6758 19.785C61.1562 20.0766 60.5501 20.2225 59.8574 20.2225C59.1556 20.2225 58.5404 20.0766 58.0117 19.785C57.4831 19.4933 57.0456 19.0968 56.6992 18.5955C56.3438 18.0942 56.0794 17.5154 55.9062 16.8592C55.7331 16.1938 55.6465 15.4966 55.6465 14.7674Z" fill="#2E2F30"/>
<path d="M80.4746 18.076C80.4746 18.313 80.429 18.5363 80.3379 18.7459C80.2467 18.9555 80.1146 19.1469 79.9414 19.3201C79.6589 19.6027 79.2669 19.826 78.7656 19.99C78.2643 20.145 77.6764 20.2225 77.002 20.2225C76.5736 20.2225 76.1406 20.1769 75.7031 20.0857C75.2656 19.9946 74.8691 19.8396 74.5137 19.6209C74.1491 19.4021 73.8438 19.115 73.5977 18.7596C73.3607 18.4041 73.224 17.9666 73.1875 17.4471H70.6582C70.6582 18.076 70.7995 18.6821 71.082 19.2654C71.3737 19.8488 71.793 20.3592 72.3398 20.7967C72.8776 21.2433 73.5384 21.6033 74.3223 21.8768C75.1061 22.1411 75.9993 22.2732 77.002 22.2732C77.877 22.2732 78.6836 22.1684 79.4219 21.9588C80.1602 21.7492 80.7936 21.4529 81.3223 21.0701C81.8509 20.6873 82.2611 20.227 82.5527 19.6893C82.8535 19.1515 83.0039 18.5545 83.0039 17.8982C83.0039 17.2876 82.8717 16.7498 82.6074 16.285C82.3522 15.8201 81.9785 15.41 81.4863 15.0545C80.9941 14.7081 80.388 14.4119 79.668 14.1658C78.9479 13.9106 78.1322 13.6873 77.2207 13.4959C76.528 13.3592 75.9538 13.2179 75.498 13.0721C75.0514 12.9262 74.696 12.7622 74.4316 12.5799C74.1582 12.3976 73.9668 12.1925 73.8574 11.9646C73.748 11.7368 73.6934 11.477 73.6934 11.1854C73.6934 10.9028 73.7617 10.6294 73.8984 10.365C74.0352 10.1007 74.2402 9.8683 74.5137 9.66777C74.778 9.46725 75.1107 9.30775 75.5117 9.18926C75.9219 9.07077 76.3958 9.01152 76.9336 9.01152C77.4531 9.01152 77.918 9.08444 78.3281 9.23027C78.7474 9.37611 79.1029 9.56751 79.3945 9.80449C79.6862 10.0415 79.9141 10.3149 80.0781 10.6248C80.2422 10.9256 80.3242 11.2355 80.3242 11.5545H82.8535C82.8535 10.9074 82.7122 10.3058 82.4297 9.74981C82.1562 9.1847 81.7643 8.69251 81.2539 8.27324C80.7435 7.85397 80.1237 7.52585 79.3945 7.28887C78.6654 7.05189 77.8451 6.9334 76.9336 6.9334C76.0859 6.9334 75.3066 7.04733 74.5957 7.2752C73.8939 7.50306 73.2878 7.81296 72.7773 8.20488C72.2669 8.59681 71.8704 9.0571 71.5879 9.58574C71.3053 10.1053 71.1641 10.6658 71.1641 11.2674C71.1641 11.8781 71.3008 12.4158 71.5742 12.8807C71.8477 13.3364 72.235 13.7329 72.7363 14.0701C73.2285 14.4165 73.821 14.7127 74.5137 14.9588C75.2155 15.2049 75.9902 15.4145 76.8379 15.5877C77.5306 15.7244 78.1094 15.8794 78.5742 16.0525C79.0391 16.2166 79.4128 16.3989 79.6953 16.5994C79.9779 16.7999 80.1784 17.0232 80.2969 17.2693C80.4154 17.5063 80.4746 17.7752 80.4746 18.076Z" fill="#2E2F30"/>
<path d="M87.4473 27.6873H89.9766V20.5779C90.1589 20.7785 90.3548 20.9653 90.5645 21.1385C90.7741 21.3025 90.9974 21.4529 91.2344 21.5896C91.6263 21.8084 92.0638 21.977 92.5469 22.0955C93.0391 22.214 93.5677 22.2732 94.1328 22.2732C95.0625 22.2732 95.8874 22.0818 96.6074 21.699C97.3366 21.3162 97.9473 20.7876 98.4395 20.1131C98.9316 19.4386 99.3053 18.6456 99.5605 17.7342C99.8158 16.8136 99.9434 15.8247 99.9434 14.7674V14.4803C99.9434 13.3774 99.8158 12.3657 99.5605 11.4451C99.3053 10.5154 98.9316 9.7179 98.4395 9.05254C97.9473 8.38718 97.3366 7.86764 96.6074 7.49395C95.8783 7.12025 95.0397 6.9334 94.0918 6.9334C93.554 6.9334 93.0482 6.99264 92.5742 7.11113C92.1094 7.22051 91.6855 7.38457 91.3027 7.60332C91.0293 7.74915 90.7741 7.92689 90.5371 8.13652C90.3001 8.33705 90.0814 8.56491 89.8809 8.82012L89.7578 7.20684H87.4473V27.6873ZM97.4141 14.4803V14.7674C97.4141 15.4874 97.332 16.1756 97.168 16.8318C97.013 17.4881 96.7715 18.0669 96.4434 18.5682C96.1152 19.0695 95.696 19.4705 95.1855 19.7713C94.6751 20.063 94.069 20.2088 93.3672 20.2088C92.9297 20.2088 92.5286 20.1541 92.1641 20.0447C91.8086 19.9354 91.485 19.785 91.1934 19.5936C90.9382 19.4295 90.7103 19.229 90.5098 18.992C90.3092 18.755 90.1315 18.4998 89.9766 18.2264V11.1033C90.1497 10.7934 90.3503 10.5109 90.5781 10.2557C90.806 10.0005 91.0658 9.78626 91.3574 9.61309C91.6217 9.43991 91.918 9.30775 92.2461 9.2166C92.5833 9.12546 92.9479 9.07988 93.3398 9.07988C94.0508 9.07988 94.6615 9.22572 95.1719 9.51738C95.6823 9.80905 96.1061 10.201 96.4434 10.6932C96.7715 11.1945 97.013 11.7732 97.168 12.4295C97.332 13.0766 97.4141 13.7602 97.4141 14.4803Z" fill="#2E2F30"/>
<path d="M113.998 21.9998H116.637V21.7811C116.473 21.3709 116.345 20.8924 116.254 20.3455C116.163 19.7895 116.117 19.2654 116.117 18.7732V11.8963C116.117 11.0669 115.967 10.3423 115.666 9.72246C115.365 9.10267 114.955 8.58314 114.436 8.16387C113.907 7.75371 113.283 7.44837 112.562 7.24785C111.842 7.03822 111.063 6.9334 110.225 6.9334C109.304 6.9334 108.479 7.061 107.75 7.31621C107.03 7.57142 106.419 7.9041 105.918 8.31426C105.408 8.73353 105.016 9.20293 104.742 9.72246C104.478 10.242 104.341 10.7706 104.332 11.3084H106.875C106.875 10.9985 106.948 10.7023 107.094 10.4197C107.249 10.1281 107.463 9.87741 107.736 9.66777C108.01 9.45814 108.342 9.28952 108.734 9.16191C109.135 9.03431 109.587 8.97051 110.088 8.97051C110.626 8.97051 111.109 9.03887 111.537 9.17559C111.975 9.31231 112.344 9.50371 112.645 9.74981C112.945 10.005 113.178 10.3104 113.342 10.6658C113.506 11.0213 113.588 11.4223 113.588 11.8689V13.0311H110.826C109.796 13.0311 108.862 13.1313 108.023 13.3318C107.194 13.5324 106.483 13.8331 105.891 14.2342C105.298 14.6443 104.838 15.1548 104.51 15.7654C104.191 16.3761 104.031 17.087 104.031 17.8982C104.031 18.518 104.15 19.0968 104.387 19.6346C104.633 20.1632 104.979 20.6189 105.426 21.0018C105.863 21.3937 106.396 21.7036 107.025 21.9314C107.663 22.1593 108.374 22.2732 109.158 22.2732C109.641 22.2732 110.097 22.2231 110.525 22.1229C110.954 22.0226 111.359 21.8859 111.742 21.7127C112.116 21.5395 112.458 21.339 112.768 21.1111C113.087 20.8833 113.374 20.6417 113.629 20.3865C113.656 20.6964 113.697 20.9972 113.752 21.2889C113.816 21.5714 113.898 21.8084 113.998 21.9998ZM109.527 20.0721C109.035 20.0721 108.602 20.0083 108.229 19.8807C107.855 19.7531 107.545 19.5753 107.299 19.3475C107.053 19.1287 106.866 18.8644 106.738 18.5545C106.62 18.2446 106.561 17.9074 106.561 17.5428C106.561 17.16 106.629 16.8182 106.766 16.5174C106.911 16.2166 107.121 15.9568 107.395 15.7381C107.777 15.4282 108.292 15.2003 108.939 15.0545C109.596 14.8995 110.361 14.8221 111.236 14.8221H113.588V17.8162C113.442 18.1079 113.242 18.3904 112.986 18.6639C112.731 18.9282 112.43 19.1652 112.084 19.3748C111.729 19.5844 111.337 19.7531 110.908 19.8807C110.48 20.0083 110.02 20.0721 109.527 20.0721Z" fill="#2E2F30"/>
<path d="M127.396 20.2225C126.604 20.2225 125.938 20.0675 125.4 19.7576C124.872 19.4386 124.448 19.0239 124.129 18.5135C123.801 18.0122 123.564 17.4471 123.418 16.8182C123.281 16.1801 123.213 15.5376 123.213 14.8904V14.3162C123.213 13.6782 123.281 13.0447 123.418 12.4158C123.564 11.7869 123.801 11.2173 124.129 10.7068C124.457 10.2055 124.885 9.79994 125.414 9.49004C125.952 9.17103 126.613 9.01152 127.396 9.01152C127.907 9.01152 128.381 9.09811 128.818 9.27129C129.265 9.44447 129.648 9.68145 129.967 9.98223C130.286 10.283 130.536 10.6339 130.719 11.035C130.91 11.4269 131.01 11.8462 131.02 12.2928H133.412C133.412 11.5454 133.262 10.8436 132.961 10.1873C132.66 9.53106 132.245 8.96139 131.717 8.47832C131.179 8.00436 130.541 7.63066 129.803 7.35723C129.074 7.07468 128.271 6.9334 127.396 6.9334C126.275 6.9334 125.296 7.13392 124.457 7.53496C123.618 7.936 122.921 8.47376 122.365 9.14824C121.8 9.83184 121.376 10.6202 121.094 11.5135C120.811 12.4067 120.67 13.341 120.67 14.3162V14.8904C120.67 15.8748 120.811 16.8136 121.094 17.7068C121.376 18.591 121.8 19.3702 122.365 20.0447C122.921 20.7283 123.618 21.2706 124.457 21.6717C125.296 22.0727 126.275 22.2732 127.396 22.2732C128.18 22.2732 128.932 22.1411 129.652 21.8768C130.372 21.6033 131.01 21.2387 131.566 20.783C132.122 20.3364 132.564 19.8169 132.893 19.2244C133.23 18.6229 133.403 17.9939 133.412 17.3377H131.02C131.01 17.7479 130.901 18.1307 130.691 18.4861C130.491 18.8325 130.222 19.1333 129.885 19.3885C129.548 19.6528 129.16 19.8579 128.723 20.0037C128.294 20.1495 127.852 20.2225 127.396 20.2225Z" fill="#2E2F30"/>
<path d="M144.445 22.2732C145.885 22.2732 147.093 21.9861 148.068 21.4119C149.053 20.8286 149.791 20.1632 150.283 19.4158L148.738 18.2127C148.273 18.8143 147.69 19.2973 146.988 19.6619C146.286 20.0265 145.484 20.2088 144.582 20.2088C143.898 20.2088 143.274 20.0812 142.709 19.826C142.144 19.5708 141.661 19.2199 141.26 18.7732C140.868 18.354 140.558 17.8709 140.33 17.324C140.111 16.7771 139.97 16.1437 139.906 15.4236V15.3279H150.475V14.1932C150.475 13.1632 150.342 12.2062 150.078 11.3221C149.823 10.438 149.431 9.66777 148.902 9.01152C148.374 8.36439 147.708 7.85853 146.906 7.49395C146.113 7.12025 145.184 6.9334 144.117 6.9334C143.27 6.9334 142.44 7.10658 141.629 7.45293C140.827 7.79928 140.111 8.29603 139.482 8.94316C138.844 9.59941 138.334 10.4015 137.951 11.3494C137.568 12.2882 137.377 13.3546 137.377 14.5486V15.1229C137.377 16.1528 137.55 17.1053 137.896 17.9803C138.243 18.8553 138.726 19.6118 139.346 20.2498C139.965 20.8878 140.708 21.3846 141.574 21.74C142.449 22.0955 143.406 22.2732 144.445 22.2732ZM144.117 9.01152C144.764 9.01152 145.32 9.13001 145.785 9.36699C146.259 9.60397 146.651 9.91387 146.961 10.2967C147.271 10.6795 147.512 11.1352 147.686 11.6639C147.859 12.1834 147.945 12.671 147.945 13.1268V13.2498H139.988C140.089 12.5662 140.262 11.9646 140.508 11.4451C140.763 10.9165 141.073 10.4699 141.438 10.1053C141.802 9.74981 142.212 9.48093 142.668 9.29863C143.124 9.10723 143.607 9.01152 144.117 9.01152Z" fill="#2E2F30"/>
<path d="M171.016 20.9998V2.63181H173.872L176.448 10.4718L177.344 13.4398H177.456L178.324 10.4718L180.928 2.63181H183.784V20.9998H181.544V11.8158C181.544 11.3678 181.553 10.8545 181.572 10.2758C181.609 9.67847 181.647 9.08114 181.684 8.4838C181.74 7.88647 181.787 7.30781 181.824 6.74781C181.861 6.1878 181.899 5.71181 181.936 5.31981H181.852L180.816 8.90381L178.184 16.1278H176.504L173.928 8.90381L172.864 5.31981H172.808C172.845 5.71181 172.883 6.1878 172.92 6.74781C172.976 7.30781 173.023 7.88647 173.06 8.4838C173.097 9.08114 173.125 9.67847 173.144 10.2758C173.181 10.8545 173.2 11.3678 173.2 11.8158V20.9998H171.016Z" fill="#2E2F30"/>
<path d="M194.189 21.3358C193.293 21.3358 192.434 21.1771 191.613 20.8598C190.81 20.5425 190.101 20.0851 189.485 19.4878C188.869 18.8718 188.374 18.1251 188.001 17.2478C187.646 16.3518 187.469 15.3438 187.469 14.2238C187.469 13.0851 187.646 12.0771 188.001 11.1998C188.374 10.3038 188.869 9.54781 189.485 8.93181C190.101 8.31581 190.81 7.84914 191.613 7.5318C192.434 7.21447 193.293 7.05581 194.189 7.05581C195.085 7.05581 195.934 7.21447 196.737 7.5318C197.558 7.84914 198.277 8.31581 198.893 8.93181C199.509 9.54781 199.994 10.3038 200.349 11.1998C200.722 12.0771 200.909 13.0851 200.909 14.2238C200.909 15.3438 200.722 16.3518 200.349 17.2478C199.994 18.1251 199.509 18.8718 198.893 19.4878C198.277 20.0851 197.558 20.5425 196.737 20.8598C195.934 21.1771 195.085 21.3358 194.189 21.3358ZM194.189 19.4318C194.842 19.4318 195.43 19.3105 195.953 19.0678C196.494 18.8065 196.952 18.4518 197.325 18.0038C197.717 17.5371 198.016 16.9865 198.221 16.3518C198.426 15.7171 198.529 15.0078 198.529 14.2238C198.529 13.4398 198.426 12.7305 198.221 12.0958C198.016 11.4425 197.717 10.8825 197.325 10.4158C196.952 9.94914 196.494 9.59447 195.953 9.35181C195.43 9.09047 194.842 8.95981 194.189 8.95981C193.536 8.95981 192.938 9.09047 192.397 9.35181C191.874 9.59447 191.417 9.94914 191.025 10.4158C190.652 10.8825 190.362 11.4425 190.157 12.0958C189.952 12.7305 189.849 13.4398 189.849 14.2238C189.849 15.0078 189.952 15.7171 190.157 16.3518C190.362 16.9865 190.652 17.5371 191.025 18.0038C191.417 18.4518 191.874 18.8065 192.397 19.0678C192.938 19.3105 193.536 19.4318 194.189 19.4318Z" fill="#2E2F30"/>
<path d="M205.182 20.9998V7.3918H207.086L207.282 9.71581H207.394C208.103 8.95047 208.869 8.3158 209.69 7.81181C210.511 7.30781 211.454 7.05581 212.518 7.05581C214.142 7.05581 215.327 7.52247 216.074 8.45581C216.839 9.37047 217.222 10.7331 217.222 12.5438V20.9998H214.926V12.8518C214.926 11.5638 214.683 10.6118 214.198 9.99581C213.713 9.36114 212.91 9.04381 211.79 9.04381C211.379 9.04381 210.997 9.09981 210.642 9.2118C210.306 9.30514 209.97 9.45447 209.634 9.6598C209.298 9.86514 208.953 10.1265 208.598 10.4438C208.243 10.7425 207.87 11.0971 207.478 11.5078V20.9998H205.182Z" fill="#2E2F30"/>
<path d="M227.767 21.3358C226.871 21.3358 226.013 21.1771 225.191 20.8598C224.389 20.5425 223.679 20.0851 223.063 19.4878C222.447 18.8718 221.953 18.1251 221.579 17.2478C221.225 16.3518 221.047 15.3438 221.047 14.2238C221.047 13.0851 221.225 12.0771 221.579 11.1998C221.953 10.3038 222.447 9.54781 223.063 8.93181C223.679 8.31581 224.389 7.84914 225.191 7.5318C226.013 7.21447 226.871 7.05581 227.767 7.05581C228.663 7.05581 229.513 7.21447 230.315 7.5318C231.137 7.84914 231.855 8.31581 232.471 8.93181C233.087 9.54781 233.573 10.3038 233.927 11.1998C234.301 12.0771 234.487 13.0851 234.487 14.2238C234.487 15.3438 234.301 16.3518 233.927 17.2478C233.573 18.1251 233.087 18.8718 232.471 19.4878C231.855 20.0851 231.137 20.5425 230.315 20.8598C229.513 21.1771 228.663 21.3358 227.767 21.3358ZM227.767 19.4318C228.421 19.4318 229.009 19.3105 229.531 19.0678C230.073 18.8065 230.53 18.4518 230.903 18.0038C231.295 17.5371 231.594 16.9865 231.799 16.3518C232.005 15.7171 232.107 15.0078 232.107 14.2238C232.107 13.4398 232.005 12.7305 231.799 12.0958C231.594 11.4425 231.295 10.8825 230.903 10.4158C230.53 9.94914 230.073 9.59447 229.531 9.35181C229.009 9.09047 228.421 8.95981 227.767 8.95981C227.114 8.95981 226.517 9.09047 225.975 9.35181C225.453 9.59447 224.995 9.94914 224.603 10.4158C224.23 10.8825 223.941 11.4425 223.735 12.0958C223.53 12.7305 223.427 13.4398 223.427 14.2238C223.427 15.0078 223.53 15.7171 223.735 16.3518C223.941 16.9865 224.23 17.5371 224.603 18.0038C224.995 18.4518 225.453 18.8065 225.975 19.0678C226.517 19.3105 227.114 19.4318 227.767 19.4318Z" fill="#2E2F30"/>
<path d="M244.836 21.3358C243.492 21.3358 242.251 21.1305 241.112 20.7198C239.974 20.2905 238.984 19.7865 238.144 19.2078L239.208 17.6958C239.992 18.2558 240.851 18.7038 241.784 19.0398C242.736 19.3758 243.847 19.5438 245.116 19.5438C246.274 19.5438 247.132 19.3385 247.692 18.9278C248.271 18.4985 248.56 17.9945 248.56 17.4158C248.56 17.1545 248.514 16.9118 248.42 16.6878C248.327 16.4638 248.122 16.2491 247.804 16.0438C247.506 15.8385 247.076 15.6425 246.516 15.4558C245.956 15.2691 245.219 15.0825 244.304 14.8958C242.531 14.5225 241.196 14.0278 240.3 13.4118C239.423 12.7771 238.984 11.9465 238.984 10.9198C238.984 10.3785 239.106 9.87447 239.348 9.4078C239.591 8.92247 239.946 8.5118 240.412 8.1758C240.898 7.82114 241.486 7.55047 242.176 7.36381C242.886 7.15847 243.707 7.05581 244.64 7.05581C245.686 7.05581 246.694 7.23314 247.664 7.5878C248.635 7.9238 249.456 8.32514 250.128 8.79181L249.008 10.2758C248.374 9.84647 247.674 9.50114 246.908 9.23981C246.143 8.97847 245.322 8.84781 244.444 8.84781C243.287 8.84781 242.475 9.04381 242.008 9.43581C241.542 9.82781 241.308 10.2851 241.308 10.8078C241.308 11.4051 241.616 11.8625 242.232 12.1798C242.848 12.4785 243.856 12.7771 245.256 13.0758C246.395 13.3185 247.328 13.5798 248.056 13.8598C248.784 14.1211 249.354 14.4198 249.764 14.7558C250.194 15.0918 250.483 15.4651 250.632 15.8758C250.8 16.2865 250.884 16.7531 250.884 17.2758C250.884 17.8358 250.754 18.3585 250.492 18.8438C250.231 19.3291 249.839 19.7585 249.316 20.1318C248.812 20.5051 248.178 20.7945 247.412 20.9998C246.666 21.2238 245.807 21.3358 244.836 21.3358Z" fill="#2E2F30"/>
<path d="M255.549 26.7398V7.3918H257.453L257.649 9.1278H257.733C258.368 8.53047 259.096 8.0358 259.917 7.64381C260.757 7.25181 261.597 7.05581 262.437 7.05581C263.352 7.05581 264.155 7.2238 264.845 7.5598C265.555 7.87714 266.143 8.34381 266.609 8.95981C267.095 9.55714 267.459 10.2851 267.701 11.1438C267.944 11.9838 268.065 12.9358 268.065 13.9998C268.065 15.1571 267.897 16.1931 267.561 17.1078C267.225 18.0038 266.768 18.7691 266.189 19.4038C265.629 20.0385 264.976 20.5238 264.229 20.8598C263.483 21.1771 262.699 21.3358 261.877 21.3358C261.243 21.3358 260.552 21.1865 259.805 20.8878C259.077 20.5705 258.415 20.1318 257.817 19.5718H257.733L257.845 22.1478V26.7398H255.549ZM261.485 19.4038C262.717 19.4038 263.725 18.9278 264.509 17.9758C265.293 17.0238 265.685 15.6985 265.685 13.9998C265.685 13.2531 265.611 12.5718 265.461 11.9558C265.312 11.3398 265.079 10.8171 264.761 10.3878C264.463 9.93981 264.071 9.59447 263.585 9.35181C263.1 9.10914 262.521 8.98781 261.849 8.98781C261.252 8.98781 260.608 9.1558 259.917 9.49181C259.245 9.80914 258.555 10.3225 257.845 11.0318V17.8078C258.499 18.3865 259.152 18.7971 259.805 19.0398C260.459 19.2825 261.019 19.4038 261.485 19.4038Z" fill="#2E2F30"/>
<path d="M276.622 21.3358C275.988 21.3358 275.39 21.2425 274.83 21.0558C274.27 20.8878 273.776 20.6451 273.346 20.3278C272.936 19.9918 272.609 19.5905 272.366 19.1238C272.124 18.6385 272.002 18.0878 272.002 17.4718C272.002 16.7065 272.18 16.0438 272.534 15.4838C272.908 14.9051 273.486 14.4105 274.27 13.9998C275.073 13.5891 276.1 13.2531 277.35 12.9918C278.601 12.7305 280.104 12.5251 281.858 12.3758C281.84 11.9091 281.765 11.4705 281.634 11.0598C281.504 10.6491 281.298 10.2945 281.018 9.99581C280.738 9.67847 280.365 9.42647 279.898 9.23981C279.45 9.05314 278.9 8.95981 278.246 8.95981C277.35 8.95981 276.492 9.13714 275.67 9.49181C274.849 9.82781 274.121 10.1918 273.486 10.5838L272.59 9.0158C272.926 8.7918 273.318 8.56781 273.766 8.34381C274.233 8.10114 274.718 7.88647 275.222 7.69981C275.745 7.51314 276.296 7.36381 276.874 7.2518C277.453 7.12114 278.041 7.05581 278.638 7.05581C280.505 7.05581 281.886 7.56914 282.782 8.59581C283.697 9.6038 284.154 10.9571 284.154 12.6558V20.9998H282.278L282.082 19.1518H281.998C281.233 19.7491 280.384 20.2625 279.45 20.6918C278.536 21.1211 277.593 21.3358 276.622 21.3358ZM277.238 19.4878C278.022 19.4878 278.788 19.3198 279.534 18.9838C280.3 18.6291 281.074 18.1251 281.858 17.4718V13.8878C280.402 13.9998 279.18 14.1585 278.19 14.3638C277.22 14.5691 276.436 14.8211 275.838 15.1198C275.26 15.3998 274.849 15.7265 274.606 16.0998C274.364 16.4545 274.242 16.8558 274.242 17.3038C274.242 17.6958 274.326 18.0318 274.494 18.3118C274.662 18.5731 274.877 18.7971 275.138 18.9838C275.418 19.1518 275.736 19.2825 276.09 19.3758C276.464 19.4505 276.846 19.4878 277.238 19.4878Z" fill="#2E2F30"/>
<path d="M296.211 21.3358C295.147 21.3358 294.158 21.1771 293.243 20.8598C292.347 20.5425 291.563 20.0851 290.891 19.4878C290.219 18.8718 289.697 18.1251 289.323 17.2478C288.95 16.3518 288.763 15.3438 288.763 14.2238C288.763 13.0851 288.959 12.0771 289.351 11.1998C289.762 10.3038 290.313 9.54781 291.003 8.93181C291.694 8.31581 292.497 7.84914 293.411 7.5318C294.345 7.21447 295.325 7.05581 296.351 7.05581C297.471 7.05581 298.433 7.25181 299.235 7.64381C300.057 8.0358 300.747 8.50247 301.307 9.04381L300.159 10.5278C299.599 10.0425 299.011 9.65981 298.395 9.37981C297.798 9.09981 297.145 8.95981 296.435 8.95981C295.651 8.95981 294.933 9.09047 294.279 9.35181C293.626 9.59447 293.066 9.94914 292.599 10.4158C292.151 10.8825 291.797 11.4425 291.535 12.0958C291.274 12.7305 291.143 13.4398 291.143 14.2238C291.143 15.0078 291.265 15.7171 291.507 16.3518C291.769 16.9865 292.123 17.5371 292.571 18.0038C293.038 18.4518 293.589 18.8065 294.223 19.0678C294.877 19.3105 295.595 19.4318 296.379 19.4318C297.219 19.4318 297.985 19.2731 298.675 18.9558C299.385 18.6198 300.019 18.2091 300.579 17.7238L301.615 19.2078C300.85 19.8798 300.01 20.4025 299.095 20.7758C298.181 21.1491 297.219 21.3358 296.211 21.3358Z" fill="#2E2F30"/>
<path d="M312.552 21.3358C311.526 21.3358 310.564 21.1771 309.668 20.8598C308.791 20.5425 308.017 20.0758 307.345 19.4598C306.691 18.8438 306.168 18.0971 305.776 17.2198C305.403 16.3238 305.216 15.3065 305.216 14.1678C305.216 13.0665 305.403 12.0771 305.776 11.1998C306.168 10.3225 306.682 9.57581 307.316 8.95981C307.97 8.34381 308.707 7.87714 309.529 7.5598C310.369 7.2238 311.246 7.05581 312.16 7.05581C313.131 7.05581 313.999 7.21447 314.764 7.5318C315.548 7.83047 316.202 8.2598 316.724 8.8198C317.266 9.3798 317.677 10.0518 317.957 10.8358C318.237 11.6198 318.376 12.4878 318.376 13.4398C318.376 13.7011 318.367 13.9531 318.349 14.1958C318.33 14.4385 318.302 14.6531 318.264 14.8398H307.54C307.69 16.3891 308.25 17.5558 309.22 18.3398C310.21 19.1051 311.414 19.4878 312.832 19.4878C313.654 19.4878 314.391 19.3758 315.044 19.1518C315.716 18.9091 316.361 18.5918 316.977 18.1998L317.816 19.7118C317.144 20.1598 316.37 20.5425 315.492 20.8598C314.634 21.1771 313.654 21.3358 312.552 21.3358ZM312.216 8.8758C311.656 8.8758 311.115 8.96914 310.592 9.15581C310.088 9.34247 309.631 9.61314 309.22 9.9678C308.81 10.3038 308.465 10.7331 308.185 11.2558C307.905 11.7785 307.708 12.3758 307.596 13.0478H316.276C316.183 11.6478 315.772 10.6025 315.044 9.91181C314.335 9.22114 313.392 8.8758 312.216 8.8758Z" fill="#2E2F30"/>
<path d="M350.02 1.7998C350.767 1.7998 351.14 4.83314 351.14 10.8998C351.14 16.9665 350.767 19.9998 350.02 19.9998C349.273 19.9998 348.9 17.9931 348.9 13.9798C348.9 10.0038 348.387 10.0038 347.36 13.9798C346.315 17.9931 345.428 19.9998 344.7 19.9998C343.972 19.9998 343.085 18.0118 342.04 14.0358C341.013 10.0971 340.5 10.0971 340.5 14.0358C340.5 18.0118 340.127 19.9998 339.38 19.9998C338.633 19.9998 338.26 16.9665 338.26 10.8998C338.26 4.83314 338.633 1.7998 339.38 1.7998C340.127 1.7998 341.2 4.32914 342.6 9.38781C344 14.4465 345.4 14.4465 346.8 9.38781C348.2 4.32914 349.273 1.7998 350.02 1.7998Z" fill="#2E2F30"/>
<path d="M358.275 20.2798L355.419 18.5158L353.823 15.2398V10.8158L355.419 7.51181L358.275 5.7198H361.943L364.771 7.51181L366.367 10.8158V15.2398L364.799 18.5158L361.971 20.2798H358.275ZM361.943 18.1238L364.127 15.4358V10.6198L361.943 7.8758H358.303L356.063 10.6198V15.4358L358.275 18.1238H361.943Z" fill="#2E2F30"/>
<path d="M377.925 5.7198L379.997 6.64381L381.425 8.88381V15.3518C381.425 18.4505 381.052 19.9998 380.305 19.9998C379.558 19.9998 379.185 18.5438 379.185 15.6318V7.95981H374.173L372.185 10.3678C371.924 11.3758 371.793 13.2238 371.793 15.9118C371.793 18.6371 371.42 19.9998 370.673 19.9998C369.926 19.9998 369.553 17.6665 369.553 12.9998C369.553 8.33314 369.926 5.99981 370.673 5.99981C371.42 5.99981 371.793 6.69047 371.793 8.07181C371.793 9.47181 371.961 9.63047 372.297 8.54781L374.817 5.7198H377.925Z" fill="#2E2F30"/>
<path d="M389.064 20.2798L386.208 18.5158L384.612 15.2398V10.8158L386.208 7.51181L389.064 5.7198H392.732L395.56 7.51181L397.156 10.8158V15.2398L395.588 18.5158L392.76 20.2798H389.064ZM392.732 18.1238L394.916 15.4358V10.6198L392.732 7.8758H389.092L386.852 10.6198V15.4358L389.064 18.1238H392.732Z" fill="#2E2F30"/>
<path d="M401.49 15.4918C402.162 15.4918 402.601 15.8745 402.806 16.6398L405.102 18.1518H408.546L409.89 17.1998V15.3518L408.602 14.4558C407.949 14.3438 407.239 14.2225 406.474 14.0918C405.709 13.9425 404.887 13.7931 404.01 13.6438L401.266 11.6558V7.98781L403.982 5.7198H408.49L411.262 8.1278C411.299 9.52781 410.991 10.2278 410.338 10.2278C409.666 10.2278 409.209 9.46247 408.966 7.93181H404.962L403.506 8.88381V10.6198L405.074 11.5998C405.746 11.7305 406.465 11.8705 407.23 12.0198C408.014 12.1691 408.845 12.3185 409.722 12.4678L412.13 14.3438V18.1518L409.526 20.2798H404.654L401.574 18.4878L400.37 16.2198C400.426 15.7345 400.799 15.4918 401.49 15.4918Z" fill="#2E2F30"/>
<path d="M424.137 5.7198L426.573 7.5678L427.945 10.8718V15.0718L426.545 18.4038L423.969 20.2798H418.845C418.266 17.4985 417.977 17.6758 417.977 20.8118C417.977 24.0038 417.603 25.5998 416.857 25.5998C416.11 25.5998 415.737 22.3331 415.737 15.7998C415.737 9.26647 416.101 5.99981 416.829 5.99981C417.538 5.99981 417.893 6.10247 417.893 6.30781L417.977 7.95981V9.66781C417.977 9.96647 418.014 10.0225 418.089 9.83581C418.163 9.63047 418.275 9.19181 418.425 8.5198L420.665 5.7198H424.137ZM423.913 18.0958L425.705 15.3518V10.6758L423.773 7.8758H420.077L417.977 10.7598V15.3238L420.077 18.0958H423.913Z" fill="#2E2F30"/>
<path d="M441.883 5.99981C442.63 5.99981 443.003 8.33314 443.003 12.9998C443.003 17.6665 442.667 19.9998 441.995 19.9998C441.323 19.9998 440.969 19.8971 440.931 19.6918L440.763 17.7878V16.2758C440.763 15.9585 440.726 15.8931 440.651 16.0798C440.577 16.2665 440.465 16.7051 440.315 17.3958L438.075 20.2798H434.603L432.167 18.4318L430.795 15.1278V10.9278L432.195 7.59581L434.771 5.7198H438.299L440.371 8.1278C440.502 8.78114 440.595 9.1078 440.651 9.1078C440.726 9.08914 440.763 8.73447 440.763 8.04381C440.763 6.68114 441.137 5.99981 441.883 5.99981ZM438.663 18.1238L440.763 15.2398V10.6758L438.663 7.90381H434.827L433.035 10.6478V15.3238L434.967 18.1238H438.663Z" fill="#2E2F30"/>
<path d="M458.426 17.3118L455.15 20.2798H450.894L447.926 18.5158L446.19 15.2118V10.8438L447.926 7.51181L450.894 5.7198H455.122L458.398 8.68781C458.622 10.3865 458.398 11.2358 457.726 11.2358C457.035 11.2358 456.522 10.6851 456.186 9.58381L454.254 7.8758H451.538L449.578 9.1078L448.43 11.4318V14.6238L449.578 16.9198L451.538 18.1238H454.282L456.214 16.4158C456.55 15.2958 457.054 14.7358 457.726 14.7358C458.398 14.7358 458.631 15.5945 458.426 17.3118Z" fill="#2E2F30"/>
<path d="M472.98 15.4918C473.69 15.4918 473.923 16.2011 473.68 17.6198L470.74 20.2798H466.344L463.292 18.4318L461.584 15.1278V10.9278L463.236 7.59581L466.232 5.7198H471.216L474.268 9.77981C474.156 12.3185 472.392 13.5878 468.976 13.5878C465.542 13.5878 463.89 14.2691 464.02 15.6318L466.428 18.1238H471.104C471.627 16.3691 472.252 15.4918 472.98 15.4918ZM466.428 7.8758L464.384 9.83581C464.104 10.9931 465.271 11.5718 467.884 11.5718C470.498 11.5718 471.767 10.9745 471.692 9.77981L469.76 7.8758H466.428Z" fill="#2E2F30"/>
<rect x="1" y="0.5" width="16.8" height="23" stroke="#A2ACAF"/>
<rect x="17.8" y="0.5" width="16.8" height="23" stroke="#A2ACAF"/>
<rect x="34.6001" y="0.5" width="16.8" height="23" stroke="#A2ACAF"/>
<rect x="51.3999" y="0.5" width="16.8" height="23" stroke="#A2ACAF"/>
<rect x="68.2" y="0.5" width="16.8" height="23" stroke="#A2ACAF"/>
<rect x="85" y="0.5" width="16.8" height="23" stroke="#A2ACAF"/>
<rect x="101.8" y="0.5" width="16.8" height="23" stroke="#A2ACAF"/>
<rect x="118.6" y="0.5" width="16.8" height="23" stroke="#A2ACAF"/>
<rect x="135.4" y="0.5" width="16.8" height="23" stroke="#A2ACAF"/>
<rect x="169" y="0.5" width="16.8" height="23" stroke="#A2ACAF"/>
<rect x="185.8" y="0.5" width="16.8" height="23" stroke="#A2ACAF"/>
<rect x="202.6" y="0.5" width="16.8" height="23" stroke="#A2ACAF"/>
<rect x="219.4" y="0.5" width="16.8" height="23" stroke="#A2ACAF"/>
<rect x="236.2" y="0.5" width="16.8" height="23" stroke="#A2ACAF"/>
<rect x="253" y="0.5" width="16.8" height="23" stroke="#A2ACAF"/>
<rect x="269.8" y="0.5" width="16.8" height="23" stroke="#A2ACAF"/>
<rect x="286.6" y="0.5" width="16.8" height="23" stroke="#A2ACAF"/>
<rect x="303.4" y="0.5" width="16.8" height="23" stroke="#A2ACAF"/>
<rect x="337" y="0.5" width="15.4" height="23" stroke="#A2ACAF"/>
<rect x="352.4" y="0.5" width="15.4" height="23" stroke="#A2ACAF"/>
<rect x="367.8" y="0.5" width="15.4" height="23" stroke="#A2ACAF"/>
<rect x="383.2" y="0.5" width="15.4" height="23" stroke="#A2ACAF"/>
<rect x="398.6" y="0.5" width="15.4" height="23" stroke="#A2ACAF"/>
<rect x="414" y="0.5" width="15.4" height="23" stroke="#A2ACAF"/>
<rect x="429.4" y="0.5" width="15.4" height="23" stroke="#A2ACAF"/>
<rect x="444.8" y="0.5" width="15.4" height="23" stroke="#A2ACAF"/>
<rect x="460.2" y="0.5" width="15.4" height="23" stroke="#A2ACAF"/>
<path d="M39.0568 42V33.2727H42.0057C42.6875 33.2727 43.2472 33.3892 43.6847 33.6222C44.1222 33.8523 44.446 34.169 44.6562 34.5724C44.8665 34.9759 44.9716 35.4347 44.9716 35.9489C44.9716 36.4631 44.8665 36.919 44.6562 37.3168C44.446 37.7145 44.1236 38.027 43.6889 38.2543C43.2543 38.4787 42.6989 38.5909 42.0227 38.5909H39.6364V37.6364H41.9886C42.4545 37.6364 42.8295 37.5682 43.1136 37.4318C43.4006 37.2955 43.608 37.1023 43.7358 36.8523C43.8665 36.5994 43.9318 36.2983 43.9318 35.9489C43.9318 35.5994 43.8665 35.294 43.7358 35.0327C43.6051 34.7713 43.3963 34.5696 43.1094 34.4276C42.8224 34.2827 42.4432 34.2102 41.9716 34.2102H40.1136V42H39.0568ZM43.1648 38.0795L45.3125 42H44.0852L41.9716 38.0795H43.1648ZM49.185 42.1364C48.5941 42.1364 48.0756 41.9957 47.6296 41.7145C47.1864 41.4332 46.8398 41.0398 46.5898 40.5341C46.3427 40.0284 46.2191 39.4375 46.2191 38.7614C46.2191 38.0795 46.3427 37.4844 46.5898 36.9759C46.8398 36.4673 47.1864 36.0724 47.6296 35.7912C48.0756 35.5099 48.5941 35.3693 49.185 35.3693C49.7759 35.3693 50.293 35.5099 50.7362 35.7912C51.1822 36.0724 51.5288 36.4673 51.7759 36.9759C52.0259 37.4844 52.1509 38.0795 52.1509 38.7614C52.1509 39.4375 52.0259 40.0284 51.7759 40.5341C51.5288 41.0398 51.1822 41.4332 50.7362 41.7145C50.293 41.9957 49.7759 42.1364 49.185 42.1364ZM49.185 41.233C49.6339 41.233 50.0032 41.1179 50.293 40.8878C50.5827 40.6577 50.7972 40.3551 50.9364 39.9801C51.0756 39.6051 51.1452 39.1989 51.1452 38.7614C51.1452 38.3239 51.0756 37.9162 50.9364 37.5384C50.7972 37.1605 50.5827 36.8551 50.293 36.6222C50.0032 36.3892 49.6339 36.2727 49.185 36.2727C48.7362 36.2727 48.3668 36.3892 48.0771 36.6222C47.7873 36.8551 47.5728 37.1605 47.4336 37.5384C47.2944 37.9162 47.2248 38.3239 47.2248 38.7614C47.2248 39.1989 47.2944 39.6051 47.4336 39.9801C47.5728 40.3551 47.7873 40.6577 48.0771 40.8878C48.3668 41.1179 48.7362 41.233 49.185 41.233ZM53.8224 42V33.2727H54.8281V36.4943H54.9134C54.9872 36.3807 55.0895 36.2358 55.2202 36.0597C55.3537 35.8807 55.544 35.7216 55.7912 35.5824C56.0412 35.4403 56.3793 35.3693 56.8054 35.3693C57.3565 35.3693 57.8423 35.5071 58.2628 35.7827C58.6832 36.0582 59.0114 36.4489 59.2472 36.9545C59.483 37.4602 59.6009 38.0568 59.6009 38.7443C59.6009 39.4375 59.483 40.0384 59.2472 40.5469C59.0114 41.0526 58.6847 41.4446 58.267 41.723C57.8494 41.9986 57.3679 42.1364 56.8224 42.1364C56.402 42.1364 56.0653 42.0668 55.8125 41.9276C55.5597 41.7855 55.3651 41.625 55.2287 41.446C55.0923 41.2642 54.9872 41.1136 54.9134 40.9943H54.794V42H53.8224ZM54.8111 38.7273C54.8111 39.2216 54.8835 39.6577 55.0284 40.0355C55.1733 40.4105 55.3849 40.7045 55.6634 40.9176C55.9418 41.1278 56.2827 41.233 56.6861 41.233C57.1065 41.233 57.4574 41.1222 57.7386 40.9006C58.0227 40.6761 58.2358 40.375 58.3778 39.9972C58.5227 39.6165 58.5952 39.1932 58.5952 38.7273C58.5952 38.267 58.5241 37.8523 58.3821 37.483C58.2429 37.1108 58.0313 36.8168 57.7472 36.6009C57.4659 36.3821 57.1122 36.2727 56.6861 36.2727C56.277 36.2727 55.9332 36.3764 55.6548 36.5838C55.3764 36.7884 55.1662 37.0753 55.0241 37.4446C54.8821 37.8111 54.8111 38.2386 54.8111 38.7273ZM63.7983 42.1364C63.2074 42.1364 62.6889 41.9957 62.2429 41.7145C61.7997 41.4332 61.4531 41.0398 61.2031 40.5341C60.956 40.0284 60.8324 39.4375 60.8324 38.7614C60.8324 38.0795 60.956 37.4844 61.2031 36.9759C61.4531 36.4673 61.7997 36.0724 62.2429 35.7912C62.6889 35.5099 63.2074 35.3693 63.7983 35.3693C64.3892 35.3693 64.9063 35.5099 65.3494 35.7912C65.7955 36.0724 66.142 36.4673 66.3892 36.9759C66.6392 37.4844 66.7642 38.0795 66.7642 38.7614C66.7642 39.4375 66.6392 40.0284 66.3892 40.5341C66.142 41.0398 65.7955 41.4332 65.3494 41.7145C64.9063 41.9957 64.3892 42.1364 63.7983 42.1364ZM63.7983 41.233C64.2472 41.233 64.6165 41.1179 64.9062 40.8878C65.196 40.6577 65.4105 40.3551 65.5497 39.9801C65.6889 39.6051 65.7585 39.1989 65.7585 38.7614C65.7585 38.3239 65.6889 37.9162 65.5497 37.5384C65.4105 37.1605 65.196 36.8551 64.9062 36.6222C64.6165 36.3892 64.2472 36.2727 63.7983 36.2727C63.3494 36.2727 62.9801 36.3892 62.6903 36.6222C62.4006 36.8551 62.1861 37.1605 62.0469 37.5384C61.9077 37.9162 61.8381 38.3239 61.8381 38.7614C61.8381 39.1989 61.9077 39.6051 62.0469 39.9801C62.1861 40.3551 62.4006 40.6577 62.6903 40.8878C62.9801 41.1179 63.3494 41.233 63.7983 41.233ZM71.146 35.4545V36.3068H67.7539V35.4545H71.146ZM68.7425 33.8864H69.7482V40.125C69.7482 40.4091 69.7894 40.6222 69.8718 40.7642C69.957 40.9034 70.065 40.9972 70.1957 41.0455C70.3292 41.0909 70.4698 41.1136 70.6175 41.1136C70.7283 41.1136 70.8192 41.108 70.8903 41.0966C70.9613 41.0824 71.0181 41.071 71.0607 41.0625L71.2653 41.9659C71.1971 41.9915 71.1019 42.017 70.9798 42.0426C70.8576 42.071 70.7028 42.0852 70.5153 42.0852C70.2312 42.0852 69.9528 42.0241 69.68 41.902C69.4102 41.7798 69.1857 41.5938 69.0067 41.3438C68.8306 41.0938 68.7425 40.7784 68.7425 40.3977V33.8864ZM75.2475 42.1364C74.6566 42.1364 74.1381 41.9957 73.6921 41.7145C73.2489 41.4332 72.9023 41.0398 72.6523 40.5341C72.4052 40.0284 72.2816 39.4375 72.2816 38.7614C72.2816 38.0795 72.4052 37.4844 72.6523 36.9759C72.9023 36.4673 73.2489 36.0724 73.6921 35.7912C74.1381 35.5099 74.6566 35.3693 75.2475 35.3693C75.8384 35.3693 76.3555 35.5099 76.7987 35.7912C77.2447 36.0724 77.5913 36.4673 77.8384 36.9759C78.0884 37.4844 78.2134 38.0795 78.2134 38.7614C78.2134 39.4375 78.0884 40.0284 77.8384 40.5341C77.5913 41.0398 77.2447 41.4332 76.7987 41.7145C76.3555 41.9957 75.8384 42.1364 75.2475 42.1364ZM75.2475 41.233C75.6964 41.233 76.0657 41.1179 76.3555 40.8878C76.6452 40.6577 76.8597 40.3551 76.9989 39.9801C77.1381 39.6051 77.2077 39.1989 77.2077 38.7614C77.2077 38.3239 77.1381 37.9162 76.9989 37.5384C76.8597 37.1605 76.6452 36.8551 76.3555 36.6222C76.0657 36.3892 75.6964 36.2727 75.2475 36.2727C74.7987 36.2727 74.4293 36.3892 74.1396 36.6222C73.8498 36.8551 73.6353 37.1605 73.4961 37.5384C73.3569 37.9162 73.2873 38.3239 73.2873 38.7614C73.2873 39.1989 73.3569 39.6051 73.4961 39.9801C73.6353 40.3551 73.8498 40.6577 74.1396 40.8878C74.4293 41.1179 74.7987 41.233 75.2475 41.233ZM83.2599 33.2727H84.5213L87.4872 40.517H87.5895L90.5554 33.2727H91.8168V42H90.8281V35.3693H90.7429L88.0156 42H87.0611L84.3338 35.3693H84.2486V42H83.2599V33.2727ZM96.4585 42.1364C95.8675 42.1364 95.3491 41.9957 94.9031 41.7145C94.4599 41.4332 94.1133 41.0398 93.8633 40.5341C93.6161 40.0284 93.4925 39.4375 93.4925 38.7614C93.4925 38.0795 93.6161 37.4844 93.8633 36.9759C94.1133 36.4673 94.4599 36.0724 94.9031 35.7912C95.3491 35.5099 95.8675 35.3693 96.4585 35.3693C97.0494 35.3693 97.5664 35.5099 98.0096 35.7912C98.4556 36.0724 98.8022 36.4673 99.0494 36.9759C99.2994 37.4844 99.4244 38.0795 99.4244 38.7614C99.4244 39.4375 99.2994 40.0284 99.0494 40.5341C98.8022 41.0398 98.4556 41.4332 98.0096 41.7145C97.5664 41.9957 97.0494 42.1364 96.4585 42.1364ZM96.4585 41.233C96.9073 41.233 97.2766 41.1179 97.5664 40.8878C97.8562 40.6577 98.0707 40.3551 98.2099 39.9801C98.3491 39.6051 98.4187 39.1989 98.4187 38.7614C98.4187 38.3239 98.3491 37.9162 98.2099 37.5384C98.0707 37.1605 97.8562 36.8551 97.5664 36.6222C97.2766 36.3892 96.9073 36.2727 96.4585 36.2727C96.0096 36.2727 95.6403 36.3892 95.3505 36.6222C95.0607 36.8551 94.8462 37.1605 94.707 37.5384C94.5678 37.9162 94.4982 38.3239 94.4982 38.7614C94.4982 39.1989 94.5678 39.6051 94.707 39.9801C94.8462 40.3551 95.0607 40.6577 95.3505 40.8878C95.6403 41.1179 96.0096 41.233 96.4585 41.233ZM101.965 38.0625V42H100.96V35.4545H101.931V36.4773H102.016C102.17 36.1449 102.403 35.8778 102.715 35.6761C103.028 35.4716 103.431 35.3693 103.925 35.3693C104.369 35.3693 104.756 35.4602 105.089 35.642C105.421 35.821 105.68 36.0938 105.864 36.4602C106.049 36.8239 106.141 37.2841 106.141 37.8409V42H105.136V37.9091C105.136 37.3949 105.002 36.9943 104.735 36.7074C104.468 36.4176 104.102 36.2727 103.636 36.2727C103.315 36.2727 103.028 36.3423 102.775 36.4815C102.525 36.6207 102.327 36.8239 102.183 37.0909C102.038 37.358 101.965 37.6818 101.965 38.0625ZM110.638 42.1364C110.047 42.1364 109.529 41.9957 109.083 41.7145C108.64 41.4332 108.293 41.0398 108.043 40.5341C107.796 40.0284 107.672 39.4375 107.672 38.7614C107.672 38.0795 107.796 37.4844 108.043 36.9759C108.293 36.4673 108.64 36.0724 109.083 35.7912C109.529 35.5099 110.047 35.3693 110.638 35.3693C111.229 35.3693 111.746 35.5099 112.189 35.7912C112.635 36.0724 112.982 36.4673 113.229 36.9759C113.479 37.4844 113.604 38.0795 113.604 38.7614C113.604 39.4375 113.479 40.0284 113.229 40.5341C112.982 41.0398 112.635 41.4332 112.189 41.7145C111.746 41.9957 111.229 42.1364 110.638 42.1364ZM110.638 41.233C111.087 41.233 111.456 41.1179 111.746 40.8878C112.036 40.6577 112.25 40.3551 112.39 39.9801C112.529 39.6051 112.598 39.1989 112.598 38.7614C112.598 38.3239 112.529 37.9162 112.39 37.5384C112.25 37.1605 112.036 36.8551 111.746 36.6222C111.456 36.3892 111.087 36.2727 110.638 36.2727C110.189 36.2727 109.82 36.3892 109.53 36.6222C109.24 36.8551 109.026 37.1605 108.887 37.5384C108.748 37.9162 108.678 38.3239 108.678 38.7614C108.678 39.1989 108.748 39.6051 108.887 39.9801C109.026 40.3551 109.24 40.6577 109.53 40.8878C109.82 41.1179 110.189 41.233 110.638 41.233Z" fill="#596063"/>
<path d="M202.83 35.4545C202.778 35.0227 202.571 34.6875 202.207 34.4489C201.844 34.2102 201.398 34.0909 200.869 34.0909C200.483 34.0909 200.145 34.1534 199.855 34.2784C199.568 34.4034 199.344 34.5753 199.182 34.794C199.023 35.0128 198.943 35.2614 198.943 35.5398C198.943 35.7727 198.999 35.973 199.109 36.1406C199.223 36.3054 199.368 36.4432 199.544 36.554C199.72 36.6619 199.905 36.7514 200.098 36.8224C200.291 36.8906 200.469 36.946 200.631 36.9886L201.517 37.2273C201.744 37.2869 201.997 37.3693 202.276 37.4744C202.557 37.5795 202.825 37.723 203.081 37.9048C203.339 38.0838 203.553 38.3139 203.72 38.5952C203.888 38.8764 203.972 39.2216 203.972 39.6307C203.972 40.1023 203.848 40.5284 203.601 40.9091C203.357 41.2898 202.999 41.5923 202.527 41.8168C202.058 42.0412 201.489 42.1534 200.818 42.1534C200.193 42.1534 199.652 42.0526 199.195 41.8509C198.74 41.6491 198.382 41.3679 198.121 41.0071C197.862 40.6463 197.716 40.2273 197.682 39.75H198.773C198.801 40.0795 198.912 40.3523 199.105 40.5682C199.301 40.7812 199.548 40.9403 199.847 41.0455C200.148 41.1477 200.472 41.1989 200.818 41.1989C201.222 41.1989 201.584 41.1335 201.905 41.0028C202.226 40.8693 202.48 40.6847 202.668 40.4489C202.855 40.2102 202.949 39.9318 202.949 39.6136C202.949 39.3239 202.868 39.0881 202.706 38.9062C202.544 38.7244 202.331 38.5767 202.067 38.4631C201.803 38.3494 201.517 38.25 201.21 38.1648L200.136 37.858C199.455 37.6619 198.915 37.3821 198.517 37.0185C198.119 36.6548 197.92 36.179 197.92 35.5909C197.92 35.1023 198.053 34.6761 198.317 34.3125C198.584 33.946 198.942 33.6619 199.391 33.4602C199.842 33.2557 200.347 33.1534 200.903 33.1534C201.466 33.1534 201.966 33.2543 202.403 33.456C202.841 33.6548 203.188 33.9276 203.443 34.2741C203.702 34.6207 203.838 35.0142 203.852 35.4545H202.83ZM208.232 42.1364C207.641 42.1364 207.123 41.9957 206.676 41.7145C206.233 41.4332 205.887 41.0398 205.637 40.5341C205.39 40.0284 205.266 39.4375 205.266 38.7614C205.266 38.0795 205.39 37.4844 205.637 36.9759C205.887 36.4673 206.233 36.0724 206.676 35.7912C207.123 35.5099 207.641 35.3693 208.232 35.3693C208.823 35.3693 209.34 35.5099 209.783 35.7912C210.229 36.0724 210.576 36.4673 210.823 36.9759C211.073 37.4844 211.198 38.0795 211.198 38.7614C211.198 39.4375 211.073 40.0284 210.823 40.5341C210.576 41.0398 210.229 41.4332 209.783 41.7145C209.34 41.9957 208.823 42.1364 208.232 42.1364ZM208.232 41.233C208.681 41.233 209.05 41.1179 209.34 40.8878C209.63 40.6577 209.844 40.3551 209.983 39.9801C210.123 39.6051 210.192 39.1989 210.192 38.7614C210.192 38.3239 210.123 37.9162 209.983 37.5384C209.844 37.1605 209.63 36.8551 209.34 36.6222C209.05 36.3892 208.681 36.2727 208.232 36.2727C207.783 36.2727 207.414 36.3892 207.124 36.6222C206.834 36.8551 206.62 37.1605 206.48 37.5384C206.341 37.9162 206.272 38.3239 206.272 38.7614C206.272 39.1989 206.341 39.6051 206.48 39.9801C206.62 40.3551 206.834 40.6577 207.124 40.8878C207.414 41.1179 207.783 41.233 208.232 41.233ZM216.858 39.3239V35.4545H217.864V42H216.858V40.892H216.79C216.636 41.2244 216.398 41.5071 216.074 41.7401C215.75 41.9702 215.341 42.0852 214.847 42.0852C214.438 42.0852 214.074 41.9957 213.756 41.8168C213.438 41.6349 213.188 41.3622 213.006 40.9986C212.824 40.6321 212.733 40.1705 212.733 39.6136V35.4545H213.739V39.5455C213.739 40.0227 213.872 40.4034 214.139 40.6875C214.409 40.9716 214.753 41.1136 215.17 41.1136C215.42 41.1136 215.675 41.0497 215.933 40.9219C216.195 40.794 216.413 40.598 216.589 40.3338C216.768 40.0696 216.858 39.733 216.858 39.3239ZM219.706 42V35.4545H220.677V36.4432H220.745C220.865 36.1193 221.081 35.8565 221.393 35.6548C221.706 35.4531 222.058 35.3523 222.45 35.3523C222.524 35.3523 222.616 35.3537 222.727 35.3565C222.838 35.3594 222.922 35.3636 222.978 35.3693V36.392C222.944 36.3835 222.866 36.3707 222.744 36.3537C222.625 36.3338 222.498 36.3239 222.365 36.3239C222.047 36.3239 221.762 36.3906 221.512 36.5241C221.265 36.6548 221.069 36.8366 220.924 37.0696C220.782 37.2997 220.711 37.5625 220.711 37.858V42H219.706ZM226.63 42.1364C226.017 42.1364 225.488 41.9915 225.045 41.7017C224.602 41.4119 224.261 41.0128 224.022 40.5043C223.784 39.9957 223.664 39.4148 223.664 38.7614C223.664 38.0966 223.787 37.5099 224.031 37.0014C224.278 36.4901 224.622 36.0909 225.062 35.804C225.505 35.5142 226.022 35.3693 226.613 35.3693C227.074 35.3693 227.488 35.4545 227.858 35.625C228.227 35.7955 228.529 36.0341 228.765 36.3409C229.001 36.6477 229.147 37.0057 229.204 37.4148H228.199C228.122 37.1165 227.951 36.8523 227.687 36.6222C227.426 36.3892 227.074 36.2727 226.63 36.2727C226.238 36.2727 225.895 36.375 225.599 36.5795C225.306 36.7812 225.078 37.0668 224.913 37.4361C224.751 37.8026 224.67 38.233 224.67 38.7273C224.67 39.233 224.75 39.6733 224.909 40.0483C225.071 40.4233 225.298 40.7145 225.591 40.9219C225.886 41.1293 226.233 41.233 226.63 41.233C226.892 41.233 227.129 41.1875 227.342 41.0966C227.555 41.0057 227.735 40.875 227.883 40.7045C228.031 40.5341 228.136 40.3295 228.199 40.0909H229.204C229.147 40.4773 229.007 40.8253 228.782 41.1349C228.561 41.4418 228.267 41.6861 227.9 41.8679C227.537 42.0469 227.113 42.1364 226.63 42.1364ZM233.419 42.1364C232.788 42.1364 232.244 41.9972 231.787 41.7188C231.332 41.4375 230.981 41.0455 230.734 40.5426C230.49 40.0369 230.368 39.4489 230.368 38.7784C230.368 38.108 230.49 37.517 230.734 37.0057C230.981 36.4915 231.325 36.0909 231.765 35.804C232.208 35.5142 232.725 35.3693 233.316 35.3693C233.657 35.3693 233.994 35.4261 234.326 35.5398C234.659 35.6534 234.961 35.8381 235.234 36.0938C235.507 36.3466 235.724 36.6818 235.886 37.0994C236.048 37.517 236.129 38.0312 236.129 38.642V39.0682H231.083V38.1989H235.106C235.106 37.8295 235.032 37.5 234.885 37.2102C234.74 36.9205 234.532 36.6918 234.262 36.5241C233.995 36.3565 233.68 36.2727 233.316 36.2727C232.916 36.2727 232.569 36.3722 232.277 36.571C231.987 36.767 231.764 37.0227 231.608 37.3381C231.451 37.6534 231.373 37.9915 231.373 38.3523V38.9318C231.373 39.4261 231.458 39.8452 231.629 40.1889C231.802 40.5298 232.042 40.7898 232.349 40.9688C232.656 41.1449 233.012 41.233 233.419 41.233C233.683 41.233 233.922 41.196 234.135 41.1222C234.35 41.0455 234.537 40.9318 234.693 40.7812C234.849 40.6278 234.97 40.4375 235.055 40.2102L236.027 40.483C235.924 40.8125 235.752 41.1023 235.511 41.3523C235.27 41.5994 234.971 41.7926 234.616 41.9318C234.261 42.0682 233.862 42.1364 233.419 42.1364ZM248.193 36H247.136C247.074 35.696 246.964 35.429 246.808 35.1989C246.654 34.9688 246.467 34.7756 246.245 34.6193C246.027 34.4602 245.784 34.3409 245.517 34.2614C245.25 34.1818 244.971 34.142 244.681 34.142C244.153 34.142 243.674 34.2756 243.245 34.5426C242.819 34.8097 242.48 35.2031 242.227 35.723C241.977 36.2429 241.852 36.8807 241.852 37.6364C241.852 38.392 241.977 39.0298 242.227 39.5497C242.48 40.0696 242.819 40.4631 243.245 40.7301C243.674 40.9972 244.153 41.1307 244.681 41.1307C244.971 41.1307 245.25 41.0909 245.517 41.0114C245.784 40.9318 246.027 40.8139 246.245 40.6577C246.467 40.4986 246.654 40.304 246.808 40.0739C246.964 39.8409 247.074 39.5739 247.136 39.2727H248.193C248.113 39.7187 247.968 40.1179 247.758 40.4702C247.548 40.8224 247.287 41.1222 246.974 41.3693C246.662 41.6136 246.311 41.7997 245.922 41.9276C245.535 42.0554 245.122 42.1193 244.681 42.1193C243.937 42.1193 243.275 41.9375 242.696 41.5739C242.116 41.2102 241.66 40.6932 241.328 40.0227C240.995 39.3523 240.829 38.5568 240.829 37.6364C240.829 36.7159 240.995 35.9205 241.328 35.25C241.66 34.5795 242.116 34.0625 242.696 33.6989C243.275 33.3352 243.937 33.1534 244.681 33.1534C245.122 33.1534 245.535 33.2173 245.922 33.3452C246.311 33.473 246.662 33.6605 246.974 33.9077C247.287 34.152 247.548 34.4503 247.758 34.8026C247.968 35.152 248.113 35.5511 248.193 36ZM252.423 42.1364C251.832 42.1364 251.314 41.9957 250.868 41.7145C250.425 41.4332 250.078 41.0398 249.828 40.5341C249.581 40.0284 249.457 39.4375 249.457 38.7614C249.457 38.0795 249.581 37.4844 249.828 36.9759C250.078 36.4673 250.425 36.0724 250.868 35.7912C251.314 35.5099 251.832 35.3693 252.423 35.3693C253.014 35.3693 253.531 35.5099 253.974 35.7912C254.42 36.0724 254.767 36.4673 255.014 36.9759C255.264 37.4844 255.389 38.0795 255.389 38.7614C255.389 39.4375 255.264 40.0284 255.014 40.5341C254.767 41.0398 254.42 41.4332 253.974 41.7145C253.531 41.9957 253.014 42.1364 252.423 42.1364ZM252.423 41.233C252.872 41.233 253.241 41.1179 253.531 40.8878C253.821 40.6577 254.036 40.3551 254.175 39.9801C254.314 39.6051 254.384 39.1989 254.384 38.7614C254.384 38.3239 254.314 37.9162 254.175 37.5384C254.036 37.1605 253.821 36.8551 253.531 36.6222C253.241 36.3892 252.872 36.2727 252.423 36.2727C251.974 36.2727 251.605 36.3892 251.315 36.6222C251.026 36.8551 250.811 37.1605 250.672 37.5384C250.533 37.9162 250.463 38.3239 250.463 38.7614C250.463 39.1989 250.533 39.6051 250.672 39.9801C250.811 40.3551 251.026 40.6577 251.315 40.8878C251.605 41.1179 251.974 41.233 252.423 41.233ZM259.396 42.1364C258.85 42.1364 258.369 41.9986 257.951 41.723C257.534 41.4446 257.207 41.0526 256.971 40.5469C256.735 40.0384 256.618 39.4375 256.618 38.7443C256.618 38.0568 256.735 37.4602 256.971 36.9545C257.207 36.4489 257.535 36.0582 257.956 35.7827C258.376 35.5071 258.862 35.3693 259.413 35.3693C259.839 35.3693 260.176 35.4403 260.423 35.5824C260.673 35.7216 260.863 35.8807 260.994 36.0597C261.127 36.2358 261.231 36.3807 261.305 36.4943H261.39V33.2727H262.396V42H261.424V40.9943H261.305C261.231 41.1136 261.126 41.2642 260.99 41.446C260.853 41.625 260.659 41.7855 260.406 41.9276C260.153 42.0668 259.816 42.1364 259.396 42.1364ZM259.532 41.233C259.936 41.233 260.277 41.1278 260.555 40.9176C260.833 40.7045 261.045 40.4105 261.19 40.0355C261.335 39.6577 261.407 39.2216 261.407 38.7273C261.407 38.2386 261.336 37.8111 261.194 37.4446C261.052 37.0753 260.842 36.7884 260.564 36.5838C260.285 36.3764 259.941 36.2727 259.532 36.2727C259.106 36.2727 258.751 36.3821 258.467 36.6009C258.186 36.8168 257.974 37.1108 257.832 37.483C257.693 37.8523 257.623 38.267 257.623 38.7273C257.623 39.1932 257.694 39.6165 257.836 39.9972C257.981 40.375 258.194 40.6761 258.475 40.9006C258.76 41.1222 259.112 41.233 259.532 41.233ZM267.122 42.1364C266.491 42.1364 265.947 41.9972 265.49 41.7188C265.035 41.4375 264.684 41.0455 264.437 40.5426C264.193 40.0369 264.071 39.4489 264.071 38.7784C264.071 38.108 264.193 37.517 264.437 37.0057C264.684 36.4915 265.028 36.0909 265.468 35.804C265.912 35.5142 266.429 35.3693 267.02 35.3693C267.36 35.3693 267.697 35.4261 268.029 35.5398C268.362 35.6534 268.664 35.8381 268.937 36.0938C269.21 36.3466 269.427 36.6818 269.589 37.0994C269.751 37.517 269.832 38.0312 269.832 38.642V39.0682H264.787V38.1989H268.809C268.809 37.8295 268.735 37.5 268.588 37.2102C268.443 36.9205 268.235 36.6918 267.966 36.5241C267.699 36.3565 267.383 36.2727 267.02 36.2727C266.619 36.2727 266.272 36.3722 265.98 36.571C265.69 36.767 265.467 37.0227 265.311 37.3381C265.154 37.6534 265.076 37.9915 265.076 38.3523V38.9318C265.076 39.4261 265.162 39.8452 265.332 40.1889C265.505 40.5298 265.745 40.7898 266.052 40.9688C266.359 41.1449 266.716 41.233 267.122 41.233C267.386 41.233 267.625 41.196 267.838 41.1222C268.054 41.0455 268.24 40.9318 268.396 40.7812C268.552 40.6278 268.673 40.4375 268.758 40.2102L269.73 40.483C269.627 40.8125 269.456 41.1023 269.214 41.3523C268.973 41.5994 268.674 41.7926 268.319 41.9318C267.964 42.0682 267.565 42.1364 267.122 42.1364ZM274.873 42V33.2727H277.822C278.507 33.2727 279.066 33.3963 279.501 33.6435C279.939 33.8878 280.262 34.2188 280.473 34.6364C280.683 35.054 280.788 35.5199 280.788 36.0341C280.788 36.5483 280.683 37.0156 280.473 37.4361C280.265 37.8565 279.944 38.1918 279.51 38.4418C279.075 38.6889 278.518 38.8125 277.839 38.8125H275.725V37.875H277.805C278.274 37.875 278.65 37.794 278.934 37.6321C279.218 37.4702 279.424 37.2514 279.552 36.9759C279.683 36.6974 279.748 36.3835 279.748 36.0341C279.748 35.6847 279.683 35.3722 279.552 35.0966C279.424 34.821 279.217 34.6051 278.93 34.4489C278.643 34.2898 278.262 34.2102 277.788 34.2102H275.93V42H274.873ZM282.354 42V35.4545H283.326V36.4432H283.394C283.513 36.1193 283.729 35.8565 284.042 35.6548C284.354 35.4531 284.706 35.3523 285.098 35.3523C285.172 35.3523 285.265 35.3537 285.375 35.3565C285.486 35.3594 285.57 35.3636 285.627 35.3693V36.392C285.593 36.3835 285.515 36.3707 285.392 36.3537C285.273 36.3338 285.147 36.3239 285.013 36.3239C284.695 36.3239 284.411 36.3906 284.161 36.5241C283.914 36.6548 283.718 36.8366 283.573 37.0696C283.431 37.2997 283.36 37.5625 283.36 37.858V42H282.354ZM289.279 42.1364C288.688 42.1364 288.169 41.9957 287.723 41.7145C287.28 41.4332 286.934 41.0398 286.684 40.5341C286.436 40.0284 286.313 39.4375 286.313 38.7614C286.313 38.0795 286.436 37.4844 286.684 36.9759C286.934 36.4673 287.28 36.0724 287.723 35.7912C288.169 35.5099 288.688 35.3693 289.279 35.3693C289.87 35.3693 290.387 35.5099 290.83 35.7912C291.276 36.0724 291.623 36.4673 291.87 36.9759C292.12 37.4844 292.245 38.0795 292.245 38.7614C292.245 39.4375 292.12 40.0284 291.87 40.5341C291.623 41.0398 291.276 41.4332 290.83 41.7145C290.387 41.9957 289.87 42.1364 289.279 42.1364ZM289.279 41.233C289.728 41.233 290.097 41.1179 290.387 40.8878C290.676 40.6577 290.891 40.3551 291.03 39.9801C291.169 39.6051 291.239 39.1989 291.239 38.7614C291.239 38.3239 291.169 37.9162 291.03 37.5384C290.891 37.1605 290.676 36.8551 290.387 36.6222C290.097 36.3892 289.728 36.2727 289.279 36.2727C288.83 36.2727 288.461 36.3892 288.171 36.6222C287.881 36.8551 287.667 37.1605 287.527 37.5384C287.388 37.9162 287.319 38.3239 287.319 38.7614C287.319 39.1989 287.388 39.6051 287.527 39.9801C287.667 40.3551 287.881 40.6577 288.171 40.8878C288.461 41.1179 288.83 41.233 289.279 41.233Z" fill="#596063"/>
<path d="M380.83 35.4545C380.778 35.0227 380.571 34.6875 380.207 34.4489C379.844 34.2102 379.398 34.0909 378.869 34.0909C378.483 34.0909 378.145 34.1534 377.855 34.2784C377.568 34.4034 377.344 34.5753 377.182 34.794C377.023 35.0128 376.943 35.2614 376.943 35.5398C376.943 35.7727 376.999 35.973 377.109 36.1406C377.223 36.3054 377.368 36.4432 377.544 36.554C377.72 36.6619 377.905 36.7514 378.098 36.8224C378.291 36.8906 378.469 36.946 378.631 36.9886L379.517 37.2273C379.744 37.2869 379.997 37.3693 380.276 37.4744C380.557 37.5795 380.825 37.723 381.081 37.9048C381.339 38.0838 381.553 38.3139 381.72 38.5952C381.888 38.8764 381.972 39.2216 381.972 39.6307C381.972 40.1023 381.848 40.5284 381.601 40.9091C381.357 41.2898 380.999 41.5923 380.527 41.8168C380.058 42.0412 379.489 42.1534 378.818 42.1534C378.193 42.1534 377.652 42.0526 377.195 41.8509C376.74 41.6491 376.382 41.3679 376.121 41.0071C375.862 40.6463 375.716 40.2273 375.682 39.75H376.773C376.801 40.0795 376.912 40.3523 377.105 40.5682C377.301 40.7812 377.548 40.9403 377.847 41.0455C378.148 41.1477 378.472 41.1989 378.818 41.1989C379.222 41.1989 379.584 41.1335 379.905 41.0028C380.226 40.8693 380.48 40.6847 380.668 40.4489C380.855 40.2102 380.949 39.9318 380.949 39.6136C380.949 39.3239 380.868 39.0881 380.706 38.9062C380.544 38.7244 380.331 38.5767 380.067 38.4631C379.803 38.3494 379.517 38.25 379.21 38.1648L378.136 37.858C377.455 37.6619 376.915 37.3821 376.517 37.0185C376.119 36.6548 375.92 36.179 375.92 35.5909C375.92 35.1023 376.053 34.6761 376.317 34.3125C376.584 33.946 376.942 33.6619 377.391 33.4602C377.842 33.2557 378.347 33.1534 378.903 33.1534C379.466 33.1534 379.966 33.2543 380.403 33.456C380.841 33.6548 381.188 33.9276 381.443 34.2741C381.702 34.6207 381.838 35.0142 381.852 35.4545H380.83ZM384.221 44.4545C384.05 44.4545 383.898 44.4403 383.765 44.4119C383.631 44.3864 383.539 44.3608 383.488 44.3352L383.743 43.4489C383.988 43.5114 384.203 43.5341 384.391 43.517C384.578 43.5 384.745 43.4162 384.89 43.2656C385.037 43.1179 385.172 42.8778 385.294 42.5455L385.482 42.0341L383.061 35.4545H384.152L385.959 40.6705H386.027L387.834 35.4545H388.925L386.147 42.9545C386.022 43.2926 385.867 43.5724 385.682 43.794C385.498 44.0185 385.283 44.1847 385.039 44.2926C384.797 44.4006 384.525 44.4545 384.221 44.4545ZM391.258 38.0625V42H390.252V35.4545H391.224V36.4773H391.309C391.463 36.1449 391.696 35.8778 392.008 35.6761C392.321 35.4716 392.724 35.3693 393.218 35.3693C393.662 35.3693 394.049 35.4602 394.382 35.642C394.714 35.821 394.973 36.0938 395.157 36.4602C395.342 36.8239 395.434 37.2841 395.434 37.8409V42H394.429V37.9091C394.429 37.3949 394.295 36.9943 394.028 36.7074C393.761 36.4176 393.395 36.2727 392.929 36.2727C392.608 36.2727 392.321 36.3423 392.068 36.4815C391.818 36.6207 391.62 36.8239 391.475 37.0909C391.331 37.358 391.258 37.6818 391.258 38.0625ZM400.016 42.1364C399.386 42.1364 398.842 41.9972 398.384 41.7188C397.93 41.4375 397.579 41.0455 397.332 40.5426C397.087 40.0369 396.965 39.4489 396.965 38.7784C396.965 38.108 397.087 37.517 397.332 37.0057C397.579 36.4915 397.923 36.0909 398.363 35.804C398.806 35.5142 399.323 35.3693 399.914 35.3693C400.255 35.3693 400.592 35.4261 400.924 35.5398C401.256 35.6534 401.559 35.8381 401.832 36.0938C402.104 36.3466 402.322 36.6818 402.484 37.0994C402.646 37.517 402.727 38.0312 402.727 38.642V39.0682H397.681V38.1989H401.704C401.704 37.8295 401.63 37.5 401.482 37.2102C401.337 36.9205 401.13 36.6918 400.86 36.5241C400.593 36.3565 400.278 36.2727 399.914 36.2727C399.513 36.2727 399.167 36.3722 398.874 36.571C398.585 36.767 398.362 37.0227 398.205 37.3381C398.049 37.6534 397.971 37.9915 397.971 38.3523V38.9318C397.971 39.4261 398.056 39.8452 398.227 40.1889C398.4 40.5298 398.64 40.7898 398.947 40.9688C399.254 41.1449 399.61 41.233 400.016 41.233C400.281 41.233 400.519 41.196 400.732 41.1222C400.948 41.0455 401.134 40.9318 401.29 40.7812C401.447 40.6278 401.567 40.4375 401.653 40.2102L402.624 40.483C402.522 40.8125 402.35 41.1023 402.109 41.3523C401.867 41.5994 401.569 41.7926 401.214 41.9318C400.859 42.0682 400.46 42.1364 400.016 42.1364ZM407.768 33.2727H409.029L411.995 40.517H412.097L415.063 33.2727H416.325V42H415.336V35.3693H415.251L412.523 42H411.569L408.842 35.3693H408.756V42H407.768V33.2727ZM420.966 42.1364C420.375 42.1364 419.857 41.9957 419.411 41.7145C418.968 41.4332 418.621 41.0398 418.371 40.5341C418.124 40.0284 418 39.4375 418 38.7614C418 38.0795 418.124 37.4844 418.371 36.9759C418.621 36.4673 418.968 36.0724 419.411 35.7912C419.857 35.5099 420.375 35.3693 420.966 35.3693C421.557 35.3693 422.074 35.5099 422.517 35.7912C422.963 36.0724 423.31 36.4673 423.557 36.9759C423.807 37.4844 423.932 38.0795 423.932 38.7614C423.932 39.4375 423.807 40.0284 423.557 40.5341C423.31 41.0398 422.963 41.4332 422.517 41.7145C422.074 41.9957 421.557 42.1364 420.966 42.1364ZM420.966 41.233C421.415 41.233 421.784 41.1179 422.074 40.8878C422.364 40.6577 422.578 40.3551 422.718 39.9801C422.857 39.6051 422.926 39.1989 422.926 38.7614C422.926 38.3239 422.857 37.9162 422.718 37.5384C422.578 37.1605 422.364 36.8551 422.074 36.6222C421.784 36.3892 421.415 36.2727 420.966 36.2727C420.517 36.2727 420.148 36.3892 419.858 36.6222C419.569 36.8551 419.354 37.1605 419.215 37.5384C419.076 37.9162 419.006 38.3239 419.006 38.7614C419.006 39.1989 419.076 39.6051 419.215 39.9801C419.354 40.3551 419.569 40.6577 419.858 40.8878C420.148 41.1179 420.517 41.233 420.966 41.233ZM426.473 38.0625V42H425.467V35.4545H426.439V36.4773H426.524C426.678 36.1449 426.911 35.8778 427.223 35.6761C427.536 35.4716 427.939 35.3693 428.433 35.3693C428.876 35.3693 429.264 35.4602 429.597 35.642C429.929 35.821 430.188 36.0938 430.372 36.4602C430.557 36.8239 430.649 37.2841 430.649 37.8409V42H429.643V37.9091C429.643 37.3949 429.51 36.9943 429.243 36.7074C428.976 36.4176 428.609 36.2727 428.143 36.2727C427.822 36.2727 427.536 36.3423 427.283 36.4815C427.033 36.6207 426.835 36.8239 426.69 37.0909C426.545 37.358 426.473 37.6818 426.473 38.0625ZM435.146 42.1364C434.555 42.1364 434.037 41.9957 433.591 41.7145C433.147 41.4332 432.801 41.0398 432.551 40.5341C432.304 40.0284 432.18 39.4375 432.18 38.7614C432.18 38.0795 432.304 37.4844 432.551 36.9759C432.801 36.4673 433.147 36.0724 433.591 35.7912C434.037 35.5099 434.555 35.3693 435.146 35.3693C435.737 35.3693 436.254 35.5099 436.697 35.7912C437.143 36.0724 437.49 36.4673 437.737 36.9759C437.987 37.4844 438.112 38.0795 438.112 38.7614C438.112 39.4375 437.987 40.0284 437.737 40.5341C437.49 41.0398 437.143 41.4332 436.697 41.7145C436.254 41.9957 435.737 42.1364 435.146 42.1364ZM435.146 41.233C435.595 41.233 435.964 41.1179 436.254 40.8878C436.544 40.6577 436.758 40.3551 436.897 39.9801C437.037 39.6051 437.106 39.1989 437.106 38.7614C437.106 38.3239 437.037 37.9162 436.897 37.5384C436.758 37.1605 436.544 36.8551 436.254 36.6222C435.964 36.3892 435.595 36.2727 435.146 36.2727C434.697 36.2727 434.328 36.3892 434.038 36.6222C433.748 36.8551 433.534 37.1605 433.395 37.5384C433.255 37.9162 433.186 38.3239 433.186 38.7614C433.186 39.1989 433.255 39.6051 433.395 39.9801C433.534 40.3551 433.748 40.6577 434.038 40.8878C434.328 41.1179 434.697 41.233 435.146 41.233Z" fill="#596063"/>
</svg>
