<svg width="668" height="475" viewBox="0 0 668 475" fill="none" xmlns="http://www.w3.org/2000/svg">
<rect width="668" height="475" fill="#EBF2F4"/>
<rect x="20" y="121" width="161" height="81" fill="#1FADE0"/>
<rect x="20" y="274" width="199" height="81" fill="#1FADE0"/>
<rect x="235" y="274" width="198" height="81" fill="#1FADE0"/>
<rect x="449" y="274" width="199" height="81" fill="#1FADE0"/>
<rect x="219" y="121" width="230" height="81" fill="#1FADE0"/>
<rect x="487" y="121" width="161" height="81" fill="#1FADE0"/>
<rect x="20" width="38" height="475" fill="#E01FAD" fill-opacity="0.15"/>
<rect x="74" width="37" height="475" fill="#E01FAD" fill-opacity="0.15"/>
<rect x="127" width="38" height="475" fill="#E01FAD" fill-opacity="0.15"/>
<rect x="181" width="38" height="475" fill="#E01FAD" fill-opacity="0.15"/>
<rect x="235" width="37" height="475" fill="#E01FAD" fill-opacity="0.15"/>
<rect x="288" width="38" height="475" fill="#E01FAD" fill-opacity="0.15"/>
<rect x="342" width="38" height="475" fill="#E01FAD" fill-opacity="0.15"/>
<rect x="396" width="37" height="475" fill="#E01FAD" fill-opacity="0.15"/>
<rect x="449" width="38" height="475" fill="#E01FAD" fill-opacity="0.15"/>
<rect x="503" width="38" height="475" fill="#E01FAD" fill-opacity="0.15"/>
<rect x="557" width="37" height="475" fill="#E01FAD" fill-opacity="0.15"/>
<rect x="610" width="38" height="475" fill="#E01FAD" fill-opacity="0.15"/>
<path d="M275.768 158.091V160.08H269.497V158.091H275.768ZM271.045 155.477H273.616V165.719C273.616 166.064 273.669 166.33 273.773 166.514C273.882 166.694 274.024 166.817 274.199 166.884C274.374 166.95 274.568 166.983 274.781 166.983C274.942 166.983 275.089 166.971 275.222 166.947C275.359 166.924 275.463 166.902 275.534 166.884L275.967 168.893C275.83 168.941 275.634 168.993 275.378 169.05C275.127 169.107 274.819 169.14 274.455 169.149C273.811 169.168 273.231 169.071 272.714 168.858C272.198 168.64 271.789 168.304 271.486 167.849C271.188 167.395 271.041 166.827 271.045 166.145V155.477ZM282.56 169.213C281.495 169.213 280.571 168.979 279.79 168.51C279.009 168.041 278.403 167.385 277.972 166.543C277.546 165.7 277.333 164.715 277.333 163.588C277.333 162.461 277.546 161.474 277.972 160.626C278.403 159.779 279.009 159.121 279.79 158.652C280.571 158.183 281.495 157.949 282.56 157.949C283.625 157.949 284.549 158.183 285.33 158.652C286.111 159.121 286.715 159.779 287.141 160.626C287.572 161.474 287.787 162.461 287.787 163.588C287.787 164.715 287.572 165.7 287.141 166.543C286.715 167.385 286.111 168.041 285.33 168.51C284.549 168.979 283.625 169.213 282.56 169.213ZM282.574 167.153C283.152 167.153 283.635 166.995 284.023 166.678C284.411 166.356 284.7 165.925 284.89 165.385C285.084 164.845 285.181 164.244 285.181 163.581C285.181 162.913 285.084 162.31 284.89 161.77C284.7 161.225 284.411 160.792 284.023 160.47C283.635 160.148 283.152 159.987 282.574 159.987C281.982 159.987 281.49 160.148 281.097 160.47C280.709 160.792 280.417 161.225 280.223 161.77C280.034 162.31 279.939 162.913 279.939 163.581C279.939 164.244 280.034 164.845 280.223 165.385C280.417 165.925 280.709 166.356 281.097 166.678C281.49 166.995 281.982 167.153 282.574 167.153ZM295.417 158.091V160.08H289.146V158.091H295.417ZM290.694 155.477H293.265V165.719C293.265 166.064 293.317 166.33 293.421 166.514C293.53 166.694 293.672 166.817 293.847 166.884C294.022 166.95 294.217 166.983 294.43 166.983C294.591 166.983 294.737 166.971 294.87 166.947C295.007 166.924 295.112 166.902 295.183 166.884L295.616 168.893C295.478 168.941 295.282 168.993 295.026 169.05C294.775 169.107 294.468 169.14 294.103 169.149C293.459 169.168 292.879 169.071 292.363 168.858C291.847 168.64 291.437 168.304 291.134 167.849C290.836 167.395 290.689 166.827 290.694 166.145V155.477ZM302.208 169.213C301.143 169.213 300.22 168.979 299.439 168.51C298.657 168.041 298.051 167.385 297.62 166.543C297.194 165.7 296.981 164.715 296.981 163.588C296.981 162.461 297.194 161.474 297.62 160.626C298.051 159.779 298.657 159.121 299.439 158.652C300.22 158.183 301.143 157.949 302.208 157.949C303.274 157.949 304.197 158.183 304.978 158.652C305.76 159.121 306.363 159.779 306.789 160.626C307.22 161.474 307.436 162.461 307.436 163.588C307.436 164.715 307.22 165.7 306.789 166.543C306.363 167.385 305.76 168.041 304.978 168.51C304.197 168.979 303.274 169.213 302.208 169.213ZM302.223 167.153C302.8 167.153 303.283 166.995 303.672 166.678C304.06 166.356 304.349 165.925 304.538 165.385C304.732 164.845 304.829 164.244 304.829 163.581C304.829 162.913 304.732 162.31 304.538 161.77C304.349 161.225 304.06 160.792 303.672 160.47C303.283 160.148 302.8 159.987 302.223 159.987C301.631 159.987 301.138 160.148 300.745 160.47C300.357 160.792 300.066 161.225 299.872 161.77C299.682 162.31 299.588 162.913 299.588 163.581C299.588 164.244 299.682 164.845 299.872 165.385C300.066 165.925 300.357 166.356 300.745 166.678C301.138 166.995 301.631 167.153 302.223 167.153ZM314.579 158.091H317.15V169.625C317.15 170.411 317.001 171.06 316.702 171.571C316.404 172.082 315.973 172.464 315.41 172.714C314.846 172.965 314.162 173.091 313.357 173.091C313.263 173.091 313.175 173.089 313.094 173.084C313.014 173.084 312.926 173.081 312.832 173.077V170.982C312.903 170.986 312.967 170.989 313.023 170.989C313.08 170.993 313.139 170.996 313.201 170.996C313.693 170.996 314.046 170.875 314.259 170.634C314.472 170.397 314.579 170.049 314.579 169.589V158.091ZM315.857 156.543C315.445 156.543 315.093 156.408 314.799 156.138C314.51 155.863 314.366 155.534 314.366 155.151C314.366 154.762 314.51 154.433 314.799 154.163C315.093 153.889 315.445 153.751 315.857 153.751C316.264 153.751 316.612 153.889 316.901 154.163C317.195 154.433 317.342 154.762 317.342 155.151C317.342 155.534 317.195 155.863 316.901 156.138C316.612 156.408 316.264 156.543 315.857 156.543ZM324.623 169.213C323.529 169.213 322.585 168.986 321.789 168.531C320.999 168.072 320.39 167.423 319.964 166.585C319.538 165.742 319.325 164.75 319.325 163.609C319.325 162.487 319.538 161.502 319.964 160.655C320.395 159.803 320.996 159.14 321.768 158.666C322.54 158.188 323.447 157.949 324.488 157.949C325.161 157.949 325.795 158.058 326.392 158.276C326.993 158.489 327.523 158.82 327.983 159.27C328.447 159.72 328.811 160.293 329.076 160.989C329.342 161.68 329.474 162.504 329.474 163.46V164.249H320.532V162.516H327.01C327.005 162.023 326.898 161.585 326.69 161.202C326.482 160.813 326.19 160.508 325.816 160.286C325.447 160.063 325.016 159.952 324.524 159.952C323.998 159.952 323.537 160.08 323.139 160.335C322.741 160.586 322.431 160.918 322.208 161.33C321.991 161.737 321.879 162.184 321.875 162.672V164.185C321.875 164.819 321.991 165.364 322.223 165.818C322.455 166.268 322.779 166.614 323.196 166.855C323.612 167.092 324.1 167.21 324.659 167.21C325.033 167.21 325.371 167.158 325.674 167.054C325.977 166.945 326.24 166.786 326.463 166.578C326.685 166.37 326.853 166.112 326.967 165.804L329.368 166.074C329.216 166.708 328.927 167.262 328.501 167.736C328.08 168.205 327.54 168.569 326.882 168.83C326.224 169.085 325.471 169.213 324.623 169.213ZM345.232 160.974L342.888 161.23C342.822 160.993 342.706 160.771 342.54 160.562C342.379 160.354 342.162 160.186 341.887 160.058C341.612 159.93 341.276 159.866 340.879 159.866C340.344 159.866 339.894 159.982 339.529 160.214C339.169 160.446 338.992 160.747 338.996 161.116C338.992 161.434 339.108 161.692 339.344 161.891C339.586 162.089 339.984 162.253 340.538 162.381L342.398 162.778C343.431 163.001 344.198 163.354 344.7 163.837C345.206 164.32 345.462 164.952 345.467 165.733C345.462 166.42 345.261 167.026 344.863 167.551C344.47 168.072 343.923 168.479 343.222 168.773C342.522 169.066 341.717 169.213 340.808 169.213C339.472 169.213 338.397 168.934 337.583 168.375C336.769 167.812 336.283 167.028 336.127 166.024L338.634 165.783C338.748 166.275 338.989 166.647 339.359 166.898C339.728 167.149 340.209 167.274 340.8 167.274C341.411 167.274 341.901 167.149 342.271 166.898C342.645 166.647 342.832 166.337 342.832 165.967C342.832 165.655 342.711 165.397 342.469 165.193C342.233 164.99 341.863 164.833 341.362 164.724L339.501 164.334C338.454 164.116 337.68 163.749 337.178 163.233C336.676 162.712 336.428 162.054 336.433 161.259C336.428 160.586 336.61 160.004 336.979 159.511C337.353 159.014 337.872 158.631 338.535 158.361C339.202 158.086 339.972 157.949 340.843 157.949C342.121 157.949 343.128 158.221 343.862 158.766C344.6 159.31 345.057 160.046 345.232 160.974ZM339.451 153.616L340.893 155.435L342.335 153.616H344.586V153.716L341.901 156.784H339.891L337.2 153.716V153.616H339.451ZM347.587 173.091V158.091H350.115V159.895H350.264C350.397 159.63 350.584 159.348 350.825 159.05C351.067 158.747 351.393 158.489 351.805 158.276C352.217 158.058 352.743 157.949 353.382 157.949C354.225 157.949 354.985 158.164 355.662 158.595C356.344 159.021 356.884 159.653 357.281 160.491C357.684 161.325 357.885 162.348 357.885 163.56C357.885 164.758 357.688 165.776 357.295 166.614C356.902 167.452 356.367 168.091 355.69 168.531C355.013 168.972 354.246 169.192 353.389 169.192C352.764 169.192 352.246 169.088 351.834 168.879C351.422 168.671 351.09 168.42 350.839 168.126C350.593 167.828 350.402 167.546 350.264 167.281H350.158V173.091H347.587ZM350.108 163.545C350.108 164.251 350.207 164.869 350.406 165.399C350.61 165.929 350.901 166.344 351.28 166.642C351.663 166.936 352.127 167.082 352.672 167.082C353.24 167.082 353.716 166.931 354.099 166.628C354.483 166.32 354.772 165.901 354.966 165.371C355.165 164.836 355.264 164.227 355.264 163.545C355.264 162.868 355.167 162.267 354.973 161.741C354.779 161.216 354.49 160.804 354.107 160.506C353.723 160.207 353.245 160.058 352.672 160.058C352.123 160.058 351.656 160.203 351.273 160.491C350.889 160.78 350.598 161.185 350.399 161.706C350.205 162.227 350.108 162.84 350.108 163.545ZM363.226 169.22C362.535 169.22 361.912 169.097 361.358 168.851C360.809 168.6 360.373 168.231 360.051 167.743C359.734 167.255 359.575 166.654 359.575 165.939C359.575 165.323 359.689 164.814 359.916 164.412C360.143 164.009 360.454 163.688 360.847 163.446C361.24 163.205 361.682 163.022 362.175 162.899C362.672 162.771 363.186 162.679 363.716 162.622C364.355 162.556 364.874 162.497 365.271 162.445C365.669 162.388 365.958 162.303 366.138 162.189C366.322 162.071 366.415 161.888 366.415 161.642V161.599C366.415 161.064 366.256 160.65 365.939 160.357C365.622 160.063 365.165 159.916 364.568 159.916C363.938 159.916 363.439 160.054 363.07 160.328C362.705 160.603 362.459 160.927 362.331 161.301L359.93 160.96C360.12 160.297 360.432 159.743 360.868 159.298C361.304 158.848 361.836 158.512 362.466 158.29C363.096 158.062 363.792 157.949 364.554 157.949C365.08 157.949 365.603 158.01 366.124 158.134C366.644 158.257 367.12 158.46 367.551 158.744C367.982 159.024 368.328 159.405 368.588 159.888C368.853 160.371 368.986 160.974 368.986 161.699V169H366.514V167.501H366.429C366.273 167.804 366.053 168.089 365.768 168.354C365.489 168.614 365.136 168.825 364.71 168.986C364.289 169.142 363.794 169.22 363.226 169.22ZM363.893 167.331C364.41 167.331 364.857 167.229 365.236 167.026C365.615 166.817 365.906 166.543 366.109 166.202C366.318 165.861 366.422 165.489 366.422 165.087V163.801C366.341 163.867 366.204 163.929 366.01 163.986C365.821 164.043 365.607 164.092 365.371 164.135C365.134 164.178 364.9 164.215 364.668 164.249C364.436 164.282 364.234 164.31 364.064 164.334C363.68 164.386 363.337 164.471 363.034 164.589C362.731 164.708 362.492 164.874 362.317 165.087C362.142 165.295 362.054 165.565 362.054 165.896C362.054 166.37 362.227 166.727 362.572 166.969C362.918 167.21 363.358 167.331 363.893 167.331ZM377.018 158.091V160.08H370.747V158.091H377.018ZM372.295 155.477H374.866V165.719C374.866 166.064 374.919 166.33 375.023 166.514C375.132 166.694 375.274 166.817 375.449 166.884C375.624 166.95 375.818 166.983 376.031 166.983C376.192 166.983 376.339 166.971 376.472 166.947C376.609 166.924 376.713 166.902 376.784 166.884L377.217 168.893C377.08 168.941 376.884 168.993 376.628 169.05C376.377 169.107 376.069 169.14 375.705 169.149C375.061 169.168 374.481 169.071 373.964 168.858C373.448 168.64 373.039 168.304 372.736 167.849C372.438 167.395 372.291 166.827 372.295 166.145V155.477ZM381.74 162.608V169H379.169V158.091H381.626V159.945H381.754C382.005 159.334 382.405 158.848 382.954 158.489C383.508 158.129 384.192 157.949 385.007 157.949C385.76 157.949 386.415 158.11 386.974 158.432C387.538 158.754 387.973 159.22 388.281 159.831C388.593 160.442 388.747 161.183 388.743 162.054V169H386.172V162.452C386.172 161.723 385.982 161.152 385.603 160.74C385.229 160.328 384.711 160.122 384.048 160.122C383.598 160.122 383.198 160.222 382.848 160.42C382.502 160.615 382.23 160.896 382.031 161.266C381.837 161.635 381.74 162.082 381.74 162.608ZM396.186 169.213C395.092 169.213 394.147 168.986 393.352 168.531C392.561 168.072 391.953 167.423 391.527 166.585C391.1 165.742 390.887 164.75 390.887 163.609C390.887 162.487 391.1 161.502 391.527 160.655C391.958 159.803 392.559 159.14 393.331 158.666C394.102 158.188 395.009 157.949 396.051 157.949C396.723 157.949 397.358 158.058 397.954 158.276C398.556 158.489 399.086 158.82 399.545 159.27C400.009 159.72 400.374 160.293 400.639 160.989C400.904 161.68 401.037 162.504 401.037 163.46V164.249H392.095V162.516H398.572C398.567 162.023 398.461 161.585 398.252 161.202C398.044 160.813 397.753 160.508 397.379 160.286C397.01 160.063 396.579 159.952 396.086 159.952C395.561 159.952 395.099 160.08 394.701 160.335C394.304 160.586 393.993 160.918 393.771 161.33C393.553 161.737 393.442 162.184 393.437 162.672V164.185C393.437 164.819 393.553 165.364 393.785 165.818C394.017 166.268 394.342 166.614 394.758 166.855C395.175 167.092 395.663 167.21 396.221 167.21C396.595 167.21 396.934 167.158 397.237 167.054C397.54 166.945 397.803 166.786 398.025 166.578C398.248 166.37 398.416 166.112 398.529 165.804L400.93 166.074C400.779 166.708 400.49 167.262 400.064 167.736C399.642 168.205 399.102 168.569 398.444 168.83C397.786 169.085 397.033 169.213 396.186 169.213ZM394.538 153.616L395.98 155.435L397.422 153.616H399.673V153.716L396.988 156.784H394.978L392.287 153.716V153.616H394.538Z" fill="white"/>
<path d="M269.768 311.091V313.08H263.497V311.091H269.768ZM265.045 308.477H267.616V318.719C267.616 319.064 267.669 319.33 267.773 319.514C267.882 319.694 268.024 319.817 268.199 319.884C268.374 319.95 268.568 319.983 268.781 319.983C268.942 319.983 269.089 319.971 269.222 319.947C269.359 319.924 269.463 319.902 269.534 319.884L269.967 321.893C269.83 321.941 269.634 321.993 269.378 322.05C269.127 322.107 268.819 322.14 268.455 322.149C267.811 322.168 267.231 322.071 266.714 321.858C266.198 321.64 265.789 321.304 265.486 320.849C265.188 320.395 265.041 319.827 265.045 319.145V308.477ZM276.56 322.213C275.495 322.213 274.571 321.979 273.79 321.51C273.009 321.041 272.403 320.385 271.972 319.543C271.546 318.7 271.333 317.715 271.333 316.588C271.333 315.461 271.546 314.474 271.972 313.626C272.403 312.779 273.009 312.121 273.79 311.652C274.571 311.183 275.495 310.949 276.56 310.949C277.625 310.949 278.549 311.183 279.33 311.652C280.111 312.121 280.715 312.779 281.141 313.626C281.572 314.474 281.787 315.461 281.787 316.588C281.787 317.715 281.572 318.7 281.141 319.543C280.715 320.385 280.111 321.041 279.33 321.51C278.549 321.979 277.625 322.213 276.56 322.213ZM276.574 320.153C277.152 320.153 277.635 319.995 278.023 319.678C278.411 319.356 278.7 318.925 278.89 318.385C279.084 317.845 279.181 317.244 279.181 316.581C279.181 315.913 279.084 315.31 278.89 314.77C278.7 314.225 278.411 313.792 278.023 313.47C277.635 313.148 277.152 312.987 276.574 312.987C275.982 312.987 275.49 313.148 275.097 313.47C274.709 313.792 274.417 314.225 274.223 314.77C274.034 315.31 273.939 315.913 273.939 316.581C273.939 317.244 274.034 317.845 274.223 318.385C274.417 318.925 274.709 319.356 275.097 319.678C275.49 319.995 275.982 320.153 276.574 320.153ZM289.417 311.091V313.08H283.146V311.091H289.417ZM284.694 308.477H287.265V318.719C287.265 319.064 287.317 319.33 287.421 319.514C287.53 319.694 287.672 319.817 287.847 319.884C288.022 319.95 288.217 319.983 288.43 319.983C288.591 319.983 288.737 319.971 288.87 319.947C289.007 319.924 289.112 319.902 289.183 319.884L289.616 321.893C289.478 321.941 289.282 321.993 289.026 322.05C288.775 322.107 288.468 322.14 288.103 322.149C287.459 322.168 286.879 322.071 286.363 321.858C285.847 321.64 285.437 321.304 285.134 320.849C284.836 320.395 284.689 319.827 284.694 319.145V308.477ZM296.208 322.213C295.143 322.213 294.22 321.979 293.439 321.51C292.657 321.041 292.051 320.385 291.62 319.543C291.194 318.7 290.981 317.715 290.981 316.588C290.981 315.461 291.194 314.474 291.62 313.626C292.051 312.779 292.657 312.121 293.439 311.652C294.22 311.183 295.143 310.949 296.208 310.949C297.274 310.949 298.197 311.183 298.978 311.652C299.76 312.121 300.363 312.779 300.789 313.626C301.22 314.474 301.436 315.461 301.436 316.588C301.436 317.715 301.22 318.7 300.789 319.543C300.363 320.385 299.76 321.041 298.978 321.51C298.197 321.979 297.274 322.213 296.208 322.213ZM296.223 320.153C296.8 320.153 297.283 319.995 297.672 319.678C298.06 319.356 298.349 318.925 298.538 318.385C298.732 317.845 298.829 317.244 298.829 316.581C298.829 315.913 298.732 315.31 298.538 314.77C298.349 314.225 298.06 313.792 297.672 313.47C297.283 313.148 296.8 312.987 296.223 312.987C295.631 312.987 295.138 313.148 294.745 313.47C294.357 313.792 294.066 314.225 293.872 314.77C293.682 315.31 293.588 315.913 293.588 316.581C293.588 317.244 293.682 317.845 293.872 318.385C294.066 318.925 294.357 319.356 294.745 319.678C295.138 319.995 295.631 320.153 296.223 320.153ZM308.579 311.091H311.15V322.625C311.15 323.411 311.001 324.06 310.702 324.571C310.404 325.082 309.973 325.464 309.41 325.714C308.846 325.965 308.162 326.091 307.357 326.091C307.263 326.091 307.175 326.089 307.094 326.084C307.014 326.084 306.926 326.081 306.832 326.077V323.982C306.903 323.986 306.967 323.989 307.023 323.989C307.08 323.993 307.139 323.996 307.201 323.996C307.693 323.996 308.046 323.875 308.259 323.634C308.472 323.397 308.579 323.049 308.579 322.589V311.091ZM309.857 309.543C309.445 309.543 309.093 309.408 308.799 309.138C308.51 308.863 308.366 308.534 308.366 308.151C308.366 307.762 308.51 307.433 308.799 307.163C309.093 306.889 309.445 306.751 309.857 306.751C310.264 306.751 310.612 306.889 310.901 307.163C311.195 307.433 311.342 307.762 311.342 308.151C311.342 308.534 311.195 308.863 310.901 309.138C310.612 309.408 310.264 309.543 309.857 309.543ZM318.623 322.213C317.529 322.213 316.585 321.986 315.789 321.531C314.999 321.072 314.39 320.423 313.964 319.585C313.538 318.742 313.325 317.75 313.325 316.609C313.325 315.487 313.538 314.502 313.964 313.655C314.395 312.803 314.996 312.14 315.768 311.666C316.54 311.188 317.447 310.949 318.488 310.949C319.161 310.949 319.795 311.058 320.392 311.276C320.993 311.489 321.523 311.82 321.983 312.27C322.447 312.72 322.811 313.293 323.076 313.989C323.342 314.68 323.474 315.504 323.474 316.46V317.249H314.532V315.516H321.01C321.005 315.023 320.898 314.585 320.69 314.202C320.482 313.813 320.19 313.508 319.816 313.286C319.447 313.063 319.016 312.952 318.524 312.952C317.998 312.952 317.537 313.08 317.139 313.335C316.741 313.586 316.431 313.918 316.208 314.33C315.991 314.737 315.879 315.184 315.875 315.672V317.185C315.875 317.819 315.991 318.364 316.223 318.818C316.455 319.268 316.779 319.614 317.196 319.855C317.612 320.092 318.1 320.21 318.659 320.21C319.033 320.21 319.371 320.158 319.674 320.054C319.977 319.945 320.24 319.786 320.463 319.578C320.685 319.37 320.853 319.112 320.967 318.804L323.368 319.074C323.216 319.708 322.927 320.262 322.501 320.736C322.08 321.205 321.54 321.569 320.882 321.83C320.224 322.085 319.471 322.213 318.623 322.213ZM339.232 313.974L336.888 314.23C336.822 313.993 336.706 313.771 336.54 313.562C336.379 313.354 336.162 313.186 335.887 313.058C335.612 312.93 335.276 312.866 334.879 312.866C334.344 312.866 333.894 312.982 333.529 313.214C333.169 313.446 332.992 313.747 332.996 314.116C332.992 314.434 333.108 314.692 333.344 314.891C333.586 315.089 333.984 315.253 334.538 315.381L336.398 315.778C337.431 316.001 338.198 316.354 338.7 316.837C339.206 317.32 339.462 317.952 339.467 318.733C339.462 319.42 339.261 320.026 338.863 320.551C338.47 321.072 337.923 321.479 337.222 321.773C336.522 322.066 335.717 322.213 334.808 322.213C333.472 322.213 332.397 321.934 331.583 321.375C330.769 320.812 330.283 320.028 330.127 319.024L332.634 318.783C332.748 319.275 332.989 319.647 333.359 319.898C333.728 320.149 334.209 320.274 334.8 320.274C335.411 320.274 335.901 320.149 336.271 319.898C336.645 319.647 336.832 319.337 336.832 318.967C336.832 318.655 336.711 318.397 336.469 318.193C336.233 317.99 335.863 317.833 335.362 317.724L333.501 317.334C332.454 317.116 331.68 316.749 331.178 316.233C330.676 315.712 330.428 315.054 330.433 314.259C330.428 313.586 330.61 313.004 330.979 312.511C331.353 312.014 331.872 311.631 332.535 311.361C333.202 311.086 333.972 310.949 334.843 310.949C336.121 310.949 337.128 311.221 337.862 311.766C338.6 312.31 339.057 313.046 339.232 313.974ZM341.587 326.091V311.091H344.115V312.895H344.264C344.397 312.63 344.584 312.348 344.825 312.05C345.067 311.747 345.393 311.489 345.805 311.276C346.217 311.058 346.743 310.949 347.382 310.949C348.225 310.949 348.985 311.164 349.662 311.595C350.344 312.021 350.884 312.653 351.281 313.491C351.684 314.325 351.885 315.348 351.885 316.56C351.885 317.758 351.688 318.776 351.295 319.614C350.902 320.452 350.367 321.091 349.69 321.531C349.013 321.972 348.246 322.192 347.389 322.192C346.764 322.192 346.246 322.088 345.834 321.879C345.422 321.671 345.09 321.42 344.839 321.126C344.593 320.828 344.402 320.546 344.264 320.281H344.158V326.091H341.587ZM344.108 316.545C344.108 317.251 344.207 317.869 344.406 318.399C344.61 318.929 344.901 319.344 345.28 319.642C345.663 319.936 346.127 320.082 346.672 320.082C347.24 320.082 347.716 319.931 348.099 319.628C348.483 319.32 348.772 318.901 348.966 318.371C349.165 317.836 349.264 317.227 349.264 316.545C349.264 315.868 349.167 315.267 348.973 314.741C348.779 314.216 348.49 313.804 348.107 313.506C347.723 313.207 347.245 313.058 346.672 313.058C346.123 313.058 345.656 313.203 345.273 313.491C344.889 313.78 344.598 314.185 344.399 314.706C344.205 315.227 344.108 315.84 344.108 316.545ZM354.087 322V311.091H356.58V312.909H356.693C356.892 312.279 357.233 311.794 357.716 311.453C358.204 311.107 358.76 310.935 359.385 310.935C359.527 310.935 359.686 310.942 359.861 310.956C360.041 310.965 360.19 310.982 360.308 311.006V313.371C360.199 313.333 360.027 313.3 359.79 313.271C359.558 313.238 359.333 313.222 359.115 313.222C358.646 313.222 358.225 313.323 357.851 313.527C357.482 313.726 357.19 314.003 356.977 314.358C356.764 314.713 356.658 315.123 356.658 315.587V322H354.087ZM364.96 322.22C364.269 322.22 363.646 322.097 363.092 321.851C362.543 321.6 362.107 321.231 361.786 320.743C361.468 320.255 361.31 319.654 361.31 318.939C361.31 318.323 361.423 317.814 361.651 317.412C361.878 317.009 362.188 316.688 362.581 316.446C362.974 316.205 363.417 316.022 363.909 315.899C364.406 315.771 364.92 315.679 365.45 315.622C366.089 315.556 366.608 315.497 367.006 315.445C367.403 315.388 367.692 315.303 367.872 315.189C368.057 315.071 368.149 314.888 368.149 314.642V314.599C368.149 314.064 367.991 313.65 367.673 313.357C367.356 313.063 366.899 312.916 366.303 312.916C365.673 312.916 365.173 313.054 364.804 313.328C364.439 313.603 364.193 313.927 364.065 314.301L361.665 313.96C361.854 313.297 362.167 312.743 362.602 312.298C363.038 311.848 363.571 311.512 364.2 311.29C364.83 311.062 365.526 310.949 366.288 310.949C366.814 310.949 367.337 311.01 367.858 311.134C368.379 311.257 368.855 311.46 369.286 311.744C369.716 312.024 370.062 312.405 370.322 312.888C370.588 313.371 370.72 313.974 370.72 314.699V322H368.249V320.501H368.163C368.007 320.804 367.787 321.089 367.503 321.354C367.223 321.614 366.871 321.825 366.445 321.986C366.023 322.142 365.528 322.22 364.96 322.22ZM365.628 320.331C366.144 320.331 366.591 320.229 366.97 320.026C367.349 319.817 367.64 319.543 367.844 319.202C368.052 318.861 368.156 318.489 368.156 318.087V316.801C368.076 316.867 367.938 316.929 367.744 316.986C367.555 317.043 367.342 317.092 367.105 317.135C366.868 317.178 366.634 317.215 366.402 317.249C366.17 317.282 365.969 317.31 365.798 317.334C365.415 317.386 365.071 317.471 364.768 317.589C364.465 317.708 364.226 317.874 364.051 318.087C363.876 318.295 363.788 318.565 363.788 318.896C363.788 319.37 363.961 319.727 364.307 319.969C364.652 320.21 365.093 320.331 365.628 320.331ZM365.415 309.656L367.006 306.411H369.52L367.339 309.656H365.415ZM382.659 311.091L378.774 322H375.933L372.048 311.091H374.79L377.297 319.195H377.411L379.925 311.091H382.659ZM387.009 315.608V322H384.438V311.091H386.896V312.945H387.023C387.274 312.334 387.674 311.848 388.224 311.489C388.778 311.129 389.462 310.949 390.276 310.949C391.029 310.949 391.685 311.11 392.244 311.432C392.807 311.754 393.243 312.22 393.55 312.831C393.863 313.442 394.017 314.183 394.012 315.054V322H391.441V315.452C391.441 314.723 391.252 314.152 390.873 313.74C390.499 313.328 389.98 313.122 389.317 313.122C388.868 313.122 388.468 313.222 388.117 313.42C387.772 313.615 387.499 313.896 387.3 314.266C387.106 314.635 387.009 315.082 387.009 315.608ZM401.455 322.213C400.362 322.213 399.417 321.986 398.621 321.531C397.831 321.072 397.222 320.423 396.796 319.585C396.37 318.742 396.157 317.75 396.157 316.609C396.157 315.487 396.37 314.502 396.796 313.655C397.227 312.803 397.828 312.14 398.6 311.666C399.372 311.188 400.279 310.949 401.32 310.949C401.993 310.949 402.627 311.058 403.224 311.276C403.825 311.489 404.355 311.82 404.815 312.27C405.279 312.72 405.643 313.293 405.908 313.989C406.174 314.68 406.306 315.504 406.306 316.46V317.249H397.364V315.516H403.842C403.837 315.023 403.73 314.585 403.522 314.202C403.314 313.813 403.022 313.508 402.648 313.286C402.279 313.063 401.848 312.952 401.356 312.952C400.83 312.952 400.369 313.08 399.971 313.335C399.573 313.586 399.263 313.918 399.04 314.33C398.823 314.737 398.711 315.184 398.707 315.672V317.185C398.707 317.819 398.823 318.364 399.055 318.818C399.287 319.268 399.611 319.614 400.028 319.855C400.444 320.092 400.932 320.21 401.491 320.21C401.865 320.21 402.203 320.158 402.506 320.054C402.809 319.945 403.072 319.786 403.295 319.578C403.517 319.37 403.685 319.112 403.799 318.804L406.2 319.074C406.048 319.708 405.759 320.262 405.333 320.736C404.912 321.205 404.372 321.569 403.714 321.83C403.056 322.085 402.303 322.213 401.455 322.213ZM399.808 306.616L401.249 308.435L402.691 306.616H404.942V306.716L402.258 309.784H400.248L397.556 306.716V306.616H399.808Z" fill="white"/>
</svg>
