<svg width="628" height="45" viewBox="0 0 628 45" fill="none" xmlns="http://www.w3.org/2000/svg">
<path d="M18.8295 34.4545C18.7784 34.0227 18.571 33.6875 18.2074 33.4489C17.8438 33.2102 17.3977 33.0909 16.8693 33.0909C16.483 33.0909 16.1449 33.1534 15.8551 33.2784C15.5682 33.4034 15.3438 33.5753 15.1818 33.794C15.0227 34.0128 14.9432 34.2614 14.9432 34.5398C14.9432 34.7727 14.9986 34.973 15.1094 35.1406C15.223 35.3054 15.3679 35.4432 15.544 35.554C15.7202 35.6619 15.9048 35.7514 16.098 35.8224C16.2912 35.8906 16.4688 35.946 16.6307 35.9886L17.517 36.2273C17.7443 36.2869 17.9972 36.3693 18.2756 36.4744C18.5568 36.5795 18.8253 36.723 19.081 36.9048C19.3395 37.0838 19.5526 37.3139 19.7202 37.5952C19.8878 37.8764 19.9716 38.2216 19.9716 38.6307C19.9716 39.1023 19.848 39.5284 19.6009 39.9091C19.3565 40.2898 18.9986 40.5923 18.527 40.8168C18.0582 41.0412 17.4886 41.1534 16.8182 41.1534C16.1932 41.1534 15.652 41.0526 15.1946 40.8509C14.7401 40.6491 14.3821 40.3679 14.1207 40.0071C13.8622 39.6463 13.7159 39.2273 13.6818 38.75H14.7727C14.8011 39.0795 14.9119 39.3523 15.1051 39.5682C15.3011 39.7812 15.5483 39.9403 15.8466 40.0455C16.1477 40.1477 16.4716 40.1989 16.8182 40.1989C17.2216 40.1989 17.5838 40.1335 17.9048 40.0028C18.2259 39.8693 18.4801 39.6847 18.6676 39.4489C18.8551 39.2102 18.9489 38.9318 18.9489 38.6136C18.9489 38.3239 18.8679 38.0881 18.706 37.9062C18.544 37.7244 18.331 37.5767 18.0668 37.4631C17.8026 37.3494 17.517 37.25 17.2102 37.1648L16.1364 36.858C15.4545 36.6619 14.9148 36.3821 14.517 36.0185C14.1193 35.6548 13.9205 35.179 13.9205 34.5909C13.9205 34.1023 14.0526 33.6761 14.3168 33.3125C14.5838 32.946 14.9418 32.6619 15.3906 32.4602C15.8423 32.2557 16.3466 32.1534 16.9034 32.1534C17.4659 32.1534 17.9659 32.2543 18.4034 32.456C18.8409 32.6548 19.1875 32.9276 19.4432 33.2741C19.7017 33.6207 19.8381 34.0142 19.8523 34.4545H18.8295ZM24.2319 41.1364C23.641 41.1364 23.1225 40.9957 22.6765 40.7145C22.2333 40.4332 21.8867 40.0398 21.6367 39.5341C21.3896 39.0284 21.266 38.4375 21.266 37.7614C21.266 37.0795 21.3896 36.4844 21.6367 35.9759C21.8867 35.4673 22.2333 35.0724 22.6765 34.7912C23.1225 34.5099 23.641 34.3693 24.2319 34.3693C24.8228 34.3693 25.3398 34.5099 25.783 34.7912C26.229 35.0724 26.5756 35.4673 26.8228 35.9759C27.0728 36.4844 27.1978 37.0795 27.1978 37.7614C27.1978 38.4375 27.0728 39.0284 26.8228 39.5341C26.5756 40.0398 26.229 40.4332 25.783 40.7145C25.3398 40.9957 24.8228 41.1364 24.2319 41.1364ZM24.2319 40.233C24.6808 40.233 25.0501 40.1179 25.3398 39.8878C25.6296 39.6577 25.8441 39.3551 25.9833 38.9801C26.1225 38.6051 26.1921 38.1989 26.1921 37.7614C26.1921 37.3239 26.1225 36.9162 25.9833 36.5384C25.8441 36.1605 25.6296 35.8551 25.3398 35.6222C25.0501 35.3892 24.6808 35.2727 24.2319 35.2727C23.783 35.2727 23.4137 35.3892 23.1239 35.6222C22.8342 35.8551 22.6197 36.1605 22.4805 36.5384C22.3413 36.9162 22.2717 37.3239 22.2717 37.7614C22.2717 38.1989 22.3413 38.6051 22.4805 38.9801C22.6197 39.3551 22.8342 39.6577 23.1239 39.8878C23.4137 40.1179 23.783 40.233 24.2319 40.233ZM32.858 38.3239V34.4545H33.8636V41H32.858V39.892H32.7898C32.6364 40.2244 32.3977 40.5071 32.0739 40.7401C31.75 40.9702 31.3409 41.0852 30.8466 41.0852C30.4375 41.0852 30.0739 40.9957 29.7557 40.8168C29.4375 40.6349 29.1875 40.3622 29.0057 39.9986C28.8239 39.6321 28.733 39.1705 28.733 38.6136V34.4545H29.7386V38.5455C29.7386 39.0227 29.8722 39.4034 30.1392 39.6875C30.4091 39.9716 30.7528 40.1136 31.1705 40.1136C31.4205 40.1136 31.6747 40.0497 31.9332 39.9219C32.1946 39.794 32.4134 39.598 32.5895 39.3338C32.7685 39.0696 32.858 38.733 32.858 38.3239ZM35.7056 41V34.4545H36.6772V35.4432H36.7454C36.8647 35.1193 37.0806 34.8565 37.3931 34.6548C37.7056 34.4531 38.0579 34.3523 38.4499 34.3523C38.5238 34.3523 38.6161 34.3537 38.7269 34.3565C38.8377 34.3594 38.9215 34.3636 38.9783 34.3693V35.392C38.9442 35.3835 38.8661 35.3707 38.744 35.3537C38.6246 35.3338 38.4982 35.3239 38.3647 35.3239C38.0465 35.3239 37.7624 35.3906 37.5124 35.5241C37.2653 35.6548 37.0692 35.8366 36.9244 36.0696C36.7823 36.2997 36.7113 36.5625 36.7113 36.858V41H35.7056ZM42.6303 41.1364C42.0167 41.1364 41.4883 40.9915 41.0451 40.7017C40.6019 40.4119 40.261 40.0128 40.0224 39.5043C39.7837 38.9957 39.6644 38.4148 39.6644 37.7614C39.6644 37.0966 39.7866 36.5099 40.0309 36.0014C40.2781 35.4901 40.6218 35.0909 41.0621 34.804C41.5053 34.5142 42.0224 34.3693 42.6133 34.3693C43.0735 34.3693 43.4883 34.4545 43.8576 34.625C44.2269 34.7955 44.5295 35.0341 44.7653 35.3409C45.0011 35.6477 45.1474 36.0057 45.2042 36.4148H44.1985C44.1218 36.1165 43.9513 35.8523 43.6871 35.6222C43.4258 35.3892 43.0735 35.2727 42.6303 35.2727C42.2383 35.2727 41.8945 35.375 41.5991 35.5795C41.3065 35.7812 41.0778 36.0668 40.913 36.4361C40.7511 36.8026 40.6701 37.233 40.6701 37.7273C40.6701 38.233 40.7496 38.6733 40.9087 39.0483C41.0707 39.4233 41.2979 39.7145 41.5906 39.9219C41.886 40.1293 42.2326 40.233 42.6303 40.233C42.8917 40.233 43.1289 40.1875 43.342 40.0966C43.555 40.0057 43.7354 39.875 43.8832 39.7045C44.0309 39.5341 44.136 39.3295 44.1985 39.0909H45.2042C45.1474 39.4773 45.0067 39.8253 44.7823 40.1349C44.5607 40.4418 44.2667 40.6861 43.9002 40.8679C43.5366 41.0469 43.1133 41.1364 42.6303 41.1364ZM49.4187 41.1364C48.788 41.1364 48.244 40.9972 47.7866 40.7188C47.332 40.4375 46.9812 40.0455 46.734 39.5426C46.4897 39.0369 46.3675 38.4489 46.3675 37.7784C46.3675 37.108 46.4897 36.517 46.734 36.0057C46.9812 35.4915 47.3249 35.0909 47.7653 34.804C48.2085 34.5142 48.7255 34.3693 49.3164 34.3693C49.6573 34.3693 49.994 34.4261 50.3263 34.5398C50.6587 34.6534 50.9613 34.8381 51.234 35.0938C51.5067 35.3466 51.7241 35.6818 51.886 36.0994C52.0479 36.517 52.1289 37.0312 52.1289 37.642V38.0682H47.0835V37.1989H51.1062C51.1062 36.8295 51.0323 36.5 50.8846 36.2102C50.7397 35.9205 50.5323 35.6918 50.2624 35.5241C49.9954 35.3565 49.68 35.2727 49.3164 35.2727C48.9158 35.2727 48.5692 35.3722 48.2766 35.571C47.9869 35.767 47.7638 36.0227 47.6076 36.3381C47.4513 36.6534 47.3732 36.9915 47.3732 37.3523V37.9318C47.3732 38.4261 47.4585 38.8452 47.6289 39.1889C47.8022 39.5298 48.0423 39.7898 48.3491 39.9688C48.6559 40.1449 49.0124 40.233 49.4187 40.233C49.6829 40.233 49.9215 40.196 50.1346 40.1222C50.3505 40.0455 50.5366 39.9318 50.6928 39.7812C50.8491 39.6278 50.9698 39.4375 51.055 39.2102L52.0266 39.483C51.9244 39.8125 51.7525 40.1023 51.511 40.3523C51.2695 40.5994 50.9712 40.7926 50.6161 40.9318C50.261 41.0682 49.8619 41.1364 49.4187 41.1364ZM61.9428 34.4545C61.8917 34.0227 61.6843 33.6875 61.3207 33.4489C60.957 33.2102 60.511 33.0909 59.9826 33.0909C59.5962 33.0909 59.2582 33.1534 58.9684 33.2784C58.6815 33.4034 58.457 33.5753 58.2951 33.794C58.136 34.0128 58.0565 34.2614 58.0565 34.5398C58.0565 34.7727 58.1119 34.973 58.2227 35.1406C58.3363 35.3054 58.4812 35.4432 58.6573 35.554C58.8335 35.6619 59.0181 35.7514 59.2113 35.8224C59.4045 35.8906 59.582 35.946 59.744 35.9886L60.6303 36.2273C60.8576 36.2869 61.1104 36.3693 61.3888 36.4744C61.6701 36.5795 61.9386 36.723 62.1942 36.9048C62.4528 37.0838 62.6658 37.3139 62.8335 37.5952C63.0011 37.8764 63.0849 38.2216 63.0849 38.6307C63.0849 39.1023 62.9613 39.5284 62.7141 39.9091C62.4698 40.2898 62.1119 40.5923 61.6403 40.8168C61.1715 41.0412 60.6019 41.1534 59.9315 41.1534C59.3065 41.1534 58.7653 41.0526 58.3079 40.8509C57.8533 40.6491 57.4954 40.3679 57.234 40.0071C56.9755 39.6463 56.8292 39.2273 56.7951 38.75H57.886C57.9144 39.0795 58.0252 39.3523 58.2184 39.5682C58.4144 39.7812 58.6616 39.9403 58.9599 40.0455C59.261 40.1477 59.5849 40.1989 59.9315 40.1989C60.3349 40.1989 60.6971 40.1335 61.0181 40.0028C61.3391 39.8693 61.5934 39.6847 61.7809 39.4489C61.9684 39.2102 62.0621 38.9318 62.0621 38.6136C62.0621 38.3239 61.9812 38.0881 61.8192 37.9062C61.6573 37.7244 61.4442 37.5767 61.18 37.4631C60.9158 37.3494 60.6303 37.25 60.3235 37.1648L59.2496 36.858C58.5678 36.6619 58.0281 36.3821 57.6303 36.0185C57.2326 35.6548 57.0337 35.179 57.0337 34.5909C57.0337 34.1023 57.1658 33.6761 57.43 33.3125C57.6971 32.946 58.055 32.6619 58.5039 32.4602C58.9556 32.2557 59.4599 32.1534 60.0167 32.1534C60.5792 32.1534 61.0792 32.2543 61.5167 32.456C61.9542 32.6548 62.3008 32.9276 62.5565 33.2741C62.815 33.6207 62.9513 34.0142 62.9656 34.4545H61.9428ZM66.6122 41.1534C66.1974 41.1534 65.821 41.0753 65.483 40.919C65.1449 40.7599 64.8764 40.5312 64.6776 40.233C64.4787 39.9318 64.3793 39.5682 64.3793 39.142C64.3793 38.767 64.4531 38.4631 64.6009 38.2301C64.7486 37.9943 64.946 37.8097 65.1932 37.6761C65.4403 37.5426 65.7131 37.4432 66.0114 37.3778C66.3125 37.3097 66.6151 37.2557 66.919 37.2159C67.3168 37.1648 67.6392 37.1264 67.8864 37.1009C68.1364 37.0724 68.3182 37.0256 68.4318 36.9602C68.5483 36.8949 68.6065 36.7812 68.6065 36.6193V36.5852C68.6065 36.1648 68.4915 35.8381 68.2614 35.6051C68.0341 35.3722 67.6889 35.2557 67.2259 35.2557C66.7457 35.2557 66.3693 35.3608 66.0966 35.571C65.8239 35.7812 65.6321 36.0057 65.5213 36.2443L64.5668 35.9034C64.7372 35.5057 64.9645 35.196 65.2486 34.9744C65.5355 34.75 65.848 34.5937 66.1861 34.5057C66.527 34.4148 66.8622 34.3693 67.1918 34.3693C67.402 34.3693 67.6435 34.3949 67.9162 34.446C68.1918 34.4943 68.4574 34.5952 68.7131 34.7486C68.9716 34.902 69.1861 35.1335 69.3565 35.4432C69.527 35.7528 69.6122 36.1676 69.6122 36.6875V41H68.6065V40.1136H68.5554C68.4872 40.2557 68.3736 40.4077 68.2145 40.5696C68.0554 40.7315 67.8438 40.8693 67.5795 40.983C67.3153 41.0966 66.9929 41.1534 66.6122 41.1534ZM66.7656 40.25C67.1634 40.25 67.4986 40.1719 67.7713 40.0156C68.0469 39.8594 68.2543 39.6577 68.3935 39.4105C68.5355 39.1634 68.6065 38.9034 68.6065 38.6307V37.7102C68.5639 37.7614 68.4702 37.8082 68.3253 37.8509C68.1832 37.8906 68.0185 37.9261 67.831 37.9574C67.6463 37.9858 67.4659 38.0114 67.2898 38.0341C67.1165 38.054 66.9759 38.071 66.8679 38.0852C66.6065 38.1193 66.3622 38.1747 66.1349 38.2514C65.9105 38.3253 65.7287 38.4375 65.5895 38.5881C65.4531 38.7358 65.3849 38.9375 65.3849 39.1932C65.3849 39.5426 65.5142 39.8068 65.7727 39.9858C66.0341 40.1619 66.3651 40.25 66.7656 40.25ZM72.4535 37.0625V41H71.4478V34.4545H72.4194V35.4773H72.5046C72.658 35.1449 72.891 34.8778 73.2035 34.6761C73.516 34.4716 73.9194 34.3693 74.4137 34.3693C74.8569 34.3693 75.2447 34.4602 75.5771 34.642C75.9094 34.821 76.168 35.0938 76.3526 35.4602C76.5373 35.8239 76.6296 36.2841 76.6296 36.8409V41H75.6239V36.9091C75.6239 36.3949 75.4904 35.9943 75.2234 35.7074C74.9563 35.4176 74.5898 35.2727 74.1239 35.2727C73.8029 35.2727 73.516 35.3423 73.2631 35.4815C73.0131 35.6207 72.8157 35.8239 72.6708 36.0909C72.5259 36.358 72.4535 36.6818 72.4535 37.0625ZM83.1037 35.9205L82.2003 36.1761C82.1435 36.0256 82.0597 35.8793 81.9489 35.7372C81.8409 35.5923 81.6932 35.473 81.5057 35.3793C81.3182 35.2855 81.0781 35.2386 80.7855 35.2386C80.3849 35.2386 80.0511 35.331 79.7841 35.5156C79.5199 35.6974 79.3878 35.929 79.3878 36.2102C79.3878 36.4602 79.4787 36.6577 79.6605 36.8026C79.8423 36.9474 80.1264 37.0682 80.5128 37.1648L81.4844 37.4034C82.0696 37.5455 82.5057 37.7628 82.7926 38.0554C83.0795 38.3452 83.223 38.7187 83.223 39.1761C83.223 39.5511 83.1151 39.8864 82.8991 40.1818C82.6861 40.4773 82.3878 40.7102 82.0043 40.8807C81.6207 41.0511 81.1747 41.1364 80.6662 41.1364C79.9986 41.1364 79.446 40.9915 79.0085 40.7017C78.571 40.4119 78.294 39.9886 78.1776 39.4318L79.1321 39.1932C79.223 39.5455 79.3949 39.8097 79.6477 39.9858C79.9034 40.1619 80.2372 40.25 80.6491 40.25C81.1179 40.25 81.4901 40.1506 81.7656 39.9517C82.044 39.75 82.1832 39.5085 82.1832 39.2273C82.1832 39 82.1037 38.8097 81.9446 38.6562C81.7855 38.5 81.5412 38.3835 81.2116 38.3068L80.1207 38.0511C79.5213 37.9091 79.081 37.6889 78.7997 37.3906C78.5213 37.0895 78.3821 36.7131 78.3821 36.2614C78.3821 35.892 78.4858 35.5653 78.6932 35.2812C78.9034 34.9972 79.1889 34.7741 79.5497 34.6122C79.9134 34.4503 80.3253 34.3693 80.7855 34.3693C81.4332 34.3693 81.9418 34.5114 82.3111 34.7955C82.6832 35.0795 82.9474 35.4545 83.1037 35.9205ZM88.2482 41V32.2727H91.1971C91.8817 32.2727 92.4414 32.3963 92.8761 32.6435C93.3136 32.8878 93.6374 33.2188 93.8477 33.6364C94.0579 34.054 94.163 34.5199 94.163 35.0341C94.163 35.5483 94.0579 36.0156 93.8477 36.4361C93.6403 36.8565 93.3192 37.1918 92.8846 37.4418C92.4499 37.6889 91.8931 37.8125 91.2141 37.8125H89.1005V36.875H91.18C91.6488 36.875 92.0252 36.794 92.3093 36.6321C92.5934 36.4702 92.7994 36.2514 92.9272 35.9759C93.0579 35.6974 93.1232 35.3835 93.1232 35.0341C93.1232 34.6847 93.0579 34.3722 92.9272 34.0966C92.7994 33.821 92.592 33.6051 92.305 33.4489C92.0181 33.2898 91.6374 33.2102 91.163 33.2102H89.305V41H88.2482ZM95.729 41V34.4545H96.7006V35.4432H96.7688C96.8881 35.1193 97.104 34.8565 97.4165 34.6548C97.729 34.4531 98.0813 34.3523 98.4734 34.3523C98.5472 34.3523 98.6396 34.3537 98.7504 34.3565C98.8612 34.3594 98.945 34.3636 99.0018 34.3693V35.392C98.9677 35.3835 98.8896 35.3707 98.7674 35.3537C98.6481 35.3338 98.5217 35.3239 98.3881 35.3239C98.07 35.3239 97.7859 35.3906 97.5359 35.5241C97.2887 35.6548 97.0927 35.8366 96.9478 36.0696C96.8058 36.2997 96.7347 36.5625 96.7347 36.858V41H95.729ZM102.654 41.1364C102.063 41.1364 101.544 40.9957 101.098 40.7145C100.655 40.4332 100.309 40.0398 100.059 39.5341C99.8114 39.0284 99.6879 38.4375 99.6879 37.7614C99.6879 37.0795 99.8114 36.4844 100.059 35.9759C100.309 35.4673 100.655 35.0724 101.098 34.7912C101.544 34.5099 102.063 34.3693 102.654 34.3693C103.245 34.3693 103.762 34.5099 104.205 34.7912C104.651 35.0724 104.998 35.4673 105.245 35.9759C105.495 36.4844 105.62 37.0795 105.62 37.7614C105.62 38.4375 105.495 39.0284 105.245 39.5341C104.998 40.0398 104.651 40.4332 104.205 40.7145C103.762 40.9957 103.245 41.1364 102.654 41.1364ZM102.654 40.233C103.103 40.233 103.472 40.1179 103.762 39.8878C104.051 39.6577 104.266 39.3551 104.405 38.9801C104.544 38.6051 104.614 38.1989 104.614 37.7614C104.614 37.3239 104.544 36.9162 104.405 36.5384C104.266 36.1605 104.051 35.8551 103.762 35.6222C103.472 35.3892 103.103 35.2727 102.654 35.2727C102.205 35.2727 101.836 35.3892 101.546 35.6222C101.256 35.8551 101.042 36.1605 100.902 36.5384C100.763 36.9162 100.694 37.3239 100.694 37.7614C100.694 38.1989 100.763 38.6051 100.902 38.9801C101.042 39.3551 101.256 39.6577 101.546 39.8878C101.836 40.1179 102.205 40.233 102.654 40.233Z" fill="#596063"/>
<path d="M220.415 41H219.307L222.511 32.2727H223.602L226.807 41H225.699L223.091 33.6534H223.023L220.415 41ZM220.824 37.5909H225.29V38.5284H220.824V37.5909ZM228.03 41V34.4545H229.001V35.4432H229.07C229.189 35.1193 229.405 34.8565 229.717 34.6548C230.03 34.4531 230.382 34.3523 230.774 34.3523C230.848 34.3523 230.94 34.3537 231.051 34.3565C231.162 34.3594 231.246 34.3636 231.303 34.3693V35.392C231.268 35.3835 231.19 35.3707 231.068 35.3537C230.949 35.3338 230.822 35.3239 230.689 35.3239C230.371 35.3239 230.087 35.3906 229.837 35.5241C229.589 35.6548 229.393 35.8366 229.249 36.0696C229.107 36.2997 229.036 36.5625 229.036 36.858V41H228.03ZM232.495 41V34.4545H233.5V41H232.495ZM233.006 33.3636C232.81 33.3636 232.641 33.2969 232.499 33.1634C232.36 33.0298 232.29 32.8693 232.29 32.6818C232.29 32.4943 232.36 32.3338 232.499 32.2003C232.641 32.0668 232.81 32 233.006 32C233.202 32 233.37 32.0668 233.509 32.2003C233.651 32.3338 233.722 32.4943 233.722 32.6818C233.722 32.8693 233.651 33.0298 233.509 33.1634C233.37 33.2969 233.202 33.3636 233.006 33.3636ZM237.268 41.1534C236.854 41.1534 236.477 41.0753 236.139 40.919C235.801 40.7599 235.533 40.5312 235.334 40.233C235.135 39.9318 235.036 39.5682 235.036 39.142C235.036 38.767 235.109 38.4631 235.257 38.2301C235.405 37.9943 235.602 37.8097 235.849 37.6761C236.097 37.5426 236.369 37.4432 236.668 37.3778C236.969 37.3097 237.271 37.2557 237.575 37.2159C237.973 37.1648 238.295 37.1264 238.543 37.1009C238.793 37.0724 238.974 37.0256 239.088 36.9602C239.205 36.8949 239.263 36.7812 239.263 36.6193V36.5852C239.263 36.1648 239.148 35.8381 238.918 35.6051C238.69 35.3722 238.345 35.2557 237.882 35.2557C237.402 35.2557 237.026 35.3608 236.753 35.571C236.48 35.7812 236.288 36.0057 236.178 36.2443L235.223 35.9034C235.393 35.5057 235.621 35.196 235.905 34.9744C236.192 34.75 236.504 34.5937 236.842 34.5057C237.183 34.4148 237.518 34.3693 237.848 34.3693C238.058 34.3693 238.3 34.3949 238.572 34.446C238.848 34.4943 239.114 34.5952 239.369 34.7486C239.628 34.902 239.842 35.1335 240.013 35.4432C240.183 35.7528 240.268 36.1676 240.268 36.6875V41H239.263V40.1136H239.212C239.143 40.2557 239.03 40.4077 238.871 40.5696C238.712 40.7315 238.5 40.8693 238.236 40.983C237.972 41.0966 237.649 41.1534 237.268 41.1534ZM237.422 40.25C237.82 40.25 238.155 40.1719 238.428 40.0156C238.703 39.8594 238.911 39.6577 239.05 39.4105C239.192 39.1634 239.263 38.9034 239.263 38.6307V37.7102C239.22 37.7614 239.126 37.8082 238.982 37.8509C238.839 37.8906 238.675 37.9261 238.487 37.9574C238.303 37.9858 238.122 38.0114 237.946 38.0341C237.773 38.054 237.632 38.071 237.524 38.0852C237.263 38.1193 237.018 38.1747 236.791 38.2514C236.567 38.3253 236.385 38.4375 236.246 38.5881C236.109 38.7358 236.041 38.9375 236.041 39.1932C236.041 39.5426 236.17 39.8068 236.429 39.9858C236.69 40.1619 237.021 40.25 237.422 40.25ZM243.11 32.2727V41H242.104V32.2727H243.11Z" fill="#596063"/>
<path d="M372.023 35C371.929 34.7131 371.805 34.456 371.652 34.2287C371.501 33.9986 371.321 33.8026 371.111 33.6406C370.903 33.4787 370.668 33.3551 370.403 33.2699C370.139 33.1847 369.849 33.142 369.534 33.142C369.017 33.142 368.547 33.2756 368.124 33.5426C367.7 33.8097 367.364 34.2031 367.114 34.723C366.864 35.2429 366.739 35.8807 366.739 36.6364C366.739 37.392 366.865 38.0298 367.118 38.5497C367.371 39.0696 367.713 39.4631 368.145 39.7301C368.577 39.9972 369.063 40.1307 369.602 40.1307C370.102 40.1307 370.543 40.0241 370.923 39.8111C371.307 39.5952 371.605 39.2912 371.818 38.8991C372.034 38.5043 372.142 38.0398 372.142 37.5057L372.466 37.5739H369.841V36.6364H373.165V37.5739C373.165 38.2926 373.011 38.9176 372.705 39.4489C372.401 39.9801 371.98 40.392 371.443 40.6847C370.909 40.9744 370.295 41.1193 369.602 41.1193C368.83 41.1193 368.151 40.9375 367.565 40.5739C366.983 40.2102 366.528 39.6932 366.202 39.0227C365.878 38.3523 365.716 37.5568 365.716 36.6364C365.716 35.946 365.808 35.3253 365.993 34.7741C366.18 34.2202 366.445 33.7486 366.786 33.3594C367.126 32.9702 367.53 32.6719 367.996 32.4645C368.462 32.2571 368.974 32.1534 369.534 32.1534C369.994 32.1534 370.423 32.223 370.821 32.3622C371.222 32.4986 371.578 32.6932 371.891 32.946C372.206 33.196 372.469 33.4957 372.679 33.8452C372.889 34.1918 373.034 34.5767 373.114 35H372.023ZM375.249 41V34.4545H376.254V41H375.249ZM375.76 33.3636C375.564 33.3636 375.395 33.2969 375.253 33.1634C375.114 33.0298 375.044 32.8693 375.044 32.6818C375.044 32.4943 375.114 32.3338 375.253 32.2003C375.395 32.0668 375.564 32 375.76 32C375.956 32 376.124 32.0668 376.263 32.2003C376.405 32.3338 376.476 32.4943 376.476 32.6818C376.476 32.8693 376.405 33.0298 376.263 33.1634C376.124 33.2969 375.956 33.3636 375.76 33.3636ZM379.102 32.2727V41H378.096V32.2727H379.102ZM381.95 32.2727V41H380.944V32.2727H381.95ZM392.076 34.4545C392.025 34.0227 391.817 33.6875 391.453 33.4489C391.09 33.2102 390.644 33.0909 390.115 33.0909C389.729 33.0909 389.391 33.1534 389.101 33.2784C388.814 33.4034 388.59 33.5753 388.428 33.794C388.269 34.0128 388.189 34.2614 388.189 34.5398C388.189 34.7727 388.245 34.973 388.355 35.1406C388.469 35.3054 388.614 35.4432 388.79 35.554C388.966 35.6619 389.151 35.7514 389.344 35.8224C389.537 35.8906 389.715 35.946 389.877 35.9886L390.763 36.2273C390.99 36.2869 391.243 36.3693 391.522 36.4744C391.803 36.5795 392.071 36.723 392.327 36.9048C392.586 37.0838 392.799 37.3139 392.966 37.5952C393.134 37.8764 393.218 38.2216 393.218 38.6307C393.218 39.1023 393.094 39.5284 392.847 39.9091C392.603 40.2898 392.245 40.5923 391.773 40.8168C391.304 41.0412 390.735 41.1534 390.064 41.1534C389.439 41.1534 388.898 41.0526 388.441 40.8509C387.986 40.6491 387.628 40.3679 387.367 40.0071C387.108 39.6463 386.962 39.2273 386.928 38.75H388.019C388.047 39.0795 388.158 39.3523 388.351 39.5682C388.547 39.7812 388.794 39.9403 389.093 40.0455C389.394 40.1477 389.718 40.1989 390.064 40.1989C390.468 40.1989 390.83 40.1335 391.151 40.0028C391.472 39.8693 391.726 39.6847 391.914 39.4489C392.101 39.2102 392.195 38.9318 392.195 38.6136C392.195 38.3239 392.114 38.0881 391.952 37.9062C391.79 37.7244 391.577 37.5767 391.313 37.4631C391.049 37.3494 390.763 37.25 390.456 37.1648L389.382 36.858C388.701 36.6619 388.161 36.3821 387.763 36.0185C387.365 35.6548 387.167 35.179 387.167 34.5909C387.167 34.1023 387.299 33.6761 387.563 33.3125C387.83 32.946 388.188 32.6619 388.637 32.4602C389.088 32.2557 389.593 32.1534 390.15 32.1534C390.712 32.1534 391.212 32.2543 391.65 32.456C392.087 32.6548 392.434 32.9276 392.689 33.2741C392.948 33.6207 393.084 34.0142 393.098 34.4545H392.076ZM396.745 41.1534C396.33 41.1534 395.954 41.0753 395.616 40.919C395.278 40.7599 395.009 40.5312 394.81 40.233C394.612 39.9318 394.512 39.5682 394.512 39.142C394.512 38.767 394.586 38.4631 394.734 38.2301C394.881 37.9943 395.079 37.8097 395.326 37.6761C395.573 37.5426 395.846 37.4432 396.144 37.3778C396.445 37.3097 396.748 37.2557 397.052 37.2159C397.45 37.1648 397.772 37.1264 398.019 37.1009C398.269 37.0724 398.451 37.0256 398.565 36.9602C398.681 36.8949 398.739 36.7812 398.739 36.6193V36.5852C398.739 36.1648 398.624 35.8381 398.394 35.6051C398.167 35.3722 397.822 35.2557 397.359 35.2557C396.879 35.2557 396.502 35.3608 396.229 35.571C395.957 35.7812 395.765 36.0057 395.654 36.2443L394.7 35.9034C394.87 35.5057 395.097 35.196 395.381 34.9744C395.668 34.75 395.981 34.5937 396.319 34.5057C396.66 34.4148 396.995 34.3693 397.325 34.3693C397.535 34.3693 397.776 34.3949 398.049 34.446C398.325 34.4943 398.59 34.5952 398.846 34.7486C399.104 34.902 399.319 35.1335 399.489 35.4432C399.66 35.7528 399.745 36.1676 399.745 36.6875V41H398.739V40.1136H398.688C398.62 40.2557 398.506 40.4077 398.347 40.5696C398.188 40.7315 397.977 40.8693 397.712 40.983C397.448 41.0966 397.126 41.1534 396.745 41.1534ZM396.898 40.25C397.296 40.25 397.631 40.1719 397.904 40.0156C398.18 39.8594 398.387 39.6577 398.526 39.4105C398.668 39.1634 398.739 38.9034 398.739 38.6307V37.7102C398.697 37.7614 398.603 37.8082 398.458 37.8509C398.316 37.8906 398.151 37.9261 397.964 37.9574C397.779 37.9858 397.599 38.0114 397.423 38.0341C397.249 38.054 397.109 38.071 397.001 38.0852C396.739 38.1193 396.495 38.1747 396.268 38.2514C396.043 38.3253 395.862 38.4375 395.722 38.5881C395.586 38.7358 395.518 38.9375 395.518 39.1932C395.518 39.5426 395.647 39.8068 395.906 39.9858C396.167 40.1619 396.498 40.25 396.898 40.25ZM402.586 37.0625V41H401.581V34.4545H402.552V35.4773H402.637C402.791 35.1449 403.024 34.8778 403.336 34.6761C403.649 34.4716 404.052 34.3693 404.547 34.3693C404.99 34.3693 405.377 34.4602 405.71 34.642C406.042 34.821 406.301 35.0938 406.485 35.4602C406.67 35.8239 406.762 36.2841 406.762 36.8409V41H405.757V36.9091C405.757 36.3949 405.623 35.9943 405.356 35.7074C405.089 35.4176 404.723 35.2727 404.257 35.2727C403.936 35.2727 403.649 35.3423 403.396 35.4815C403.146 35.6207 402.949 35.8239 402.804 36.0909C402.659 36.358 402.586 36.6818 402.586 37.0625ZM413.237 35.9205L412.333 36.1761C412.276 36.0256 412.192 35.8793 412.082 35.7372C411.974 35.5923 411.826 35.473 411.638 35.3793C411.451 35.2855 411.211 35.2386 410.918 35.2386C410.518 35.2386 410.184 35.331 409.917 35.5156C409.653 35.6974 409.521 35.929 409.521 36.2102C409.521 36.4602 409.612 36.6577 409.793 36.8026C409.975 36.9474 410.259 37.0682 410.646 37.1648L411.617 37.4034C412.202 37.5455 412.638 37.7628 412.925 38.0554C413.212 38.3452 413.356 38.7187 413.356 39.1761C413.356 39.5511 413.248 39.8864 413.032 40.1818C412.819 40.4773 412.521 40.7102 412.137 40.8807C411.754 41.0511 411.308 41.1364 410.799 41.1364C410.131 41.1364 409.579 40.9915 409.141 40.7017C408.704 40.4119 408.427 39.9886 408.31 39.4318L409.265 39.1932C409.356 39.5455 409.528 39.8097 409.781 39.9858C410.036 40.1619 410.37 40.25 410.782 40.25C411.251 40.25 411.623 40.1506 411.898 39.9517C412.177 39.75 412.316 39.5085 412.316 39.2273C412.316 39 412.237 38.8097 412.077 38.6562C411.918 38.5 411.674 38.3835 411.344 38.3068L410.254 38.0511C409.654 37.9091 409.214 37.6889 408.933 37.3906C408.654 37.0895 408.515 36.7131 408.515 36.2614C408.515 35.892 408.619 35.5653 408.826 35.2812C409.036 34.9972 409.322 34.7741 409.683 34.6122C410.046 34.4503 410.458 34.3693 410.918 34.3693C411.566 34.3693 412.075 34.5114 412.444 34.7955C412.816 35.0795 413.08 35.4545 413.237 35.9205ZM418.381 32.2727H419.642L422.608 39.517H422.711L425.676 32.2727H426.938V41H425.949V34.3693H425.864L423.137 41H422.182L419.455 34.3693H419.37V41H418.381V32.2727ZM428.58 33.2102V32.2727H435.125V33.2102H432.381V41H431.324V33.2102H428.58Z" fill="#596063"/>
<path d="M526.057 41V32.2727H529.006C529.688 32.2727 530.247 32.3892 530.685 32.6222C531.122 32.8523 531.446 33.169 531.656 33.5724C531.866 33.9759 531.972 34.4347 531.972 34.9489C531.972 35.4631 531.866 35.919 531.656 36.3168C531.446 36.7145 531.124 37.027 530.689 37.2543C530.254 37.4787 529.699 37.5909 529.023 37.5909H526.636V36.6364H528.989C529.455 36.6364 529.83 36.5682 530.114 36.4318C530.401 36.2955 530.608 36.1023 530.736 35.8523C530.866 35.5994 530.932 35.2983 530.932 34.9489C530.932 34.5994 530.866 34.294 530.736 34.0327C530.605 33.7713 530.396 33.5696 530.109 33.4276C529.822 33.2827 529.443 33.2102 528.972 33.2102H527.114V41H526.057ZM530.165 37.0795L532.312 41H531.085L528.972 37.0795H530.165ZM535.522 41.1534C535.108 41.1534 534.731 41.0753 534.393 40.919C534.055 40.7599 533.787 40.5312 533.588 40.233C533.389 39.9318 533.289 39.5682 533.289 39.142C533.289 38.767 533.363 38.4631 533.511 38.2301C533.659 37.9943 533.856 37.8097 534.103 37.6761C534.35 37.5426 534.623 37.4432 534.922 37.3778C535.223 37.3097 535.525 37.2557 535.829 37.2159C536.227 37.1648 536.549 37.1264 536.797 37.1009C537.047 37.0724 537.228 37.0256 537.342 36.9602C537.458 36.8949 537.517 36.7812 537.517 36.6193V36.5852C537.517 36.1648 537.402 35.8381 537.172 35.6051C536.944 35.3722 536.599 35.2557 536.136 35.2557C535.656 35.2557 535.279 35.3608 535.007 35.571C534.734 35.7812 534.542 36.0057 534.431 36.2443L533.477 35.9034C533.647 35.5057 533.875 35.196 534.159 34.9744C534.446 34.75 534.758 34.5937 535.096 34.5057C535.437 34.4148 535.772 34.3693 536.102 34.3693C536.312 34.3693 536.554 34.3949 536.826 34.446C537.102 34.4943 537.368 34.5952 537.623 34.7486C537.882 34.902 538.096 35.1335 538.267 35.4432C538.437 35.7528 538.522 36.1676 538.522 36.6875V41H537.517V40.1136H537.466C537.397 40.2557 537.284 40.4077 537.125 40.5696C536.966 40.7315 536.754 40.8693 536.49 40.983C536.225 41.0966 535.903 41.1534 535.522 41.1534ZM535.676 40.25C536.074 40.25 536.409 40.1719 536.681 40.0156C536.957 39.8594 537.164 39.6577 537.304 39.4105C537.446 39.1634 537.517 38.9034 537.517 38.6307V37.7102C537.474 37.7614 537.38 37.8082 537.235 37.8509C537.093 37.8906 536.929 37.9261 536.741 37.9574C536.556 37.9858 536.376 38.0114 536.2 38.0341C536.027 38.054 535.886 38.071 535.778 38.0852C535.517 38.1193 535.272 38.1747 535.045 38.2514C534.821 38.3253 534.639 38.4375 534.5 38.5881C534.363 38.7358 534.295 38.9375 534.295 39.1932C534.295 39.5426 534.424 39.8068 534.683 39.9858C534.944 40.1619 535.275 40.25 535.676 40.25ZM541.364 32.2727V41H540.358V32.2727H541.364ZM545.95 41.1364C545.319 41.1364 544.775 40.9972 544.318 40.7188C543.863 40.4375 543.512 40.0455 543.265 39.5426C543.021 39.0369 542.899 38.4489 542.899 37.7784C542.899 37.108 543.021 36.517 543.265 36.0057C543.512 35.4915 543.856 35.0909 544.297 34.804C544.74 34.5142 545.257 34.3693 545.848 34.3693C546.189 34.3693 546.525 34.4261 546.858 34.5398C547.19 34.6534 547.493 34.8381 547.765 35.0938C548.038 35.3466 548.255 35.6818 548.417 36.0994C548.579 36.517 548.66 37.0312 548.66 37.642V38.0682H543.615V37.1989H547.637C547.637 36.8295 547.564 36.5 547.416 36.2102C547.271 35.9205 547.064 35.6918 546.794 35.5241C546.527 35.3565 546.211 35.2727 545.848 35.2727C545.447 35.2727 545.1 35.3722 544.808 35.571C544.518 35.767 544.295 36.0227 544.139 36.3381C543.983 36.6534 543.904 36.9915 543.904 37.3523V37.9318C543.904 38.4261 543.99 38.8452 544.16 39.1889C544.333 39.5298 544.574 39.7898 544.88 39.9688C545.187 40.1449 545.544 40.233 545.95 40.233C546.214 40.233 546.453 40.196 546.666 40.1222C546.882 40.0455 547.068 39.9318 547.224 39.7812C547.38 39.6278 547.501 39.4375 547.586 39.2102L548.558 39.483C548.456 39.8125 548.284 40.1023 548.042 40.3523C547.801 40.5994 547.502 40.7926 547.147 40.9318C546.792 41.0682 546.393 41.1364 545.95 41.1364ZM551.673 41L549.679 34.4545H550.735L552.15 39.4659H552.218L553.616 34.4545H554.69L556.071 39.4489H556.139L557.554 34.4545H558.61L556.616 41H555.627L554.196 35.9716H554.093L552.662 41H551.673ZM561.866 41.1534C561.451 41.1534 561.075 41.0753 560.737 40.919C560.399 40.7599 560.13 40.5312 559.931 40.233C559.733 39.9318 559.633 39.5682 559.633 39.142C559.633 38.767 559.707 38.4631 559.855 38.2301C560.002 37.9943 560.2 37.8097 560.447 37.6761C560.694 37.5426 560.967 37.4432 561.265 37.3778C561.566 37.3097 561.869 37.2557 562.173 37.2159C562.571 37.1648 562.893 37.1264 563.14 37.1009C563.39 37.0724 563.572 37.0256 563.686 36.9602C563.802 36.8949 563.86 36.7812 563.86 36.6193V36.5852C563.86 36.1648 563.745 35.8381 563.515 35.6051C563.288 35.3722 562.943 35.2557 562.48 35.2557C562 35.2557 561.623 35.3608 561.35 35.571C561.078 35.7812 560.886 36.0057 560.775 36.2443L559.821 35.9034C559.991 35.5057 560.218 35.196 560.502 34.9744C560.789 34.75 561.102 34.5937 561.44 34.5057C561.781 34.4148 562.116 34.3693 562.446 34.3693C562.656 34.3693 562.897 34.3949 563.17 34.446C563.446 34.4943 563.711 34.5952 563.967 34.7486C564.225 34.902 564.44 35.1335 564.61 35.4432C564.781 35.7528 564.866 36.1676 564.866 36.6875V41H563.86V40.1136H563.809C563.741 40.2557 563.627 40.4077 563.468 40.5696C563.309 40.7315 563.098 40.8693 562.833 40.983C562.569 41.0966 562.247 41.1534 561.866 41.1534ZM562.02 40.25C562.417 40.25 562.752 40.1719 563.025 40.0156C563.301 39.8594 563.508 39.6577 563.647 39.4105C563.789 39.1634 563.86 38.9034 563.86 38.6307V37.7102C563.818 37.7614 563.724 37.8082 563.579 37.8509C563.437 37.8906 563.272 37.9261 563.085 37.9574C562.9 37.9858 562.72 38.0114 562.544 38.0341C562.37 38.054 562.23 38.071 562.122 38.0852C561.86 38.1193 561.616 38.1747 561.389 38.2514C561.164 38.3253 560.983 38.4375 560.843 38.5881C560.707 38.7358 560.639 38.9375 560.639 39.1932C560.639 39.5426 560.768 39.8068 561.027 39.9858C561.288 40.1619 561.619 40.25 562.02 40.25ZM567.115 43.4545C566.945 43.4545 566.793 43.4403 566.659 43.4119C566.526 43.3864 566.433 43.3608 566.382 43.3352L566.638 42.4489C566.882 42.5114 567.098 42.5341 567.286 42.517C567.473 42.5 567.639 42.4162 567.784 42.2656C567.932 42.1179 568.067 41.8778 568.189 41.5455L568.376 41.0341L565.956 34.4545H567.047L568.854 39.6705H568.922L570.729 34.4545H571.82L569.041 41.9545C568.916 42.2926 568.761 42.5724 568.577 42.794C568.392 43.0185 568.178 43.1847 567.933 43.2926C567.692 43.4006 567.419 43.4545 567.115 43.4545Z" fill="#596063"/>
<path d="M8.74405 19.3359C7.13872 19.3359 5.71072 18.9626 4.46005 18.2159C3.20939 17.4506 2.22939 16.3586 1.52005 14.9399C0.810721 13.5212 0.456055 11.8132 0.456055 9.8159C0.456055 7.83723 0.820055 6.13857 1.54805 4.7199C2.27605 3.30123 3.27472 2.20923 4.54405 1.4439C5.81339 0.678565 7.26005 0.295898 8.88406 0.295898C10.1534 0.295898 11.2174 0.538565 12.0761 1.0239C12.9534 1.49057 13.6534 2.0039 14.1761 2.5639L12.8881 4.0759C12.4214 3.59057 11.8801 3.1799 11.2641 2.8439C10.6481 2.5079 9.87339 2.3399 8.94005 2.3399C7.70805 2.3399 6.63472 2.6479 5.72006 3.2639C4.80539 3.86123 4.09606 4.71057 3.59205 5.8119C3.10672 6.91323 2.86405 8.22923 2.86405 9.7599C2.86405 12.0746 3.38672 13.9132 4.43205 15.2759C5.49606 16.6199 7.00805 17.2919 8.96805 17.2919C9.62139 17.2919 10.2467 17.1986 10.8441 17.0119C11.4414 16.8066 11.9174 16.5359 12.2721 16.1999V11.4119H8.38005V9.4799H14.4001V17.2079C13.8214 17.8239 13.0374 18.3372 12.0481 18.7479C11.0774 19.1399 9.97606 19.3359 8.74405 19.3359Z" fill="#2E2F30"/>
<path d="M18.5773 18.9999V5.3919H20.4813L20.6773 7.8559H20.7613C21.228 6.99723 21.7973 6.3159 22.4693 5.8119C23.1413 5.3079 23.86 5.0559 24.6253 5.0559C25.1666 5.0559 25.652 5.14923 26.0813 5.3359L25.6333 7.3519C25.4093 7.27723 25.204 7.22123 25.0173 7.1839C24.8306 7.14657 24.5973 7.1279 24.3173 7.1279C23.7386 7.1279 23.132 7.36123 22.4973 7.8279C21.8813 8.29457 21.34 9.10657 20.8733 10.2639V18.9999H18.5773Z" fill="#2E2F30"/>
<path d="M33.3029 19.3359C32.2016 19.3359 31.1656 19.0559 30.1949 18.4959C29.2429 17.9359 28.4682 17.1239 27.8709 16.0599C27.2922 14.9959 27.0029 13.7172 27.0029 12.2239C27.0029 10.6932 27.2922 9.3959 27.8709 8.3319C28.4682 7.2679 29.2429 6.4559 30.1949 5.8959C31.1656 5.3359 32.2016 5.0559 33.3029 5.0559C34.4229 5.0559 35.4589 5.3359 36.4109 5.8959C37.3629 6.4559 38.1282 7.2679 38.7069 8.3319C39.3042 9.3959 39.6029 10.6932 39.6029 12.2239C39.6029 13.7172 39.3042 14.9959 38.7069 16.0599C38.1282 17.1239 37.3629 17.9359 36.4109 18.4959C35.4589 19.0559 34.4229 19.3359 33.3029 19.3359ZM33.3029 17.4319C34.4789 17.4319 35.4216 16.9559 36.1309 16.0039C36.8589 15.0332 37.2229 13.7732 37.2229 12.2239C37.2229 10.6559 36.8589 9.38657 36.1309 8.4159C35.4216 7.44523 34.4789 6.9599 33.3029 6.9599C32.1456 6.9599 31.2029 7.44523 30.4749 8.4159C29.7469 9.38657 29.3829 10.6559 29.3829 12.2239C29.3829 13.7732 29.7469 15.0332 30.4749 16.0039C31.2029 16.9559 32.1456 17.4319 33.3029 17.4319Z" fill="#2E2F30"/>
<path d="M47.0058 19.3359C45.5498 19.3359 44.5325 18.9159 43.9538 18.0759C43.3938 17.2359 43.1138 16.1439 43.1138 14.7999V7.2679H41.0978V5.5319L43.2258 5.3919L43.5058 1.5839H45.4378V5.3919H49.1058V7.2679H45.4378V14.8279C45.4378 15.6679 45.5872 16.3212 45.8858 16.7879C46.2032 17.2359 46.7538 17.4599 47.5378 17.4599C47.7805 17.4599 48.0418 17.4226 48.3218 17.3479C48.6018 17.2546 48.8538 17.1706 49.0778 17.0959L49.5258 18.8319C49.1525 18.9626 48.7418 19.0746 48.2938 19.1679C47.8645 19.2799 47.4352 19.3359 47.0058 19.3359Z" fill="#2E2F30"/>
<path d="M57.316 19.3359C56.1026 19.3359 55.0013 19.0559 54.012 18.4959C53.0226 17.9172 52.2386 17.0959 51.66 16.0319C51.0813 14.9679 50.792 13.6986 50.792 12.2239C50.792 10.7306 51.0813 9.4519 51.66 8.3879C52.2573 7.3239 53.0226 6.50257 53.956 5.9239C54.8893 5.34523 55.8693 5.0559 56.896 5.0559C58.632 5.0559 59.9666 5.63457 60.9 6.7919C61.852 7.94923 62.328 9.49857 62.328 11.4399C62.328 11.6826 62.3186 11.9252 62.3 12.1679C62.3 12.3919 62.2813 12.5879 62.244 12.7559H53.06C53.1533 14.1932 53.6013 15.3412 54.404 16.1999C55.2253 17.0586 56.2893 17.4879 57.596 17.4879C58.2493 17.4879 58.8466 17.3946 59.388 17.2079C59.948 17.0026 60.48 16.7412 60.984 16.4239L61.796 17.9359C61.2173 18.3092 60.5546 18.6359 59.808 18.9159C59.08 19.1959 58.2493 19.3359 57.316 19.3359ZM53.032 11.1039H60.312C60.312 9.72257 60.0133 8.67723 59.416 7.9679C58.8373 7.2399 58.016 6.8759 56.952 6.8759C56 6.8759 55.1413 7.24923 54.376 7.9959C53.6293 8.7239 53.1813 9.7599 53.032 11.1039Z" fill="#2E2F30"/>
<path d="M69.2466 19.3359C68.2759 19.3359 67.3519 19.1586 66.4746 18.8039C65.5973 18.4306 64.8319 17.9826 64.1786 17.4599L65.3266 15.9199C65.9239 16.3866 66.5399 16.7786 67.1746 17.0959C67.8093 17.3946 68.5279 17.5439 69.3306 17.5439C70.2266 17.5439 70.8986 17.3386 71.3466 16.9279C71.7946 16.4986 72.0186 15.9946 72.0186 15.4159C72.0186 14.9492 71.8599 14.5572 71.5426 14.2399C71.2439 13.9226 70.8519 13.6612 70.3666 13.4559C69.8999 13.2319 69.4146 13.0266 68.9106 12.8399C68.2759 12.5972 67.6506 12.3266 67.0346 12.0279C66.4186 11.7106 65.9146 11.3092 65.5226 10.8239C65.1306 10.3199 64.9346 9.68523 64.9346 8.9199C64.9346 7.81857 65.3453 6.9039 66.1666 6.1759C67.0066 5.42923 68.1639 5.0559 69.6386 5.0559C70.4786 5.0559 71.2626 5.20523 71.9906 5.5039C72.7186 5.80257 73.3439 6.16657 73.8666 6.5959L72.7466 8.0519C72.2799 7.69723 71.7946 7.4079 71.2906 7.1839C70.7866 6.9599 70.2359 6.8479 69.6386 6.8479C68.7799 6.8479 68.1453 7.0439 67.7346 7.4359C67.3426 7.8279 67.1466 8.28523 67.1466 8.8079C67.1466 9.23723 67.2866 9.5919 67.5666 9.8719C67.8466 10.1332 68.2106 10.3666 68.6586 10.5719C69.1066 10.7586 69.5826 10.9546 70.0866 11.1599C70.7399 11.4026 71.3839 11.6826 72.0186 11.9999C72.6533 12.2986 73.1759 12.7092 73.5866 13.2319C74.0159 13.7359 74.2306 14.4172 74.2306 15.2759C74.2306 16.0039 74.0346 16.6759 73.6426 17.2919C73.2693 17.9079 72.7093 18.4026 71.9626 18.7759C71.2346 19.1492 70.3293 19.3359 69.2466 19.3359Z" fill="#2E2F30"/>
<path d="M86.0451 24.7399V19.8959L86.1571 17.4319C85.6157 17.9546 84.9904 18.4026 84.2811 18.7759C83.5904 19.1492 82.8531 19.3359 82.0691 19.3359C80.3704 19.3359 79.0077 18.7199 77.9811 17.4879C76.9544 16.2372 76.4411 14.4826 76.4411 12.2239C76.4411 10.7492 76.7117 9.4799 77.2531 8.4159C77.8131 7.33323 78.5411 6.50257 79.4371 5.9239C80.3517 5.34523 81.3224 5.0559 82.3491 5.0559C83.1331 5.0559 83.8237 5.1959 84.4211 5.4759C85.0184 5.73723 85.6251 6.13857 86.2411 6.6799H86.2971L86.5211 5.3919H88.3691V24.7399H86.0451ZM82.5731 17.4039C83.7677 17.4039 84.9251 16.7786 86.0451 15.5279V8.4159C85.4664 7.89323 84.9064 7.52923 84.3651 7.3239C83.8424 7.0999 83.3011 6.9879 82.7411 6.9879C82.0131 6.9879 81.3504 7.2119 80.7531 7.6599C80.1744 8.08923 79.7077 8.6959 79.3531 9.4799C78.9984 10.2452 78.8211 11.1506 78.8211 12.1959C78.8211 13.8199 79.1477 15.0986 79.8011 16.0319C80.4544 16.9466 81.3784 17.4039 82.5731 17.4039Z" fill="#2E2F30"/>
<path d="M96.9283 19.3359C95.491 19.3359 94.4363 18.8879 93.7643 17.9919C93.0923 17.0772 92.7563 15.7519 92.7563 14.0159V5.3919H95.0803V13.7079C95.0803 14.9772 95.2763 15.9012 95.6683 16.4799C96.079 17.0586 96.7323 17.3479 97.6283 17.3479C98.3376 17.3479 98.963 17.1706 99.5043 16.8159C100.064 16.4426 100.662 15.8546 101.296 15.0519V5.3919H103.592V18.9999H101.688L101.492 16.8719H101.408C100.774 17.6186 100.102 18.2159 99.3923 18.6639C98.683 19.1119 97.8616 19.3359 96.9283 19.3359Z" fill="#2E2F30"/>
<path d="M113.699 19.3359C112.485 19.3359 111.384 19.0559 110.395 18.4959C109.405 17.9172 108.621 17.0959 108.043 16.0319C107.464 14.9679 107.175 13.6986 107.175 12.2239C107.175 10.7306 107.464 9.4519 108.043 8.3879C108.64 7.3239 109.405 6.50257 110.339 5.9239C111.272 5.34523 112.252 5.0559 113.279 5.0559C115.015 5.0559 116.349 5.63457 117.283 6.7919C118.235 7.94923 118.711 9.49857 118.711 11.4399C118.711 11.6826 118.701 11.9252 118.683 12.1679C118.683 12.3919 118.664 12.5879 118.627 12.7559H109.443C109.536 14.1932 109.984 15.3412 110.787 16.1999C111.608 17.0586 112.672 17.4879 113.979 17.4879C114.632 17.4879 115.229 17.3946 115.771 17.2079C116.331 17.0026 116.863 16.7412 117.367 16.4239L118.179 17.9359C117.6 18.3092 116.937 18.6359 116.191 18.9159C115.463 19.1959 114.632 19.3359 113.699 19.3359ZM109.415 11.1039H116.695C116.695 9.72257 116.396 8.67723 115.799 7.9679C115.22 7.2399 114.399 6.8759 113.335 6.8759C112.383 6.8759 111.524 7.24923 110.759 7.9959C110.012 8.7239 109.564 9.7599 109.415 11.1039Z" fill="#2E2F30"/>
<path d="M138.133 20.9999V0.956931H140.854L151.381 16.6933V0.956931H153.924V20.9999H151.203L140.676 5.2499V20.9999H138.133Z" fill="#2E2F30"/>
<path d="M168.02 16.3241L170.563 16.6386C170.162 18.1242 169.419 19.2772 168.334 20.0976C167.249 20.9179 165.864 21.328 164.178 21.328C162.054 21.328 160.368 20.6763 159.119 19.3729C157.88 18.0604 157.26 16.2239 157.26 13.8632C157.26 11.4205 157.889 9.52464 159.147 8.17568C160.404 6.82672 162.036 6.15224 164.041 6.15224C165.982 6.15224 167.568 6.81305 168.799 8.13467C170.029 9.45628 170.645 11.3157 170.645 13.7128C170.645 13.8586 170.64 14.0774 170.631 14.369H159.803C159.894 15.9641 160.345 17.1854 161.156 18.0331C161.968 18.8808 162.979 19.3046 164.191 19.3046C165.094 19.3046 165.864 19.0676 166.502 18.5936C167.14 18.1197 167.646 17.3632 168.02 16.3241ZM159.94 12.3456H168.047C167.938 11.1242 167.628 10.2082 167.117 9.59756C166.333 8.64964 165.317 8.17568 164.068 8.17568C162.938 8.17568 161.986 8.55394 161.211 9.31045C160.445 10.067 160.022 11.0787 159.94 12.3456Z" fill="#2E2F30"/>
<path d="M172.75 13.7401C172.75 11.0513 173.497 9.0598 174.992 7.76552C176.241 6.69 177.763 6.15224 179.559 6.15224C181.555 6.15224 183.186 6.80849 184.453 8.12099C185.72 9.42438 186.354 11.2291 186.354 13.5351C186.354 15.4035 186.071 16.8755 185.506 17.9511C184.95 19.0175 184.134 19.8469 183.059 20.4394C181.992 21.0318 180.826 21.328 179.559 21.328C177.526 21.328 175.881 20.6763 174.623 19.3729C173.374 18.0696 172.75 16.192 172.75 13.7401ZM175.279 13.7401C175.279 15.5995 175.685 16.994 176.496 17.9237C177.307 18.8443 178.328 19.3046 179.559 19.3046C180.78 19.3046 181.796 18.8397 182.607 17.9101C183.419 16.9804 183.824 15.5631 183.824 13.6581C183.824 11.8625 183.414 10.5045 182.594 9.58388C181.783 8.6542 180.771 8.18935 179.559 8.18935C178.328 8.18935 177.307 8.64964 176.496 9.57021C175.685 10.4908 175.279 11.8808 175.279 13.7401Z" fill="#2E2F30"/>
<path d="M188.295 14.9843V12.5097H195.856V14.9843H188.295Z" fill="#2E2F30"/>
<path d="M208.27 13.1386V10.787L216.76 10.7733V18.2108C215.456 19.2499 214.112 20.0338 212.727 20.5624C211.341 21.0819 209.919 21.3417 208.461 21.3417C206.492 21.3417 204.701 20.9224 203.088 20.0839C201.484 19.2362 200.272 18.0149 199.451 16.4198C198.631 14.8248 198.221 13.0429 198.221 11.0741C198.221 9.1236 198.626 7.30524 199.438 5.61904C200.258 3.92373 201.434 2.66592 202.965 1.8456C204.496 1.02529 206.26 0.615134 208.256 0.615134C209.705 0.615134 211.013 0.852113 212.18 1.32607C213.356 1.79092 214.276 2.44261 214.941 3.28115C215.607 4.11969 216.113 5.21344 216.459 6.5624L214.066 7.21865C213.766 6.19782 213.392 5.39573 212.945 4.8124C212.499 4.22907 211.861 3.76422 211.031 3.41787C210.202 3.0624 209.281 2.88467 208.27 2.88467C207.057 2.88467 206.009 3.07151 205.125 3.44521C204.241 3.8098 203.525 4.29287 202.979 4.89443C202.441 5.49599 202.022 6.1568 201.721 6.87685C201.21 8.11644 200.955 9.46084 200.955 10.9101C200.955 12.6965 201.26 14.1913 201.871 15.3944C202.491 16.5976 203.389 17.4908 204.565 18.0741C205.74 18.6575 206.989 18.9491 208.311 18.9491C209.459 18.9491 210.58 18.7304 211.674 18.2929C212.768 17.8463 213.597 17.3723 214.162 16.871V13.1386H208.27Z" fill="#2E2F30"/>
<path d="M220.342 20.9999V6.48037H222.557V8.68154C223.122 7.65159 223.641 6.97256 224.115 6.64443C224.598 6.31631 225.127 6.15224 225.701 6.15224C226.531 6.15224 227.374 6.41657 228.231 6.94521L227.383 9.22842C226.781 8.87295 226.18 8.69521 225.578 8.69521C225.04 8.69521 224.557 8.85927 224.129 9.1874C223.701 9.50641 223.395 9.95302 223.213 10.5272C222.94 11.4022 222.803 12.3593 222.803 13.3983V20.9999H220.342Z" fill="#2E2F30"/>
<path d="M228.777 13.7401C228.777 11.0513 229.525 9.0598 231.02 7.76552C232.268 6.69 233.79 6.15224 235.586 6.15224C237.582 6.15224 239.214 6.80849 240.481 8.12099C241.747 9.42438 242.381 11.2291 242.381 13.5351C242.381 15.4035 242.098 16.8755 241.533 17.9511C240.977 19.0175 240.162 19.8469 239.086 20.4394C238.02 21.0318 236.853 21.328 235.586 21.328C233.553 21.328 231.908 20.6763 230.65 19.3729C229.402 18.0696 228.777 16.192 228.777 13.7401ZM231.307 13.7401C231.307 15.5995 231.712 16.994 232.523 17.9237C233.335 18.8443 234.356 19.3046 235.586 19.3046C236.807 19.3046 237.824 18.8397 238.635 17.9101C239.446 16.9804 239.852 15.5631 239.852 13.6581C239.852 11.8625 239.441 10.5045 238.621 9.58388C237.81 8.6542 236.798 8.18935 235.586 8.18935C234.356 8.18935 233.335 8.64964 232.523 9.57021C231.712 10.4908 231.307 11.8808 231.307 13.7401Z" fill="#2E2F30"/>
<path d="M250.652 18.7987L251.008 20.9726C250.315 21.1184 249.695 21.1913 249.148 21.1913C248.255 21.1913 247.563 21.05 247.07 20.7675C246.578 20.4849 246.232 20.1158 246.031 19.6601C245.831 19.1952 245.731 18.2245 245.731 16.7479V8.39443H243.926V6.48037H245.731V2.88467L248.178 1.4081V6.48037H250.652V8.39443H248.178V16.8847C248.178 17.5865 248.219 18.0377 248.301 18.2382C248.392 18.4387 248.533 18.5982 248.725 18.7167C248.925 18.8352 249.208 18.8944 249.572 18.8944C249.846 18.8944 250.206 18.8625 250.652 18.7987Z" fill="#2E2F30"/>
<path d="M263.012 16.3241L265.555 16.6386C265.154 18.1242 264.411 19.2772 263.326 20.0976C262.242 20.9179 260.856 21.328 259.17 21.328C257.046 21.328 255.36 20.6763 254.111 19.3729C252.872 18.0604 252.252 16.2239 252.252 13.8632C252.252 11.4205 252.881 9.52464 254.139 8.17568C255.397 6.82672 257.028 6.15224 259.033 6.15224C260.975 6.15224 262.561 6.81305 263.791 8.13467C265.022 9.45628 265.637 11.3157 265.637 13.7128C265.637 13.8586 265.632 14.0774 265.623 14.369H254.795C254.886 15.9641 255.337 17.1854 256.148 18.0331C256.96 18.8808 257.971 19.3046 259.184 19.3046C260.086 19.3046 260.856 19.0676 261.494 18.5936C262.132 18.1197 262.638 17.3632 263.012 16.3241ZM254.932 12.3456H263.039C262.93 11.1242 262.62 10.2082 262.109 9.59756C261.326 8.64964 260.309 8.17568 259.061 8.17568C257.93 8.17568 256.978 8.55394 256.203 9.31045C255.438 10.067 255.014 11.0787 254.932 12.3456Z" fill="#2E2F30"/>
<path d="M267.674 16.6659L270.107 16.2831C270.244 17.2584 270.622 18.0058 271.242 18.5253C271.871 19.0448 272.746 19.3046 273.867 19.3046C274.997 19.3046 275.836 19.0767 276.383 18.621C276.93 18.1561 277.203 17.6138 277.203 16.994C277.203 16.438 276.962 16.0006 276.479 15.6815C276.141 15.4628 275.303 15.1848 273.963 14.8476C272.158 14.3918 270.905 13.9999 270.203 13.6718C269.51 13.3345 268.982 12.8742 268.617 12.2909C268.262 11.6985 268.084 11.0468 268.084 10.3358C268.084 9.6887 268.23 9.0917 268.522 8.54482C268.822 7.98883 269.228 7.52855 269.738 7.16396C270.121 6.88141 270.641 6.64443 271.297 6.45302C271.962 6.2525 272.673 6.15224 273.43 6.15224C274.569 6.15224 275.567 6.31631 276.424 6.64443C277.29 6.97256 277.928 7.41917 278.338 7.98427C278.748 8.54026 279.031 9.28766 279.186 10.2265L276.779 10.5546C276.67 9.80719 276.351 9.22386 275.822 8.80459C275.303 8.38532 274.565 8.17568 273.607 8.17568C272.477 8.17568 271.671 8.36253 271.188 8.73623C270.704 9.10993 270.463 9.54743 270.463 10.0487C270.463 10.3677 270.563 10.6548 270.764 10.9101C270.964 11.1744 271.279 11.3931 271.707 11.5663C271.953 11.6575 272.678 11.8671 273.881 12.1952C275.622 12.6601 276.834 13.0429 277.518 13.3436C278.21 13.6353 278.753 14.0637 279.145 14.6288C279.537 15.1939 279.732 15.8957 279.732 16.7343C279.732 17.5546 279.491 18.3293 279.008 19.0585C278.534 19.7785 277.846 20.3391 276.943 20.7401C276.041 21.1321 275.02 21.328 273.881 21.328C271.994 21.328 270.554 20.9361 269.561 20.1522C268.576 19.3684 267.947 18.2063 267.674 16.6659Z" fill="#2E2F30"/>
<path d="M291.914 26.5644V19.455C291.531 19.9927 290.994 20.4394 290.301 20.7948C289.617 21.1503 288.888 21.328 288.113 21.328C286.391 21.328 284.905 20.6399 283.656 19.2636C282.417 17.8873 281.797 16.0006 281.797 13.6034C281.797 12.1451 282.048 10.8371 282.549 9.67959C283.059 8.52204 283.793 7.64704 284.75 7.05459C285.716 6.45302 286.773 6.15224 287.922 6.15224C289.718 6.15224 291.13 6.90875 292.16 8.42177V6.48037H294.375V26.5644H291.914ZM284.326 13.6991C284.326 15.5676 284.718 16.9713 285.502 17.9101C286.286 18.8397 287.225 19.3046 288.318 19.3046C289.367 19.3046 290.269 18.8625 291.025 17.9784C291.782 17.0852 292.16 15.7317 292.16 13.9179C292.16 11.9856 291.759 10.5318 290.957 9.55654C290.164 8.58128 289.23 8.09365 288.154 8.09365C287.088 8.09365 286.181 8.54938 285.434 9.46084C284.695 10.3632 284.326 11.7759 284.326 13.6991Z" fill="#2E2F30"/>
<path d="M307.76 20.9999V18.8671C306.63 20.5077 305.094 21.328 303.152 21.328C302.296 21.328 301.494 21.164 300.746 20.8358C300.008 20.5077 299.456 20.0976 299.092 19.6054C298.736 19.1041 298.486 18.4934 298.34 17.7733C298.24 17.2903 298.19 16.5246 298.19 15.4765V6.48037H300.65V14.5331C300.65 15.8183 300.701 16.6841 300.801 17.1308C300.956 17.7779 301.284 18.2883 301.785 18.662C302.287 19.0266 302.906 19.2089 303.645 19.2089C304.383 19.2089 305.076 19.022 305.723 18.6483C306.37 18.2655 306.826 17.7505 307.09 17.1034C307.363 16.4472 307.5 15.4992 307.5 14.2597V6.48037H309.961V20.9999H307.76Z" fill="#2E2F30"/>
<path d="M323.77 16.3241L326.313 16.6386C325.912 18.1242 325.169 19.2772 324.084 20.0976C322.999 20.9179 321.614 21.328 319.928 21.328C317.804 21.328 316.118 20.6763 314.869 19.3729C313.63 18.0604 313.01 16.2239 313.01 13.8632C313.01 11.4205 313.639 9.52464 314.897 8.17568C316.154 6.82672 317.786 6.15224 319.791 6.15224C321.732 6.15224 323.318 6.81305 324.549 8.13467C325.779 9.45628 326.395 11.3157 326.395 13.7128C326.395 13.8586 326.39 14.0774 326.381 14.369H315.553C315.644 15.9641 316.095 17.1854 316.906 18.0331C317.718 18.8808 318.729 19.3046 319.941 19.3046C320.844 19.3046 321.614 19.0676 322.252 18.5936C322.89 18.1197 323.396 17.3632 323.77 16.3241ZM315.69 12.3456H323.797C323.688 11.1242 323.378 10.2082 322.867 9.59756C322.083 8.64964 321.067 8.17568 319.818 8.17568C318.688 8.17568 317.736 8.55394 316.961 9.31045C316.195 10.067 315.772 11.0787 315.69 12.3456Z" fill="#2E2F30"/>
<path d="M359.572 1.90029H362.307V20.9999H359.572V12.6874H348.84V20.9999H346.106V1.90029H348.84V10.1581H359.572V1.90029Z" fill="#2E2F30"/>
<path d="M374.201 20.9999V19.4003C373.673 19.9745 373.066 20.4211 372.383 20.7401C371.708 21.0591 371.034 21.2186 370.359 21.2186C369.566 21.2186 368.833 21.0227 368.158 20.6308C367.493 20.2297 366.987 19.692 366.641 19.0175C366.303 18.3339 366.135 17.2037 366.135 15.6269V8.42177H368.623V15.5995C368.623 16.9211 368.81 17.8463 369.184 18.3749C369.566 18.8944 370.232 19.1542 371.18 19.1542C372.365 19.1542 373.372 18.5754 374.201 17.4179V8.42177H376.69V20.9999H374.201Z" fill="#2E2F30"/>
<path d="M390.498 11.8671V20.9999H387.996V13.9999C387.996 12.6054 387.809 11.6347 387.436 11.0878C387.062 10.5318 386.41 10.2538 385.481 10.2538C384.961 10.2538 384.482 10.3723 384.045 10.6093C383.617 10.8463 383.124 11.2655 382.568 11.8671V20.9999H380.08V8.42177H382.568V10.0761C383.835 8.80914 385.075 8.17568 386.287 8.17568C387.882 8.17568 389.117 8.93219 389.992 10.4452C391.323 8.91396 392.713 8.14834 394.162 8.14834C395.384 8.14834 396.386 8.59495 397.17 9.48818C397.963 10.3814 398.359 11.744 398.359 13.5761V20.9999H395.871V13.5487C395.871 12.5006 395.657 11.6985 395.229 11.1425C394.8 10.5865 394.185 10.3085 393.383 10.3085C392.353 10.3085 391.391 10.828 390.498 11.8671Z" fill="#2E2F30"/>
<path d="M409.693 13.4394V18.7851C409.693 19.2134 409.839 19.4276 410.131 19.4276C410.432 19.4276 410.901 19.2043 411.539 18.7577V20.2753C410.974 20.6399 410.518 20.886 410.172 21.0136C409.835 21.1503 409.479 21.2186 409.106 21.2186C408.039 21.2186 407.41 20.7994 407.219 19.9608C406.162 20.7811 405.036 21.1913 403.842 21.1913C402.967 21.1913 402.238 20.9042 401.654 20.33C401.071 19.7466 400.779 19.0175 400.779 18.1425C400.779 17.3495 401.062 16.6431 401.627 16.0233C402.201 15.3944 403.012 14.8977 404.061 14.5331L407.246 13.4394V12.7694C407.246 11.2564 406.49 10.4999 404.977 10.4999C403.619 10.4999 402.297 11.2017 401.012 12.6054V9.88467C401.978 8.74534 403.368 8.17568 405.182 8.17568C406.54 8.17568 407.629 8.53115 408.449 9.24209C408.723 9.46995 408.969 9.77529 409.188 10.1581C409.406 10.5318 409.543 10.9101 409.598 11.2929C409.662 11.6666 409.693 12.3821 409.693 13.4394ZM407.246 18.5116V14.7792L405.578 15.4218C404.731 15.759 404.129 16.1008 403.773 16.4472C403.427 16.7844 403.254 17.2082 403.254 17.7186C403.254 18.2382 403.418 18.662 403.746 18.9901C404.083 19.3183 404.516 19.4823 405.045 19.4823C405.838 19.4823 406.572 19.1588 407.246 18.5116Z" fill="#2E2F30"/>
<path d="M416.229 8.42177V10.0214C417.341 8.79092 418.603 8.17568 420.016 8.17568C420.8 8.17568 421.529 8.38076 422.203 8.79092C422.878 9.19196 423.388 9.74795 423.734 10.4589C424.09 11.1607 424.268 12.2772 424.268 13.8085V20.9999H421.779V13.8358C421.779 12.5507 421.583 11.6347 421.191 11.0878C420.8 10.5318 420.143 10.2538 419.223 10.2538C418.047 10.2538 417.049 10.8417 416.229 12.0175V20.9999H413.686V8.42177H416.229Z" fill="#2E2F30"/>
<path d="M429.025 3.13076C429.436 3.13076 429.787 3.27204 430.078 3.55459C430.37 3.83714 430.516 4.18349 430.516 4.59365C430.516 4.99469 430.37 5.34105 430.078 5.63271C429.787 5.92438 429.436 6.07021 429.025 6.07021C428.643 6.07021 428.305 5.92438 428.014 5.63271C427.722 5.33193 427.576 4.98558 427.576 4.59365C427.576 4.21084 427.722 3.8736 428.014 3.58193C428.305 3.28115 428.643 3.13076 429.025 3.13076ZM427.795 8.42177H430.283V20.9999H427.795V8.42177Z" fill="#2E2F30"/>
<path d="M433.277 20.0976V17.4179C433.979 17.9101 434.695 18.3111 435.424 18.621C436.162 18.9218 436.782 19.0722 437.283 19.0722C437.803 19.0722 438.249 18.9446 438.623 18.6894C438.997 18.4341 439.184 18.1288 439.184 17.7733C439.184 17.4088 439.061 17.108 438.815 16.871C438.578 16.6249 438.058 16.274 437.256 15.8183C435.652 14.925 434.599 14.164 434.098 13.5351C433.606 12.897 433.359 12.2043 433.359 11.4569C433.359 10.4908 433.733 9.70237 434.481 9.0917C435.237 8.48102 436.208 8.17568 437.393 8.17568C438.623 8.17568 439.885 8.52204 441.18 9.21474V11.6757C439.703 10.7825 438.496 10.3358 437.557 10.3358C437.074 10.3358 436.682 10.4407 436.381 10.6503C436.089 10.8508 435.943 11.1197 435.943 11.4569C435.943 11.7486 436.076 12.0266 436.34 12.2909C436.613 12.5552 437.087 12.8742 437.762 13.2479L438.65 13.7538C440.747 14.9387 441.795 16.2512 441.795 17.6913C441.795 18.7213 441.389 19.5689 440.578 20.2343C439.776 20.8905 438.742 21.2186 437.475 21.2186C436.727 21.2186 436.062 21.1412 435.479 20.9862C434.895 20.8222 434.162 20.5259 433.277 20.0976Z" fill="#2E2F30"/>
<path d="M442.902 10.4179L447.578 5.82412V8.42177H451.557V10.664H447.578V16.83C447.578 18.2701 448.175 18.9901 449.369 18.9901C450.262 18.9901 451.206 18.6894 452.199 18.0878V20.412C451.242 20.9498 450.199 21.2186 449.068 21.2186C447.929 21.2186 446.981 20.886 446.225 20.2206C445.988 20.0201 445.792 19.7968 445.637 19.5507C445.482 19.2955 445.35 18.9673 445.24 18.5663C445.14 18.1561 445.09 17.3814 445.09 16.2421V10.664H442.902V10.4179Z" fill="#2E2F30"/>
<path d="M479.472 21.1399C478.147 21.1399 476.915 20.8599 475.776 20.2999C474.637 19.7212 473.648 18.9466 472.808 17.9759C471.968 17.0052 471.315 15.9226 470.848 14.7279C470.4 13.5332 470.176 12.3012 470.176 11.0319C470.176 9.6879 470.4 8.41857 470.848 7.2239C471.315 6.01057 471.959 4.93723 472.78 4.0039C473.601 3.07057 474.572 2.33323 475.692 1.7919C476.812 1.25057 478.035 0.979899 479.36 0.979899C481.32 0.979899 482.916 1.38123 484.148 2.1839C485.38 2.98657 486.313 4.0319 486.948 5.3199L485.436 6.3279C484.801 5.0959 483.952 4.19057 482.888 3.6119C481.824 3.03323 480.639 2.7439 479.332 2.7439C478.231 2.7439 477.232 2.97723 476.336 3.4439C475.459 3.91056 474.703 4.5359 474.068 5.3199C473.433 6.1039 472.948 6.99057 472.612 7.9799C472.295 8.96923 472.136 9.9959 472.136 11.0599C472.136 12.1799 472.323 13.2439 472.696 14.2519C473.069 15.2412 473.601 16.1279 474.292 16.9119C474.983 17.6772 475.776 18.2839 476.672 18.7319C477.587 19.1612 478.567 19.3759 479.612 19.3759C480.825 19.3759 481.973 19.0772 483.056 18.4799C484.139 17.8639 485.175 16.9212 486.164 15.6519V17.7239C484.279 20.0012 482.048 21.1399 479.472 21.1399ZM485.856 12.7399H481.432V11.2279H487.508V20.9999H485.856V12.7399Z" fill="#2E2F30"/>
<path d="M497.443 21.2799C496.398 21.2799 495.427 21.0839 494.531 20.6919C493.635 20.2812 492.86 19.7306 492.207 19.0399C491.554 18.3306 491.04 17.5186 490.667 16.6039C490.312 15.6892 490.135 14.7092 490.135 13.6639C490.135 12.3012 490.443 11.0506 491.059 9.9119C491.694 8.77323 492.562 7.8679 493.663 7.1959C494.764 6.50523 496.015 6.1599 497.415 6.1599C498.852 6.1599 500.103 6.50523 501.167 7.1959C502.25 7.88657 503.099 8.80123 503.715 9.9399C504.331 11.0599 504.639 12.2919 504.639 13.6359C504.639 13.7852 504.639 13.9346 504.639 14.0839C504.639 14.2146 504.63 14.3172 504.611 14.3919H492.123C492.216 15.4372 492.506 16.3706 492.991 17.1919C493.495 17.9946 494.139 18.6386 494.923 19.1239C495.726 19.5906 496.594 19.8239 497.527 19.8239C498.479 19.8239 499.375 19.5812 500.215 19.0959C501.074 18.6106 501.671 17.9759 502.007 17.1919L503.659 17.6399C503.36 18.3306 502.903 18.9559 502.287 19.5159C501.671 20.0759 500.943 20.5146 500.103 20.8319C499.282 21.1306 498.395 21.2799 497.443 21.2799ZM492.067 13.0199H502.847C502.772 11.9559 502.483 11.0226 501.979 10.2199C501.494 9.41723 500.85 8.7919 500.047 8.3439C499.263 7.87723 498.395 7.6439 497.443 7.6439C496.491 7.6439 495.623 7.87723 494.839 8.3439C494.055 8.7919 493.411 9.42657 492.907 10.2479C492.422 11.0506 492.142 11.9746 492.067 13.0199Z" fill="#2E2F30"/>
<path d="M513.793 21.2799C512.747 21.2799 511.777 21.0839 510.881 20.6919C510.003 20.2812 509.238 19.7306 508.585 19.0399C507.95 18.3306 507.455 17.5279 507.101 16.6319C506.746 15.7172 506.569 14.7559 506.569 13.7479C506.569 12.7026 506.746 11.7319 507.101 10.8359C507.455 9.92123 507.959 9.11857 508.613 8.4279C509.266 7.71857 510.031 7.1679 510.909 6.7759C511.805 6.36523 512.775 6.1599 513.821 6.1599C514.866 6.1599 515.827 6.36523 516.705 6.7759C517.582 7.1679 518.347 7.71857 519.001 8.4279C519.654 9.11857 520.158 9.92123 520.513 10.8359C520.867 11.7319 521.045 12.7026 521.045 13.7479C521.045 14.7559 520.867 15.7172 520.513 16.6319C520.158 17.5279 519.654 18.3306 519.001 19.0399C518.366 19.7306 517.601 20.2812 516.705 20.6919C515.827 21.0839 514.857 21.2799 513.793 21.2799ZM508.501 13.7759C508.501 14.8586 508.734 15.8479 509.201 16.7439C509.686 17.6212 510.33 18.3212 511.133 18.8439C511.935 19.3479 512.822 19.5999 513.793 19.5999C514.763 19.5999 515.65 19.3386 516.453 18.8159C517.255 18.2932 517.899 17.5839 518.385 16.6879C518.87 15.7732 519.113 14.7839 519.113 13.7199C519.113 12.6372 518.87 11.6479 518.385 10.7519C517.899 9.8559 517.255 9.14657 516.453 8.6239C515.65 8.10123 514.763 7.8399 513.793 7.8399C512.822 7.8399 511.935 8.11057 511.133 8.6519C510.349 9.19323 509.714 9.9119 509.229 10.8079C508.743 11.6852 508.501 12.6746 508.501 13.7759Z" fill="#2E2F30"/>
<path d="M545.929 20.9999H544.025V12.8519C544.025 11.1532 543.754 9.90257 543.213 9.0999C542.672 8.29723 541.869 7.8959 540.805 7.8959C539.704 7.8959 538.714 8.2879 537.837 9.0719C536.978 9.8559 536.372 10.8639 536.017 12.0959V20.9999H534.113V12.8519C534.113 11.1346 533.852 9.8839 533.329 9.0999C532.806 8.29723 532.004 7.8959 530.921 7.8959C529.838 7.8959 528.858 8.27857 527.981 9.0439C527.104 9.80923 526.488 10.8172 526.133 12.0679V20.9999H524.229V6.4119H525.965V9.7159C526.581 8.57723 527.365 7.6999 528.317 7.0839C529.288 6.4679 530.361 6.1599 531.537 6.1599C532.75 6.1599 533.73 6.50523 534.477 7.1959C535.224 7.88657 535.681 8.7919 535.849 9.9119C536.521 8.6799 537.324 7.74657 538.257 7.1119C539.209 6.47723 540.282 6.1599 541.477 6.1599C542.298 6.1599 542.989 6.30923 543.549 6.6079C544.128 6.90657 544.585 7.3359 544.921 7.8959C545.276 8.43723 545.528 9.0999 545.677 9.8839C545.845 10.6492 545.929 11.5079 545.929 12.4599V20.9999Z" fill="#2E2F30"/>
<path d="M556.259 21.2799C555.214 21.2799 554.243 21.0839 553.347 20.6919C552.451 20.2812 551.677 19.7306 551.023 19.0399C550.37 18.3306 549.857 17.5186 549.483 16.6039C549.129 15.6892 548.951 14.7092 548.951 13.6639C548.951 12.3012 549.259 11.0506 549.875 9.9119C550.51 8.77323 551.378 7.8679 552.479 7.1959C553.581 6.50523 554.831 6.1599 556.231 6.1599C557.669 6.1599 558.919 6.50523 559.983 7.1959C561.066 7.88657 561.915 8.80123 562.531 9.9399C563.147 11.0599 563.455 12.2919 563.455 13.6359C563.455 13.7852 563.455 13.9346 563.455 14.0839C563.455 14.2146 563.446 14.3172 563.427 14.3919H550.939C551.033 15.4372 551.322 16.3706 551.807 17.1919C552.311 17.9946 552.955 18.6386 553.739 19.1239C554.542 19.5906 555.41 19.8239 556.343 19.8239C557.295 19.8239 558.191 19.5812 559.031 19.0959C559.89 18.6106 560.487 17.9759 560.823 17.1919L562.475 17.6399C562.177 18.3306 561.719 18.9559 561.103 19.5159C560.487 20.0759 559.759 20.5146 558.919 20.8319C558.098 21.1306 557.211 21.2799 556.259 21.2799ZM550.883 13.0199H561.663C561.589 11.9559 561.299 11.0226 560.795 10.2199C560.31 9.41723 559.666 8.7919 558.863 8.3439C558.079 7.87723 557.211 7.6439 556.259 7.6439C555.307 7.6439 554.439 7.87723 553.655 8.3439C552.871 8.7919 552.227 9.42657 551.723 10.2479C551.238 11.0506 550.958 11.9746 550.883 13.0199Z" fill="#2E2F30"/>
<path d="M573.256 20.2999C573.107 20.3559 572.874 20.4586 572.556 20.6079C572.239 20.7572 571.856 20.8879 571.408 20.9999C570.96 21.1119 570.475 21.1679 569.952 21.1679C569.411 21.1679 568.898 21.0652 568.412 20.8599C567.946 20.6546 567.572 20.3466 567.292 19.9359C567.012 19.5066 566.872 18.9839 566.872 18.3679V7.9239H564.856V6.4119H566.872V1.4839H568.776V6.4119H572.136V7.9239H568.776V17.8359C568.814 18.3586 569 18.7506 569.336 19.0119C569.691 19.2732 570.092 19.4039 570.54 19.4039C571.063 19.4039 571.539 19.3199 571.968 19.1519C572.398 18.9652 572.659 18.8346 572.752 18.7599L573.256 20.2999Z" fill="#2E2F30"/>
<path d="M582.915 8.0919C581.646 8.12923 580.526 8.4839 579.555 9.1559C578.603 9.8279 577.931 10.7519 577.539 11.9279V20.9999H575.635V6.4119H577.427V9.9119C577.931 8.88523 578.594 8.05457 579.415 7.4199C580.255 6.78523 581.142 6.43057 582.075 6.3559C582.262 6.33723 582.421 6.3279 582.551 6.3279C582.701 6.3279 582.822 6.33723 582.915 6.3559V8.0919Z" fill="#2E2F30"/>
<path d="M585.452 20.9999V6.4119H587.356V20.9999H585.452ZM585.452 3.3599V0.559899H587.356V3.3599H585.452Z" fill="#2E2F30"/>
<path d="M597.877 21.2799C596.813 21.2799 595.833 21.0839 594.937 20.6919C594.06 20.2812 593.285 19.7212 592.613 19.0119C591.96 18.3026 591.447 17.4906 591.073 16.5759C590.719 15.6612 590.541 14.6906 590.541 13.6639C590.541 12.2826 590.849 11.0226 591.465 9.8839C592.081 8.74523 592.94 7.8399 594.041 7.1679C595.143 6.4959 596.412 6.1599 597.849 6.1599C599.212 6.1599 600.416 6.47723 601.461 7.1119C602.507 7.7279 603.281 8.5679 603.785 9.6319L601.937 10.2199C601.527 9.47323 600.948 8.89457 600.201 8.4839C599.473 8.05457 598.661 7.8399 597.765 7.8399C596.795 7.8399 595.908 8.0919 595.105 8.5959C594.303 9.0999 593.659 9.79057 593.173 10.6679C592.707 11.5452 592.473 12.5439 592.473 13.6639C592.473 14.7652 592.716 15.7639 593.201 16.6599C593.687 17.5559 594.331 18.2746 595.133 18.8159C595.936 19.3386 596.823 19.5999 597.793 19.5999C598.428 19.5999 599.035 19.4879 599.613 19.2639C600.211 19.0399 600.724 18.7412 601.153 18.3679C601.601 17.9759 601.9 17.5559 602.049 17.1079L603.925 17.6679C603.664 18.3586 603.225 18.9839 602.609 19.5439C602.012 20.0852 601.303 20.5146 600.481 20.8319C599.679 21.1306 598.811 21.2799 597.877 21.2799Z" fill="#2E2F30"/>
<path d="M605.74 16.7999C605.74 15.8852 606.002 15.1012 606.524 14.4479C607.047 13.7759 607.766 13.2626 608.68 12.9079C609.614 12.5346 610.687 12.3479 611.9 12.3479C612.61 12.3479 613.347 12.4039 614.112 12.5159C614.878 12.6279 615.559 12.7959 616.156 13.0199V11.7879C616.156 10.5559 615.792 9.5759 615.064 8.8479C614.336 8.1199 613.328 7.7559 612.04 7.7559C611.256 7.7559 610.482 7.90523 609.716 8.2039C608.97 8.4839 608.186 8.9039 607.364 9.4639L606.636 8.1199C607.588 7.46657 608.522 6.98123 609.436 6.6639C610.351 6.3279 611.284 6.1599 612.236 6.1599C614.028 6.1599 615.447 6.67323 616.492 7.6999C617.538 8.72657 618.06 10.1452 618.06 11.9559V18.7039C618.06 18.9652 618.116 19.1612 618.228 19.2919C618.34 19.4039 618.518 19.4692 618.76 19.4879V20.9999C618.555 21.0186 618.378 21.0372 618.228 21.0559C618.079 21.0746 617.967 21.0746 617.892 21.0559C617.426 21.0372 617.071 20.8879 616.828 20.6079C616.586 20.3279 616.455 20.0292 616.436 19.7119L616.408 18.6479C615.755 19.4879 614.906 20.1412 613.86 20.6079C612.815 21.0559 611.751 21.2799 610.668 21.2799C609.735 21.2799 608.886 21.0839 608.12 20.6919C607.374 20.2812 606.786 19.7399 606.356 19.0679C605.946 18.3772 605.74 17.6212 605.74 16.7999ZM615.512 17.9199C615.718 17.6586 615.876 17.4066 615.988 17.1639C616.1 16.9212 616.156 16.7066 616.156 16.5199V14.3919C615.522 14.1492 614.859 13.9626 614.168 13.8319C613.496 13.7012 612.815 13.6359 612.124 13.6359C610.762 13.6359 609.66 13.9066 608.82 14.4479C607.98 14.9892 607.56 15.7266 607.56 16.6599C607.56 17.2012 607.7 17.7146 607.98 18.1999C608.26 18.6666 608.671 19.0586 609.212 19.3759C609.754 19.6746 610.388 19.8239 611.116 19.8239C612.031 19.8239 612.88 19.6466 613.664 19.2919C614.467 18.9372 615.083 18.4799 615.512 17.9199Z" fill="#2E2F30"/>
<path d="M622.258 0.559899H624.162V17.6959C624.162 18.4239 624.293 18.8999 624.554 19.1239C624.816 19.3479 625.133 19.4599 625.506 19.4599C625.842 19.4599 626.178 19.4226 626.514 19.3479C626.85 19.2732 627.14 19.1986 627.382 19.1239L627.718 20.6639C627.364 20.8132 626.925 20.9346 626.402 21.0279C625.898 21.1212 625.46 21.1679 625.086 21.1679C624.228 21.1679 623.537 20.9159 623.014 20.4119C622.51 19.9079 622.258 19.2172 622.258 18.3399V0.559899Z" fill="#2E2F30"/>
</svg>
