<svg width="502" height="46" viewBox="0 0 502 46" fill="none" xmlns="http://www.w3.org/2000/svg">
<path d="M34.2734 13.5664C34.2734 16.4648 33.2891 18.8802 31.3203 20.8125C29.3698 22.7266 27.0091 23.6836 24.2383 23.6836C22.8711 23.6836 21.5312 23.4193 20.2188 22.8906C18.9062 22.362 17.7487 21.6146 16.7461 20.6484C14.6133 18.5885 13.5286 16.082 13.4922 13.1289C13.4922 10.3034 14.5039 7.88802 16.5273 5.88281C18.569 3.85938 21.0026 2.84766 23.8281 2.84766C26.7812 2.84766 29.2604 3.90495 31.2656 6.01953C33.2708 8.13411 34.2734 10.6497 34.2734 13.5664ZM16.1719 12.2539C16.1719 13.4935 16.3359 14.6875 16.6641 15.8359C17.0104 16.9844 17.5026 18.0234 18.1406 18.9531C18.7786 19.8828 19.6172 20.6302 20.6562 21.1953C21.6953 21.7604 22.8529 22.043 24.1289 22.043C24.9857 22.043 25.8242 21.8971 26.6445 21.6055C27.4648 21.3138 28.2487 20.8763 28.9961 20.293C29.7435 19.6914 30.3451 18.8529 30.8008 17.7773C31.2747 16.7018 31.5117 15.4622 31.5117 14.0586C31.5117 12.582 31.2565 11.1419 30.7461 9.73828C30.2539 8.31641 29.4792 7.14062 28.4219 6.21094C27 4.95312 25.3229 4.32422 23.3906 4.32422C22.4974 4.32422 21.6315 4.48828 20.793 4.81641C19.9544 5.1263 19.1797 5.59115 18.4688 6.21094C17.776 6.8125 17.2201 7.64193 16.8008 8.69922C16.3815 9.73828 16.1719 10.9232 16.1719 12.2539Z" fill="#2E2F30"/>
<path d="M41.1367 22.6172C41.1367 22.9818 41.0273 23.1641 40.8086 23.1641C40.7904 23.1641 40.7266 23.1549 40.6172 23.1367C40.526 23.1367 40.3984 23.1276 40.2344 23.1094C40.0703 23.0911 39.888 23.0729 39.6875 23.0547C39.487 23.0365 39.25 23.0182 38.9766 23C38.7031 23 38.4388 23 38.1836 23C37.9284 23 37.6732 23 37.418 23C37.1628 23.0182 36.9349 23.0273 36.7344 23.0273C36.5339 23.0456 36.3516 23.0638 36.1875 23.082C36.0417 23.1003 35.9232 23.1094 35.832 23.1094C35.7409 23.1276 35.6862 23.1367 35.668 23.1367C35.3945 23.1367 35.2578 22.9727 35.2578 22.6445V22.5625C35.2578 22.3255 35.3125 22.1797 35.4219 22.125C35.5495 22.0521 35.8776 21.9883 36.4062 21.9336C36.7344 21.8971 36.944 21.7969 37.0352 21.6328C37.1445 21.4505 37.1992 21.1953 37.1992 20.8672V6.62109C37.1992 6.56641 37.1901 6.52083 37.1719 6.48438C37.1719 6.42969 37.1628 6.38411 37.1445 6.34766C37.1263 6.3112 37.1081 6.28385 37.0898 6.26562C37.0898 6.22917 37.0625 6.20182 37.0078 6.18359C36.9714 6.14714 36.9349 6.11979 36.8984 6.10156C36.8802 6.08333 36.8255 6.05599 36.7344 6.01953C36.6615 5.96484 36.6068 5.92839 36.5703 5.91016C36.388 5.80078 36.1875 5.69141 35.9688 5.58203C35.7682 5.45443 35.6224 5.36328 35.5312 5.30859C35.4583 5.25391 35.3763 5.19922 35.2852 5.14453C35.194 5.07161 35.1302 5.01693 35.0938 4.98047C35.0755 4.92578 35.0664 4.87109 35.0664 4.81641V4.78906C35.0664 4.69792 35.4128 4.47005 36.1055 4.10547C36.9622 3.6862 37.7643 3.27604 38.5117 2.875C38.6211 2.80208 38.7396 2.76562 38.8672 2.76562C39.1224 2.76562 39.25 2.9388 39.25 3.28516V21.0039C39.25 21.1133 39.25 21.2044 39.25 21.2773C39.2682 21.3503 39.2865 21.4232 39.3047 21.4961C39.3229 21.5508 39.3411 21.5964 39.3594 21.6328C39.3776 21.6693 39.4141 21.7057 39.4688 21.7422C39.5417 21.7786 39.5872 21.806 39.6055 21.8242C39.6419 21.8424 39.7057 21.8698 39.7969 21.9062C39.9062 21.9245 39.9792 21.9427 40.0156 21.9609C40.0703 21.9609 40.1706 21.9701 40.3164 21.9883C40.4805 22.0065 40.599 22.0247 40.6719 22.043C40.9818 22.0977 41.1367 22.2891 41.1367 22.6172Z" fill="#2E2F30"/>
<path d="M48.1094 12.2812C46.724 12.2812 45.6576 12.7005 44.9102 13.5391C44.1628 14.3776 43.7891 15.5169 43.7891 16.957C43.7891 18.543 44.3177 19.8008 45.375 20.7305C46.4323 21.6602 47.526 22.125 48.6562 22.125C49.2214 22.125 49.7682 22.0156 50.2969 21.7969C50.8438 21.5599 51.1719 21.2682 51.2812 20.9219C51.3542 20.6302 51.3906 20.4206 51.3906 20.293V14.0039C51.3906 13.7669 51.2904 13.5482 51.0898 13.3477C50.3242 12.6367 49.3307 12.2812 48.1094 12.2812ZM48.1641 11.1602C48.7109 11.1602 49.2214 11.1966 49.6953 11.2695C50.1693 11.3242 50.5339 11.388 50.7891 11.4609L51.1719 11.5703C51.3177 11.5703 51.3906 11.4883 51.3906 11.3242V6.62109C51.3906 6.56641 51.3815 6.52083 51.3633 6.48438C51.3633 6.42969 51.3542 6.38411 51.3359 6.34766C51.3359 6.3112 51.3177 6.27474 51.2812 6.23828C51.263 6.20182 51.2448 6.17448 51.2266 6.15625C51.2083 6.13802 51.1628 6.11068 51.0898 6.07422C51.0352 6.03776 50.9805 6.01042 50.9258 5.99219C50.8893 5.95573 50.8164 5.91927 50.707 5.88281C50.6159 5.84635 50.5247 5.8099 50.4336 5.77344C50.3607 5.73698 50.2513 5.69141 50.1055 5.63672C49.9596 5.58203 49.8229 5.52734 49.6953 5.47266C49.349 5.38151 49.1758 5.23568 49.1758 5.03516C49.1758 4.92578 49.2578 4.81641 49.4219 4.70703C51.7552 3.57682 52.9583 3.01172 53.0312 3.01172C53.25 3.01172 53.3594 3.13932 53.3594 3.39453C53.3594 3.57682 53.3503 4.0599 53.332 4.84375C53.3138 5.60938 53.2956 6.67578 53.2773 8.04297C53.2773 9.39193 53.2773 10.8685 53.2773 12.4727C53.2773 17.4674 53.3047 20.2109 53.3594 20.7031C53.3594 20.7578 53.3594 20.8034 53.3594 20.8398C53.3776 20.8581 53.3958 20.8854 53.4141 20.9219C53.4323 20.9401 53.4505 20.9583 53.4688 20.9766C53.5052 20.9948 53.5417 21.013 53.5781 21.0312C53.6328 21.0312 53.6784 21.0404 53.7148 21.0586C53.7513 21.0586 53.806 21.0586 53.8789 21.0586C53.9701 21.0586 54.043 21.0586 54.0977 21.0586C54.1706 21.0586 54.2617 21.0677 54.3711 21.0859C54.4805 21.0859 54.5807 21.0859 54.6719 21.0859C55.0365 21.0859 55.2188 21.2227 55.2188 21.4961C55.2188 21.6237 55.1641 21.724 55.0547 21.7969C54.9635 21.8698 54.7539 21.9792 54.4258 22.125C54.1159 22.2526 53.8242 22.3984 53.5508 22.5625C53.1862 22.763 52.8581 22.9635 52.5664 23.1641C52.2747 23.3828 52.0651 23.5378 51.9375 23.6289C51.8099 23.7383 51.7096 23.793 51.6367 23.793C51.4909 23.793 51.418 23.6927 51.418 23.4922V22.5898C51.418 22.5352 51.3906 22.5078 51.3359 22.5078L51.1719 22.6172C51.0807 22.6901 50.944 22.7812 50.7617 22.8906C50.5794 23 50.3607 23.1094 50.1055 23.2188C49.8685 23.3281 49.5586 23.4193 49.1758 23.4922C48.8112 23.5651 48.4284 23.6016 48.0273 23.6016C46.2227 23.6016 44.7461 22.9909 43.5977 21.7695C42.4674 20.5299 41.9023 19.0078 41.9023 17.2031C41.9023 15.5807 42.4219 14.168 43.4609 12.9648C44.5182 11.7617 46.0768 11.1602 48.1367 11.1602H48.1641Z" fill="#2E2F30"/>
<path d="M63.1484 8.5625C63.1484 7.28646 63.6224 6.18359 64.5703 5.25391C65.5182 4.30599 66.7122 3.83203 68.1523 3.83203C68.8268 3.83203 69.4284 3.93229 69.957 4.13281C70.5039 4.3151 70.9232 4.4974 71.2148 4.67969C71.5247 4.86198 71.707 4.95312 71.7617 4.95312C71.8711 4.95312 72.026 4.77083 72.2266 4.40625C72.4453 4.02344 72.6823 3.83203 72.9375 3.83203C73.0651 3.83203 73.1745 3.88672 73.2656 3.99609C73.3568 4.08724 73.4023 4.20573 73.4023 4.35156C73.4023 4.38802 73.3932 4.50651 73.375 4.70703C73.3568 4.90755 73.3294 5.1901 73.293 5.55469C73.2747 5.90104 73.2656 6.27474 73.2656 6.67578C73.2656 7.07682 73.2747 7.45052 73.293 7.79688C73.3294 8.14323 73.3568 8.41667 73.375 8.61719C73.3932 8.79948 73.4023 8.90885 73.4023 8.94531C73.4023 9.21875 73.2383 9.35547 72.9102 9.35547H72.8828C72.6276 9.35547 72.4362 9.26432 72.3086 9.08203C72.181 8.88151 72.0078 8.55339 71.7891 8.09766C71.5885 7.64193 71.306 7.20443 70.9414 6.78516C70.0117 5.74609 68.9909 5.22656 67.8789 5.22656C67.1133 5.22656 66.4661 5.48177 65.9375 5.99219C65.4089 6.5026 65.1445 7.1224 65.1445 7.85156C65.1445 8.85417 65.6276 9.70182 66.5938 10.3945C67.1589 10.8138 68.0794 11.1784 69.3555 11.4883C70.6315 11.7982 71.4792 12.0443 71.8984 12.2266C72.9557 12.6823 73.8034 13.3659 74.4414 14.2773C75.0977 15.1706 75.4258 16.2279 75.4258 17.4492C75.4258 19.1263 74.8333 20.5482 73.6484 21.7148C72.4635 22.8815 71.0143 23.4648 69.3008 23.4648C67.6237 23.4648 66.2018 22.9544 65.0352 21.9336C64.7435 21.6784 64.4609 21.5508 64.1875 21.5508C64.0964 21.5508 63.9688 21.569 63.8047 21.6055C63.6406 21.6237 63.5221 21.6328 63.4492 21.6328C63.1211 21.6328 62.957 21.487 62.957 21.1953C62.957 21.1406 62.9844 20.9583 63.0391 20.6484C63.112 20.3385 63.2031 19.8281 63.3125 19.1172C63.4219 18.4062 63.513 17.5859 63.5859 16.6562C63.6224 16.2552 63.832 16.0547 64.2148 16.0547C64.5065 16.0547 64.6797 16.1367 64.7344 16.3008C64.8073 16.4648 64.8893 16.9206 64.9805 17.668C64.9987 17.9049 65.0169 18.1328 65.0352 18.3516C65.0534 18.5703 65.0625 18.7253 65.0625 18.8164C65.0807 18.9076 65.0898 18.9896 65.0898 19.0625C65.0898 19.1354 65.1081 19.2083 65.1445 19.2812C65.181 19.3359 65.2083 19.3815 65.2266 19.418C65.2448 19.4544 65.3086 19.5456 65.418 19.6914C65.5273 19.819 65.6276 19.9375 65.7188 20.0469C66.6484 21.2865 67.8516 21.9062 69.3281 21.9062C70.4401 21.9062 71.3971 21.5326 72.1992 20.7852C73.0013 20.0378 73.4023 19.1172 73.4023 18.0234C73.4023 16.7656 72.8555 15.7357 71.7617 14.9336C71.1419 14.4779 70.2031 14.1042 68.9453 13.8125C67.6875 13.5026 66.8672 13.2656 66.4844 13.1016C65.3906 12.6641 64.5612 12.0443 63.9961 11.2422C63.431 10.4219 63.1484 9.52865 63.1484 8.5625Z" fill="#2E2F30"/>
<path d="M77.1211 12.7734C76.7383 12.7734 76.5469 12.6549 76.5469 12.418C76.5469 12.3086 76.6745 12.1445 76.9297 11.9258C77.2031 11.6888 77.5859 11.306 78.0781 10.7773C78.5703 10.2305 79.0352 9.59245 79.4727 8.86328C79.6732 8.51693 79.8555 8.34375 80.0195 8.34375C80.2747 8.34375 80.4023 8.4987 80.4023 8.80859C80.4023 8.9362 80.3932 9.26432 80.375 9.79297C80.375 10.3216 80.375 10.6497 80.375 10.7773C80.375 11.1419 80.5573 11.3242 80.9219 11.3242H83.4375C83.474 11.3242 83.5195 11.3333 83.5742 11.3516C83.6289 11.3516 83.6654 11.3516 83.6836 11.3516C84.1576 11.3516 84.3945 11.5247 84.3945 11.8711C84.3945 12.2174 84.3125 12.4909 84.1484 12.6914C84.0573 12.7826 83.8932 12.8281 83.6562 12.8281H80.375C80.1927 12.8281 80.1016 12.9193 80.1016 13.1016C80.1016 14.6146 80.0924 15.8724 80.0742 16.875C80.0742 17.8776 80.0651 18.5521 80.0469 18.8984C80.0469 19.2448 80.0469 19.4909 80.0469 19.6367C80.0469 21.0221 80.5299 21.7148 81.4961 21.7148C81.8789 21.7148 82.2799 21.5781 82.6992 21.3047C83.1185 21.013 83.4831 20.7305 83.793 20.457C84.1211 20.1654 84.3672 20.0195 84.5312 20.0195C84.6771 20.0195 84.7956 20.0742 84.8867 20.1836C84.9961 20.293 85.0508 20.4115 85.0508 20.5391C85.0508 20.6484 84.987 20.8034 84.8594 21.0039C83.3828 22.681 82.0794 23.5195 80.9492 23.5195C80.2747 23.5195 79.6549 23.2552 79.0898 22.7266C78.543 22.1797 78.224 21.3138 78.1328 20.1289C78.1146 19.9284 78.1055 19.6276 78.1055 19.2266C78.1055 18.7708 78.1237 17.668 78.1602 15.918C78.1966 14.1497 78.2148 13.1836 78.2148 13.0195C78.2148 12.8555 78.151 12.7734 78.0234 12.7734H77.1211Z" fill="#2E2F30"/>
<path d="M87.8672 29.2344C87.5573 29.2344 87.293 29.1341 87.0742 28.9336C86.8737 28.7331 86.7734 28.4961 86.7734 28.2227C86.7734 27.8945 86.8919 27.6029 87.1289 27.3477C87.3659 27.1107 87.7122 26.8464 88.168 26.5547C88.6419 26.263 88.9974 26.0078 89.2344 25.7891C89.6354 25.4245 90.0456 24.8867 90.4648 24.1758C90.9023 23.4831 91.1211 22.9544 91.1211 22.5898C91.1211 22.1159 90.082 19.8008 88.0039 15.6445C87.1471 13.9674 86.6367 13.0104 86.4727 12.7734C86.3633 12.6094 86.2083 12.5182 86.0078 12.5C85.8255 12.4635 85.6797 12.418 85.5703 12.3633C85.4609 12.2904 85.4062 12.1172 85.4062 11.8438C85.4062 11.5339 85.5339 11.3789 85.7891 11.3789C85.8255 11.3789 85.9349 11.388 86.1172 11.4062C86.2995 11.4062 86.5547 11.4154 86.8828 11.4336C87.2292 11.4518 87.5938 11.4609 87.9766 11.4609C88.3594 11.4609 88.7148 11.4518 89.043 11.4336C89.3893 11.4154 89.6536 11.4062 89.8359 11.4062C90.0365 11.388 90.1549 11.3789 90.1914 11.3789C90.4466 11.3789 90.5742 11.5247 90.5742 11.8164C90.5742 11.8893 90.5651 11.9531 90.5469 12.0078C90.5469 12.0443 90.5469 12.0807 90.5469 12.1172C90.5469 12.1536 90.5286 12.1901 90.4922 12.2266C90.474 12.2448 90.4557 12.2721 90.4375 12.3086C90.4375 12.3268 90.4102 12.3451 90.3555 12.3633C90.319 12.3633 90.2917 12.3724 90.2734 12.3906C90.2552 12.3906 90.2096 12.3997 90.1367 12.418C90.0638 12.418 90.0091 12.4271 89.9727 12.4453C89.9362 12.4453 89.8633 12.4544 89.7539 12.4727C89.6628 12.4727 89.5898 12.4727 89.5352 12.4727C89.2435 12.5091 89.0977 12.6367 89.0977 12.8555C89.0977 12.9466 89.207 13.3021 89.4258 13.9219C89.6628 14.5234 90.0273 15.3711 90.5195 16.4648C91.0299 17.5586 91.5768 18.6523 92.1602 19.7461C92.1602 19.8555 92.224 19.9102 92.3516 19.9102C92.4062 19.9102 92.4518 19.8919 92.4883 19.8555C92.5247 19.819 92.5521 19.7826 92.5703 19.7461C92.5885 19.6914 92.6068 19.6549 92.625 19.6367C94.1562 15.9727 94.9219 13.776 94.9219 13.0469C94.9219 12.9375 94.9036 12.8464 94.8672 12.7734C94.849 12.7005 94.8216 12.6458 94.7852 12.6094C94.7487 12.5547 94.6849 12.5182 94.5938 12.5C94.5026 12.4818 94.4206 12.4727 94.3477 12.4727C94.2747 12.4544 94.1562 12.4453 93.9922 12.4453C93.8281 12.4453 93.6914 12.4362 93.582 12.418C93.2357 12.3815 93.0625 12.1992 93.0625 11.8711C93.0625 11.543 93.2357 11.3789 93.582 11.3789C93.6185 11.3789 93.7279 11.388 93.9102 11.4062C94.0924 11.4062 94.3477 11.4154 94.6758 11.4336C95.0221 11.4518 95.3867 11.4609 95.7695 11.4609H95.7969C96.1797 11.4609 96.526 11.4518 96.8359 11.4336C97.1641 11.4154 97.4193 11.4062 97.6016 11.4062C97.7839 11.388 97.8932 11.3789 97.9297 11.3789C98.1484 11.3789 98.2578 11.5703 98.2578 11.9531C98.2578 12.1536 98.2031 12.2812 98.0938 12.3359C97.9844 12.3724 97.6745 12.418 97.1641 12.4727C96.9818 12.4909 96.8542 12.5547 96.7812 12.6641C96.7266 12.7734 96.5898 13.1198 96.3711 13.7031C95.9336 14.9427 95.4596 16.1823 94.9492 17.4219C93.1445 21.8333 91.4766 25.1966 89.9453 27.5117C89.1979 28.6602 88.5052 29.2344 87.8672 29.2344Z" fill="#2E2F30"/>
<path d="M104.766 22.6172C104.766 22.9818 104.656 23.1641 104.438 23.1641C104.419 23.1641 104.355 23.1549 104.246 23.1367C104.155 23.1367 104.027 23.1276 103.863 23.1094C103.699 23.0911 103.517 23.0729 103.316 23.0547C103.116 23.0365 102.879 23.0182 102.605 23C102.332 23 102.068 23 101.812 23C101.557 23 101.302 23 101.047 23C100.792 23.0182 100.564 23.0273 100.363 23.0273C100.163 23.0456 99.9805 23.0638 99.8164 23.082C99.6706 23.1003 99.5521 23.1094 99.4609 23.1094C99.3698 23.1276 99.3151 23.1367 99.2969 23.1367C99.0234 23.1367 98.8867 22.9727 98.8867 22.6445V22.5625C98.8867 22.3255 98.9414 22.1797 99.0508 22.125C99.1784 22.0521 99.5065 21.9883 100.035 21.9336C100.363 21.8971 100.573 21.7969 100.664 21.6328C100.773 21.4505 100.828 21.1953 100.828 20.8672V6.62109C100.828 6.56641 100.819 6.52083 100.801 6.48438C100.801 6.42969 100.792 6.38411 100.773 6.34766C100.755 6.3112 100.737 6.28385 100.719 6.26562C100.719 6.22917 100.691 6.20182 100.637 6.18359C100.6 6.14714 100.564 6.11979 100.527 6.10156C100.509 6.08333 100.454 6.05599 100.363 6.01953C100.29 5.96484 100.236 5.92839 100.199 5.91016C100.017 5.80078 99.8164 5.69141 99.5977 5.58203C99.3971 5.45443 99.2513 5.36328 99.1602 5.30859C99.0872 5.25391 99.0052 5.19922 98.9141 5.14453C98.8229 5.07161 98.7591 5.01693 98.7227 4.98047C98.7044 4.92578 98.6953 4.87109 98.6953 4.81641V4.78906C98.6953 4.69792 99.0417 4.47005 99.7344 4.10547C100.591 3.6862 101.393 3.27604 102.141 2.875C102.25 2.80208 102.368 2.76562 102.496 2.76562C102.751 2.76562 102.879 2.9388 102.879 3.28516V21.0039C102.879 21.1133 102.879 21.2044 102.879 21.2773C102.897 21.3503 102.915 21.4232 102.934 21.4961C102.952 21.5508 102.97 21.5964 102.988 21.6328C103.007 21.6693 103.043 21.7057 103.098 21.7422C103.171 21.7786 103.216 21.806 103.234 21.8242C103.271 21.8424 103.335 21.8698 103.426 21.9062C103.535 21.9245 103.608 21.9427 103.645 21.9609C103.699 21.9609 103.799 21.9701 103.945 21.9883C104.109 22.0065 104.228 22.0247 104.301 22.043C104.611 22.0977 104.766 22.2891 104.766 22.6172Z" fill="#2E2F30"/>
<path d="M105.695 17.2305C105.695 15.3346 106.197 13.8125 107.199 12.6641C108.202 11.5156 109.423 10.9414 110.863 10.9414C111.793 10.9414 112.686 11.1966 113.543 11.707C114.4 12.2174 115.111 12.8555 115.676 13.6211C115.822 13.8034 115.895 14.0039 115.895 14.2227V14.2773C115.895 14.4414 115.849 14.5872 115.758 14.7148C115.667 14.8424 115.521 14.9609 115.32 15.0703C115.12 15.1615 114.947 15.2344 114.801 15.2891C114.655 15.3438 114.436 15.4167 114.145 15.5078C113.871 15.599 113.698 15.6536 113.625 15.6719C109.815 16.9844 107.865 17.668 107.773 17.7227C107.701 17.7591 107.664 17.8138 107.664 17.8867C107.664 17.9961 107.691 18.1784 107.746 18.4336C107.801 18.6888 107.919 19.026 108.102 19.4453C108.302 19.8646 108.539 20.2565 108.812 20.6211C109.104 20.9674 109.514 21.2773 110.043 21.5508C110.572 21.806 111.164 21.9336 111.82 21.9336C113.096 21.9336 114.208 21.4779 115.156 20.5664C115.411 20.3112 115.621 20.1836 115.785 20.1836C116.095 20.1836 116.25 20.3203 116.25 20.5938C116.25 20.7031 116.177 20.849 116.031 21.0312C115.448 21.7969 114.719 22.4076 113.844 22.8633C112.969 23.3008 112.048 23.5195 111.082 23.5195C110.462 23.5195 109.852 23.4102 109.25 23.1914C108.667 22.9727 108.092 22.6354 107.527 22.1797C106.98 21.724 106.534 21.0677 106.188 20.2109C105.859 19.3542 105.695 18.3607 105.695 17.2305ZM113.188 14.332C113.188 14.0951 112.868 13.7305 112.23 13.2383C111.592 12.7279 110.927 12.4727 110.234 12.4727C109.414 12.4727 108.758 12.8281 108.266 13.5391C107.792 14.25 107.555 15.2253 107.555 16.4648C107.555 16.6107 107.6 16.6836 107.691 16.6836C107.728 16.6836 108.594 16.3555 110.289 15.6992C112.003 15.0247 112.887 14.6784 112.941 14.6602C113.105 14.569 113.188 14.4596 113.188 14.332Z" fill="#2E2F30"/>
<path d="M157.201 4.46094L157.406 8.80859H156.887C156.786 8.04297 156.65 7.49609 156.477 7.16797C156.194 6.63932 155.816 6.25195 155.342 6.00586C154.877 5.75065 154.262 5.62305 153.496 5.62305H150.885V19.7871C150.885 20.9264 151.008 21.6374 151.254 21.9199C151.6 22.3027 152.133 22.4941 152.854 22.4941H153.496V23H145.635V22.4941H146.291C147.075 22.4941 147.631 22.2572 147.959 21.7832C148.16 21.4915 148.26 20.8262 148.26 19.7871V5.62305H146.031C145.165 5.62305 144.55 5.68685 144.186 5.81445C143.712 5.98763 143.306 6.32031 142.969 6.8125C142.632 7.30469 142.431 7.97005 142.367 8.80859H141.848L142.066 4.46094H157.201Z" fill="#2E2F30"/>
<path d="M161.672 10.1074V12.9238C162.72 11.0462 163.796 10.1074 164.898 10.1074C165.4 10.1074 165.814 10.2624 166.143 10.5723C166.471 10.873 166.635 11.224 166.635 11.625C166.635 11.9805 166.516 12.2812 166.279 12.5273C166.042 12.7734 165.76 12.8965 165.432 12.8965C165.113 12.8965 164.753 12.7415 164.352 12.4316C163.96 12.1126 163.668 11.9531 163.477 11.9531C163.312 11.9531 163.135 12.0443 162.943 12.2266C162.533 12.6003 162.109 13.2155 161.672 14.0723V20.0742C161.672 20.7669 161.758 21.291 161.932 21.6465C162.05 21.8926 162.26 22.0977 162.561 22.2617C162.861 22.4258 163.294 22.5078 163.859 22.5078V23H157.447V22.5078C158.085 22.5078 158.559 22.4076 158.869 22.207C159.097 22.0612 159.257 21.8288 159.348 21.5098C159.393 21.3548 159.416 20.9128 159.416 20.1836V15.3301C159.416 13.8717 159.384 13.0059 159.32 12.7324C159.266 12.4499 159.156 12.2448 158.992 12.1172C158.837 11.9896 158.641 11.9258 158.404 11.9258C158.122 11.9258 157.803 11.9941 157.447 12.1309L157.311 11.6387L161.098 10.1074H161.672Z" fill="#2E2F30"/>
<path d="M174.428 21.1953C173.143 22.1888 172.336 22.763 172.008 22.918C171.516 23.1458 170.992 23.2598 170.436 23.2598C169.57 23.2598 168.854 22.9635 168.289 22.3711C167.733 21.7786 167.455 20.9993 167.455 20.0332C167.455 19.4225 167.592 18.8939 167.865 18.4473C168.239 17.8275 168.886 17.2441 169.807 16.6973C170.736 16.1504 172.277 15.485 174.428 14.7012V14.209C174.428 12.9603 174.227 12.1035 173.826 11.6387C173.434 11.1738 172.86 10.9414 172.104 10.9414C171.529 10.9414 171.074 11.0964 170.736 11.4062C170.39 11.7161 170.217 12.0716 170.217 12.4727L170.244 13.2656C170.244 13.6849 170.135 14.0085 169.916 14.2363C169.706 14.4642 169.428 14.5781 169.082 14.5781C168.745 14.5781 168.467 14.4596 168.248 14.2227C168.038 13.9857 167.934 13.6621 167.934 13.252C167.934 12.4681 168.335 11.748 169.137 11.0918C169.939 10.4355 171.064 10.1074 172.514 10.1074C173.626 10.1074 174.537 10.2943 175.248 10.668C175.786 10.9505 176.182 11.3926 176.438 11.9941C176.602 12.3861 176.684 13.1882 176.684 14.4004V18.6523C176.684 19.8464 176.706 20.5801 176.752 20.8535C176.798 21.1178 176.87 21.2956 176.971 21.3867C177.08 21.4779 177.203 21.5234 177.34 21.5234C177.486 21.5234 177.613 21.4915 177.723 21.4277C177.914 21.3092 178.283 20.9766 178.83 20.4297V21.1953C177.809 22.5625 176.834 23.2461 175.904 23.2461C175.458 23.2461 175.102 23.0911 174.838 22.7812C174.574 22.4714 174.437 21.9427 174.428 21.1953ZM174.428 20.3066V15.5352C173.051 16.082 172.163 16.4694 171.762 16.6973C171.042 17.0983 170.527 17.5176 170.217 17.9551C169.907 18.3926 169.752 18.8711 169.752 19.3906C169.752 20.0469 169.948 20.5938 170.34 21.0312C170.732 21.4596 171.183 21.6738 171.693 21.6738C172.386 21.6738 173.298 21.2181 174.428 20.3066Z" fill="#2E2F30"/>
<path d="M183.424 12.7598C184.891 10.9915 186.29 10.1074 187.621 10.1074C188.305 10.1074 188.893 10.2806 189.385 10.627C189.877 10.9642 190.269 11.5247 190.561 12.3086C190.761 12.8555 190.861 13.694 190.861 14.8242V20.1699C190.861 20.9629 190.925 21.5007 191.053 21.7832C191.153 22.0111 191.312 22.1888 191.531 22.3164C191.759 22.444 192.174 22.5078 192.775 22.5078V23H186.582V22.5078H186.842C187.425 22.5078 187.831 22.4212 188.059 22.248C188.296 22.0658 188.46 21.8014 188.551 21.4551C188.587 21.3184 188.605 20.89 188.605 20.1699V15.043C188.605 13.9036 188.455 13.0788 188.154 12.5684C187.863 12.0488 187.366 11.7891 186.664 11.7891C185.579 11.7891 184.499 12.3815 183.424 13.5664V20.1699C183.424 21.0176 183.474 21.5417 183.574 21.7422C183.702 22.0065 183.875 22.2025 184.094 22.3301C184.322 22.4486 184.777 22.5078 185.461 22.5078V23H179.268V22.5078H179.541C180.179 22.5078 180.607 22.3483 180.826 22.0293C181.054 21.7012 181.168 21.0814 181.168 20.1699V15.5215C181.168 14.0176 181.132 13.1016 181.059 12.7734C180.995 12.4453 180.89 12.222 180.744 12.1035C180.607 11.985 180.421 11.9258 180.184 11.9258C179.928 11.9258 179.623 11.9941 179.268 12.1309L179.062 11.6387L182.836 10.1074H183.424V12.7598Z" fill="#2E2F30"/>
<path d="M201.867 10.1074V14.373H201.416C201.07 13.0332 200.623 12.1217 200.076 11.6387C199.538 11.1556 198.85 10.9141 198.012 10.9141C197.374 10.9141 196.859 11.0827 196.467 11.4199C196.075 11.7572 195.879 12.1309 195.879 12.541C195.879 13.0514 196.025 13.4889 196.316 13.8535C196.599 14.2272 197.173 14.6237 198.039 15.043L200.035 16.0137C201.885 16.916 202.811 18.1055 202.811 19.582C202.811 20.7214 202.378 21.6419 201.512 22.3438C200.655 23.0365 199.693 23.3828 198.627 23.3828C197.861 23.3828 196.986 23.2461 196.002 22.9727C195.701 22.8815 195.455 22.8359 195.264 22.8359C195.054 22.8359 194.89 22.9544 194.771 23.1914H194.32V18.7207H194.771C195.027 19.9967 195.514 20.9583 196.234 21.6055C196.954 22.2526 197.761 22.5762 198.654 22.5762C199.283 22.5762 199.794 22.3939 200.186 22.0293C200.587 21.6556 200.787 21.209 200.787 20.6895C200.787 20.0605 200.564 19.5319 200.117 19.1035C199.68 18.6751 198.8 18.1328 197.479 17.4766C196.157 16.8203 195.291 16.2279 194.881 15.6992C194.471 15.1797 194.266 14.5234 194.266 13.7305C194.266 12.7005 194.617 11.8392 195.318 11.1465C196.029 10.4538 196.945 10.1074 198.066 10.1074C198.559 10.1074 199.156 10.2122 199.857 10.4219C200.322 10.5586 200.632 10.627 200.787 10.627C200.933 10.627 201.047 10.5951 201.129 10.5312C201.211 10.4674 201.307 10.3262 201.416 10.1074H201.867Z" fill="#2E2F30"/>
<path d="M207.869 3.55859C208.252 3.55859 208.576 3.69531 208.84 3.96875C209.113 4.23307 209.25 4.55664 209.25 4.93945C209.25 5.32227 209.113 5.65039 208.84 5.92383C208.576 6.19727 208.252 6.33398 207.869 6.33398C207.486 6.33398 207.158 6.19727 206.885 5.92383C206.611 5.65039 206.475 5.32227 206.475 4.93945C206.475 4.55664 206.607 4.23307 206.871 3.96875C207.145 3.69531 207.477 3.55859 207.869 3.55859ZM209.004 10.1074V20.1699C209.004 20.9538 209.059 21.4779 209.168 21.7422C209.286 21.9974 209.455 22.1888 209.674 22.3164C209.902 22.444 210.312 22.5078 210.904 22.5078V23H204.82V22.5078C205.431 22.5078 205.841 22.4486 206.051 22.3301C206.26 22.2116 206.424 22.0156 206.543 21.7422C206.671 21.4688 206.734 20.9447 206.734 20.1699V15.3438C206.734 13.9857 206.693 13.1061 206.611 12.7051C206.548 12.4134 206.447 12.2129 206.311 12.1035C206.174 11.985 205.987 11.9258 205.75 11.9258C205.495 11.9258 205.185 11.9941 204.82 12.1309L204.629 11.6387L208.402 10.1074H209.004Z" fill="#2E2F30"/>
<path d="M216.113 6.36133V10.4766H219.039V11.4336H216.113V19.5547C216.113 20.3659 216.227 20.9128 216.455 21.1953C216.692 21.4779 216.993 21.6191 217.357 21.6191C217.658 21.6191 217.95 21.528 218.232 21.3457C218.515 21.1543 218.734 20.8763 218.889 20.5117H219.422C219.103 21.4049 218.652 22.0794 218.068 22.5352C217.485 22.9818 216.883 23.2051 216.264 23.2051C215.844 23.2051 215.434 23.0911 215.033 22.8633C214.632 22.6263 214.336 22.2936 214.145 21.8652C213.953 21.4277 213.857 20.7578 213.857 19.8555V11.4336H211.875V10.9824C212.376 10.7819 212.887 10.4447 213.406 9.9707C213.935 9.48763 214.404 8.91797 214.814 8.26172C215.024 7.91536 215.316 7.2819 215.689 6.36133H216.113Z" fill="#2E2F30"/>
<path d="M223.455 3.55859C223.838 3.55859 224.161 3.69531 224.426 3.96875C224.699 4.23307 224.836 4.55664 224.836 4.93945C224.836 5.32227 224.699 5.65039 224.426 5.92383C224.161 6.19727 223.838 6.33398 223.455 6.33398C223.072 6.33398 222.744 6.19727 222.471 5.92383C222.197 5.65039 222.061 5.32227 222.061 4.93945C222.061 4.55664 222.193 4.23307 222.457 3.96875C222.73 3.69531 223.063 3.55859 223.455 3.55859ZM224.59 10.1074V20.1699C224.59 20.9538 224.645 21.4779 224.754 21.7422C224.872 21.9974 225.041 22.1888 225.26 22.3164C225.488 22.444 225.898 22.5078 226.49 22.5078V23H220.406V22.5078C221.017 22.5078 221.427 22.4486 221.637 22.3301C221.846 22.2116 222.01 22.0156 222.129 21.7422C222.257 21.4688 222.32 20.9447 222.32 20.1699V15.3438C222.32 13.9857 222.279 13.1061 222.197 12.7051C222.133 12.4134 222.033 12.2129 221.896 12.1035C221.76 11.985 221.573 11.9258 221.336 11.9258C221.081 11.9258 220.771 11.9941 220.406 12.1309L220.215 11.6387L223.988 10.1074H224.59Z" fill="#2E2F30"/>
<path d="M234.188 10.1074C236.083 10.1074 237.605 10.8275 238.754 12.2676C239.729 13.498 240.217 14.9108 240.217 16.5059C240.217 17.627 239.948 18.7617 239.41 19.9102C238.872 21.0586 238.13 21.9245 237.182 22.5078C236.243 23.0911 235.195 23.3828 234.037 23.3828C232.15 23.3828 230.651 22.6309 229.539 21.127C228.6 19.86 228.131 18.4382 228.131 16.8613C228.131 15.7129 228.413 14.5736 228.979 13.4434C229.553 12.304 230.305 11.4655 231.234 10.9277C232.164 10.3809 233.148 10.1074 234.188 10.1074ZM233.764 10.9961C233.281 10.9961 232.793 11.1419 232.301 11.4336C231.818 11.7161 231.426 12.2174 231.125 12.9375C230.824 13.6576 230.674 14.5827 230.674 15.7129C230.674 17.5358 231.034 19.1081 231.754 20.4297C232.483 21.7513 233.44 22.4121 234.625 22.4121C235.509 22.4121 236.238 22.0475 236.812 21.3184C237.387 20.5892 237.674 19.3359 237.674 17.5586C237.674 15.3346 237.195 13.5846 236.238 12.3086C235.591 11.4336 234.766 10.9961 233.764 10.9961Z" fill="#2E2F30"/>
<path d="M245.713 12.7598C247.18 10.9915 248.579 10.1074 249.91 10.1074C250.594 10.1074 251.182 10.2806 251.674 10.627C252.166 10.9642 252.558 11.5247 252.85 12.3086C253.05 12.8555 253.15 13.694 253.15 14.8242V20.1699C253.15 20.9629 253.214 21.5007 253.342 21.7832C253.442 22.0111 253.602 22.1888 253.82 22.3164C254.048 22.444 254.463 22.5078 255.064 22.5078V23H248.871V22.5078H249.131C249.714 22.5078 250.12 22.4212 250.348 22.248C250.585 22.0658 250.749 21.8014 250.84 21.4551C250.876 21.3184 250.895 20.89 250.895 20.1699V15.043C250.895 13.9036 250.744 13.0788 250.443 12.5684C250.152 12.0488 249.655 11.7891 248.953 11.7891C247.868 11.7891 246.788 12.3815 245.713 13.5664V20.1699C245.713 21.0176 245.763 21.5417 245.863 21.7422C245.991 22.0065 246.164 22.2025 246.383 22.3301C246.611 22.4486 247.066 22.5078 247.75 22.5078V23H241.557V22.5078H241.83C242.468 22.5078 242.896 22.3483 243.115 22.0293C243.343 21.7012 243.457 21.0814 243.457 20.1699V15.5215C243.457 14.0176 243.421 13.1016 243.348 12.7734C243.284 12.4453 243.179 12.222 243.033 12.1035C242.896 11.985 242.71 11.9258 242.473 11.9258C242.217 11.9258 241.912 11.9941 241.557 12.1309L241.352 11.6387L245.125 10.1074H245.713V12.7598Z" fill="#2E2F30"/>
<path d="M263.158 21.1953C261.873 22.1888 261.066 22.763 260.738 22.918C260.246 23.1458 259.722 23.2598 259.166 23.2598C258.3 23.2598 257.585 22.9635 257.02 22.3711C256.464 21.7786 256.186 20.9993 256.186 20.0332C256.186 19.4225 256.322 18.8939 256.596 18.4473C256.969 17.8275 257.617 17.2441 258.537 16.6973C259.467 16.1504 261.007 15.485 263.158 14.7012V14.209C263.158 12.9603 262.958 12.1035 262.557 11.6387C262.165 11.1738 261.59 10.9414 260.834 10.9414C260.26 10.9414 259.804 11.0964 259.467 11.4062C259.12 11.7161 258.947 12.0716 258.947 12.4727L258.975 13.2656C258.975 13.6849 258.865 14.0085 258.646 14.2363C258.437 14.4642 258.159 14.5781 257.812 14.5781C257.475 14.5781 257.197 14.4596 256.979 14.2227C256.769 13.9857 256.664 13.6621 256.664 13.252C256.664 12.4681 257.065 11.748 257.867 11.0918C258.669 10.4355 259.795 10.1074 261.244 10.1074C262.356 10.1074 263.268 10.2943 263.979 10.668C264.516 10.9505 264.913 11.3926 265.168 11.9941C265.332 12.3861 265.414 13.1882 265.414 14.4004V18.6523C265.414 19.8464 265.437 20.5801 265.482 20.8535C265.528 21.1178 265.601 21.2956 265.701 21.3867C265.811 21.4779 265.934 21.5234 266.07 21.5234C266.216 21.5234 266.344 21.4915 266.453 21.4277C266.645 21.3092 267.014 20.9766 267.561 20.4297V21.1953C266.54 22.5625 265.564 23.2461 264.635 23.2461C264.188 23.2461 263.833 23.0911 263.568 22.7812C263.304 22.4714 263.167 21.9427 263.158 21.1953ZM263.158 20.3066V15.5352C261.782 16.082 260.893 16.4694 260.492 16.6973C259.772 17.0983 259.257 17.5176 258.947 17.9551C258.637 18.3926 258.482 18.8711 258.482 19.3906C258.482 20.0469 258.678 20.5938 259.07 21.0312C259.462 21.4596 259.913 21.6738 260.424 21.6738C261.117 21.6738 262.028 21.2181 263.158 20.3066Z" fill="#2E2F30"/>
<path d="M272.811 3.55859V20.1699C272.811 20.9538 272.865 21.4733 272.975 21.7285C273.093 21.9837 273.271 22.1797 273.508 22.3164C273.745 22.444 274.187 22.5078 274.834 22.5078V23H268.695V22.5078C269.27 22.5078 269.661 22.4486 269.871 22.3301C270.081 22.2116 270.245 22.0156 270.363 21.7422C270.482 21.4688 270.541 20.9447 270.541 20.1699V8.79492C270.541 7.38216 270.509 6.51628 270.445 6.19727C270.382 5.86914 270.277 5.64583 270.131 5.52734C269.994 5.40885 269.816 5.34961 269.598 5.34961C269.361 5.34961 269.06 5.42253 268.695 5.56836L268.463 5.08984L272.195 3.55859H272.811Z" fill="#2E2F30"/>
<path d="M312.768 23.2801L304.424 1.6081V21.2921L307.112 22.4121V23.0001H301.12V22.4121L303.752 21.2921V1.6081L301.176 1.2161V0.600098H307.364L314.392 18.5761L321.56 0.600098H327.216V1.2161L324.64 1.6081V21.9921L327.216 22.4121V23.0001H318.984V22.4121L321.56 21.9921V2.4481L313.272 23.2801H312.768Z" fill="#2E2F30"/>
<path d="M336.784 23.2801C335.44 23.2801 334.218 22.9721 333.116 22.3561C332.015 21.7214 331.138 20.8348 330.484 19.6961C329.85 18.5388 329.532 17.2228 329.532 15.7481C329.532 14.2734 329.85 12.9668 330.484 11.8281C331.138 10.6894 332.015 9.8121 333.116 9.1961C334.218 8.56143 335.44 8.2441 336.784 8.2441C338.128 8.2441 339.351 8.56143 340.452 9.1961C341.554 9.8121 342.422 10.6894 343.056 11.8281C343.71 12.9668 344.036 14.2734 344.036 15.7481C344.036 17.2228 343.71 18.5388 343.056 19.6961C342.422 20.8348 341.554 21.7214 340.452 22.3561C339.351 22.9721 338.128 23.2801 336.784 23.2801ZM336.784 22.6641C338.166 22.6641 339.202 22.1601 339.892 21.1521C340.602 20.1441 340.956 18.8094 340.956 17.1481V14.3481C340.956 12.6868 340.602 11.3614 339.892 10.3721C339.202 9.3641 338.166 8.8601 336.784 8.8601C335.403 8.8601 334.358 9.3641 333.648 10.3721C332.958 11.3614 332.612 12.6868 332.612 14.3481V17.1481C332.612 18.8094 332.958 20.1441 333.648 21.1521C334.358 22.1601 335.403 22.6641 336.784 22.6641Z" fill="#2E2F30"/>
<path d="M353.123 23.2801C351.797 23.2801 350.631 22.9721 349.623 22.3561C348.615 21.7214 347.831 20.8441 347.271 19.7241C346.711 18.5854 346.431 17.2601 346.431 15.7481C346.431 14.2361 346.711 12.9201 347.271 11.8001C347.831 10.6614 348.615 9.7841 349.623 9.1681C350.631 8.5521 351.797 8.2441 353.123 8.2441C354.205 8.2441 355.148 8.53343 355.951 9.1121C356.753 9.6721 357.388 10.4468 357.855 11.4361V1.4401L355.895 1.1601V0.600098H360.655V22.1601L362.615 22.4401V23.0001H357.855V20.0881C357.388 21.0774 356.753 21.8614 355.951 22.4401C355.148 23.0001 354.205 23.2801 353.123 23.2801ZM353.403 22.5801C354.224 22.5801 354.961 22.3468 355.615 21.8801C356.287 21.3948 356.819 20.7601 357.211 19.9761C357.621 19.1734 357.836 18.3054 357.855 17.3721V14.1521C357.836 13.2188 357.621 12.3601 357.211 11.5761C356.819 10.7734 356.287 10.1388 355.615 9.6721C354.961 9.18676 354.224 8.9441 353.403 8.9441C350.808 8.9441 349.511 10.7454 349.511 14.3481V17.1481C349.511 20.7694 350.808 22.5801 353.403 22.5801Z" fill="#2E2F30"/>
<path d="M371.788 23.2801C370.406 23.2801 369.156 22.9721 368.036 22.3561C366.916 21.7214 366.029 20.8348 365.376 19.6961C364.722 18.5574 364.396 17.2414 364.396 15.7481C364.396 14.2548 364.713 12.9481 365.348 11.8281C366.001 10.6894 366.869 9.8121 367.952 9.1961C369.053 8.56143 370.276 8.2441 371.62 8.2441C372.796 8.2441 373.85 8.50543 374.784 9.0281C375.717 9.55076 376.445 10.2788 376.968 11.2121C377.49 12.1268 377.761 13.1814 377.78 14.3761H367.476V17.1481C367.476 18.7908 367.84 20.1254 368.568 21.1521C369.314 22.1601 370.388 22.6641 371.788 22.6641C373.076 22.6641 374.214 22.3001 375.204 21.5721C376.193 20.8441 376.8 19.9014 377.024 18.7441H377.668C377.406 20.1254 376.744 21.2268 375.68 22.0481C374.616 22.8694 373.318 23.2801 371.788 23.2801ZM374.7 13.6761C374.7 12.0521 374.448 10.8481 373.944 10.0641C373.44 9.26143 372.656 8.8601 371.592 8.8601C370.341 8.8601 369.37 9.29876 368.68 10.1761C367.989 11.0534 367.597 12.2201 367.504 13.6761H374.7Z" fill="#2E2F30"/>
<path d="M379.643 22.4401L381.603 22.1601V9.3361L379.643 9.0561V8.4961H384.403V10.6521C385.579 9.04676 386.904 8.2441 388.379 8.2441C389.088 8.2441 389.714 8.43076 390.255 8.8041C390.796 9.15876 391.067 9.6721 391.067 10.3441C391.067 10.8294 390.908 11.2401 390.591 11.5761C390.274 11.8934 389.854 12.0521 389.331 12.0521C388.734 12.0521 388.248 11.8188 387.875 11.3521C388.08 11.0908 388.183 10.8108 388.183 10.5121C388.183 10.1948 388.071 9.94276 387.847 9.7561C387.642 9.55076 387.362 9.4481 387.007 9.4481C386.615 9.4481 386.214 9.63476 385.803 10.0081C385.392 10.3628 384.926 10.9228 384.403 11.6881V22.1601L386.643 22.4401V23.0001H379.643V22.4401Z" fill="#2E2F30"/>
<path d="M392.03 22.4401L393.99 22.1601V9.3361L392.03 9.0561V8.4961H396.79V11.5201C397.48 10.5121 398.292 9.71876 399.226 9.1401C400.159 8.54276 401.167 8.2441 402.25 8.2441C403.594 8.2441 404.648 8.5801 405.414 9.2521C406.198 9.9241 406.59 10.9228 406.59 12.2481V22.1601L408.55 22.4401V23.0001H402.11V22.4401L403.79 22.1601V12.3041C403.79 11.3334 403.594 10.5868 403.202 10.0641C402.81 9.52276 402.203 9.2521 401.382 9.2521C400.523 9.2521 399.692 9.56943 398.89 10.2041C398.106 10.8201 397.406 11.5854 396.79 12.5001V22.1601L398.47 22.4401V23.0001H392.03V22.4401Z" fill="#2E2F30"/>
<path d="M446.51 6.15234V5.76953C446.51 5.49609 446.56 5.30013 446.66 5.18164C446.77 5.06315 446.911 5.00391 447.084 5.00391C447.257 5.00391 447.394 5.06315 447.494 5.18164C447.604 5.30013 447.658 5.49609 447.658 5.76953V8.69531C447.658 8.96875 447.604 9.16471 447.494 9.2832C447.394 9.40169 447.257 9.46094 447.084 9.46094C446.92 9.46094 446.783 9.40625 446.674 9.29688C446.574 9.1875 446.519 9.00977 446.51 8.76367C446.464 7.99805 446.068 7.3099 445.32 6.69922C444.582 6.08854 443.611 5.7832 442.408 5.7832C441.141 5.7832 440.134 6.11133 439.387 6.76758C438.639 7.41471 438.266 8.18034 438.266 9.06445C438.266 9.52018 438.37 9.9349 438.58 10.3086C438.79 10.6823 439.068 10.9876 439.414 11.2246C439.76 11.4525 440.152 11.6393 440.59 11.7852C441.027 11.9219 441.711 12.0677 442.641 12.2227C444.199 12.4779 445.275 12.7376 445.867 13.002C446.66 13.3574 447.257 13.8496 447.658 14.4785C448.068 15.1074 448.273 15.8503 448.273 16.707C448.273 18.0195 447.749 19.1406 446.701 20.0703C445.653 20.9909 444.24 21.4512 442.463 21.4512C440.467 21.4512 438.872 20.8268 437.678 19.5781V20.2344C437.678 20.5078 437.623 20.7038 437.514 20.8223C437.413 20.9408 437.277 21 437.104 21C436.939 21 436.803 20.9408 436.693 20.8223C436.584 20.7038 436.529 20.5078 436.529 20.2344V17.0625C436.529 16.7799 436.579 16.5794 436.68 16.4609C436.789 16.3424 436.93 16.2832 437.104 16.2832C437.268 16.2832 437.4 16.3379 437.5 16.4473C437.609 16.5566 437.669 16.7344 437.678 16.9805C437.723 17.819 438.17 18.5846 439.018 19.2773C439.874 19.9609 441.023 20.3027 442.463 20.3027C443.903 20.3027 445.038 19.9427 445.867 19.2227C446.706 18.5026 447.125 17.6504 447.125 16.666C447.125 16.0645 446.965 15.5312 446.646 15.0664C446.327 14.5924 445.854 14.2188 445.225 13.9453C444.787 13.7539 443.876 13.5397 442.49 13.3027C440.585 12.9837 439.214 12.4961 438.375 11.8398C437.536 11.1836 437.117 10.2493 437.117 9.03711C437.117 7.83398 437.596 6.79948 438.553 5.93359C439.519 5.06771 440.79 4.63477 442.367 4.63477C443.971 4.63477 445.352 5.14062 446.51 6.15234Z" fill="#2E2F30"/>
<path d="M459.799 3.8418V19.8516H464.311C464.593 19.8516 464.794 19.9062 464.912 20.0156C465.031 20.1159 465.09 20.2526 465.09 20.4258C465.09 20.5898 465.031 20.7266 464.912 20.8359C464.794 20.9453 464.593 21 464.311 21H454.139C453.865 21 453.669 20.9453 453.551 20.8359C453.432 20.7266 453.373 20.5898 453.373 20.4258C453.373 20.2526 453.432 20.1159 453.551 20.0156C453.669 19.9062 453.865 19.8516 454.139 19.8516H458.65V5.00391H455.342C455.068 5.00391 454.868 4.94922 454.74 4.83984C454.622 4.73047 454.562 4.58919 454.562 4.41602C454.562 4.25195 454.622 4.11523 454.74 4.00586C454.859 3.89648 455.059 3.8418 455.342 3.8418H459.799Z" fill="#2E2F30"/>
<path d="M479.336 21V19.3457C477.668 20.7493 475.886 21.4512 473.99 21.4512C472.614 21.4512 471.538 21.1048 470.764 20.4121C469.989 19.7103 469.602 18.8535 469.602 17.8418C469.602 16.7298 470.112 15.7591 471.133 14.9297C472.154 14.1003 473.644 13.6855 475.604 13.6855C476.132 13.6855 476.706 13.722 477.326 13.7949C477.946 13.8587 478.616 13.9635 479.336 14.1094V12.25C479.336 11.6211 479.044 11.0742 478.461 10.6094C477.878 10.1445 477.003 9.91211 475.836 9.91211C474.943 9.91211 473.689 10.1719 472.076 10.6914C471.785 10.7826 471.598 10.8281 471.516 10.8281C471.37 10.8281 471.242 10.7734 471.133 10.6641C471.033 10.5547 470.982 10.418 470.982 10.2539C470.982 10.099 471.028 9.97591 471.119 9.88477C471.247 9.74805 471.762 9.5612 472.664 9.32422C474.086 8.94141 475.161 8.75 475.891 8.75C477.34 8.75 478.47 9.11003 479.281 9.83008C480.092 10.541 480.498 11.3477 480.498 12.25V19.8516H482.029C482.312 19.8516 482.512 19.9062 482.631 20.0156C482.749 20.1159 482.809 20.2526 482.809 20.4258C482.809 20.5898 482.749 20.7266 482.631 20.8359C482.512 20.9453 482.312 21 482.029 21H479.336ZM479.336 15.2852C478.798 15.1302 478.229 15.0163 477.627 14.9434C477.025 14.8704 476.392 14.834 475.727 14.834C474.059 14.834 472.755 15.194 471.816 15.9141C471.105 16.4518 470.75 17.0944 470.75 17.8418C470.75 18.5345 471.019 19.1178 471.557 19.5918C472.104 20.0658 472.896 20.3027 473.936 20.3027C474.929 20.3027 475.85 20.1068 476.697 19.7148C477.554 19.3138 478.434 18.6803 479.336 17.8145V15.2852Z" fill="#2E2F30"/>
<path d="M488.523 3.8418V11.457C489.909 9.65234 491.581 8.75 493.541 8.75C495.218 8.75 496.654 9.36068 497.848 10.582C499.042 11.7943 499.639 13.2845 499.639 15.0527C499.639 16.8392 499.033 18.3522 497.82 19.5918C496.617 20.8314 495.191 21.4512 493.541 21.4512C491.536 21.4512 489.863 20.5488 488.523 18.7441V21H485.83C485.557 21 485.361 20.9453 485.242 20.8359C485.124 20.7266 485.064 20.5898 485.064 20.4258C485.064 20.2526 485.124 20.1159 485.242 20.0156C485.361 19.9062 485.557 19.8516 485.83 19.8516H487.375V5.00391H485.83C485.557 5.00391 485.361 4.94922 485.242 4.83984C485.124 4.73047 485.064 4.58919 485.064 4.41602C485.064 4.25195 485.124 4.11523 485.242 4.00586C485.361 3.89648 485.557 3.8418 485.83 3.8418H488.523ZM498.49 15.1074C498.49 13.6582 497.993 12.4323 497 11.4297C496.007 10.418 494.844 9.91211 493.514 9.91211C492.183 9.91211 491.021 10.418 490.027 11.4297C489.034 12.4323 488.537 13.6582 488.537 15.1074C488.537 16.5566 489.034 17.7871 490.027 18.7988C491.021 19.8014 492.183 20.3027 493.514 20.3027C494.844 20.3027 496.007 19.8014 497 18.7988C497.993 17.7871 498.49 16.5566 498.49 15.1074Z" fill="#2E2F30"/>
<path d="M7.02273 36C6.92898 35.7131 6.8054 35.456 6.65199 35.2287C6.50142 34.9986 6.32102 34.8026 6.1108 34.6406C5.90341 34.4787 5.66761 34.3551 5.40341 34.2699C5.1392 34.1847 4.84943 34.142 4.53409 34.142C4.01705 34.142 3.54688 34.2756 3.12358 34.5426C2.70028 34.8097 2.36364 35.2031 2.11364 35.723C1.86364 36.2429 1.73864 36.8807 1.73864 37.6364C1.73864 38.392 1.86506 39.0298 2.1179 39.5497C2.37074 40.0696 2.71307 40.4631 3.14489 40.7301C3.5767 40.9972 4.0625 41.1307 4.60227 41.1307C5.10227 41.1307 5.54261 41.0241 5.9233 40.8111C6.30682 40.5952 6.60511 40.2912 6.81818 39.8991C7.03409 39.5043 7.14205 39.0398 7.14205 38.5057L7.46591 38.5739H4.84091V37.6364H8.16477V38.5739C8.16477 39.2926 8.01136 39.9176 7.70455 40.4489C7.40057 40.9801 6.98011 41.392 6.44318 41.6847C5.90909 41.9744 5.29545 42.1193 4.60227 42.1193C3.82955 42.1193 3.15057 41.9375 2.56534 41.5739C1.98295 41.2102 1.52841 40.6932 1.2017 40.0227C0.877841 39.3523 0.715909 38.5568 0.715909 37.6364C0.715909 36.946 0.808239 36.3253 0.992898 35.7741C1.1804 35.2202 1.4446 34.7486 1.78551 34.3594C2.12642 33.9702 2.52983 33.6719 2.99574 33.4645C3.46165 33.2571 3.97443 33.1534 4.53409 33.1534C4.99432 33.1534 5.4233 33.223 5.82102 33.3622C6.22159 33.4986 6.57812 33.6932 6.89062 33.946C7.20597 34.196 7.46875 34.4957 7.67898 34.8452C7.8892 35.1918 8.03409 35.5767 8.11364 36H7.02273ZM12.4975 42.1364C11.9066 42.1364 11.3881 41.9957 10.9421 41.7145C10.4989 41.4332 10.1523 41.0398 9.90234 40.5341C9.65518 40.0284 9.53161 39.4375 9.53161 38.7614C9.53161 38.0795 9.65518 37.4844 9.90234 36.9759C10.1523 36.4673 10.4989 36.0724 10.9421 35.7912C11.3881 35.5099 11.9066 35.3693 12.4975 35.3693C13.0884 35.3693 13.6055 35.5099 14.0487 35.7912C14.4947 36.0724 14.8413 36.4673 15.0884 36.9759C15.3384 37.4844 15.4634 38.0795 15.4634 38.7614C15.4634 39.4375 15.3384 40.0284 15.0884 40.5341C14.8413 41.0398 14.4947 41.4332 14.0487 41.7145C13.6055 41.9957 13.0884 42.1364 12.4975 42.1364ZM12.4975 41.233C12.9464 41.233 13.3157 41.1179 13.6055 40.8878C13.8952 40.6577 14.1097 40.3551 14.2489 39.9801C14.3881 39.6051 14.4577 39.1989 14.4577 38.7614C14.4577 38.3239 14.3881 37.9162 14.2489 37.5384C14.1097 37.1605 13.8952 36.8551 13.6055 36.6222C13.3157 36.3892 12.9464 36.2727 12.4975 36.2727C12.0487 36.2727 11.6793 36.3892 11.3896 36.6222C11.0998 36.8551 10.8853 37.1605 10.7461 37.5384C10.6069 37.9162 10.5373 38.3239 10.5373 38.7614C10.5373 39.1989 10.6069 39.6051 10.7461 39.9801C10.8853 40.3551 11.0998 40.6577 11.3896 40.8878C11.6793 41.1179 12.0487 41.233 12.4975 41.233ZM21.1236 39.3239V35.4545H22.1293V42H21.1236V40.892H21.0554C20.902 41.2244 20.6634 41.5071 20.3395 41.7401C20.0156 41.9702 19.6065 42.0852 19.1122 42.0852C18.7031 42.0852 18.3395 41.9957 18.0213 41.8168C17.7031 41.6349 17.4531 41.3622 17.2713 40.9986C17.0895 40.6321 16.9986 40.1705 16.9986 39.6136V35.4545H18.0043V39.5455C18.0043 40.0227 18.1378 40.4034 18.4048 40.6875C18.6747 40.9716 19.0185 41.1136 19.4361 41.1136C19.6861 41.1136 19.9403 41.0497 20.1989 40.9219C20.4602 40.794 20.679 40.598 20.8551 40.3338C21.0341 40.0696 21.1236 39.733 21.1236 39.3239ZM26.4428 42.1364C25.8974 42.1364 25.4158 41.9986 24.9982 41.723C24.5806 41.4446 24.2539 41.0526 24.0181 40.5469C23.7823 40.0384 23.6644 39.4375 23.6644 38.7443C23.6644 38.0568 23.7823 37.4602 24.0181 36.9545C24.2539 36.4489 24.582 36.0582 25.0025 35.7827C25.4229 35.5071 25.9087 35.3693 26.4599 35.3693C26.886 35.3693 27.2227 35.4403 27.4698 35.5824C27.7198 35.7216 27.9102 35.8807 28.0408 36.0597C28.1744 36.2358 28.2781 36.3807 28.3519 36.4943H28.4371V33.2727H29.4428V42H28.4712V40.9943H28.3519C28.2781 41.1136 28.1729 41.2642 28.0366 41.446C27.9002 41.625 27.7056 41.7855 27.4528 41.9276C27.1999 42.0668 26.8633 42.1364 26.4428 42.1364ZM26.5792 41.233C26.9826 41.233 27.3235 41.1278 27.6019 40.9176C27.8803 40.7045 28.092 40.4105 28.2369 40.0355C28.3817 39.6577 28.4542 39.2216 28.4542 38.7273C28.4542 38.2386 28.3832 37.8111 28.2411 37.4446C28.0991 37.0753 27.8888 36.7884 27.6104 36.5838C27.332 36.3764 26.9883 36.2727 26.5792 36.2727C26.1531 36.2727 25.7979 36.3821 25.5138 36.6009C25.2326 36.8168 25.021 37.1108 24.8789 37.483C24.7397 37.8523 24.6701 38.267 24.6701 38.7273C24.6701 39.1932 24.7411 39.6165 24.8832 39.9972C25.0281 40.375 25.2411 40.6761 25.5224 40.9006C25.8065 41.1222 26.1587 41.233 26.5792 41.233ZM32.0721 44.4545C31.9016 44.4545 31.7496 44.4403 31.6161 44.4119C31.4826 44.3864 31.3903 44.3608 31.3391 44.3352L31.5948 43.4489C31.8391 43.5114 32.055 43.5341 32.2425 43.517C32.43 43.5 32.5962 43.4162 32.7411 43.2656C32.8888 43.1179 33.0238 42.8778 33.146 42.5455L33.3335 42.0341L30.913 35.4545H32.0039L33.8107 40.6705H33.8789L35.6857 35.4545H36.7766L33.9982 42.9545C33.8732 43.2926 33.7184 43.5724 33.5337 43.794C33.3491 44.0185 33.1346 44.1847 32.8903 44.2926C32.6488 44.4006 32.3761 44.4545 32.0721 44.4545ZM41.6154 42V33.2727H44.6665C45.2745 33.2727 45.7759 33.3778 46.1708 33.5881C46.5657 33.7955 46.8597 34.0753 47.0529 34.4276C47.2461 34.777 47.3427 35.1648 47.3427 35.5909C47.3427 35.9659 47.2759 36.2756 47.1424 36.5199C47.0117 36.7642 46.8384 36.9574 46.6225 37.0994C46.4094 37.2415 46.1779 37.3466 45.9279 37.4148V37.5C46.195 37.517 46.4634 37.6108 46.7333 37.7812C47.0032 37.9517 47.229 38.196 47.4109 38.5142C47.5927 38.8324 47.6836 39.2216 47.6836 39.6818C47.6836 40.1193 47.5842 40.5128 47.3853 40.8622C47.1864 41.2116 46.8725 41.4886 46.4435 41.6932C46.0146 41.8977 45.4563 42 44.7688 42H41.6154ZM42.6722 41.0625H44.7688C45.4592 41.0625 45.9492 40.929 46.239 40.6619C46.5316 40.392 46.6779 40.0653 46.6779 39.6818C46.6779 39.3864 46.6026 39.1136 46.4521 38.8636C46.3015 38.6108 46.087 38.4091 45.8086 38.2585C45.5302 38.1051 45.2006 38.0284 44.82 38.0284H42.6722V41.0625ZM42.6722 37.108H44.6325C44.9506 37.108 45.2376 37.0455 45.4933 36.9205C45.7518 36.7955 45.9563 36.6193 46.1069 36.392C46.2603 36.1648 46.337 35.8977 46.337 35.5909C46.337 35.2074 46.2035 34.8821 45.9364 34.6151C45.6694 34.3452 45.2461 34.2102 44.6665 34.2102H42.6722V37.108ZM51.9428 42.1364C51.3519 42.1364 50.8335 41.9957 50.3874 41.7145C49.9442 41.4332 49.5977 41.0398 49.3477 40.5341C49.1005 40.0284 48.9769 39.4375 48.9769 38.7614C48.9769 38.0795 49.1005 37.4844 49.3477 36.9759C49.5977 36.4673 49.9442 36.0724 50.3874 35.7912C50.8335 35.5099 51.3519 35.3693 51.9428 35.3693C52.5337 35.3693 53.0508 35.5099 53.494 35.7912C53.94 36.0724 54.2866 36.4673 54.5337 36.9759C54.7837 37.4844 54.9087 38.0795 54.9087 38.7614C54.9087 39.4375 54.7837 40.0284 54.5337 40.5341C54.2866 41.0398 53.94 41.4332 53.494 41.7145C53.0508 41.9957 52.5337 42.1364 51.9428 42.1364ZM51.9428 41.233C52.3917 41.233 52.761 41.1179 53.0508 40.8878C53.3406 40.6577 53.555 40.3551 53.6942 39.9801C53.8335 39.6051 53.9031 39.1989 53.9031 38.7614C53.9031 38.3239 53.8335 37.9162 53.6942 37.5384C53.555 37.1605 53.3406 36.8551 53.0508 36.6222C52.761 36.3892 52.3917 36.2727 51.9428 36.2727C51.494 36.2727 51.1246 36.3892 50.8349 36.6222C50.5451 36.8551 50.3306 37.1605 50.1914 37.5384C50.0522 37.9162 49.9826 38.3239 49.9826 38.7614C49.9826 39.1989 50.0522 39.6051 50.1914 39.9801C50.3306 40.3551 50.5451 40.6577 50.8349 40.8878C51.1246 41.1179 51.494 41.233 51.9428 41.233ZM59.103 42.1364C58.5121 42.1364 57.9936 41.9957 57.5476 41.7145C57.1044 41.4332 56.7578 41.0398 56.5078 40.5341C56.2607 40.0284 56.1371 39.4375 56.1371 38.7614C56.1371 38.0795 56.2607 37.4844 56.5078 36.9759C56.7578 36.4673 57.1044 36.0724 57.5476 35.7912C57.9936 35.5099 58.5121 35.3693 59.103 35.3693C59.6939 35.3693 60.2109 35.5099 60.6541 35.7912C61.1001 36.0724 61.4467 36.4673 61.6939 36.9759C61.9439 37.4844 62.0689 38.0795 62.0689 38.7614C62.0689 39.4375 61.9439 40.0284 61.6939 40.5341C61.4467 41.0398 61.1001 41.4332 60.6541 41.7145C60.2109 41.9957 59.6939 42.1364 59.103 42.1364ZM59.103 41.233C59.5518 41.233 59.9212 41.1179 60.2109 40.8878C60.5007 40.6577 60.7152 40.3551 60.8544 39.9801C60.9936 39.6051 61.0632 39.1989 61.0632 38.7614C61.0632 38.3239 60.9936 37.9162 60.8544 37.5384C60.7152 37.1605 60.5007 36.8551 60.2109 36.6222C59.9212 36.3892 59.5518 36.2727 59.103 36.2727C58.6541 36.2727 58.2848 36.3892 57.995 36.6222C57.7053 36.8551 57.4908 37.1605 57.3516 37.5384C57.2124 37.9162 57.1428 38.3239 57.1428 38.7614C57.1428 39.1989 57.2124 39.6051 57.3516 39.9801C57.4908 40.3551 57.7053 40.6577 57.995 40.8878C58.2848 41.1179 58.6541 41.233 59.103 41.233ZM64.5415 39.6136L64.5245 38.3693H64.729L67.5927 35.4545H68.837L65.7859 38.5398H65.7006L64.5415 39.6136ZM63.604 42V33.2727H64.6097V42H63.604ZM67.7631 42L65.2063 38.7614L65.9222 38.0625L69.0415 42H67.7631ZM71.1371 33.2727V42H70.1314V33.2727H71.1371ZM75.7234 42.1364C75.0927 42.1364 74.5487 41.9972 74.0913 41.7188C73.6367 41.4375 73.2859 41.0455 73.0387 40.5426C72.7944 40.0369 72.6722 39.4489 72.6722 38.7784C72.6722 38.108 72.7944 37.517 73.0387 37.0057C73.2859 36.4915 73.6296 36.0909 74.07 35.804C74.5131 35.5142 75.0302 35.3693 75.6211 35.3693C75.962 35.3693 76.2987 35.4261 76.631 35.5398C76.9634 35.6534 77.266 35.8381 77.5387 36.0938C77.8114 36.3466 78.0288 36.6818 78.1907 37.0994C78.3526 37.517 78.4336 38.0312 78.4336 38.642V39.0682H73.3881V38.1989H77.4109C77.4109 37.8295 77.337 37.5 77.1893 37.2102C77.0444 36.9205 76.837 36.6918 76.5671 36.5241C76.3001 36.3565 75.9847 36.2727 75.6211 36.2727C75.2205 36.2727 74.8739 36.3722 74.5813 36.571C74.2915 36.767 74.0685 37.0227 73.9123 37.3381C73.756 37.6534 73.6779 37.9915 73.6779 38.3523V38.9318C73.6779 39.4261 73.7631 39.8452 73.9336 40.1889C74.1069 40.5298 74.3469 40.7898 74.6538 40.9688C74.9606 41.1449 75.3171 41.233 75.7234 41.233C75.9876 41.233 76.2262 41.196 76.4393 41.1222C76.6552 41.0455 76.8413 40.9318 76.9975 40.7812C77.1538 40.6278 77.2745 40.4375 77.3597 40.2102L78.3313 40.483C78.229 40.8125 78.0572 41.1023 77.8157 41.3523C77.5742 41.5994 77.2759 41.7926 76.9208 41.9318C76.5657 42.0682 76.1665 42.1364 75.7234 42.1364ZM82.81 35.4545V36.3068H79.418V35.4545H82.81ZM80.4066 33.8864H81.4123V40.125C81.4123 40.4091 81.4535 40.6222 81.5359 40.7642C81.6211 40.9034 81.729 40.9972 81.8597 41.0455C81.9933 41.0909 82.1339 41.1136 82.2816 41.1136C82.3924 41.1136 82.4833 41.108 82.5543 41.0966C82.6254 41.0824 82.6822 41.071 82.7248 41.0625L82.9293 41.9659C82.8612 41.9915 82.766 42.017 82.6438 42.0426C82.5217 42.071 82.3668 42.0852 82.1793 42.0852C81.8952 42.0852 81.6168 42.0241 81.3441 41.902C81.0742 41.7798 80.8498 41.5938 80.6708 41.3438C80.4947 41.0938 80.4066 40.7784 80.4066 40.3977V33.8864ZM87.1694 35.4545V36.3068H83.7773V35.4545H87.1694ZM84.766 33.8864H85.7717V40.125C85.7717 40.4091 85.8129 40.6222 85.8952 40.7642C85.9805 40.9034 86.0884 40.9972 86.2191 41.0455C86.3526 41.0909 86.4933 41.1136 86.641 41.1136C86.7518 41.1136 86.8427 41.108 86.9137 41.0966C86.9847 41.0824 87.0415 41.071 87.0842 41.0625L87.2887 41.9659C87.2205 41.9915 87.1254 42.017 87.0032 42.0426C86.881 42.071 86.7262 42.0852 86.5387 42.0852C86.2546 42.0852 85.9762 42.0241 85.7035 41.902C85.4336 41.7798 85.2092 41.5938 85.0302 41.3438C84.854 41.0938 84.766 40.7784 84.766 40.3977V33.8864ZM91.3562 42.1364C90.7255 42.1364 90.1815 41.9972 89.7241 41.7188C89.2695 41.4375 88.9187 41.0455 88.6715 40.5426C88.4272 40.0369 88.305 39.4489 88.305 38.7784C88.305 38.108 88.4272 37.517 88.6715 37.0057C88.9187 36.4915 89.2624 36.0909 89.7028 35.804C90.146 35.5142 90.663 35.3693 91.2539 35.3693C91.5948 35.3693 91.9315 35.4261 92.2638 35.5398C92.5962 35.6534 92.8988 35.8381 93.1715 36.0938C93.4442 36.3466 93.6616 36.6818 93.8235 37.0994C93.9854 37.517 94.0664 38.0312 94.0664 38.642V39.0682H89.021V38.1989H93.0437C93.0437 37.8295 92.9698 37.5 92.8221 37.2102C92.6772 36.9205 92.4698 36.6918 92.1999 36.5241C91.9329 36.3565 91.6175 36.2727 91.2539 36.2727C90.8533 36.2727 90.5067 36.3722 90.2141 36.571C89.9244 36.767 89.7013 37.0227 89.5451 37.3381C89.3888 37.6534 89.3107 37.9915 89.3107 38.3523V38.9318C89.3107 39.4261 89.396 39.8452 89.5664 40.1889C89.7397 40.5298 89.9798 40.7898 90.2866 40.9688C90.5934 41.1449 90.9499 41.233 91.3562 41.233C91.6204 41.233 91.859 41.196 92.0721 41.1222C92.288 41.0455 92.4741 40.9318 92.6303 40.7812C92.7866 40.6278 92.9073 40.4375 92.9925 40.2102L93.9641 40.483C93.8619 40.8125 93.69 41.1023 93.4485 41.3523C93.207 41.5994 92.9087 41.7926 92.5536 41.9318C92.1985 42.0682 91.7994 42.1364 91.3562 42.1364ZM95.5962 42V35.4545H96.5678V36.4432H96.636C96.7553 36.1193 96.9712 35.8565 97.2837 35.6548C97.5962 35.4531 97.9485 35.3523 98.3406 35.3523C98.4144 35.3523 98.5067 35.3537 98.6175 35.3565C98.7283 35.3594 98.8121 35.3636 98.869 35.3693V36.392C98.8349 36.3835 98.7567 36.3707 98.6346 36.3537C98.5153 36.3338 98.3888 36.3239 98.2553 36.3239C97.9371 36.3239 97.6531 36.3906 97.4031 36.5241C97.1559 36.6548 96.9599 36.8366 96.815 37.0696C96.6729 37.2997 96.6019 37.5625 96.6019 37.858V42H95.5962ZM106.487 33.2727V42H105.43V34.3807H105.379L103.249 35.7955V34.7216L105.43 33.2727H106.487ZM111.776 33.1534C112.134 33.1562 112.491 33.2244 112.849 33.358C113.207 33.4915 113.534 33.7131 113.83 34.0227C114.125 34.3295 114.362 34.7486 114.541 35.2798C114.72 35.8111 114.81 36.4773 114.81 37.2784C114.81 38.054 114.736 38.7429 114.588 39.3452C114.443 39.9446 114.233 40.4503 113.957 40.8622C113.685 41.2741 113.352 41.5866 112.96 41.7997C112.571 42.0128 112.131 42.1193 111.639 42.1193C111.151 42.1193 110.714 42.0227 110.331 41.8295C109.95 41.6335 109.638 41.3622 109.393 41.0156C109.152 40.6662 108.997 40.2614 108.929 39.8011H109.969C110.062 40.2017 110.249 40.5327 110.527 40.794C110.808 41.0526 111.179 41.1818 111.639 41.1818C112.313 41.1818 112.844 40.8878 113.233 40.2997C113.625 39.7116 113.821 38.8807 113.821 37.8068H113.753C113.594 38.0455 113.405 38.2514 113.186 38.4247C112.967 38.598 112.724 38.7315 112.457 38.8253C112.19 38.919 111.906 38.9659 111.605 38.9659C111.105 38.9659 110.646 38.8423 110.229 38.5952C109.814 38.3452 109.482 38.0028 109.232 37.5682C108.984 37.1307 108.861 36.6307 108.861 36.0682C108.861 35.5341 108.98 35.0455 109.219 34.6023C109.46 34.1562 109.798 33.8011 110.233 33.5369C110.67 33.2727 111.185 33.1449 111.776 33.1534ZM111.776 34.0909C111.418 34.0909 111.095 34.1804 110.808 34.3594C110.524 34.5355 110.298 34.7741 110.131 35.0753C109.966 35.3736 109.884 35.7045 109.884 36.0682C109.884 36.4318 109.963 36.7628 110.122 37.0611C110.284 37.3565 110.504 37.5923 110.783 37.7685C111.064 37.9418 111.384 38.0284 111.741 38.0284C112.011 38.0284 112.263 37.9759 112.496 37.8707C112.729 37.7628 112.932 37.6165 113.105 37.4318C113.281 37.2443 113.419 37.0327 113.518 36.7969C113.618 36.5582 113.668 36.3097 113.668 36.0511C113.668 35.7102 113.585 35.3906 113.42 35.0923C113.259 34.794 113.034 34.5526 112.747 34.3679C112.463 34.1832 112.139 34.0909 111.776 34.0909ZM119.554 33.2727V42H118.497V34.3807H118.446L116.315 35.7955V34.7216L118.497 33.2727H119.554ZM125.132 33.2727V42H124.075V34.3807H124.024L121.893 35.7955V34.7216L124.075 33.2727H125.132Z" fill="#596063"/>
<path d="M155.58 34.2102V33.2727H162.125V34.2102H159.381V42H158.324V34.2102H155.58ZM163.62 42V35.4545H164.625V42H163.62ZM164.131 34.3636C163.935 34.3636 163.766 34.2969 163.624 34.1634C163.485 34.0298 163.415 33.8693 163.415 33.6818C163.415 33.4943 163.485 33.3338 163.624 33.2003C163.766 33.0668 163.935 33 164.131 33C164.327 33 164.495 33.0668 164.634 33.2003C164.776 33.3338 164.847 33.4943 164.847 33.6818C164.847 33.8693 164.776 34.0298 164.634 34.1634C164.495 34.2969 164.327 34.3636 164.131 34.3636ZM166.467 42V35.4545H167.439V36.4773H167.524C167.661 36.1278 167.881 35.8565 168.185 35.6634C168.489 35.4673 168.854 35.3693 169.28 35.3693C169.712 35.3693 170.071 35.4673 170.358 35.6634C170.648 35.8565 170.874 36.1278 171.036 36.4773H171.104C171.271 36.1392 171.523 35.8707 171.858 35.6719C172.193 35.4702 172.595 35.3693 173.064 35.3693C173.649 35.3693 174.128 35.5526 174.5 35.919C174.872 36.2827 175.058 36.8494 175.058 37.6193V42H174.053V37.6193C174.053 37.1364 173.92 36.7912 173.656 36.5838C173.392 36.3764 173.081 36.2727 172.723 36.2727C172.263 36.2727 171.906 36.4119 171.653 36.6903C171.401 36.9659 171.274 37.3153 171.274 37.7386V42H170.251V37.517C170.251 37.1449 170.131 36.8452 169.889 36.6179C169.648 36.3878 169.337 36.2727 168.956 36.2727C168.695 36.2727 168.45 36.3423 168.223 36.4815C167.999 36.6207 167.817 36.8139 167.678 37.0611C167.541 37.3054 167.473 37.5881 167.473 37.9091V42H166.467ZM179.641 42.1364C179.011 42.1364 178.467 41.9972 178.009 41.7188C177.555 41.4375 177.204 41.0455 176.957 40.5426C176.712 40.0369 176.59 39.4489 176.59 38.7784C176.59 38.108 176.712 37.517 176.957 37.0057C177.204 36.4915 177.548 36.0909 177.988 35.804C178.431 35.5142 178.948 35.3693 179.539 35.3693C179.88 35.3693 180.217 35.4261 180.549 35.5398C180.881 35.6534 181.184 35.8381 181.457 36.0938C181.729 36.3466 181.947 36.6818 182.109 37.0994C182.271 37.517 182.352 38.0312 182.352 38.642V39.0682H177.306V38.1989H181.329C181.329 37.8295 181.255 37.5 181.107 37.2102C180.962 36.9205 180.755 36.6918 180.485 36.5241C180.218 36.3565 179.903 36.2727 179.539 36.2727C179.138 36.2727 178.792 36.3722 178.499 36.571C178.21 36.767 177.987 37.0227 177.83 37.3381C177.674 37.6534 177.596 37.9915 177.596 38.3523V38.9318C177.596 39.4261 177.681 39.8452 177.852 40.1889C178.025 40.5298 178.265 40.7898 178.572 40.9688C178.879 41.1449 179.235 41.233 179.641 41.233C179.906 41.233 180.144 41.196 180.357 41.1222C180.573 41.0455 180.759 40.9318 180.915 40.7812C181.072 40.6278 181.192 40.4375 181.278 40.2102L182.249 40.483C182.147 40.8125 181.975 41.1023 181.734 41.3523C181.492 41.5994 181.194 41.7926 180.839 41.9318C180.484 42.0682 180.085 42.1364 179.641 42.1364ZM188.518 36.9205L187.614 37.1761C187.558 37.0256 187.474 36.8793 187.363 36.7372C187.255 36.5923 187.107 36.473 186.92 36.3793C186.732 36.2855 186.492 36.2386 186.2 36.2386C185.799 36.2386 185.465 36.331 185.198 36.5156C184.934 36.6974 184.802 36.929 184.802 37.2102C184.802 37.4602 184.893 37.6577 185.075 37.8026C185.256 37.9474 185.54 38.0682 185.927 38.1648L186.898 38.4034C187.484 38.5455 187.92 38.7628 188.207 39.0554C188.494 39.3452 188.637 39.7187 188.637 40.1761C188.637 40.5511 188.529 40.8864 188.313 41.1818C188.1 41.4773 187.802 41.7102 187.418 41.8807C187.035 42.0511 186.589 42.1364 186.08 42.1364C185.413 42.1364 184.86 41.9915 184.423 41.7017C183.985 41.4119 183.708 40.9886 183.592 40.4318L184.546 40.1932C184.637 40.5455 184.809 40.8097 185.062 40.9858C185.317 41.1619 185.651 41.25 186.063 41.25C186.532 41.25 186.904 41.1506 187.18 40.9517C187.458 40.75 187.597 40.5085 187.597 40.2273C187.597 40 187.518 39.8097 187.359 39.6562C187.2 39.5 186.955 39.3835 186.626 39.3068L185.535 39.0511C184.935 38.9091 184.495 38.6889 184.214 38.3906C183.935 38.0895 183.796 37.7131 183.796 37.2614C183.796 36.892 183.9 36.5653 184.107 36.2812C184.317 35.9972 184.603 35.7741 184.964 35.6122C185.327 35.4503 185.739 35.3693 186.2 35.3693C186.847 35.3693 187.356 35.5114 187.725 35.7955C188.097 36.0795 188.362 36.4545 188.518 36.9205ZM200.583 33.2727V42H199.56L194.804 35.1477H194.719V42H193.662V33.2727H194.685L199.458 40.142H199.543V33.2727H200.583ZM205.305 42.1364C204.675 42.1364 204.131 41.9972 203.673 41.7188C203.219 41.4375 202.868 41.0455 202.621 40.5426C202.376 40.0369 202.254 39.4489 202.254 38.7784C202.254 38.108 202.376 37.517 202.621 37.0057C202.868 36.4915 203.212 36.0909 203.652 35.804C204.095 35.5142 204.612 35.3693 205.203 35.3693C205.544 35.3693 205.881 35.4261 206.213 35.5398C206.545 35.6534 206.848 35.8381 207.121 36.0938C207.393 36.3466 207.611 36.6818 207.773 37.0994C207.935 37.517 208.016 38.0312 208.016 38.642V39.0682H202.97V38.1989H206.993C206.993 37.8295 206.919 37.5 206.771 37.2102C206.626 36.9205 206.419 36.6918 206.149 36.5241C205.882 36.3565 205.567 36.2727 205.203 36.2727C204.803 36.2727 204.456 36.3722 204.163 36.571C203.874 36.767 203.651 37.0227 203.494 37.3381C203.338 37.6534 203.26 37.9915 203.26 38.3523V38.9318C203.26 39.4261 203.345 39.8452 203.516 40.1889C203.689 40.5298 203.929 40.7898 204.236 40.9688C204.543 41.1449 204.899 41.233 205.305 41.233C205.57 41.233 205.808 41.196 206.021 41.1222C206.237 41.0455 206.423 40.9318 206.58 40.7812C206.736 40.6278 206.857 40.4375 206.942 40.2102L207.913 40.483C207.811 40.8125 207.639 41.1023 207.398 41.3523C207.156 41.5994 206.858 41.7926 206.503 41.9318C206.148 42.0682 205.749 42.1364 205.305 42.1364ZM211.028 42L209.034 35.4545H210.091L211.506 40.4659H211.574L212.972 35.4545H214.045L215.426 40.4489H215.494L216.909 35.4545H217.966L215.972 42H214.983L213.551 36.9716H213.449L212.017 42H211.028ZM222.807 42V33.2727H225.756C226.438 33.2727 226.997 33.3892 227.435 33.6222C227.872 33.8523 228.196 34.169 228.406 34.5724C228.616 34.9759 228.722 35.4347 228.722 35.9489C228.722 36.4631 228.616 36.919 228.406 37.3168C228.196 37.7145 227.874 38.027 227.439 38.2543C227.004 38.4787 226.449 38.5909 225.773 38.5909H223.386V37.6364H225.739C226.205 37.6364 226.58 37.5682 226.864 37.4318C227.151 37.2955 227.358 37.1023 227.486 36.8523C227.616 36.5994 227.682 36.2983 227.682 35.9489C227.682 35.5994 227.616 35.294 227.486 35.0327C227.355 34.7713 227.146 34.5696 226.859 34.4276C226.572 34.2827 226.193 34.2102 225.722 34.2102H223.864V42H222.807ZM226.915 38.0795L229.062 42H227.835L225.722 38.0795H226.915ZM232.935 42.1364C232.344 42.1364 231.826 41.9957 231.38 41.7145C230.936 41.4332 230.59 41.0398 230.34 40.5341C230.093 40.0284 229.969 39.4375 229.969 38.7614C229.969 38.0795 230.093 37.4844 230.34 36.9759C230.59 36.4673 230.936 36.0724 231.38 35.7912C231.826 35.5099 232.344 35.3693 232.935 35.3693C233.526 35.3693 234.043 35.5099 234.486 35.7912C234.932 36.0724 235.279 36.4673 235.526 36.9759C235.776 37.4844 235.901 38.0795 235.901 38.7614C235.901 39.4375 235.776 40.0284 235.526 40.5341C235.279 41.0398 234.932 41.4332 234.486 41.7145C234.043 41.9957 233.526 42.1364 232.935 42.1364ZM232.935 41.233C233.384 41.233 233.753 41.1179 234.043 40.8878C234.333 40.6577 234.547 40.3551 234.686 39.9801C234.826 39.6051 234.895 39.1989 234.895 38.7614C234.895 38.3239 234.826 37.9162 234.686 37.5384C234.547 37.1605 234.333 36.8551 234.043 36.6222C233.753 36.3892 233.384 36.2727 232.935 36.2727C232.486 36.2727 232.117 36.3892 231.827 36.6222C231.537 36.8551 231.323 37.1605 231.184 37.5384C231.044 37.9162 230.975 38.3239 230.975 38.7614C230.975 39.1989 231.044 39.6051 231.184 39.9801C231.323 40.3551 231.537 40.6577 231.827 40.8878C232.117 41.1179 232.486 41.233 232.935 41.233ZM237.436 42V35.4545H238.408V36.4773H238.493C238.629 36.1278 238.849 35.8565 239.153 35.6634C239.457 35.4673 239.822 35.3693 240.249 35.3693C240.68 35.3693 241.04 35.4673 241.327 35.6634C241.616 35.8565 241.842 36.1278 242.004 36.4773H242.072C242.24 36.1392 242.491 35.8707 242.827 35.6719C243.162 35.4702 243.564 35.3693 244.033 35.3693C244.618 35.3693 245.097 35.5526 245.469 35.919C245.841 36.2827 246.027 36.8494 246.027 37.6193V42H245.021V37.6193C245.021 37.1364 244.889 36.7912 244.625 36.5838C244.361 36.3764 244.05 36.2727 243.692 36.2727C243.232 36.2727 242.875 36.4119 242.622 36.6903C242.369 36.9659 242.243 37.3153 242.243 37.7386V42H241.22V37.517C241.22 37.1449 241.099 36.8452 240.858 36.6179C240.616 36.3878 240.305 36.2727 239.925 36.2727C239.663 36.2727 239.419 36.3423 239.192 36.4815C238.967 36.6207 238.786 36.8139 238.646 37.0611C238.51 37.3054 238.442 37.5881 238.442 37.9091V42H237.436ZM249.792 42.1534C249.377 42.1534 249.001 42.0753 248.663 41.919C248.325 41.7599 248.056 41.5312 247.857 41.233C247.658 40.9318 247.559 40.5682 247.559 40.142C247.559 39.767 247.633 39.4631 247.781 39.2301C247.928 38.9943 248.126 38.8097 248.373 38.6761C248.62 38.5426 248.893 38.4432 249.191 38.3778C249.492 38.3097 249.795 38.2557 250.099 38.2159C250.496 38.1648 250.819 38.1264 251.066 38.1009C251.316 38.0724 251.498 38.0256 251.612 37.9602C251.728 37.8949 251.786 37.7812 251.786 37.6193V37.5852C251.786 37.1648 251.671 36.8381 251.441 36.6051C251.214 36.3722 250.869 36.2557 250.406 36.2557C249.925 36.2557 249.549 36.3608 249.276 36.571C249.004 36.7812 248.812 37.0057 248.701 37.2443L247.746 36.9034C247.917 36.5057 248.144 36.196 248.428 35.9744C248.715 35.75 249.028 35.5937 249.366 35.5057C249.707 35.4148 250.042 35.3693 250.371 35.3693C250.582 35.3693 250.823 35.3949 251.096 35.446C251.371 35.4943 251.637 35.5952 251.893 35.7486C252.151 35.902 252.366 36.1335 252.536 36.4432C252.707 36.7528 252.792 37.1676 252.792 37.6875V42H251.786V41.1136H251.735C251.667 41.2557 251.553 41.4077 251.394 41.5696C251.235 41.7315 251.023 41.8693 250.759 41.983C250.495 42.0966 250.173 42.1534 249.792 42.1534ZM249.945 41.25C250.343 41.25 250.678 41.1719 250.951 41.0156C251.227 40.8594 251.434 40.6577 251.573 40.4105C251.715 40.1634 251.786 39.9034 251.786 39.6307V38.7102C251.744 38.7614 251.65 38.8082 251.505 38.8509C251.363 38.8906 251.198 38.9261 251.011 38.9574C250.826 38.9858 250.646 39.0114 250.469 39.0341C250.296 39.054 250.156 39.071 250.048 39.0852C249.786 39.1193 249.542 39.1747 249.315 39.2514C249.09 39.3253 248.908 39.4375 248.769 39.5881C248.633 39.7358 248.565 39.9375 248.565 40.1932C248.565 40.5426 248.694 40.8068 248.952 40.9858C249.214 41.1619 249.545 41.25 249.945 41.25ZM255.633 38.0625V42H254.627V35.4545H255.599V36.4773H255.684C255.838 36.1449 256.071 35.8778 256.383 35.6761C256.696 35.4716 257.099 35.3693 257.593 35.3693C258.037 35.3693 258.424 35.4602 258.757 35.642C259.089 35.821 259.348 36.0938 259.532 36.4602C259.717 36.8239 259.809 37.2841 259.809 37.8409V42H258.804V37.9091C258.804 37.3949 258.67 36.9943 258.403 36.7074C258.136 36.4176 257.77 36.2727 257.304 36.2727C256.983 36.2727 256.696 36.3423 256.443 36.4815C256.193 36.6207 255.995 36.8239 255.85 37.0909C255.706 37.358 255.633 37.6818 255.633 38.0625Z" fill="#596063"/>
<path d="M340.057 42V33.2727H343.006C343.69 33.2727 344.25 33.3963 344.685 33.6435C345.122 33.8878 345.446 34.2188 345.656 34.6364C345.866 35.054 345.972 35.5199 345.972 36.0341C345.972 36.5483 345.866 37.0156 345.656 37.4361C345.449 37.8565 345.128 38.1918 344.693 38.4418C344.259 38.6889 343.702 38.8125 343.023 38.8125H340.909V37.875H342.989C343.457 37.875 343.834 37.794 344.118 37.6321C344.402 37.4702 344.608 37.2514 344.736 36.9759C344.866 36.6974 344.932 36.3835 344.932 36.0341C344.932 35.6847 344.866 35.3722 344.736 35.0966C344.608 34.821 344.401 34.6051 344.114 34.4489C343.827 34.2898 343.446 34.2102 342.972 34.2102H341.114V42H340.057ZM347.538 42V35.4545H348.509V36.4432H348.577C348.697 36.1193 348.913 35.8565 349.225 35.6548C349.538 35.4531 349.89 35.3523 350.282 35.3523C350.356 35.3523 350.448 35.3537 350.559 35.3565C350.67 35.3594 350.754 35.3636 350.81 35.3693V36.392C350.776 36.3835 350.698 36.3707 350.576 36.3537C350.457 36.3338 350.33 36.3239 350.197 36.3239C349.879 36.3239 349.594 36.3906 349.344 36.5241C349.097 36.6548 348.901 36.8366 348.756 37.0696C348.614 37.2997 348.543 37.5625 348.543 37.858V42H347.538ZM353.929 42.1534C353.514 42.1534 353.137 42.0753 352.799 41.919C352.461 41.7599 352.193 41.5312 351.994 41.233C351.795 40.9318 351.696 40.5682 351.696 40.142C351.696 39.767 351.77 39.4631 351.917 39.2301C352.065 38.9943 352.262 38.8097 352.51 38.6761C352.757 38.5426 353.029 38.4432 353.328 38.3778C353.629 38.3097 353.931 38.2557 354.235 38.2159C354.633 38.1648 354.956 38.1264 355.203 38.1009C355.453 38.0724 355.635 38.0256 355.748 37.9602C355.865 37.8949 355.923 37.7812 355.923 37.6193V37.5852C355.923 37.1648 355.808 36.8381 355.578 36.6051C355.35 36.3722 355.005 36.2557 354.542 36.2557C354.062 36.2557 353.686 36.3608 353.413 36.571C353.14 36.7812 352.949 37.0057 352.838 37.2443L351.883 36.9034C352.054 36.5057 352.281 36.196 352.565 35.9744C352.852 35.75 353.164 35.5937 353.502 35.5057C353.843 35.4148 354.179 35.3693 354.508 35.3693C354.718 35.3693 354.96 35.3949 355.233 35.446C355.508 35.4943 355.774 35.5952 356.029 35.7486C356.288 35.902 356.502 36.1335 356.673 36.4432C356.843 36.7528 356.929 37.1676 356.929 37.6875V42H355.923V41.1136H355.872C355.804 41.2557 355.69 41.4077 355.531 41.5696C355.372 41.7315 355.16 41.8693 354.896 41.983C354.632 42.0966 354.309 42.1534 353.929 42.1534ZM354.082 41.25C354.48 41.25 354.815 41.1719 355.088 41.0156C355.363 40.8594 355.571 40.6577 355.71 40.4105C355.852 40.1634 355.923 39.9034 355.923 39.6307V38.7102C355.88 38.7614 355.787 38.8082 355.642 38.8509C355.5 38.8906 355.335 38.9261 355.147 38.9574C354.963 38.9858 354.782 39.0114 354.606 39.0341C354.433 39.054 354.292 39.071 354.184 39.0852C353.923 39.1193 353.679 39.1747 353.451 39.2514C353.227 39.3253 353.045 39.4375 352.906 39.5881C352.77 39.7358 352.701 39.9375 352.701 40.1932C352.701 40.5426 352.831 40.8068 353.089 40.9858C353.35 41.1619 353.681 41.25 354.082 41.25ZM361.611 35.4545V36.3068H358.219V35.4545H361.611ZM359.207 33.8864H360.213V40.125C360.213 40.4091 360.254 40.6222 360.337 40.7642C360.422 40.9034 360.53 40.9972 360.661 41.0455C360.794 41.0909 360.935 41.1136 361.082 41.1136C361.193 41.1136 361.284 41.108 361.355 41.0966C361.426 41.0824 361.483 41.071 361.526 41.0625L361.73 41.9659C361.662 41.9915 361.567 42.017 361.445 42.0426C361.322 42.071 361.168 42.0852 360.98 42.0852C360.696 42.0852 360.418 42.0241 360.145 41.902C359.875 41.7798 359.651 41.5938 359.472 41.3438C359.295 41.0938 359.207 40.7784 359.207 40.3977V33.8864ZM365.05 42.1534C364.635 42.1534 364.259 42.0753 363.92 41.919C363.582 41.7599 363.314 41.5312 363.115 41.233C362.916 40.9318 362.817 40.5682 362.817 40.142C362.817 39.767 362.891 39.4631 363.038 39.2301C363.186 38.9943 363.384 38.8097 363.631 38.6761C363.878 38.5426 364.151 38.4432 364.449 38.3778C364.75 38.3097 365.053 38.2557 365.357 38.2159C365.754 38.1648 366.077 38.1264 366.324 38.1009C366.574 38.0724 366.756 38.0256 366.869 37.9602C366.986 37.8949 367.044 37.7812 367.044 37.6193V37.5852C367.044 37.1648 366.929 36.8381 366.699 36.6051C366.472 36.3722 366.126 36.2557 365.663 36.2557C365.183 36.2557 364.807 36.3608 364.534 36.571C364.261 36.7812 364.07 37.0057 363.959 37.2443L363.004 36.9034C363.175 36.5057 363.402 36.196 363.686 35.9744C363.973 35.75 364.286 35.5937 364.624 35.5057C364.964 35.4148 365.3 35.3693 365.629 35.3693C365.839 35.3693 366.081 35.3949 366.354 35.446C366.629 35.4943 366.895 35.5952 367.151 35.7486C367.409 35.902 367.624 36.1335 367.794 36.4432C367.964 36.7528 368.05 37.1676 368.05 37.6875V42H367.044V41.1136H366.993C366.925 41.2557 366.811 41.4077 366.652 41.5696C366.493 41.7315 366.281 41.8693 366.017 41.983C365.753 42.0966 365.43 42.1534 365.05 42.1534ZM365.203 41.25C365.601 41.25 365.936 41.1719 366.209 41.0156C366.484 40.8594 366.692 40.6577 366.831 40.4105C366.973 40.1634 367.044 39.9034 367.044 39.6307V38.7102C367.001 38.7614 366.908 38.8082 366.763 38.8509C366.621 38.8906 366.456 38.9261 366.268 38.9574C366.084 38.9858 365.903 39.0114 365.727 39.0341C365.554 39.054 365.413 39.071 365.305 39.0852C365.044 39.1193 364.8 39.1747 364.572 39.2514C364.348 39.3253 364.166 39.4375 364.027 39.5881C363.891 39.7358 363.822 39.9375 363.822 40.1932C363.822 40.5426 363.952 40.8068 364.21 40.9858C364.472 41.1619 364.803 41.25 365.203 41.25Z" fill="#596063"/>
<path d="M439.08 36H438.023C437.96 35.696 437.851 35.429 437.695 35.1989C437.541 34.9688 437.354 34.7756 437.132 34.6193C436.913 34.4602 436.67 34.3409 436.403 34.2614C436.136 34.1818 435.858 34.142 435.568 34.142C435.04 34.142 434.561 34.2756 434.132 34.5426C433.706 34.8097 433.366 35.2031 433.114 35.723C432.864 36.2429 432.739 36.8807 432.739 37.6364C432.739 38.392 432.864 39.0298 433.114 39.5497C433.366 40.0696 433.706 40.4631 434.132 40.7301C434.561 40.9972 435.04 41.1307 435.568 41.1307C435.858 41.1307 436.136 41.0909 436.403 41.0114C436.67 40.9318 436.913 40.8139 437.132 40.6577C437.354 40.4986 437.541 40.304 437.695 40.0739C437.851 39.8409 437.96 39.5739 438.023 39.2727H439.08C439 39.7187 438.855 40.1179 438.645 40.4702C438.435 40.8224 438.173 41.1222 437.861 41.3693C437.548 41.6136 437.197 41.7997 436.808 41.9276C436.422 42.0554 436.009 42.1193 435.568 42.1193C434.824 42.1193 434.162 41.9375 433.582 41.5739C433.003 41.2102 432.547 40.6932 432.214 40.0227C431.882 39.3523 431.716 38.5568 431.716 37.6364C431.716 36.7159 431.882 35.9205 432.214 35.25C432.547 34.5795 433.003 34.0625 433.582 33.6989C434.162 33.3352 434.824 33.1534 435.568 33.1534C436.009 33.1534 436.422 33.2173 436.808 33.3452C437.197 33.473 437.548 33.6605 437.861 33.9077C438.173 34.152 438.435 34.4503 438.645 34.8026C438.855 35.152 439 35.5511 439.08 36ZM443.31 42.1364C442.719 42.1364 442.201 41.9957 441.755 41.7145C441.311 41.4332 440.965 41.0398 440.715 40.5341C440.468 40.0284 440.344 39.4375 440.344 38.7614C440.344 38.0795 440.468 37.4844 440.715 36.9759C440.965 36.4673 441.311 36.0724 441.755 35.7912C442.201 35.5099 442.719 35.3693 443.31 35.3693C443.901 35.3693 444.418 35.5099 444.861 35.7912C445.307 36.0724 445.654 36.4673 445.901 36.9759C446.151 37.4844 446.276 38.0795 446.276 38.7614C446.276 39.4375 446.151 40.0284 445.901 40.5341C445.654 41.0398 445.307 41.4332 444.861 41.7145C444.418 41.9957 443.901 42.1364 443.31 42.1364ZM443.31 41.233C443.759 41.233 444.128 41.1179 444.418 40.8878C444.708 40.6577 444.922 40.3551 445.061 39.9801C445.201 39.6051 445.27 39.1989 445.27 38.7614C445.27 38.3239 445.201 37.9162 445.061 37.5384C444.922 37.1605 444.708 36.8551 444.418 36.6222C444.128 36.3892 443.759 36.2727 443.31 36.2727C442.861 36.2727 442.492 36.3892 442.202 36.6222C441.912 36.8551 441.698 37.1605 441.559 37.5384C441.419 37.9162 441.35 38.3239 441.35 38.7614C441.35 39.1989 441.419 39.6051 441.559 39.9801C441.698 40.3551 441.912 40.6577 442.202 40.8878C442.492 41.1179 442.861 41.233 443.31 41.233ZM451.936 39.3239V35.4545H452.942V42H451.936V40.892H451.868C451.714 41.2244 451.476 41.5071 451.152 41.7401C450.828 41.9702 450.419 42.0852 449.925 42.0852C449.516 42.0852 449.152 41.9957 448.834 41.8168C448.516 41.6349 448.266 41.3622 448.084 40.9986C447.902 40.6321 447.811 40.1705 447.811 39.6136V35.4545H448.817V39.5455C448.817 40.0227 448.95 40.4034 449.217 40.6875C449.487 40.9716 449.831 41.1136 450.249 41.1136C450.499 41.1136 450.753 41.0497 451.011 40.9219C451.273 40.794 451.491 40.598 451.668 40.3338C451.847 40.0696 451.936 39.733 451.936 39.3239ZM454.784 42V35.4545H455.755V36.4432H455.824C455.943 36.1193 456.159 35.8565 456.471 35.6548C456.784 35.4531 457.136 35.3523 457.528 35.3523C457.602 35.3523 457.694 35.3537 457.805 35.3565C457.916 35.3594 458 35.3636 458.056 35.3693V36.392C458.022 36.3835 457.944 36.3707 457.822 36.3537C457.703 36.3338 457.576 36.3239 457.443 36.3239C457.125 36.3239 456.841 36.3906 456.591 36.5241C456.343 36.6548 456.147 36.8366 456.002 37.0696C455.86 37.2997 455.789 37.5625 455.789 37.858V42H454.784ZM459.249 42V35.4545H460.254V42H459.249ZM459.76 34.3636C459.564 34.3636 459.395 34.2969 459.253 34.1634C459.114 34.0298 459.044 33.8693 459.044 33.6818C459.044 33.4943 459.114 33.3338 459.253 33.2003C459.395 33.0668 459.564 33 459.76 33C459.956 33 460.124 33.0668 460.263 33.2003C460.405 33.3338 460.476 33.4943 460.476 33.6818C460.476 33.8693 460.405 34.0298 460.263 34.1634C460.124 34.2969 459.956 34.3636 459.76 34.3636ZM464.841 42.1364C464.21 42.1364 463.666 41.9972 463.208 41.7188C462.754 41.4375 462.403 41.0455 462.156 40.5426C461.912 40.0369 461.789 39.4489 461.789 38.7784C461.789 38.108 461.912 37.517 462.156 37.0057C462.403 36.4915 462.747 36.0909 463.187 35.804C463.63 35.5142 464.147 35.3693 464.738 35.3693C465.079 35.3693 465.416 35.4261 465.748 35.5398C466.081 35.6534 466.383 35.8381 466.656 36.0938C466.929 36.3466 467.146 36.6818 467.308 37.0994C467.47 37.517 467.551 38.0312 467.551 38.642V39.0682H462.505V38.1989H466.528C466.528 37.8295 466.454 37.5 466.306 37.2102C466.162 36.9205 465.954 36.6918 465.684 36.5241C465.417 36.3565 465.102 36.2727 464.738 36.2727C464.338 36.2727 463.991 36.3722 463.699 36.571C463.409 36.767 463.186 37.0227 463.029 37.3381C462.873 37.6534 462.795 37.9915 462.795 38.3523V38.9318C462.795 39.4261 462.88 39.8452 463.051 40.1889C463.224 40.5298 463.464 40.7898 463.771 40.9688C464.078 41.1449 464.434 41.233 464.841 41.233C465.105 41.233 465.343 41.196 465.556 41.1222C465.772 41.0455 465.958 40.9318 466.115 40.7812C466.271 40.6278 466.392 40.4375 466.477 40.2102L467.449 40.483C467.346 40.8125 467.174 41.1023 466.933 41.3523C466.691 41.5994 466.393 41.7926 466.038 41.9318C465.683 42.0682 465.284 42.1364 464.841 42.1364ZM469.081 42V35.4545H470.052V36.4432H470.12C470.24 36.1193 470.456 35.8565 470.768 35.6548C471.081 35.4531 471.433 35.3523 471.825 35.3523C471.899 35.3523 471.991 35.3537 472.102 35.3565C472.213 35.3594 472.297 35.3636 472.353 35.3693V36.392C472.319 36.3835 472.241 36.3707 472.119 36.3537C472 36.3338 471.873 36.3239 471.74 36.3239C471.422 36.3239 471.137 36.3906 470.887 36.5241C470.64 36.6548 470.444 36.8366 470.299 37.0696C470.157 37.2997 470.086 37.5625 470.086 37.858V42H469.081ZM483.977 33.2727V42H482.955L478.199 35.1477H478.114V42H477.057V33.2727H478.08L482.852 40.142H482.938V33.2727H483.977ZM488.7 42.1364C488.069 42.1364 487.525 41.9972 487.068 41.7188C486.613 41.4375 486.262 41.0455 486.015 40.5426C485.771 40.0369 485.649 39.4489 485.649 38.7784C485.649 38.108 485.771 37.517 486.015 37.0057C486.262 36.4915 486.606 36.0909 487.047 35.804C487.49 35.5142 488.007 35.3693 488.598 35.3693C488.939 35.3693 489.275 35.4261 489.608 35.5398C489.94 35.6534 490.243 35.8381 490.515 36.0938C490.788 36.3466 491.005 36.6818 491.167 37.0994C491.329 37.517 491.41 38.0312 491.41 38.642V39.0682H486.365V38.1989H490.387C490.387 37.8295 490.314 37.5 490.166 37.2102C490.021 36.9205 489.814 36.6918 489.544 36.5241C489.277 36.3565 488.961 36.2727 488.598 36.2727C488.197 36.2727 487.85 36.3722 487.558 36.571C487.268 36.767 487.045 37.0227 486.889 37.3381C486.733 37.6534 486.654 37.9915 486.654 38.3523V38.9318C486.654 39.4261 486.74 39.8452 486.91 40.1889C487.083 40.5298 487.324 40.7898 487.63 40.9688C487.937 41.1449 488.294 41.233 488.7 41.233C488.964 41.233 489.203 41.196 489.416 41.1222C489.632 41.0455 489.818 40.9318 489.974 40.7812C490.13 40.6278 490.251 40.4375 490.336 40.2102L491.308 40.483C491.206 40.8125 491.034 41.1023 490.792 41.3523C490.551 41.5994 490.252 41.7926 489.897 41.9318C489.542 42.0682 489.143 42.1364 488.7 42.1364ZM494.423 42L492.429 35.4545H493.485L494.9 40.4659H494.968L496.366 35.4545H497.44L498.821 40.4489H498.889L500.304 35.4545H501.36L499.366 42H498.377L496.946 36.9716H496.843L495.412 42H494.423Z" fill="#596063"/>
</svg>
