<svg width="37" height="425" viewBox="0 0 37 425" fill="none" xmlns="http://www.w3.org/2000/svg">
<path d="M1.00005 0C1.00007 40.5 12.0003 109.5 22.5 158C32.9997 206.5 30.4996 260.5 15 315.5C7.62019 341.687 1.00001 369 1.00001 389C0.999976 410 1.00005 425 1.00005 425" stroke="#ADE01F" stroke-opacity="0.75" stroke-width="2"/>
<path d="M15.013 0C15.013 40.5 38.9999 88.5 29.9999 137.5C20.9999 186.5 4.99987 268 4.99994 296C5.00001 324 9.24643 345.5 11.0001 358.5C12.7537 371.5 15.013 389 15.013 400C15.013 414 15.013 425 15.013 425" stroke="#1FADE0" stroke-opacity="0.75" stroke-width="2"/>
<path d="M29.0133 0C29.0133 40.5 14 88 5.00004 137C-3.99994 186 24.0002 249.5 32.0002 280C40.0002 310.5 30.9868 341.5 30.0001 372C29.6325 383.359 29.0133 394 29.0133 402.5C29.0133 416.5 29.0133 425 29.0133 425" stroke="#E01FAD" stroke-opacity="0.75" stroke-width="2"/>
</svg>
