<svg width="251" height="168" viewBox="0 0 251 168" fill="none" xmlns="http://www.w3.org/2000/svg">
<circle cx="84" cy="84" r="84" fill="#C4C4C4"/>
<mask id="mask0_122_551" style="mask-type:alpha" maskUnits="userSpaceOnUse" x="0" y="0" width="168" height="168">
<circle cx="84" cy="84" r="84" fill="#1FADE0"/>
</mask>
<g mask="url(#mask0_122_551)">
<path d="M62 1L70.5 32L97.5 34L106.5 0L112.5 -12L62 1Z" fill="#F64724"/>
</g>
<mask id="mask1_122_551" style="mask-type:alpha" maskUnits="userSpaceOnUse" x="0" y="0" width="168" height="168">
<circle cx="84" cy="84" r="84" fill="#C4C4C4"/>
</mask>
<g mask="url(#mask1_122_551)">
<path d="M121.5 46L97.5 32L106.5 0.5L110 -3.5L145.5 22.5L121.5 46Z" fill="#FE641C"/>
</g>
<mask id="mask2_122_551" style="mask-type:alpha" maskUnits="userSpaceOnUse" x="0" y="0" width="168" height="168">
<circle cx="84" cy="84" r="84" fill="#C4C4C4"/>
</mask>
<g mask="url(#mask2_122_551)">
<path d="M146 22L121.5 46L132 71L169.5 61L146 22Z" fill="#FF9710"/>
</g>
<mask id="mask3_122_551" style="mask-type:alpha" maskUnits="userSpaceOnUse" x="0" y="0" width="168" height="168">
<circle cx="84" cy="84" r="84" fill="#C4C4C4"/>
</mask>
<g mask="url(#mask3_122_551)">
<path d="M170 60.5L136 70.5L134 97.5L166.5 106.5L177 107.5L170 60.5Z" fill="#FCBA35"/>
</g>
<mask id="mask4_122_551" style="mask-type:alpha" maskUnits="userSpaceOnUse" x="0" y="0" width="168" height="168">
<circle cx="84" cy="84" r="84" fill="#C4C4C4"/>
</mask>
<g mask="url(#mask4_122_551)">
<path d="M169 107L136 98L121 121.5L144.5 144L152.5 145L169 107Z" fill="#F8E323"/>
</g>
<mask id="mask5_122_551" style="mask-type:alpha" maskUnits="userSpaceOnUse" x="0" y="0" width="168" height="168">
<circle cx="84" cy="84" r="84" fill="#C4C4C4"/>
</mask>
<g mask="url(#mask5_122_551)">
<path d="M121 121L145 145.5L133 161.5L106.5 167.5L97.5 136L121 121Z" fill="#CED42C"/>
</g>
<mask id="mask6_122_551" style="mask-type:alpha" maskUnits="userSpaceOnUse" x="0" y="0" width="168" height="168">
<circle cx="84" cy="84" r="84" fill="#C4C4C4"/>
</mask>
<g mask="url(#mask6_122_551)">
<path d="M98 135L106 166.5L91.5 175L61.5 166.5L69.5 137V135H98Z" fill="#60A247"/>
</g>
<mask id="mask7_122_551" style="mask-type:alpha" maskUnits="userSpaceOnUse" x="0" y="0" width="168" height="168">
<circle cx="84" cy="84" r="84" fill="#C4C4C4"/>
</mask>
<g mask="url(#mask7_122_551)">
<path d="M61.5 167.5L70.5 136L46.5 121.5L23.5 144.5L25 152.5L61.5 167.5Z" fill="#0E89CF"/>
</g>
<mask id="mask8_122_551" style="mask-type:alpha" maskUnits="userSpaceOnUse" x="0" y="0" width="168" height="168">
<circle cx="84" cy="84" r="84" fill="#C4C4C4"/>
</mask>
<g mask="url(#mask8_122_551)">
<path d="M32 98.5L46 122.5L24 144L20 149L0 106.5L32 98.5Z" fill="#4360B2"/>
</g>
<mask id="mask9_122_551" style="mask-type:alpha" maskUnits="userSpaceOnUse" x="0" y="0" width="168" height="168">
<circle cx="84" cy="84" r="84" fill="#C4C4C4"/>
</mask>
<g mask="url(#mask9_122_551)">
<path d="M-1.5 107L32 98L33.5 70.5L-4.5 60.5L-1.5 107Z" fill="#483E92"/>
</g>
<mask id="mask10_122_551" style="mask-type:alpha" maskUnits="userSpaceOnUse" x="0" y="0" width="168" height="168">
<circle cx="84" cy="84" r="84" fill="#C4C4C4"/>
</mask>
<g mask="url(#mask10_122_551)">
<path d="M-1.5 61L32 70.5L47 47L24.5 24.5L16.5 20.5L-1.5 61Z" fill="#814897"/>
</g>
<mask id="mask11_122_551" style="mask-type:alpha" maskUnits="userSpaceOnUse" x="0" y="0" width="168" height="168">
<circle cx="84" cy="84" r="84" fill="#C4C4C4"/>
</mask>
<g mask="url(#mask11_122_551)">
<path d="M21 21.5L47 46.5L70.5 34L61 -2.5L21 21.5Z" fill="#CA2F45"/>
</g>
<rect x="61.2932" y="3.12134" width="2" height="168" transform="rotate(-15 61.2932 3.12134)" fill="white"/>
<rect x="23.8959" y="25.3101" width="2" height="168" transform="rotate(-45 23.8959 25.3101)" fill="white"/>
<rect x="2.60339" y="63.2251" width="2" height="168" transform="rotate(-75 2.60339 63.2251)" fill="white"/>
<rect x="3.12109" y="106.707" width="2" height="168" transform="rotate(-105 3.12109 106.707)" fill="white"/>
<rect x="25.3102" y="144.104" width="2" height="168" transform="rotate(-135 25.3102 144.104)" fill="white"/>
<rect x="63.2251" y="165.396" width="2" height="168" transform="rotate(-165 63.2251 165.396)" fill="white"/>
<circle cx="84" cy="84" r="55" fill="white"/>
<circle cx="225.5" cy="103.5" r="25.5" fill="#D2CF44"/>
<circle cx="225.5" cy="64.5" r="25.5" fill="#1F94D0"/>
<circle cx="225.5" cy="25.5" r="25.5" fill="#F67A4D"/>
<circle cx="84" cy="22" r="2.5" stroke="#2E2F30"/>
<circle cx="116" cy="138" r="2.5" stroke="#2E2F30"/>
<circle cx="53" cy="138" r="2.5" stroke="#2E2F30"/>
<path d="M84 24.5V81M84 81L115 136M84 81L54 136" stroke="#2E2F30" stroke-dasharray="2 2"/>
</svg>
