<svg width="240" height="166" viewBox="0 0 240 166" fill="none" xmlns="http://www.w3.org/2000/svg">
<g clip-path="url(#clip0_218_896)">
<path d="M64.986 151.221H6.4339C6.4339 151.221 5.24704 133.813 12.2693 133.616C19.2916 133.418 18.5004 141.33 27.303 130.451C36.1056 119.571 46.7874 120.164 48.1721 126.593C49.5567 133.022 45.5016 138.165 52.9195 136.583C60.3375 135 71.0193 139.154 64.986 151.221Z" fill="#1FADE0"/>
<path d="M34.7215 151.225L34.5239 151.217C34.9848 139.756 37.3851 132.392 39.3175 128.233C41.4157 123.717 43.4375 121.889 43.4577 121.871L43.5892 122.018C43.5693 122.036 41.571 123.846 39.4896 128.332C37.5679 132.473 35.1807 139.807 34.7215 151.225Z" fill="#F2F2F2"/>
<path d="M55.913 151.248L55.7231 151.193C58.0098 143.345 63.3944 138.389 63.4486 138.34L63.5815 138.487C63.5278 138.535 58.1834 143.456 55.913 151.248Z" fill="#F2F2F2"/>
<path d="M15.6561 151.234L15.4602 151.207C16.2359 145.612 14.8346 141.271 13.5224 138.614C12.1015 135.738 10.4803 134.167 10.4641 134.152L10.601 134.009C10.6174 134.025 12.2637 135.62 13.6997 138.527C15.0242 141.208 16.4388 145.589 15.6561 151.234Z" fill="#F2F2F2"/>
<path d="M72.9326 151.485H0.118408L0.10161 151.239C0.0597478 150.625 -0.869114 136.151 3.82054 130.987C4.86891 129.833 6.13177 129.227 7.57397 129.186C10.6309 129.099 12.5519 130.244 14.1013 131.163C17.0218 132.896 18.9511 134.04 25.9658 125.371C33.5649 115.978 41.7641 113.958 46.4775 115.081C49.5229 115.807 51.6218 117.859 52.2362 120.711C52.8179 123.412 52.6326 125.95 52.4838 127.989C52.3244 130.17 52.1986 131.894 53.0946 132.675C53.8426 133.326 55.3356 133.385 57.7928 132.861C62.7909 131.795 69.7648 132.707 73.2652 137.23C75.1486 139.663 76.6321 144.086 73.0057 151.339L72.9326 151.485ZM0.615334 150.956H72.6049C75.3072 145.473 75.3916 140.842 72.8468 137.554C69.6356 133.405 62.8987 132.313 57.9032 133.379C55.2335 133.948 53.6427 133.854 52.747 133.074C51.6514 132.119 51.7858 130.279 51.9558 127.95C52.1024 125.945 52.2845 123.449 51.7189 120.823C51.1492 118.178 49.1941 116.273 46.3548 115.596C41.7917 114.507 33.8217 116.502 26.3772 125.703C19.075 134.729 16.8753 133.424 13.8314 131.619C12.2629 130.688 10.4819 129.633 7.58897 129.715C6.29614 129.752 5.16015 130.299 4.2123 131.343C-0.00253057 135.984 0.512097 148.999 0.615334 150.956Z" fill="#CFCCE0"/>
<path d="M229.76 151.221H171.207C171.207 151.221 170.021 133.813 177.043 133.616C184.065 133.418 183.274 141.33 192.077 130.451C200.879 119.571 211.561 120.164 212.946 126.593C214.33 133.022 210.275 138.165 217.693 136.583C225.111 135 235.793 139.154 229.76 151.221Z" fill="#1FADE0"/>
<path d="M199.495 151.225L199.298 151.217C199.758 139.756 202.159 132.392 204.091 128.233C206.189 123.717 208.211 121.889 208.231 121.871L208.363 122.018C208.343 122.036 206.345 123.846 204.263 128.332C202.342 132.473 199.954 139.807 199.495 151.225Z" fill="#F2F2F2"/>
<path d="M220.687 151.248L220.497 151.193C222.783 143.345 228.168 138.389 228.222 138.34L228.355 138.487C228.301 138.535 222.957 143.456 220.687 151.248Z" fill="#F2F2F2"/>
<path d="M180.43 151.234L180.234 151.207C181.009 145.612 179.608 141.271 178.296 138.614C176.875 135.738 175.254 134.167 175.238 134.152L175.375 134.009C175.391 134.025 177.037 135.62 178.473 138.527C179.798 141.208 181.212 145.589 180.43 151.234Z" fill="#F2F2F2"/>
<path d="M237.706 151.485H164.892L164.875 151.239C164.833 150.625 163.905 136.151 168.594 130.987C169.643 129.833 170.905 129.227 172.348 129.186C175.405 129.099 177.326 130.244 178.875 131.163C181.795 132.896 183.725 134.04 190.739 125.371C198.339 115.978 206.538 113.958 211.251 115.081C214.297 115.807 216.395 117.859 217.01 120.711C217.592 123.412 217.406 125.95 217.257 127.989C217.098 130.17 216.972 131.894 217.868 132.675C218.616 133.326 220.109 133.385 222.566 132.861C227.565 131.795 234.538 132.707 238.039 137.23C239.922 139.663 241.406 144.086 237.779 151.339L237.706 151.485ZM165.389 150.956H237.379C240.081 145.473 240.165 140.842 237.62 137.554C234.409 133.405 227.672 132.313 222.677 133.379C220.007 133.948 218.416 133.854 217.521 133.074C216.425 132.119 216.559 130.279 216.729 127.95C216.876 125.945 217.058 123.449 216.493 120.823C215.923 118.178 213.968 116.273 211.128 115.596C206.565 114.507 198.595 116.502 191.151 125.703C183.849 134.729 181.649 133.424 178.605 131.619C177.037 130.688 175.256 129.633 172.363 129.715C171.07 129.752 169.934 130.299 168.986 131.343C164.771 135.984 165.286 148.999 165.389 150.956V150.956Z" fill="#CFCCE0"/>
<path d="M112.845 101.788C107.713 101.788 103.213 107.148 100.732 115.152C100.556 115.714 100.392 116.291 100.238 116.877C99.193 120.98 98.674 125.199 98.6934 129.433C98.6934 144.678 105.041 157.078 112.845 157.078C120.649 157.078 126.997 144.678 126.997 129.433C126.997 114.189 120.649 101.788 112.845 101.788ZM112.845 156.64C105.284 156.64 99.1322 144.434 99.1322 129.433C99.1118 125.181 99.6376 120.944 100.697 116.826C100.841 116.275 100.996 115.736 101.162 115.207C103.577 107.425 107.911 102.227 112.845 102.227C120.406 102.227 126.558 114.432 126.558 129.433C126.558 144.434 120.406 156.64 112.845 156.64Z" fill="#3F3D56"/>
<path d="M116.246 145.417C113.539 145.417 111.419 138.396 111.419 129.433C111.419 120.47 113.539 113.449 116.246 113.449C118.953 113.449 121.073 120.47 121.073 129.433C121.073 138.396 118.953 145.417 116.246 145.417ZM116.246 113.888C113.867 113.888 111.858 121.007 111.858 129.433C111.858 137.859 113.867 144.978 116.246 144.978C118.624 144.978 120.634 137.859 120.634 129.433C120.634 121.007 118.624 113.888 116.246 113.888Z" fill="#3F3D56"/>
<path d="M116.794 133.104C117.824 133.104 118.659 131.461 118.659 129.433C118.659 127.406 117.824 125.762 116.794 125.762C115.764 125.762 114.929 127.406 114.929 129.433C114.929 131.461 115.764 133.104 116.794 133.104Z" fill="#CFCCE0"/>
<path d="M112.735 79.628L142.794 79.5183V91.3603L112.735 92.5729V79.628Z" fill="#3F3D56"/>
<path d="M87.0644 119.791L86.6265 119.767L87.9543 95.6445H115.149V96.0833H88.3696L87.0644 119.791Z" fill="#3F3D56"/>
<path d="M87.0193 158.829L71.6609 156.196L71.7519 155.767L87.1103 158.399L87.0193 158.829Z" fill="#3F3D56"/>
<path d="M90.1544 163.881L90.1184 164.318L108.768 165.854L108.804 165.416L90.1544 163.881Z" fill="#3F3D56"/>
<path d="M133.414 119.815C133.25 120.343 133.095 120.883 132.949 121.434L132.491 121.484L118.22 123.071L85.5291 119.779L119.537 118.024L132.984 119.76L133.414 119.815Z" fill="#3F3D56"/>
<path d="M125.939 41.2998C125.939 41.2998 121.187 39.6027 118.132 46.3912C115.077 53.1797 110.325 60.647 110.325 60.647L113.041 61.3259C113.041 61.3259 113.719 56.5739 115.417 55.8951L114.738 62.0047C114.738 62.0047 135.103 69.1327 144.268 61.3259L143.928 58.9499C143.928 58.9499 145.286 59.2893 145.286 61.3259L146.304 60.3076C146.304 60.3076 145.286 58.2711 142.231 55.5557C140.226 53.7734 139.537 50.3826 139.3 48.2627C139.123 46.4925 138.415 44.8173 137.268 43.4567C135.238 41.1039 131.539 38.6033 125.939 41.2998Z" fill="#2F2E41"/>
<path d="M99.6807 47.7045L97.7061 27.0804C97.7061 27.0804 93.7568 15.8907 99.6807 16.7683C105.605 17.6459 102.094 26.2027 102.094 26.2027L105.385 47.7045H99.6807Z" fill="#FFB9B9"/>
<path d="M84.3222 141.391L82.1282 148.85L86.2969 152.361L89.3686 142.926L84.3222 141.391Z" fill="#FFB9B9"/>
<path d="M101.217 146.876L99.0225 154.775L106.702 159.602C106.702 159.602 106.921 150.606 108.018 148.851L101.217 146.876Z" fill="#FFB9B9"/>
<path d="M110.651 104.75L109.554 106.944C109.554 106.944 97.0479 101.24 93.7568 109.138C90.4657 117.037 83.2253 142.049 83.2253 142.049L89.5881 144.682L101.217 118.134L127.765 117.476L128.862 102.775L110.651 104.75Z" fill="#2F2E41"/>
<path d="M119.866 108.48C119.866 108.48 101.875 104.75 100.558 113.746C99.2419 122.741 101.217 139.855 101.436 140.294C101.655 140.733 100.558 148.851 100.558 148.851L108.457 149.948C108.457 149.948 113.503 126.033 111.309 119.889L126.154 118.971C131.278 118.654 135.465 114.606 135.759 109.48C135.872 107.518 135.381 105.737 133.689 104.75C128.423 101.678 118.769 101.678 118.769 101.678L119.866 108.48Z" fill="#2F2E41"/>
<path d="M84.9805 148.631C84.9805 148.631 83.4447 145.34 81.2506 146.876C79.0566 148.412 74.0102 151.703 74.0102 151.703C74.0102 151.703 66.204 154.452 73.1326 156.31C79.2956 157.964 80.8118 157.627 80.8118 157.627C80.8118 157.627 85.8582 158.504 86.5164 158.066C87.1746 157.627 87.6134 150.606 87.6134 150.606C87.6134 150.606 84.5417 149.948 84.9805 148.631Z" fill="#2F2E41"/>
<path d="M102.094 155.433C102.094 155.433 99.9 152.361 98.3641 153.678C96.8283 154.994 91.3431 158.724 91.3431 158.724C91.3431 158.724 82.1281 161.357 90.2461 163.77C98.3641 166.184 107.36 165.745 107.579 164.867C107.799 163.99 107.14 157.627 107.14 157.627C107.14 157.627 102.533 157.407 102.094 155.433Z" fill="#2F2E41"/>
<path d="M128.423 63.0631C132.785 63.0631 136.321 59.5268 136.321 55.1645C136.321 50.8022 132.785 47.2659 128.423 47.2659C124.06 47.2659 120.524 50.8022 120.524 55.1645C120.524 59.5268 124.06 63.0631 128.423 63.0631Z" fill="#FFB9B9"/>
<path d="M122.718 58.6748C122.718 58.6748 122.279 67.6704 120.085 68.3286C117.891 68.9869 111.748 76.2272 114.6 78.4213C117.453 80.6154 133.908 79.0795 133.908 79.0795L132.372 67.6704C132.372 67.6704 128.862 65.257 131.714 61.0883L122.718 58.6748Z" fill="#FFB9B9"/>
<path d="M122.499 73.5944L120.963 66.354L115.917 64.3794L111.748 74.0332C111.748 74.0332 107.031 105.299 108.347 105.737C109.086 105.998 109.869 106.11 110.651 106.066C110.651 106.066 117.672 103.872 119.866 104.969C122.06 106.066 133.469 106.944 133.469 106.944C133.469 106.944 141.368 102.775 140.929 99.0455C140.49 95.3156 140.929 74.4721 140.929 74.4721L139.942 65.1473L131.285 66.5016L122.499 73.5944Z" fill="#CFCCE0"/>
<path d="M116.136 65.4764L115.917 64.16L109.773 56.7002L106.263 44.1941L97.7058 47.4852L103.849 62.6242L112.625 73.8138L116.136 65.4764Z" fill="#CFCCE0"/>
<path d="M118.046 56.109C118.046 56.109 120.761 52.3753 123.137 51.6965C125.513 51.0176 125.853 47.6234 125.853 47.6234C125.853 47.6234 131.963 54.4119 135.696 54.7513C139.43 55.0907 136.036 46.6051 136.036 46.6051L129.247 44.908L122.798 45.5868L117.707 48.9811L118.046 56.109Z" fill="#2F2E41"/>
<path d="M143.452 106.842L143.24 97.8387H122.822L122.17 121.979L121.731 121.967L122.395 97.3999H143.664L143.671 97.6118L143.891 106.827L143.452 106.842Z" fill="#3F3D56"/>
<path d="M143.013 94.5475H142.574V77.8L149.657 79.8561L149.534 80.2776L143.013 78.3843V94.5475Z" fill="#3F3D56"/>
<path d="M145.098 106.396C139.966 106.396 135.466 111.756 132.984 119.76C132.809 120.321 132.644 120.898 132.491 121.484C131.446 125.587 130.927 129.807 130.946 134.041C130.946 149.285 137.293 161.686 145.098 161.686C152.902 161.686 159.249 149.285 159.249 134.041C159.249 118.796 152.902 106.396 145.098 106.396ZM145.098 161.247C137.537 161.247 131.385 149.041 131.385 134.041C131.364 129.789 131.89 125.552 132.949 121.434C133.094 120.883 133.249 120.343 133.414 119.814C135.83 112.032 140.163 106.834 145.098 106.834C152.658 106.834 158.81 119.04 158.81 134.041C158.81 149.041 152.658 161.247 145.098 161.247Z" fill="#3F3D56"/>
<path d="M148.498 150.025C145.792 150.025 143.672 143.004 143.672 134.041C143.672 125.078 145.792 118.057 148.498 118.057C151.205 118.057 153.325 125.078 153.325 134.041C153.325 143.004 151.205 150.025 148.498 150.025ZM148.498 118.496C146.12 118.496 144.11 125.614 144.11 134.041C144.11 142.467 146.12 149.586 148.498 149.586C150.877 149.586 152.887 142.467 152.887 134.041C152.887 125.614 150.877 118.496 148.498 118.496Z" fill="#3F3D56"/>
<path d="M149.047 137.712C150.077 137.712 150.912 136.068 150.912 134.041C150.912 132.013 150.077 130.37 149.047 130.37C148.017 130.37 147.182 132.013 147.182 134.041C147.182 136.068 148.017 137.712 149.047 137.712Z" fill="#CFCCE0"/>
<path d="M146.085 77.4338L150.692 79.1891L149.815 81.6026L146.085 80.0667V77.4338Z" fill="#3F3D56"/>
<path d="M127.874 96.3027V99.8132H140.947V96.536L127.874 96.3027Z" fill="#3F3D56"/>
<path d="M94.3052 94.5476V98.0581H107.378V94.7808L94.3052 94.5476Z" fill="#3F3D56"/>
<path d="M138.988 20.2544H49.5525V0H138.988V20.2544ZM50.0786 19.7283H138.462V0.526092H50.0786V19.7283Z" fill="#3F3D56"/>
<path d="M66.6505 6.83911H56.6548V16.8348H66.6505V6.83911Z" fill="#1FADE0"/>
<path d="M65.3353 15.5196H54.8135V4.9978H65.3353V15.5196ZM55.3396 14.9935H64.8092V5.52389H55.3396L55.3396 14.9935Z" fill="#3F3D56"/>
<path d="M128.729 7.10229H81.907V7.62838H128.729V7.10229Z" fill="#3F3D56"/>
<path d="M128.729 10.7849H81.907V11.311H128.729V10.7849Z" fill="#3F3D56"/>
<path d="M128.729 14.4675H81.907V14.9936H128.729V14.4675Z" fill="#3F3D56"/>
<path d="M118.22 86.0298H118.114V83.1082C118.114 82.8861 118.07 82.6663 117.985 82.4611C117.9 82.2559 117.775 82.0695 117.618 81.9125C117.461 81.7555 117.275 81.6309 117.07 81.546C116.865 81.461 116.645 81.4172 116.423 81.4172H110.233C110.011 81.4172 109.791 81.461 109.586 81.546C109.381 81.6309 109.194 81.7555 109.037 81.9125C108.88 82.0695 108.756 82.2559 108.671 82.4611C108.586 82.6663 108.542 82.8861 108.542 83.1082V99.1364C108.542 99.3584 108.586 99.5783 108.671 99.7835C108.756 99.9887 108.88 100.175 109.037 100.332C109.194 100.489 109.381 100.614 109.586 100.699C109.791 100.784 110.011 100.827 110.233 100.827H116.423C116.645 100.827 116.865 100.784 117.07 100.699C117.275 100.614 117.461 100.489 117.618 100.332C117.775 100.175 117.9 99.9887 117.985 99.7835C118.07 99.5783 118.114 99.3584 118.114 99.1364V88.1095H118.22V86.0298Z" fill="#3F3D56"/>
<path d="M113.381 87.4319C113.953 87.4319 114.417 86.9681 114.417 86.3961C114.417 85.8241 113.953 85.3604 113.381 85.3604C112.809 85.3604 112.345 85.8241 112.345 86.3961C112.345 86.9681 112.809 87.4319 113.381 87.4319Z" fill="#D0CDE1"/>
<path d="M139.63 96.5143L118.915 96.1247C118.915 96.1247 107.348 98.7724 108.895 92.9872C110.442 87.2019 118.543 91.6651 118.543 91.6651L140.28 90.8469L139.63 96.5143Z" fill="#FFB9B9"/>
<path d="M137.528 66.6832L139.503 65.1474C139.503 65.1474 142.794 63.3921 143.452 69.5355C144.11 75.6788 148.937 96.0836 144.11 96.303C139.283 96.5224 126.997 96.7418 126.997 96.7418L128.313 89.9402L138.406 89.282L137.528 66.6832Z" fill="#CFCCE0"/>
<path opacity="0.15" d="M138.186 76.1174L137.528 88.6236L127.874 90.5982L136.65 87.0877L138.186 76.1174Z" fill="black"/>
</g>
<defs>
<clipPath id="clip0_218_896">
<rect width="240" height="165.854" fill="white"/>
</clipPath>
</defs>
</svg>
