<svg width="240" height="172" viewBox="0 0 240 172" fill="none" xmlns="http://www.w3.org/2000/svg">
<g clip-path="url(#clip0_217_824)">
<path d="M239.897 171.559H90.4392V170.991H240L239.897 171.559Z" fill="#3F3D56"/>
<path d="M1.22387 1.39038e-05C0.899395 0.000391488 0.58832 0.129456 0.358881 0.358895C0.129443 0.588334 0.000377584 0.89941 0 1.22389V71.7181C0.000381029 72.0426 0.129447 72.3537 0.358885 72.5831C0.588324 72.8126 0.899397 72.9416 1.22387 72.942H140.989C141.313 72.9416 141.624 72.8125 141.854 72.5831C142.083 72.3537 142.212 72.0426 142.212 71.7181V1.22387C142.212 0.899401 142.083 0.588326 141.854 0.358887C141.624 0.129449 141.313 0.000381717 140.989 0L1.22387 1.39038e-05Z" fill="#E6E6E6"/>
<path d="M3.18199 1.95813C2.85752 1.95851 2.54645 2.08758 2.31701 2.31701C2.08758 2.54645 1.95851 2.85752 1.95813 3.18199V69.7599C1.95851 70.0844 2.08757 70.3954 2.31701 70.6249C2.54644 70.8543 2.85751 70.9834 3.18199 70.9837H139.03C139.355 70.9834 139.666 70.8543 139.895 70.6249C140.125 70.3954 140.254 70.0844 140.254 69.7599V3.18199C140.254 2.85751 140.125 2.54644 139.895 2.317C139.666 2.08757 139.355 1.95851 139.03 1.95813H3.18199Z" fill="white"/>
<path d="M43.9366 44.7933H15.0535C14.5992 44.7928 14.1637 44.6121 13.8425 44.2909C13.5213 43.9696 13.3406 43.5341 13.3401 43.0799V14.1968C13.3406 13.7425 13.5213 13.307 13.8425 12.9858C14.1637 12.6646 14.5992 12.4839 15.0535 12.4834H43.9366C44.3908 12.4839 44.8263 12.6646 45.1476 12.9858C45.4688 13.307 45.6494 13.7425 45.65 14.1968V43.0799C45.6494 43.5341 45.4688 43.9696 45.1476 44.2909C44.8263 44.6121 44.3908 44.7928 43.9366 44.7933ZM15.0535 12.9729C14.729 12.9733 14.4179 13.1024 14.1885 13.3318C13.9591 13.5613 13.83 13.8723 13.8296 14.1968V43.0799C13.83 43.4043 13.9591 43.7154 14.1885 43.9448C14.4179 44.1743 14.729 44.3034 15.0535 44.3037H43.9366C44.261 44.3034 44.5721 44.1743 44.8015 43.9448C45.031 43.7154 45.16 43.4043 45.1604 43.0799V14.1968C45.16 13.8723 45.031 13.5613 44.8015 13.3318C44.5721 13.1024 44.261 12.9733 43.9366 12.9729H15.0535Z" fill="#3F3D56"/>
<path d="M85.5478 44.7933H56.6647C56.2104 44.7928 55.7749 44.6121 55.4537 44.2909C55.1325 43.9696 54.9518 43.5341 54.9513 43.0799V14.1968C54.9518 13.7425 55.1325 13.307 55.4537 12.9858C55.7749 12.6646 56.2104 12.4839 56.6647 12.4834H85.5478C86.002 12.4839 86.4375 12.6646 86.7588 12.9858C87.08 13.307 87.2607 13.7425 87.2612 14.1968V43.0799C87.2607 43.5341 87.08 43.9696 86.7588 44.2909C86.4375 44.6121 86.002 44.7928 85.5478 44.7933ZM56.6647 12.9729C56.3402 12.9733 56.0291 13.1024 55.7997 13.3318C55.5703 13.5613 55.4412 13.8723 55.4408 14.1968V43.0799C55.4412 43.4043 55.5703 43.7154 55.7997 43.9448C56.0291 44.1743 56.3402 44.3034 56.6647 44.3037H85.5478C85.8722 44.3034 86.1833 44.1743 86.4127 43.9448C86.6422 43.7154 86.7712 43.4043 86.7716 43.0799V14.1968C86.7712 13.8723 86.6422 13.5613 86.4127 13.3318C86.1833 13.1024 85.8722 12.9733 85.5478 12.9729H56.6647Z" fill="#E6E6E6"/>
<path d="M58.8677 15.1758C58.5432 15.1762 58.2321 15.3052 58.0027 15.5347C57.7732 15.7641 57.6442 16.0752 57.6438 16.3997V40.8768C57.6442 41.2013 57.7732 41.5124 58.0027 41.7418C58.2321 41.9713 58.5432 42.1003 58.8677 42.1007H83.3448C83.6693 42.1003 83.9804 41.9713 84.2098 41.7418C84.4393 41.5124 84.5683 41.2013 84.5687 40.8768V16.3997C84.5683 16.0752 84.4393 15.7641 84.2098 15.5347C83.9804 15.3052 83.6693 15.1762 83.3448 15.1758L58.8677 15.1758Z" fill="#E6E6E6"/>
<path d="M17.3788 15.1758C17.0543 15.1762 16.7432 15.3052 16.5138 15.5347C16.2843 15.7641 16.1553 16.0752 16.1549 16.3997V40.8768C16.1553 41.2013 16.2843 41.5124 16.5138 41.7418C16.7432 41.9713 17.0543 42.1003 17.3788 42.1007H41.8559C42.1804 42.1003 42.4915 41.9713 42.7209 41.7418C42.9503 41.5124 43.0794 41.2013 43.0798 40.8768V16.3997C43.0794 16.0752 42.9503 15.7641 42.7209 15.5347C42.4915 15.3052 42.1804 15.1762 41.8559 15.1758L17.3788 15.1758Z" fill="#3F3D56"/>
<path d="M100.356 15.1758C100.032 15.1762 99.7209 15.3052 99.4914 15.5347C99.262 15.7641 99.1329 16.0752 99.1326 16.3997V40.8768C99.1329 41.2013 99.262 41.5124 99.4914 41.7418C99.7209 41.9713 100.032 42.1003 100.356 42.1007H124.834C125.158 42.1003 125.469 41.9713 125.699 41.7418C125.928 41.5124 126.057 41.2013 126.057 40.8768V16.3997C126.057 16.0752 125.928 15.7641 125.699 15.5347C125.469 15.3052 125.158 15.1762 124.834 15.1758L100.356 15.1758Z" fill="#1FADE0"/>
<path d="M127.159 44.7933H98.2759C97.8216 44.7927 97.3861 44.612 97.0649 44.2908C96.7437 43.9696 96.563 43.5341 96.5625 43.0799V14.1968C96.563 13.7425 96.7437 13.307 97.0649 12.9858C97.3861 12.6646 97.8216 12.4839 98.2759 12.4834H127.159C127.613 12.4839 128.049 12.6646 128.37 12.9858C128.691 13.307 128.872 13.7425 128.872 14.1968V43.0799C128.872 43.5341 128.691 43.9696 128.37 44.2908C128.049 44.612 127.613 44.7927 127.159 44.7933ZM98.2759 12.9729C97.9514 12.9733 97.6404 13.1024 97.4109 13.3318C97.1815 13.5613 97.0524 13.8723 97.052 14.1968V43.0799C97.0524 43.4043 97.1815 43.7154 97.4109 43.9448C97.6403 44.1743 97.9514 44.3034 98.2759 44.3037H127.159C127.483 44.3034 127.795 44.1743 128.024 43.9448C128.253 43.7154 128.382 43.4043 128.383 43.0799V14.1968C128.382 13.8723 128.253 13.5613 128.024 13.3318C127.794 13.1024 127.483 12.9733 127.159 12.9729H98.2759Z" fill="#1FADE0"/>
<path opacity="0.8" d="M59.4795 58.2557C61.7776 58.2557 63.6406 56.3927 63.6406 54.0946C63.6406 51.7965 61.7776 49.9335 59.4795 49.9335C57.1814 49.9335 55.3184 51.7965 55.3184 54.0946C55.3184 56.3927 57.1814 58.2557 59.4795 58.2557Z" fill="#E6E6E6"/>
<path opacity="0.4" d="M82.9776 58.2557C85.2758 58.2557 87.1388 56.3927 87.1388 54.0946C87.1388 51.7965 85.2758 49.9335 82.9776 49.9335C80.6795 49.9335 78.8165 51.7965 78.8165 54.0946C78.8165 56.3927 80.6795 58.2557 82.9776 58.2557Z" fill="#E6E6E6"/>
<path opacity="0.6" d="M71.2286 58.2557C73.5267 58.2557 75.3897 56.3927 75.3897 54.0946C75.3897 51.7965 73.5267 49.9335 71.2286 49.9335C68.9305 49.9335 67.0675 51.7965 67.0675 54.0946C67.0675 56.3927 68.9305 58.2557 71.2286 58.2557Z" fill="#E6E6E6"/>
<path opacity="0.8" d="M17.8684 58.2557C20.1665 58.2557 22.0295 56.3927 22.0295 54.0946C22.0295 51.7965 20.1665 49.9335 17.8684 49.9335C15.5703 49.9335 13.7073 51.7965 13.7073 54.0946C13.7073 56.3927 15.5703 58.2557 17.8684 58.2557Z" fill="#3F3D56"/>
<path opacity="0.4" d="M41.3664 58.2557C43.6646 58.2557 45.5276 56.3927 45.5276 54.0946C45.5276 51.7965 43.6646 49.9335 41.3664 49.9335C39.0683 49.9335 37.2053 51.7965 37.2053 54.0946C37.2053 56.3927 39.0683 58.2557 41.3664 58.2557Z" fill="#3F3D56"/>
<path opacity="0.6" d="M29.6174 58.2557C31.9155 58.2557 33.7785 56.3927 33.7785 54.0946C33.7785 51.7965 31.9155 49.9335 29.6174 49.9335C27.3193 49.9335 25.4563 51.7965 25.4563 54.0946C25.4563 56.3927 27.3193 58.2557 29.6174 58.2557Z" fill="#3F3D56"/>
<path opacity="0.8" d="M101.091 58.2557C103.389 58.2557 105.252 56.3927 105.252 54.0946C105.252 51.7965 103.389 49.9335 101.091 49.9335C98.7926 49.9335 96.9296 51.7965 96.9296 54.0946C96.9296 56.3927 98.7926 58.2557 101.091 58.2557Z" fill="#1FADE0"/>
<path opacity="0.4" d="M124.589 58.2557C126.887 58.2557 128.75 56.3927 128.75 54.0946C128.75 51.7965 126.887 49.9335 124.589 49.9335C122.291 49.9335 120.428 51.7965 120.428 54.0946C120.428 56.3927 122.291 58.2557 124.589 58.2557Z" fill="#1FADE0"/>
<path opacity="0.6" d="M112.84 58.2557C115.138 58.2557 117.001 56.3927 117.001 54.0946C117.001 51.7965 115.138 49.9335 112.84 49.9335C110.542 49.9335 108.679 51.7965 108.679 54.0946C108.679 56.3927 110.542 58.2557 112.84 58.2557Z" fill="#1FADE0"/>
<path d="M110.101 36.5397L104.233 28.9947L107.645 26.3402L110.424 29.9127L119.811 20.0043L122.95 22.9779L110.101 36.5397Z" fill="white"/>
<path d="M165.201 82.5638C165.066 82.4311 164.89 82.3485 164.702 82.33C164.514 82.3115 164.325 82.3581 164.167 82.4621L157.851 86.5757C157.748 86.6433 157.66 86.7332 157.596 86.8389C157.531 86.9445 157.491 87.0633 157.478 87.1865C157.466 87.3096 157.481 87.4341 157.522 87.5507C157.564 87.6673 157.631 87.7732 157.719 87.8606L173.78 103.853C173.858 103.93 173.951 103.992 174.053 104.033C174.155 104.075 174.264 104.096 174.374 104.095C174.485 104.094 174.593 104.071 174.695 104.027C174.796 103.984 174.887 103.92 174.964 103.841L180.227 98.3934C180.38 98.2353 180.463 98.0235 180.46 97.8041C180.457 97.5847 180.367 97.3754 180.21 97.2217L165.201 82.5638Z" fill="#3F3D56"/>
<path d="M159.095 87.0157L159.749 86.5989C159.68 86.7216 159.655 86.864 159.677 87.0029C159.7 87.1418 159.769 87.269 159.872 87.3638C159.976 87.4586 160.109 87.5155 160.25 87.525C160.39 87.5346 160.53 87.4964 160.645 87.4166L164.875 84.5088C164.971 84.4428 165.047 84.3511 165.093 84.2442C165.14 84.1373 165.156 84.0194 165.138 83.9041C165.121 83.7887 165.072 83.6805 164.996 83.5918C164.921 83.5031 164.822 83.4374 164.71 83.4022L165.047 83.1875C165.091 83.1597 165.143 83.1476 165.194 83.1534C165.246 83.1592 165.294 83.1824 165.33 83.2193L179.559 97.2022C179.58 97.2237 179.597 97.2492 179.608 97.2773C179.619 97.3053 179.625 97.3353 179.624 97.3655C179.624 97.3957 179.617 97.4255 179.605 97.4531C179.593 97.4807 179.575 97.5056 179.553 97.5264L174.386 102.562C174.343 102.602 174.286 102.624 174.227 102.623C174.168 102.622 174.112 102.599 174.07 102.557L159.057 87.3672C159.033 87.3433 159.015 87.3142 159.004 87.2822C158.992 87.2502 158.988 87.216 158.992 87.1823C158.996 87.1485 159.007 87.116 159.025 87.0872C159.043 87.0584 159.067 87.0339 159.095 87.0157Z" fill="white"/>
<path d="M175.518 94.1147L171.153 98.2302L160.77 87.9725L166.039 84.543L175.518 94.1147Z" fill="#1FADE0"/>
<path d="M161.174 90.5042C161.202 90.4758 161.218 90.4374 161.218 90.3974C161.218 90.3573 161.202 90.3189 161.174 90.2905L160.266 89.3826C160.237 89.3552 160.199 89.3398 160.159 89.3398C160.119 89.3398 160.081 89.3552 160.052 89.3826C160.024 89.411 160.008 89.4494 160.008 89.4894C160.008 89.5295 160.024 89.5679 160.052 89.5963L160.96 90.5042C160.989 90.5316 161.027 90.547 161.067 90.547C161.107 90.547 161.145 90.5316 161.174 90.5042Z" fill="#E6E6E6"/>
<path d="M162.703 91.82L161.795 90.912C161.767 90.8837 161.729 90.8678 161.689 90.8678C161.649 90.8678 161.61 90.8837 161.582 90.912C161.554 90.9404 161.538 90.9788 161.538 91.0189C161.538 91.0589 161.554 91.0974 161.582 91.1257L162.49 92.0336C162.504 92.0476 162.52 92.0588 162.539 92.0664C162.557 92.074 162.577 92.0779 162.597 92.0779C162.616 92.0779 162.636 92.074 162.654 92.0664C162.673 92.0588 162.689 92.0476 162.703 92.0336C162.717 92.0196 162.729 92.0029 162.736 91.9846C162.744 91.9663 162.748 91.9466 162.748 91.9268C162.748 91.907 162.744 91.8873 162.736 91.869C162.729 91.8507 162.717 91.834 162.703 91.82Z" fill="#E6E6E6"/>
<path d="M175.417 98.667C175.98 98.667 176.436 98.2104 176.436 97.6473C176.436 97.0842 175.98 96.6277 175.417 96.6277C174.854 96.6277 174.397 97.0842 174.397 97.6473C174.397 98.2104 174.854 98.667 175.417 98.667Z" fill="#1FADE0"/>
<path d="M204.969 99.7363L204.183 103.567C204.071 104.118 204.106 104.688 204.286 105.22C204.465 105.752 204.783 106.226 205.206 106.595C205.63 106.964 206.143 107.214 206.695 107.32C207.246 107.425 207.816 107.382 208.345 107.195C209.112 106.925 209.745 106.37 210.115 105.646C210.484 104.922 210.561 104.083 210.33 103.304L209.273 99.7363L218.838 71.7596H210.708L204.969 99.7363Z" fill="#FFB8B8"/>
<path d="M196.361 44.0221C200.455 44.0221 203.774 40.7034 203.774 36.6095C203.774 32.5156 200.455 29.1969 196.361 29.1969C192.267 29.1969 188.949 32.5156 188.949 36.6095C188.949 40.7034 192.267 44.0221 196.361 44.0221Z" fill="#FFB8B8"/>
<path d="M195.166 49.761L204.969 48.5655C202.72 45.7455 201.87 42.8011 202.578 39.7181L193.731 40.6746L195.166 49.761Z" fill="#FFB8B8"/>
<path d="M182.971 91.1281L206.165 85.8675C211.123 82.0118 214.343 74.3637 216.831 65.1156C218.644 58.3759 215.387 51.2007 208.985 48.4218C208.831 48.3554 208.677 48.2914 208.521 48.23L203.296 46.1742L194.687 46.8915L191.616 47.7292C190.965 47.9068 190.379 48.2699 189.93 48.7743C189.482 49.2787 189.189 49.9026 189.088 50.5702C184.959 65.7209 182.238 79.7731 182.971 91.1281Z" fill="#1FADE0"/>
<path d="M209.513 76.3029H219.795L216.447 56.2172L209.513 56.9344V76.3029Z" fill="#1FADE0"/>
<path d="M174.841 163.341H181.058L194.09 117.55L199.119 163.341H206.404L209.273 89.9325C208.178 84.3003 208.202 77.5879 208.795 70.325C213.923 66.7353 212.045 58.2138 212.613 49.6522C212.618 49.569 212.592 49.4868 212.538 49.4226L209.234 47.7051C209.19 47.6536 209.13 47.6175 209.064 47.602C208.997 47.5864 208.928 47.5921 208.865 47.6184C208.802 47.6446 208.749 47.69 208.714 47.7481C208.679 47.8061 208.662 47.8739 208.668 47.9418C208.584 53.928 210.197 61.0471 207.6 65.7818C204.777 56.1339 201.099 48.0332 193.938 46.2245C193.802 46.191 193.661 46.1938 193.527 46.2326L192.193 46.6136C192.045 46.6562 191.913 46.7411 191.812 46.8578C191.712 46.9745 191.648 47.118 191.627 47.2707C191.607 47.4234 191.632 47.5786 191.698 47.7175C191.765 47.8563 191.871 47.9727 192.003 48.0524C198.554 52.0998 202.788 58.8764 203.056 70.325C197.959 77.5388 192.995 81.8089 184.059 87.0605C183.609 87.3259 183.228 87.6934 182.946 88.1334C182.665 88.5733 182.49 89.0733 182.438 89.5931L174.841 163.341Z" fill="#2F2E41"/>
<path d="M197.322 43.3438L202.578 42.3483L205.705 37.0063C206.464 35.71 206.792 34.2065 206.643 32.7119C206.494 31.2173 205.874 29.8086 204.874 28.6882C204.094 27.8151 203.111 27.1482 202.011 26.7468C200.912 26.3454 199.73 26.222 198.572 26.3875L191.759 27.3607C191.172 27.4447 190.607 27.644 190.097 27.9472C189.587 28.2504 189.142 28.6515 188.787 29.1275C188.433 29.6034 188.176 30.1448 188.032 30.7204C187.888 31.296 187.859 31.8944 187.947 32.4812L192.535 33.2619L197.322 43.3438Z" fill="#2F2E41"/>
<path d="M167.562 171.352H178.512C179.03 171.352 179.54 171.24 180.011 171.025C180.481 170.81 180.899 170.497 181.237 170.106C181.576 169.714 181.826 169.255 181.971 168.759C182.115 168.263 182.152 167.741 182.077 167.229L181.39 162.516L176.42 162.148L166.543 166.767C166.093 166.978 165.72 167.322 165.474 167.753C165.227 168.184 165.12 168.68 165.167 169.174C165.224 169.77 165.501 170.323 165.944 170.726C166.387 171.129 166.964 171.352 167.562 171.352Z" fill="#2F2E41"/>
<path d="M192.43 171.352H203.381C203.898 171.352 204.409 171.24 204.879 171.025C205.349 170.81 205.767 170.497 206.105 170.106C206.444 169.714 206.694 169.255 206.839 168.759C206.984 168.263 207.02 167.741 206.945 167.229L206.258 162.516L201.288 162.148L191.411 166.767C190.961 166.978 190.588 167.322 190.342 167.753C190.095 168.184 189.988 168.68 190.035 169.174C190.092 169.77 190.369 170.323 190.812 170.726C191.255 171.129 191.832 171.352 192.43 171.352Z" fill="#2F2E41"/>
<path d="M171.618 90.9363L166.88 92.583C166.312 92.7804 165.808 93.1271 165.42 93.5867C165.032 94.0462 164.775 94.6017 164.676 95.1947C164.577 95.7878 164.639 96.3967 164.856 96.9574C165.074 97.5181 165.438 98.0101 165.911 98.3816C166.458 98.812 167.127 99.0609 167.823 99.0937C168.519 99.1265 169.208 98.9414 169.793 98.5644L174.111 95.7854L188.855 80.7988L191.14 63.1838C191.431 60.9403 191.15 58.6596 190.323 56.5539C189.495 54.4482 188.149 52.586 186.409 51.1404L181.601 77.9733L171.618 90.9363Z" fill="#FFB9B9"/>
<path d="M181.775 72.7161H192.296L192.057 47.6089C189.559 48.2334 187.325 49.6368 185.678 51.6159C184.031 53.5949 183.056 56.0469 182.895 58.6168L181.775 72.7161Z" fill="#1FADE0"/>
<path d="M194.198 39.1783C194.917 39.1783 195.499 38.479 195.499 37.6163C195.499 36.7536 194.917 36.0542 194.198 36.0542C193.479 36.0542 192.896 36.7536 192.896 37.6163C192.896 38.479 193.479 39.1783 194.198 39.1783Z" fill="#FFB8B8"/>
</g>
<defs>
<clipPath id="clip0_217_824">
<rect width="240" height="171.559" fill="white"/>
</clipPath>
</defs>
</svg>
