<svg width="240" height="190" viewBox="0 0 240 190" fill="none" xmlns="http://www.w3.org/2000/svg">
<g clip-path="url(#clip0_219_1115)">
<path d="M18.4902 93.9956C18.8231 94.6933 19.1742 95.3947 19.5344 96.0786L19.8762 95.8985C19.5185 95.2191 19.1696 94.5229 18.8391 93.8293L18.4902 93.9956Z" fill="#CCCCCC"/>
<path d="M20.6609 98.1188C21.0488 98.7886 21.4557 99.4593 21.87 100.112L22.1963 99.9058C21.7849 99.257 21.3819 98.5908 20.9953 97.9255L20.6609 98.1188Z" fill="#CCCCCC"/>
<path d="M16.6594 89.7149C16.9336 90.435 17.2271 91.1614 17.5315 91.8733L17.8871 91.7216C17.5846 91.0145 17.2935 90.2929 17.0209 89.5774L16.6594 89.7149Z" fill="#CCCCCC"/>
<path d="M23.1597 102.054C23.5999 102.691 24.0597 103.327 24.5255 103.946L24.8341 103.713C24.3715 103.099 23.915 102.467 23.4776 101.834L23.1597 102.054Z" fill="#CCCCCC"/>
<path d="M63.7893 11.5339L63.836 11.9176V11.9198C64.5997 11.8261 65.3758 11.7475 66.1442 11.6847L66.112 11.2981C65.3398 11.3609 64.5582 11.4402 63.7893 11.5339Z" fill="#CCCCCC"/>
<path d="M13.3205 71.4766L12.9338 71.4924C12.9655 72.2668 13.0128 73.0499 13.0753 73.8231L13.461 73.7918C13.399 73.0248 13.3527 72.2459 13.3205 71.4766Z" fill="#CCCCCC"/>
<path d="M15.1772 85.2871C15.3932 86.0309 15.6273 86.7809 15.8735 87.5157L16.2404 87.3929C15.9958 86.6629 15.7633 85.9181 15.5488 85.1794L15.1772 85.2871Z" fill="#CCCCCC"/>
<path d="M13.2722 69.0946C13.2722 68.3443 13.2867 67.5856 13.3153 66.8395L12.9287 66.8247C12.8997 67.5756 12.8853 68.3394 12.8853 69.0936V69.158H13.2719L13.2722 69.0946Z" fill="#CCCCCC"/>
<path d="M13.3108 76.146C13.4042 76.9166 13.5145 77.6942 13.6384 78.4574L14.0199 78.3956C13.8969 77.6375 13.7872 76.8654 13.6944 76.0996L13.3108 76.146Z" fill="#CCCCCC"/>
<path d="M13.4512 64.5239C13.5118 63.7549 13.5886 62.9785 13.6774 62.2157L13.2935 62.1699C13.2019 62.9376 13.125 63.7201 13.064 64.4933L13.4506 64.5235L13.4512 64.5239Z" fill="#CCCCCC"/>
<path d="M25.9656 105.782C26.4552 106.38 26.9643 106.979 27.4796 107.559L27.7682 107.303C27.2564 106.726 26.7503 106.132 26.2648 105.538L25.9656 105.782Z" fill="#CCCCCC"/>
<path d="M57.0291 125.419C57.7803 125.602 58.5468 125.774 59.3077 125.928L59.3843 125.549C58.6286 125.397 57.8673 125.226 57.1209 125.043L57.0291 125.419Z" fill="#CCCCCC"/>
<path d="M54.6494 13.4071L54.7573 13.7783C55.4957 13.5628 56.2492 13.3611 56.9973 13.1758L56.9045 12.8005C56.1516 12.9884 55.393 13.191 54.6494 13.4071Z" fill="#CCCCCC"/>
<path d="M59.1814 12.2865L59.2591 12.665L59.2588 12.6654C60.0122 12.511 60.7789 12.3709 61.5398 12.2459L61.4776 11.8645C60.7119 11.9895 59.9394 12.1312 59.1814 12.2865Z" fill="#CCCCCC"/>
<path d="M61.605 126.346C62.3685 126.466 63.1462 126.575 63.9171 126.668L63.9627 126.286C63.1973 126.194 62.4245 126.086 61.6662 125.964L61.605 126.346Z" fill="#CCCCCC"/>
<path d="M52.543 124.125C53.2771 124.369 54.0274 124.602 54.7728 124.817L54.8798 124.446C54.1395 124.232 53.3944 124.001 52.665 123.758L52.543 124.125Z" fill="#CCCCCC"/>
<path d="M32.4294 112.507C33.0096 113.023 33.6082 113.531 34.2083 114.021L34.4542 113.721C33.8582 113.234 33.2635 112.728 32.6871 112.217L32.4294 112.507Z" fill="#CCCCCC"/>
<path d="M36.0483 115.463C36.6665 115.928 37.3044 116.388 37.9436 116.83L38.1632 116.512C37.5284 116.073 36.8949 115.616 36.2807 115.154L36.0483 115.463Z" fill="#CCCCCC"/>
<path d="M29.3405 109.004L29.0618 109.272C29.5997 109.832 30.1555 110.387 30.7131 110.923L30.9808 110.644C30.4271 110.112 29.8748 109.56 29.3405 109.004Z" fill="#CCCCCC"/>
<path d="M48.1655 122.466C48.8809 122.771 49.6116 123.065 50.3367 123.34L50.4753 122.979C49.7533 122.706 49.0275 122.415 48.3168 122.112L48.1655 122.466Z" fill="#CCCCCC"/>
<path d="M43.9387 120.459C44.6249 120.82 45.3288 121.172 46.0311 121.505L46.1966 121.156C45.4991 120.826 44.8001 120.475 44.1185 120.117L43.9387 120.459Z" fill="#CCCCCC"/>
<path d="M39.8926 118.12C40.5458 118.534 41.2189 118.941 41.8925 119.33L42.0858 118.996C41.4166 118.609 40.7483 118.204 40.0994 117.793L39.8926 118.12Z" fill="#CCCCCC"/>
<path d="M14.0593 80.7541C14.2143 81.5127 14.3867 82.2788 14.5724 83.0317L14.9477 82.9392C14.7635 82.1909 14.5921 81.4303 14.4381 80.6768L14.0593 80.7541Z" fill="#CCCCCC"/>
<path d="M38.1061 21.7173C38.7388 21.2785 39.3883 20.8478 40.036 20.4364L39.8289 20.1101C39.1768 20.5231 38.523 20.957 37.8857 21.3987L38.1061 21.7163V21.7173Z" fill="#CCCCCC"/>
<path d="M13.9992 59.9195C14.1219 59.1592 14.2595 58.3915 14.4118 57.6374L14.033 57.561C13.8796 58.32 13.7398 59.0932 13.6174 59.8586L13.9992 59.9198L13.9992 59.9195Z" fill="#CCCCCC"/>
<path d="M29.2987 29.2252L29.0197 28.9575C28.483 29.5171 27.9505 30.095 27.4373 30.6749L27.7268 30.9323C28.2357 30.3548 28.7656 29.7812 29.2987 29.2252Z" fill="#CCCCCC"/>
<path d="M30.9387 27.5862L30.9377 27.5852L30.9387 27.5862Z" fill="#CCCCCC"/>
<path d="M44.0407 18.1126L43.8603 17.7708C43.1741 18.1309 42.4896 18.5117 41.821 18.8983L42.0144 19.2327C42.6783 18.8483 43.3597 18.4711 44.0407 18.1126Z" fill="#CCCCCC"/>
<path d="M32.6421 26.0121L32.3843 25.7222C31.8048 26.237 31.2278 26.7701 30.6702 27.3068L30.9379 27.5852C31.4919 27.052 32.0651 26.5221 32.6421 26.0121Z" fill="#CCCCCC"/>
<path d="M128.426 61.9786C128.333 61.211 128.222 60.4333 128.096 59.6672L127.715 59.7297C127.839 60.4906 127.95 61.2628 128.043 62.0254L128.426 61.9786Z" fill="#CCCCCC"/>
<path d="M128.421 66.6475L128.808 66.6307C128.776 65.8579 128.729 65.0734 128.664 64.3003L128.278 64.3325C128.341 65.1011 128.388 65.8798 128.421 66.6475Z" fill="#CCCCCC"/>
<path d="M52.5437 14.4716L52.421 14.105C51.6858 14.3517 50.9462 14.6165 50.2229 14.8923L50.3605 15.2534C51.0792 14.9803 51.8137 14.7164 52.5437 14.4716Z" fill="#CCCCCC"/>
<path d="M46.1085 17.0733C46.8007 16.7431 47.5098 16.4222 48.2163 16.1197L48.0643 15.7654C47.353 16.0701 46.639 16.3929 45.9419 16.7254L46.1085 17.0743L46.1085 17.0733Z" fill="#CCCCCC"/>
<path d="M34.4047 24.5065C35.0004 24.0188 35.6134 23.5369 36.2266 23.0752L35.9939 22.7666C35.3767 23.2321 34.7595 23.7169 34.1597 24.2082L34.4047 24.5072V24.5065Z" fill="#CCCCCC"/>
<path d="M17.8459 46.5681L17.8433 46.5671L17.843 46.5678L17.8459 46.5681Z" fill="#CCCCCC"/>
<path d="M18.8003 44.4483L18.4511 44.2827C18.1184 44.9844 17.7956 45.7024 17.4917 46.4166L17.8436 46.5669C18.1459 45.8578 18.4663 45.1448 18.8003 44.4483Z" fill="#CCCCCC"/>
<path d="M14.9169 55.3734C15.0995 54.6261 15.3002 53.8719 15.5129 53.1345L15.1414 53.0276C14.9277 53.7711 14.7251 54.5301 14.5413 55.2826L14.9169 55.3744V55.3734Z" fill="#CCCCCC"/>
<path d="M16.9782 48.7252L16.6165 48.5886C16.3413 49.3164 16.0779 50.0586 15.8333 50.7947L16.2002 50.9168C16.4425 50.1855 16.7044 49.4484 16.9782 48.7252Z" fill="#CCCCCC"/>
<path d="M19.8365 42.3683L19.8352 42.3677L19.8342 42.3693L19.8365 42.3683Z" fill="#CCCCCC"/>
<path d="M27.7272 30.9327L27.7269 30.9324L27.7266 30.9327H27.7272Z" fill="#CCCCCC"/>
<path d="M26.2264 32.6998L25.9267 32.4553C25.437 33.0555 24.9522 33.6743 24.4863 34.2945L24.7943 34.5259C25.2569 33.9104 25.738 33.2961 26.2264 32.6998Z" fill="#CCCCCC"/>
<path d="M20.9562 40.3337L20.6217 40.1404C20.235 40.813 19.8545 41.5021 19.4941 42.1889L19.8352 42.3676C20.1929 41.6852 20.5697 41.0022 20.9562 40.3337Z" fill="#CCCCCC"/>
<path d="M24.7954 34.5268L24.7944 34.5261L24.7935 34.5271L24.7954 34.5268Z" fill="#CCCCCC"/>
<path d="M23.4385 36.4099L23.1206 36.1902C22.6805 36.828 22.2467 37.4843 21.832 38.1398L22.1575 38.3459C22.5693 37.6951 22.9995 37.044 23.4385 36.4099Z" fill="#CCCCCC"/>
<path d="M22.1585 38.3466L22.1572 38.3459L22.1562 38.3476L22.1585 38.3466Z" fill="#CCCCCC"/>
<path d="M117.183 34.189L116.875 34.4219C117.338 35.0352 117.795 35.667 118.234 36.2987L118.551 36.0787C118.11 35.4424 117.649 34.8065 117.183 34.189Z" fill="#CCCCCC"/>
<path d="M118.272 101.828L118.59 102.048V102.05C119.032 101.41 119.466 100.755 119.881 100.1L119.555 99.8928C119.142 100.542 118.711 101.193 118.272 101.828Z" fill="#CCCCCC"/>
<path d="M119.842 38.0208L119.516 38.2282C119.928 38.8761 120.333 39.5416 120.719 40.2072L121.053 40.0129C120.664 39.3416 120.257 38.6728 119.842 38.0208Z" fill="#CCCCCC"/>
<path d="M122.183 42.0527L121.841 42.2331C122.2 42.9122 122.55 43.6081 122.881 44.301L123.229 44.1348C122.896 43.438 122.544 42.7367 122.183 42.0527Z" fill="#CCCCCC"/>
<path d="M120.757 97.9086L121.092 98.1019H121.093C121.483 97.4286 121.865 96.7412 122.222 96.0553L121.88 95.8752C121.522 96.5556 121.144 97.2399 120.757 97.9086Z" fill="#CCCCCC"/>
<path d="M114.224 30.5808L113.934 30.8385C114.446 31.4136 114.952 32.0066 115.44 32.6016L115.738 32.3558C115.249 31.7567 114.74 31.1607 114.224 30.5808Z" fill="#CCCCCC"/>
<path d="M116.914 103.712C116.452 104.326 115.969 104.94 115.481 105.537L115.78 105.782V105.78C116.272 105.181 116.757 104.562 117.223 103.944L116.914 103.712Z" fill="#CCCCCC"/>
<path d="M110.759 110.645C110.204 111.178 109.63 111.707 109.054 112.217L109.311 112.506C109.891 111.992 110.468 111.46 111.026 110.924L110.759 110.645Z" fill="#CCCCCC"/>
<path d="M110.984 27.2195L110.717 27.4988C111.272 28.0306 111.825 28.5815 112.36 29.1366L112.637 28.8682C112.099 28.3093 111.543 27.7549 110.984 27.2195Z" fill="#CCCCCC"/>
<path d="M122.921 93.7975L123.27 93.9637V93.9634C123.604 93.2621 123.926 92.545 124.231 91.8304L123.876 91.6787C123.573 92.3887 123.252 93.1013 122.921 93.7975Z" fill="#CCCCCC"/>
<path d="M112.401 109.006L112.679 109.274L112.68 109.275C113.216 108.717 113.749 108.139 114.264 107.559L113.974 107.302C113.464 107.878 112.933 108.452 112.401 109.006Z" fill="#CCCCCC"/>
<path d="M127.7 80.691L127.699 80.6907V80.691H127.7Z" fill="#CCCCCC"/>
<path d="M109.312 112.507L109.311 112.506L109.311 112.507L109.312 112.507Z" fill="#CCCCCC"/>
<path d="M127.736 78.3325C127.613 79.0934 127.474 79.8611 127.321 80.614L127.699 80.6908C127.853 79.9328 127.994 79.1601 128.118 78.3941L127.736 78.3325Z" fill="#CCCCCC"/>
<path d="M128.289 73.7278C128.228 74.4938 128.151 75.2702 128.059 76.0353L128.442 76.0814C128.535 75.3108 128.613 74.5293 128.676 73.7584L128.289 73.7278Z" fill="#CCCCCC"/>
<path d="M128.472 68.9644V69.0932C128.472 69.8622 128.456 70.6424 128.426 71.4127L128.812 71.4278H128.813C128.844 70.6524 128.859 69.8673 128.858 69.0916V68.9644H128.472Z" fill="#CCCCCC"/>
<path d="M127.158 55.095L126.782 55.1881C126.967 55.9335 127.14 56.6944 127.295 57.4499L127.673 57.3719C127.517 56.6117 127.344 55.8456 127.158 55.095Z" fill="#CCCCCC"/>
<path d="M124.745 89.5229L125.107 89.6598V89.6595C125.383 88.9314 125.647 88.1895 125.892 87.4547L125.526 87.3323C125.282 88.0626 125.019 88.7997 124.745 89.5229Z" fill="#CCCCCC"/>
<path d="M124.187 46.2563L123.833 46.4087C124.135 47.112 124.428 47.8333 124.703 48.5523L125.061 48.4147C124.785 47.6902 124.491 46.9651 124.187 46.2563Z" fill="#CCCCCC"/>
<path d="M125.852 50.613L125.485 50.7361C125.731 51.4671 125.964 52.2106 126.179 52.9489L126.55 52.841C126.335 52.0975 126.099 51.3479 125.852 50.613Z" fill="#CCCCCC"/>
<path d="M126.814 82.8767C126.629 83.626 126.428 84.3795 126.215 85.1172L126.586 85.2245V85.2242C126.801 84.482 127.004 83.723 127.189 82.9688L126.814 82.8767Z" fill="#CCCCCC"/>
<path d="M68.4579 11.5415V11.5434C69.2256 11.5119 70.0061 11.4951 70.7764 11.4916V11.105C70.0003 11.1063 69.2153 11.1227 68.4421 11.1549L68.4579 11.5415Z" fill="#CCCCCC"/>
<path d="M77.719 11.895C78.4832 11.9852 79.256 12.0928 80.0162 12.2139L80.0768 11.8331C79.3107 11.7101 78.5338 11.6021 77.7645 11.511L77.719 11.895Z" fill="#CCCCCC"/>
<path d="M86.8025 13.7254C87.5424 13.9377 88.2879 14.1684 89.0182 14.4106L89.1396 14.0437C88.4044 13.7999 87.6541 13.5679 86.9095 13.354L86.8025 13.7254Z" fill="#CCCCCC"/>
<path d="M84.6868 125.027L84.7793 125.403V125.402C85.5327 125.217 86.2914 125.013 87.0346 124.799L86.927 124.427C86.189 124.641 85.4355 124.843 84.6868 125.027Z" fill="#CCCCCC"/>
<path d="M77.8452 126.275C77.081 126.368 76.3046 126.446 75.5376 126.507L75.5697 126.892C76.3419 126.83 77.123 126.752 77.8916 126.659L77.8452 126.275Z" fill="#CCCCCC"/>
<path d="M82.2986 12.627C83.0544 12.779 83.816 12.9485 84.5624 13.1305L84.6543 12.7549C83.9027 12.57 83.1359 12.4008 82.375 12.2478L82.2986 12.627Z" fill="#CCCCCC"/>
<path d="M80.1426 125.952L80.2044 126.334V126.333C80.9676 126.21 81.7404 126.069 82.5011 125.914L82.424 125.535C81.6684 125.689 80.9006 125.83 80.1426 125.952Z" fill="#CCCCCC"/>
<path d="M66.2405 126.898C67.0139 126.959 67.7977 127.005 68.5709 127.036L68.5856 126.648C67.8171 126.618 67.0394 126.572 66.2707 126.511L66.2405 126.898Z" fill="#CCCCCC"/>
<path d="M107.486 24.1262L107.242 24.4258C107.838 24.9116 108.433 25.4171 109.011 25.9277L109.267 25.638C108.685 25.1249 108.086 24.6152 107.486 24.1262Z" fill="#CCCCCC"/>
<path d="M75.5696 126.893V126.892H75.5684L75.5696 126.893Z" fill="#CCCCCC"/>
<path d="M73.0957 11.5343C73.8647 11.5636 74.6446 11.6087 75.411 11.6683L75.4413 11.2827C74.6698 11.2224 73.8857 11.177 73.1105 11.1477L73.0957 11.5343Z" fill="#CCCCCC"/>
<path d="M70.9048 126.694V127.081C71.6785 127.08 72.4639 127.064 73.2397 127.034L73.2241 126.647C72.4537 126.678 71.6733 126.694 70.9048 126.694Z" fill="#CCCCCC"/>
<path d="M101.657 117.786L101.864 118.113L101.865 118.114C102.517 117.7 103.172 117.266 103.81 116.825L103.59 116.507C102.955 116.945 102.305 117.376 101.657 117.786Z" fill="#CCCCCC"/>
<path d="M89.1409 123.737L89.2632 124.103V124.103C89.9981 123.858 90.7378 123.594 91.4626 123.318L91.325 122.957C90.6053 123.231 89.8706 123.493 89.1409 123.737Z" fill="#CCCCCC"/>
<path d="M107.292 113.721C106.694 114.21 106.08 114.691 105.468 115.152L105.7 115.46C106.317 114.996 106.935 114.512 107.536 114.021L107.292 113.721Z" fill="#CCCCCC"/>
<path d="M99.7976 18.825L99.6042 19.1597C100.271 19.5443 100.941 19.9483 101.592 20.36L101.799 20.0333C101.142 19.6187 100.469 19.2115 99.7976 18.825Z" fill="#CCCCCC"/>
<path d="M105.701 115.461L105.7 115.46L105.701 115.461Z" fill="#CCCCCC"/>
<path d="M103.749 21.3223L103.53 21.6405C104.163 22.0771 104.797 22.5332 105.414 22.9961L105.646 22.6872C105.025 22.2211 104.387 21.762 103.749 21.3223Z" fill="#CCCCCC"/>
<path d="M91.3476 14.8259L91.2109 15.1877C91.9329 15.4599 92.6587 15.7508 93.3694 16.0527L93.5198 15.6957C92.8047 15.3932 92.0737 15.1001 91.3476 14.8259Z" fill="#CCCCCC"/>
<path d="M93.4705 122.094L93.6223 122.449V122.45C94.3339 122.146 95.0483 121.824 95.7455 121.492L95.5792 121.143C94.8879 121.473 94.1772 121.793 93.4705 122.094Z" fill="#CCCCCC"/>
<path d="M95.6549 16.6548L95.4897 17.0043C96.1869 17.3342 96.8866 17.6831 97.5692 18.0407L97.7489 17.6982C97.0612 17.3381 96.3569 16.9869 95.6549 16.6548Z" fill="#CCCCCC"/>
<path d="M97.6477 120.105L97.8278 120.447L97.8291 120.448C98.5144 120.087 99.2009 119.708 99.868 119.321L99.6747 118.986C99.0104 119.37 98.3288 119.747 97.6477 120.105Z" fill="#CCCCCC"/>
<path d="M60.9026 22.8775C60.7717 22.8757 60.6465 22.8243 60.552 22.7338C60.4576 22.6432 60.401 22.5202 60.3938 22.3895L60.3936 17.8923C60.3996 17.7557 60.4593 17.6269 60.5597 17.534C60.6601 17.4412 60.7932 17.3917 60.9299 17.3964L80.8216 17.3962C80.956 17.3922 81.0867 17.441 81.1856 17.5321C81.2846 17.6232 81.3439 17.7494 81.351 17.8837L81.3512 22.3812C81.3451 22.5171 81.2858 22.6452 81.1862 22.7379C81.0866 22.8306 80.9546 22.8806 80.8186 22.877H60.9232C60.9163 22.8773 60.9094 22.8775 60.9026 22.8775ZM60.914 17.8513C60.9009 17.8513 60.8884 17.8564 60.8789 17.8653C60.8694 17.8743 60.8637 17.8866 60.863 17.8996L60.8632 22.3803C60.866 22.3921 60.8729 22.4025 60.8825 22.4098C60.8922 22.4172 60.9041 22.4209 60.9163 22.4204L80.8216 22.4202C80.836 22.4217 80.8503 22.4174 80.8616 22.4084C80.8728 22.3994 80.8801 22.3863 80.8818 22.3719L80.8815 17.8924C80.8785 17.8807 80.8717 17.8703 80.862 17.8631C80.8524 17.8558 80.8406 17.852 80.8285 17.8523L60.9163 17.8513H60.914Z" fill="#CCCCCC"/>
<path d="M60.9026 14.1794C60.7717 14.1777 60.6465 14.1263 60.552 14.0357C60.4576 13.9452 60.401 13.8221 60.3938 13.6915L60.3936 9.19432C60.3998 9.05775 60.4596 8.92913 60.56 8.83631C60.6603 8.74349 60.7932 8.69393 60.9299 8.69836L80.8216 8.6982C80.956 8.69442 81.0865 8.74327 81.1854 8.83432C81.2843 8.92538 81.3437 9.05145 81.351 9.18567L81.3512 13.6832C81.3457 13.8193 81.2867 13.9478 81.187 14.0407C81.0872 14.1335 80.9548 14.1832 80.8186 14.179H60.9232C60.9163 14.1793 60.9094 14.1794 60.9026 14.1794Z" fill="#E5E5E5"/>
<path d="M60.9026 5.48142C60.7717 5.47965 60.6465 5.4283 60.552 5.33773C60.4576 5.24716 60.401 5.12413 60.3938 4.99348L60.3936 0.496301C60.4 0.359798 60.4598 0.231297 60.5602 0.138515C60.6605 0.0457335 60.7933 -0.00389277 60.9299 0.000338034L80.8216 0.000180735C80.9559 -0.00337125 81.0863 0.0455494 81.1852 0.136559C81.284 0.227568 81.3435 0.353505 81.351 0.487649L81.3512 4.98513C81.345 5.12104 81.2857 5.24908 81.1862 5.34177C81.0866 5.43447 80.9546 5.48443 80.8186 5.48094H60.9232C60.9163 5.48128 60.9094 5.48142 60.9026 5.48142Z" fill="#1FADE0"/>
<path d="M25.7718 53.6309H0V84.557H25.7718V53.6309Z" fill="#E6E6E6"/>
<path d="M24.9479 54.5825H0.739746V83.6322H24.9479V54.5825Z" fill="white"/>
<path d="M12.4233 59.4409H2.74023V60.6512H12.4233V59.4409Z" fill="#E6E6E6"/>
<path d="M17.3957 63.5562H2.74023V64.7665H17.3957V63.5562Z" fill="#1FADE0"/>
<path d="M11.5661 67.6714H2.74023V68.8817H11.5661V67.6714Z" fill="#E6E6E6"/>
<path d="M21.1593 71.7869H2.74023V72.9972H21.1593V71.7869Z" fill="#1FADE0"/>
<path d="M21.1593 75.9023H2.74023V77.1126H21.1593V75.9023Z" fill="#E6E6E6"/>
<path d="M52.1538 115.967C52.0549 115.967 51.9601 116.006 51.8901 116.076C51.8202 116.146 51.7808 116.241 51.7808 116.34V137.822C51.7808 137.921 51.8202 138.015 51.8901 138.085C51.9601 138.155 52.0549 138.195 52.1538 138.195H94.7456C94.8445 138.195 94.9394 138.155 95.0093 138.085C95.0792 138.015 95.1186 137.921 95.1186 137.822V116.34C95.1186 116.241 95.0792 116.146 95.0093 116.076C94.9394 116.006 94.8445 115.967 94.7456 115.967H52.1538Z" fill="#E6E6E6"/>
<path d="M52.7507 116.563C52.6518 116.563 52.557 116.603 52.487 116.673C52.4171 116.743 52.3778 116.837 52.3777 116.936V137.225C52.3778 137.324 52.4171 137.419 52.487 137.489C52.557 137.559 52.6518 137.598 52.7507 137.598H94.1486C94.2476 137.598 94.3424 137.559 94.4123 137.489C94.4823 137.419 94.5216 137.324 94.5217 137.225V116.936C94.5216 116.837 94.4823 116.743 94.4123 116.673C94.3424 116.603 94.2476 116.563 94.1486 116.563H52.7507Z" fill="white"/>
<path d="M65.1701 129.617H56.3684C56.2299 129.616 56.0972 129.561 55.9993 129.463C55.9014 129.366 55.8464 129.233 55.8462 129.094V120.293C55.8464 120.154 55.9014 120.022 55.9993 119.924C56.0972 119.826 56.2299 119.771 56.3684 119.771H65.1701C65.3086 119.771 65.4413 119.826 65.5392 119.924C65.6371 120.022 65.6922 120.154 65.6923 120.293V129.094C65.6922 129.233 65.6371 129.366 65.5392 129.463C65.4413 129.561 65.3086 129.616 65.1701 129.617ZM56.3684 119.92C56.2695 119.92 56.1747 119.959 56.1047 120.029C56.0348 120.099 55.9954 120.194 55.9953 120.293V129.095C55.9954 129.194 56.0348 129.289 56.1047 129.358C56.1747 129.428 56.2695 129.468 56.3684 129.468H65.1701C65.269 129.468 65.3639 129.428 65.4338 129.358C65.5037 129.289 65.5431 129.194 65.5432 129.095V120.293C65.5431 120.194 65.5037 120.099 65.4338 120.029C65.3639 119.959 65.269 119.92 65.1701 119.92L56.3684 119.92Z" fill="#3F3D56"/>
<path d="M77.8505 129.617H69.0488C68.9104 129.616 68.7776 129.561 68.6798 129.463C68.5819 129.366 68.5268 129.233 68.5266 129.094V120.293C68.5268 120.154 68.5819 120.022 68.6798 119.924C68.7776 119.826 68.9104 119.771 69.0488 119.771H77.8505C77.989 119.771 78.1217 119.826 78.2196 119.924C78.3175 120.022 78.3726 120.154 78.3727 120.293V129.094C78.3726 129.233 78.3175 129.366 78.2196 129.463C78.1217 129.561 77.989 129.616 77.8505 129.617ZM69.0488 119.92C68.9499 119.92 68.8551 119.959 68.7851 120.029C68.7152 120.099 68.6759 120.194 68.6758 120.293V129.095C68.6759 129.194 68.7152 129.289 68.7851 129.358C68.8551 129.428 68.9499 129.468 69.0488 129.468H77.8505C77.9495 129.468 78.0443 129.428 78.1142 129.358C78.1842 129.289 78.2235 129.194 78.2236 129.095V120.293C78.2235 120.194 78.1842 120.099 78.1142 120.029C78.0443 119.959 77.9495 119.92 77.8505 119.92L69.0488 119.92Z" fill="#E6E6E6"/>
<path d="M69.7202 120.59C69.6213 120.59 69.5265 120.629 69.4565 120.699C69.3866 120.769 69.3473 120.864 69.3472 120.963V128.422C69.3473 128.521 69.3866 128.615 69.4565 128.685C69.5265 128.755 69.6213 128.795 69.7202 128.795H77.1805C77.2794 128.795 77.3743 128.755 77.4442 128.685C77.5141 128.615 77.5535 128.521 77.5536 128.422V120.964C77.5537 120.915 77.5441 120.866 77.5255 120.821C77.5069 120.776 77.4795 120.734 77.4449 120.7C77.4103 120.665 77.3692 120.637 77.324 120.618C77.2787 120.6 77.2302 120.59 77.1812 120.59H69.7202Z" fill="#E6E6E6"/>
<path d="M57.0771 120.59C56.9782 120.59 56.8834 120.629 56.8135 120.699C56.7435 120.769 56.7042 120.864 56.7041 120.963V128.422C56.7042 128.521 56.7435 128.615 56.8135 128.685C56.8834 128.755 56.9782 128.795 57.0771 128.795H64.5361C64.6351 128.795 64.7299 128.755 64.7998 128.685C64.8698 128.615 64.9091 128.521 64.9092 128.422V120.964C64.9091 120.865 64.8698 120.77 64.7998 120.7C64.7299 120.63 64.6351 120.591 64.5361 120.591L57.0771 120.59Z" fill="#3F3D56"/>
<path d="M82.3623 120.59C82.2634 120.59 82.1686 120.629 82.0986 120.699C82.0287 120.769 81.9893 120.864 81.9893 120.963V128.422C81.9891 128.471 81.9987 128.519 82.0173 128.565C82.036 128.61 82.0634 128.651 82.0979 128.686C82.1325 128.721 82.1736 128.748 82.2189 128.767C82.2641 128.786 82.3126 128.796 82.3617 128.796H89.8213C89.9202 128.796 90.0151 128.757 90.085 128.687C90.1549 128.617 90.1943 128.522 90.1944 128.423V120.964C90.1943 120.865 90.1549 120.77 90.085 120.7C90.0151 120.63 89.9202 120.591 89.8213 120.591L82.3623 120.59Z" fill="#1FADE0"/>
<path d="M90.5308 129.617H81.7307C81.5923 129.616 81.4595 129.561 81.3616 129.463C81.2637 129.366 81.2087 129.233 81.2085 129.094V120.293C81.2087 120.154 81.2637 120.022 81.3616 119.924C81.4595 119.826 81.5923 119.771 81.7307 119.771H90.5324C90.6709 119.771 90.8036 119.826 90.9015 119.924C90.9994 120.022 91.0545 120.154 91.0546 120.293V129.094C91.0545 129.163 91.0409 129.231 91.0146 129.294C90.9882 129.358 90.9497 129.415 90.901 129.464C90.8524 129.512 90.7947 129.551 90.7313 129.577C90.6678 129.603 90.5998 129.617 90.5311 129.617H90.5308ZM81.7291 119.92C81.6302 119.92 81.5353 119.959 81.4654 120.029C81.3955 120.099 81.3561 120.194 81.356 120.293V129.095C81.3561 129.194 81.3955 129.289 81.4654 129.358C81.5353 129.428 81.6302 129.468 81.7291 129.468H90.5308C90.6297 129.468 90.7246 129.428 90.7945 129.358C90.8645 129.289 90.9038 129.194 90.9039 129.095V120.293C90.9038 120.194 90.8645 120.099 90.7945 120.029C90.7246 119.959 90.6297 119.92 90.5308 119.92L81.7291 119.92Z" fill="#1FADE0"/>
<path opacity="0.8" d="M69.9066 133.719C70.6069 133.719 71.1746 133.151 71.1746 132.451C71.1746 131.751 70.6069 131.183 69.9066 131.183C69.2064 131.183 68.6387 131.751 68.6387 132.451C68.6387 133.151 69.2064 133.719 69.9066 133.719Z" fill="#E6E6E6"/>
<path opacity="0.4" d="M77.0673 133.719C77.7676 133.719 78.3353 133.151 78.3353 132.451C78.3353 131.751 77.7676 131.183 77.0673 131.183C76.367 131.183 75.7993 131.751 75.7993 132.451C75.7993 133.151 76.367 133.719 77.0673 133.719Z" fill="#E6E6E6"/>
<path opacity="0.6" d="M73.487 133.719C74.1873 133.719 74.7549 133.151 74.7549 132.451C74.7549 131.751 74.1873 131.183 73.487 131.183C72.7867 131.183 72.219 131.751 72.219 132.451C72.219 133.151 72.7867 133.719 73.487 133.719Z" fill="#E6E6E6"/>
<path opacity="0.8" d="M57.226 133.719C57.9263 133.719 58.4939 133.151 58.4939 132.451C58.4939 131.751 57.9263 131.183 57.226 131.183C56.5257 131.183 55.958 131.751 55.958 132.451C55.958 133.151 56.5257 133.719 57.226 133.719Z" fill="#3F3D56"/>
<path opacity="0.4" d="M64.3866 133.719C65.0869 133.719 65.6546 133.151 65.6546 132.451C65.6546 131.751 65.0869 131.183 64.3866 131.183C63.6863 131.183 63.1187 131.751 63.1187 132.451C63.1187 133.151 63.6863 133.719 64.3866 133.719Z" fill="#3F3D56"/>
<path opacity="0.6" d="M60.8063 133.719C61.5066 133.719 62.0743 133.151 62.0743 132.451C62.0743 131.751 61.5066 131.183 60.8063 131.183C60.106 131.183 59.5383 131.751 59.5383 132.451C59.5383 133.151 60.106 133.719 60.8063 133.719Z" fill="#3F3D56"/>
<path opacity="0.8" d="M82.5871 133.719C83.2873 133.719 83.855 133.151 83.855 132.451C83.855 131.751 83.2873 131.183 82.5871 131.183C81.8868 131.183 81.3191 131.751 81.3191 132.451C81.3191 133.151 81.8868 133.719 82.5871 133.719Z" fill="#1FADE0"/>
<path opacity="0.4" d="M89.7477 133.719C90.448 133.719 91.0157 133.151 91.0157 132.451C91.0157 131.751 90.448 131.183 89.7477 131.183C89.0474 131.183 88.4797 131.751 88.4797 132.451C88.4797 133.151 89.0474 133.719 89.7477 133.719Z" fill="#1FADE0"/>
<path opacity="0.6" d="M86.1674 133.719C86.8677 133.719 87.4354 133.151 87.4354 132.451C87.4354 131.751 86.8677 131.183 86.1674 131.183C85.4671 131.183 84.8994 131.751 84.8994 132.451C84.8994 133.151 85.4671 133.719 86.1674 133.719Z" fill="#1FADE0"/>
<path d="M128.859 75.5368C132.417 75.5368 135.302 72.6522 135.302 69.0938C135.302 65.5355 132.417 62.6509 128.859 62.6509C125.301 62.6509 122.416 65.5355 122.416 69.0938C122.416 72.6522 125.301 75.5368 128.859 75.5368Z" fill="#1FADE0"/>
<path d="M130.884 68.5411H129.411V67.0689C129.411 66.9962 129.397 66.9241 129.37 66.8569C129.342 66.7897 129.301 66.7286 129.25 66.6771C129.199 66.6256 129.138 66.5847 129.071 66.5569C129.004 66.529 128.932 66.5146 128.859 66.5146C128.786 66.5146 128.714 66.529 128.647 66.5569C128.58 66.5847 128.519 66.6256 128.468 66.6771C128.416 66.7286 128.376 66.7897 128.348 66.8569C128.32 66.9241 128.306 66.9962 128.307 67.0689V68.5411H126.834C126.688 68.5416 126.548 68.6 126.445 68.7035C126.341 68.807 126.284 68.9472 126.284 69.0934C126.284 69.2396 126.341 69.3798 126.445 69.4833C126.548 69.5868 126.688 69.6452 126.834 69.6457H128.307V71.1183C128.307 71.2644 128.365 71.4044 128.469 71.5076C128.573 71.6108 128.713 71.6687 128.859 71.6687C129.005 71.6687 129.145 71.6108 129.249 71.5076C129.352 71.4044 129.411 71.2644 129.411 71.1183V69.6461H130.884C131.03 69.6456 131.17 69.5871 131.273 69.4836C131.376 69.3801 131.434 69.2399 131.434 69.0937C131.434 68.9476 131.376 68.8074 131.273 68.7038C131.17 68.6003 131.03 68.5419 130.884 68.5414V68.5411Z" fill="white"/>
<path d="M239.678 189.788H0.322148C0.236709 189.788 0.154769 189.754 0.0943546 189.693C0.0339402 189.633 0 189.551 0 189.466C0 189.38 0.0339402 189.298 0.0943546 189.238C0.154769 189.178 0.236709 189.144 0.322148 189.144H239.678C239.763 189.144 239.845 189.178 239.906 189.238C239.966 189.298 240 189.38 240 189.466C240 189.551 239.966 189.633 239.906 189.693C239.845 189.754 239.763 189.788 239.678 189.788Z" fill="#E6E6E6"/>
<path d="M200.414 118.027C200.735 117.635 200.966 117.178 201.09 116.688C201.215 116.198 201.231 115.686 201.137 115.189C201.043 114.692 200.841 114.222 200.545 113.811C200.249 113.401 199.867 113.06 199.425 112.813L191.945 82.1934L186.487 83.9355L194.565 114.346C194.199 115.116 194.128 115.993 194.365 116.811C194.603 117.63 195.132 118.333 195.854 118.787C196.575 119.241 197.438 119.414 198.278 119.274C199.119 119.134 199.879 118.69 200.414 118.027Z" fill="#FEB8B8"/>
<path d="M196.548 98.4403L192.56 101.881L186.98 106.69L184.516 94.0813L184.258 92.7702L184.055 91.7296L189.709 81.8816L194.422 82.1522L194.744 82.1715L194.751 82.2424L194.825 82.9028L195.791 91.5943L195.814 91.8037L196.548 98.4403Z" fill="#3F3D56"/>
<path d="M170.48 185.315H166.53L164.652 170.081H170.481L170.48 185.315Z" fill="#FEB8B8"/>
<path d="M171.487 184.026H163.709C162.394 184.026 161.134 184.548 160.204 185.477C159.275 186.407 158.752 187.667 158.752 188.982V189.143H171.487L171.487 184.026Z" fill="#2F2E41"/>
<path d="M211.715 184.993H207.765L205.886 169.759H211.715L211.715 184.993Z" fill="#FEB8B8"/>
<path d="M212.722 183.703H204.944C203.629 183.703 202.369 184.226 201.439 185.155C200.51 186.085 199.987 187.345 199.987 188.66V188.821H212.722V183.703Z" fill="#2F2E41"/>
<path d="M214.871 178.284L204.24 179.895L188.774 127.552L172.348 180.217L160.428 178.606L175.891 117.398V112.566L177.985 105.318L177.766 103.356L176.242 89.6355L175.582 83.6855L175.539 83.3012C175.503 82.9786 175.589 82.6542 175.779 82.3911C175.969 82.1281 176.25 81.9452 176.568 81.8782L181.529 80.8345H189.637L194.421 82.1521L194.75 82.2423L194.898 82.2841L194.824 82.9027L193.703 92.3029L193.642 92.8184L192.559 101.88L192.321 103.868C201.663 110.633 201.985 117.398 201.985 117.398L214.871 178.284Z" fill="#3F3D56"/>
<path d="M184.603 76.7591C188.973 76.7591 192.516 73.2167 192.516 68.8468C192.516 64.477 188.973 60.9346 184.603 60.9346C180.234 60.9346 176.691 64.477 176.691 68.8468C176.691 73.2167 180.234 76.7591 184.603 76.7591Z" fill="#FEB8B8"/>
<path d="M192.914 102.048L177.262 104.095L177.555 106.331L193.206 104.284L192.914 102.048Z" fill="#CBCBCB"/>
<path d="M156.267 104.771C156.417 104.868 156.558 104.976 156.691 105.095L172.172 101.148L173.228 97.4138L179.073 98.2711L177.846 105.065C177.747 105.613 177.472 106.115 177.064 106.495C176.655 106.874 176.134 107.111 175.58 107.169L157.504 109.073C157.209 109.694 156.732 110.21 156.137 110.553C155.542 110.896 154.857 111.05 154.172 110.994C153.487 110.938 152.836 110.675 152.304 110.239C151.773 109.804 151.387 109.217 151.197 108.557C151.007 107.897 151.023 107.194 151.242 106.543C151.461 105.892 151.873 105.323 152.424 104.912C152.974 104.501 153.637 104.268 154.323 104.242C155.01 104.217 155.688 104.401 156.267 104.771H156.267Z" fill="#FEB8B8"/>
<path d="M180.079 83.8949L177.341 81.801C176.6 81.5201 175.586 82.318 175.408 83.0896L171.542 98.8748L179.596 104.673L180.724 102.902L180.079 83.8949Z" fill="#3F3D56"/>
<path d="M177.807 66.9435L178.237 66.2506C179.308 66.0371 180.418 66.163 181.414 66.6109C182.409 67.0589 183.24 67.8064 183.79 68.7492C184.062 67.7483 185.676 67.7998 186.274 68.6477C186.871 69.4956 186.739 70.6405 186.545 71.6591C186.351 72.6778 186.132 73.7853 186.602 74.7089C186.853 75.1405 187.214 75.4979 187.648 75.7447C188.082 75.9916 188.574 76.119 189.073 76.1141C190.075 76.0899 191.048 75.78 191.879 75.2211C193.408 74.2481 194.63 72.8626 195.404 71.2246C196.179 69.5866 196.475 67.763 196.257 65.9642C196.056 64.5632 195.535 63.2272 194.736 62.0591C195.194 62.0251 195.622 61.8178 195.932 61.4793C196.147 61.1994 196.28 60.8657 196.317 60.515C196.354 60.1642 196.293 59.8101 196.142 59.4916C195.876 58.9347 195.472 58.4553 194.968 58.0993C195.33 58.3883 195.756 58.587 196.21 58.6792C196.768 58.7597 197.42 58.4698 197.521 57.9321C197.617 57.4199 197.207 56.9534 196.828 56.5791L196.09 55.8481C196.217 55.7037 196.336 55.5516 196.444 55.3926C196.855 54.8181 197.091 54.1371 197.124 53.4316C197.157 52.7261 196.985 52.0262 196.629 51.416C197.333 52.6179 196.716 54.048 195.476 55.0241C195.436 55.0563 195.391 55.083 195.35 55.1133L194.88 54.6472C194.512 54.2294 194.061 53.8924 193.556 53.6575C193.035 53.4578 192.371 53.5164 192.031 53.9397C191.667 54.393 191.769 55.1143 191.344 55.5131C190.971 55.862 190.366 55.803 189.864 55.6564C189.363 55.5099 188.845 55.2937 188.339 55.4042C187.998 55.5049 187.707 55.7285 187.522 56.0316C187.337 56.3348 187.271 56.6959 187.337 57.0449C187.394 57.3458 187.521 57.6291 187.708 57.8719C186.308 57.753 184.9 57.7487 183.499 57.859C181.85 57.9508 180.165 58.0651 178.644 58.7088C177.123 59.3524 175.771 60.6327 175.491 62.2601C175.21 63.8876 176.161 66.8005 177.807 66.9435Z" fill="#2F2E41"/>
<path d="M17.6405 180.63C18.3087 180.866 19.0263 180.924 19.7239 180.802C20.4215 180.679 21.0758 180.378 21.6235 179.929C23.0184 178.758 23.4559 176.829 23.8118 175.042L24.8646 169.759L22.6608 171.277C21.0758 172.368 19.4554 173.495 18.3582 175.075C17.261 176.655 16.7819 178.812 17.6637 180.524" fill="#E6E6E6"/>
<path d="M17.9806 187.394C17.7032 185.373 17.4178 183.326 17.6124 181.284C17.7389 179.463 18.3816 177.715 19.4654 176.246C20.0634 175.476 20.7911 174.817 21.6157 174.297C21.8309 174.161 22.0287 174.502 21.8145 174.637C20.3875 175.539 19.2839 176.871 18.6626 178.44C17.9764 180.185 17.8662 182.088 17.9844 183.942C18.056 185.063 18.2074 186.177 18.3604 187.289C18.3724 187.34 18.3649 187.393 18.3393 187.438C18.3138 187.483 18.2722 187.516 18.2228 187.532C18.1725 187.545 18.1188 187.538 18.0734 187.513C18.0281 187.487 17.9947 187.444 17.9806 187.394Z" fill="#F2F2F2"/>
<path d="M19.9773 184.152C20.2639 184.587 20.6579 184.942 21.1212 185.181C21.5846 185.42 22.1017 185.536 22.6228 185.517C23.9619 185.453 25.0785 184.518 26.0836 183.632L29.0564 181.007L27.089 180.913C25.6742 180.845 24.2219 180.782 22.8753 181.218C21.5288 181.655 20.2849 182.705 20.0385 184.1" fill="#E6E6E6"/>
<path d="M17.1966 188.556C18.5319 186.193 20.0807 183.567 22.8483 182.728C23.6178 182.495 24.4247 182.412 25.2254 182.482C25.4777 182.504 25.4149 182.893 25.1629 182.871C23.8206 182.76 22.4809 183.115 21.3693 183.875C20.3243 184.633 19.4384 185.59 18.7619 186.689C18.3302 187.347 17.9433 188.032 17.5564 188.717C17.433 188.936 17.0716 188.778 17.1966 188.556Z" fill="#F2F2F2"/>
</g>
<defs>
<clipPath id="clip0_219_1115">
<rect width="240" height="189.788" fill="white"/>
</clipPath>
</defs>
</svg>
