<svg width="240" height="147" viewBox="0 0 240 147" fill="none" xmlns="http://www.w3.org/2000/svg">
<g clip-path="url(#clip0_218_947)">
<path d="M36.9936 127.261C38.9588 134.526 45.6902 139.025 45.6902 139.025C45.6902 139.025 49.2353 131.746 47.2701 124.481C45.3048 117.216 38.5735 112.717 38.5735 112.717C38.5735 112.717 35.0284 119.996 36.9936 127.261Z" fill="#3F3D56"/>
<path d="M39.8814 125.7C45.274 130.949 45.9327 139.019 45.9327 139.019C45.9327 139.019 37.8482 138.577 32.4556 133.328C27.063 128.078 26.4043 120.009 26.4043 120.009C26.4043 120.009 34.4888 120.45 39.8814 125.7Z" fill="#1FADE0"/>
<path d="M215.926 145.934H26.036V146.52H215.926V145.934Z" fill="#2F2E41"/>
<path d="M48.3516 146.227H40.7325V138.608H48.3516V146.227ZM41.3186 145.641H47.7655V139.194H41.3186V145.641Z" fill="#3F3D56"/>
<path d="M64.5705 5.81006H0V70.3806H64.5705V5.81006Z" fill="#3F3D56"/>
<path d="M64.5705 21.8749V23.3569C63.5864 22.7049 62.792 21.8045 62.2677 20.7468C61.4081 18.9887 61.4353 16.9621 61.4625 15.0016C61.4937 12.6717 61.5248 10.4739 60.0466 9.04248C58.4207 7.47099 55.8184 7.6927 53.3018 7.90666C53.0061 7.93 52.7105 7.95721 52.4188 7.98055C49.8943 8.17116 47.082 7.53323 45.7167 5.81006H47.4204C48.669 6.65024 50.5789 6.94587 52.3332 6.81361C52.6172 6.79416 52.9089 6.76693 53.2006 6.74359C55.8496 6.518 58.8525 6.26126 60.8557 8.20226C62.6995 9.98379 62.6645 12.5433 62.6295 15.0172C62.6022 16.8415 62.5789 18.7242 63.318 20.2334C63.6246 20.8569 64.0501 21.4145 64.5705 21.8749Z" fill="#1FADE0"/>
<path d="M64.5704 32.1245V33.8593C64.2871 33.4891 63.9693 33.1466 63.6213 32.8363C61.6142 31.0665 58.7319 30.6775 55.9468 30.2963C55.585 30.2496 55.2311 30.199 54.8771 30.1485C50.361 29.4989 47.5604 27.9468 46.3196 25.4146C45.4599 23.6564 45.4871 21.6298 45.5144 19.6694C45.5455 17.3394 45.5766 15.1417 44.0985 13.7102C42.4725 12.1387 39.8703 12.3605 37.3536 12.5744C37.058 12.5977 36.7623 12.625 36.4706 12.6483C33.2265 12.8933 29.504 11.7692 28.9944 8.73129C28.8194 7.68881 29.08 6.73194 29.4651 5.81006H30.741C30.3131 6.73583 29.9941 7.63048 30.1458 8.53681C30.5309 10.8551 33.6505 11.6875 36.385 11.4814C36.669 11.4619 36.9607 11.4347 37.2525 11.4113C39.9014 11.1858 42.9043 10.929 44.9076 12.87C46.7513 14.6515 46.7163 17.211 46.6813 19.6849C46.6541 21.5093 46.6307 23.3919 47.3698 24.9011C48.4278 27.0639 50.9367 28.4019 55.0443 28.9932C55.3944 29.0438 55.7484 29.0943 56.1024 29.141C59.0586 29.5417 62.1199 29.9579 64.3954 31.9611C64.4537 32.0117 64.5121 32.0661 64.5704 32.1245Z" fill="#1FADE0"/>
<path d="M64.5705 61.3679V63.764C63.1663 62.2703 61.9915 60.2204 61.093 57.657C60.9024 57.1125 60.7196 56.5562 60.5368 56C59.5293 52.9543 58.4868 49.8074 56.0051 47.7964C53.3523 45.6493 49.552 45.1747 45.8761 44.7157C45.4055 44.6574 44.9348 44.599 44.468 44.5368C38.5089 43.7471 34.8175 41.8684 33.1799 38.7955C32.0441 36.66 32.079 34.2016 32.1141 31.825C32.1568 29.001 32.1996 26.3326 30.247 24.5977C28.1037 22.6917 24.669 22.9601 21.351 23.2208C20.9582 23.2519 20.5692 23.283 20.188 23.3102C15.9053 23.6058 10.9925 22.2444 10.3235 18.5608C9.99283 16.7559 10.8369 15.1572 11.6499 13.6091C12.1167 12.7222 12.5601 11.8781 12.7857 11.0107C13.2603 9.22528 12.6729 7.21427 11.3698 5.81006H13.2758C13.8258 6.60886 14.2 7.51531 14.3737 8.46949C14.5474 9.42367 14.5166 10.4038 14.2833 11.3452C14.0149 12.3604 13.517 13.3096 13.0346 14.2276C12.2917 15.6357 11.5954 16.966 11.8405 18.3274C12.3539 21.1358 16.4654 22.1472 20.0713 21.8982C20.4486 21.871 20.8337 21.8399 21.2188 21.8127C24.7118 21.5365 28.6716 21.2292 31.3167 23.5825C33.7478 25.7413 33.7011 28.8454 33.6544 31.8444C33.6233 34.0577 33.5883 36.341 34.5607 38.1731C35.9572 40.7909 39.2713 42.4168 44.6898 43.1364C45.1487 43.1987 45.6155 43.257 46.0823 43.3154C49.9876 43.8016 54.0214 44.3034 57.0204 46.7345C59.8327 49.0139 60.9413 52.3553 62.0071 55.5877C62.1899 56.14 62.3727 56.6846 62.5594 57.2253C63.054 58.6848 63.7296 60.0765 64.5705 61.3679Z" fill="#1FADE0"/>
<path d="M0 31.8833C1.77374 34.0304 5.53517 34.8239 8.90762 34.5906C9.28882 34.5633 9.6778 34.5322 10.0707 34.5011C13.3887 34.2405 16.8233 33.9721 18.9666 35.8781C20.9193 37.6129 20.8765 40.2813 20.8337 43.1053C20.7987 45.482 20.7637 47.9403 21.8995 50.0758C23.5371 53.1487 27.2285 55.0275 33.1877 55.8171C33.6545 55.8794 34.1251 55.9377 34.5958 55.9961C38.2716 56.4551 42.072 56.9296 44.7248 59.0768C47.2065 61.0878 48.249 64.2346 49.2564 67.2803C49.4392 67.8366 49.622 68.3928 49.8126 68.9374C49.9877 69.4392 50.1744 69.9176 50.3689 70.3805H52.0337C51.742 69.7465 51.493 69.1124 51.2791 68.5056C51.0924 67.9649 50.9096 67.4204 50.7267 66.868C49.6609 63.6356 48.5523 60.2943 45.74 58.0149C42.741 55.5838 38.7073 55.082 34.8019 54.5957C34.3352 54.5374 33.8684 54.479 33.4094 54.4168C27.9909 53.6972 24.6768 52.0713 23.2804 49.4535C22.3079 47.6214 22.3429 45.3381 22.3741 43.1248C22.4208 40.1257 22.4674 37.0217 20.0363 34.8629C17.3913 32.5095 13.4315 32.8168 9.93842 33.093C9.55333 33.1202 9.16824 33.1514 8.79093 33.1786C5.1851 33.4275 1.07359 32.4162 0.560138 29.6078C0.31509 28.2463 1.01136 26.916 1.7543 25.5079C2.23664 24.5899 2.73453 23.6408 3.00293 22.6256C3.73421 19.8483 2.50114 16.7715 8.75265e-06 15.0911V16.9971C1.36532 18.4052 1.9877 20.4629 1.50536 22.2911C1.27975 23.1585 0.836313 24.0026 0.369539 24.8894C0.245067 25.1267 0.120589 25.3601 8.75265e-06 25.6013L0 31.8833Z" fill="#1FADE0"/>
<path d="M28.5627 70.3804H26.9485C26.8629 70.1276 26.7812 69.8709 26.6956 69.6141C25.6882 66.5685 24.6457 63.4216 22.164 61.4106C19.5112 59.2634 15.7109 58.7889 12.035 58.3299C11.5643 58.2715 11.0937 58.2132 10.6269 58.1509C5.36791 57.4547 1.87099 55.9065 0 53.4404V49.5701C0.120247 50.3427 0.363176 51.0912 0.719601 51.7872C2.11605 54.4051 5.43015 56.031 10.8486 56.7506C11.3076 56.8129 11.7744 56.8712 12.2412 56.9295C16.1465 57.4158 20.1802 57.9175 23.1793 60.3487C25.9916 62.6281 27.1002 65.9694 28.166 69.2018C28.2982 69.5986 28.4266 69.9915 28.5627 70.3804Z" fill="#1FADE0"/>
<path d="M152.091 5.81006H87.5203V70.3806H152.091V5.81006Z" fill="#3F3D56"/>
<path d="M118.639 10.4778C118.638 14.1157 117.675 17.6887 115.848 20.8341C114.02 23.9796 111.393 26.5855 108.233 28.3873C105.072 30.189 101.492 31.1225 97.8538 31.093C94.2161 31.0635 90.6509 30.072 87.5203 28.2191V5.81006H118.106C118.462 7.3404 118.64 8.90661 118.639 10.4778Z" fill="#1FADE0"/>
<path d="M135.365 35.7613C142.239 35.7613 147.812 30.1885 147.812 23.314C147.812 16.4396 142.239 10.8667 135.365 10.8667C128.49 10.8667 122.917 16.4396 122.917 23.314C122.917 30.1885 128.49 35.7613 135.365 35.7613Z" fill="#1FADE0"/>
<path d="M107.358 58.7112C112.299 58.7112 116.305 54.7057 116.305 49.7646C116.305 44.8236 112.299 40.8181 107.358 40.8181C102.417 40.8181 98.4116 44.8236 98.4116 49.7646C98.4116 54.7057 102.417 58.7112 107.358 58.7112Z" fill="#1FADE0"/>
<path d="M152.091 59.8003V70.3806H139.29C138.746 68.6787 138.724 66.853 139.227 65.1387C139.731 63.4244 140.735 61.9 142.113 60.7618C143.49 59.6236 145.176 58.9238 146.954 58.7524C148.733 58.5811 150.522 58.946 152.091 59.8003H152.091Z" fill="#1FADE0"/>
<path d="M129.919 51.7095C131.208 51.7095 132.253 50.6646 132.253 49.3756C132.253 48.0867 131.208 47.0417 129.919 47.0417C128.63 47.0417 127.585 48.0867 127.585 49.3756C127.585 50.6646 128.63 51.7095 129.919 51.7095Z" fill="#1FADE0"/>
<path d="M240 5.81006H175.429V70.3806H240V5.81006Z" fill="#3F3D56"/>
<path d="M206.937 5.81006V32.2606H175.429V33.8166H208.493V5.81006H206.937Z" fill="#1FADE0"/>
<path d="M237.328 70.3805L240 66.5801V63.8767L235.426 70.3805H237.328ZM226.475 42.5374L212.157 62.9004L222.795 70.3805H225.499L214.323 62.5231L226.852 44.704L240 53.95V52.0479L226.475 42.5374Z" fill="#1FADE0"/>
<path d="M202.658 39.9585L194.408 48.2088L202.658 56.459L210.908 48.2088L202.658 39.9585ZM196.605 48.2088L202.658 42.1562L208.71 48.2088L202.658 54.2613L196.605 48.2088Z" fill="#1FADE0"/>
<path d="M31.6484 11.7216C34.8852 11.7216 37.5092 9.09764 37.5092 5.86081C37.5092 2.62397 34.8852 0 31.6484 0C28.4116 0 25.7876 2.62397 25.7876 5.86081C25.7876 9.09764 28.4116 11.7216 31.6484 11.7216Z" fill="#F2F2F2"/>
<path d="M122.198 11.7216C125.435 11.7216 128.059 9.09764 128.059 5.86081C128.059 2.62397 125.435 0 122.198 0C118.961 0 116.337 2.62397 116.337 5.86081C116.337 9.09764 118.961 11.7216 122.198 11.7216Z" fill="#F2F2F2"/>
<path d="M208.645 11.7216C211.882 11.7216 214.506 9.09764 214.506 5.86081C214.506 2.62397 211.882 0 208.645 0C205.408 0 202.784 2.62397 202.784 5.86081C202.784 9.09764 205.408 11.7216 208.645 11.7216Z" fill="#F2F2F2"/>
<path d="M116.19 40C119.265 40 121.758 37.5073 121.758 34.4323C121.758 31.3573 119.265 28.8645 116.19 28.8645C113.115 28.8645 110.623 31.3573 110.623 34.4323C110.623 37.5073 113.115 40 116.19 40Z" fill="#FFB8B8"/>
<path d="M113.26 37.0697C113.26 37.0697 114.725 44.6887 114.139 46.1539C113.553 47.6192 122.344 45.5679 122.344 45.5679C122.344 45.5679 120.586 37.9488 120.879 36.1906C121.172 34.4323 113.26 37.0697 113.26 37.0697Z" fill="#FFB8B8"/>
<path d="M103.59 63.4434L104.176 71.3553L107.085 83.7812L107.985 87.1795L109.451 81.9048L107.985 69.8901L107.488 64.4809L103.59 63.4434Z" fill="#FFB8B8"/>
<path d="M134.359 62.271V70.4761C134.359 70.4761 133.48 81.0256 131.722 83.6629C129.963 86.3003 129.377 73.1135 129.377 73.1135L130.755 63.4432L134.359 62.271Z" fill="#FFB8B8"/>
<path d="M108.278 87.7656C108.278 87.7656 106.813 89.5239 107.985 107.399C109.158 125.275 107.399 138.169 111.209 138.169C111.209 138.169 110.037 141.978 113.26 142.271C116.484 142.564 117.949 142.857 118.242 141.978C118.535 141.099 119.121 136.996 118.242 136.996C118.242 136.996 118.242 138.169 118.828 133.48C119.414 128.791 119.414 106.52 120.879 103.59L125.568 114.432C125.568 114.432 125.568 119.414 126.447 121.758C127.326 124.103 128.791 137.582 128.791 137.582L128.498 139.634C128.498 139.634 135.531 140.806 135.824 139.634C136.117 138.462 136.117 136.703 135.824 136.117C135.531 135.531 135.531 135.531 136.117 134.359C136.703 133.187 136.703 132.308 136.41 131.429C136.117 130.55 136.117 111.502 136.117 111.502C136.117 111.502 135.531 88.3517 132.015 87.1795C128.498 86.0074 108.278 87.7656 108.278 87.7656Z" fill="#2F2E41"/>
<path d="M112.088 139.927L109.744 144.029C109.744 144.029 106.081 142.711 106.813 146.081C113.114 146.52 117.509 145.934 117.509 145.934C117.509 145.934 118.974 146.52 119.267 145.641C119.56 144.762 118.535 141.685 117.656 141.685C116.777 141.685 112.088 139.927 112.088 139.927Z" fill="#2F2E41"/>
<path d="M129.084 138.754C129.084 138.754 126.74 144.029 127.619 144.322C128.498 144.615 136.41 145.787 136.996 146.08C137.582 146.373 140.513 146.667 140.806 144.908C141.099 143.15 139.341 142.564 139.341 142.564C139.341 142.564 136.117 141.978 135.238 139.048C134.359 136.117 129.084 138.754 129.084 138.754Z" fill="#2F2E41"/>
<path d="M122.93 44.6886C122.93 44.6886 115.018 43.2234 113.26 44.6886C111.502 46.1538 104.176 49.0842 104.176 50.5494C104.176 52.0146 107.985 66.3735 107.985 66.3735C107.985 66.3735 105.934 88.0585 107.985 88.6446C110.037 89.2307 113.553 87.4724 117.656 89.5237C121.758 91.575 133.48 87.7655 133.48 87.7655C133.48 87.7655 129.084 69.0109 130.256 65.4944C131.429 61.9779 132.308 49.9633 132.308 49.9633C132.308 49.9633 127.326 44.6886 122.93 44.6886Z" fill="#8985A8"/>
<path d="M106.227 49.6704L104.176 50.2565C104.176 50.2565 99.7802 64.0294 101.538 64.6155C103.297 65.2016 108.278 66.3737 108.864 66.3737C109.451 66.3737 106.227 49.6704 106.227 49.6704Z" fill="#8985A8"/>
<path d="M127.619 48.2051L132.308 49.9633C132.308 49.9633 138.461 61.3919 136.996 62.8571C135.531 64.3223 129.084 65.7875 129.084 65.7875L127.619 48.2051Z" fill="#8985A8"/>
<path d="M116.021 27.5553C115.558 27.4714 115.082 27.4924 114.629 27.6168C114.265 27.7776 113.931 27.997 113.639 28.2661C113.109 28.6886 112.542 29.0638 111.946 29.3873C111.472 29.6451 110.961 29.8837 110.63 30.3104C110.473 30.526 110.348 30.7629 110.258 31.0139C109.687 32.4723 109.533 34.061 109.815 35.6018C109.846 35.8208 109.912 36.0334 110.01 36.2318C110.314 36.793 110.987 37.0141 111.554 37.3083C112.63 37.8668 113.445 38.8072 114.328 39.6383C114.655 39.9655 115.024 40.2493 115.424 40.4829C116.683 41.1693 118.221 40.9453 119.634 40.7026C119.735 40.7024 119.834 40.6824 119.926 40.6438C120.018 40.6051 120.102 40.5485 120.173 40.4773C120.243 40.4061 120.299 40.3216 120.336 40.2288C120.374 40.136 120.393 40.0367 120.392 39.9365L121.507 34.9195C121.709 34.1762 121.806 33.4081 121.793 32.6378C121.715 31.42 121.056 29.7329 120.162 28.8678C119.121 27.8598 117.383 27.6994 116.021 27.5553Z" fill="#2F2E41"/>
<path d="M78.3121 141.808C79.5893 141.808 80.6246 140.773 80.6246 139.496C80.6246 138.219 79.5893 137.183 78.3121 137.183C77.035 137.183 75.9996 138.219 75.9996 139.496C75.9996 140.773 77.035 141.808 78.3121 141.808Z" fill="#1FADE0"/>
<path d="M78.3121 146.176C76.9908 146.176 75.6992 145.784 74.6006 145.05C73.502 144.316 72.6458 143.273 72.1401 142.052C71.6345 140.832 71.5022 139.488 71.76 138.192C72.0177 136.897 72.654 135.706 73.5883 134.772C74.5226 133.838 75.7129 133.201 77.0088 132.944C78.3047 132.686 79.6479 132.818 80.8687 133.324C82.0894 133.829 83.1327 134.686 83.8668 135.784C84.6008 136.883 84.9927 138.174 84.9927 139.496C84.9907 141.267 84.2862 142.965 83.0338 144.217C81.7814 145.47 80.0833 146.174 78.3121 146.176ZM78.3121 133.329C77.0925 133.329 75.9002 133.691 74.8861 134.368C73.872 135.046 73.0816 136.009 72.6149 137.136C72.1482 138.263 72.026 139.503 72.264 140.699C72.5019 141.895 73.0892 142.994 73.9517 143.856C74.8141 144.719 75.9129 145.306 77.1091 145.544C78.3053 145.782 79.5452 145.66 80.672 145.193C81.7988 144.726 82.7619 143.936 83.4395 142.922C84.1171 141.908 84.4788 140.715 84.4788 139.496C84.4769 137.861 83.8266 136.293 82.6705 135.137C81.5145 133.981 79.947 133.331 78.3121 133.329Z" fill="#2F2E41"/>
<path d="M190.84 142.101C192.117 142.101 193.152 141.066 193.152 139.789C193.152 138.512 192.117 137.476 190.84 137.476C189.562 137.476 188.527 138.512 188.527 139.789C188.527 141.066 189.562 142.101 190.84 142.101Z" fill="#1FADE0"/>
<path d="M190.84 146.469C189.518 146.469 188.227 146.077 187.128 145.343C186.029 144.609 185.173 143.566 184.668 142.345C184.162 141.124 184.03 139.781 184.287 138.485C184.545 137.189 185.181 135.999 186.116 135.065C187.05 134.131 188.24 133.494 189.536 133.237C190.832 132.979 192.175 133.111 193.396 133.617C194.617 134.122 195.66 134.979 196.394 136.077C197.128 137.176 197.52 138.467 197.52 139.789C197.518 141.56 196.814 143.258 195.561 144.51C194.309 145.763 192.611 146.467 190.84 146.469ZM190.84 133.622C189.62 133.622 188.428 133.984 187.414 134.661C186.399 135.339 185.609 136.302 185.142 137.429C184.676 138.556 184.553 139.796 184.791 140.992C185.029 142.188 185.617 143.287 186.479 144.149C187.342 145.012 188.44 145.599 189.637 145.837C190.833 146.075 192.073 145.953 193.199 145.486C194.326 145.019 195.289 144.229 195.967 143.215C196.645 142.201 197.006 141.008 197.006 139.789C197.004 138.154 196.354 136.586 195.198 135.43C194.042 134.274 192.474 133.624 190.84 133.622V133.622Z" fill="#2F2E41"/>
<path d="M190.84 129.208C192.117 129.208 193.152 128.172 193.152 126.895C193.152 125.618 192.117 124.583 190.84 124.583C189.562 124.583 188.527 125.618 188.527 126.895C188.527 128.172 189.562 129.208 190.84 129.208Z" fill="#1FADE0"/>
<path d="M190.84 133.575C189.518 133.575 188.227 133.184 187.128 132.45C186.029 131.716 185.173 130.672 184.668 129.451C184.162 128.231 184.03 126.887 184.287 125.592C184.545 124.296 185.181 123.105 186.116 122.171C187.05 121.237 188.24 120.6 189.536 120.343C190.832 120.085 192.175 120.217 193.396 120.723C194.617 121.229 195.66 122.085 196.394 123.183C197.128 124.282 197.52 125.574 197.52 126.895C197.518 128.666 196.814 130.364 195.561 131.617C194.309 132.869 192.611 133.573 190.84 133.575ZM190.84 120.728C189.62 120.728 188.428 121.09 187.414 121.768C186.399 122.445 185.609 123.408 185.142 124.535C184.676 125.662 184.553 126.902 184.791 128.098C185.029 129.294 185.617 130.393 186.479 131.255C187.342 132.118 188.44 132.705 189.637 132.943C190.833 133.181 192.073 133.059 193.199 132.592C194.326 132.125 195.289 131.335 195.967 130.321C196.645 129.307 197.006 128.115 197.006 126.895C197.004 125.26 196.354 123.693 195.198 122.536C194.042 121.38 192.474 120.73 190.84 120.728Z" fill="#2F2E41"/>
</g>
<defs>
<clipPath id="clip0_218_947">
<rect width="240" height="146.52" fill="white"/>
</clipPath>
</defs>
</svg>
