<svg width="240" height="157" viewBox="0 0 240 157" fill="none" xmlns="http://www.w3.org/2000/svg">
<g clip-path="url(#clip0_217_862)">
<path d="M141.713 10.3568H115.189V10.8621H141.713V10.3568Z" fill="#CCCCCC"/>
<path d="M94.4754 10.3568H10.3568V10.8621H94.4754V10.3568Z" fill="#CCCCCC"/>
<path d="M10.3568 20.9662C16.0768 20.9662 20.7137 16.3293 20.7137 10.6094C20.7137 4.88948 16.0768 0.252563 10.3568 0.252563C4.63691 0.252563 0 4.88948 0 10.6094C0 16.3293 4.63691 20.9662 10.3568 20.9662Z" fill="#1FADE0"/>
<path d="M57.5945 20.9662C63.3144 20.9662 67.9514 16.3293 67.9514 10.6094C67.9514 4.88948 63.3144 0.252563 57.5945 0.252563C51.8746 0.252563 47.2377 4.88948 47.2377 10.6094C47.2377 16.3293 51.8746 20.9662 57.5945 20.9662Z" fill="#3F3D56"/>
<path d="M104.831 21.2192C102.733 21.2192 100.682 20.597 98.9368 19.4312C97.1921 18.2654 95.8322 16.6084 95.0292 14.6698C94.2261 12.7311 94.0161 10.5979 94.4254 8.53979C94.8348 6.48172 95.8453 4.59127 97.329 3.10749C98.8128 1.62371 100.703 0.613241 102.761 0.203866C104.819 -0.205508 106.953 0.00459482 108.891 0.807612C110.83 1.61063 112.487 2.97049 113.653 4.71523C114.819 6.45998 115.441 8.51124 115.441 10.6096C115.441 13.4235 114.323 16.1221 112.333 18.1118C110.344 20.1014 107.645 21.2192 104.831 21.2192ZM104.831 0.50529C102.833 0.50529 100.879 1.0979 99.2175 2.20818C97.5559 3.31846 96.2608 4.89654 95.496 6.74287C94.7312 8.58919 94.5311 10.6208 94.921 12.5809C95.3109 14.5409 96.2732 16.3414 97.6863 17.7545C99.0995 19.1676 100.9 20.1299 102.86 20.5198C104.82 20.9097 106.852 20.7096 108.698 19.9448C110.544 19.18 112.122 17.8849 113.233 16.2233C114.343 14.5616 114.936 12.6081 114.936 10.6096C114.936 7.92979 113.871 5.35971 111.976 3.46478C110.081 1.56985 107.511 0.50529 104.831 0.50529Z" fill="#CCCCCC"/>
<path d="M152.069 21.2192C149.97 21.2192 147.919 20.597 146.174 19.4312C144.43 18.2654 143.07 16.6084 142.267 14.6698C141.464 12.7311 141.254 10.5979 141.663 8.53979C142.072 6.48172 143.083 4.59127 144.567 3.10749C146.05 1.62371 147.941 0.613241 149.999 0.203866C152.057 -0.205508 154.19 0.00459482 156.129 0.807612C158.068 1.61063 159.725 2.97049 160.89 4.71523C162.056 6.45998 162.678 8.51124 162.678 10.6096C162.678 13.4235 161.561 16.1221 159.571 18.1118C157.581 20.1014 154.883 21.2192 152.069 21.2192ZM152.069 0.50529C150.07 0.50529 148.117 1.0979 146.455 2.20818C144.794 3.31846 143.498 4.89654 142.734 6.74287C141.969 8.58919 141.769 10.6208 142.159 12.5809C142.549 14.5409 143.511 16.3414 144.924 17.7545C146.337 19.1676 148.138 20.1299 150.098 20.5198C152.058 20.9097 154.089 20.7096 155.936 19.9448C157.782 19.18 159.36 17.8849 160.47 16.2233C161.581 14.5616 162.173 12.6081 162.173 10.6096C162.173 9.2827 161.912 7.96878 161.404 6.74287C160.896 5.51695 160.152 4.40306 159.214 3.46478C158.275 2.52651 157.162 1.78223 155.936 1.27444C154.71 0.766646 153.396 0.50529 152.069 0.50529Z" fill="#CCCCCC"/>
<path d="M9.55953 13.6974C9.37759 13.6975 9.20054 13.6385 9.05508 13.5293L9.04611 13.5225L7.1452 12.0686C6.96741 11.9323 6.85105 11.7309 6.82173 11.5088C6.7924 11.2867 6.8525 11.0621 6.98882 10.8843C7.12513 10.7065 7.32649 10.5901 7.54859 10.5608C7.7707 10.5315 7.99536 10.5916 8.17315 10.7279L9.40427 11.6721L12.3135 7.87638C12.4498 7.69868 12.651 7.58238 12.873 7.55305C13.095 7.52373 13.3196 7.58378 13.4973 7.72L13.4794 7.74494L13.4979 7.72C13.6754 7.85643 13.7916 8.05774 13.8208 8.27974C13.8501 8.50173 13.7901 8.72626 13.6539 8.90405L10.2318 13.3664C10.1526 13.4693 10.0507 13.5526 9.93402 13.6097C9.81737 13.6668 9.68912 13.6962 9.55925 13.6957L9.55953 13.6974Z" fill="white"/>
<path d="M184.005 54.9174C184.199 55.0059 184.385 55.1097 184.562 55.2279L202.261 47.6742L202.892 43.0119L209.964 42.9685L209.546 53.6622L186.186 59.8408C186.136 60.0031 186.077 60.1622 186.009 60.3173C185.671 61.0379 185.128 61.6427 184.448 62.0557C183.767 62.4687 182.98 62.6714 182.185 62.6384C181.389 62.6054 180.622 62.3382 179.978 61.8703C179.334 61.4025 178.843 60.7548 178.566 60.0086C178.289 59.2625 178.238 58.4511 178.421 57.6765C178.604 56.9018 179.011 56.1984 179.592 55.6545C180.173 55.1107 180.902 54.7506 181.687 54.6196C182.472 54.4887 183.279 54.5925 184.005 54.9183L184.005 54.9174Z" fill="#FEB8B8"/>
<path d="M212.536 151.816H207.698L205.397 133.156H212.537L212.536 151.816Z" fill="#FEB8B8"/>
<path d="M204.243 150.434H213.573V156.307H198.368C198.368 154.749 198.987 153.254 200.089 152.153C201.19 151.051 202.685 150.432 204.243 150.432V150.434Z" fill="#2F2E41"/>
<path d="M231.351 150.449L226.537 150.923L222.417 132.579L229.523 131.88L231.351 150.449Z" fill="#FEB8B8"/>
<path d="M222.959 149.888L232.242 148.973L232.818 154.819L217.69 156.309C217.537 154.759 218.007 153.211 218.995 152.007C219.983 150.803 221.409 150.041 222.959 149.888H222.959Z" fill="#2F2E41"/>
<path d="M213.883 23.2197C219.235 23.2197 223.574 18.8805 223.574 13.5279C223.574 8.17523 219.235 3.83606 213.883 3.83606C208.53 3.83606 204.191 8.17523 204.191 13.5279C204.191 18.8805 208.53 23.2197 213.883 23.2197Z" fill="#FEB8B8"/>
<path d="M206.617 148.042C206.201 148.043 205.798 147.897 205.479 147.63C205.161 147.363 204.947 146.992 204.875 146.582C202.372 132.685 194.186 87.2336 193.99 85.9736C193.985 85.9447 193.983 85.9155 193.983 85.8862V82.4969C193.983 82.3735 194.022 82.2531 194.093 82.1527L195.175 80.6394C195.226 80.5665 195.293 80.5064 195.372 80.4637C195.45 80.4209 195.537 80.3967 195.626 80.3928C201.792 80.1039 221.979 79.2567 222.955 80.4752C223.934 81.6985 223.586 85.4106 223.507 86.1418L223.511 86.218L232.582 144.224C232.653 144.687 232.539 145.159 232.264 145.538C231.99 145.917 231.577 146.173 231.115 146.25L225.45 147.184C225.028 147.251 224.596 147.166 224.232 146.942C223.868 146.718 223.597 146.37 223.467 145.963C221.715 140.364 215.84 121.53 213.804 114.242C213.793 114.194 213.764 114.152 213.723 114.124C213.683 114.096 213.633 114.084 213.584 114.092C213.535 114.099 213.491 114.124 213.46 114.162C213.429 114.2 213.413 114.249 213.417 114.298C213.518 121.245 213.764 138.97 213.851 145.092L213.86 145.751C213.863 146.198 213.699 146.629 213.4 146.961C213.101 147.292 212.689 147.499 212.245 147.541L206.782 148.036C206.727 148.041 206.672 148.043 206.617 148.042Z" fill="#2F2E41"/>
<path d="M207.732 27.0308C206.04 28.0363 205.028 29.8837 204.448 31.767C203.372 35.2479 202.725 38.8468 202.52 42.4842L201.906 53.3744L194.308 82.2478C200.894 87.8199 204.692 86.5532 213.557 81.9955C222.422 77.4379 223.435 83.515 223.435 83.515L225.207 58.9477L227.74 32.1019C227.171 31.4174 226.528 30.7987 225.821 30.2576C223.481 28.4369 220.757 27.1713 217.856 26.556C214.955 25.9408 211.952 25.9921 209.074 26.706L207.732 27.0308Z" fill="#E6E6E6"/>
<path d="M205.264 60.7486C205.468 60.825 205.666 60.9174 205.856 61.0249L223.356 52.2646L223.647 47.5192L230.866 47.0215L231.252 57.839L207.866 65.5739C207.675 66.3934 207.239 67.1354 206.616 67.7012C205.993 68.267 205.213 68.6297 204.379 68.7411C203.545 68.8525 202.697 68.7074 201.947 68.3249C201.198 67.9425 200.583 67.3409 200.183 66.6002C199.784 65.8595 199.62 65.0148 199.712 64.1784C199.805 63.3421 200.15 62.5538 200.702 61.9184C201.253 61.283 201.985 60.8305 202.8 60.6213C203.615 60.4121 204.475 60.456 205.264 60.7472L205.264 60.7486Z" fill="#FEB8B8"/>
<path d="M227.614 32.2229C231.919 33.7424 232.678 50.2067 232.678 50.2067C227.613 47.4207 221.534 51.9795 221.534 51.9795C221.534 51.9795 220.268 47.6735 218.748 42.1019C218.289 40.5346 218.234 38.8767 218.589 37.2825C218.943 35.6882 219.695 34.2096 220.774 32.9841C220.774 32.9841 223.308 30.7026 227.614 32.2229Z" fill="#E6E6E6"/>
<path d="M222.571 16.0902C221.364 15.1242 219.716 16.8794 219.716 16.8794L218.75 8.18723C218.75 8.18723 212.713 8.91054 208.848 7.94565C204.983 6.98076 204.38 11.4487 204.38 11.4487C204.181 9.64435 204.14 7.82593 204.259 6.01446C204.501 3.84086 207.64 1.66726 213.195 0.218098C218.75 -1.23106 221.648 5.04845 221.648 5.04845C225.514 6.97907 223.78 17.0573 222.571 16.0902Z" fill="#2F2E41"/>
<path d="M240 156.308H33.3495V156.922H240V156.308Z" fill="#E6E6E6"/>
<path d="M53.285 145.47C54.1692 145.781 55.1187 145.859 56.0418 145.696C56.9649 145.533 57.8305 145.136 58.5553 144.541C60.4013 142.992 60.98 140.44 61.4508 138.076L62.8437 131.085L59.9277 133.093C57.8306 134.537 55.6864 136.027 54.2342 138.119C52.7819 140.21 52.1483 143.066 53.315 145.329" fill="#E6E6E6"/>
<path d="M53.7353 154.42C53.3682 151.746 52.9907 149.038 53.2482 146.335C53.4769 143.935 54.2092 141.59 55.7001 139.668C56.4914 138.65 57.4543 137.777 58.5455 137.09C58.8299 136.91 59.092 137.361 58.8086 137.54C56.9202 138.733 55.4595 140.495 54.6371 142.572C53.7291 144.881 53.5834 147.399 53.7403 149.852C53.8351 151.335 54.0354 152.809 54.2375 154.281C54.2534 154.348 54.2434 154.418 54.2096 154.477C54.1758 154.537 54.1207 154.581 54.0553 154.602C53.9887 154.62 53.9177 154.611 53.8576 154.577C53.7976 154.542 53.7535 154.486 53.7347 154.42L53.7353 154.42Z" fill="#F2F2F2"/>
<path d="M56.3772 150.13C56.7564 150.706 57.2777 151.175 57.8909 151.492C58.504 151.808 59.1883 151.961 59.8778 151.936C61.6498 151.852 63.1272 150.616 64.457 149.442L68.3906 145.969L65.7874 145.845C63.9153 145.755 61.9948 145.672 60.2104 146.249C58.4261 146.826 56.7827 148.216 56.4568 150.06" fill="#E6E6E6"/>
<path d="M52.6977 155.957C54.4633 152.831 56.5142 149.356 60.1762 148.245C61.1944 147.938 62.262 147.827 63.3217 147.921C63.6557 147.949 63.5722 148.464 63.2376 148.435C61.4614 148.288 59.6887 148.757 58.2178 149.764C56.8023 150.727 55.7003 152.066 54.7677 153.487C54.1962 154.356 53.6845 155.264 53.1728 156.17C53.0097 156.459 52.5332 156.25 52.6977 155.957Z" fill="#F2F2F2"/>
<path d="M177.234 65.7453H88.7628C88.3285 65.7448 87.9121 65.572 87.605 65.2649C87.2978 64.9577 87.125 64.5413 87.1245 64.107V42.161C87.125 41.7267 87.2978 41.3103 87.605 41.0031C87.9121 40.696 88.3285 40.5232 88.7628 40.5227H177.234C177.668 40.5232 178.085 40.696 178.392 41.0031C178.699 41.3103 178.872 41.7267 178.872 42.161V64.107C178.872 64.5413 178.699 64.9577 178.392 65.2649C178.085 65.572 177.668 65.7448 177.234 65.7453ZM88.7628 41.1782C88.5022 41.1785 88.2523 41.2822 88.068 41.4665C87.8837 41.6508 87.78 41.9007 87.7797 42.1613V64.1072C87.78 64.3679 87.8836 64.6178 88.0679 64.8021C88.2523 64.9865 88.5022 65.0901 88.7628 65.0903H177.234C177.495 65.0901 177.745 64.9865 177.929 64.8021C178.113 64.6178 178.217 64.3679 178.217 64.1072V42.161C178.217 41.9004 178.113 41.6504 177.929 41.4661C177.745 41.2818 177.495 41.1781 177.234 41.1779L88.7628 41.1782Z" fill="#E6E6E6"/>
<path d="M117.923 47.8425C117.628 47.8425 117.345 47.9597 117.136 48.1683C116.928 48.3769 116.811 48.6598 116.811 48.9548C116.811 49.2498 116.928 49.5328 117.136 49.7414C117.345 49.9499 117.628 50.0672 117.923 50.0672H170.359C170.654 50.0672 170.937 49.9499 171.146 49.7414C171.355 49.5328 171.472 49.2498 171.472 48.9548C171.472 48.6598 171.355 48.3769 171.146 48.1683C170.937 47.9597 170.654 47.8425 170.359 47.8425H117.923Z" fill="#E6E6E6"/>
<path d="M117.923 54.5166C117.628 54.5166 117.345 54.6338 117.136 54.8424C116.928 55.051 116.811 55.3339 116.811 55.6289C116.811 55.9239 116.928 56.2068 117.136 56.4154C117.345 56.624 117.628 56.7412 117.923 56.7412H140.486C140.781 56.7412 141.064 56.624 141.273 56.4154C141.482 56.2068 141.599 55.9239 141.599 55.6289C141.599 55.3339 141.482 55.051 141.273 54.8424C141.064 54.6338 140.781 54.5166 140.486 54.5166H117.923Z" fill="#E6E6E6"/>
<path d="M102.572 58.915C106.258 58.915 109.246 55.9271 109.246 52.2412C109.246 48.5554 106.258 45.5674 102.572 45.5674C98.8865 45.5674 95.8986 48.5554 95.8986 52.2412C95.8986 55.9271 98.8865 58.915 102.572 58.915Z" fill="#E6E6E6"/>
<path d="M101.523 55.9503C101.299 55.9507 101.081 55.8781 100.902 55.7435L100.89 55.7351L98.548 53.9432C98.3287 53.7752 98.1852 53.527 98.1489 53.2532C98.1126 52.9794 98.1866 52.7024 98.3546 52.4831C98.5226 52.2639 98.7708 52.1203 99.0446 52.084C99.3184 52.0478 99.5955 52.1218 99.8147 52.2897L101.332 53.4531L104.917 48.7757C105.085 48.5567 105.333 48.4134 105.607 48.3773C105.88 48.3411 106.157 48.4151 106.376 48.5829L106.354 48.6137L106.377 48.5829C106.595 48.751 106.739 48.9991 106.775 49.2726C106.811 49.5461 106.737 49.8228 106.569 50.0419L102.352 55.5443C102.255 55.6709 102.129 55.7734 101.986 55.8438C101.842 55.9142 101.684 55.9505 101.525 55.9501L101.523 55.9503Z" fill="#1FADE0"/>
</g>
<defs>
<clipPath id="clip0_217_862">
<rect width="240" height="156.922" fill="white"/>
</clipPath>
</defs>
</svg>
