<svg width="240" height="177" viewBox="0 0 240 177" fill="none" xmlns="http://www.w3.org/2000/svg">
<g clip-path="url(#clip0_217_716)">
<path d="M112.269 139.603L116.06 137.906L111.312 122.118L105.716 124.622L112.269 139.603Z" fill="#FFB6B6"/>
<path d="M109.553 135.317L115.225 131.311L116.79 133.835L124.789 134.228C125.184 134.248 125.562 134.393 125.869 134.643C126.176 134.892 126.395 135.234 126.494 135.617C126.593 136 126.567 136.404 126.42 136.771C126.272 137.138 126.012 137.449 125.676 137.657L118.664 142.007L115.907 140.261L116.983 143.05L114.339 144.69L109.553 135.317Z" fill="#2F2E41"/>
<path d="M209.662 109.719C209.662 108.131 209.129 106.842 208.474 106.839H29.9874C29.3297 106.842 28.7994 108.131 28.7965 109.719V175.084C28.7965 175.231 28.7416 175.373 28.6426 175.483C28.5435 175.592 28.4074 175.66 28.2606 175.674C27.7816 175.72 27.3025 175.763 26.8234 175.803C26.8116 175.803 26.7997 175.806 26.7879 175.806C26.5272 175.83 26.2665 175.847 26.0058 175.868H26.0028C25.8687 175.62 25.7362 175.37 25.6052 175.118C25.5609 175.033 25.5377 174.938 25.5377 174.842V105.983C25.5377 105.545 25.5555 105.103 25.5851 104.668C25.6274 104.07 25.7016 103.474 25.8073 102.884C26.308 100.132 27.4396 98.2687 28.7254 98.2628H209.733C209.921 98.2641 210.106 98.3034 210.278 98.3784C210.531 98.4902 210.759 98.6502 210.951 98.8494C211.21 99.1195 211.433 99.4234 211.611 99.7529C212.245 100.87 212.699 102.535 212.858 104.472C212.858 104.49 212.861 104.508 212.861 104.526C212.903 105.005 212.924 105.494 212.921 105.983L212.962 112.332L212.989 116.118L213.069 127.997L213.098 132.216L213.229 175.527C213.229 175.684 213.166 175.835 213.055 175.946C212.944 176.057 212.793 176.12 212.636 176.12H210.254C210.097 176.12 209.947 176.057 209.835 175.946C209.724 175.835 209.662 175.684 209.662 175.527V109.719Z" fill="#E6E6E6"/>
<path d="M161.161 68.5563H141.929C141.657 68.5567 141.396 68.6651 141.204 68.8578C141.012 69.0504 140.904 69.3114 140.905 69.5835V99.9648H162.189V69.5835C162.189 69.4486 162.162 69.315 162.111 69.1903C162.059 69.0657 161.983 68.9524 161.888 68.857C161.792 68.7616 161.679 68.6859 161.555 68.6343C161.43 68.5827 161.296 68.5562 161.161 68.5563ZM151.61 85.8185C151.008 85.8157 150.432 85.5756 150.007 85.1503C149.582 84.725 149.342 84.149 149.339 83.5476V80.0433C149.34 79.4415 149.579 78.8645 150.005 78.4392C150.431 78.0138 151.008 77.7749 151.61 77.7749C152.212 77.7749 152.789 78.0138 153.215 78.4392C153.641 78.8645 153.88 79.4415 153.881 80.0433V83.5476C153.878 84.149 153.638 84.725 153.213 85.1503C152.787 85.5756 152.211 85.8158 151.61 85.8185Z" fill="#2F2E41"/>
<path d="M140.839 98.993V101.924C140.839 102.076 140.899 102.222 141.007 102.329C141.114 102.436 141.26 102.497 141.412 102.497H161.682C161.833 102.496 161.979 102.436 162.086 102.329C162.193 102.221 162.254 102.076 162.255 101.924V98.993H140.839Z" fill="#3F3D56"/>
<path d="M116.129 26.2473C115.907 26.8046 115.566 27.3065 115.13 27.7178C114.694 28.129 114.173 28.4396 113.603 28.6276C113.034 28.8156 112.43 28.8766 111.835 28.8061C111.239 28.7355 110.667 28.5353 110.157 28.2196L83.0093 47.1318L82.2598 39.595L108.952 22.3012C109.54 21.4802 110.408 20.903 111.392 20.6792C112.376 20.4554 113.409 20.6004 114.293 21.0868C115.178 21.5732 115.853 22.3672 116.191 23.3183C116.53 24.2694 116.507 25.3116 116.129 26.2473Z" fill="#FFB6B6"/>
<path d="M55.3468 38.1718C55.3468 38.1718 52.4073 42.5152 57.02 46.359C61.6328 50.2027 80.3291 49.438 83.3463 49.405C86.3634 49.3719 100.207 35.0516 100.207 35.0516L100.116 26.7811L83.4023 36.6983L55.3468 38.1718Z" fill="#1FADE0"/>
<path d="M53.6825 67.0091L53.9787 72.6378C53.9787 72.6378 53.1043 77.6238 53.8235 78.6998C54.5372 79.7704 74.1367 81.3631 74.1367 81.3631C74.1367 81.3631 73.5223 72.9684 74.6307 66.8965L53.6825 67.0091Z" fill="#FFB6B6"/>
<path d="M113.834 124.319L106.289 130.923L91.5027 100.682C76.8398 103.204 63.0066 104.012 51.0415 100.961C46.9904 99.9424 44.5141 95.7594 45.5105 91.618C45.5571 91.4244 45.611 91.2329 45.6721 91.0434C47.1041 86.6743 50.8526 83.583 53.8058 78.7776L75.3777 79.1053L72.9683 87.4187L93.9238 84.707C98.1381 84.1616 101.987 87.212 102.52 91.5201C102.548 91.7476 102.567 91.976 102.575 92.2053L113.834 124.319Z" fill="#2F2E41"/>
<path d="M62.1055 29.1301C66.9432 29.1301 70.8649 25.2084 70.8649 20.3707C70.8649 15.533 66.9432 11.6113 62.1055 11.6113C57.2678 11.6113 53.3461 15.533 53.3461 20.3707C53.3461 25.2084 57.2678 29.1301 62.1055 29.1301Z" fill="#FFB6B6"/>
<path d="M56.9703 32.2922L65.0018 33.2371C65.3405 33.277 65.6583 33.4215 65.911 33.6505C66.1637 33.8796 66.3386 34.1817 66.4114 34.5149L67.6887 40.3596L75.6509 49.736C75.6509 49.736 78.51 55.0969 77.4378 61.1726C76.7926 64.8312 75.6764 68.3908 74.117 71.7627C74.117 71.7627 54.5361 79.7709 53.8214 78.6987C53.1066 77.6265 52.8746 72.7564 52.8746 72.7564L50.3555 44.7307C50.2113 43.2541 50.3956 41.7638 50.8953 40.3668C51.395 38.9698 52.1976 37.7007 53.2456 36.6504C53.8812 36.0253 54.5084 35.5876 55.019 35.5876C56.1723 35.5488 56.0243 32.9531 56.9703 32.2922Z" fill="#1FADE0"/>
<path d="M74.204 151.346L77.9311 153.171L86.9035 139.343L81.4025 136.649L74.204 151.346Z" fill="#FFB6B6"/>
<path d="M83.1323 148.22L75.4752 145.313L85.9843 113.749C71.7071 109.563 60.9377 102.821 51.5347 94.8174C48.3448 92.1205 45.9526 88.657 48.6693 85.3763C48.7963 85.2229 48.9289 85.0746 49.0671 84.9313C52.2752 81.6377 60.4169 82.2714 65.1831 79.2552L75.8425 90.6359L75.1746 93.6845L95.1864 100.468C99.2108 101.832 101.325 106.265 99.909 110.368C99.8342 110.585 99.7502 110.798 99.6571 111.008L83.1323 148.22Z" fill="#2F2E41"/>
<path d="M74.0768 149.142L80.4831 151.82L79.1767 154.487L83.0923 161.473C83.2857 161.818 83.3638 162.215 83.3151 162.608C83.2664 163 83.0936 163.367 82.8217 163.654C82.5499 163.942 82.1934 164.135 81.8041 164.205C81.4149 164.275 81.0134 164.219 80.6582 164.045L73.2479 160.415L73.2629 157.152L71.4719 159.545L68.678 158.177L74.0768 149.142Z" fill="#2F2E41"/>
<path d="M61.5495 100.814C61.0471 100.486 60.6226 100.053 60.3059 99.5436C59.9892 99.0345 59.788 98.4621 59.7164 97.8668C59.6449 97.2715 59.7047 96.6677 59.8917 96.0981C60.0787 95.5284 60.3884 95.0066 60.7988 94.5696L47.6368 64.2146L55.1727 64.9723L66.8385 94.5608C67.527 95.299 67.9208 96.2641 67.9453 97.2733C67.9698 98.2825 67.6232 99.2656 66.9713 100.036C66.3194 100.807 65.4073 101.312 64.4081 101.455C63.4088 101.598 62.3917 101.37 61.5495 100.814V100.814Z" fill="#FFB6B6"/>
<path d="M61.8971 38.8742C61.8971 38.8742 58.2217 35.1328 53.5407 38.8931C48.8597 42.6534 45.907 61.1309 45.3419 64.0948C44.7769 67.0588 56.0724 83.4635 56.0724 83.4635L64.1971 85.0124L57.7859 66.6659L61.8971 38.8742Z" fill="#1FADE0"/>
<path d="M193.008 21.1428H110.798C110.092 21.1439 109.415 21.425 108.915 21.9245C108.416 22.4239 108.135 23.101 108.133 23.8073V79.2832C108.134 79.9896 108.415 80.6669 108.915 81.1665C109.414 81.666 110.091 81.9469 110.798 81.9476H193.008C193.715 81.9469 194.392 81.666 194.892 81.1665C195.391 80.6669 195.672 79.9896 195.673 79.2832V23.8073C195.672 23.101 195.391 22.4239 194.891 21.9245C194.392 21.425 193.715 21.1439 193.008 21.1428Z" fill="#3F3D56"/>
<path d="M192.322 23.0674H111.485C111.107 23.0682 110.744 23.219 110.477 23.4867C110.21 23.7544 110.06 24.1171 110.06 24.4953V78.5961C110.06 78.9739 110.211 79.3359 110.478 79.603C110.745 79.8701 111.107 80.0205 111.485 80.0211H192.322C192.7 80.0205 193.062 79.8701 193.329 79.603C193.596 79.3359 193.746 78.9739 193.747 78.5961V24.4953C193.747 24.1171 193.597 23.7544 193.33 23.4867C193.063 23.219 192.7 23.0682 192.322 23.0674Z" fill="white"/>
<path d="M176.576 103.517H128.482C128.351 103.517 128.221 103.488 128.102 103.431C127.983 103.375 127.878 103.292 127.795 103.19C127.713 103.088 127.653 102.968 127.623 102.84C127.592 102.712 127.59 102.579 127.617 102.45L128.363 98.906C128.405 98.7078 128.514 98.53 128.672 98.4022C128.829 98.2744 129.026 98.2043 129.229 98.2036H175.83C176.033 98.2043 176.229 98.2744 176.387 98.4022C176.544 98.53 176.653 98.7078 176.696 98.906L177.442 102.45C177.469 102.579 177.467 102.712 177.436 102.84C177.405 102.968 177.346 103.088 177.263 103.19C177.18 103.292 177.076 103.375 176.957 103.431C176.838 103.488 176.708 103.517 176.576 103.517H176.576Z" fill="#2F2E41"/>
<path d="M130.907 98.8418H129.715C129.635 98.8418 129.57 98.9065 129.57 98.9864V99.5859C129.57 99.6658 129.635 99.7305 129.715 99.7305H130.907C130.987 99.7305 131.051 99.6658 131.051 99.5859V98.9864C131.051 98.9065 130.987 98.8418 130.907 98.8418Z" fill="#3F3D56"/>
<path d="M133.869 98.8418H132.677C132.597 98.8418 132.533 98.9065 132.533 98.9864V99.5859C132.533 99.6658 132.597 99.7305 132.677 99.7305H133.869C133.949 99.7305 134.014 99.6658 134.014 99.5859V98.9864C134.014 98.9065 133.949 98.8418 133.869 98.8418Z" fill="#3F3D56"/>
<path d="M136.832 98.8418H135.64C135.56 98.8418 135.495 98.9065 135.495 98.9864V99.5859C135.495 99.6658 135.56 99.7305 135.64 99.7305H136.832C136.912 99.7305 136.976 99.6658 136.976 99.5859V98.9864C136.976 98.9065 136.912 98.8418 136.832 98.8418Z" fill="#3F3D56"/>
<path d="M139.794 98.8418H138.602C138.522 98.8418 138.458 98.9065 138.458 98.9864V99.5859C138.458 99.6658 138.522 99.7305 138.602 99.7305H139.794C139.874 99.7305 139.939 99.6658 139.939 99.5859V98.9864C139.939 98.9065 139.874 98.8418 139.794 98.8418Z" fill="#3F3D56"/>
<path d="M142.757 98.8418H141.565C141.485 98.8418 141.42 98.9065 141.42 98.9864V99.5859C141.42 99.6658 141.485 99.7305 141.565 99.7305H142.757C142.837 99.7305 142.901 99.6658 142.901 99.5859V98.9864C142.901 98.9065 142.837 98.8418 142.757 98.8418Z" fill="#3F3D56"/>
<path d="M145.719 98.8418H144.527C144.447 98.8418 144.383 98.9065 144.383 98.9864V99.5859C144.383 99.6658 144.447 99.7305 144.527 99.7305H145.719C145.799 99.7305 145.864 99.6658 145.864 99.5859V98.9864C145.864 98.9065 145.799 98.8418 145.719 98.8418Z" fill="#3F3D56"/>
<path d="M148.682 98.8418H147.49C147.41 98.8418 147.345 98.9065 147.345 98.9864V99.5859C147.345 99.6658 147.41 99.7305 147.49 99.7305H148.682C148.761 99.7305 148.826 99.6658 148.826 99.5859V98.9864C148.826 98.9065 148.761 98.8418 148.682 98.8418Z" fill="#3F3D56"/>
<path d="M151.644 98.8418H150.452C150.372 98.8418 150.307 98.9065 150.307 98.9864V99.5859C150.307 99.6658 150.372 99.7305 150.452 99.7305H151.644C151.724 99.7305 151.789 99.6658 151.789 99.5859V98.9864C151.789 98.9065 151.724 98.8418 151.644 98.8418Z" fill="#3F3D56"/>
<path d="M154.607 98.8418H153.415C153.335 98.8418 153.27 98.9065 153.27 98.9864V99.5859C153.27 99.6658 153.335 99.7305 153.415 99.7305H154.607C154.687 99.7305 154.751 99.6658 154.751 99.5859V98.9864C154.751 98.9065 154.687 98.8418 154.607 98.8418Z" fill="#3F3D56"/>
<path d="M157.569 98.8418H156.377C156.297 98.8418 156.232 98.9065 156.232 98.9864V99.5859C156.232 99.6658 156.297 99.7305 156.377 99.7305H157.569C157.649 99.7305 157.714 99.6658 157.714 99.5859V98.9864C157.714 98.9065 157.649 98.8418 157.569 98.8418Z" fill="#3F3D56"/>
<path d="M160.532 98.8418H159.34C159.26 98.8418 159.195 98.9065 159.195 98.9864V99.5859C159.195 99.6658 159.26 99.7305 159.34 99.7305H160.532C160.611 99.7305 160.676 99.6658 160.676 99.5859V98.9864C160.676 98.9065 160.611 98.8418 160.532 98.8418Z" fill="#3F3D56"/>
<path d="M163.494 98.8418H162.302C162.222 98.8418 162.157 98.9065 162.157 98.9864V99.5859C162.157 99.6658 162.222 99.7305 162.302 99.7305H163.494C163.574 99.7305 163.639 99.6658 163.639 99.5859V98.9864C163.639 98.9065 163.574 98.8418 163.494 98.8418Z" fill="#3F3D56"/>
<path d="M166.456 98.8418H165.264C165.185 98.8418 165.12 98.9065 165.12 98.9864V99.5859C165.12 99.6658 165.185 99.7305 165.264 99.7305H166.456C166.536 99.7305 166.601 99.6658 166.601 99.5859V98.9864C166.601 98.9065 166.536 98.8418 166.456 98.8418Z" fill="#3F3D56"/>
<path d="M169.419 98.8418H168.227C168.147 98.8418 168.082 98.9065 168.082 98.9864V99.5859C168.082 99.6658 168.147 99.7305 168.227 99.7305H169.419C169.499 99.7305 169.564 99.6658 169.564 99.5859V98.9864C169.564 98.9065 169.499 98.8418 169.419 98.8418Z" fill="#3F3D56"/>
<path d="M172.382 98.8418H171.19C171.11 98.8418 171.045 98.9065 171.045 98.9864V99.5859C171.045 99.6658 171.11 99.7305 171.19 99.7305H172.382C172.461 99.7305 172.526 99.6658 172.526 99.5859V98.9864C172.526 98.9065 172.461 98.8418 172.382 98.8418Z" fill="#3F3D56"/>
<path d="M175.344 98.8418H174.152C174.072 98.8418 174.007 98.9065 174.007 98.9864V99.5859C174.007 99.6658 174.072 99.7305 174.152 99.7305H175.344C175.424 99.7305 175.489 99.6658 175.489 99.5859V98.9864C175.489 98.9065 175.424 98.8418 175.344 98.8418Z" fill="#3F3D56"/>
<path d="M130.872 100.323H129.68C129.6 100.323 129.535 100.388 129.535 100.468V101.067C129.535 101.147 129.6 101.212 129.68 101.212H130.872C130.952 101.212 131.016 101.147 131.016 101.067V100.468C131.016 100.388 130.952 100.323 130.872 100.323Z" fill="#3F3D56"/>
<path d="M133.834 100.323H132.642C132.562 100.323 132.498 100.388 132.498 100.468V101.067C132.498 101.147 132.562 101.212 132.642 101.212H133.834C133.914 101.212 133.979 101.147 133.979 101.067V100.468C133.979 100.388 133.914 100.323 133.834 100.323Z" fill="#3F3D56"/>
<path d="M136.797 100.323H135.605C135.525 100.323 135.46 100.388 135.46 100.468V101.067C135.46 101.147 135.525 101.212 135.605 101.212H136.797C136.877 101.212 136.941 101.147 136.941 101.067V100.468C136.941 100.388 136.877 100.323 136.797 100.323Z" fill="#3F3D56"/>
<path d="M139.759 100.323H138.567C138.487 100.323 138.423 100.388 138.423 100.468V101.067C138.423 101.147 138.487 101.212 138.567 101.212H139.759C139.839 101.212 139.904 101.147 139.904 101.067V100.468C139.904 100.388 139.839 100.323 139.759 100.323Z" fill="#3F3D56"/>
<path d="M142.722 100.323H141.53C141.45 100.323 141.385 100.388 141.385 100.468V101.067C141.385 101.147 141.45 101.212 141.53 101.212H142.722C142.802 101.212 142.866 101.147 142.866 101.067V100.468C142.866 100.388 142.802 100.323 142.722 100.323Z" fill="#3F3D56"/>
<path d="M145.684 100.323H144.492C144.412 100.323 144.348 100.388 144.348 100.468V101.067C144.348 101.147 144.412 101.212 144.492 101.212H145.684C145.764 101.212 145.829 101.147 145.829 101.067V100.468C145.829 100.388 145.764 100.323 145.684 100.323Z" fill="#3F3D56"/>
<path d="M148.647 100.323H147.455C147.375 100.323 147.31 100.388 147.31 100.468V101.067C147.31 101.147 147.375 101.212 147.455 101.212H148.647C148.727 101.212 148.791 101.147 148.791 101.067V100.468C148.791 100.388 148.727 100.323 148.647 100.323Z" fill="#3F3D56"/>
<path d="M151.609 100.323H150.417C150.337 100.323 150.272 100.388 150.272 100.468V101.067C150.272 101.147 150.337 101.212 150.417 101.212H151.609C151.689 101.212 151.754 101.147 151.754 101.067V100.468C151.754 100.388 151.689 100.323 151.609 100.323Z" fill="#3F3D56"/>
<path d="M154.572 100.323H153.38C153.3 100.323 153.235 100.388 153.235 100.468V101.067C153.235 101.147 153.3 101.212 153.38 101.212H154.572C154.651 101.212 154.716 101.147 154.716 101.067V100.468C154.716 100.388 154.651 100.323 154.572 100.323Z" fill="#3F3D56"/>
<path d="M157.534 100.323H156.342C156.262 100.323 156.198 100.388 156.198 100.468V101.067C156.198 101.147 156.262 101.212 156.342 101.212H157.534C157.614 101.212 157.679 101.147 157.679 101.067V100.468C157.679 100.388 157.614 100.323 157.534 100.323Z" fill="#3F3D56"/>
<path d="M160.497 100.323H159.305C159.225 100.323 159.16 100.388 159.16 100.468V101.067C159.16 101.147 159.225 101.212 159.305 101.212H160.497C160.576 101.212 160.641 101.147 160.641 101.067V100.468C160.641 100.388 160.576 100.323 160.497 100.323Z" fill="#3F3D56"/>
<path d="M163.459 100.323H162.267C162.187 100.323 162.122 100.388 162.122 100.468V101.067C162.122 101.147 162.187 101.212 162.267 101.212H163.459C163.539 101.212 163.604 101.147 163.604 101.067V100.468C163.604 100.388 163.539 100.323 163.459 100.323Z" fill="#3F3D56"/>
<path d="M166.422 100.323H165.23C165.15 100.323 165.085 100.388 165.085 100.468V101.067C165.085 101.147 165.15 101.212 165.23 101.212H166.422C166.501 101.212 166.566 101.147 166.566 101.067V100.468C166.566 100.388 166.501 100.323 166.422 100.323Z" fill="#3F3D56"/>
<path d="M169.384 100.323H168.192C168.112 100.323 168.047 100.388 168.047 100.468V101.067C168.047 101.147 168.112 101.212 168.192 101.212H169.384C169.464 101.212 169.529 101.147 169.529 101.067V100.468C169.529 100.388 169.464 100.323 169.384 100.323Z" fill="#3F3D56"/>
<path d="M172.347 100.323H171.155C171.075 100.323 171.01 100.388 171.01 100.468V101.067C171.01 101.147 171.075 101.212 171.155 101.212H172.347C172.426 101.212 172.491 101.147 172.491 101.067V100.468C172.491 100.388 172.426 100.323 172.347 100.323Z" fill="#3F3D56"/>
<path d="M175.309 100.323H174.117C174.037 100.323 173.972 100.388 173.972 100.468V101.067C173.972 101.147 174.037 101.212 174.117 101.212H175.309C175.389 101.212 175.454 101.147 175.454 101.067V100.468C175.454 100.388 175.389 100.323 175.309 100.323Z" fill="#3F3D56"/>
<path d="M155.46 102.1H143.9C143.82 102.1 143.755 102.165 143.755 102.245V102.845C143.755 102.924 143.82 102.989 143.9 102.989H155.46C155.54 102.989 155.605 102.924 155.605 102.845V102.245C155.605 102.165 155.54 102.1 155.46 102.1Z" fill="#3F3D56"/>
<path d="M186.755 171.132L184.471 167.461L184.014 169.559C183.934 169.926 183.854 170.299 183.78 170.669C183.132 170.115 182.441 169.603 181.766 169.111C179.692 167.606 177.619 166.099 175.548 164.59L176.196 168.353C176.596 170.669 177.014 173.034 178.004 175.152C178.113 175.392 178.232 175.629 178.359 175.86H187.999C188.077 175.645 188.13 175.423 188.159 175.196C188.161 175.181 188.162 175.167 188.162 175.152C188.313 173.715 187.519 172.361 186.755 171.132Z" fill="#F0F0F0"/>
<path d="M56.4054 171.132L54.1214 167.461L53.6652 169.559C53.5852 169.926 53.5052 170.299 53.4311 170.669C52.7823 170.115 52.0921 169.603 51.4167 169.111C49.3429 167.606 47.2702 166.099 45.1984 164.59L45.8471 168.353C46.2471 170.669 46.6648 173.034 47.6543 175.152C47.7639 175.392 47.8824 175.629 48.0098 175.86H57.6497C57.7273 175.645 57.7809 175.423 57.8097 175.196C57.8121 175.181 57.8131 175.167 57.8126 175.152C57.9638 173.715 57.1698 172.361 56.4054 171.132Z" fill="#F0F0F0"/>
<path d="M239.647 176.261L157.957 176.352C157.863 176.352 157.774 176.315 157.708 176.249C157.642 176.182 157.605 176.093 157.605 175.999C157.605 175.906 157.642 175.817 157.708 175.75C157.774 175.684 157.863 175.647 157.957 175.647L239.647 175.556C239.741 175.556 239.83 175.593 239.896 175.659C239.962 175.725 239.999 175.815 239.999 175.908C239.999 176.002 239.962 176.091 239.896 176.157C239.83 176.224 239.741 176.261 239.647 176.261Z" fill="#CACACA"/>
<path d="M82.0432 176.261L0.352695 176.352C0.25932 176.352 0.169864 176.315 0.103933 176.249C0.0380024 176.182 0.000976562 176.093 0.000976562 175.999C0.000976562 175.906 0.0380024 175.817 0.103933 175.75C0.169864 175.684 0.25932 175.647 0.352695 175.647L82.0432 175.556C82.1366 175.556 82.226 175.593 82.2919 175.659C82.3579 175.725 82.3949 175.815 82.3949 175.908C82.3949 176.002 82.3579 176.091 82.2919 176.157C82.226 176.224 82.1366 176.261 82.0432 176.261Z" fill="#CACACA"/>
<path d="M52.8424 12.5624C51.4293 12.9831 50.1109 11.8011 49.1274 10.6813L49.477 11.096C47.1633 12.7254 45.7798 15.3797 44.8822 18.0667C43.9845 20.7507 43.4839 23.5621 42.4707 26.2076C41.4575 28.8502 39.8223 31.4068 37.319 32.7251C33.9654 34.4907 29.8565 33.6879 26.2896 32.414C26.2422 32.3963 26.1978 32.3814 26.1504 32.3637C27.595 29.6652 28.4797 26.7027 28.7514 23.654C27.2841 26.5186 25.168 29.001 22.5717 30.9032C20.2411 29.8437 18.0001 28.5974 15.8706 27.1764C14.493 26.255 13.0414 25.0641 12.8814 23.414C12.7185 21.7758 13.942 20.2797 15.3847 19.4917C16.8275 18.7037 18.4864 18.437 20.0625 17.963C21.6356 17.492 23.2412 16.7188 24.0678 15.2968C25.9726 12.0262 22.7672 7.41363 24.8113 4.226C25.8186 2.65885 27.7738 2.0308 29.5869 1.59531C32.3542 0.933388 35.1631 0.4593 37.9944 0.176286C40.4799 -0.0725631 43.0484 -0.164399 45.4125 0.635471C47.7765 1.43534 49.9214 3.29282 50.4279 5.73983C51.8085 6.46564 53.269 7.26847 54.0096 8.64602C54.7502 10.0206 54.3384 12.1181 52.8424 12.5624Z" fill="#2F2E41"/>
<path d="M50.7329 12.0113C49.3798 13.7064 48.6432 15.5396 48.6432 16.6374C45.8322 21.775 49.852 26.1879 54.9896 28.9988C57.0388 30.1259 59.405 30.5384 61.7146 30.1712L61.9296 29.2537L62.2208 30.0802C62.2208 30.0802 65.5658 41.1282 66.6691 41.7763C66.2504 39.8101 65.7708 30.7065 65.5377 28.7876C65.2151 26.176 66.3399 22.2879 67.1513 19.9234C67.6544 18.4662 67.9127 16.9356 67.9155 15.394V15.3266L68.7055 17.8644L71.582 16.6374C71.0468 13.5679 71.582 10.0834 65.1663 10.3856C61.6965 7.99926 58.6409 7.63575 56.1309 8.31258C55.8069 7.81178 53.9391 8.74977 53.3993 8.48607" fill="#2F2E41"/>
<path d="M193.747 24.4953V78.5961C193.746 78.9739 193.596 79.3359 193.329 79.603C193.062 79.8701 192.7 80.0205 192.322 80.0211H163.817C160.664 77.0967 158.077 73.6158 156.186 69.7531C156.061 69.5043 155.943 69.2525 155.83 68.9977C154.107 65.259 153.064 61.2434 152.749 57.1389C152.728 56.8871 152.711 56.6353 152.699 56.3805C152.66 55.7287 152.642 55.0681 152.642 54.4045C152.637 49.9911 153.47 45.6169 155.098 41.5148C155.196 41.26 155.3 41.0082 155.406 40.7564C158.683 33.0577 164.604 26.7839 172.1 23.0674H192.322C192.7 23.0682 193.063 23.219 193.33 23.4867C193.597 23.7544 193.747 24.1171 193.747 24.4953Z" fill="#1FADE0"/>
<path d="M188.258 30.5213H112.619C112.541 30.5195 112.466 30.4871 112.411 30.4309C112.356 30.3746 112.325 30.2991 112.325 30.2205C112.325 30.1418 112.356 30.0663 112.411 30.0101C112.466 29.9539 112.541 29.9214 112.619 29.9197H188.258C188.337 29.9214 188.412 29.9539 188.467 30.0101C188.522 30.0663 188.553 30.1418 188.553 30.2205C188.553 30.2991 188.522 30.3746 188.467 30.4309C188.412 30.4871 188.337 30.5195 188.258 30.5213Z" fill="#CACACA"/>
<path d="M117.768 28.3839C118.742 28.3839 119.531 27.577 119.531 26.5818C119.531 25.5865 118.742 24.7797 117.768 24.7797C116.795 24.7797 116.005 25.5865 116.005 26.5818C116.005 27.577 116.795 28.3839 117.768 28.3839Z" fill="#3F3D56"/>
<path d="M123.858 28.3839C124.832 28.3839 125.621 27.577 125.621 26.5818C125.621 25.5865 124.832 24.7797 123.858 24.7797C122.884 24.7797 122.095 25.5865 122.095 26.5818C122.095 27.577 122.884 28.3839 123.858 28.3839Z" fill="#3F3D56"/>
<path d="M129.948 28.3839C130.921 28.3839 131.71 27.577 131.71 26.5818C131.71 25.5865 130.921 24.7797 129.948 24.7797C128.974 24.7797 128.185 25.5865 128.185 26.5818C128.185 27.577 128.974 28.3839 129.948 28.3839Z" fill="#3F3D56"/>
<path d="M184.592 25.2263H180.266C180.18 25.228 180.099 25.2633 180.039 25.3245C179.979 25.3857 179.945 25.4681 179.945 25.5539C179.945 25.6396 179.979 25.722 180.039 25.7832C180.099 25.8445 180.18 25.8797 180.266 25.8814H184.592C184.678 25.8797 184.759 25.8445 184.819 25.7832C184.879 25.722 184.913 25.6396 184.913 25.5539C184.913 25.4681 184.879 25.3857 184.819 25.3245C184.759 25.2633 184.678 25.228 184.592 25.2263Z" fill="#3F3D56"/>
<path d="M184.592 26.4558H180.266C180.18 26.4575 180.099 26.4928 180.039 26.554C179.979 26.6152 179.945 26.6976 179.945 26.7833C179.945 26.8691 179.979 26.9515 180.039 27.0127C180.099 27.0739 180.18 27.1092 180.266 27.1109H184.592C184.678 27.1092 184.759 27.0739 184.819 27.0127C184.879 26.9515 184.913 26.8691 184.913 26.7833C184.913 26.6976 184.879 26.6152 184.819 26.554C184.759 26.4928 184.678 26.4575 184.592 26.4558Z" fill="#3F3D56"/>
<path d="M184.592 27.6837H180.266C180.18 27.6854 180.099 27.7207 180.039 27.7819C179.979 27.8431 179.945 27.9255 179.945 28.0113C179.945 28.097 179.979 28.1794 180.039 28.2406C180.099 28.3019 180.18 28.3371 180.266 28.3388H184.592C184.678 28.3371 184.759 28.3019 184.819 28.2406C184.879 28.1794 184.913 28.097 184.913 28.0113C184.913 27.9255 184.879 27.8431 184.819 27.7819C184.759 27.7207 184.678 27.6854 184.592 27.6837Z" fill="#3F3D56"/>
<path d="M135.216 48.0941H125.765C125.055 48.0941 124.479 48.6696 124.479 49.3795V49.3795C124.479 50.0894 125.055 50.6649 125.765 50.6649H135.216C135.926 50.6649 136.502 50.0894 136.502 49.3795C136.502 48.6696 135.926 48.0941 135.216 48.0941Z" fill="#1FADE0"/>
<path d="M141.322 53.2357H119.659C118.949 53.2357 118.373 53.8112 118.373 54.5211C118.373 55.2311 118.949 55.8066 119.659 55.8066H141.322C142.032 55.8066 142.607 55.2311 142.607 54.5211C142.607 53.8112 142.032 53.2357 141.322 53.2357Z" fill="#E6E6E6"/>
<path d="M141.322 58.3774H119.659C118.949 58.3774 118.373 58.9529 118.373 59.6629V59.6629C118.373 60.3728 118.949 60.9483 119.659 60.9483H141.322C142.032 60.9483 142.607 60.3728 142.607 59.6629C142.607 58.9529 142.032 58.3774 141.322 58.3774Z" fill="#E6E6E6"/>
<path d="M120.351 76.9194C120.353 77.9784 120.165 79.029 119.795 80.0211H111.485C111.107 80.0205 110.745 79.8701 110.478 79.6031C110.211 79.336 110.06 78.9739 110.06 78.5962V68.1445C110.524 68.0695 110.994 68.0318 111.464 68.032C112.631 68.0319 113.787 68.2617 114.865 68.7084C115.943 69.155 116.923 69.8096 117.749 70.6349C118.574 71.4602 119.228 72.44 119.675 73.5183C120.122 74.5966 120.352 75.7523 120.351 76.9194Z" fill="#1FADE0"/>
<path opacity="0.2" d="M193.821 41.5148V40.7564H181.109V31.9667H180.353V40.7564H165.784V31.9667H165.029V40.7564H155.406C155.3 41.0082 155.196 41.26 155.098 41.5148H165.029V56.3805H152.699C152.711 56.6353 152.728 56.8871 152.749 57.1389H165.029V68.9977H155.83C155.943 69.2525 156.061 69.5043 156.186 69.7531H165.029V79.7219H165.784V69.7531H180.353V79.7219H181.109V69.7531H193.821V68.9977H181.109V57.1389H193.821V56.3805H181.109V41.5148H193.821ZM180.354 68.9977H165.784V57.1389H180.354V68.9977ZM180.354 56.3805H165.784V41.5148H180.354V56.3805Z" fill="black"/>
<path d="M183.586 74.4083C183.424 74.4157 183.263 74.3732 183.126 74.2863C182.989 74.1995 182.882 74.0726 182.819 73.9229C182.757 73.7731 182.741 73.6077 182.776 73.4491C182.811 73.2905 182.893 73.1463 183.012 73.0361L183.066 72.8205C183.059 72.8032 183.052 72.7859 183.045 72.7687C182.881 72.3829 182.608 72.0539 182.258 71.8231C181.908 71.5923 181.498 71.4701 181.079 71.4716C180.66 71.4732 180.251 71.5985 179.903 71.8319C179.555 72.0652 179.284 72.3962 179.123 72.7833C178.482 74.328 177.665 75.8754 177.464 77.5088C177.376 78.2307 177.413 78.9626 177.575 79.6718C176.068 76.3857 175.286 72.814 175.281 69.1991C175.281 68.292 175.331 67.3855 175.432 66.484C175.515 65.745 175.631 65.0112 175.779 64.2827C176.586 60.3298 178.32 56.6248 180.837 53.472C182.056 52.8072 183.041 51.7849 183.66 50.5428C183.885 50.0964 184.043 49.6198 184.131 49.1279C183.994 49.1459 183.854 49.1571 183.717 49.1662C183.674 49.1684 183.629 49.1707 183.586 49.1729L183.57 49.1736C183.419 49.1804 183.269 49.1434 183.139 49.067C183.008 48.9906 182.902 48.8782 182.834 48.7431C182.766 48.6081 182.739 48.4563 182.755 48.306C182.771 48.1556 182.83 48.0132 182.926 47.8958C182.985 47.8228 183.045 47.7498 183.104 47.6768C183.194 47.5641 183.286 47.4537 183.377 47.3411C183.387 47.3304 183.397 47.3191 183.406 47.3073C183.51 47.1788 183.613 47.0527 183.717 46.9242C183.528 46.6306 183.273 46.3846 182.973 46.2055C181.935 45.5971 180.502 46.0185 179.751 46.958C178.999 47.8976 178.857 49.2157 179.118 50.3896C179.375 51.3885 179.8 52.3363 180.375 53.1925C180.319 53.2647 180.26 53.3345 180.204 53.4066C179.174 54.7307 178.277 56.1525 177.525 57.6516C177.708 55.9721 177.489 54.2732 176.887 52.6946C176.278 51.2234 175.134 49.9844 174.128 48.7125C172.919 47.1848 170.439 47.8515 170.226 49.7881C170.224 49.8069 170.222 49.8256 170.22 49.8443C170.37 49.9287 170.516 50.0182 170.659 50.1129C170.839 50.2331 170.979 50.4049 171.059 50.6056C171.14 50.8064 171.158 51.0268 171.111 51.2381C171.064 51.4493 170.955 51.6415 170.797 51.7894C170.639 51.9373 170.44 52.0341 170.226 52.0671L170.205 52.0705C170.258 52.6093 170.352 53.1434 170.486 53.668C170.875 55.1325 171.562 56.5008 172.505 57.6873C173.448 58.8737 174.625 59.8526 175.964 60.5627C176.052 60.6077 176.137 60.6528 176.225 60.6956C175.469 62.8377 174.995 65.069 174.815 67.3334C174.712 68.6694 174.718 70.0114 174.833 71.3463L174.826 71.299C174.537 69.8146 173.745 68.4752 172.584 67.5069C170.859 66.0897 168.421 65.5678 166.56 64.4286C166.362 64.3016 166.132 64.2338 165.897 64.2332C165.662 64.2327 165.432 64.2993 165.233 64.4254C165.035 64.5514 164.877 64.7316 164.777 64.9446C164.678 65.1576 164.641 65.3946 164.672 65.6276C164.675 65.6442 164.677 65.6608 164.68 65.6774C164.957 65.7904 165.227 65.9206 165.489 66.0672C165.638 66.1515 165.785 66.2411 165.928 66.3357C166.108 66.4559 166.247 66.6277 166.328 66.8284C166.408 67.0292 166.426 67.2497 166.38 67.4609C166.333 67.6721 166.223 67.8643 166.065 68.0122C165.908 68.1602 165.709 68.257 165.495 68.2899L165.473 68.2933C165.457 68.2955 165.444 68.2978 165.428 68.3001C165.902 69.432 166.567 70.4739 167.395 71.3801C168.417 72.4771 169.653 73.3537 171.026 73.9562C172.399 74.5586 173.881 74.8743 175.38 74.8838H175.382C175.789 76.6526 176.379 78.3742 177.142 80.021H183.428C183.451 79.9512 183.471 79.8791 183.491 79.8092C182.91 79.8458 182.325 79.811 181.752 79.7056C182.218 79.1333 182.685 78.5564 183.151 77.9842C183.162 77.9735 183.171 77.9622 183.181 77.9504C183.417 77.6575 183.656 77.3668 183.893 77.0739L183.893 77.0735C183.905 76.1757 183.802 75.2799 183.586 74.4084L183.586 74.4083ZM176.387 60.2472L176.391 60.2428L176.387 60.2517V60.2472ZM174.995 72.7996L174.941 72.678C174.943 72.5901 174.943 72.5022 174.941 72.4121C174.941 72.3873 174.936 72.3625 174.936 72.3377C174.956 72.4932 174.974 72.6487 174.997 72.8042L174.995 72.7996Z" fill="#2F2E41"/>
</g>
<defs>
<clipPath id="clip0_217_716">
<rect width="240" height="176.352" fill="white"/>
</clipPath>
</defs>
</svg>
