<svg width="240" height="203" viewBox="0 0 240 203" fill="none" xmlns="http://www.w3.org/2000/svg">
<g clip-path="url(#clip0_216_315)">
<path d="M15.02 85.8556C12.7388 85.8582 10.5518 86.7653 8.93874 88.3779C7.32569 89.9905 6.41835 92.177 6.41577 94.4576V130.937C6.41835 133.218 7.32569 135.404 8.93874 137.017C10.5518 138.629 12.7388 139.536 15.02 139.539H71.6456C73.9268 139.536 76.1138 138.629 77.7269 137.017C79.3399 135.404 80.2473 133.218 80.2498 130.937V94.4576C80.2473 92.177 79.3399 89.9905 77.7269 88.3779C76.1138 86.7653 73.9268 85.8582 71.6456 85.8556H15.02Z" fill="white"/>
<path d="M71.6457 139.875H15.0202C12.65 139.872 10.3777 138.929 8.70169 137.254C7.02571 135.578 6.08298 133.307 6.08032 130.937V94.4577C6.08298 92.0881 7.02571 89.8163 8.70169 88.1408C10.3777 86.4653 12.65 85.5228 15.0202 85.5201H71.6457C74.0159 85.5228 76.2883 86.4653 77.9642 88.1408C79.6402 89.8163 80.5829 92.0881 80.5856 94.4577V130.937C80.5829 133.307 79.6402 135.578 77.9642 137.254C76.2883 138.929 74.0159 139.872 71.6457 139.875ZM15.0202 86.1912C12.828 86.1937 10.7262 87.0654 9.17612 88.6151C7.62598 90.1648 6.75403 92.266 6.75154 94.4577V130.937C6.75403 133.129 7.62598 135.23 9.17612 136.78C10.7262 138.329 12.828 139.201 15.0202 139.204H71.6457C73.838 139.201 75.9397 138.329 77.4898 136.78C79.0399 135.23 79.9119 133.129 79.9144 130.937V94.4577C79.9119 92.266 79.0399 90.1648 77.4898 88.6151C75.9397 87.0654 73.838 86.1937 71.6457 86.1912H15.0202Z" fill="#3F3D56"/>
<path d="M38.3557 103.453C37.4241 104.423 36.5317 105.433 35.6913 106.481C33.8412 108.709 32.0171 110.955 30.1866 113.196C29.0465 114.59 27.9065 115.983 26.7795 117.377C26.4216 117.147 26.0819 116.89 25.7633 116.608C23.9632 115.047 22.8467 112.842 22.653 110.467C22.4593 108.092 23.2038 105.735 24.727 103.902C26.2503 102.07 28.431 100.906 30.8019 100.661C33.1729 100.417 35.5454 101.11 37.4111 102.593C37.7474 102.855 38.0631 103.143 38.3557 103.453Z" fill="#1FADE0"/>
<path d="M72.2167 102.395V103.747L71.6126 103.525L63.1116 100.418C57.2219 104.613 54.9533 102.636 54.7214 97.5262C54.604 94.9397 49.5933 96.8485 47.1232 97.6235C46.2394 99.5141 44.9679 101.368 41.203 101.297C40.1749 101.278 39.7163 102.71 39.0081 103.452C38.7766 103.696 38.545 103.941 38.3168 104.186C37.6321 104.931 36.2952 105.475 36.3434 106.481C36.4941 109.63 35.9092 112.449 30.8394 113.195C29.0555 113.458 27.1302 115.609 27.4296 117.376C28.6159 124.374 21.9209 127.563 16.2001 131.223C15.699 131.217 15.2002 131.154 14.7134 131.035C18.5091 126.321 22.3228 121.619 26.1543 116.929C26.2416 116.822 26.3288 116.715 26.4161 116.607C26.8658 116.047 27.3256 115.483 27.782 114.923C29.6916 112.584 31.6024 110.248 33.5142 107.914C34.9036 106.216 36.283 104.512 37.7798 102.901C37.8704 102.797 37.9644 102.697 38.0617 102.593C38.206 102.438 38.3503 102.287 38.498 102.13C41.7501 98.771 45.8076 95.8016 50.6672 95.7211C53.5266 95.6775 56.2887 96.5834 58.9467 97.5397C61.8095 98.5764 64.6621 99.63 67.5215 100.677L72.2167 102.395Z" fill="#3F3D56"/>
<path d="M69.8461 110.89V111.943L69.376 111.77L62.7604 109.353C58.1769 112.617 56.4114 111.078 56.2309 107.102C56.1396 105.089 52.2401 106.574 50.3179 107.178C49.6301 108.649 48.6406 110.091 45.7107 110.037C44.9106 110.022 44.5537 111.136 44.0026 111.713C43.8224 111.904 43.6422 112.094 43.4646 112.285C42.9318 112.864 41.8914 113.288 41.9289 114.071C42.0461 116.521 41.5909 118.715 37.6455 119.296C36.2573 119.5 34.759 121.174 34.992 122.549C35.9152 127.995 30.705 130.477 26.253 133.325C25.863 133.321 25.4748 133.272 25.0959 133.179C28.0499 129.51 31.0177 125.851 33.9995 122.202C34.0674 122.118 34.1353 122.035 34.2032 121.951C34.5532 121.515 34.911 121.076 35.2662 120.64C36.7523 118.82 38.2393 117.002 39.7271 115.186C40.8084 113.865 41.8818 112.538 43.0467 111.285C43.1172 111.204 43.1903 111.125 43.2661 111.045C43.3784 110.924 43.4907 110.807 43.6056 110.684C46.1364 108.07 49.2941 105.76 53.0759 105.697C55.3011 105.663 57.4506 106.368 59.5192 107.112C61.747 107.919 63.967 108.739 66.1922 109.554L69.8461 110.89Z" fill="#3F3D56"/>
<path d="M67.8325 119.051V119.803L67.4963 119.68L62.766 117.951C59.4888 120.285 58.2264 119.185 58.0974 116.342C58.0321 114.903 55.2439 115.965 53.8695 116.396C53.3777 117.448 52.6702 118.48 50.5753 118.44C50.0032 118.43 49.748 119.226 49.354 119.639C49.2251 119.775 49.0963 119.912 48.9693 120.048C48.5883 120.462 47.8444 120.765 47.8712 121.325C47.955 123.077 47.6296 124.646 44.8086 125.061C43.8159 125.207 42.7446 126.404 42.9112 127.387C43.5713 131.281 39.846 133.056 36.6627 135.092C36.3839 135.089 36.1063 135.054 35.8354 134.987C37.9476 132.364 40.0696 129.748 42.2016 127.139L42.3473 126.959C42.5975 126.648 42.8534 126.334 43.1073 126.022C44.1699 124.721 45.2331 123.421 46.297 122.122C47.0701 121.177 47.8376 120.229 48.6705 119.333C48.7209 119.275 48.7732 119.219 48.8274 119.161C48.9077 119.075 48.988 118.991 49.0701 118.903C50.8797 117.035 53.1375 115.382 55.8415 115.338C57.4326 115.313 58.9695 115.817 60.4486 116.349C62.0415 116.926 63.6288 117.513 65.2199 118.095L67.8325 119.051Z" fill="#3F3D56"/>
<path d="M125.981 65.8361L130.806 73.2716L127 76.3722L122.174 68.3459C121.895 68.2478 121.632 68.111 121.392 67.9393C121.068 67.7314 120.789 67.4596 120.572 67.1405C120.356 66.8214 120.207 66.4616 120.134 66.083C120.061 65.7044 120.066 65.315 120.148 64.9383C120.23 64.5617 120.388 64.2057 120.613 63.8921C120.837 63.5785 121.123 63.3137 121.452 63.1139C121.782 62.9142 122.149 62.7836 122.531 62.7301C122.913 62.6766 123.302 62.7014 123.674 62.8028C124.046 62.9043 124.394 63.0804 124.695 63.3203C125.098 63.6034 125.426 63.9806 125.65 64.419C125.874 64.8574 125.987 65.3439 125.981 65.8361Z" fill="#FFB6B6"/>
<path d="M192.891 193.847L189.944 195.762L181.15 185.309L185.5 182.482L192.891 193.847Z" fill="#FFB6B6"/>
<path d="M194.994 196.853L185.931 202.744L185.857 202.629C185.249 201.694 185.037 200.556 185.268 199.464C185.5 198.373 186.155 197.418 187.09 196.81L187.091 196.81L187.929 194.478L191.835 193.726L192.626 193.212L194.994 196.853Z" fill="#2F2E41"/>
<path d="M142.385 198.867L138.87 198.866L137.198 185.311L142.386 185.311L142.385 198.867Z" fill="#FFB6B6"/>
<path d="M142.509 202.533L131.699 202.532V202.396C131.699 201.28 132.142 200.21 132.931 199.421C133.72 198.632 134.791 198.189 135.907 198.189H135.907L137.881 196.692L141.566 198.189L142.509 198.189L142.509 202.533Z" fill="#2F2E41"/>
<path d="M178.772 115.22L147.249 115.913L144.124 119.817C144.124 119.817 140.439 121.739 140.199 123.251C139.958 124.763 137.832 151.613 138.982 152.624C140.131 153.635 136.802 160.617 136.557 161.042C136.313 161.468 133.677 182.482 136.557 184.21L137.639 191.545H142.673C142.673 191.545 147.716 185.71 146.701 184.653C145.687 183.595 148.589 180.078 148.7 178.192C148.811 176.306 149.871 167.752 149.05 166.381C148.229 165.009 147.119 159.862 149.202 157.867C151.285 155.871 161 131.351 161 131.351C161 131.351 163.823 160.097 163.817 162.354C163.808 165.29 165.736 163.837 165.736 166.414C165.736 166.935 172.015 180.316 176.234 184.499L184.96 191.209L188.987 188.19V183.828C188.987 183.828 185.255 175.735 183.953 174.433C182.651 173.132 177.844 169.147 177.844 167.325C177.844 165.503 175.581 164.868 177.103 162.452C178.625 160.036 178.104 158.995 177.584 157.954C177.063 156.913 183.052 124.113 183.052 124.113L178.772 115.22Z" fill="#2F2E41"/>
<path d="M172.803 55.7012L159.126 55.0442L155.626 60.7845C155.626 60.7845 145.403 61.8103 146.865 65.6541C148.327 69.498 149.596 92.3216 147.53 95.6177C145.463 98.9138 142.291 96.1815 145.049 102.624C147.806 109.066 141.67 120.401 141.67 120.401L159.524 124.164C159.524 124.164 173.845 119.999 176.449 117.396C179.053 114.793 181.396 112.711 179.834 111.93C178.271 111.149 173.845 110.628 176.188 106.984C178.532 103.339 178.818 103.508 178.805 101.081C178.792 98.6534 177.423 92.6392 177.423 92.6392C177.423 92.6392 186.41 67.1545 183.703 66.1922C180.995 65.23 173.437 60.7845 173.437 60.7845L172.803 55.7012Z" fill="#E6E6E6"/>
<path d="M155.104 63.5187C155.104 63.5187 147.26 59.792 146.103 64.9067C144.946 70.0214 140.479 82.8525 140.479 82.8525C140.479 82.8525 135.531 79.9886 136.313 78.4271C137.095 76.8656 132.861 76.6284 134.23 74.0017C135.598 71.3751 129.282 68.7954 129.282 68.7954L121.731 71.9192C121.731 71.9192 124.655 76.3004 126.598 78.232C128.54 80.1636 125.638 80.5085 127.98 82.8525C130.323 85.1966 135.039 93.9655 135.039 93.9655L141.18 96.5252L158.427 85.9917L155.104 63.5187Z" fill="#E6E6E6"/>
<path d="M165.628 51.9588C170.888 51.9588 175.153 47.6951 175.153 42.4357C175.153 37.1762 170.888 32.9126 165.628 32.9126C160.367 32.9126 156.102 37.1762 156.102 42.4357C156.102 47.6951 160.367 51.9588 165.628 51.9588Z" fill="#FFB6B6"/>
<path d="M171.833 44.8825C172.285 44.6525 172.862 45.0543 172.97 45.55C173.001 45.8022 172.981 46.0582 172.91 46.3022C172.839 46.5462 172.719 46.7732 172.557 46.9692C172.232 47.3585 171.94 47.7749 171.686 48.2138C171.561 48.4358 171.503 48.6886 171.518 48.9426C171.533 49.1965 171.619 49.441 171.768 49.6472C171.931 49.8052 172.134 49.9138 172.356 49.9605C172.578 50.0073 172.808 49.9902 173.02 49.9113C173.443 49.7462 173.817 49.4763 174.106 49.127C175.927 47.1517 177.827 43.8726 176.896 41.3526C176.819 41.0833 176.788 40.8027 176.805 40.5231C176.787 40.2025 176.728 39.7195 177.03 39.6104C177.873 39.3061 175.508 34.3799 171.857 33.3081C172.035 31.6261 163.251 29.2066 163.731 31.3183C163.817 31.6975 162.969 31.4914 162.58 31.5124C159.601 31.6736 156.235 32.4223 156.506 35.8753C156.611 37.2124 156.058 36.904 155.614 38.1696C156.306 38.582 156.533 39.4865 157.067 38.8829C157.6 38.2793 158.056 37.5234 158.82 37.2699C159.635 37 160.518 37.4038 161.212 37.9072C161.907 38.4107 162.544 39.0362 163.36 39.2999C164.276 39.5956 165.274 39.3899 166.229 39.5096C167.586 39.6797 168.791 40.5088 169.688 41.5411C170.543 42.6103 171.264 43.7796 171.836 45.0231" fill="#2F2E41"/>
<path d="M207.669 202.897L101.832 203C101.727 202.999 101.626 202.957 101.551 202.882C101.477 202.807 101.435 202.706 101.435 202.601C101.435 202.495 101.477 202.394 101.551 202.319C101.626 202.244 101.727 202.202 101.832 202.201L207.669 202.098C207.775 202.098 207.876 202.141 207.951 202.216C208.025 202.29 208.067 202.392 208.067 202.497C208.067 202.603 208.025 202.704 207.951 202.779C207.876 202.854 207.775 202.896 207.669 202.897Z" fill="#CACACA"/>
<path d="M174.435 119.408C172.153 119.41 169.966 120.317 168.353 121.93C166.74 123.543 165.833 125.729 165.83 128.01V164.489C165.833 166.77 166.74 168.956 168.353 170.569C169.966 172.181 172.153 173.089 174.435 173.091H231.06C233.341 173.089 235.528 172.181 237.141 170.569C238.755 168.956 239.662 166.77 239.664 164.489V128.01C239.662 125.729 238.755 123.543 237.141 121.93C235.528 120.317 233.341 119.41 231.06 119.408H174.435Z" fill="white"/>
<path d="M231.06 173.427H174.435C172.064 173.424 169.792 172.482 168.116 170.806C166.44 169.131 165.497 166.859 165.495 164.489V128.01C165.497 125.64 166.44 123.368 168.116 121.693C169.792 120.017 172.064 119.075 174.435 119.072H231.06C233.43 119.075 235.703 120.017 237.379 121.693C239.055 123.368 239.997 125.64 240 128.01V164.489C239.997 166.859 239.055 169.131 237.379 170.806C235.703 172.482 233.43 173.424 231.06 173.427ZM174.435 119.743C172.242 119.746 170.141 120.618 168.591 122.167C167.04 123.717 166.168 125.818 166.166 128.01V164.489C166.168 166.681 167.04 168.782 168.591 170.332C170.141 171.882 172.242 172.753 174.435 172.756H231.06C233.252 172.753 235.354 171.882 236.904 170.332C238.454 168.782 239.326 166.681 239.329 164.489V128.01C239.326 125.818 238.454 123.717 236.904 122.167C235.354 120.618 233.252 119.746 231.06 119.743H174.435Z" fill="#3F3D56"/>
<path d="M199.446 155.955C199.586 154.991 198.576 154.046 197.19 153.845C195.804 153.643 194.567 154.261 194.426 155.225C194.286 156.189 195.296 157.134 196.682 157.335C198.068 157.537 199.305 156.919 199.446 155.955Z" fill="#E6E6E6"/>
<path d="M215.948 154.345C216.088 153.381 215.079 152.436 213.692 152.235C212.306 152.033 211.069 152.651 210.929 153.615C210.789 154.579 211.798 155.524 213.184 155.726C214.571 155.927 215.808 155.309 215.948 154.345Z" fill="#3F3D56"/>
<path d="M194.927 142.599C195.067 141.635 194.057 140.69 192.671 140.488C191.285 140.287 190.048 140.905 189.908 141.868C189.767 142.832 190.777 143.777 192.163 143.979C193.549 144.181 194.787 143.563 194.927 142.599Z" fill="#E01FAD"/>
<path d="M187.756 137.128C187.763 136.243 187.269 135.521 186.653 135.517C186.038 135.512 185.533 136.226 185.526 137.111C185.52 137.996 186.013 138.717 186.629 138.721C187.245 138.726 187.75 138.012 187.756 137.128Z" fill="#E6E6E6"/>
<path d="M185.324 126.937C185.331 126.052 184.837 125.331 184.222 125.326C183.606 125.322 183.101 126.035 183.095 126.92C183.088 127.805 183.582 128.526 184.197 128.531C184.813 128.536 185.318 127.822 185.324 126.937Z" fill="#3F3D56"/>
<path d="M204.234 144.872C204.241 143.987 203.747 143.265 203.132 143.261C202.516 143.256 202.011 143.97 202.004 144.855C201.998 145.74 202.491 146.461 203.107 146.465C203.723 146.47 204.228 145.756 204.234 144.872Z" fill="#E6E6E6"/>
<path d="M196.26 148.852C196.266 147.967 195.773 147.246 195.157 147.241C194.541 147.237 194.037 147.95 194.03 148.835C194.023 149.72 194.517 150.441 195.133 150.446C195.748 150.451 196.253 149.737 196.26 148.852Z" fill="#E01FAD"/>
<path d="M207.361 156.209C207.367 155.324 206.874 154.603 206.258 154.599C205.642 154.594 205.138 155.308 205.131 156.192C205.124 157.077 205.618 157.799 206.234 157.803C206.849 157.808 207.354 157.094 207.361 156.209Z" fill="#3F3D56"/>
<path d="M211.066 151.907C212.04 151.907 212.83 150.772 212.83 149.371C212.83 147.971 212.04 146.836 211.066 146.836C210.091 146.836 209.301 147.971 209.301 149.371C209.301 150.772 210.091 151.907 211.066 151.907Z" fill="#E6E6E6"/>
<path d="M207.096 135.812C208.07 135.812 208.86 134.677 208.86 133.277C208.86 131.877 208.07 130.741 207.096 130.741C206.122 130.741 205.332 131.877 205.332 133.277C205.332 134.677 206.122 135.812 207.096 135.812Z" fill="#3F3D56"/>
<path d="M198.495 158.3C199.47 158.3 200.26 157.165 200.26 155.765C200.26 154.365 199.47 153.229 198.495 153.229C197.521 153.229 196.731 154.365 196.731 155.765C196.731 157.165 197.521 158.3 198.495 158.3Z" fill="#E01FAD"/>
<path d="M194.417 163.32C195.294 163.199 195.936 162.607 195.852 161.997C195.768 161.387 194.989 160.991 194.112 161.111C193.235 161.232 192.593 161.824 192.677 162.434C192.761 163.044 193.54 163.441 194.417 163.32Z" fill="#E6E6E6"/>
<path d="M184.68 167.193C185.557 167.072 186.2 166.48 186.116 165.87C186.032 165.26 185.253 164.864 184.376 164.984C183.499 165.105 182.856 165.698 182.94 166.307C183.024 166.917 183.803 167.314 184.68 167.193Z" fill="#3F3D56"/>
<path d="M199.709 145.903C200.586 145.782 201.229 145.19 201.145 144.58C201.061 143.97 200.282 143.573 199.405 143.694C198.528 143.815 197.885 144.407 197.969 145.017C198.053 145.627 198.833 146.023 199.709 145.903Z" fill="#E6E6E6"/>
<path d="M204.798 153.219C205.675 153.098 206.317 152.506 206.233 151.896C206.149 151.286 205.37 150.89 204.493 151.011C203.617 151.131 202.974 151.724 203.058 152.334C203.142 152.943 203.921 153.34 204.798 153.219Z" fill="#E01FAD"/>
<path d="M210.482 141.177C211.359 141.057 212.002 140.464 211.918 139.854C211.834 139.244 211.055 138.848 210.178 138.969C209.301 139.09 208.658 139.682 208.742 140.292C208.826 140.902 209.605 141.298 210.482 141.177Z" fill="#3F3D56"/>
<path d="M64.019 12.3763C61.7378 12.3789 59.5508 13.286 57.9378 14.8987C56.3247 16.5113 55.4174 18.6977 55.4148 20.9783V57.4578C55.4174 59.7384 56.3247 61.9248 57.9378 63.5375C59.5508 65.1501 61.7378 66.0572 64.019 66.0598H120.645C122.926 66.0572 125.113 65.1501 126.726 63.5375C128.339 61.9248 129.246 59.7384 129.249 57.4578V20.9783C129.246 18.6977 128.339 16.5113 126.726 14.8987C125.113 13.286 122.926 12.3789 120.645 12.3763H64.019Z" fill="white"/>
<path d="M120.645 66.3954H64.019C61.6488 66.3927 59.3765 65.4502 57.7005 63.7747C56.0245 62.0991 55.0818 59.8274 55.0791 57.4579V20.9784C55.0818 18.6089 56.0245 16.3371 57.7005 14.6616C59.3765 12.9861 61.6488 12.0436 64.019 12.0409H120.645C123.015 12.0436 125.287 12.9861 126.963 14.6616C128.639 16.3371 129.582 18.6089 129.584 20.9784V57.4579C129.582 59.8274 128.639 62.0991 126.963 63.7747C125.287 65.4502 123.015 66.3927 120.645 66.3954ZM64.019 12.7119C61.8267 12.7144 59.725 13.5861 58.1749 15.1358C56.6247 16.6856 55.7528 18.7868 55.7503 20.9784V57.4579C55.7528 59.6495 56.6247 61.7507 58.1749 63.3004C59.725 64.8502 61.8267 65.7219 64.019 65.7243H120.645C122.837 65.7219 124.938 64.8502 126.489 63.3004C128.039 61.7507 128.911 59.6495 128.913 57.4579V20.9784C128.911 18.7868 128.039 16.6856 126.489 15.1358C124.938 13.5861 122.837 12.7144 120.645 12.7119H64.019Z" fill="#3F3D56"/>
<path d="M86.5649 48.7831C85.8631 48.0816 85.0284 47.5271 84.1096 47.1522C83.1907 46.7773 82.2063 46.5894 81.214 46.5997L81.1347 46.5999C79.7813 46.6004 78.452 46.2415 77.2829 45.5599L77.1612 45.4891L77.2592 45.3881C77.7897 44.8394 78.2327 44.2124 78.5726 43.5292C78.3312 43.7542 78.0433 43.9234 77.7292 44.0248C77.4151 44.1263 77.0826 44.1574 76.7551 44.1161C76.4094 44.0749 76.0775 43.956 75.7843 43.7683C75.4911 43.5805 75.2443 43.3288 75.0622 43.0321C74.3441 41.8672 73.488 40.2143 73.488 38.9551C73.4892 37.8907 73.7121 36.8383 74.1426 35.8648C74.5731 34.8914 75.2017 34.0183 75.9884 33.3012C76.4865 32.8522 76.8843 32.3033 77.156 31.6903C77.4276 31.0774 77.567 30.414 77.565 29.7436L77.5646 29.6481C77.5645 28.7655 77.6724 27.8861 77.8859 27.0296L77.9076 26.9431L77.9966 26.9462C78.5706 26.9657 79.1449 26.9176 79.7076 26.8029C79.1798 26.7381 78.6634 26.6008 78.1731 26.3948L78.0773 26.3561L78.1098 26.258C80.35 24.8714 85.4066 25.5895 88.3416 18.8761C90.7215 13.4324 99.1186 23.7084 99.1186 29.6481C99.1186 30.2542 98.5186 31.0551 98.9677 31.4557C103.823 35.7861 100.473 38.5668 99.4167 41.3649C99.1661 42.0288 99.7095 42.7576 99.7095 43.4758C99.7095 43.5977 99.7064 43.7235 99.7003 43.8497L99.6909 44.0438L99.529 43.9361C99.2088 43.7264 98.9119 43.4829 98.6435 43.21C98.922 43.8506 99.0532 44.5454 99.0275 45.2434C99.0019 45.9413 98.82 46.6247 98.4953 47.2431C98.1322 48.0051 97.6369 48.6967 97.0323 49.2859C95.5523 50.5521 93.6444 51.2052 91.6988 51.1117C89.7531 51.0183 87.9167 50.1853 86.5649 48.7831Z" fill="#1FADE0"/>
<path d="M94.6937 63.227C94.7268 63.2269 94.7587 63.215 94.7837 63.1933C94.8087 63.1716 94.825 63.1416 94.8296 63.1089C95.1892 59.903 95.2108 56.6682 94.8938 53.4578C94.4192 48.3933 92.8949 41.0986 88.3287 35.1076C88.3178 35.0932 88.3041 35.081 88.2885 35.0719C88.2729 35.0628 88.2556 35.0568 88.2377 35.0544C88.2198 35.0519 88.2015 35.053 88.184 35.0576C88.1665 35.0622 88.1501 35.0703 88.1357 35.0812C88.1213 35.0922 88.1092 35.1059 88.1001 35.1215C88.0911 35.1372 88.0851 35.1545 88.0828 35.1724C88.0804 35.1903 88.0815 35.2086 88.0862 35.226C88.0909 35.2435 88.0989 35.2599 88.1099 35.2743C92.6366 41.2135 94.1487 48.4546 94.62 53.4834C94.9352 56.6723 94.9142 59.8856 94.5573 63.0701C94.5546 63.0896 94.5561 63.1095 94.5617 63.1284C94.5672 63.1473 94.5768 63.1648 94.5897 63.1796C94.6027 63.1945 94.6186 63.2064 94.6366 63.2146C94.6545 63.2228 94.674 63.227 94.6937 63.227Z" fill="#3F3D56"/>
<path d="M90.9673 43.5582C90.9964 43.5582 91.0247 43.549 91.0482 43.532C91.0717 43.5149 91.0892 43.4909 91.0982 43.4633C91.1072 43.4356 91.1072 43.4059 91.0982 43.3783C91.0892 43.3506 91.0718 43.3266 91.0483 43.3095C89.7472 42.429 88.3417 41.7137 86.864 41.18C84.5555 40.3351 81.045 39.5691 77.431 40.719C77.3963 40.73 77.3673 40.7544 77.3506 40.7868C77.3338 40.8192 77.3306 40.8569 77.3417 40.8917C77.3527 40.9264 77.3772 40.9553 77.4095 40.9721C77.4419 40.9888 77.4797 40.992 77.5144 40.981C81.0543 39.8547 84.5012 40.608 86.7694 41.4382C88.2233 41.9628 89.6063 42.6661 90.8866 43.5319C90.91 43.549 90.9383 43.5582 90.9673 43.5582Z" fill="#3F3D56"/>
<path d="M97.2613 27.8863C97.2634 27.8573 97.2563 27.8284 97.241 27.8037C97.2257 27.7791 97.203 27.7599 97.176 27.7489C97.1491 27.738 97.1194 27.7358 97.0912 27.7428C97.063 27.7497 97.0378 27.7654 97.019 27.7876C96.0469 29.0216 95.2321 30.3716 94.5932 31.8066C93.584 34.0477 92.567 37.493 93.4539 41.1794C93.4581 41.197 93.4658 41.2135 93.4764 41.2281C93.487 41.2427 93.5004 41.2551 93.5158 41.2645C93.5312 41.274 93.5483 41.2803 93.5662 41.2831C93.584 41.2859 93.6022 41.2852 93.6198 41.2809C93.6373 41.2767 93.6539 41.2691 93.6685 41.2585C93.6831 41.2479 93.6955 41.2345 93.7049 41.2191C93.7143 41.2037 93.7206 41.1866 93.7234 41.1687C93.7262 41.1509 93.7255 41.1327 93.7213 41.1151C92.8526 37.5042 93.8524 34.1215 94.844 31.9195C95.4721 30.5075 96.2733 29.1791 97.2293 27.9649C97.248 27.9427 97.2592 27.9152 97.2613 27.8863Z" fill="#3F3D56"/>
<path d="M110.138 22.9479C108.408 15.6853 108.697 8.53199 111.659 1.52361C111.69 1.09002 111.892 0.686537 112.22 0.401673C112.549 0.116809 112.977 -0.0261665 113.411 0.00411192L129.595 1.15219C130.029 1.18345 130.432 1.38543 130.717 1.7138C131.002 2.04218 131.145 2.47015 131.115 2.90381L129.594 24.3281C129.563 24.7617 129.361 25.1652 129.033 25.45C128.704 25.7349 128.276 25.8779 127.842 25.8476L111.658 24.6995C111.224 24.6683 110.821 24.4663 110.536 24.1379C110.251 23.8095 110.108 23.3816 110.138 22.9479Z" fill="#F2F2F2"/>
<path d="M111.839 16.565C110.455 12.9862 111.34 8.06399 112.816 2.79155C112.846 2.38547 113.035 2.00759 113.343 1.74081C113.65 1.47402 114.051 1.34012 114.457 1.36848L128.366 2.35517C128.773 2.38443 129.151 2.57358 129.417 2.88112C129.684 3.18865 129.818 3.58946 129.79 3.99561L128.437 23.0603C128.407 23.4664 128.218 23.8443 127.911 24.1111C127.603 24.3779 127.202 24.5117 126.796 24.4834L118.179 23.8722C116.37 23.7418 114.687 22.8992 113.498 21.5293C112.309 20.1595 111.713 18.3741 111.839 16.565Z" fill="white"/>
<path d="M118.649 20.0376C119.442 20.0376 120.084 19.3956 120.084 18.6036C120.084 17.8116 119.442 17.1696 118.649 17.1696C117.857 17.1696 117.215 17.8116 117.215 18.6036C117.215 19.3956 117.857 20.0376 118.649 20.0376Z" fill="#1FADE0"/>
<path d="M124.222 6.05786C123.88 5.27896 122.883 5.08606 122.037 4.99737C121.169 4.86764 120.288 4.8541 119.417 4.9571C118.981 5.0109 118.56 5.15045 118.178 5.3677C117.797 5.58495 117.462 5.87559 117.193 6.22287C116.578 7.10653 116.605 8.2763 116.738 9.34449C116.996 11.3994 117.555 13.4051 118.398 15.2967L118.961 15.7971C120.371 14.8068 121.568 13.5446 122.482 12.0847C123.396 10.6249 124.009 8.9969 124.284 7.29669C124.381 6.88613 124.359 6.4566 124.222 6.05786Z" fill="#1FADE0"/>
<path d="M1.065 146.084C-0.664658 138.822 -0.376213 131.668 2.58559 124.66C2.61686 124.226 2.81888 123.823 3.14735 123.538C3.47581 123.253 3.90389 123.11 4.33766 123.141L20.522 124.289C20.9557 124.32 21.3593 124.522 21.6442 124.85C21.9292 125.179 22.0722 125.607 22.0419 126.04L20.5213 147.465C20.49 147.898 20.288 148.302 19.9596 148.587C19.6311 148.871 19.203 149.014 18.7692 148.984L2.58491 147.836C2.1512 147.805 1.74761 147.603 1.46267 147.274C1.17773 146.946 1.03471 146.518 1.065 146.084Z" fill="#F2F2F2"/>
<path d="M2.76562 139.701C1.3814 136.123 2.26645 131.2 3.74319 125.928C3.77247 125.522 3.96168 125.144 4.26929 124.877C4.57691 124.61 4.97782 124.476 5.38406 124.505L19.2931 125.492C19.6993 125.521 20.0773 125.71 20.3442 126.017C20.6111 126.325 20.745 126.726 20.7167 127.132L19.3635 146.197C19.3342 146.603 19.145 146.981 18.8374 147.247C18.5298 147.514 18.1288 147.648 17.7226 147.62L9.10621 147.009C7.29693 146.878 5.61326 146.036 4.42458 144.666C3.2359 143.296 2.63929 141.511 2.76562 139.701Z" fill="white"/>
<path d="M17.4001 130.893C14.1319 132.502 11.5496 133.993 10.1921 137.357C9.31755 135.342 8.44304 134.669 7.56851 132.654C7.31128 132.061 6.44361 132.573 6.69915 133.162C7.73431 135.547 8.76947 137.932 9.80466 140.317C9.98725 140.738 10.6107 140.574 10.7248 140.197C11.2849 138.376 12.211 136.689 13.4462 135.239C14.6814 133.788 16.1998 132.605 17.9083 131.762C18.4895 131.476 17.9799 130.608 17.4001 130.893Z" fill="#1FADE0"/>
<path d="M170.883 143.065C169.154 135.802 169.442 128.649 172.404 121.64C172.435 121.207 172.637 120.803 172.966 120.518C173.294 120.234 173.722 120.091 174.156 120.121L190.34 121.269C190.774 121.3 191.178 121.502 191.463 121.831C191.748 122.159 191.891 122.587 191.86 123.021L190.34 144.445C190.308 144.878 190.106 145.282 189.778 145.567C189.449 145.852 189.021 145.995 188.588 145.964L172.403 144.816C171.97 144.785 171.566 144.583 171.281 144.255C170.996 143.926 170.853 143.498 170.883 143.065Z" fill="#F2F2F2"/>
<path d="M172.584 136.682C171.2 133.103 172.085 128.181 173.562 122.908C173.591 122.502 173.78 122.124 174.088 121.857C174.395 121.591 174.796 121.457 175.203 121.485L189.112 122.472C189.518 122.501 189.896 122.69 190.163 122.998C190.43 123.305 190.563 123.706 190.535 124.112L189.182 143.177C189.153 143.583 188.964 143.961 188.656 144.228C188.348 144.495 187.947 144.628 187.541 144.6L178.925 143.989C177.115 143.858 175.432 143.016 174.243 141.646C173.054 140.276 172.458 138.491 172.584 136.682Z" fill="white"/>
<path d="M187.218 127.873C183.95 129.482 181.368 130.973 180.01 134.337C179.136 132.322 178.261 131.649 177.387 129.634C177.13 129.042 176.262 129.554 176.518 130.142C177.553 132.527 178.588 134.913 179.623 137.298C179.806 137.718 180.429 137.554 180.543 137.178C181.103 135.357 182.029 133.67 183.265 132.219C184.5 130.769 186.018 129.586 187.727 128.743C188.308 128.456 187.798 127.588 187.218 127.873Z" fill="#1FADE0"/>
<path d="M176.327 118.084L180.767 110.832L185.265 112.789L180.298 120.29C180.372 120.814 180.299 121.349 180.085 121.834C179.872 122.318 179.528 122.734 179.091 123.034C178.655 123.334 178.143 123.506 177.614 123.531C177.085 123.556 176.559 123.433 176.096 123.176C175.633 122.919 175.251 122.537 174.993 122.075C174.735 121.613 174.611 121.088 174.635 120.559C174.659 120.03 174.83 119.518 175.129 119.081C175.428 118.644 175.843 118.299 176.327 118.084Z" fill="#FFB6B6"/>
<path d="M176.758 67.3278C176.758 67.3278 182.958 65.0725 183.739 66.6344C184.521 68.1963 188.715 96.6979 188.18 98.1963C187.645 99.6947 184.26 95.5296 187.645 99.6947C191.03 103.86 190.509 102.818 189.728 103.599C188.947 104.38 185.725 115.316 185.725 115.316L176.758 114.135L179.834 97.0915L175.873 75.8021L176.758 67.3278Z" fill="#E6E6E6"/>
</g>
<defs>
<clipPath id="clip0_216_315">
<rect width="240" height="203" fill="white"/>
</clipPath>
</defs>
</svg>
