<svg width="240" height="168" viewBox="0 0 240 168" fill="none" xmlns="http://www.w3.org/2000/svg">
<g clip-path="url(#clip0_219_988)">
<path d="M240 62.7693H9.17126V63.2457H240V62.7693Z" fill="#2F2E41"/>
<path d="M205.084 154.341C201.792 158.66 205.565 167.071 205.565 167.071C205.565 167.071 214.675 168.48 217.967 164.161C221.258 159.842 217.485 151.431 217.485 151.431C217.485 151.431 208.375 150.022 205.084 154.341Z" fill="#1FADE0"/>
<path d="M32.6352 58.124C29.0546 58.124 25.5543 57.0622 22.5771 55.0729C19.5998 53.0835 17.2794 50.256 15.9091 46.9479C14.5389 43.6398 14.1803 39.9997 14.8789 36.4878C15.5774 32.9759 17.3017 29.7501 19.8336 27.2181C22.3655 24.6862 25.5914 22.962 29.1033 22.2634C32.6152 21.5648 36.2553 21.9234 39.5634 23.2936C42.8715 24.6639 45.699 26.9844 47.6883 29.9616C49.6777 32.9388 50.7395 36.4391 50.7395 40.0198C50.734 44.8196 48.8249 49.4213 45.4309 52.8154C42.0368 56.2094 37.4351 58.1185 32.6352 58.124ZM32.6352 22.392C29.1488 22.392 25.7406 23.4258 22.8418 25.3628C19.9429 27.2997 17.6835 30.0528 16.3493 33.2739C15.0151 36.4949 14.666 40.0393 15.3462 43.4588C16.0263 46.8782 17.7052 50.0192 20.1705 52.4845C22.6358 54.9498 25.7768 56.6287 29.1962 57.3088C32.6157 57.989 36.16 57.6399 39.3811 56.3057C42.6022 54.9715 45.3552 52.7121 47.2922 49.8132C49.2292 46.9144 50.263 43.5062 50.263 40.0198C50.2577 35.3462 48.3988 30.8656 45.0941 27.5609C41.7894 24.2562 37.3088 22.3972 32.6352 22.392Z" fill="#2F2E41"/>
<path d="M32.6352 18.2233C26.4617 18.2233 21.4392 14.1359 21.4392 9.11166C21.4392 4.08745 26.4617 0 32.6352 0C38.8088 0 43.8313 4.08745 43.8313 9.11166C43.8313 14.1359 38.8088 18.2233 32.6352 18.2233ZM32.6352 0.387731C26.7243 0.387731 21.9156 4.30129 21.9156 9.11166C21.9156 13.922 26.7243 17.8356 32.6352 17.8356C38.5461 17.8356 43.3548 13.922 43.3548 9.11166C43.3548 4.30129 38.5461 0.387731 32.6352 0.387731Z" fill="#2F2E41"/>
<path d="M27.3946 14.0546C26.0588 14.0546 25.0125 12.0665 25.0125 9.5285C25.0125 6.9905 26.0588 5.00244 27.3946 5.00244C28.7303 5.00244 29.7767 6.9905 29.7767 9.5285C29.7767 12.0665 28.7303 14.0546 27.3946 14.0546ZM27.3946 5.47887C26.3615 5.47887 25.4889 7.3334 25.4889 9.5285C25.4889 11.7236 26.3615 13.5781 27.3946 13.5781C28.4277 13.5781 29.3003 11.7236 29.3003 9.5285C29.3003 7.3334 28.4277 5.47887 27.3946 5.47887Z" fill="#2F2E41"/>
<path d="M37.8759 14.0546C36.5401 14.0546 35.4938 12.0665 35.4938 9.5285C35.4938 6.9905 36.5401 5.00244 37.8759 5.00244C39.2117 5.00244 40.258 6.9905 40.258 9.5285C40.258 12.0665 39.2117 14.0546 37.8759 14.0546ZM37.8759 5.47887C36.8428 5.47887 35.9702 7.3334 35.9702 9.5285C35.9702 11.7236 36.8428 13.5781 37.8759 13.5781C38.909 13.5781 39.7816 11.7236 39.7816 9.5285C39.7816 7.3334 38.909 5.47887 37.8759 5.47887Z" fill="#2F2E41"/>
<path d="M55.9802 35.4938C54.0956 35.4938 52.2534 34.935 50.6864 33.888C49.1195 32.841 47.8982 31.3528 47.177 29.6117C46.4558 27.8706 46.2671 25.9547 46.6348 24.1064C47.0024 22.258 47.9099 20.5602 49.2425 19.2276C50.5751 17.895 52.2729 16.9875 54.1213 16.6199C55.9696 16.2522 57.8855 16.4409 59.6266 17.1621C61.3677 17.8833 62.8559 19.1046 63.9029 20.6715C64.9499 22.2385 65.5087 24.0807 65.5087 25.9653C65.5059 28.4915 64.5011 30.9135 62.7147 32.6998C60.9284 34.4862 58.5065 35.491 55.9802 35.4938ZM55.9802 16.9132C54.1899 16.9132 52.4397 17.4441 50.9511 18.4388C49.4625 19.4334 48.3023 20.8472 47.6171 22.5012C46.932 24.1553 46.7527 25.9753 47.102 27.7313C47.4513 29.4872 48.3134 31.1002 49.5794 32.3661C50.8454 33.6321 52.4583 34.4942 54.2142 34.8435C55.9702 35.1928 57.7902 35.0135 59.4443 34.3284C61.0984 33.6432 62.5121 32.483 63.5068 30.9944C64.5014 29.5058 65.0323 27.7556 65.0323 25.9653C65.0296 23.5654 64.075 21.2645 62.378 19.5675C60.681 17.8705 58.3801 16.9159 55.9802 16.9132Z" fill="#2F2E41"/>
<path d="M9.52854 35.4938C7.64398 35.4938 5.80173 34.935 4.23477 33.888C2.66781 32.841 1.44651 31.3528 0.725321 29.6117C0.00412856 27.8706 -0.184568 25.9547 0.183092 24.1064C0.550753 22.258 1.45826 20.5602 2.79085 19.2276C4.12344 17.895 5.82126 16.9875 7.66961 16.6199C9.51797 16.2522 11.4338 16.4409 13.175 17.1621C14.9161 17.8833 16.4042 19.1046 17.4512 20.6715C18.4982 22.2385 19.0571 24.0807 19.0571 25.9653C19.0542 28.4915 18.0494 30.9135 16.2631 32.6998C14.4767 34.4862 12.0548 35.491 9.52854 35.4938ZM9.52854 16.9132C7.7382 16.9132 5.98807 17.4441 4.49946 18.4388C3.01085 19.4334 1.85062 20.8472 1.16548 22.5012C0.48035 24.1553 0.301087 25.9753 0.650365 27.7313C0.999643 29.4872 1.86177 31.1002 3.12773 32.3661C4.39369 33.6321 6.00662 34.4942 7.76256 34.8435C9.5185 35.1928 11.3386 35.0135 12.9926 34.3284C14.6467 33.6432 16.0604 32.483 17.0551 30.9944C18.0498 29.5058 18.5807 27.7556 18.5807 25.9653C18.5779 23.5654 17.6233 21.2645 15.9263 19.5675C14.2293 17.8705 11.9285 16.9159 9.52854 16.9132Z" fill="#2F2E41"/>
<path d="M32.6352 62.8884C29.2291 62.8884 26.5608 61.7374 26.5608 60.268C26.5608 58.7986 29.2291 57.6477 32.6352 57.6477C36.0414 57.6477 38.7097 58.7986 38.7097 60.268C38.7097 61.7374 36.0414 62.8884 32.6352 62.8884ZM32.6352 58.1241C29.2868 58.1241 27.0372 59.2327 27.0372 60.268C27.0372 61.3034 29.2868 62.4119 32.6352 62.4119C35.9837 62.4119 38.2332 61.3034 38.2332 60.268C38.2332 59.2327 35.9837 58.1241 32.6352 58.1241Z" fill="#2F2E41"/>
<path d="M113.39 58.124C109.809 58.124 106.309 57.0622 103.331 55.0729C100.354 53.0835 98.0338 50.256 96.6635 46.9479C95.2932 43.6398 94.9347 39.9997 95.6333 36.4878C96.3318 32.9759 98.0561 29.7501 100.588 27.2181C103.12 24.6862 106.346 22.962 109.858 22.2634C113.37 21.5648 117.01 21.9234 120.318 23.2936C123.626 24.6639 126.453 26.9844 128.443 29.9616C130.432 32.9388 131.494 36.4391 131.494 40.0198C131.488 44.8196 129.579 49.4213 126.185 52.8154C122.791 56.2094 118.189 58.1185 113.39 58.124ZM113.39 22.392C109.903 22.392 106.495 23.4258 103.596 25.3628C100.697 27.2997 98.4379 30.0528 97.1037 33.2739C95.7695 36.4949 95.4204 40.0393 96.1005 43.4588C96.7807 46.8782 98.4596 50.0192 100.925 52.4845C103.39 54.9498 106.531 56.6287 109.951 57.3088C113.37 57.989 116.914 57.6399 120.135 56.3057C123.357 54.9715 126.11 52.7121 128.047 49.8132C129.984 46.9144 131.017 43.5062 131.017 40.0198C131.012 35.3462 129.153 30.8656 125.849 27.5609C122.544 24.2562 118.063 22.3972 113.39 22.392Z" fill="#2F2E41"/>
<path d="M113.39 22.3921C111.175 22.3921 109.011 21.7354 107.169 20.5052C105.328 19.275 103.893 17.5264 103.046 15.4806C102.198 13.4348 101.977 11.1836 102.409 9.0118C102.841 6.83998 103.907 4.84504 105.473 3.27925C107.039 1.71345 109.033 0.647134 111.205 0.215133C113.377 -0.216868 115.628 0.00485207 117.674 0.852253C119.72 1.69965 121.468 3.13468 122.699 4.97585C123.929 6.81703 124.586 8.98167 124.586 11.196C124.582 14.1644 123.402 17.0102 121.303 19.1091C119.204 21.2081 116.358 22.3887 113.39 22.3921ZM113.39 0.476432C111.269 0.476432 109.197 1.10513 107.434 2.28301C105.671 3.4609 104.297 5.13507 103.486 7.09382C102.675 9.05257 102.462 11.2079 102.876 13.2873C103.29 15.3667 104.31 17.2768 105.81 18.7759C107.309 20.2751 109.219 21.296 111.298 21.7097C113.378 22.1233 115.533 21.911 117.492 21.0997C119.45 20.2883 121.125 18.9144 122.303 17.1515C123.48 15.3887 124.109 13.3162 124.109 11.196C124.106 8.354 122.975 5.62929 120.966 3.61967C118.956 1.61004 116.232 0.479633 113.39 0.476432Z" fill="#2F2E41"/>
<path d="M108.149 14.0546C106.813 14.0546 105.767 12.0665 105.767 9.5285C105.767 6.9905 106.813 5.00244 108.149 5.00244C109.485 5.00244 110.531 6.9905 110.531 9.5285C110.531 12.0665 109.485 14.0546 108.149 14.0546ZM108.149 5.47887C107.116 5.47887 106.243 7.3334 106.243 9.5285C106.243 11.7236 107.116 13.5781 108.149 13.5781C109.182 13.5781 110.055 11.7236 110.055 9.5285C110.055 7.3334 109.182 5.47887 108.149 5.47887Z" fill="#2F2E41"/>
<path d="M118.63 14.0546C117.295 14.0546 116.248 12.0665 116.248 9.5285C116.248 6.9905 117.295 5.00244 118.63 5.00244C119.966 5.00244 121.012 6.9905 121.012 9.5285C121.012 12.0665 119.966 14.0546 118.63 14.0546ZM118.63 5.47887C117.597 5.47887 116.725 7.3334 116.725 9.5285C116.725 11.7236 117.597 13.5781 118.63 13.5781C119.663 13.5781 120.536 11.7236 120.536 9.5285C120.536 7.3334 119.663 5.47887 118.63 5.47887Z" fill="#2F2E41"/>
<path d="M138.878 59.5534C136.994 59.5534 135.152 58.9946 133.585 57.9476C132.018 56.9005 130.796 55.4124 130.075 53.6713C129.354 51.9302 129.165 50.0143 129.533 48.166C129.901 46.3176 130.808 44.6198 132.141 43.2872C133.473 41.9546 135.171 41.0471 137.019 40.6794C138.868 40.3118 140.784 40.5005 142.525 41.2217C144.266 41.9428 145.754 43.1641 146.801 44.7311C147.848 46.2981 148.407 48.1403 148.407 50.0249C148.404 52.5511 147.399 54.9731 145.613 56.7594C143.827 58.5457 141.405 59.5505 138.878 59.5534ZM138.878 40.9728C137.088 40.9728 135.338 41.5037 133.849 42.4983C132.361 43.493 131.2 44.9067 130.515 46.5608C129.83 48.2148 129.651 50.0349 130 51.7909C130.349 53.5468 131.212 55.1597 132.478 56.4257C133.744 57.6916 135.356 58.5538 137.112 58.903C138.868 59.2523 140.688 59.0731 142.342 58.3879C143.997 57.7028 145.41 56.5426 146.405 55.054C147.4 53.5653 147.93 51.8152 147.93 50.0249C147.928 47.6249 146.973 45.3241 145.276 43.6271C143.579 41.9301 141.278 40.9755 138.878 40.9728Z" fill="#2F2E41"/>
<path d="M86.1737 48.3573C84.2866 48.3691 82.4384 47.8204 80.8636 46.7805C79.2888 45.7407 78.0582 44.2567 77.3278 42.5166C76.5974 40.7765 76.4002 38.8588 76.7611 37.0064C77.122 35.1541 78.0248 33.4507 79.355 32.1121C80.6852 30.7735 82.383 29.8601 84.233 29.4875C86.083 29.115 88.002 29.3002 89.7466 30.0197C91.4912 30.7391 92.983 31.9604 94.0326 33.5287C95.0823 35.097 95.6427 36.9416 95.6427 38.8288C95.6477 41.3471 94.6535 43.7646 92.8784 45.551C91.1032 47.3373 88.692 48.3465 86.1737 48.3573ZM86.1737 29.7767C84.3809 29.7654 82.6252 30.2868 81.1291 31.2746C79.633 32.2624 78.4639 33.6722 77.7701 35.3253C77.0762 36.9784 76.8889 38.8003 77.2317 40.56C77.5746 42.3197 78.4322 43.938 79.696 45.2096C80.9597 46.4813 82.5725 47.3491 84.33 47.7029C86.0875 48.0568 87.9106 47.8809 89.568 47.1974C91.2254 46.5139 92.6425 45.3537 93.6397 43.8639C94.6369 42.374 95.1692 40.6216 95.1692 38.8288C95.174 36.4363 94.2295 34.1397 92.5432 32.4427C90.8568 30.7457 88.5661 29.7869 86.1737 29.7767Z" fill="#2F2E41"/>
<path d="M113.39 62.8884C109.983 62.8884 107.315 61.7374 107.315 60.268C107.315 58.7986 109.983 57.6477 113.39 57.6477C116.796 57.6477 119.464 58.7986 119.464 60.268C119.464 61.7374 116.796 62.8884 113.39 62.8884ZM113.39 58.1241C110.041 58.1241 107.792 59.2327 107.792 60.268C107.792 61.3034 110.041 62.4119 113.39 62.4119C116.738 62.4119 118.988 61.3034 118.988 60.268C118.988 59.2327 116.738 58.1241 113.39 58.1241Z" fill="#2F2E41"/>
<path d="M196.764 58.8388C193.184 58.8388 189.683 57.777 186.706 55.7877C183.729 53.7984 181.408 50.9709 180.038 47.6628C178.668 44.3547 178.309 40.7145 179.008 37.2026C179.706 33.6908 181.431 30.4649 183.963 27.933C186.495 25.4011 189.72 23.6768 193.232 22.9782C196.744 22.2797 200.384 22.6382 203.692 24.0085C207.001 25.3787 209.828 27.6992 211.817 30.6764C213.807 33.6536 214.868 37.1539 214.868 40.7346C214.863 45.5345 212.954 50.1362 209.56 53.5302C206.166 56.9242 201.564 58.8334 196.764 58.8388ZM196.764 23.1068C193.278 23.1068 189.87 24.1407 186.971 26.0776C184.072 28.0146 181.813 30.7677 180.478 33.9887C179.144 37.2098 178.795 40.7541 179.475 44.1736C180.155 47.5931 181.834 50.734 184.3 53.1993C186.765 55.6646 189.906 57.3435 193.325 58.0237C196.745 58.7038 200.289 58.3547 203.51 57.0205C206.731 55.6863 209.484 53.4269 211.421 50.5281C213.358 47.6292 214.392 44.221 214.392 40.7346C214.387 36.061 212.528 31.5804 209.223 28.2757C205.918 24.971 201.438 23.1121 196.764 23.1068Z" fill="#2F2E41"/>
<path d="M206.293 24.7741C204.078 24.7741 201.914 24.1175 200.073 22.8873C198.231 21.657 196.796 19.9085 195.949 17.8627C195.102 15.8168 194.88 13.5657 195.312 11.3939C195.744 9.22206 196.81 7.22712 198.376 5.66133C199.942 4.09553 201.937 3.02921 204.109 2.59721C206.28 2.16521 208.532 2.38693 210.577 3.23433C212.623 4.08173 214.372 5.51676 215.602 7.35793C216.832 9.19911 217.489 11.3638 217.489 13.5781C217.486 16.5465 216.305 19.3923 214.206 21.4912C212.107 23.5901 209.261 24.7708 206.293 24.7741ZM206.293 2.85851C204.173 2.85851 202.1 3.48721 200.337 4.66509C198.575 5.84298 197.201 7.51715 196.389 9.4759C195.578 11.4347 195.366 13.59 195.779 15.6694C196.193 17.7488 197.214 19.6589 198.713 21.158C200.212 22.6572 202.122 23.6781 204.202 24.0917C206.281 24.5054 208.436 24.2931 210.395 23.4817C212.354 22.6704 214.028 21.2964 215.206 19.5336C216.384 17.7708 217.012 15.6983 217.012 13.5781C217.009 10.7361 215.879 8.01137 213.869 6.00175C211.86 3.99212 209.135 2.86171 206.293 2.85851Z" fill="#2F2E41"/>
<path d="M201.052 20.7245C199.716 20.7245 198.67 18.7364 198.67 16.1984C198.67 13.6604 199.716 11.6724 201.052 11.6724C202.388 11.6724 203.434 13.6604 203.434 16.1984C203.434 18.7364 202.388 20.7245 201.052 20.7245ZM201.052 12.1488C200.019 12.1488 199.146 14.0033 199.146 16.1984C199.146 18.3935 200.019 20.248 201.052 20.248C202.085 20.248 202.958 18.3935 202.958 16.1984C202.958 14.0033 202.085 12.1488 201.052 12.1488Z" fill="#2F2E41"/>
<path d="M211.534 20.7245C210.198 20.7245 209.151 18.7364 209.151 16.1984C209.151 13.6604 210.198 11.6724 211.534 11.6724C212.869 11.6724 213.916 13.6604 213.916 16.1984C213.916 18.7364 212.869 20.7245 211.534 20.7245ZM211.534 12.1488C210.5 12.1488 209.628 14.0033 209.628 16.1984C209.628 18.3935 210.5 20.248 211.534 20.248C212.567 20.248 213.439 18.3935 213.439 16.1984C213.439 14.0033 212.567 12.1488 211.534 12.1488Z" fill="#2F2E41"/>
<path d="M222.253 60.268C220.369 60.268 218.526 59.7092 216.959 58.6622C215.392 57.6152 214.171 56.127 213.45 54.3859C212.729 52.6448 212.54 50.7289 212.908 48.8806C213.275 47.0322 214.183 45.3344 215.515 44.0018C216.848 42.6692 218.546 41.7617 220.394 41.394C222.243 41.0264 224.158 41.2151 225.9 41.9363C227.641 42.6574 229.129 43.8787 230.176 45.4457C231.223 47.0127 231.782 48.8549 231.782 50.7395C231.779 53.2657 230.774 55.6877 228.988 57.474C227.201 59.2603 224.779 60.2652 222.253 60.268ZM222.253 41.6874C220.463 41.6874 218.713 42.2183 217.224 43.2129C215.735 44.2076 214.575 45.6213 213.89 47.2754C213.205 48.9294 213.026 50.7495 213.375 52.5055C213.724 54.2614 214.586 55.8743 215.852 57.1403C217.118 58.4063 218.731 59.2684 220.487 59.6177C222.243 59.9669 224.063 59.7877 225.717 59.1025C227.371 58.4174 228.785 57.2572 229.78 55.7686C230.774 54.28 231.305 52.5298 231.305 50.7395C231.303 48.3395 230.348 46.0387 228.651 44.3417C226.954 42.6447 224.653 41.6901 222.253 41.6874Z" fill="#2F2E41"/>
<path d="M169.608 49.072C167.723 49.072 165.881 48.5131 164.314 47.4661C162.747 46.4191 161.526 44.931 160.805 43.1898C160.083 41.4487 159.895 39.5329 160.262 37.6845C160.63 35.8362 161.538 34.1383 162.87 32.8057C164.203 31.4732 165.901 30.5656 167.749 30.198C169.597 29.8303 171.513 30.019 173.254 30.7402C174.995 31.4614 176.484 32.6827 177.531 34.2497C178.578 35.8166 179.136 37.6589 179.136 39.5434C179.134 42.0697 178.129 44.4916 176.342 46.278C174.556 48.0643 172.134 49.0691 169.608 49.072ZM169.608 30.4913C167.818 30.4913 166.067 31.0222 164.579 32.0169C163.09 33.0115 161.93 34.4253 161.245 36.0793C160.56 37.7334 160.38 39.5535 160.73 41.3094C161.079 43.0654 161.941 44.6783 163.207 45.9442C164.473 47.2102 166.086 48.0723 167.842 48.4216C169.598 48.7709 171.418 48.5916 173.072 47.9065C174.726 47.2214 176.14 46.0611 177.134 44.5725C178.129 43.0839 178.66 41.3338 178.66 39.5434C178.657 37.1435 177.703 34.8426 176.006 33.1456C174.309 31.4486 172.008 30.4941 169.608 30.4913Z" fill="#2F2E41"/>
<path d="M189.499 62.6501C186.093 62.6501 183.424 61.4992 183.424 60.0298C183.424 58.5604 186.093 57.4094 189.499 57.4094C192.905 57.4094 195.573 58.5604 195.573 60.0298C195.573 61.4992 192.905 62.6501 189.499 62.6501ZM189.499 57.8859C186.15 57.8859 183.901 58.9945 183.901 60.0298C183.901 61.0651 186.15 62.1737 189.499 62.1737C192.847 62.1737 195.097 61.0651 195.097 60.0298C195.097 58.9944 192.847 57.8859 189.499 57.8859Z" fill="#2F2E41"/>
<path d="M86.2393 11.2027C78.7856 3.30338 62.3839 6.39515 62.2192 6.42737L62.1281 5.95978C62.2955 5.9271 78.9535 2.78763 86.5859 10.8756L86.2393 11.2027Z" fill="#1FADE0"/>
<path d="M88.139 13.34C86.9152 12.5752 85.2118 11.769 83.8579 11.4991L86.1527 10.7643L87.446 8.73193C87.3631 10.11 87.7099 11.9624 88.139 13.34Z" fill="#1FADE0"/>
<path d="M161.038 24.0662C153.584 16.1666 137.183 19.2586 137.018 19.2908L136.927 18.8233C137.095 18.7907 153.753 15.6511 161.385 23.7391L161.038 24.0662Z" fill="#1FADE0"/>
<path d="M162.938 26.2035C161.714 25.4387 160.011 24.6325 158.657 24.3626L160.952 23.6279L162.245 21.5955C162.162 22.9735 162.509 24.8259 162.938 26.2035Z" fill="#1FADE0"/>
<path d="M162.362 44.96C162.362 44.96 157.318 44.96 156.757 48.0427C156.197 51.1254 155.356 84.7549 155.917 88.9586C156.477 93.1623 156.477 92.3215 156.477 92.3215C156.477 92.3215 155.36 100.31 157.88 100.66C160.4 101.009 160.4 91.4808 160.4 91.4808L162.362 57.2908L162.362 44.96Z" fill="#9E616A"/>
<path d="M184.221 44.96C184.221 44.96 189.266 44.96 189.826 48.0427C190.387 51.1254 191.228 84.7549 190.667 88.9586C190.107 93.1623 190.107 92.3215 190.107 92.3215C190.107 92.3215 191.224 100.31 188.704 100.66C186.183 101.009 186.183 91.4808 186.183 91.4808L184.221 57.2908V44.96Z" fill="#9E616A"/>
<path d="M161.521 162.103H159.28C158.617 162.103 157.961 162.233 157.349 162.487C156.737 162.74 156.181 163.112 155.713 163.58C155.244 164.049 154.873 164.605 154.619 165.217C154.366 165.829 154.235 166.485 154.235 167.147V167.147H167.967V160.702H161.521V162.103Z" fill="#2F2E41"/>
<path d="M183.1 162.103H185.342C186.005 162.103 186.661 162.233 187.273 162.487C187.885 162.74 188.441 163.112 188.909 163.58C189.378 164.049 189.749 164.605 190.003 165.217C190.256 165.829 190.387 166.485 190.387 167.147V167.147H176.655V160.702H183.1V162.103Z" fill="#2F2E41"/>
<path d="M171.05 38.5144C175.074 38.5144 178.336 35.2522 178.336 31.228C178.336 27.2039 175.074 23.9417 171.05 23.9417C167.026 23.9417 163.763 27.2039 163.763 31.228C163.763 35.2522 167.026 38.5144 171.05 38.5144Z" fill="#9E616A"/>
<path d="M169.368 35.1515C169.368 35.1515 168.528 44.3996 167.407 45.2403C166.286 46.0811 179.177 44.6798 179.177 44.6798C179.177 44.6798 174.693 37.9539 175.534 35.712C176.375 33.47 169.368 35.1515 169.368 35.1515Z" fill="#9E616A"/>
<path d="M185.903 44.96C185.903 44.96 170.489 38.5143 160.4 44.96C160.4 44.96 157.878 51.4056 159.84 55.0488C161.802 58.692 164.884 67.3796 161.802 73.2648C158.719 79.15 162.082 76.6278 162.082 76.6278C162.082 76.6278 158.159 92.3215 157.598 104.652C157.038 116.983 159.28 161.262 160.961 161.542C162.642 161.823 167.967 162.383 168.528 161.542C169.088 160.702 173.012 102.13 173.012 102.13C173.012 102.13 174.693 162.103 176.375 162.103C178.056 162.103 182.54 162.103 183.381 160.702C184.221 159.3 191.228 105.213 188.705 94.003C186.183 82.7932 184.502 77.1882 184.502 77.1882C184.502 77.1882 187.584 75.2265 186.744 74.1055C185.903 72.9846 181.699 60.934 183.661 58.9723C185.623 57.0105 185.903 44.96 185.903 44.96Z" fill="#2F2E41"/>
<path d="M175.674 38.6068C182.174 38.6068 187.444 33.3371 187.444 26.8365C187.444 20.3359 182.174 15.0662 175.674 15.0662C169.173 15.0662 163.904 20.3359 163.904 26.8365C163.904 33.3371 169.173 38.6068 175.674 38.6068Z" fill="#2F2E41"/>
<path d="M183.024 20.944C181.04 20.4779 179.312 19.2661 178.199 17.5601C177.085 15.854 176.67 13.7846 177.042 11.7812C177.007 11.9018 176.975 12.0233 176.946 12.1466C176.466 14.1935 176.818 16.3473 177.925 18.1345C179.033 19.9216 180.805 21.1957 182.852 21.6766C184.898 22.1576 187.052 21.8059 188.84 20.699C190.627 19.5921 191.902 17.8206 192.384 15.774C192.413 15.6507 192.438 15.5275 192.461 15.4043C191.901 17.3633 190.608 19.0316 188.851 20.0631C187.094 21.0945 185.007 21.41 183.024 20.944Z" fill="#2F2E41"/>
<path d="M183.503 22.4777C186.684 22.4777 189.263 19.8988 189.263 16.7177C189.263 13.5366 186.684 10.9578 183.503 10.9578C180.322 10.9578 177.743 13.5366 177.743 16.7177C177.743 19.8988 180.322 22.4777 183.503 22.4777Z" fill="#2F2E41"/>
<path d="M218.323 166.63H114.938V167.107H218.323V166.63Z" fill="#2F2E41"/>
</g>
<defs>
<clipPath id="clip0_219_988">
<rect width="240" height="167.291" fill="white"/>
</clipPath>
</defs>
</svg>
