<svg width="240" height="198" viewBox="0 0 240 198" fill="none" xmlns="http://www.w3.org/2000/svg">
<g clip-path="url(#clip0_217_446)">
<path d="M240 191.09C240.073 198.769 191.681 199.473 190.759 191.09C190.685 183.411 239.078 182.708 240 191.09Z" fill="#E6E6E6"/>
<path d="M202.138 164.43L198.541 166.392L200.83 173.912L204.426 174.239L206.388 169.988L202.138 164.43Z" fill="#9F616A"/>
<path d="M213.254 179.47V183.066L218.812 182.739L218.735 179.777L213.254 179.47Z" fill="#9F616A"/>
<path d="M200.83 121.272L202.792 145.794L209.004 181.758L218.812 180.451L215.543 152.006L216.851 125.85L200.83 121.272Z" fill="#2F2E41"/>
<path d="M226.986 102.963L203.446 103.29L200.83 121.273L216.851 128.793L220.774 143.178L200.83 164.43L208.677 174.239C208.677 174.239 219.793 159.199 227.967 150.698C236.141 142.197 232.217 116.368 232.217 116.368L226.986 102.963Z" fill="#2F2E41"/>
<path d="M212.927 56.5364C216.9 56.5364 220.12 53.316 220.12 49.3434C220.12 45.3709 216.9 42.1505 212.927 42.1505C208.955 42.1505 205.734 45.3709 205.734 49.3434C205.734 53.316 208.955 56.5364 212.927 56.5364Z" fill="#9F616A"/>
<path d="M210.312 54.2477V61.4406L215.216 69.2874C215.216 69.2874 222.736 63.7292 221.101 62.4214C219.466 61.1136 219.139 50.9781 219.139 50.9781L210.312 54.2477Z" fill="#9F616A"/>
<path d="M210.312 60.1328L205.407 66.0178L207.369 106.887L222.736 106.56L225.351 70.9222L222.082 61.7675L219.839 58.7162L215.87 64.71L210.312 60.1328Z" fill="#D0CDE1"/>
<path d="M202.465 81.3847L198.868 95.1167L202.465 108.849L196.58 116.695L191.348 91.8471C191.348 91.8471 195.272 71.5762 195.599 69.2875C195.926 66.9988 196.58 66.6719 196.58 66.6719L199.195 66.9988L202.465 81.3847Z" fill="#2F2E41"/>
<path d="M228.621 86.6156L230.909 90.8662L231.563 98.059L230.256 106.233L234.833 113.753L239.41 93.1546L234.506 66.6715H232.544L228.621 86.6156Z" fill="#2F2E41"/>
<path d="M200.83 164.103C200.83 164.103 196.253 165.411 194.618 165.738C192.983 166.065 195.599 172.277 195.599 172.277C195.599 172.277 197.233 180.778 197.56 182.413C197.887 184.047 200.176 189.605 203.119 190.259C206.061 190.913 204.099 178.816 204.099 178.816C204.099 178.816 205.407 174.893 205.407 173.585C205.407 172.277 203.446 172.931 203.446 172.931C198.214 172.277 200.83 164.103 200.83 164.103Z" fill="#2F2E41"/>
<path d="M211.619 189.278C211.946 191.24 211.292 191.24 216.524 191.894C221.755 192.548 220.447 188.298 220.447 188.298C220.228 186.294 219.79 184.32 219.139 182.413C218.158 179.797 212.927 183.066 212.927 183.066C212.927 183.066 211.292 187.317 211.619 189.278Z" fill="#2F2E41"/>
<path d="M219.148 51.2065L219.318 54.1142C219.318 54.1142 221.428 49.3434 221.755 44.4391C222.082 39.5348 216.524 38.554 213.254 38.227C209.985 37.9001 204.426 40.1887 204.426 42.8044C204.426 45.42 210.312 44.7661 212.6 44.1122C214.889 43.4583 215.87 49.0164 215.87 49.0164L217.177 49.3434L219.148 51.2065Z" fill="#2F2E41"/>
<path d="M208.382 62.4481L210.312 60.1328L215.87 64.71L210.312 68.6334L208.382 62.4481Z" fill="#D0CDE1"/>
<path d="M222.082 61.7675L219.793 58.825L215.87 64.71L220.774 68.3065L222.082 61.7675Z" fill="#D0CDE1"/>
<path d="M201.484 85.9619L202.792 98.3861L200.176 105.906L198.541 113.099C198.541 113.099 198.541 119.965 205.08 120.292C211.619 120.619 217.177 99.6939 217.177 99.6939C217.177 99.6939 218.158 104.271 218.812 106.887C219.466 109.502 230.582 119.965 230.582 119.965C230.582 119.965 233.198 119.638 235.487 114.407C237.775 109.175 230.909 104.271 230.909 104.271L228.948 97.4052L229.602 88.9045L234.179 66.6718L220.61 59.6423L222.082 78.442L217.177 93.1548L209.821 60.6232L207.369 62.4214L196.906 66.6718L201.484 85.9619Z" fill="#2F2E41"/>
<path d="M72.2697 135.414C71.6232 135.409 70.9693 135.404 70.327 135.384L70.347 134.737C70.9825 134.756 71.6325 134.765 72.2698 134.766C72.91 134.766 73.5623 134.755 74.2095 134.735L74.2303 135.382C73.5761 135.403 72.9166 135.414 72.2697 135.414ZM66.4323 135.14C65.1425 135.018 63.8399 134.853 62.5608 134.649L62.663 134.009C63.9284 134.211 65.2171 134.375 66.4934 134.495L66.4323 135.14ZM78.1246 135.133L78.0629 134.488C79.3387 134.366 80.6272 134.201 81.8927 133.997L81.9958 134.637C80.7166 134.843 79.4141 135.01 78.1246 135.133H78.1246ZM58.7285 133.909C57.4656 133.623 56.1949 133.291 54.9519 132.924L55.1356 132.303C56.3653 132.666 57.6224 132.994 58.8718 133.277L58.7285 133.909ZM85.827 133.893L85.683 133.262C86.9354 132.976 88.1921 132.647 89.4182 132.282L89.6026 132.904C88.3633 133.272 87.0929 133.605 85.827 133.893H85.827ZM51.2462 131.698C50.0276 131.25 48.8083 130.757 47.6223 130.232L47.8845 129.64C49.0578 130.159 50.2639 130.647 51.4695 131.09L51.2462 131.698ZM93.3065 131.673L93.0825 131.064C94.2807 130.623 95.4827 130.136 96.655 129.615L96.9179 130.208C95.7326 130.734 94.5176 131.226 93.3064 131.673H93.3065ZM44.1016 128.537C42.9548 127.938 41.8095 127.293 40.698 126.619L41.034 126.065C42.1338 126.732 43.2667 127.37 44.4013 127.962L44.1016 128.537ZM100.429 128.513L100.129 127.939C101.261 127.347 102.391 126.709 103.488 126.042L103.825 126.596C102.716 127.27 101.573 127.914 100.429 128.513H100.429ZM37.4252 124.487C36.363 123.746 35.3103 122.96 34.296 122.151L34.7 121.644C35.7035 122.445 36.7452 123.222 37.796 123.956L37.4252 124.487ZM107.092 124.464L106.721 123.933C107.771 123.199 108.811 122.421 109.812 121.622L110.217 122.128C109.205 122.936 108.154 123.722 107.092 124.464ZM31.3227 119.62C30.3625 118.748 29.4185 117.835 28.5173 116.906L28.9824 116.455C29.8741 117.374 30.8081 118.278 31.7583 119.14L31.3227 119.62ZM113.187 119.598L112.751 119.118C113.699 118.257 114.632 117.353 115.525 116.431L115.99 116.882C115.088 117.814 114.145 118.727 113.187 119.598ZM25.8909 114.019C25.0501 113.034 24.2304 112.008 23.4543 110.972L23.9729 110.583C24.7409 111.609 25.5519 112.624 26.3838 113.599L25.8909 114.019ZM118.616 113.993L118.123 113.572C118.955 112.596 119.766 111.581 120.534 110.554L121.053 110.941C120.277 111.979 119.457 113.006 118.616 113.993V113.993ZM21.2174 107.775C20.5086 106.69 19.8265 105.569 19.19 104.444L19.7541 104.125C20.3836 105.238 21.0586 106.347 21.76 107.421L21.2174 107.775ZM123.29 107.74L122.748 107.387C123.449 106.311 124.124 105.199 124.754 104.084L125.318 104.402C124.682 105.53 123.999 106.653 123.29 107.74ZM17.3807 100.99C16.8169 99.8235 16.2843 98.6251 15.7978 97.4274L16.3979 97.1838C16.8794 98.3682 17.4063 99.554 17.9641 100.707L17.3807 100.99ZM127.128 100.939L126.545 100.657C127.102 99.5021 127.629 98.3132 128.112 97.123L128.712 97.366C128.225 98.5691 127.692 99.7713 127.128 100.939ZM14.4453 93.7661C14.0355 92.5354 13.6611 91.2766 13.3323 90.0245L13.9591 89.86C14.2841 91.0985 14.6546 92.3441 15.06 93.5611L14.4453 93.7661ZM130.062 93.6974L129.447 93.4937C129.85 92.2779 130.219 91.0321 130.543 89.791L131.17 89.9549C130.842 91.2096 130.469 92.4687 130.062 93.6974ZM12.4631 86.2199C12.2156 84.9487 12.0062 83.6526 11.8405 82.3672L12.4831 82.2843C12.6469 83.5561 12.8542 84.8383 13.099 86.0959L12.4631 86.2199ZM132.035 86.1487L131.399 86.026C131.642 84.7687 131.848 83.4859 132.01 82.2131L132.653 82.2954C132.489 83.5817 132.281 84.8782 132.035 86.1487V86.1487ZM11.466 78.4829C11.3829 77.1915 11.34 75.8789 11.3386 74.5815L11.9865 74.5808C11.988 75.8646 12.0304 77.1633 12.1126 78.4411L11.466 78.4829ZM133.023 78.4104L132.377 78.3693C132.457 77.0928 132.498 75.7941 132.498 74.51L132.498 74.3679H133.146L133.146 74.5078C133.146 75.8077 133.105 77.12 133.023 78.4104ZM12.1036 70.7212L11.4569 70.6814C11.5373 69.3874 11.6602 68.0802 11.8223 66.7958L12.4652 66.8768C12.3046 68.1479 12.183 69.4412 12.1036 70.7212ZM132.368 70.5086C132.284 69.228 132.158 67.935 131.993 66.6658L132.635 66.5822C132.802 67.8651 132.929 69.1717 133.015 70.4662L132.368 70.5086ZM13.072 63.0639L12.4358 62.9415C12.6802 61.6699 12.9697 60.3891 13.2958 59.1347L13.9229 59.2976C13.6002 60.5387 13.3138 61.8058 13.072 63.0639ZM131.372 62.855C131.125 61.5962 130.834 60.3301 130.507 59.0917L131.134 58.9265C131.464 60.1782 131.758 61.4579 132.008 62.7303L131.372 62.855ZM15.0152 55.594L14.3999 55.3908C14.8066 54.1597 15.2593 52.9248 15.7457 51.7202L16.3465 51.9629C15.8653 53.1545 15.4175 54.3761 15.0152 55.594ZM129.403 55.392C128.996 54.1759 128.544 52.9577 128.061 51.7712L128.66 51.5266C129.15 52.726 129.606 53.9573 130.017 55.1863L129.403 55.392ZM17.9093 48.4259L17.3253 48.145C17.8874 46.9767 18.4951 45.8109 19.1315 44.6802L19.6962 44.9981C19.0664 46.1167 18.4653 47.27 17.9093 48.4259ZM126.49 48.2492C125.932 47.0988 125.329 45.9498 124.696 44.8341L125.26 44.5146C125.9 45.6421 126.509 46.8036 127.073 47.9667L126.49 48.2492ZM21.6987 41.6926L21.1556 41.3393C21.8622 40.2532 22.6137 39.1752 23.3891 38.1354L23.9085 38.5227C23.1414 39.5515 22.3978 40.6179 21.6987 41.6926ZM122.687 41.5401C121.985 40.4694 121.24 39.4063 120.47 38.3803L120.988 37.9915C121.766 39.0285 122.52 40.1031 123.229 41.1852L122.687 41.5401ZM26.3158 35.5012L25.8222 35.0817C26.6614 34.0945 27.5436 33.1214 28.4443 32.1895L28.9103 32.6397C28.0191 33.5618 27.1462 34.5246 26.3158 35.5012ZM118.055 35.3677C117.222 34.3938 116.347 33.4338 115.453 32.5144L115.918 32.063C116.821 32.992 117.706 33.9623 118.548 34.9466L118.055 35.3677ZM31.6811 29.9495L31.2449 29.4705C32.2036 28.5972 33.2021 27.7445 34.2122 26.9362L34.6171 27.442C33.6176 28.2418 32.6298 29.0855 31.6811 29.9495ZM112.674 29.832C111.724 28.972 110.733 28.1307 109.729 27.3319L110.133 26.8248C111.147 27.6323 112.149 28.4824 113.109 29.3517L112.674 29.832ZM37.7063 25.127L37.3346 24.5965C38.3947 23.8535 39.4931 23.1352 40.5993 22.4613L40.9364 23.0147C39.8421 23.6814 38.7552 24.3921 37.7063 25.127ZM106.631 25.0239C105.576 24.2898 104.486 23.5814 103.39 22.9185L103.726 22.3642C104.833 23.0341 105.935 23.7501 107.001 24.4921L106.631 25.0239ZM44.2936 21.114L43.9928 20.5401C45.1381 19.9393 46.3188 19.3676 47.5015 18.841L47.7651 19.433C46.5948 19.9538 45.427 20.5195 44.2936 21.114ZM100.021 21.0251C98.8828 20.4328 97.7104 19.8699 96.5356 19.3516L96.7972 18.7588C97.9845 19.2825 99.1698 19.8517 100.32 20.4502L100.021 21.0251ZM51.336 17.9796L51.1111 17.3718C52.3259 16.9224 53.5716 16.5067 54.8137 16.1364L54.9987 16.7575C53.77 17.1236 52.5377 17.5349 51.336 17.9796H51.336ZM92.9488 17.906C91.7446 17.4655 90.5107 17.0586 89.2817 16.697L89.4645 16.0754C90.7069 16.4409 91.9541 16.8522 93.1715 17.2977L92.9488 17.906ZM58.7326 15.7744L58.588 15.1429C59.8486 14.8541 61.1373 14.6024 62.4184 14.3944L62.5222 15.0341C61.2547 15.2397 59.9797 15.4887 58.7326 15.7744ZM85.5441 15.7272C84.2948 15.4457 83.0189 15.2011 81.7519 15.0002L81.8534 14.3602C83.1341 14.5633 84.4237 14.8106 85.6865 15.0951L85.5441 15.7272ZM66.3514 14.5382L66.2888 13.8934C67.5751 13.7686 68.8854 13.6834 70.1829 13.6402L70.2044 14.2878C68.9205 14.3305 67.6242 14.4148 66.3514 14.5382ZM77.9209 14.5181C76.6462 14.399 75.3495 14.3193 74.0671 14.2811L74.0864 13.6335C75.3824 13.6721 76.6929 13.7527 77.9811 13.873L77.9209 14.5181Z" fill="#D0CDE1"/>
<path d="M69.9746 30.4519C78.3837 30.4519 85.2006 23.635 85.2006 15.226C85.2006 6.81689 78.3837 0 69.9746 0C61.5655 0 54.7487 6.81689 54.7487 15.226C54.7487 23.635 61.5655 30.4519 69.9746 30.4519Z" fill="#1FADE0"/>
<path d="M128.935 71.9184C137.344 71.9184 144.161 65.1015 144.161 56.6924C144.161 48.2833 137.344 41.4664 128.935 41.4664C120.526 41.4664 113.709 48.2833 113.709 56.6924C113.709 65.1015 120.526 71.9184 128.935 71.9184Z" fill="#1FADE0"/>
<path d="M110.469 135.414C118.878 135.414 125.695 128.597 125.695 120.188C125.695 111.779 118.878 104.962 110.469 104.962C102.06 104.962 95.2432 111.779 95.2432 120.188C95.2432 128.597 102.06 135.414 110.469 135.414Z" fill="#1FADE0"/>
<path d="M37.255 138.006C45.6641 138.006 52.481 131.189 52.481 122.78C52.481 114.37 45.6641 107.554 37.255 107.554C28.8459 107.554 22.0291 114.37 22.0291 122.78C22.0291 131.189 28.8459 138.006 37.255 138.006Z" fill="#1FADE0"/>
<path d="M15.226 71.9184C23.635 71.9184 30.4519 65.1015 30.4519 56.6924C30.4519 48.2833 23.635 41.4664 15.226 41.4664C6.81689 41.4664 0 48.2833 0 56.6924C0 65.1015 6.81689 71.9184 15.226 71.9184Z" fill="#1FADE0"/>
<path d="M76.4995 14.012H71.1886C70.7056 14.012 70.2425 13.8202 69.901 13.4787C69.5595 13.1372 69.3677 12.6741 69.3677 12.1911V6.88025C69.3677 6.86032 69.3638 6.84059 69.3561 6.82218C69.3485 6.80377 69.3373 6.78705 69.3232 6.77295C69.3092 6.75886 69.2924 6.74769 69.274 6.74006C69.2556 6.73244 69.2359 6.72852 69.2159 6.72852H65.7259C65.082 6.72852 64.4645 6.9843 64.0092 7.43961C63.5539 7.89491 63.2981 8.51244 63.2981 9.15635V21.2955C63.2981 21.9394 63.5539 22.5569 64.0092 23.0122C64.4645 23.4676 65.082 23.7233 65.7259 23.7233H74.2234C74.8673 23.7233 75.4848 23.4676 75.9401 23.0122C76.3954 22.5569 76.6512 21.9394 76.6512 21.2955V14.1638C76.6512 14.1438 76.6473 14.1241 76.6397 14.1057C76.632 14.0873 76.6209 14.0705 76.6068 14.0565C76.5927 14.0424 76.576 14.0312 76.5575 14.0236C76.5391 14.0159 76.5194 14.012 76.4995 14.012ZM73.0095 20.0816H66.9399C66.7789 20.0816 66.6245 20.0176 66.5107 19.9038C66.3968 19.79 66.3329 19.6356 66.3329 19.4746C66.3329 19.3137 66.3968 19.1593 66.5107 19.0455C66.6245 18.9316 66.7789 18.8677 66.9399 18.8677H73.0095C73.1704 18.8677 73.3248 18.9316 73.4386 19.0455C73.5525 19.1593 73.6164 19.3137 73.6164 19.4746C73.6164 19.6356 73.5525 19.79 73.4386 19.9038C73.3248 20.0176 73.1704 20.0816 73.0095 20.0816ZM73.0095 17.0468H66.9399C66.7789 17.0468 66.6245 16.9829 66.5107 16.869C66.3968 16.7552 66.3329 16.6008 66.3329 16.4398C66.3329 16.2789 66.3968 16.1245 66.5107 16.0107C66.6245 15.8968 66.7789 15.8329 66.9399 15.8329H73.0095C73.1704 15.8329 73.3248 15.8968 73.4386 16.0107C73.5525 16.1245 73.6164 16.2789 73.6164 16.4398C73.6164 16.6008 73.5525 16.7552 73.4386 16.869C73.3248 16.9829 73.1704 17.0468 73.0095 17.0468Z" fill="white"/>
<path d="M76.1664 12.6688L70.7109 7.21335C70.7003 7.2028 70.6868 7.19563 70.6721 7.19272C70.6575 7.18982 70.6422 7.19133 70.6284 7.19704C70.6146 7.20276 70.6028 7.21243 70.5944 7.22485C70.5861 7.23727 70.5816 7.25188 70.5815 7.26684V12.1912C70.5815 12.3521 70.6455 12.5065 70.7593 12.6203C70.8731 12.7342 71.0275 12.7981 71.1885 12.7981H76.1128C76.1278 12.7981 76.1424 12.7936 76.1548 12.7852C76.1673 12.7769 76.1769 12.7651 76.1826 12.7512C76.1884 12.7374 76.1899 12.7222 76.187 12.7075C76.1841 12.6929 76.1769 12.6794 76.1663 12.6688L76.1664 12.6688Z" fill="white"/>
<path d="M112.671 117.188C112.485 117.189 112.304 117.253 112.16 117.372C112.015 117.49 111.917 117.655 111.88 117.838C111.844 118.021 111.872 118.212 111.96 118.376C112.049 118.541 112.191 118.67 112.363 118.741C112.536 118.812 112.728 118.822 112.906 118.767C113.085 118.713 113.239 118.599 113.343 118.443C113.447 118.288 113.493 118.102 113.475 117.916C113.457 117.73 113.374 117.557 113.242 117.425C113.167 117.35 113.078 117.29 112.98 117.25C112.882 117.209 112.777 117.188 112.671 117.188Z" fill="white"/>
<path d="M117.164 113.962V113.959C117.138 113.847 117.082 113.744 117.001 113.662C116.92 113.581 116.818 113.523 116.706 113.496C115.805 113.277 114.388 113.511 112.817 114.14C111.307 114.727 109.925 115.602 108.749 116.716C108.427 117.036 108.129 117.378 107.855 117.739C107.251 117.697 106.645 117.795 106.085 118.023C104.339 118.792 103.84 120.758 103.708 121.565C103.688 121.68 103.696 121.797 103.73 121.909C103.763 122.02 103.822 122.122 103.902 122.207C103.981 122.292 104.079 122.357 104.188 122.398C104.297 122.438 104.414 122.453 104.53 122.442H104.534L106.478 122.229C106.481 122.254 106.483 122.277 106.485 122.298C106.51 122.535 106.616 122.756 106.785 122.924L107.734 123.874C107.902 124.043 108.123 124.148 108.36 124.173L108.425 124.18L108.213 126.123V126.126C108.203 126.225 108.212 126.325 108.241 126.42C108.269 126.515 108.316 126.604 108.378 126.681C108.441 126.758 108.518 126.822 108.606 126.869C108.693 126.916 108.789 126.946 108.887 126.956C108.911 126.958 108.934 126.96 108.957 126.96C108.999 126.96 109.041 126.957 109.083 126.95C109.894 126.819 111.86 126.327 112.626 124.572C112.853 124.013 112.95 123.41 112.911 122.808C113.274 122.535 113.617 122.236 113.938 121.914C115.051 120.749 115.927 119.378 116.517 117.878C117.142 116.325 117.378 114.897 117.164 113.962ZM113.927 119.249C113.679 119.497 113.362 119.667 113.017 119.736C112.673 119.804 112.316 119.769 111.991 119.635C111.666 119.501 111.388 119.273 111.193 118.981C110.998 118.689 110.893 118.345 110.893 117.994C110.893 117.643 110.997 117.299 111.192 117.007C111.387 116.714 111.665 116.487 111.989 116.352C112.314 116.217 112.671 116.182 113.016 116.25C113.36 116.319 113.677 116.488 113.926 116.736L113.927 116.737C114.26 117.065 114.449 117.512 114.453 117.98C114.456 118.447 114.274 118.897 113.946 119.23L113.927 119.249Z" fill="white"/>
<path d="M107.625 124.131C107.508 124.117 107.39 124.146 107.292 124.212C107.099 124.344 106.905 124.475 106.709 124.602C106.624 124.657 106.523 124.681 106.423 124.672C106.322 124.662 106.227 124.619 106.154 124.549C106.081 124.48 106.033 124.387 106.019 124.287C106.004 124.187 106.024 124.085 106.074 123.997L106.442 123.363C106.494 123.286 106.523 123.195 106.526 123.102C106.528 123.009 106.504 122.918 106.456 122.838C106.407 122.759 106.337 122.695 106.253 122.654C106.169 122.614 106.076 122.598 105.983 122.609C105.576 122.661 105.197 122.847 104.906 123.137C104.796 123.248 104.459 123.585 104.278 124.868C104.226 125.237 104.194 125.608 104.181 125.98C104.179 126.044 104.19 126.107 104.213 126.166C104.235 126.225 104.27 126.28 104.313 126.326C104.357 126.372 104.41 126.409 104.468 126.434C104.526 126.46 104.588 126.474 104.652 126.476C104.656 126.476 104.66 126.476 104.664 126.476H104.676C105.049 126.463 105.42 126.431 105.789 126.379C107.073 126.198 107.41 125.861 107.52 125.751C107.812 125.46 107.998 125.079 108.046 124.67C108.062 124.543 108.026 124.415 107.947 124.314C107.868 124.213 107.752 124.147 107.625 124.131Z" fill="white"/>
<path d="M32.0149 131.053H30.9117C30.6923 131.053 30.4819 130.966 30.3267 130.811C30.1715 130.656 30.0844 130.445 30.0844 130.226V125.262C30.0844 125.042 30.1715 124.832 30.3267 124.677C30.4819 124.521 30.6923 124.434 30.9117 124.434H32.0149C32.2343 124.434 32.4448 124.521 32.6 124.677C32.7551 124.832 32.8423 125.042 32.8423 125.262V130.226C32.8423 130.445 32.7551 130.656 32.6 130.811C32.4448 130.966 32.2343 131.053 32.0149 131.053Z" fill="white"/>
<path d="M39.7371 131.053H38.6339C38.4145 131.053 38.204 130.966 38.0489 130.811C37.8937 130.656 37.8065 130.445 37.8065 130.226V121.952C37.8065 121.733 37.8937 121.522 38.0489 121.367C38.204 121.212 38.4145 121.125 38.6339 121.125H39.7371C39.9565 121.125 40.167 121.212 40.3221 121.367C40.4773 121.522 40.5645 121.733 40.5645 121.952V130.226C40.5645 130.445 40.4773 130.656 40.3221 130.811C40.167 130.966 39.9565 131.053 39.7371 131.053Z" fill="white"/>
<path d="M43.5983 131.053H42.4951C42.2757 131.053 42.0652 130.966 41.9101 130.811C41.7549 130.656 41.6677 130.445 41.6677 130.226V118.091C41.6677 117.872 41.7549 117.661 41.9101 117.506C42.0652 117.351 42.2757 117.264 42.4951 117.264H43.5983C43.8177 117.264 44.0282 117.351 44.1833 117.506C44.3385 117.661 44.4257 117.872 44.4257 118.091V130.226C44.4257 130.445 44.3385 130.656 44.1833 130.811C44.0282 130.966 43.8177 131.053 43.5983 131.053Z" fill="white"/>
<path d="M35.8761 131.053H34.7729C34.5535 131.053 34.3431 130.966 34.1879 130.811C34.0327 130.656 33.9456 130.445 33.9456 130.226V115.333C33.9456 115.114 34.0327 114.903 34.1879 114.748C34.3431 114.593 34.5535 114.506 34.7729 114.506H35.8761C36.0955 114.506 36.306 114.593 36.4612 114.748C36.6163 114.903 36.7035 115.114 36.7035 115.333V130.226C36.7035 130.335 36.6821 130.442 36.6405 130.543C36.5989 130.643 36.538 130.734 36.4612 130.811C36.3843 130.888 36.2931 130.949 36.1927 130.99C36.0923 131.032 35.9848 131.053 35.8761 131.053Z" fill="white"/>
<path d="M129.664 56.2936L128.876 55.5052C128.695 55.3246 128.451 55.2229 128.195 55.2222C127.94 55.2215 127.695 55.3219 127.513 55.5016L122.034 60.5586C121.833 60.7367 121.71 60.9867 121.691 61.2547C121.685 61.3878 121.707 61.5207 121.755 61.645C121.803 61.7693 121.876 61.8825 121.969 61.9773L123.146 63.1676L123.148 63.1697C123.33 63.351 123.577 63.4532 123.833 63.454H123.869C124.002 63.4466 124.132 63.4129 124.252 63.3551C124.372 63.2972 124.48 63.2163 124.568 63.1169L129.661 57.6623C129.843 57.4819 129.946 57.2366 129.947 56.9805C129.948 56.7243 129.847 56.4781 129.667 56.2962L129.664 56.2936Z" fill="white"/>
<path d="M135.998 54.7001L135.989 54.6907L134.955 53.6668C134.894 53.6064 134.822 53.5586 134.743 53.5262C134.664 53.4937 134.579 53.4773 134.493 53.4778C134.355 53.478 134.22 53.5217 134.107 53.6028C134.107 53.5898 134.109 53.5771 134.11 53.566C134.152 53.3016 134.096 53.031 133.953 52.8047C133.725 52.4975 133.475 52.2075 133.204 51.9371L133.202 51.9347C132.446 51.2092 131.557 50.6359 130.584 50.2461C130.076 50.0375 129.531 49.9303 128.982 49.9307C128.271 49.9242 127.579 50.1664 127.027 50.6153C126.87 50.7653 126.727 50.9292 126.599 51.1049C126.538 51.1891 126.506 51.2908 126.507 51.3947C126.509 51.4987 126.544 51.5995 126.607 51.682C126.67 51.7646 126.758 51.8245 126.859 51.8529C126.959 51.8813 127.065 51.8766 127.162 51.8396C127.247 51.808 127.333 51.7815 127.421 51.7602C127.604 51.7216 127.792 51.7098 127.978 51.7255C128.365 51.7658 128.735 51.9016 129.056 52.1207C129.235 52.2721 129.378 52.4625 129.474 52.6774C129.569 52.8922 129.615 53.126 129.607 53.361C129.473 53.7428 129.268 54.0959 129.003 54.4018C128.932 54.4949 128.898 54.6104 128.906 54.727C128.914 54.8435 128.964 54.9532 129.047 55.0357L130.085 56.0744C130.173 56.1619 130.29 56.2126 130.414 56.2161C130.537 56.2196 130.658 56.1756 130.75 56.0931C131.043 55.8308 131.491 55.4354 131.647 55.3385C131.781 55.2491 131.932 55.1894 132.091 55.1634C132.209 55.1518 132.328 55.1769 132.432 55.2352C132.432 55.2404 132.432 55.2456 132.43 55.2506C132.428 55.2555 132.426 55.2601 132.422 55.2639L132.367 55.3161L132.358 55.3246C132.236 55.4462 132.167 55.6113 132.167 55.7836C132.167 55.9559 132.235 56.1212 132.356 56.2433L132.36 56.2465L133.394 57.2701C133.454 57.3304 133.526 57.3782 133.606 57.4106C133.685 57.4429 133.77 57.4593 133.855 57.4587C134.027 57.459 134.192 57.3918 134.315 57.2716L135.99 55.6168C135.996 55.6111 136.001 55.605 136.007 55.599C136.119 55.4758 136.181 55.3146 136.179 55.1479C136.178 54.9811 136.113 54.8211 135.998 54.7001Z" fill="white"/>
<path d="M17.6434 55.7859C17.5239 55.7859 17.407 55.7504 17.3077 55.684C17.2083 55.6176 17.1308 55.5232 17.0851 55.4128C17.0393 55.3024 17.0274 55.1808 17.0507 55.0636C17.074 54.9464 17.1315 54.8387 17.2161 54.7542L18.6018 53.3684L17.2161 51.9826C17.1027 51.8693 17.0391 51.7156 17.0391 51.5553C17.0391 51.395 17.1027 51.2413 17.2161 51.1279C17.3294 51.0146 17.4831 50.9509 17.6434 50.9509C17.8037 50.9509 17.9574 51.0146 18.0708 51.1279L19.8839 52.941C19.94 52.9972 19.9845 53.0638 20.0149 53.1371C20.0453 53.2104 20.0609 53.289 20.0609 53.3684C20.0609 53.4478 20.0453 53.5263 20.0149 53.5997C19.9845 53.673 19.94 53.7396 19.8839 53.7957L18.0708 55.6089C18.0147 55.6651 17.9481 55.7096 17.8748 55.74C17.8014 55.7704 17.7228 55.786 17.6434 55.7859Z" fill="white"/>
<path d="M7.97351 57.5989C7.89415 57.5989 7.81555 57.5832 7.74223 57.5529C7.6689 57.5225 7.60227 57.478 7.54615 57.4219C7.49003 57.3657 7.44551 57.2991 7.41514 57.2258C7.38477 57.1525 7.36914 57.0739 7.36914 56.9945V56.3901C7.37388 55.4302 7.7572 54.5109 8.43584 53.8319C9.11448 53.1529 10.0336 52.7691 10.9936 52.7639H18.8522C19.0125 52.7639 19.1662 52.8276 19.2795 52.9409C19.3929 53.0543 19.4566 53.208 19.4566 53.3683C19.4566 53.5286 19.3929 53.6823 19.2795 53.7956C19.1662 53.909 19.0125 53.9727 18.8522 53.9727H10.9954C10.3551 53.9765 9.7421 54.2326 9.2895 54.6856C8.83691 55.1385 8.5812 55.7516 8.57788 56.3919V56.9945C8.57789 57.0739 8.56225 57.1525 8.53188 57.2258C8.50151 57.2991 8.45699 57.3657 8.40087 57.4219C8.34475 57.478 8.27813 57.5225 8.2048 57.5529C8.13147 57.5832 8.05288 57.5989 7.97351 57.5989Z" fill="white"/>
<path d="M12.8085 62.4339C12.7291 62.434 12.6505 62.4184 12.5771 62.3881C12.5038 62.3577 12.4372 62.3131 12.3811 62.2569L10.568 60.4438C10.5119 60.3877 10.4674 60.321 10.437 60.2477C10.4066 60.1744 10.391 60.0958 10.391 60.0164C10.391 59.9371 10.4066 59.8585 10.437 59.7852C10.4674 59.7118 10.5119 59.6452 10.568 59.5891L12.3811 57.776C12.4945 57.6628 12.6482 57.5993 12.8084 57.5994C12.9686 57.5994 13.1222 57.6631 13.2354 57.7764C13.3487 57.8897 13.4124 58.0433 13.4124 58.2034C13.4125 58.3636 13.349 58.5173 13.2358 58.6307L11.8501 60.0164L13.2358 61.4022C13.3203 61.4867 13.3779 61.5944 13.4012 61.7116C13.4245 61.8289 13.4126 61.9504 13.3668 62.0608C13.3211 62.1713 13.2436 62.2656 13.1442 62.3321C13.0449 62.3985 12.928 62.4339 12.8085 62.4339Z" fill="white"/>
<path d="M11.5997 60.6207C11.4394 60.6207 11.2857 60.557 11.1724 60.4437C11.059 60.3304 10.9954 60.1766 10.9954 60.0164C10.9954 59.8561 11.059 59.7023 11.1724 59.589C11.2857 59.4757 11.4394 59.412 11.5997 59.412H19.4565C20.0968 59.4082 20.7098 59.152 21.1624 58.6991C21.615 58.2462 21.8707 57.633 21.874 56.9927V56.3901C21.874 56.2299 21.9377 56.0761 22.051 55.9628C22.1644 55.8494 22.3181 55.7858 22.4784 55.7858C22.6387 55.7858 22.7924 55.8494 22.9057 55.9628C23.0191 56.0761 23.0827 56.2299 23.0827 56.3901V56.9945C23.078 57.9545 22.6947 58.8738 22.016 59.5528C21.3374 60.2317 20.4183 60.6155 19.4583 60.6207L11.5997 60.6207Z" fill="white"/>
</g>
<defs>
<clipPath id="clip0_217_446">
<rect width="240" height="197.116" fill="white"/>
</clipPath>
</defs>
</svg>
