<svg width="240" height="190" viewBox="0 0 240 190" fill="none" xmlns="http://www.w3.org/2000/svg">
<g clip-path="url(#clip0_217_640)">
<path d="M144.917 83.5404H89.9267C88.4031 83.5387 86.9423 82.9326 85.865 81.8553C84.7876 80.7779 84.1816 79.3172 84.1799 77.7936V6.02415C84.1817 4.50056 84.7877 3.03986 85.865 1.96252C86.9424 0.885184 88.4031 0.279183 89.9267 0.277466H144.917C146.441 0.279183 147.902 0.885184 148.979 1.96252C150.056 3.03986 150.662 4.50056 150.664 6.02415V77.7936C150.662 79.3172 150.056 80.7779 148.979 81.8553C147.902 82.9326 146.441 83.5387 144.917 83.5404Z" fill="#F0F0F0"/>
<path d="M144.917 83.8179H89.9266C88.3294 83.816 86.7982 83.1807 85.6688 82.0514C84.5394 80.922 83.9041 79.3907 83.9023 77.7935V6.02423C83.9042 4.42707 84.5395 2.89584 85.6688 1.76647C86.7982 0.637108 88.3294 0.00182688 89.9266 0H144.917C146.514 0.00179895 148.046 0.637065 149.175 1.76643C150.304 2.8958 150.94 4.42704 150.941 6.02423V77.7935C150.94 79.3907 150.304 80.922 149.175 82.0514C148.046 83.1808 146.514 83.8161 144.917 83.8179ZM89.9266 0.555086C88.4766 0.55672 87.0864 1.13346 86.0611 2.15877C85.0358 3.18408 84.4591 4.57422 84.4574 6.02423V77.7935C84.459 79.2435 85.0358 80.6337 86.0611 81.659C87.0864 82.6844 88.4765 83.2611 89.9266 83.2628H144.917C146.367 83.2612 147.757 82.6844 148.783 81.6591C149.808 80.6338 150.385 79.2436 150.386 77.7935V6.02423C150.385 4.5742 149.808 3.18404 148.783 2.15873C147.757 1.13342 146.367 0.556694 144.917 0.555086H89.9266Z" fill="#1FADE0"/>
<path d="M234.253 83.5404H179.263C177.739 83.5387 176.278 82.9326 175.201 81.8553C174.124 80.7779 173.518 79.3172 173.516 77.7936V6.02415C173.518 4.50056 174.124 3.03986 175.201 1.96252C176.278 0.885184 177.739 0.279183 179.263 0.277466H234.253C235.777 0.279183 237.237 0.885184 238.315 1.96252C239.392 3.03986 239.998 4.50056 240 6.02415V77.7936C239.998 79.3172 239.392 80.7779 238.315 81.8553C237.238 82.9326 235.777 83.5387 234.253 83.5404Z" fill="#F0F0F0"/>
<path d="M116.449 92.4226C121.938 92.4226 126.388 87.9727 126.388 82.4835C126.388 76.9943 121.938 72.5444 116.449 72.5444C110.96 72.5444 106.51 76.9943 106.51 82.4835C106.51 87.9727 110.96 92.4226 116.449 92.4226Z" fill="#1FADE0"/>
<path d="M115.093 87.6565C114.921 87.6565 114.752 87.6165 114.599 87.5397C114.445 87.4629 114.312 87.3515 114.209 87.2141L111.497 83.5987C111.41 83.4825 111.347 83.3504 111.311 83.2097C111.275 83.0691 111.267 82.9227 111.287 82.779C111.308 82.6353 111.356 82.497 111.43 82.3721C111.504 82.2472 111.602 82.138 111.718 82.0509C111.834 81.9638 111.967 81.9004 112.107 81.8644C112.248 81.8284 112.394 81.8204 112.538 81.8409C112.682 81.8615 112.82 81.9101 112.945 81.9841C113.07 82.0581 113.179 82.1559 113.266 82.2721L115.04 84.6372L119.596 77.8029C119.759 77.56 120.012 77.3916 120.299 77.3346C120.586 77.2777 120.884 77.3368 121.128 77.4992C121.371 77.6615 121.54 77.9137 121.598 78.2006C121.656 78.4874 121.598 78.7855 121.436 79.0295L116.013 87.1641C115.915 87.3112 115.783 87.4327 115.628 87.5183C115.474 87.6039 115.301 87.6511 115.124 87.6561C115.114 87.6563 115.103 87.6565 115.093 87.6565Z" fill="white"/>
<path d="M107.826 121.922H2.35912C1.73366 121.921 1.13403 121.673 0.691766 121.23C0.249502 120.788 0.000721335 120.189 0 119.563V24.0882C0.000697877 23.4628 0.249471 22.8631 0.69174 22.4209C1.13401 21.9786 1.73365 21.7298 2.35912 21.7291H107.826C108.451 21.7298 109.051 21.9786 109.493 22.4209C109.935 22.8631 110.184 23.4628 110.185 24.0882V119.563C110.184 120.189 109.935 120.788 109.493 121.23C109.051 121.673 108.451 121.921 107.826 121.922Z" fill="#3F3D56"/>
<path d="M105.605 119.702H4.57945C3.954 119.701 3.35437 119.452 2.9121 119.01C2.46984 118.568 2.22106 117.968 2.22034 117.343V26.3086C2.22103 25.6831 2.46981 25.0835 2.91208 24.6412C3.35435 24.1989 3.95399 23.9502 4.57945 23.9495H105.605C106.231 23.9502 106.83 24.1989 107.273 24.6412C107.715 25.0835 107.964 25.6831 107.964 26.3086V117.343C107.964 117.968 107.715 118.568 107.273 119.01C106.83 119.452 106.231 119.701 105.605 119.702Z" fill="white"/>
<path d="M9.71233 33.8394C21.6015 33.6327 33.492 33.603 45.3837 33.7503C57.2738 33.8985 69.1598 34.2246 81.0419 34.7284C87.7094 35.0112 94.3742 35.3499 101.036 35.7446C101.572 35.7763 101.57 34.9436 101.036 34.912C89.1661 34.2096 77.2872 33.684 65.3996 33.3353C53.5138 32.9874 41.6245 32.8175 29.7318 32.8253C23.0583 32.8298 16.3851 32.8903 9.71233 33.0068C9.17714 33.0161 9.17545 33.8487 9.71233 33.8394V33.8394Z" fill="#3F3D56"/>
<path d="M92.5688 28.6185L97.7676 28.2316C98.2987 28.1921 98.303 27.3591 97.7676 27.399L92.5688 27.7859C92.0377 27.8254 92.0334 28.6584 92.5688 28.6185Z" fill="#3F3D56"/>
<path d="M92.5688 33.6144L97.7676 33.2274C98.2987 33.1879 98.303 32.355 97.7676 32.3948L92.5688 32.7817C92.0377 32.8213 92.0334 33.6542 92.5688 33.6144Z" fill="#3F3D56"/>
<path d="M92.1777 31.3328L99.5692 32.0044C100.103 32.0528 100.099 31.2199 99.5692 31.1717L92.1777 30.5002C91.6442 30.4517 91.6475 31.2847 92.1777 31.3328Z" fill="#3F3D56"/>
<path d="M12.789 27.4988C12.4275 27.4966 12.0733 27.6008 11.7706 27.7985C11.4679 27.9962 11.2301 28.2786 11.0868 28.6105C10.9265 28.9354 10.877 29.3038 10.9459 29.6595C11.0148 30.0151 11.1983 30.3384 11.4683 30.5799C11.7221 30.7959 12.0266 30.9439 12.3532 31.0103C12.6798 31.0766 13.0179 31.0591 13.3358 30.9593C13.661 30.8457 13.943 30.6342 14.143 30.3537C14.343 30.0732 14.4511 29.7377 14.4525 29.3932C14.467 29.0111 14.3635 28.6337 14.156 28.3125C13.9485 27.9913 13.6471 27.7417 13.2928 27.5978C13.1863 27.5689 13.0727 27.5832 12.9768 27.6377C12.8809 27.6922 12.8104 27.7823 12.7807 27.8886C12.7544 27.9949 12.7699 28.1073 12.824 28.2026C12.8781 28.2978 12.9666 28.3687 13.0714 28.4007C13.144 28.4287 13.0051 28.365 13.0729 28.4019C13.1007 28.4171 13.1291 28.4308 13.1565 28.447C13.1797 28.4608 13.202 28.4759 13.2246 28.4906C13.3023 28.5414 13.1867 28.4534 13.2363 28.499C13.2794 28.5385 13.3221 28.5771 13.3613 28.6208C13.3761 28.6373 13.4341 28.6831 13.389 28.6511C13.3545 28.6265 13.3757 28.6323 13.389 28.652C13.3991 28.667 13.4097 28.6815 13.4197 28.6965C13.4522 28.7457 13.4817 28.7967 13.5081 28.8493C13.5142 28.8615 13.5198 28.8739 13.526 28.886C13.5376 28.9087 13.5546 28.9147 13.5271 28.8863C13.501 28.8591 13.5176 28.8609 13.527 28.8871C13.5332 28.9043 13.5399 28.9212 13.5459 28.9385C13.5654 28.9946 13.5818 29.0518 13.595 29.1098C13.6011 29.1366 13.606 29.1636 13.6112 29.1905C13.6298 29.2861 13.6085 29.1311 13.613 29.2021C13.6168 29.2614 13.6211 29.3201 13.6201 29.3796C13.6196 29.4068 13.6184 29.434 13.6165 29.4612C13.6156 29.4748 13.6141 29.4883 13.6132 29.5019C13.6089 29.5672 13.6087 29.478 13.6179 29.4719C13.5988 29.5273 13.5862 29.5848 13.5802 29.6431C13.5728 29.669 13.5639 29.6943 13.5556 29.7199C13.5267 29.8092 13.5828 29.6712 13.552 29.7323C13.5265 29.7847 13.4981 29.8357 13.4669 29.8848C13.4533 29.9055 13.4022 29.952 13.444 29.9196C13.4894 29.8845 13.4202 29.945 13.4055 29.9605C13.3865 29.9805 13.3668 29.9998 13.3464 30.0185C13.3334 30.0312 13.3196 30.0432 13.3051 30.0543C13.3025 30.053 13.3747 30.0061 13.3358 30.0309C13.2863 30.0625 13.2395 30.0962 13.1873 30.1237C13.1813 30.1269 13.1146 30.1578 13.1149 30.1589C13.112 30.1476 13.2006 30.1277 13.1398 30.1473C13.127 30.1515 13.1145 30.1564 13.1018 30.1607C13.0464 30.1794 12.9899 30.1944 12.9326 30.2058C12.9195 30.2084 12.9057 30.2097 12.8927 30.2131C12.8497 30.2242 12.9339 30.2065 12.9364 30.208C12.9046 30.2066 12.8727 30.2094 12.8417 30.2164C12.7826 30.2198 12.7234 30.2198 12.6643 30.2164C12.6506 30.2156 12.637 30.2142 12.6233 30.2134C12.5916 30.2116 12.5683 30.1887 12.6105 30.2135C12.6431 30.2327 12.6404 30.2187 12.6116 30.2134C12.5981 30.2109 12.5845 30.2088 12.571 30.2063C12.5125 30.1953 12.4547 30.1811 12.3978 30.1638C12.3672 30.1545 12.3372 30.1436 12.307 30.1331C12.2938 30.1293 12.281 30.1243 12.2687 30.1183C12.2685 30.1149 12.3465 30.1556 12.3053 30.1334C12.2533 30.1054 12.1996 30.0819 12.1488 30.0513C12.1217 30.0349 12.0957 30.0172 12.0693 29.9997C12.0577 29.9927 12.0467 29.9848 12.0364 29.9761C12.0372 29.9725 12.1009 30.0316 12.0675 29.9997C12.0252 29.9594 11.98 29.9234 11.94 29.8805C11.9308 29.8706 11.9221 29.8604 11.913 29.8505L11.9042 29.8404C11.8816 29.8129 11.8812 29.813 11.9029 29.8408C11.925 29.8473 11.924 29.8716 11.9031 29.8401C11.8956 29.8289 11.8877 29.818 11.8802 29.8068C11.8464 29.7586 11.8176 29.7071 11.7942 29.6531C11.7962 29.6515 11.8302 29.7533 11.8042 29.6765C11.7993 29.662 11.7938 29.6477 11.7889 29.6332C11.7794 29.6043 11.7709 29.5752 11.7637 29.5457C11.7565 29.5165 11.7528 29.4864 11.7455 29.4573C11.7333 29.4082 11.7527 29.496 11.7505 29.4938C11.7435 29.4869 11.7465 29.4444 11.7459 29.4342C11.7426 29.3689 11.7501 29.3055 11.7512 29.2405C11.7521 29.1902 11.7471 29.2797 11.746 29.2771C11.7463 29.2621 11.7489 29.2471 11.7539 29.2329C11.7615 29.1987 11.7685 29.1645 11.7777 29.1306C11.7883 29.0918 11.8004 29.0535 11.8142 29.0157C11.8193 29.0015 11.8256 28.9876 11.8304 28.9733C11.8479 28.921 11.7957 29.0364 11.8245 28.9893C11.8641 28.9245 11.8936 28.8543 11.9356 28.7902C11.9456 28.775 12.0062 28.6904 11.974 28.7331C11.942 28.7757 12.0069 28.6951 12.0192 28.6814C12.0703 28.6245 12.1303 28.5778 12.1832 28.5234C12.2145 28.4912 12.1614 28.5393 12.1582 28.5415C12.1746 28.5298 12.1906 28.5177 12.2072 28.5062C12.2361 28.4863 12.2657 28.4675 12.2961 28.4497C12.3302 28.4297 12.3688 28.4148 12.4019 28.3936C12.441 28.3686 12.372 28.4046 12.3708 28.4053C12.3887 28.3965 12.4073 28.3894 12.4266 28.3841C12.4588 28.3727 12.599 28.3122 12.6284 28.3311C12.6271 28.3302 12.5219 28.3395 12.6069 28.3341C12.627 28.3328 12.647 28.3308 12.6671 28.33C12.7078 28.3283 12.7484 28.3293 12.789 28.3314C12.8992 28.3307 13.0047 28.2866 13.0826 28.2087C13.1605 28.1308 13.2046 28.0253 13.2053 27.9151C13.203 27.8055 13.1583 27.7009 13.0808 27.6234C13.0032 27.5458 12.8987 27.5012 12.789 27.4988Z" fill="#3F3D56"/>
<path d="M18.6174 27.4988C18.2558 27.4966 17.9017 27.6008 17.599 27.7985C17.2963 27.9962 17.0584 28.2786 16.9152 28.6105C16.7549 28.9354 16.7054 29.3038 16.7743 29.6595C16.8432 30.0151 17.0267 30.3384 17.2967 30.5799C17.5505 30.7959 17.855 30.9439 18.1815 31.0103C18.5081 31.0766 18.8462 31.0591 19.1642 30.9593C19.4894 30.8457 19.7714 30.6342 19.9714 30.3537C20.1713 30.0732 20.2795 29.7377 20.2809 29.3932C20.2954 29.0111 20.1919 28.6337 19.9844 28.3125C19.7769 27.9913 19.4755 27.7417 19.1211 27.5978C19.0147 27.5689 18.9011 27.5832 18.8052 27.6377C18.7092 27.6922 18.6387 27.7823 18.609 27.8886C18.5828 27.9949 18.5983 28.1073 18.6524 28.2026C18.7064 28.2978 18.795 28.3687 18.8998 28.4007C18.9723 28.4287 18.8335 28.365 18.9013 28.4019C18.9291 28.4171 18.9575 28.4308 18.9848 28.447C19.0081 28.4608 19.0304 28.4759 19.053 28.4906C19.1307 28.5414 19.015 28.4534 19.0647 28.499C19.1078 28.5385 19.1505 28.5771 19.1896 28.6208C19.2044 28.6373 19.2624 28.6831 19.2174 28.6511C19.1829 28.6265 19.2041 28.6323 19.2174 28.652C19.2274 28.667 19.2381 28.6815 19.2481 28.6965C19.2805 28.7457 19.31 28.7967 19.3364 28.8493C19.3426 28.8615 19.3481 28.8739 19.3544 28.886C19.366 28.9087 19.3829 28.9147 19.3555 28.8863C19.3293 28.8591 19.346 28.8609 19.3554 28.8871C19.3615 28.9043 19.3682 28.9212 19.3742 28.9385C19.3938 28.9946 19.4102 29.0518 19.4233 29.1098C19.4294 29.1366 19.4343 29.1636 19.4396 29.1905C19.4582 29.2861 19.4369 29.1311 19.4414 29.2021C19.4451 29.2614 19.4495 29.3201 19.4485 29.3796C19.448 29.4068 19.4468 29.434 19.4449 29.4612C19.444 29.4748 19.4424 29.4883 19.4415 29.5019C19.4372 29.5672 19.4371 29.478 19.4462 29.4719C19.4272 29.5273 19.4146 29.5848 19.4086 29.6431C19.4012 29.669 19.3923 29.6943 19.384 29.7199C19.355 29.8092 19.4112 29.6712 19.3803 29.7323C19.3549 29.7847 19.3265 29.8357 19.2953 29.8848C19.2817 29.9055 19.2306 29.952 19.2724 29.9196C19.3178 29.8845 19.2486 29.945 19.2338 29.9605C19.2149 29.9805 19.1952 29.9998 19.1748 30.0185C19.1617 30.0312 19.1479 30.0432 19.1335 30.0543C19.1308 30.053 19.203 30.0061 19.1641 30.0309C19.1147 30.0625 19.0678 30.0962 19.0157 30.1237C19.0096 30.1269 18.943 30.1578 18.9433 30.1589C18.9404 30.1476 19.0289 30.1277 18.9681 30.1473C18.9554 30.1515 18.9429 30.1564 18.9301 30.1607C18.8748 30.1794 18.8183 30.1944 18.761 30.2058C18.7479 30.2084 18.734 30.2097 18.7211 30.2131C18.6781 30.2242 18.7622 30.2065 18.7648 30.208C18.7329 30.2066 18.7011 30.2094 18.67 30.2164C18.611 30.2198 18.5517 30.2198 18.4927 30.2164C18.479 30.2156 18.4654 30.2142 18.4517 30.2134C18.42 30.2116 18.3967 30.1887 18.4389 30.2135C18.4715 30.2327 18.4688 30.2187 18.4399 30.2134C18.4264 30.2109 18.4129 30.2088 18.3994 30.2063C18.3409 30.1953 18.2831 30.1811 18.2262 30.1638C18.1956 30.1545 18.1656 30.1436 18.1354 30.1331C18.1222 30.1293 18.1094 30.1243 18.0971 30.1183C18.0969 30.1149 18.1749 30.1556 18.1337 30.1334C18.0817 30.1054 18.0279 30.0819 17.9772 30.0513C17.9501 30.0349 17.924 30.0172 17.8977 29.9997C17.8861 29.9927 17.8751 29.9848 17.8647 29.9761C17.8656 29.9725 17.9293 30.0316 17.8959 29.9997C17.8536 29.9594 17.8084 29.9234 17.7683 29.8805C17.7592 29.8706 17.7505 29.8604 17.7414 29.8505L17.7326 29.8404C17.71 29.8129 17.7096 29.813 17.7313 29.8408C17.7534 29.8473 17.7524 29.8716 17.7314 29.8401C17.724 29.8289 17.716 29.818 17.7086 29.8068C17.6748 29.7586 17.6459 29.7071 17.6225 29.6531C17.6246 29.6515 17.6586 29.7533 17.6326 29.6765C17.6277 29.662 17.6221 29.6477 17.6173 29.6332C17.6077 29.6043 17.5993 29.5752 17.592 29.5457C17.5848 29.5165 17.5811 29.4864 17.5739 29.4573C17.5617 29.4082 17.581 29.496 17.5788 29.4938C17.5719 29.4869 17.5748 29.4444 17.5743 29.4342C17.571 29.3689 17.5784 29.3055 17.5796 29.2405C17.5805 29.1902 17.5754 29.2797 17.5744 29.2771C17.5746 29.2621 17.5773 29.2471 17.5823 29.2329C17.5898 29.1987 17.5968 29.1645 17.6061 29.1306C17.6166 29.0918 17.6288 29.0535 17.6425 29.0157C17.6477 29.0015 17.654 28.9876 17.6587 28.9733C17.6763 28.921 17.624 29.0364 17.6528 28.9893C17.6924 28.9245 17.7219 28.8543 17.764 28.7902C17.774 28.775 17.8345 28.6904 17.8024 28.7331C17.7704 28.7757 17.8353 28.6951 17.8476 28.6814C17.8987 28.6245 17.9587 28.5778 18.0116 28.5234C18.0429 28.4912 17.9897 28.5393 17.9866 28.5415C18.003 28.5298 18.019 28.5177 18.0356 28.5062C18.0645 28.4863 18.0941 28.4675 18.1244 28.4497C18.1586 28.4297 18.1972 28.4148 18.2303 28.3936C18.2694 28.3686 18.2004 28.4046 18.1992 28.4053C18.217 28.3965 18.2357 28.3894 18.2549 28.3841C18.2872 28.3727 18.4274 28.3122 18.4568 28.3311C18.4554 28.3302 18.3503 28.3395 18.4353 28.3341C18.4554 28.3328 18.4754 28.3308 18.4955 28.33C18.5362 28.3283 18.5767 28.3293 18.6174 28.3314C18.7276 28.3307 18.833 28.2866 18.911 28.2087C18.9889 28.1308 19.033 28.0253 19.0337 27.9151C19.0313 27.8055 18.9867 27.7009 18.9091 27.6234C18.8316 27.5458 18.727 27.5012 18.6174 27.4988Z" fill="#3F3D56"/>
<path d="M24.4457 27.4988C24.0842 27.4966 23.73 27.6008 23.4273 27.7985C23.1246 27.9962 22.8868 28.2786 22.7435 28.6105C22.5832 28.9354 22.5338 29.3038 22.6027 29.6595C22.6715 30.0151 22.855 30.3384 23.125 30.5799C23.3789 30.7959 23.6833 30.9439 24.0099 31.0103C24.3365 31.0766 24.6746 31.0591 24.9926 30.9593C25.3178 30.8457 25.5997 30.6342 25.7997 30.3537C25.9997 30.0732 26.1078 29.7377 26.1092 29.3932C26.1237 29.0111 26.0202 28.6337 25.8127 28.3125C25.6052 27.9913 25.3038 27.7417 24.9495 27.5978C24.843 27.5689 24.7295 27.5832 24.6335 27.6377C24.5376 27.6922 24.4671 27.7823 24.4374 27.8886C24.4111 27.9949 24.4266 28.1073 24.4807 28.2026C24.5348 28.2978 24.6234 28.3687 24.7282 28.4007C24.8007 28.4287 24.6619 28.365 24.7296 28.4019C24.7575 28.4171 24.7859 28.4308 24.8132 28.447C24.8365 28.4608 24.8587 28.4759 24.8813 28.4906C24.9591 28.5414 24.8434 28.4534 24.8931 28.499C24.9362 28.5385 24.9788 28.5771 25.018 28.6208C25.0328 28.6373 25.0908 28.6831 25.0457 28.6511C25.0112 28.6265 25.0324 28.6323 25.0457 28.652C25.0558 28.667 25.0665 28.6815 25.0764 28.6965C25.1089 28.7457 25.1384 28.7967 25.1648 28.8493C25.1709 28.8615 25.1765 28.8739 25.1827 28.886C25.1944 28.9087 25.2113 28.9147 25.1839 28.8863C25.1577 28.8591 25.1744 28.8609 25.1837 28.8871C25.1899 28.9043 25.1966 28.9212 25.2026 28.9385C25.2221 28.9946 25.2385 29.0518 25.2517 29.1098C25.2578 29.1366 25.2627 29.1636 25.2679 29.1905C25.2865 29.2861 25.2652 29.1311 25.2697 29.2021C25.2735 29.2614 25.2778 29.3201 25.2768 29.3796C25.2763 29.4068 25.2752 29.434 25.2733 29.4612C25.2723 29.4748 25.2708 29.4883 25.2699 29.5019C25.2656 29.5672 25.2654 29.478 25.2746 29.4719C25.2556 29.5273 25.2429 29.5848 25.237 29.6431C25.2295 29.669 25.2207 29.6943 25.2124 29.7199C25.1834 29.8092 25.2395 29.6712 25.2087 29.7323C25.1833 29.7847 25.1549 29.8357 25.1236 29.8848C25.1101 29.9055 25.0589 29.952 25.1007 29.9196C25.1461 29.8845 25.0769 29.945 25.0622 29.9605C25.0432 29.9805 25.0235 29.9998 25.0031 30.0185C24.9901 30.0312 24.9763 30.0432 24.9618 30.0543C24.9592 30.053 25.0314 30.0061 24.9925 30.0309C24.943 30.0625 24.8962 30.0962 24.844 30.1237C24.838 30.1269 24.7713 30.1578 24.7716 30.1589C24.7687 30.1476 24.8573 30.1277 24.7965 30.1473C24.7837 30.1515 24.7712 30.1564 24.7585 30.1607C24.7031 30.1794 24.6466 30.1944 24.5894 30.2058C24.5762 30.2084 24.5624 30.2097 24.5495 30.2131C24.5064 30.2242 24.5906 30.2065 24.5931 30.208C24.5613 30.2066 24.5294 30.2094 24.4984 30.2164C24.4393 30.2198 24.3801 30.2198 24.321 30.2164C24.3074 30.2156 24.2937 30.2142 24.2801 30.2134C24.2483 30.2116 24.2251 30.1887 24.2673 30.2135C24.2998 30.2327 24.2971 30.2187 24.2683 30.2134C24.2548 30.2109 24.2412 30.2088 24.2277 30.2063C24.1693 30.1953 24.1115 30.1811 24.0545 30.1638C24.0239 30.1545 23.9939 30.1436 23.9637 30.1331C23.9506 30.1293 23.9377 30.1243 23.9254 30.1183C23.9252 30.1149 24.0033 30.1556 23.9621 30.1334C23.9101 30.1054 23.8563 30.0819 23.8055 30.0513C23.7784 30.0349 23.7524 30.0172 23.726 29.9997C23.7144 29.9927 23.7034 29.9848 23.6931 29.9761C23.694 29.9725 23.7576 30.0316 23.7242 29.9997C23.6819 29.9594 23.6367 29.9234 23.5967 29.8805C23.5875 29.8706 23.5789 29.8604 23.5697 29.8505L23.5609 29.8404C23.5383 29.8129 23.5379 29.813 23.5596 29.8408C23.5817 29.8473 23.5807 29.8716 23.5598 29.8401C23.5523 29.8289 23.5444 29.818 23.5369 29.8068C23.5031 29.7586 23.4743 29.7071 23.4509 29.6531C23.4529 29.6515 23.4869 29.7533 23.4609 29.6765C23.456 29.662 23.4505 29.6477 23.4457 29.6332C23.4361 29.6043 23.4277 29.5752 23.4204 29.5457C23.4132 29.5165 23.4095 29.4864 23.4023 29.4573C23.39 29.4082 23.4094 29.496 23.4072 29.4938C23.4003 29.4869 23.4032 29.4444 23.4027 29.4342C23.3994 29.3689 23.4068 29.3055 23.408 29.2405C23.4089 29.1902 23.4038 29.2797 23.4028 29.2771C23.403 29.2621 23.4057 29.2471 23.4107 29.2329C23.4182 29.1987 23.4252 29.1645 23.4344 29.1306C23.445 29.0918 23.4571 29.0535 23.4709 29.0157C23.476 29.0015 23.4823 28.9876 23.4871 28.9733C23.5046 28.921 23.4524 29.0364 23.4812 28.9893C23.5208 28.9245 23.5503 28.8543 23.5924 28.7902C23.6023 28.775 23.6629 28.6904 23.6308 28.7331C23.5987 28.7757 23.6637 28.6951 23.676 28.6814C23.727 28.6245 23.7871 28.5778 23.84 28.5234C23.8712 28.4912 23.8181 28.5393 23.815 28.5415C23.8313 28.5298 23.8474 28.5177 23.864 28.5062C23.8929 28.4863 23.9225 28.4675 23.9528 28.4497C23.987 28.4297 24.0256 28.4148 24.0587 28.3936C24.0978 28.3686 24.0288 28.4046 24.0275 28.4053C24.0454 28.3965 24.0641 28.3894 24.0833 28.3841C24.1155 28.3727 24.2557 28.3122 24.2851 28.3311C24.2838 28.3302 24.1787 28.3395 24.2637 28.3341C24.2838 28.3328 24.3038 28.3308 24.3239 28.33C24.3646 28.3283 24.4051 28.3293 24.4457 28.3314C24.5559 28.3307 24.6614 28.2866 24.7393 28.2087C24.8172 28.1308 24.8613 28.0253 24.8621 27.9151C24.8597 27.8055 24.8151 27.7009 24.7375 27.6234C24.6599 27.5458 24.5554 27.5012 24.4457 27.4988Z" fill="#3F3D56"/>
<path d="M12.2821 49.3642L12.6533 63.5757L13.0246 77.7872C13.0714 79.5804 12.8181 82.0263 14.637 83.0767C15.3958 83.5148 16.303 83.6109 17.1629 83.6348C18.3045 83.6665 19.4496 83.643 20.5916 83.6442L34.8157 83.6594C36.6846 83.6614 38.7373 83.6069 40.0763 82.1016C41.194 80.8451 41.5107 79.1033 41.6227 77.4779C41.7706 75.3328 41.6997 73.161 41.7189 71.0116L41.7827 63.8694L41.8466 56.7272C41.866 54.5574 41.9685 52.37 41.8734 50.2017C41.8008 48.5472 41.5211 46.7805 40.4119 45.4803C39.1483 43.9992 37.1503 43.7993 35.3279 43.7409C30.6149 43.5901 25.9011 43.4627 21.1877 43.3237C20.1034 43.2917 19.0159 43.2335 17.9309 43.2478C16.966 43.2292 16.0051 43.3764 15.0901 43.683C13.5661 44.2535 12.3757 45.6221 12.4287 47.3195C12.4321 47.6751 12.5106 48.0259 12.659 48.349C12.8074 48.6721 13.0223 48.9602 13.2897 49.1945C13.6965 49.5386 14.2883 48.9525 13.8785 48.6058C12.7677 47.666 13.3057 45.9053 14.2767 45.0713C15.6836 43.863 17.8892 44.059 19.6047 44.1096L32.9568 44.5034C33.9923 44.534 35.0307 44.5442 36.0649 44.6051C36.9882 44.6595 37.9526 44.7794 38.7789 45.224C40.2079 45.9928 40.7655 47.5703 40.9533 49.0959C41.1895 51.0155 41.0473 52.9962 41.0301 54.9244L40.9693 61.7198L40.849 75.1721C40.8344 76.8083 40.8597 78.4971 40.3091 80.0616C40.0725 80.7873 39.6393 81.4333 39.0575 81.9275C38.3269 82.4577 37.4539 82.7562 36.5517 82.7843C35.5382 82.866 34.5131 82.8265 33.4974 82.8254L30.0281 82.8217L23.367 82.8146L19.8977 82.8108C18.884 82.8098 17.8629 82.8453 16.8504 82.7896C16.0733 82.7468 15.2062 82.6125 14.6337 82.0345C13.9923 81.387 13.9328 80.387 13.9034 79.5284C13.5968 70.5861 13.4353 61.6363 13.2016 52.6918L13.1147 49.3642C13.1007 48.8294 12.268 48.8273 12.282 49.3642L12.2821 49.3642Z" fill="#3F3D56"/>
<path d="M65.0153 49.3642L65.3866 63.5757L65.7579 77.7872C65.8047 79.5804 65.5514 82.0263 67.3703 83.0767C68.1291 83.5148 69.0363 83.6109 69.8962 83.6348C71.0377 83.6665 72.1829 83.643 73.3249 83.6442L87.549 83.6594C89.4179 83.6614 91.4706 83.6069 92.8095 82.1016C93.9272 80.8451 94.244 79.1033 94.356 77.4779C94.5039 75.3328 94.4329 73.161 94.4521 71.0116L94.516 63.8694L94.5799 56.7272C94.5993 54.5574 94.7018 52.37 94.6067 50.2017C94.5341 48.5472 94.2544 46.7805 93.1452 45.4803C91.8816 43.9992 89.8836 43.7993 88.0612 43.7409C83.3482 43.5901 78.6344 43.4627 73.921 43.3237C72.8367 43.2917 71.7492 43.2335 70.6642 43.2478C69.6993 43.2292 68.7384 43.3764 67.8233 43.683C66.2994 44.2535 65.109 45.6221 65.162 47.3195C65.1654 47.6751 65.2439 48.0259 65.3923 48.349C65.5406 48.6721 65.7556 48.9602 66.023 49.1945C66.4298 49.5386 67.0216 48.9525 66.6118 48.6058C65.501 47.666 66.0389 45.9053 67.0099 45.0713C68.4168 43.863 70.6224 44.059 72.338 44.1096L85.6901 44.5034C86.7256 44.534 87.7639 44.5442 88.7982 44.6051C89.7214 44.6595 90.6858 44.7794 91.5122 45.224C92.9411 45.9928 93.4988 47.5703 93.6866 49.0959C93.9228 51.0155 93.7806 52.9962 93.7633 54.9244L93.7026 61.7198L93.5823 75.1721C93.5677 76.8083 93.5929 78.4971 93.0424 80.0616C92.8058 80.7873 92.3725 81.4333 91.7908 81.9275C91.0602 82.4577 90.1872 82.7562 89.285 82.7843C88.2715 82.866 87.2464 82.8265 86.2306 82.8254L82.7613 82.8217L76.1003 82.8146L72.631 82.8108C71.6173 82.8098 70.5962 82.8453 69.5837 82.7896C68.8066 82.7468 67.9395 82.6125 67.367 82.0345C66.7256 81.387 66.6661 80.387 66.6367 79.5284C66.3301 70.5861 66.1685 61.6363 65.9349 52.6918L65.8479 49.3642C65.834 48.8294 65.0013 48.8273 65.0153 49.3642L65.0153 49.3642Z" fill="#3F3D56"/>
<path d="M26.6542 86.736C26.3631 86.4559 26.0049 86.2553 25.6139 86.1536C25.2229 86.0519 24.8124 86.0525 24.4217 86.1553C24.0335 86.2617 23.6738 86.453 23.3683 86.7152C23.0629 86.9774 22.8195 87.304 22.6555 87.6716C21.8688 89.347 22.5736 91.2997 23.6605 92.6677C24.6705 93.939 26.3115 94.7767 27.9099 94.1094C28.6382 93.7973 29.2501 93.2644 29.6594 92.5859C30.0686 91.9074 30.2545 91.1176 30.1908 90.3278C29.9893 88.4676 28.4776 86.961 26.7025 86.5067C26.1831 86.3738 25.9616 87.1766 26.4811 87.3096C27.0982 87.4591 27.6694 87.7571 28.1451 88.1776C28.6207 88.5981 28.9865 89.1285 29.2105 89.7226C29.407 90.3038 29.4155 90.9321 29.2348 91.5184C29.054 92.1047 28.6932 92.6192 28.2036 92.9889C25.7225 94.8941 22.8846 91.2513 23.1628 88.8679C23.1925 88.5162 23.3026 88.1761 23.4848 87.8738C23.6669 87.5716 23.9162 87.3153 24.2132 87.1247C24.5024 86.9545 24.8388 86.8821 25.1724 86.9181C25.5061 86.9541 25.8192 87.0967 26.0654 87.3248C26.1443 87.3985 26.2488 87.4387 26.3569 87.4369C26.4649 87.4351 26.568 87.3914 26.6444 87.315C26.7208 87.2386 26.7645 87.1355 26.7663 87.0275C26.7681 86.9194 26.7279 86.8149 26.6542 86.736L26.6542 86.736Z" fill="#3F3D56"/>
<path d="M77.5213 57.8397C76.5496 57.5055 75.4217 57.1737 74.4163 57.5655C73.4678 57.935 72.9455 58.8398 72.8427 59.8218C72.7282 60.9169 73.1938 61.9614 73.6873 62.9095C74.281 64.05 74.8933 65.1812 75.4966 66.3166L77.5835 70.2438C77.631 70.3206 77.702 70.38 77.786 70.4132C77.87 70.4464 77.9625 70.4516 78.0497 70.4279C78.1368 70.4043 78.2141 70.3532 78.2698 70.2822C78.3256 70.2111 78.357 70.124 78.3592 70.0337C78.2414 68.7169 78.4503 67.3913 78.9677 66.1747C79.5014 64.9449 80.3734 63.9063 80.9934 62.7239C81.564 61.6354 81.9445 60.3865 81.6422 59.1596C81.3976 58.1673 80.676 57.2017 79.636 56.9707C79.1105 56.8377 78.5548 56.8966 78.0688 57.1367C77.5828 57.3768 77.1984 57.7824 76.9847 58.2805C76.7882 58.7792 77.5931 58.9955 77.7876 58.5019C78.0645 57.7988 79.034 57.5832 79.6801 57.8523C80.5219 58.2029 80.9212 59.209 80.9203 60.0642C80.9189 61.2334 80.3199 62.3018 79.7122 63.2621C79.0984 64.232 78.4531 65.17 78.0451 66.2511C77.5951 67.4582 77.418 68.75 77.5266 70.0337L78.3024 69.8236C76.9474 67.2735 75.5178 64.7492 74.2386 62.1602C73.7467 61.1647 73.3042 59.8219 74.0583 58.8288C74.8315 57.8106 76.3073 58.3012 77.2999 58.6426C77.8077 58.8172 78.0258 58.0132 77.5213 57.8397L77.5213 57.8397Z" fill="#3F3D56"/>
<path d="M24.5279 89.0621L25.7539 91.4401C25.7964 91.5092 25.858 91.5645 25.9312 91.5994C26.0044 91.6343 26.0861 91.6472 26.1666 91.6367C26.247 91.6262 26.3226 91.5927 26.3844 91.5401C26.4462 91.4876 26.4915 91.4183 26.5148 91.3406C26.8342 89.6945 27.5994 88.1675 28.727 86.9264C29.0878 86.5314 28.5006 85.941 28.1383 86.3376C26.908 87.6801 26.0689 89.3338 25.7119 91.1193L26.4728 91.0198L25.2468 88.6419C25.0012 88.1654 24.2825 88.5861 24.5279 89.0621Z" fill="#3F3D56"/>
<path d="M38.4346 78.0844L28.7474 86.6406C28.6928 86.6888 28.6218 86.7143 28.549 86.7117C28.4762 86.7091 28.4071 86.6787 28.3561 86.6267C28.305 86.5748 28.2759 86.5052 28.2746 86.4323C28.2733 86.3595 28.3 86.2889 28.3492 86.2352L37.3752 76.3804L38.4346 78.0844Z" fill="#3F3D56"/>
<path d="M51.3491 182.213H55.1565L56.9685 167.527H51.3491V182.213Z" fill="#FFB6B6"/>
<path d="M49.3395 188.81H52.07L52.5573 186.232L53.8056 188.81H61.0475C61.3946 188.81 61.7327 188.699 62.0123 188.493C62.2919 188.288 62.4984 187.998 62.6017 187.667C62.705 187.335 62.6997 186.979 62.5865 186.651C62.4733 186.323 62.2582 186.04 61.9725 185.843L56.1893 181.848V179.242L50.1065 179.605L49.3395 188.81Z" fill="#2F2E41"/>
<path d="M83.962 182.213H87.7694L89.5814 167.527H83.962V182.213Z" fill="#FFB6B6"/>
<path d="M81.9524 188.81H84.6829L85.1702 186.232L86.4185 188.81H93.6604C94.0075 188.81 94.3456 188.699 94.6252 188.493C94.9048 188.288 95.1113 187.998 95.2146 187.667C95.3179 187.335 95.3126 186.979 95.1994 186.651C95.0862 186.323 94.8711 186.04 94.5854 185.843L88.8022 181.848V179.242L82.7194 179.605L81.9524 188.81Z" fill="#2F2E41"/>
<path d="M72.9577 104.369L53.6474 102.223C53.6474 102.223 45.065 113.38 48.2834 123.035V133.787L50.6436 175.817L56.5439 176.139L58.2604 157.043L59.8696 149.426L61.225 120.407L68.1301 128.721L68.7738 131.94L70.9194 133.442L74.8887 138.896L83.042 172.384L90.2271 172.491C90.2271 172.491 86.3676 137.733 85.9385 137.733C85.5094 137.733 74.7814 114.346 74.7814 114.346V113.108L74.3523 110.698C74.3523 110.698 75.4251 109.84 74.996 109.411C74.5669 108.982 74.1378 107.695 74.1378 107.695L72.9577 104.369Z" fill="#2F2E41"/>
<path d="M65.9845 74.4378L69.8466 78.729L75.2105 80.66L72.2067 98.2539L73.203 103.313L74.6741 108.875C69.0056 112.01 62.2722 107.68 56.0863 105.756L49.9999 108.445L50.3217 101.043L50.4868 82.3928C50.4931 81.6764 50.6466 80.9691 50.9377 80.3145C51.2289 79.66 51.6514 79.0723 52.1792 78.5879C52.7069 78.1035 53.3286 77.7328 54.0056 77.4987C54.6826 77.2646 55.4006 77.1721 56.1148 77.2271L60.1914 74.2233L65.9845 74.4378Z" fill="#1FADE0"/>
<path d="M30.9495 82.3082C30.98 82.6266 31.0799 82.9344 31.2422 83.21C31.4045 83.4855 31.6253 83.7222 31.8889 83.9032C32.1525 84.0842 32.4527 84.2052 32.7682 84.2577C33.0836 84.3102 33.4068 84.2929 33.7148 84.207L38.1426 90.5969L39.6479 86.848L35.2125 81.3548C35.0339 80.8469 34.6751 80.4221 34.2042 80.161C33.7333 79.8998 33.183 79.8205 32.6575 79.938C32.1321 80.0556 31.668 80.3617 31.3532 80.7986C31.0384 81.2354 30.8948 81.7726 30.9495 82.3082Z" fill="#FFB8B8"/>
<path d="M54.1329 77.3187C54.1329 77.3187 48.3697 77.0633 49.0151 88.5166L46.5633 93.5478L41.6321 88.9457L41.6097 87.4807L37.4395 82.8195L34.092 86.5199L36.3202 89.9266L36.7498 91.8292L38.1068 92.6581L41.6476 98.0717L43.2856 99.6839C43.2856 99.6839 45.3634 101.754 47.7135 101.442C48.3405 101.361 48.9508 101.181 49.5222 100.911C50.6401 100.378 51.7446 99.4242 52.6733 97.8089C54.6194 94.473 56.3642 91.0236 57.8983 87.4792L54.1329 77.3187Z" fill="#1FADE0"/>
<path d="M79.3626 64.3884C79.2746 64.6959 79.2551 65.0189 79.3055 65.3348C79.3558 65.6506 79.4748 65.9515 79.6541 66.2164C79.8333 66.4813 80.0685 66.7036 80.3429 66.8678C80.6174 67.0319 80.9245 67.1339 81.2427 67.1665L83.0287 74.7326L85.8 71.7933L83.6791 65.059C83.6985 64.5209 83.5198 63.9944 83.1769 63.5793C82.8341 63.1641 82.3508 62.8891 81.8187 62.8065C81.2867 62.7238 80.7428 62.8392 80.2901 63.1308C79.8374 63.4223 79.5074 63.8698 79.3626 64.3884V64.3884Z" fill="#FFB8B8"/>
<path d="M67.0974 79.6402C67.0974 79.6402 70.1448 74.7419 79.2275 81.749L84.7637 82.5708L83.7551 75.9015L82.5594 75.0549L81.0719 68.9799L86.0167 68.3105L87.5672 72.0744L88.8938 73.5043L88.8103 75.0923L91.2742 81.0734L91.6781 83.3359C91.6781 83.3359 92.2114 86.2203 90.6255 87.9825C90.2038 88.4537 89.7107 88.8556 89.1643 89.1737C88.0933 89.7951 86.6818 90.1667 84.8244 90.0196C80.9725 89.7391 77.1409 89.2283 73.35 88.4901L67.0974 79.6402Z" fill="#1FADE0"/>
<path d="M66.6672 72.649C70.2688 70.6802 71.5925 66.1645 69.6237 62.5629C67.6549 58.9613 63.1392 57.6377 59.5376 59.6065C55.936 61.5752 54.6124 66.0909 56.5812 69.6925C58.55 73.2941 63.0656 74.6178 66.6672 72.649Z" fill="#FFB6B6"/>
<path d="M72.8811 63.5634C72.8589 63.5717 72.8394 63.58 72.8172 63.5883C72.7749 63.607 72.7313 63.6227 72.6868 63.6355C72.4031 63.7389 72.1075 63.806 71.807 63.8354C71.6788 63.8489 71.5501 63.8554 71.4212 63.8548C71.256 63.8549 71.0909 63.8438 70.9272 63.8215C70.7451 63.7987 70.565 63.7616 70.3887 63.7105C70.3051 63.6878 70.2226 63.661 70.1417 63.63C69.5905 63.4326 69.0926 63.11 68.6871 62.6877C68.2816 62.2654 67.9796 61.7547 67.8048 61.1959V61.1931C67.7862 61.1385 67.7704 61.0829 67.7576 61.0266C67.6759 60.714 67.6349 60.3922 67.6355 60.0691V60.0635C67.6354 59.2756 67.883 58.5077 68.3432 57.8682C68.6208 57.4768 68.9404 57.4121 68.7623 56.9634C68.1943 55.5319 70.5361 54.3689 71.9152 55.0012C71.965 54.9965 72.0151 54.9947 72.0651 54.9956C72.9949 54.9956 73.3362 56.3694 73.8886 57.1438L73.8725 57.149C73.732 57.1978 73.6103 57.2892 73.5243 57.4106C73.4384 57.532 73.3925 57.6772 73.3931 57.8259C73.3938 57.9746 73.4408 58.1194 73.5278 58.24C73.6148 58.3607 73.7373 58.4511 73.8781 58.4987C74.2469 58.6199 74.6195 58.727 74.996 58.8202C76.2346 60.2906 74.7995 64.5797 72.8811 63.5634Z" fill="#2F2E41"/>
<path d="M72.1871 67.4962C71.7736 69.0588 71.0131 70.5825 69.7559 71.5955C68.4958 72.6085 62.5758 75.001 62.0818 72.9388C62.4121 74.3793 62.2095 74.9288 61.671 75.4422C61.5794 75.3173 61.4823 75.198 61.3824 75.0814C61.0144 74.6552 60.5725 74.2989 60.0779 74.0295C60.0629 74.8991 60.1233 75.7683 60.2583 76.6274C60.0365 76.831 59.8253 77.0459 59.6255 77.2712C58.6763 74.4181 56.5885 70.9984 58.1129 68.4065C58.7179 67.3779 58.216 67.2355 57.6827 67.116C56.7518 66.9072 56.2478 63.0833 56.0286 62.1535C55.7566 60.9878 55.6511 59.6473 56.3755 58.6925C57.0999 57.7378 58.9261 57.7017 59.2925 58.8424L60.0641 57.7988C61.0632 55.6146 63.6999 56.0586 66.084 56.3473C68.4681 56.6332 70.5691 58.3151 71.6376 60.466C72.7034 62.617 72.8005 65.1731 72.1871 67.4962Z" fill="#2F2E41"/>
<path d="M68.4529 57.4976C68.3989 58.8162 68.7337 60.1215 69.4155 61.2513C70.0973 62.3812 71.0961 63.2857 72.2878 63.8526C72.7718 64.0733 73.1955 63.3559 72.7081 63.1336C71.6433 62.6392 70.7494 61.8394 70.14 60.8359C69.5306 59.8324 69.2332 58.6705 69.2855 57.4976C69.3146 56.9622 68.4819 56.9638 68.4529 57.4976Z" fill="#FF6584"/>
<path d="M35.7745 183.807C35.6263 183.814 35.4797 183.775 35.3544 183.696C35.2291 183.617 35.1313 183.501 35.0741 183.364C35.0169 183.227 35.0031 183.076 35.0346 182.931C35.0662 182.786 35.1415 182.655 35.2503 182.554L35.2999 182.357C35.2934 182.341 35.2868 182.325 35.2802 182.31C34.6144 180.722 30.3661 185.148 30.1824 186.64C30.1015 187.299 30.1356 187.968 30.2832 188.616C28.9071 185.614 28.1925 182.351 28.1879 179.049C28.1876 178.22 28.2337 177.392 28.3258 176.569C28.402 175.894 28.5077 175.223 28.6428 174.558C29.3804 170.947 30.964 167.562 33.2636 164.682C34.5787 164.756 35.7313 164.555 35.8426 162.007C35.8624 161.553 36.1987 161.161 36.2727 160.714C36.1472 160.73 36.0196 160.741 35.894 160.749C35.8549 160.751 35.8138 160.753 35.7746 160.755L35.7599 160.756C35.6219 160.762 35.4851 160.728 35.3659 160.658C35.2467 160.589 35.1501 160.486 35.088 160.363C35.0258 160.239 35.0006 160.101 35.0154 159.963C35.0302 159.826 35.0844 159.696 35.1714 159.588C35.2257 159.522 35.2799 159.455 35.3342 159.388C35.4165 159.286 35.5009 159.185 35.5832 159.082C35.5927 159.072 35.6017 159.062 35.61 159.051C35.7047 158.934 35.7993 158.818 35.894 158.701C35.7212 158.433 35.4887 158.208 35.2148 158.044C34.2659 157.489 32.9569 157.874 32.2715 158.732C31.584 159.59 31.4544 160.794 31.6931 161.867C31.9279 162.779 32.3163 163.645 32.8416 164.427C32.7902 164.493 32.7367 164.557 32.6852 164.623C31.7446 165.832 30.9248 167.131 30.2375 168.5C30.4319 166.981 28.0542 161.496 27.1346 160.335C26.0301 158.939 23.7652 159.548 23.5706 161.317C23.5688 161.334 23.5669 161.351 23.5651 161.368C23.7017 161.446 23.8354 161.527 23.9662 161.614C24.1305 161.724 24.2579 161.88 24.3315 162.064C24.4052 162.247 24.4217 162.449 24.379 162.642C24.3362 162.835 24.2362 163.01 24.0919 163.145C23.9477 163.28 23.766 163.369 23.5707 163.399L23.5507 163.402C21.7225 166.012 27.5833 172.806 29.0503 171.281C28.3599 173.238 27.9267 175.276 27.7619 177.345C27.6685 178.565 27.6741 179.791 27.7784 181.01L27.7722 180.967C27.4462 178.311 21.8543 174.362 20.2213 174.691C19.2806 174.881 18.3541 174.837 18.4969 175.786C18.4992 175.801 18.5015 175.817 18.5039 175.832C18.7573 175.935 19.0041 176.054 19.2428 176.188C19.3794 176.265 19.5131 176.347 19.6439 176.433C19.8082 176.543 19.9356 176.7 20.0092 176.883C20.0829 177.067 20.0994 177.268 20.0566 177.461C20.0139 177.654 19.9139 177.83 19.7696 177.965C19.6254 178.1 19.4437 178.188 19.2484 178.218L19.2284 178.221C19.214 178.223 19.2016 178.226 19.1872 178.228C18.355 181.091 24.5266 185.712 28.2785 184.242H28.2806C28.6524 185.857 29.1911 187.43 29.8881 188.935H35.6305C35.6511 188.871 35.6697 188.805 35.6882 188.741C35.1567 188.774 34.623 188.743 34.0992 188.646C34.5253 188.124 34.9513 187.597 35.3774 187.074C35.3869 187.064 35.3958 187.054 35.4041 187.043C35.6203 186.775 35.8384 186.51 36.0545 186.242L36.0547 186.242C36.0662 185.422 35.9721 184.604 35.7746 183.807L35.7745 183.807ZM29.1985 170.871L29.2016 170.867L29.1985 170.876V170.871ZM27.9265 182.338L27.8772 182.227C27.8792 182.146 27.8792 182.066 27.8772 181.984C27.8772 181.961 27.873 181.939 27.873 181.916C27.8916 182.058 27.908 182.2 27.9286 182.342L27.9265 182.338Z" fill="#1FADE0"/>
<path d="M99.6023 188.796H18.527V189.351H99.6023V188.796Z" fill="#CCCCCC"/>
<path d="M206.741 37.5501L206.735 37.5561C206.102 36.9128 205.247 36.5374 204.345 36.5078C203.443 36.4781 202.565 36.7964 201.891 37.3968C201.218 37.9971 200.801 38.8335 200.728 39.7327C200.654 40.6318 200.929 41.5248 201.496 42.2266L201.49 42.2325L206.172 47.4843L211.424 42.8019C211.769 42.4946 212.05 42.1222 212.252 41.7061C212.453 41.29 212.57 40.8383 212.597 40.3768C212.624 39.9153 212.559 39.4531 212.407 39.0166C212.255 38.5801 212.018 38.1778 211.711 37.8328C211.403 37.4877 211.031 37.2067 210.614 37.0057C210.198 36.8048 209.746 36.6878 209.285 36.6616C208.823 36.6353 208.361 36.7003 207.925 36.8528C207.488 37.0052 207.086 37.2422 206.741 37.5501L206.741 37.5501Z" fill="#1FADE0"/>
</g>
<defs>
<clipPath id="clip0_217_640">
<rect width="240" height="189.351" fill="white"/>
</clipPath>
</defs>
</svg>
