<svg width="240" height="131" viewBox="0 0 240 131" fill="none" xmlns="http://www.w3.org/2000/svg">
<g clip-path="url(#clip0_217_789)">
<path d="M185.506 84.9063C183.553 82.3549 180.171 77.9353 174.353 76.6061C163.392 74.1019 153.973 84.8952 153.084 85.9438C144.214 96.4041 142.841 114.497 151.787 123.295C156.372 127.804 162.603 128.823 165.275 129.26C168.414 129.774 175.716 130.969 181.875 126.667C185.182 124.357 186.769 121.434 187.841 119.404C192.87 109.882 193.522 95.3793 185.506 84.9063ZM171.891 124.569C165.465 125.233 159.375 119.203 156.874 113.556C155.478 110.344 154.988 106.81 155.459 103.339C155.93 99.8678 157.342 96.592 159.544 93.8671C160.471 92.7425 165.406 86.7611 172.225 87.5265C178.931 88.2793 182.925 95.049 184.238 99.5403C187.214 109.71 180.964 123.632 171.891 124.569Z" fill="#1FADE0"/>
<path d="M131.366 125.881H127.987L126.379 112.846H131.367L131.366 125.881Z" fill="#FFB6B6"/>
<path d="M131.276 124.777L127.668 123.309L127.564 123.267L125.572 124.777C124.447 124.777 123.369 125.224 122.573 126.019C121.778 126.815 121.331 127.893 121.331 129.018V129.156H132.227V124.777H131.276Z" fill="#2F2E41"/>
<path d="M173.681 99.8871L172.919 103.179L159.857 101.806L160.982 96.9468L173.681 99.8871Z" fill="#FFB6B6"/>
<path d="M172.8 98.7977L172.604 99.6388L172.584 99.7254L170.347 102.907L170.279 103.002L171.299 105.283C171.173 105.826 171.156 106.388 171.247 106.937C171.339 107.487 171.538 108.012 171.833 108.485C172.128 108.957 172.513 109.367 172.967 109.69C173.42 110.014 173.933 110.245 174.475 110.37L174.608 110.401L177.067 99.7871L172.8 98.7977Z" fill="#2F2E41"/>
<path d="M129.074 55.8208L147.708 56.473L147.838 56.2843C147.838 56.2843 149.427 59.993 149.427 63.172C149.427 64.2289 148.692 71.1418 149.066 72.4497C149.112 72.6123 148.793 73.0109 148.898 73.7684C148.966 74.2599 149.341 73.8818 149.427 74.5631C149.489 75.0521 148.828 75.322 148.898 75.8877C148.973 76.5056 149.882 78.5073 149.964 79.1947C150.835 86.5131 149.417 88.4151 149.417 88.4151C149.417 88.4151 165.354 95.0931 166.34 95.2958C167.994 95.636 169.111 98.6439 168.194 99.2694C167.758 99.5673 166.305 105.116 166.305 105.116C165.995 105.172 165.025 104.685 165.643 103.535C165.757 103.323 165.078 103.862 164.966 103.609C164.846 103.339 163.148 104.522 163.011 104.223C161.778 101.536 146.351 97.8121 144.557 95.8999C141.906 93.0749 140.228 89.4769 139.766 85.6306L138.229 71.5155L136.819 77.9135L135.652 79.0666L135.972 81.7552L135.917 84.3648L133.003 95.2261C133.003 95.2261 132.566 115.51 133.268 116.154C133.648 116.503 135.261 120.8 132.208 121.187L126.661 120.759C126.661 120.759 125.914 119.185 126.288 118.624C126.661 118.063 126.639 118.216 126.183 117.299C125.727 116.382 125.914 114.828 125.914 114.828C125.187 107.523 124.901 100.181 125.056 92.8419C125.334 80.7877 127.019 66.9398 127.019 66.6576C127.033 66.3692 126.98 66.0814 126.864 65.817V65.0562L127.579 62.3602L129.074 55.8208Z" fill="#2F2E41"/>
<path d="M149.377 60.1796C144.672 60.9933 141.517 60.6835 139.576 57.7954C137.043 54.5699 132.436 58.3785 128.549 59.7946L128.088 59.2966L127.304 58.4515L128.025 57.6356L127.304 56.062L127.906 54.1202L128.674 53.9798L128.467 52.3082L128.144 51.3307L129.092 50.2896L129.898 47.6908L129.318 42.2522C128.524 34.7974 130.062 27.2799 133.72 20.7362L135.922 18.7599L136.836 17.9387L138.062 15.6499L139.358 15.8009L142.865 16.2062L142.984 16.4923L143.845 18.5692L146.973 21.9289C147.415 22.4041 147.752 22.968 147.959 23.5831C148.167 24.1983 148.241 24.8506 148.177 25.4966L148.087 26.4026L148.02 27.0543L147.708 30.1908L146.434 43.0045L146.338 43.6854L145.313 51.0525C146.979 52.6632 147.081 52.3118 147.788 55.1463C147.867 55.4616 148.789 56.1636 148.848 56.4709C148.93 56.9053 149.377 60.1796 149.377 60.1796Z" fill="#3F3D56"/>
<path d="M139.824 14.2997C143.189 14.2997 145.916 11.5723 145.916 8.20778C145.916 4.8433 143.189 2.11584 139.824 2.11584C136.46 2.11584 133.733 4.8433 133.733 8.20778C133.733 11.5723 136.46 14.2997 139.824 14.2997Z" fill="#FFB6B6"/>
<path d="M146.198 3.62195C145.796 3.18727 145.279 2.8752 144.707 2.72174C144.135 2.56828 143.531 2.57969 142.965 2.75465C142.717 2.0449 142.279 1.4168 141.699 0.938747C141.118 0.460692 140.418 0.151004 139.674 0.043402C138.93 -0.0642004 138.17 0.0344085 137.478 0.328491C136.787 0.622574 136.189 1.10086 135.75 1.71126C135.549 1.62114 135.328 1.58436 135.109 1.60449C134.89 1.62462 134.68 1.70099 134.499 1.82619C134.14 2.08161 133.85 2.42307 133.657 2.8193C133.159 3.76551 132.927 4.82906 132.986 5.89674C133.044 6.96442 133.391 7.99628 133.989 8.88246C133.751 8.40108 134.421 9.23015 135.075 9.01294C135.636 8.86586 137.941 7.38777 138.516 7.4625C139.091 7.53723 139.278 7.07335 139.841 6.93268C140.392 6.7564 141.799 9.03486 142.081 10.5425C142.134 10.8282 142.264 11.1831 142.555 11.1897C142.912 11.1977 143.02 10.6851 143.321 10.4927C143.464 10.4203 143.629 10.406 143.781 10.4528C143.934 10.4995 144.062 10.6037 144.14 10.7434C144.21 10.8869 144.245 11.0452 144.242 11.2051C144.239 11.365 144.198 11.5219 144.122 11.6627C143.968 11.9426 143.77 12.1957 143.535 12.4123L143.691 12.4982C143.845 12.6084 144.033 12.6617 144.221 12.6489C144.41 12.6361 144.589 12.5579 144.727 12.4279C145.308 12.6903 146.891 11.21 146.681 10.3144C147.123 9.21654 147.364 8.04844 147.394 6.86541C147.419 5.67211 146.991 4.51363 146.198 3.62195Z" fill="#2F2E41"/>
<path d="M99.2466 24.1494C99.472 24.3613 99.7411 24.5212 100.035 24.6177C100.329 24.7143 100.64 24.7453 100.948 24.7085C101.255 24.6717 101.55 24.5679 101.813 24.4046C102.076 24.2413 102.299 24.0224 102.468 23.7632L115.49 26.8795L114.19 23.1943L101.735 20.7345C101.281 20.4795 100.749 20.3999 100.24 20.5109C99.7313 20.6219 99.2808 20.9157 98.974 21.3366C98.6673 21.7575 98.5256 22.2764 98.5758 22.7948C98.6261 23.3132 98.8647 23.7952 99.2466 24.1494Z" fill="#FFB8B8"/>
<path d="M138.151 21.8827L137.108 21.3386L132.35 21.2638L132.175 21.2621L132.166 21.2629L128.518 21.2071L110.901 20.9311L110.193 21.5496L109.104 20.9029L107.869 20.2772L106.736 20.8658L105.767 20.8507L105.62 21.5007L105.618 21.5031L105.614 21.5219L104.958 24.358L104.957 24.3604L104.965 25.0293L106.105 26.2575L106.709 26.7207L107.963 27.2754L108.832 26.2409L109.85 27.299L114.026 28.0677C121.007 29.9909 127.435 30.9165 132.368 29.1389L132.988 29.1099L137.885 28.8769C138.554 28.8458 139.199 28.6172 139.739 28.2198C140.279 27.8224 140.688 27.2741 140.917 26.6441L140.918 26.6418C141.073 26.2139 141.139 25.759 141.113 25.3047C141.091 24.8871 140.99 24.4775 140.816 24.0974C140.504 23.4058 139.97 22.8381 139.299 22.484L138.151 21.8827Z" fill="#3F3D56"/>
<path d="M210.785 121.898C211.02 121.907 211.253 121.843 211.45 121.715C211.648 121.587 211.802 121.402 211.891 121.184C211.979 120.966 211.999 120.725 211.947 120.496C211.894 120.266 211.773 120.058 211.598 119.9C211.568 119.785 211.547 119.703 211.517 119.588C211.736 119.014 212.122 118.519 212.625 118.166C213.128 117.812 213.725 117.618 214.34 117.606C214.954 117.594 215.558 117.766 216.074 118.1C216.59 118.434 216.995 118.914 217.236 119.48C218.627 122.652 220.42 125.933 219.577 129.45C225.247 117.132 223.134 101.897 214.483 91.4914C212.107 90.2118 210.169 87.9168 209.645 85.2355C210.818 85.6207 212.268 84.6554 211.376 83.4316C210.991 82.9642 210.601 82.5007 210.216 82.0334C214.614 77.2587 219.979 84.6459 215.149 91.0797C216.768 93.0705 218.175 95.2251 219.346 97.5084C219.057 95.0747 219.35 92.6074 220.202 90.3092C221.066 88.1668 222.707 86.3537 224.149 84.4949C225.903 82.2301 229.567 83.2323 229.833 86.0827C228.2 86.6368 228.01 89.0055 229.887 89.3116C229.446 94.6231 226.026 99.533 221.273 101.906C223.083 106.837 223.822 112.097 223.44 117.336C224.225 111.21 230.778 109.663 235.345 107.188C235.635 106.997 235.974 106.896 236.321 106.895C236.668 106.895 237.008 106.995 237.299 107.185C237.59 107.374 237.82 107.644 237.96 107.961C238.1 108.279 238.145 108.63 238.089 108.973C237.458 109.236 236.854 109.562 236.288 109.945C236.022 110.127 235.819 110.387 235.707 110.689C235.595 110.991 235.579 111.32 235.662 111.631C235.744 111.943 235.921 112.221 236.168 112.428C236.414 112.635 236.719 112.76 237.04 112.787C234.781 118.536 228.835 122.438 222.691 122.475C222.125 125.046 221.294 127.552 220.21 129.951L211.091 130.038C211.057 129.937 211.027 129.832 210.997 129.731C211.841 129.776 212.688 129.718 213.518 129.557C211.26 126.934 209.52 125.602 210.785 121.899L210.785 121.898Z" fill="#F2F2F2"/>
<path d="M27.4382 96.1198C27.2029 96.1284 26.9707 96.0644 26.7729 95.9366C26.5752 95.8087 26.4215 95.6232 26.3328 95.4051C26.244 95.187 26.2244 94.9469 26.2767 94.7173C26.3289 94.4877 26.4505 94.2797 26.6249 94.1215C26.655 94.0067 26.6766 93.9243 26.7066 93.8095C26.4869 93.2355 26.1009 92.7402 25.5979 92.3871C25.095 92.0339 24.498 91.8391 23.8836 91.8274C23.2691 91.8158 22.6652 91.9879 22.1492 92.3217C21.6332 92.6555 21.2287 93.1358 20.9875 93.7011C19.5962 96.8737 17.8034 100.155 18.6459 103.672C12.9766 91.3537 15.0896 76.1185 23.7405 65.7128C26.1165 64.4333 28.0543 62.1383 28.5786 59.457C27.4051 59.8422 25.9557 58.8768 26.8469 57.653C27.2326 57.1857 27.622 56.7221 28.0077 56.2548C23.6092 51.4801 18.2439 58.8673 23.0742 65.3011C21.4551 67.2919 20.0485 69.4465 18.8775 71.7298C19.1661 69.2962 18.8728 66.8288 18.0217 64.5307C17.1574 62.3882 15.5165 60.5751 14.0739 58.7163C12.32 56.4515 8.65619 57.4538 8.39015 60.3041C10.0234 60.8583 10.2137 63.227 8.33651 63.533C8.77685 68.8445 12.1974 73.7545 16.9503 76.1273C15.1398 81.0583 14.4011 86.3185 14.7834 91.5574C13.9988 85.4315 7.44574 83.8843 2.87874 81.409C2.58838 81.2189 2.24896 81.1173 1.90188 81.1168C1.55481 81.1163 1.21508 81.2168 0.924148 81.4061C0.633213 81.5953 0.403645 81.8651 0.26345 82.1826C0.123254 82.5001 0.0784941 82.8516 0.134623 83.1941C0.765702 83.4577 1.36903 83.7834 1.93573 84.1663C2.20124 84.3485 2.4039 84.6084 2.51593 84.9103C2.62795 85.2122 2.64386 85.5414 2.56148 85.8527C2.47909 86.164 2.30244 86.4422 2.05573 86.6492C1.80903 86.8561 1.50435 86.9817 1.18346 87.0088C3.44266 92.7571 9.38797 96.6594 15.532 96.6963C16.0979 99.2675 16.9296 101.773 18.0136 104.172L27.1322 104.259C27.1659 104.158 27.1963 104.054 27.2267 103.953C26.3821 103.998 25.5352 103.939 24.7049 103.778C26.9632 101.156 28.703 99.8234 27.4385 96.12L27.4382 96.1198Z" fill="#F2F2F2"/>
<path d="M25.2192 95.57C42.3518 92.7974 52.9332 121.083 63.9832 119.303C84.2346 116.041 75.8405 14.5539 91.6718 13.6908C105.167 12.9551 122.479 57.7393 136.776 84.6073C144.291 98.7299 148.376 108.775 148.376 108.775C148.376 108.775 142.123 139.119 133.231 127.142C120.529 110.032 110.979 50.1159 103.934 52.8504C93.147 57.0376 105.314 108.554 79.4097 124.445C56.7836 138.326 12.5881 118.604 12.5615 106.25C12.5514 101.505 19.0532 96.5678 25.2192 95.57Z" fill="#1FADE0"/>
<path d="M107.547 89.7832C104.056 90.5821 99.4709 93.0518 99.7197 95.3276C99.9863 97.767 105.811 100.027 110.482 98.589C114.315 97.409 117.802 93.6065 117.005 91.4139C116.183 89.1504 110.942 89.0063 107.547 89.7832Z" fill="#1FADE0"/>
<path d="M199.209 81.596C200.336 79.688 201.948 76.8597 200.766 74.8558C199.152 72.1194 194.147 68.4711 191.032 72.0298C188.665 74.7346 189.197 75.8161 189.229 80.0153C189.315 91.4786 182.825 115.96 189.608 127.61C190.878 129.79 197.896 129.358 200.676 129.629C203.758 129.93 207.102 126.933 206.912 123.466C206.741 120.36 203.823 119.455 200.907 117.413C190.419 110.066 193.374 91.4772 199.209 81.596Z" fill="#1FADE0"/>
<path d="M66.6609 15.9366C66.5901 16.7873 66.5213 17.638 66.4547 18.4887C66.4038 19.4851 66.2647 20.475 66.0391 21.4468C65.9875 21.7165 65.8714 21.9696 65.7007 22.1847C65.3978 22.5295 65.9585 24.5466 65.5428 24.74C65.1207 24.941 64.6674 25.0686 64.2023 25.117C64.183 24.9752 64.1572 24.8334 64.1282 24.6949C64.125 24.6788 64.1218 24.6659 64.1186 24.6498C63.9869 24.0208 63.7435 23.4206 63.4 22.8775C63.4809 23.521 63.4092 24.1745 63.1905 24.7851C63.1551 24.885 63.1132 24.9849 63.0681 25.0848C61.241 24.8141 59.6589 23.58 58.4118 23.5929C57.6543 21.0526 57.1206 18.4508 56.8168 15.8174C56.7362 15.115 56.6911 14.3352 57.1229 13.7777C57.5064 13.2815 58.1605 13.101 58.7727 12.9689C60.773 12.5367 62.817 12.341 64.8629 12.3857L61.3216 11.5607C62.3161 11.5046 63.3134 11.5991 64.2797 11.8411C65.2302 12.1279 66.1293 12.7562 66.4966 13.681C66.7769 14.3867 66.7189 15.1794 66.6609 15.9366Z" fill="#2F2E41"/>
<path d="M46.7162 123.05H43.3073L41.6855 109.902L46.7169 109.902L46.7162 123.05Z" fill="#FFB6B6"/>
<path d="M36.4272 128.08C36.4289 128.462 36.5811 128.828 36.8508 129.098C37.1206 129.368 37.4861 129.521 37.8679 129.524H44.2851L44.4839 129.112L45.3916 127.239L45.7431 129.112L45.8209 129.524H48.2413L48.2068 129.109L47.5613 121.369L46.717 121.317L43.0691 121.101L42.1729 121.046V123.357C41.4929 124.081 36.1563 126.815 36.4272 128.08Z" fill="#2F2E41"/>
<path d="M86.6526 119.34L83.6877 121.022L75.7886 110.386L80.1645 107.904L86.6526 119.34Z" fill="#FFB6B6"/>
<path d="M80.1858 128.792C80.3744 129.125 80.6873 129.369 81.0557 129.471C81.4242 129.573 81.8181 129.525 82.151 129.337L82.4881 129.146H82.491L87.7325 126.17L87.5653 123.637L89.0695 125.412L90.1789 124.781L91.173 124.216L90.2941 122.931L86.5568 117.459L85.7961 117.834L82.514 119.444L81.713 119.839L82.8512 121.848C82.6178 122.816 79.3271 127.824 80.1858 128.792Z" fill="#2F2E41"/>
<path d="M63.6332 58.5077C67.626 58.6512 67.0129 68.1108 68.2594 76.3386C69.3714 83.6792 72.6242 89.8784 71.5364 90.1418L82.3032 110.207C78.093 114.118 73.1527 116.711 66.9782 117.077C60.2776 110.92 58.4402 96.7507 56.9017 82.0892L55.2223 94.9647L57.4615 115.398L47.5556 117.793L40.704 117.304C34.8968 93.8797 45.8835 67.3889 50.6135 57.3241L63.6332 58.5077Z" fill="#2F2E41"/>
<path d="M67.8688 53.6135L69.6827 48.1721L70.9782 46.3583L71.4964 41.176C71.4964 27.1838 68.3754 29.5138 68.3754 29.5138L64.3043 24.5926L59.6727 24.4479L56.0127 24.3335L52.9697 29.3862C51.629 29.8595 50.4355 30.6753 49.5078 31.7528C48.5802 32.8303 47.9507 34.1318 47.682 35.528L46.8398 39.9038L49.9899 49.4677L49.851 48.757C48.3681 51.4945 48.7453 51.9062 49.9732 53.9616L50.0343 54.7038C50.091 55.3715 50.3557 56.0045 50.7911 56.5138C51.2265 57.0231 51.8107 57.383 52.4615 57.5428C65.581 60.8123 66.9443 66.5318 68.631 64.1706C69.0229 63.6218 67.3597 57.0732 67.9269 57.1299C69.481 57.2854 67.8688 53.6135 67.8688 53.6135Z" fill="#E6E6E6"/>
<path d="M76.8468 73.8654C76.5797 73.6195 76.3691 73.3185 76.2298 72.9833C76.0904 72.648 76.0255 72.2865 76.0396 71.9237C76.0537 71.561 76.1464 71.2056 76.3114 70.8821C76.4764 70.5587 76.7096 70.275 76.995 70.0506L73.7444 57.9866L76.8602 56.2671L80.6162 70.6239C80.9583 71.1323 81.1019 71.7486 81.0199 72.3559C80.9379 72.9632 80.6359 73.5194 80.1713 73.9189C79.7067 74.3185 79.1116 74.5337 78.4989 74.5239C77.8861 74.514 77.2983 74.2797 76.8468 73.8654H76.8468Z" fill="#FFB6B6"/>
<path d="M67.8962 29.1617C67.8962 29.1617 73.6813 30.9234 74.1902 33.9992C74.6992 37.0749 75.5884 39.7884 75.3585 41.0466C75.1287 42.3048 77.9985 50.7255 77.4392 51.6941C76.8798 52.6627 78.3843 52.8725 77.8649 54.4602C77.3454 56.048 77.0558 56.3775 77.3853 56.6671C77.7148 56.9567 79.1362 63.253 79.1362 63.253L74.802 64.5122L66.8193 44.7322L67.8962 29.1617Z" fill="#E6E6E6"/>
<path d="M45.1058 73.8654C45.3729 73.6195 45.5834 73.3185 45.7228 72.9833C45.8621 72.648 45.927 72.2865 45.9129 71.9237C45.8988 71.5609 45.8061 71.2055 45.6412 70.8821C45.4762 70.5587 45.243 70.275 44.9576 70.0506L48.2082 57.9866L45.0923 56.2671L41.3363 70.6239C40.9943 71.1323 40.8507 71.7486 40.9327 72.3559C41.0147 72.9632 41.3166 73.5194 41.7812 73.9189C42.2459 74.3185 42.841 74.5337 43.4537 74.5238C44.0664 74.514 44.6543 74.2797 45.1058 73.8654L45.1058 73.8654Z" fill="#FFB6B6"/>
<path d="M54.0567 29.1617C54.0567 29.1617 48.2716 30.9234 47.7626 33.9992C47.2537 37.0749 46.3645 39.7884 46.5943 41.0466C46.8241 42.3048 43.9544 50.7255 44.5137 51.6941C45.073 52.6627 43.5686 52.8725 44.088 54.4602C44.6074 56.048 44.8971 56.3775 44.5676 56.6671C44.2381 56.9567 42.8167 63.253 42.8167 63.253L47.1508 64.5122L55.1335 44.7322L54.0567 29.1617Z" fill="#E6E6E6"/>
<path d="M58.7935 23.6564C62.7763 23.6564 66.005 20.4277 66.005 16.4449C66.005 12.4621 62.7763 9.2334 58.7935 9.2334C54.8107 9.2334 51.582 12.4621 51.582 16.4449C51.582 20.4277 54.8107 23.6564 58.7935 23.6564Z" fill="#FFB6B6"/>
<path d="M66.1101 27.8826C63.3905 25.4642 68.0274 18.5567 64.4055 13.9468L63.9705 13.6212C63.6427 14.2451 63.1102 14.7373 62.4625 15.0151C62.3273 14.3865 62.1004 13.7813 61.789 13.2187C61.8672 13.9155 61.8047 14.6209 61.6053 15.2932C61.4023 15.3188 61.2573 15.2895 61.2058 15.1981C61.2702 15.7578 59.5592 16.0359 59.9168 15.1651C59.9194 15.1564 59.9227 15.1478 59.9265 15.1395C59.485 16.0285 58.5763 16.442 57.7869 16.9359C56.9974 17.4262 56.1951 18.2457 56.2724 19.2628C56.3368 20.086 56.9652 20.7007 57.5968 21.1104C58.2284 21.5238 58.9373 21.8458 59.3948 22.4861C60.1649 23.5617 59.9845 25.1386 59.5946 26.4484C59.5166 26.6576 59.3891 26.8447 59.223 26.9938C59.0569 27.1429 58.8571 27.2495 58.6408 27.3045C58.5122 26.5991 58.2695 25.9195 57.9222 25.2922C58.0034 26.0209 57.932 26.7585 57.7128 27.4582C57.2431 27.4788 56.7742 27.4038 56.3344 27.2378C55.8946 27.0717 55.4931 26.8181 55.1543 26.4923L55.6408 28.6509C54.8578 28.4863 54.0683 28.6728 53.2724 28.8155C53.2518 28.5713 53.2185 28.3282 53.1725 28.0875C53.0473 27.3636 52.8011 26.6661 52.4443 26.024C52.5439 26.9162 52.4141 27.8191 52.0673 28.6472C52.0286 28.7423 51.9867 28.8375 51.9416 28.9289C50.7171 28.8411 49.4959 28.1277 49.7279 26.2728C49.8299 25.6775 50.0779 25.1169 50.4497 24.641C51.0812 23.7556 47.8622 22.808 48.0587 21.7397C48.3519 20.1555 51.2875 18.7542 51.0555 17.1554C50.8492 15.7066 50.8897 12.4361 51.687 11.3089C52.839 9.68045 51.5611 6.31158 59.7493 8.22469C62.7954 8.93639 63.8513 5.94833 68.4431 15.073C69.2303 16.6374 66.3679 16.0996 68.0499 19.4531C69.732 22.8066 64.9146 25.4642 66.1101 27.8826Z" fill="#2F2E41"/>
<path d="M2.42383e-06 129.627C-0.000877268 129.443 0.237808 129.294 0.533152 129.293H239.464C239.76 129.293 240 129.442 240 129.627C240 129.811 239.76 129.961 239.464 129.961H0.536343C0.241002 129.961 0.000875671 129.813 2.42383e-06 129.629V129.627Z" fill="#CCCCCC"/>
<path d="M122.755 60.882C123.047 60.7806 123.314 60.6163 123.536 60.4007C123.758 60.1851 123.93 59.9235 124.039 59.6343C124.149 59.3451 124.194 59.0354 124.172 58.7268C124.149 58.4183 124.059 58.1186 123.907 57.8487L132.709 47.7581L128.841 47.2004L120.884 57.0932C120.448 57.3772 120.13 57.8116 119.993 58.3139C119.855 58.8162 119.906 59.3516 120.137 59.8186C120.367 60.2856 120.761 60.6518 121.244 60.8478C121.726 61.0438 122.264 61.0559 122.755 60.882V60.882Z" fill="#FFB8B8"/>
<path d="M126.607 55.2674L127.858 53.888L129.064 53.7842L129.146 53.6815L129.462 53.2792L129.582 52.1587L130.509 51.9413L132.574 49.3032L132.89 48.7782L141.56 38.6481L143.329 35.7027L143.607 35.1042L144.473 33.241L144.359 28.5422C144.548 28.1364 144.655 27.6969 144.673 27.2494C144.691 26.8019 144.62 26.3553 144.464 25.9355C144.414 25.7994 144.356 25.6667 144.289 25.5381L144.24 25.4467C144.114 25.2217 143.962 25.0118 143.788 24.8211L143.785 24.8167C143.478 24.4805 143.105 24.2114 142.689 24.0261C142.365 23.8782 142.02 23.7825 141.666 23.7426C140.85 23.6521 140.028 23.8588 139.351 24.3248L138.287 25.0604L137.321 25.7334L135.11 29.8032L134.965 30.0685L134.96 30.075L128.152 42.6003L126.1 46.3771L125.787 46.9507L125.758 48.6285L124.771 48.8153L123.606 49.6879L123.489 51.1737L122.94 53.5695L122.857 53.7045L123.367 54.0072L123.417 54.0354L123.51 54.1173L124.81 55.2331L125.598 55.9116L125.624 55.9327L125.829 56.1257L126.607 55.2674Z" fill="#3F3D56"/>
<path d="M51.8627 12.1666C51.8789 12.1727 51.8931 12.1788 51.9093 12.1849C51.9402 12.1986 51.972 12.2102 52.0044 12.2196C52.2114 12.2956 52.4271 12.3452 52.6464 12.3671C52.7399 12.3773 52.834 12.3822 52.928 12.382C53.0487 12.3825 53.1692 12.3746 53.2888 12.3586C53.4218 12.3423 53.5533 12.3156 53.6821 12.2786C53.7432 12.2622 53.8035 12.2427 53.8626 12.2203C54.2654 12.0772 54.6296 11.8426 54.9264 11.535C55.2232 11.2274 55.4447 10.8551 55.5733 10.4475V10.4454C55.587 10.4056 55.5986 10.365 55.6081 10.3239C55.6683 10.0959 55.6989 9.86097 55.699 9.62508V9.62101C55.7005 9.04577 55.5212 8.4846 55.1863 8.01686C54.9844 7.73062 54.7512 7.68278 54.882 7.35548C55.2994 6.31142 53.5918 5.45793 52.5837 5.91702C52.5473 5.91355 52.5108 5.91211 52.4743 5.91269C51.7954 5.91097 51.5437 6.91339 51.139 7.47773L51.1507 7.48154C51.2532 7.51742 51.3419 7.58443 51.4044 7.6732C51.4669 7.76197 51.5001 7.86805 51.4994 7.97663C51.4987 8.08521 51.464 8.19084 51.4003 8.27876C51.3366 8.36668 51.247 8.43249 51.1441 8.46699C50.8746 8.55477 50.6024 8.63232 50.3273 8.69962C49.4203 9.77091 50.4601 12.9051 51.8627 12.1666Z" fill="#2F2E41"/>
<path d="M55.107 7.74607C55.1439 8.70884 54.8971 9.66125 54.3973 10.4849C53.8974 11.3086 53.1664 11.9671 52.2953 12.3788C51.9415 12.5391 51.6335 12.0145 51.9898 11.8531C52.7682 11.4941 53.4222 10.9118 53.869 10.1803C54.3158 9.44875 54.5351 8.60094 54.4991 7.74453C54.4788 7.35356 55.0868 7.35628 55.107 7.74608V7.74607Z" fill="#1FADE0"/>
</g>
<defs>
<clipPath id="clip0_217_789">
<rect width="240" height="130.038" fill="white"/>
</clipPath>
</defs>
</svg>
