<svg width="240" height="122" viewBox="0 0 240 122" fill="none" xmlns="http://www.w3.org/2000/svg">
<g clip-path="url(#clip0_217_595)">
<path d="M230.061 116.987C223.075 122.019 214.022 122.272 205.272 121.654C204.05 121.568 202.837 121.467 201.635 121.357C201.627 121.355 201.618 121.356 201.61 121.354C201.553 121.349 201.495 121.343 201.439 121.34C201.191 121.317 200.943 121.294 200.697 121.27L200.755 121.381L200.938 121.725C200.872 121.61 200.807 121.497 200.741 121.382C200.722 121.347 200.7 121.313 200.681 121.279C198.414 117.334 196.166 113.244 195.592 108.74C195 104.064 196.666 98.7699 200.781 96.4719C201.32 96.1714 201.892 95.932 202.485 95.7583C202.731 95.6835 202.98 95.6228 203.232 95.5691C204.776 95.2264 206.382 95.301 207.887 95.7851C209.392 96.2692 210.741 97.1454 211.795 98.3236C212.849 99.5018 213.57 100.94 213.884 102.489C214.199 104.038 214.094 105.643 213.583 107.139C217.071 103.562 216.421 97.7582 215.217 92.908C214.011 88.0579 212.552 82.6609 215.004 78.3045C216.367 75.8797 218.765 74.3753 221.455 73.7692C221.538 73.7515 221.62 73.7337 221.703 73.7183C224.909 73.069 228.241 73.6529 231.035 75.3534C236.179 78.5952 238.822 84.7417 239.679 90.7628C241.061 100.452 238.003 111.265 230.061 116.987Z" fill="#F2F2F2"/>
<path d="M227.805 101.455C227.603 103.592 227.089 105.689 226.281 107.678C225.537 109.438 224.534 111.077 223.305 112.54C220.794 115.56 217.474 117.831 213.868 119.344C211.112 120.473 208.223 121.249 205.272 121.654C204.05 121.568 202.836 121.466 201.634 121.357C201.627 121.355 201.618 121.356 201.61 121.354C201.553 121.349 201.495 121.343 201.439 121.34C201.191 121.317 200.943 121.294 200.697 121.27L200.755 121.381L200.938 121.725C200.872 121.61 200.807 121.497 200.741 121.382C200.722 121.347 200.7 121.313 200.681 121.278C202.894 119.074 204.546 116.371 205.499 113.396C206.452 110.422 206.678 107.262 206.158 104.182C205.615 101.124 204.356 98.2375 202.484 95.7582C202.731 95.6834 202.98 95.6227 203.232 95.5691C203.943 96.5413 204.567 97.5746 205.096 98.6567C206.995 102.516 207.601 106.884 206.824 111.114C206.102 114.942 204.302 118.485 201.637 121.326C201.87 121.31 202.106 121.291 202.337 121.27C206.705 120.899 211.064 119.96 215.026 118.037C218.412 116.433 221.352 114.02 223.587 111.012C225.986 107.703 227.044 103.723 227.225 99.6771C227.418 95.346 226.856 90.9388 225.868 86.7268C224.858 82.4088 223.324 78.2305 221.3 74.2851C221.255 74.1956 221.246 74.0922 221.275 73.9961C221.303 73.9001 221.368 73.8188 221.455 73.7692C221.528 73.7202 221.617 73.7019 221.703 73.7182C221.745 73.7294 221.784 73.7499 221.817 73.7782C221.85 73.8065 221.877 73.842 221.894 73.8818C222.144 74.3692 222.389 74.857 222.625 75.3501C224.588 79.4579 226.034 83.7938 226.928 88.258C227.796 92.5646 228.26 97.0697 227.805 101.455Z" fill="white"/>
<path d="M136.593 119.211C140.161 121.781 144.786 121.91 149.256 121.595C149.88 121.55 150.5 121.499 151.114 121.443C151.117 121.442 151.122 121.442 151.126 121.441C151.155 121.439 151.185 121.436 151.213 121.434C151.34 121.422 151.467 121.41 151.592 121.399L151.563 121.455L151.47 121.631C151.503 121.572 151.536 121.514 151.57 121.456C151.58 121.438 151.591 121.42 151.601 121.403C152.759 119.388 153.907 117.299 154.2 114.998C154.503 112.609 153.652 109.905 151.55 108.731C151.274 108.578 150.982 108.455 150.679 108.367C150.554 108.328 150.426 108.297 150.297 108.27C149.509 108.095 148.688 108.133 147.92 108.38C147.151 108.628 146.462 109.075 145.923 109.677C145.385 110.279 145.017 111.013 144.856 111.805C144.696 112.596 144.749 113.416 145.01 114.18C143.228 112.353 143.561 109.388 144.175 106.911C144.791 104.433 145.537 101.676 144.284 99.4508C143.929 98.8539 143.452 98.3389 142.884 97.9396C142.316 97.5403 141.67 97.2658 140.989 97.1341C140.947 97.125 140.904 97.1159 140.862 97.108C139.225 96.7764 137.522 97.0746 136.095 97.9433C133.467 99.5993 132.118 102.739 131.68 105.815C130.974 110.764 132.536 116.288 136.593 119.211Z" fill="#F2F2F2"/>
<path d="M137.745 111.277C137.849 112.368 138.111 113.439 138.523 114.455C138.904 115.354 139.416 116.191 140.044 116.939C141.349 118.467 143.002 119.659 144.864 120.415C146.272 120.991 147.748 121.388 149.256 121.595C149.88 121.551 150.5 121.499 151.114 121.443C151.117 121.442 151.122 121.442 151.126 121.441C151.155 121.439 151.185 121.436 151.213 121.434C151.34 121.422 151.467 121.41 151.592 121.399L151.563 121.455L151.47 121.631C151.503 121.572 151.536 121.514 151.57 121.456C151.58 121.438 151.591 121.42 151.601 121.403C150.47 120.277 149.626 118.896 149.14 117.377C148.653 115.857 148.537 114.243 148.803 112.67C149.08 111.107 149.723 109.633 150.679 108.367C150.554 108.328 150.426 108.297 150.297 108.27C149.934 108.767 149.615 109.294 149.345 109.847C148.375 111.819 148.066 114.05 148.463 116.211C148.832 118.166 149.751 119.976 151.112 121.427C150.993 121.419 150.873 121.409 150.755 121.398C148.511 121.25 146.314 120.69 144.273 119.747C142.543 118.927 141.041 117.695 139.9 116.159C138.674 114.468 138.134 112.435 138.041 110.368C137.97 108.142 138.203 105.916 138.735 103.753C139.25 101.547 140.034 99.413 141.068 97.3976C141.091 97.3519 141.096 97.2991 141.081 97.25C141.066 97.201 141.033 97.1595 140.989 97.1341C140.952 97.1091 140.906 97.0997 140.862 97.1081C140.841 97.1138 140.821 97.1242 140.804 97.1387C140.787 97.1532 140.774 97.1713 140.765 97.1917C140.637 97.4406 140.512 97.6898 140.391 97.9417C139.388 100.04 138.65 102.255 138.193 104.535C137.707 106.747 137.556 109.02 137.745 111.277Z" fill="white"/>
<path d="M41.4468 3.3418H4.29631C3.15735 3.34341 2.06551 3.79657 1.26014 4.60194C0.454773 5.4073 0.00161122 6.49915 0 7.63811V66.0174C0.00161188 67.1564 0.454773 68.2482 1.26014 69.0536C2.06551 69.859 3.15736 70.3121 4.29631 70.3137H41.4468C42.5857 70.3121 43.6776 69.859 44.483 69.0536C45.2883 68.2482 45.7415 67.1564 45.7431 66.0174V7.63811C45.7415 6.49915 45.2883 5.40731 44.483 4.60194C43.6776 3.79657 42.5857 3.34341 41.4468 3.3418ZM45.2376 66.0174C45.2364 67.0225 44.8366 67.986 44.126 68.6966C43.4153 69.4073 42.4518 69.8071 41.4468 69.8083H4.29631C3.29129 69.8071 2.32778 69.4073 1.61712 68.6966C0.906458 67.986 0.506671 67.0225 0.505449 66.0174V7.63811C0.506671 6.63309 0.906458 5.66957 1.61712 4.95891C2.32778 4.24825 3.29129 3.84847 4.29631 3.84725H41.4468C42.4518 3.84847 43.4153 4.24825 44.126 4.95891C44.8366 5.66957 45.2364 6.63309 45.2376 7.63811V66.0174Z" fill="#3F3D56"/>
<path d="M121.055 70.3137H83.9045C82.7654 70.3125 81.6734 69.8594 80.8679 69.054C80.0625 68.2485 79.6094 67.1565 79.6082 66.0174V7.63811C79.6094 6.49905 80.0625 5.40701 80.8679 4.60157C81.6734 3.79614 82.7654 3.34308 83.9045 3.3418H121.055C122.194 3.34308 123.286 3.79614 124.092 4.60157C124.897 5.40701 125.35 6.49905 125.351 7.63811V66.0174C125.35 67.1565 124.897 68.2485 124.092 69.054C123.286 69.8594 122.194 70.3125 121.055 70.3137ZM83.9045 3.84725C82.8994 3.84838 81.9359 4.24814 81.2252 4.95882C80.5145 5.6695 80.1147 6.63306 80.1136 7.63811V66.0174C80.1147 67.0225 80.5145 67.986 81.2252 68.6967C81.9359 69.4074 82.8994 69.8072 83.9045 69.8083H121.055C122.06 69.8072 123.024 69.4074 123.734 68.6967C124.445 67.986 124.845 67.0225 124.846 66.0174V7.63811C124.845 6.63306 124.445 5.6695 123.734 4.95882C123.024 4.24814 122.06 3.84838 121.055 3.84725H83.9045Z" fill="#3F3D56"/>
<path d="M67.7302 37.2069H52.314C52.247 37.2069 52.1827 37.1802 52.1353 37.1328C52.0879 37.0854 52.0613 37.0212 52.0613 36.9541C52.0613 36.8871 52.0879 36.8228 52.1353 36.7754C52.1827 36.728 52.247 36.7014 52.314 36.7014H67.7302C67.7972 36.7014 67.8615 36.728 67.9089 36.7754C67.9563 36.8228 67.9829 36.8871 67.9829 36.9541C67.9829 37.0212 67.9563 37.0854 67.9089 37.1328C67.8615 37.1802 67.7972 37.2069 67.7302 37.2069Z" fill="#3F3D56"/>
<path d="M64.4448 44.1379C64.3919 44.138 64.3403 44.1214 64.2973 44.0906C64.2543 44.0598 64.2221 44.0162 64.2052 43.9661C64.1883 43.916 64.1875 43.8619 64.203 43.8113C64.2184 43.7607 64.2494 43.7163 64.2914 43.6842L72.334 37.5571C72.4269 37.4864 72.5021 37.3952 72.5539 37.2906C72.6058 37.1859 72.6327 37.0708 72.6327 36.9541C72.6327 36.8373 72.6058 36.7222 72.5539 36.6176C72.5021 36.513 72.4269 36.4218 72.334 36.351L64.2915 30.2239C64.2382 30.1833 64.2033 30.1232 64.1944 30.0568C64.1855 29.9904 64.2032 29.9232 64.2438 29.87C64.2844 29.8167 64.3445 29.7817 64.4108 29.7727C64.4772 29.7637 64.5444 29.7814 64.5977 29.8219L72.6403 35.949C72.7951 36.0669 72.9205 36.2189 73.0069 36.3932C73.0932 36.5676 73.1382 36.7595 73.1382 36.9541C73.1382 37.1486 73.0932 37.3405 73.0069 37.5149C72.9205 37.6892 72.7951 37.8413 72.6403 37.9592L64.5977 44.0862C64.5538 44.1198 64.5001 44.138 64.4448 44.1379Z" fill="#3F3D56"/>
<path d="M147.086 37.2069H131.669C131.602 37.2069 131.538 37.1802 131.491 37.1328C131.443 37.0854 131.417 37.0212 131.417 36.9541C131.417 36.8871 131.443 36.8228 131.491 36.7754C131.538 36.728 131.602 36.7014 131.669 36.7014H147.086C147.153 36.7014 147.217 36.728 147.264 36.7754C147.312 36.8228 147.338 36.8871 147.338 36.9541C147.338 37.0212 147.312 37.0854 147.264 37.1328C147.217 37.1802 147.153 37.2069 147.086 37.2069Z" fill="#3F3D56"/>
<path d="M143.8 44.1379C143.747 44.138 143.696 44.1214 143.653 44.0906C143.61 44.0598 143.578 44.0162 143.561 43.9661C143.544 43.916 143.543 43.8619 143.558 43.8113C143.574 43.7607 143.605 43.7163 143.647 43.6842L151.689 37.5571C151.782 37.4864 151.858 37.3952 151.909 37.2906C151.961 37.1859 151.988 37.0708 151.988 36.9541C151.988 36.8373 151.961 36.7222 151.909 36.6176C151.858 36.513 151.782 36.4218 151.689 36.351L143.647 30.2239C143.594 30.1833 143.559 30.1232 143.55 30.0568C143.541 29.9904 143.559 29.9232 143.599 29.87C143.64 29.8167 143.7 29.7817 143.766 29.7727C143.833 29.7637 143.9 29.7814 143.953 29.8219L151.996 35.949C152.151 36.0669 152.276 36.2189 152.362 36.3932C152.449 36.5676 152.494 36.7595 152.494 36.9541C152.494 37.1486 152.449 37.3405 152.362 37.5149C152.276 37.6892 152.151 37.8413 151.996 37.9592L143.953 44.0862C143.909 44.1198 143.856 44.138 143.8 44.1379Z" fill="#3F3D56"/>
<path d="M107.029 26.9715H98.1833C97.6138 26.9708 97.0678 26.7443 96.665 26.3416C96.2623 25.9389 96.0358 25.3928 96.0352 24.8233V16.2307C96.0358 15.6611 96.2623 15.1151 96.665 14.7124C97.0678 14.3097 97.6138 14.0832 98.1833 14.0825H107.029C107.598 14.0832 108.144 14.3097 108.547 14.7124C108.95 15.1151 109.176 15.6611 109.177 16.2307V24.8233C109.176 25.3928 108.95 25.9389 108.547 26.3416C108.144 26.7443 107.598 26.9708 107.029 26.9715Z" fill="#1FADE0"/>
<path d="M108.672 26.8452C108.638 26.8452 108.605 26.8387 108.575 26.826C108.544 26.8133 108.516 26.7946 108.493 26.7711L96.3621 14.6404C96.3386 14.6169 96.32 14.589 96.3073 14.5584C96.2946 14.5277 96.2881 14.4949 96.2881 14.4617C96.2881 14.4285 96.2946 14.3956 96.3073 14.365C96.32 14.3343 96.3386 14.3065 96.3621 14.283C96.3856 14.2595 96.4134 14.2409 96.4441 14.2282C96.4747 14.2155 96.5076 14.209 96.5408 14.209C96.574 14.209 96.6068 14.2155 96.6375 14.2282C96.6681 14.2409 96.696 14.2595 96.7195 14.283L108.85 26.4138C108.886 26.4491 108.91 26.4941 108.919 26.5432C108.929 26.5922 108.924 26.643 108.905 26.6891C108.886 26.7353 108.853 26.7748 108.812 26.8026C108.77 26.8303 108.722 26.8452 108.672 26.8452L108.672 26.8452Z" fill="white"/>
<path d="M96.5408 26.8452C96.4908 26.8452 96.4419 26.8303 96.4004 26.8026C96.3588 26.7748 96.3264 26.7353 96.3073 26.6891C96.2882 26.643 96.2832 26.5922 96.2929 26.5432C96.3027 26.4941 96.3267 26.4491 96.3621 26.4138L108.493 14.283C108.516 14.2595 108.544 14.2409 108.575 14.2282C108.605 14.2155 108.638 14.209 108.672 14.209C108.705 14.209 108.738 14.2155 108.768 14.2282C108.799 14.2409 108.827 14.2595 108.85 14.283C108.874 14.3065 108.892 14.3343 108.905 14.365C108.918 14.3956 108.924 14.4285 108.924 14.4617C108.924 14.4949 108.918 14.5277 108.905 14.5584C108.892 14.589 108.874 14.6169 108.85 14.6404L96.7195 26.7711C96.696 26.7946 96.6682 26.8133 96.6375 26.826C96.6068 26.8387 96.5739 26.8452 96.5408 26.8452Z" fill="white"/>
<path d="M110.693 40.2395H94.2662C93.4284 40.2395 92.6249 39.9067 92.0325 39.3142C91.44 38.7218 91.1072 37.9183 91.1072 37.0804C91.1072 36.2426 91.44 35.4391 92.0325 34.8467C92.6249 34.2542 93.4284 33.9214 94.2662 33.9214H110.693C111.531 33.9214 112.335 34.2542 112.927 34.8467C113.52 35.4391 113.852 36.2426 113.852 37.0804C113.852 37.9183 113.52 38.7218 112.927 39.3142C112.335 39.9067 111.531 40.2395 110.693 40.2395ZM94.2662 34.4268C93.5625 34.4268 92.8875 34.7064 92.3898 35.2041C91.8922 35.7017 91.6126 36.3767 91.6126 37.0804C91.6126 37.7842 91.8922 38.4592 92.3898 38.9568C92.8875 39.4545 93.5625 39.734 94.2662 39.734H110.693C111.397 39.734 112.072 39.4545 112.57 38.9568C113.067 38.4592 113.347 37.7842 113.347 37.0804C113.347 36.3767 113.067 35.7017 112.57 35.2041C112.072 34.7064 111.397 34.4268 110.693 34.4268H94.2662Z" fill="#3F3D56"/>
<path d="M110.693 49.843H94.2662C93.4284 49.843 92.6249 49.5102 92.0325 48.9177C91.44 48.3253 91.1072 47.5218 91.1072 46.684C91.1072 45.8461 91.44 45.0426 92.0325 44.4502C92.6249 43.8577 93.4284 43.5249 94.2662 43.5249H110.693C111.531 43.5249 112.335 43.8577 112.927 44.4502C113.52 45.0426 113.852 45.8461 113.852 46.684C113.852 47.5218 113.52 48.3253 112.927 48.9177C112.335 49.5102 111.531 49.843 110.693 49.843ZM94.2662 44.0304C93.5625 44.0304 92.8875 44.3099 92.3898 44.8076C91.8922 45.3052 91.6126 45.9802 91.6126 46.684C91.6126 47.3877 91.8922 48.0627 92.3898 48.5603C92.8875 49.058 93.5625 49.3376 94.2662 49.3376H110.693C111.397 49.3376 112.072 49.058 112.57 48.5603C113.067 48.0627 113.347 47.3877 113.347 46.684C113.347 45.9802 113.067 45.3052 112.57 44.8076C112.072 44.3099 111.397 44.0304 110.693 44.0304H94.2662Z" fill="#3F3D56"/>
<path d="M110.693 59.4465H94.2662C93.4284 59.4465 92.6249 59.1137 92.0325 58.5213C91.44 57.9288 91.1072 57.1253 91.1072 56.2875C91.1072 55.4496 91.44 54.6461 92.0325 54.0537C92.6249 53.4612 93.4284 53.1284 94.2662 53.1284H110.693C111.531 53.1284 112.335 53.4612 112.927 54.0537C113.52 54.6461 113.852 55.4496 113.852 56.2875C113.852 57.1253 113.52 57.9288 112.927 58.5213C112.335 59.1137 111.531 59.4465 110.693 59.4465ZM94.2662 53.6339C93.5625 53.6339 92.8875 53.9134 92.3898 54.4111C91.8922 54.9087 91.6126 55.5837 91.6126 56.2875C91.6126 56.9913 91.8922 57.6662 92.3898 58.1639C92.8875 58.6615 93.5625 58.9411 94.2662 58.9411H110.693C111.397 58.9411 112.072 58.6615 112.57 58.1639C113.067 57.6662 113.347 56.9913 113.347 56.2875C113.347 55.5837 113.067 54.9087 112.57 54.4111C112.072 53.9134 111.397 53.6339 110.693 53.6339H94.2662Z" fill="#3F3D56"/>
<path d="M197.335 0.0583033L160.686 6.14082C159.563 6.32888 158.56 6.9547 157.897 7.88106C157.234 8.80742 156.966 9.95873 157.151 11.0826L166.709 68.6741C166.897 69.7974 167.523 70.8004 168.45 71.463C169.376 72.1256 170.527 72.3939 171.651 72.209L208.3 66.1265C209.424 65.9385 210.427 65.3126 211.089 64.3863C211.752 63.4599 212.02 62.3086 211.835 61.1848L202.277 3.59322C202.089 2.4699 201.463 1.46698 200.537 0.804341C199.61 0.141702 198.459 -0.126584 197.335 0.0583033ZM211.337 61.2675C211.5 62.2592 211.263 63.2752 210.679 64.0926C210.094 64.91 209.209 65.4621 208.217 65.6279L171.568 71.7104C170.577 71.8738 169.561 71.6371 168.743 71.0524C167.926 70.4677 167.374 69.5826 167.208 68.5914L157.65 10.9998C157.486 10.0082 157.723 8.9922 158.308 8.17477C158.892 7.35735 159.777 6.8052 160.769 6.63945L197.418 0.556934C198.41 0.393591 199.426 0.630231 200.243 1.21495C201.06 1.79967 201.613 2.68472 201.778 3.67598L211.337 61.2675Z" fill="#3F3D56"/>
<path d="M190.879 23.6737L174.674 26.3633C173.847 26.5005 173 26.3037 172.319 25.8162C171.637 25.3288 171.177 24.5906 171.04 23.7641C170.903 22.9376 171.1 22.0904 171.587 21.4089C172.075 20.7275 172.813 20.2676 173.639 20.1304L189.845 17.4409C190.671 17.3043 191.518 17.5014 192.199 17.9888C192.88 18.4763 193.339 19.2142 193.476 20.0404C193.614 20.8666 193.417 21.7134 192.93 22.3948C192.443 23.0761 191.705 23.5361 190.879 23.6737ZM173.722 20.6291C173.028 20.7444 172.408 21.1308 171.999 21.7032C171.589 22.2755 171.424 22.987 171.539 23.6812C171.655 24.3754 172.041 24.9954 172.613 25.4049C173.185 25.8143 173.897 25.9797 174.591 25.8647L190.796 23.1751C191.491 23.0597 192.11 22.6734 192.52 22.101C192.929 21.5286 193.094 20.8171 192.979 20.1229C192.864 19.4288 192.478 18.8088 191.905 18.3993C191.333 17.9899 190.622 17.8245 189.927 17.9395L173.722 20.6291Z" fill="#CCCCCC"/>
<path d="M192.783 35.1422L176.577 37.8317C176.168 37.8999 175.749 37.8868 175.345 37.7931C174.94 37.6994 174.558 37.5269 174.221 37.2856C173.883 37.0442 173.596 36.7387 173.377 36.3865C173.157 36.0343 173.01 35.6423 172.942 35.2329C172.874 34.8234 172.887 34.4046 172.981 34.0004C173.075 33.5962 173.248 33.2144 173.489 32.8769C173.731 32.5395 174.036 32.2529 174.389 32.0336C174.741 31.8143 175.133 31.6666 175.543 31.5989L191.748 28.9093C192.575 28.7722 193.422 28.9689 194.103 29.4564C194.785 29.9438 195.245 30.682 195.382 31.5086C195.519 32.3351 195.322 33.1823 194.835 33.8637C194.347 34.5451 193.609 35.005 192.783 35.1422ZM175.625 32.0975C174.931 32.213 174.312 32.5994 173.902 33.1718C173.493 33.7441 173.328 34.4555 173.443 35.1496C173.558 35.8437 173.945 36.4636 174.517 36.873C175.089 37.2825 175.8 37.448 176.494 37.3331L192.7 34.6436C193.394 34.5281 194.014 34.1417 194.423 33.5693C194.832 32.997 194.997 32.2856 194.882 31.5915C194.767 30.8974 194.381 30.2775 193.808 29.868C193.236 29.4586 192.525 29.2931 191.831 29.408L175.625 32.0975Z" fill="#CCCCCC"/>
<path d="M194.686 46.6106L178.48 49.3002C178.071 49.3684 177.652 49.3552 177.248 49.2615C176.844 49.1678 176.462 48.9953 176.124 48.754C175.787 48.5126 175.5 48.2071 175.28 47.8549C175.061 47.5027 174.913 47.1107 174.845 46.7013C174.777 46.2919 174.79 45.8731 174.884 45.4688C174.978 45.0646 175.151 44.6828 175.392 44.3454C175.634 44.0079 175.94 43.7213 176.292 43.502C176.644 43.2827 177.037 43.135 177.446 43.0673L193.651 40.3778C194.478 40.2412 195.324 40.4382 196.005 40.9257C196.686 41.4132 197.146 42.1511 197.283 42.9773C197.42 43.8035 197.224 44.6503 196.737 45.3316C196.25 46.013 195.512 46.473 194.686 46.6106ZM177.529 43.5659C177.185 43.6229 176.856 43.7471 176.56 43.9313C176.264 44.1156 176.007 44.3563 175.804 44.6397C175.602 44.9232 175.457 45.2438 175.378 45.5833C175.299 45.9228 175.288 46.2745 175.345 46.6183C175.402 46.9621 175.526 47.2914 175.71 47.5872C175.895 47.883 176.135 48.1396 176.419 48.3423C176.702 48.545 177.023 48.6899 177.363 48.7687C177.702 48.8475 178.054 48.8587 178.398 48.8015L194.603 46.112C194.947 46.0551 195.276 45.931 195.572 45.7467C195.868 45.5625 196.125 45.3218 196.328 45.0383C196.531 44.7549 196.676 44.4342 196.755 44.0947C196.833 43.7552 196.845 43.4034 196.788 43.0595C196.731 42.7157 196.606 42.3864 196.422 42.0906C196.238 41.7947 195.997 41.5381 195.713 41.3354C195.43 41.1326 195.109 40.9878 194.769 40.909C194.43 40.8303 194.078 40.8192 193.734 40.8764L177.529 43.5659Z" fill="#CCCCCC"/>
<path d="M196.589 58.0791L180.384 60.7687C179.975 60.8366 179.556 60.8232 179.152 60.7294C178.748 60.6355 178.366 60.463 178.029 60.2216C177.691 59.9803 177.405 59.6748 177.185 59.3227C176.966 58.9706 176.818 58.5787 176.75 58.1695C176.682 57.7602 176.696 57.3416 176.789 56.9375C176.883 56.5334 177.056 56.1518 177.297 55.8143C177.539 55.4769 177.844 55.1903 178.196 54.971C178.548 54.7516 178.94 54.6037 179.349 54.5358L195.555 51.8463C196.381 51.7097 197.228 51.9067 197.909 52.3942C198.59 52.8817 199.049 53.6196 199.187 54.4458C199.324 55.272 199.127 56.1188 198.64 56.8002C198.153 57.4815 197.415 57.9415 196.589 58.0791ZM179.432 55.0345C179.088 55.0915 178.759 55.2157 178.463 55.4C178.168 55.5842 177.911 55.825 177.708 56.1084C177.299 56.6808 177.134 57.3924 177.249 58.0867C177.364 58.781 177.75 59.4011 178.323 59.8105C178.895 60.22 179.607 60.3853 180.301 60.27L196.506 57.5805C197.201 57.4651 197.821 57.0788 198.23 56.5064C198.639 55.934 198.804 55.2225 198.689 54.5283C198.574 53.8342 198.188 53.2142 197.616 52.8047C197.043 52.3953 196.332 52.2299 195.638 52.3449L179.432 55.0345Z" fill="#CCCCCC"/>
<path d="M202.582 6.97386L157.955 14.3805C157.922 14.386 157.888 14.385 157.856 14.3776C157.823 14.3702 157.793 14.3564 157.766 14.3371C157.739 14.3178 157.716 14.2933 157.698 14.2651C157.68 14.2369 157.668 14.2055 157.663 14.1727C157.658 14.1398 157.659 14.1063 157.666 14.0739C157.674 14.0415 157.688 14.0109 157.707 13.9839C157.726 13.9569 157.751 13.934 157.779 13.9164C157.807 13.8989 157.839 13.8872 157.872 13.8818L202.499 6.47524C202.532 6.46968 202.565 6.47064 202.598 6.47808C202.63 6.48553 202.661 6.4993 202.688 6.5186C202.715 6.53791 202.738 6.56237 202.756 6.59058C202.773 6.6188 202.785 6.65021 202.791 6.68303C202.796 6.71584 202.795 6.7494 202.787 6.7818C202.78 6.81419 202.766 6.84477 202.747 6.87179C202.727 6.89881 202.703 6.92174 202.674 6.93925C202.646 6.95677 202.615 6.96853 202.582 6.97386Z" fill="#3F3D56"/>
<path d="M162.803 11.4013C163.78 11.4013 164.572 10.6093 164.572 9.63223C164.572 8.6552 163.78 7.86316 162.803 7.86316C161.825 7.86316 161.033 8.6552 161.033 9.63223C161.033 10.6093 161.825 11.4013 162.803 11.4013Z" fill="#1FADE0"/>
<path d="M198.039 2.75935L193.053 3.5869C192.987 3.59763 192.92 3.58175 192.865 3.54275C192.811 3.50374 192.774 3.4448 192.763 3.37883C192.752 3.31285 192.768 3.24523 192.807 3.19077C192.846 3.13631 192.905 3.09946 192.971 3.08828L197.957 2.26073C198.023 2.24999 198.09 2.26586 198.145 2.30486C198.199 2.34386 198.236 2.40281 198.247 2.46879C198.258 2.53478 198.242 2.60241 198.203 2.65688C198.164 2.71134 198.105 2.74819 198.039 2.75935Z" fill="#3F3D56"/>
<path d="M198.288 4.25531L193.302 5.08286C193.236 5.09359 193.168 5.07771 193.114 5.03871C193.059 4.99971 193.023 4.94076 193.012 4.87478C193.001 4.80881 193.016 4.74119 193.055 4.68673C193.094 4.63227 193.153 4.59541 193.219 4.58424L198.205 3.75669C198.271 3.74597 198.339 3.76184 198.393 3.80085C198.447 3.83985 198.484 3.89879 198.495 3.96476C198.506 4.03074 198.49 4.09836 198.451 4.15282C198.413 4.20728 198.354 4.24413 198.288 4.25531V4.25531Z" fill="#3F3D56"/>
<path d="M198.536 5.7512L193.55 6.57876C193.517 6.58431 193.483 6.58333 193.451 6.57588C193.419 6.56844 193.388 6.55467 193.361 6.53536C193.334 6.51606 193.311 6.4916 193.293 6.46338C193.276 6.43517 193.264 6.40376 193.258 6.37095C193.253 6.33815 193.254 6.30459 193.261 6.2722C193.269 6.23981 193.283 6.20923 193.302 6.18222C193.322 6.1552 193.346 6.13227 193.374 6.11475C193.403 6.09724 193.434 6.08547 193.467 6.08013L198.453 5.25258C198.486 5.24702 198.52 5.24799 198.552 5.25543C198.585 5.26287 198.615 5.27664 198.642 5.29594C198.669 5.31525 198.692 5.33971 198.71 5.36793C198.728 5.39614 198.739 5.42756 198.745 5.46037C198.75 5.49318 198.749 5.52675 198.742 5.55914C198.734 5.59153 198.72 5.62211 198.701 5.64913C198.681 5.67615 198.657 5.69908 198.629 5.71659C198.6 5.73411 198.569 5.74587 198.536 5.7512Z" fill="#3F3D56"/>
<path d="M32.3488 41.3768H13.3945C12.825 41.3761 12.2789 41.1496 11.8762 40.7469C11.4735 40.3442 11.247 39.7982 11.2463 39.2286V20.0216C11.247 19.452 11.4735 18.906 11.8762 18.5033C12.2789 18.1006 12.825 17.874 13.3945 17.8734H32.3488C32.9184 17.874 33.4644 18.1006 33.8671 18.5033C34.2698 18.906 34.4963 19.452 34.497 20.0216V39.2286C34.4963 39.7982 34.2698 40.3442 33.8671 40.7469C33.4644 41.1496 32.9184 41.3761 32.3488 41.3768Z" fill="#1FADE0"/>
<path d="M30.9587 55.6558H14.5316C13.6938 55.6558 12.8903 55.3229 12.2978 54.7305C11.7054 54.138 11.3726 53.3345 11.3726 52.4967C11.3726 51.6589 11.7054 50.8553 12.2978 50.2629C12.8903 49.6705 13.6938 49.3376 14.5316 49.3376H30.9587C31.7965 49.3376 32.6 49.6705 33.1925 50.2629C33.7849 50.8553 34.1177 51.6589 34.1177 52.4967C34.1177 53.3345 33.7849 54.138 33.1925 54.7305C32.6 55.3229 31.7965 55.6558 30.9587 55.6558ZM14.5316 49.8431C13.8278 49.8431 13.1529 50.1227 12.6552 50.6203C12.1576 51.118 11.878 51.7929 11.878 52.4967C11.878 53.2005 12.1576 53.8754 12.6552 54.3731C13.1529 54.8707 13.8278 55.1503 14.5316 55.1503H30.9587C31.6625 55.1503 32.3374 54.8707 32.8351 54.3731C33.3327 53.8754 33.6123 53.2005 33.6123 52.4967C33.6123 51.7929 33.3327 51.118 32.8351 50.6203C32.3374 50.1227 31.6625 49.8431 30.9587 49.8431H14.5316Z" fill="#3F3D56"/>
<path d="M33.9914 40.9977C33.9582 40.9977 33.9253 40.9912 33.8947 40.9785C33.864 40.9658 33.8361 40.9471 33.8127 40.9236L11.5729 18.6839C11.5492 18.6605 11.5304 18.6326 11.5175 18.6019C11.5046 18.5712 11.4979 18.5382 11.4978 18.5049C11.4977 18.4715 11.5042 18.4385 11.5169 18.4077C11.5296 18.3769 11.5483 18.3489 11.5718 18.3254C11.5954 18.3018 11.6234 18.2831 11.6542 18.2704C11.685 18.2577 11.718 18.2512 11.7514 18.2513C11.7847 18.2515 11.8176 18.2582 11.8484 18.2711C11.8791 18.284 11.907 18.3028 11.9304 18.3265L34.1701 40.5663C34.2055 40.6016 34.2295 40.6466 34.2393 40.6957C34.249 40.7447 34.244 40.7955 34.2249 40.8417C34.2057 40.8878 34.1734 40.9273 34.1318 40.9551C34.0902 40.9828 34.0414 40.9977 33.9914 40.9977V40.9977Z" fill="white"/>
<path d="M11.7517 40.9977C11.7018 40.9977 11.6529 40.9828 11.6113 40.9551C11.5698 40.9273 11.5374 40.8878 11.5183 40.8417C11.4991 40.7955 11.4941 40.7447 11.5039 40.6957C11.5136 40.6466 11.5377 40.6016 11.573 40.5663L33.8128 18.3265C33.8362 18.3028 33.864 18.284 33.8948 18.2711C33.9255 18.2582 33.9585 18.2515 33.9918 18.2513C34.0251 18.2512 34.0581 18.2577 34.0889 18.2704C34.1197 18.2831 34.1477 18.3018 34.1713 18.3254C34.1949 18.3489 34.2135 18.3769 34.2262 18.4077C34.239 18.4385 34.2454 18.4715 34.2453 18.5048C34.2452 18.5382 34.2385 18.5711 34.2256 18.6019C34.2127 18.6326 34.1939 18.6605 34.1702 18.6839L11.9305 40.9236C11.907 40.9471 11.8792 40.9658 11.8485 40.9785C11.8178 40.9912 11.7849 40.9977 11.7517 40.9977Z" fill="white"/>
<path d="M206.995 66.8235C207.112 66.4442 207.144 66.0439 207.09 65.6508C207.035 65.2576 206.895 64.8812 206.68 64.548C206.464 64.2148 206.178 63.9329 205.842 63.7222C205.505 63.5115 205.127 63.3771 204.733 63.3285L191.76 48.1693L188.734 51.3463L201.656 65.8814C201.618 66.5485 201.827 67.2064 202.241 67.7302C202.656 68.2541 203.249 68.6076 203.907 68.7237C204.565 68.8399 205.243 68.7106 205.812 68.3604C206.381 68.0101 206.802 67.4633 206.995 66.8235V66.8235Z" fill="#A0616A"/>
<path d="M195.518 51.363L190.881 54.7521C190.749 54.8485 190.597 54.9154 190.437 54.9481C190.277 54.9809 190.112 54.9787 189.953 54.9418C189.793 54.9049 189.644 54.8341 189.515 54.7343C189.385 54.6344 189.279 54.5079 189.203 54.3632L186.538 49.2947C186.048 48.6168 185.848 47.7725 185.98 46.9468C186.112 46.1211 186.566 45.3815 187.242 44.8901C187.919 44.3987 188.763 44.1956 189.589 44.3254C190.415 44.4552 191.156 44.9072 191.649 45.5824L195.657 49.6465C195.771 49.7629 195.86 49.9026 195.916 50.0562C195.971 50.2098 195.994 50.3736 195.98 50.5365C195.967 50.6994 195.919 50.8576 195.839 51.0002C195.759 51.1428 195.65 51.2665 195.518 51.3629V51.363Z" fill="#1FADE0"/>
<path d="M186.569 41.235C189.998 41.235 192.777 38.456 192.777 35.0278C192.777 31.5997 189.998 28.8207 186.569 28.8207C183.141 28.8207 180.362 31.5997 180.362 35.0278C180.362 38.456 183.141 41.235 186.569 41.235Z" fill="#A0616A"/>
<path d="M189.266 63.0318C189.201 63.0318 189.137 63.0264 189.073 63.0157L178.182 61.1825C177.92 61.1388 177.681 61.0043 177.508 60.8026C177.335 60.6009 177.238 60.3447 177.234 60.0788C177.201 57.5871 177.387 51.2971 179.828 46.7157C180.592 45.2837 181.849 44.1778 183.367 43.6035C184.885 43.0293 186.56 43.0259 188.08 43.594C189.6 44.1621 190.862 45.263 191.631 46.692C192.4 48.1209 192.624 49.7805 192.261 51.3623C191.444 54.8814 190.82 58.4425 190.391 62.0298C190.358 62.3053 190.225 62.5594 190.018 62.744C189.811 62.9286 189.543 63.0309 189.266 63.0318L189.266 63.0318Z" fill="#2F2E41"/>
<path d="M166.431 42.5937C166.462 42.7301 166.482 42.8687 166.492 43.0082L177.348 49.2712L179.987 47.7521L182.8 51.4349L178.39 54.5782C178.034 54.8321 177.605 54.9636 177.167 54.953C176.73 54.9423 176.308 54.79 175.964 54.5191L164.769 45.6874C164.264 45.8744 163.714 45.9032 163.192 45.7699C162.67 45.6366 162.201 45.3475 161.847 44.9412C161.494 44.5348 161.272 44.0304 161.212 43.495C161.152 42.9596 161.256 42.4187 161.511 41.9441C161.766 41.4695 162.16 41.0838 162.639 40.8383C163.119 40.5927 163.662 40.4989 164.196 40.5695C164.73 40.64 165.23 40.8714 165.629 41.233C166.028 41.5946 166.308 42.0692 166.431 42.5937V42.5937Z" fill="#A0616A"/>
<path d="M177.497 48.6451C177.53 48.485 177.597 48.3338 177.693 48.2018C177.79 48.0699 177.913 47.9603 178.056 47.8806L183.038 45.0949C183.7 44.5841 184.537 44.3566 185.367 44.4622C186.196 44.5679 186.95 44.9981 187.462 45.6586C187.975 46.3191 188.205 47.1559 188.102 47.9856C187.998 48.8152 187.57 49.5701 186.911 50.0847L182.939 54.2095C182.826 54.3272 182.688 54.4191 182.536 54.4789C182.384 54.5387 182.221 54.565 182.058 54.5561C181.895 54.5472 181.735 54.5032 181.591 54.4271C181.446 54.351 181.32 54.2447 181.22 54.1153L177.711 49.5678C177.611 49.4384 177.54 49.289 177.503 49.1298C177.466 48.9705 177.464 48.8052 177.497 48.6451Z" fill="#1FADE0"/>
<path d="M172.241 118.702H169.143L168.413 106.79L172.241 106.751L172.241 118.702Z" fill="#A0616A"/>
<path d="M173.031 121.705L163.041 121.705V121.579C163.041 121.068 163.141 120.562 163.337 120.09C163.532 119.619 163.819 119.19 164.18 118.829C164.541 118.468 164.969 118.181 165.441 117.986C165.913 117.791 166.419 117.69 166.929 117.69H166.93L173.031 117.69L173.031 121.705Z" fill="#2F2E41"/>
<path d="M201.81 118.702H198.711L197.237 106.751H201.81L201.81 118.702Z" fill="#A0616A"/>
<path d="M202.6 121.705L192.609 121.705V121.579C192.609 121.068 192.71 120.562 192.905 120.09C193.101 119.619 193.387 119.19 193.748 118.829C194.109 118.468 194.538 118.181 195.01 117.986C195.482 117.791 195.987 117.69 196.498 117.69H196.498L202.6 117.69L202.6 121.705Z" fill="#2F2E41"/>
<path d="M198.287 112.505C198.051 112.504 197.821 112.431 197.629 112.294C197.437 112.158 197.291 111.965 197.212 111.743L187.339 83.5321C187.301 83.424 187.234 83.3283 187.146 83.2551C187.058 83.1819 186.952 83.1339 186.839 83.1164C186.726 83.099 186.61 83.1126 186.504 83.1558C186.398 83.199 186.305 83.2702 186.237 83.3618L176.605 96.2036C176.53 96.3039 176.477 96.4189 176.45 96.541L173.381 110.234C173.326 110.477 173.192 110.695 173.001 110.856C172.81 111.016 172.572 111.109 172.323 111.121L168.647 111.288C168.488 111.296 168.33 111.27 168.182 111.213C168.034 111.155 167.9 111.067 167.789 110.954C167.677 110.841 167.59 110.707 167.533 110.559C167.477 110.41 167.451 110.252 167.459 110.094L168.1 97.5961C168.303 93.553 169.344 89.5964 171.159 85.9779C175.194 77.9325 177.528 69.1422 178.017 60.1551L178.025 60.0151L189.335 61.8146L191.032 64.1654C191.79 65.2259 192.611 66.24 193.49 67.202C195.652 69.5464 196.301 72.6817 196.465 74.899C196.677 77.6241 197.063 80.3328 197.62 83.0086L203.229 110.571C203.271 110.728 203.279 110.891 203.253 111.051C203.226 111.211 203.166 111.363 203.076 111.498C202.986 111.633 202.868 111.747 202.731 111.832C202.593 111.918 202.439 111.973 202.278 111.994L198.433 112.495C198.385 112.501 198.336 112.505 198.287 112.505Z" fill="#2F2E41"/>
<path d="M193.433 30.7196C192.94 29.2249 192.576 27.6907 192.345 26.1338C192.272 25.2274 192.505 24.2521 193.165 23.6268C194.4 22.4564 196.499 23.0138 197.791 24.1215C199.658 25.7223 200.589 28.1824 200.941 30.6165C201.293 33.0506 201.138 35.5258 201.223 37.9837C201.307 40.4416 201.659 42.9689 202.912 45.0851C204.165 47.2013 206.49 48.8257 208.943 48.6456C209.933 48.5921 210.873 48.1937 211.6 47.5195C211.957 47.18 212.227 46.7599 212.388 46.2944C212.549 45.829 212.596 45.3316 212.526 44.8442C213.779 47.089 213.144 50.1314 211.274 51.8961C209.404 53.6608 206.528 54.1597 204.069 53.4063C201.611 52.6528 199.588 50.7636 198.379 48.4942C197.171 46.2247 196.728 43.6031 196.792 41.0328C196.841 39.059 197.177 37.069 196.843 35.123C196.51 33.1769 195.292 31.201 193.371 30.7427L193.433 30.7196Z" fill="#2F2E41"/>
<path d="M184.808 33.2781C184.481 34.372 183.228 35.0464 182.102 34.8615C180.975 34.6765 180.049 33.7486 179.706 32.6593C179.397 31.5468 179.523 30.3581 180.06 29.3359C180.356 28.7231 180.77 28.1748 181.278 27.7222C181.787 27.2696 182.379 26.9216 183.022 26.6982C183.668 26.484 184.357 26.4283 185.029 26.5357C185.701 26.6432 186.338 26.9107 186.886 27.3156C186.944 27.0699 187.067 26.8442 187.241 26.6616C187.416 26.4791 187.636 26.3464 187.879 26.2771C188.368 26.1453 188.884 26.153 189.369 26.2991C190.766 26.6974 191.977 27.5783 192.786 28.7853C193.585 29.9885 194.113 31.3506 194.335 32.7778C194.716 34.918 194.576 37.2567 193.374 39.068C192.172 40.8794 189.713 41.949 187.718 41.0854C187.593 40.4494 187.888 39.8091 188.229 39.258C188.57 38.7069 188.974 38.1701 189.105 37.5355C189.236 36.9008 188.985 36.1245 188.371 35.917C187.847 35.7399 187.289 36.0268 186.737 36.0614C186.424 36.0811 186.111 36.018 185.829 35.8786C185.548 35.7391 185.308 35.5281 185.134 35.2668C184.96 35.0054 184.858 34.7029 184.838 34.3896C184.818 34.0763 184.881 33.7632 185.02 33.4818L184.808 33.2781Z" fill="#2F2E41"/>
<path d="M230.438 121.869H134.15C134.083 121.869 134.019 121.843 133.971 121.795C133.924 121.748 133.897 121.684 133.897 121.617C133.897 121.55 133.924 121.485 133.971 121.438C134.019 121.391 134.083 121.364 134.15 121.364H230.438C230.505 121.364 230.569 121.391 230.616 121.438C230.664 121.485 230.69 121.55 230.69 121.617C230.69 121.684 230.664 121.748 230.616 121.795C230.569 121.843 230.505 121.869 230.438 121.869Z" fill="#CCCCCC"/>
</g>
<defs>
<clipPath id="clip0_217_595">
<rect width="240" height="121.895" fill="white"/>
</clipPath>
</defs>
</svg>
