<svg width="240" height="228" viewBox="0 0 240 228" fill="none" xmlns="http://www.w3.org/2000/svg">
<g clip-path="url(#clip0_217_678)">
<path d="M145.901 54.046H144.652V19.8131C144.652 14.5583 142.564 9.5188 138.848 5.80313C135.133 2.08745 130.093 6.63047e-06 124.839 0H52.3114C49.7095 -6.56604e-06 47.1331 0.512467 44.7293 1.50816C42.3254 2.50386 40.1413 3.96327 38.3014 5.80308C36.4616 7.64289 35.0022 9.82707 34.0065 12.2309C33.0108 14.6347 32.4983 17.2111 32.4983 19.813V207.618C32.4983 210.219 33.0108 212.796 34.0065 215.2C35.0022 217.604 36.4616 219.788 38.3014 221.627C40.1412 223.467 42.3254 224.927 44.7292 225.922C47.1331 226.918 49.7095 227.431 52.3114 227.431H124.838C130.093 227.431 135.133 225.343 138.848 221.628C142.564 217.912 144.652 212.872 144.652 207.618V78.4136H145.901L145.901 54.046Z" fill="#E6E6E6"/>
<path d="M125.638 5.15466H116.171C116.606 6.22205 116.772 7.38013 116.655 8.52687C116.537 9.67362 116.139 10.7738 115.496 11.7306C114.853 12.6874 113.985 13.4714 112.967 14.0134C111.95 14.5555 110.815 14.8391 109.662 14.8392H68.1124C66.9596 14.8391 65.8246 14.5555 64.8072 14.0135C63.7899 13.4714 62.9214 12.6874 62.2784 11.7306C61.6354 10.7738 61.2376 9.67362 61.12 8.52688C61.0024 7.38013 61.1685 6.22205 61.6039 5.15466H52.7615C48.8373 5.15466 45.0739 6.71354 42.299 9.48836C39.5242 12.2632 37.9653 16.0266 37.9653 19.9508V207.48C37.9653 209.423 38.348 211.347 39.0916 213.142C39.8352 214.937 40.9251 216.568 42.299 217.942C43.673 219.316 45.3041 220.406 47.0993 221.15C48.8944 221.893 50.8185 222.276 52.7615 222.276H125.638C127.581 222.276 129.505 221.893 131.3 221.15C133.095 220.406 134.726 219.316 136.1 217.942C137.474 216.568 138.564 214.937 139.308 213.142C140.051 211.347 140.434 209.423 140.434 207.48V19.9508C140.434 18.0078 140.051 16.0837 139.308 14.2886C138.564 12.4934 137.474 10.8623 136.1 9.48835C134.726 8.1144 133.095 7.02453 131.3 6.28095C129.505 5.53738 127.581 5.15466 125.638 5.15467V5.15466Z" fill="white"/>
<path d="M239.688 227.768H0.3125C0.22962 227.768 0.150134 227.735 0.0915289 227.677C0.0329238 227.618 0 227.538 0 227.456C0 227.373 0.0329238 227.293 0.0915289 227.235C0.150134 227.176 0.22962 227.143 0.3125 227.143H239.688C239.77 227.143 239.85 227.176 239.908 227.235C239.967 227.293 240 227.373 240 227.456C240 227.538 239.967 227.618 239.908 227.677C239.85 227.735 239.77 227.768 239.688 227.768Z" fill="#3F3D56"/>
<path d="M133.381 57.0324H44.9832C44.5492 57.0318 44.1331 56.8592 43.8262 56.5523C43.5193 56.2454 43.3467 55.8294 43.3462 55.3954V33.4676C43.3467 33.0336 43.5193 32.6175 43.8262 32.3106C44.1331 32.0037 44.5492 31.8311 44.9832 31.8306H133.381C133.815 31.8311 134.231 32.0037 134.538 32.3106C134.845 32.6175 135.018 33.0336 135.018 33.4676V55.3954C135.018 55.8294 134.845 56.2455 134.538 56.5523C134.231 56.8592 133.815 57.0319 133.381 57.0324ZM44.9832 32.4854C44.7228 32.4856 44.4731 32.5892 44.289 32.7733C44.1048 32.9575 44.0013 33.2072 44.001 33.4676V55.3954C44.0013 55.6558 44.1048 55.9055 44.289 56.0896C44.4731 56.2737 44.7228 56.3773 44.9832 56.3776H133.381C133.642 56.3773 133.891 56.2737 134.076 56.0896C134.26 55.9055 134.363 55.6558 134.364 55.3954V33.4676C134.363 33.2072 134.26 32.9575 134.076 32.7733C133.891 32.5892 133.642 32.4856 133.381 32.4854H44.9832Z" fill="#3F3D56"/>
<path d="M133.381 143.793H44.9832C44.5492 143.793 44.1331 143.62 43.8262 143.313C43.5193 143.006 43.3467 142.59 43.3462 142.156V101.567C43.3467 101.133 43.5193 100.717 43.8262 100.41C44.1331 100.103 44.5492 99.9303 44.9832 99.9298H133.381C133.815 99.9303 134.231 100.103 134.538 100.41C134.845 100.717 135.018 101.133 135.018 101.567V142.156C135.018 142.59 134.845 143.006 134.538 143.313C134.231 143.62 133.815 143.793 133.381 143.793ZM44.9832 100.585C44.7228 100.585 44.4731 100.688 44.289 100.873C44.1048 101.057 44.0013 101.306 44.001 101.567V142.156C44.0013 142.417 44.1048 142.666 44.289 142.851C44.4731 143.035 44.7228 143.138 44.9832 143.139H133.381C133.642 143.138 133.891 143.035 134.076 142.851C134.26 142.666 134.363 142.417 134.364 142.156V101.567C134.363 101.306 134.26 101.057 134.076 100.873C133.891 100.688 133.642 100.585 133.381 100.585L44.9832 100.585Z" fill="#3F3D56"/>
<path d="M132.727 91.082H93.4384C93.0044 91.0815 92.5883 90.9089 92.2814 90.602C91.9745 90.2951 91.8019 89.879 91.8014 89.445V67.5172C91.8019 67.0832 91.9745 66.6672 92.2814 66.3603C92.5883 66.0534 93.0044 65.8808 93.4384 65.8802H132.727C133.161 65.8808 133.577 66.0534 133.883 66.3603C134.19 66.6672 134.363 67.0832 134.364 67.5172V89.4451C134.363 89.879 134.19 90.2951 133.883 90.602C133.577 90.9089 133.161 91.0815 132.727 91.082ZM93.4384 66.535C93.178 66.5353 92.9283 66.6389 92.7442 66.823C92.56 67.0072 92.4565 67.2568 92.4562 67.5172V89.445C92.4565 89.7054 92.56 89.9551 92.7442 90.1392C92.9283 90.3234 93.178 90.427 93.4384 90.4272H132.727C132.987 90.427 133.237 90.3234 133.421 90.1392C133.605 89.9551 133.708 89.7054 133.709 89.445V67.5172C133.708 67.2568 133.605 67.0072 133.421 66.823C133.237 66.6389 132.987 66.5353 132.727 66.535L93.4384 66.535Z" fill="#E6E6E6"/>
<path d="M84.2713 196.832H44.9832C44.5492 196.832 44.1331 196.659 43.8262 196.352C43.5193 196.045 43.3467 195.629 43.3462 195.195V154.278C43.3467 153.844 43.5193 153.428 43.8262 153.121C44.1331 152.814 44.5492 152.642 44.9832 152.641H84.2713C84.7053 152.642 85.1214 152.814 85.4283 153.121C85.7352 153.428 85.9078 153.844 85.9083 154.278V195.195C85.9078 195.629 85.7352 196.045 85.4283 196.352C85.1214 196.659 84.7053 196.832 84.2713 196.832ZM44.9832 153.296C44.7228 153.296 44.4731 153.4 44.289 153.584C44.1048 153.768 44.0013 154.018 44.001 154.278V195.195C44.0013 195.455 44.1048 195.705 44.289 195.889C44.4731 196.073 44.7228 196.177 44.9832 196.177H84.2713C84.5317 196.177 84.7814 196.073 84.9655 195.889C85.1497 195.705 85.2533 195.455 85.2535 195.195V154.278C85.2533 154.018 85.1497 153.768 84.9655 153.584C84.7814 153.4 84.5317 153.296 84.2713 153.296H44.9832Z" fill="#E6E6E6"/>
<path d="M132.727 196.832H93.4384C93.0044 196.832 92.5883 196.659 92.2814 196.352C91.9745 196.045 91.8019 195.629 91.8014 195.195V154.278C91.8019 153.844 91.9745 153.428 92.2814 153.121C92.5883 152.814 93.0044 152.642 93.4384 152.641H132.727C133.161 152.642 133.577 152.814 133.883 153.121C134.19 153.428 134.363 153.844 134.364 154.278V195.195C134.363 195.629 134.19 196.045 133.883 196.352C133.577 196.659 133.161 196.832 132.727 196.832ZM93.4384 153.296C93.178 153.296 92.9283 153.4 92.7442 153.584C92.56 153.768 92.4565 154.018 92.4562 154.278V195.195C92.4565 195.455 92.56 195.705 92.7442 195.889C92.9283 196.073 93.178 196.177 93.4384 196.177H132.727C132.987 196.177 133.237 196.073 133.421 195.889C133.605 195.705 133.708 195.455 133.709 195.195V154.278C133.708 154.018 133.605 153.768 133.421 153.584C133.237 153.4 132.987 153.296 132.727 153.296H93.4384Z" fill="#E6E6E6"/>
<path d="M58.0637 120.977C61.7464 120.977 64.7319 117.991 64.7319 114.309C64.7319 110.626 61.7464 107.64 58.0637 107.64C54.3809 107.64 51.3954 110.626 51.3954 114.309C51.3954 117.991 54.3809 120.977 58.0637 120.977Z" fill="#1FADE0"/>
<path d="M73.4642 109.863C73.1694 109.863 72.8867 109.98 72.6783 110.189C72.4699 110.397 72.3528 110.68 72.3528 110.974C72.3528 111.269 72.4699 111.552 72.6783 111.76C72.8867 111.969 73.1694 112.086 73.4642 112.086H125.858C126.152 112.085 126.434 111.968 126.642 111.759C126.85 111.551 126.966 111.269 126.966 110.974C126.966 110.68 126.85 110.398 126.642 110.189C126.434 109.981 126.152 109.864 125.858 109.863H73.4642Z" fill="#1FADE0"/>
<path d="M73.4642 116.531C73.3182 116.531 73.1737 116.559 73.0387 116.615C72.9037 116.671 72.7811 116.752 72.6776 116.855C72.5742 116.958 72.4921 117.08 72.436 117.215C72.3798 117.35 72.3508 117.494 72.3505 117.64C72.3502 117.786 72.3786 117.931 72.4342 118.066C72.4897 118.201 72.5713 118.323 72.6743 118.427C72.7773 118.53 72.8997 118.612 73.0344 118.669C73.1691 118.725 73.3136 118.754 73.4595 118.754H96.0093C96.1554 118.754 96.3001 118.726 96.4352 118.67C96.5702 118.614 96.693 118.532 96.7964 118.429C96.8998 118.326 96.9818 118.203 97.0378 118.068C97.0937 117.933 97.1225 117.789 97.1225 117.643C97.1225 117.497 97.0937 117.352 97.0378 117.217C96.9818 117.082 96.8998 116.959 96.7964 116.856C96.693 116.753 96.5702 116.671 96.4352 116.615C96.3001 116.56 96.1554 116.531 96.0093 116.531H73.4642Z" fill="#1FADE0"/>
<path d="M52.9489 127.192C52.1035 127.192 51.4155 127.691 51.4155 128.303C51.4155 128.916 52.1035 129.415 52.9489 129.415H125.236C126.081 129.415 126.769 128.916 126.769 128.303C126.769 127.691 126.081 127.192 125.236 127.192H52.9489Z" fill="#CCCCCC"/>
<path d="M52.9489 133.86C52.1035 133.86 51.4155 134.359 51.4155 134.971C51.4155 135.584 52.1035 136.083 52.9489 136.083H125.236C126.081 136.083 126.769 135.584 126.769 134.971C126.769 134.359 126.081 133.86 125.236 133.86H52.9489Z" fill="#CCCCCC"/>
<path d="M58.7184 50.2584C62.4012 50.2584 65.3867 47.2729 65.3867 43.5901C65.3867 39.9074 62.4012 36.9219 58.7184 36.9219C55.0357 36.9219 52.0502 39.9074 52.0502 43.5901C52.0502 47.2729 55.0357 50.2584 58.7184 50.2584Z" fill="#1FADE0"/>
<path d="M74.119 39.1447C73.8247 39.1454 73.5427 39.2627 73.3348 39.4711C73.127 39.6794 73.0103 39.9617 73.0103 40.256C73.0103 40.5503 73.127 40.8326 73.3348 41.041C73.5427 41.2493 73.8247 41.3667 74.119 41.3674H126.513C126.659 41.3679 126.803 41.3396 126.938 41.2841C127.074 41.2286 127.196 41.147 127.3 41.044C127.403 40.941 127.486 40.8186 127.542 40.6838C127.598 40.549 127.627 40.4044 127.627 40.2584C127.628 40.1123 127.599 39.9677 127.544 39.8326C127.488 39.6976 127.406 39.5748 127.303 39.4714C127.2 39.368 127.078 39.2859 126.943 39.2298C126.808 39.1737 126.663 39.1448 126.517 39.1447C126.516 39.1447 126.514 39.1447 126.513 39.1447H74.119Z" fill="#1FADE0"/>
<path d="M74.119 45.8129C73.8247 45.8136 73.5427 45.931 73.3348 46.1393C73.127 46.3477 73.0103 46.6299 73.0103 46.9242C73.0103 47.2185 73.127 47.5008 73.3348 47.7092C73.5427 47.9175 73.8247 48.0349 74.119 48.0356H96.6641C96.8102 48.0361 96.9549 48.0078 97.09 47.9523C97.2251 47.8968 97.3479 47.8152 97.4514 47.7122C97.555 47.6092 97.6372 47.4868 97.6934 47.352C97.7496 47.2172 97.7787 47.0726 97.779 46.9266C97.7793 46.7805 97.7509 46.6359 97.6952 46.5008C97.6396 46.3658 97.5579 46.2431 97.4548 46.1396C97.3516 46.0362 97.2292 45.9541 97.0943 45.898C96.9594 45.8419 96.8148 45.813 96.6688 45.8129C96.6672 45.8129 96.6657 45.8129 96.6641 45.8129H74.119Z" fill="#1FADE0"/>
<path d="M84.2365 91.086H47.3809L56.0542 76.063C56.2097 75.7938 56.4333 75.5702 56.7025 75.4147C56.9718 75.2592 57.2772 75.1774 57.5881 75.1774C57.899 75.1774 58.2045 75.2592 58.4737 75.4147C58.743 75.5702 58.9665 75.7938 59.122 76.063L62.8271 82.4806L69.1272 71.5686C69.3218 71.2315 69.6017 70.9516 69.9388 70.7569C70.276 70.5623 70.6584 70.4598 71.0476 70.4598C71.4369 70.4598 71.8193 70.5623 72.1564 70.7569C72.4935 70.9516 72.7734 71.2315 72.9681 71.5686L84.2365 91.086ZM48.5149 90.4312H83.1025L72.4009 71.896C72.2638 71.6585 72.0665 71.4612 71.829 71.324C71.5914 71.1868 71.322 71.1146 71.0477 71.1146C70.7734 71.1146 70.5039 71.1868 70.2663 71.324C70.0288 71.4612 69.8315 71.6585 69.6944 71.896L62.8272 83.7902L58.5548 76.3904C58.4569 76.2207 58.316 76.0798 58.1463 75.9818C57.9766 75.8838 57.7841 75.8322 57.5881 75.8322C57.3922 75.8322 57.1997 75.8838 57.03 75.9818C56.8603 76.0798 56.7194 76.2207 56.6214 76.3904L48.5149 90.4312Z" fill="#E6E6E6"/>
<path d="M131.382 91.086H94.5265L103.2 76.063C103.355 75.7937 103.579 75.5701 103.848 75.4147C104.117 75.2592 104.423 75.1774 104.734 75.1774C105.045 75.1774 105.35 75.2592 105.619 75.4147C105.889 75.5701 106.112 75.7937 106.268 76.063L109.973 82.4806L116.273 71.5686C116.467 71.2315 116.747 70.9516 117.084 70.7569C117.422 70.5623 117.804 70.4598 118.193 70.4598C118.583 70.4598 118.965 70.5623 119.302 70.7569C119.639 70.9516 119.919 71.2315 120.114 71.5686L131.382 91.086ZM95.6606 90.4312H130.248L119.546 71.896C119.409 71.6584 119.212 71.4612 118.975 71.324C118.737 71.1868 118.468 71.1146 118.193 71.1146C117.919 71.1146 117.649 71.1868 117.412 71.324C117.174 71.4612 116.977 71.6584 116.84 71.896L109.973 83.7902L105.7 76.3904C105.602 76.2207 105.462 76.0797 105.292 75.9818C105.122 75.8838 104.93 75.8322 104.734 75.8322C104.538 75.8322 104.345 75.8838 104.176 75.9818C104.006 76.0797 103.865 76.2207 103.767 76.3904L95.6606 90.4312Z" fill="#E6E6E6"/>
<path d="M84.2713 91.082H44.9832C44.5492 91.0815 44.1331 90.9089 43.8262 90.602C43.5193 90.2951 43.3467 89.879 43.3462 89.445V67.5172C43.3467 67.0832 43.5193 66.6672 43.8262 66.3603C44.1331 66.0534 44.5492 65.8808 44.9832 65.8802H84.2713C84.7053 65.8808 85.1214 66.0534 85.4283 66.3603C85.7352 66.6672 85.9078 67.0832 85.9083 67.5172V89.4451C85.9078 89.8791 85.7352 90.2951 85.4283 90.602C85.1214 90.9089 84.7053 91.0815 84.2713 91.082ZM44.9832 66.535C44.7228 66.5353 44.4731 66.6389 44.289 66.823C44.1048 67.0072 44.0013 67.2568 44.001 67.5172V89.445C44.0013 89.7054 44.1048 89.9551 44.289 90.1392C44.4731 90.3234 44.7228 90.427 44.9832 90.4272H84.2713C84.5317 90.427 84.7814 90.3234 84.9655 90.1392C85.1497 89.9551 85.2532 89.7054 85.2535 89.445V67.5172C85.2532 67.2568 85.1497 67.0072 84.9655 66.823C84.7814 66.6389 84.5317 66.5353 84.2713 66.535L44.9832 66.535Z" fill="#E6E6E6"/>
<path d="M53.3547 161.079C53.2086 161.079 53.0639 161.107 52.9288 161.163C52.7938 161.219 52.671 161.301 52.5676 161.404C52.4642 161.507 52.3822 161.63 52.3262 161.765C52.2703 161.9 52.2415 162.044 52.2415 162.19C52.2415 162.336 52.2703 162.481 52.3262 162.616C52.3822 162.751 52.4642 162.874 52.5676 162.977C52.671 163.08 52.7938 163.162 52.9288 163.218C53.0639 163.273 53.2086 163.302 53.3547 163.302H75.8998C76.1946 163.302 76.4772 163.185 76.6857 162.976C76.8941 162.768 77.0112 162.485 77.0112 162.19C77.0112 161.896 76.8941 161.613 76.6857 161.404C76.4772 161.196 76.1946 161.079 75.8998 161.079H53.3547Z" fill="#E6E6E6"/>
<path d="M53.3547 167.627C53.2086 167.627 53.0639 167.655 52.9288 167.711C52.7938 167.767 52.671 167.849 52.5676 167.952C52.4642 168.055 52.3822 168.178 52.3262 168.313C52.2703 168.448 52.2415 168.592 52.2415 168.738C52.2415 168.884 52.2703 169.029 52.3262 169.164C52.3822 169.299 52.4642 169.422 52.5676 169.525C52.671 169.628 52.7938 169.71 52.9288 169.766C53.0639 169.821 53.2086 169.85 53.3547 169.85H75.8998C76.1942 169.849 76.4764 169.732 76.6845 169.524C76.8925 169.315 77.0093 169.033 77.0093 168.738C77.0093 168.444 76.8925 168.162 76.6845 167.953C76.4764 167.745 76.1942 167.627 75.8998 167.627H53.3547Z" fill="#E6E6E6"/>
<path d="M64.6273 188.394C63.2437 188.394 61.8912 187.984 60.7408 187.215C59.5904 186.447 58.6937 185.354 58.1642 184.076C57.6347 182.798 57.4962 181.391 57.7661 180.034C58.0361 178.677 58.7023 177.43 59.6807 176.452C60.6591 175.474 61.9056 174.807 63.2626 174.537C64.6196 174.268 66.0262 174.406 67.3045 174.936C68.5827 175.465 69.6753 176.362 70.444 177.512C71.2127 178.663 71.623 180.015 71.623 181.399C71.6209 183.253 70.8832 185.032 69.5717 186.343C68.2602 187.655 66.4821 188.392 64.6273 188.394ZM64.6273 175.058C63.3733 175.058 62.1473 175.43 61.1046 176.127C60.0618 176.823 59.2491 177.814 58.7692 178.972C58.2893 180.131 58.1637 181.406 58.4084 182.636C58.653 183.866 59.2569 184.996 60.1437 185.882C61.0305 186.769 62.1603 187.373 63.3903 187.618C64.6203 187.862 65.8952 187.737 67.0539 187.257C68.2125 186.777 69.2028 185.964 69.8995 184.922C70.5963 183.879 70.9682 182.653 70.9682 181.399C70.9662 179.718 70.2975 178.106 69.1088 176.917C67.9201 175.729 66.3084 175.06 64.6273 175.058V175.058Z" fill="#E6E6E6"/>
<path d="M124.355 188.394C124.501 188.395 124.646 188.366 124.781 188.31C124.916 188.254 125.039 188.173 125.142 188.069C125.245 187.966 125.327 187.844 125.383 187.709C125.439 187.574 125.468 187.429 125.468 187.283C125.468 187.137 125.439 186.992 125.383 186.857C125.327 186.722 125.245 186.6 125.142 186.496C125.039 186.393 124.916 186.311 124.781 186.256C124.646 186.2 124.501 186.171 124.355 186.172H101.81C101.515 186.172 101.232 186.289 101.024 186.497C100.816 186.705 100.698 186.988 100.698 187.283C100.698 187.578 100.816 187.86 101.024 188.069C101.232 188.277 101.515 188.394 101.81 188.394H124.355Z" fill="#E6E6E6"/>
<path d="M124.355 181.846C124.501 181.847 124.646 181.818 124.781 181.762C124.916 181.706 125.039 181.625 125.142 181.521C125.245 181.418 125.327 181.296 125.383 181.161C125.439 181.026 125.468 180.881 125.468 180.735C125.468 180.589 125.439 180.444 125.383 180.309C125.327 180.174 125.245 180.052 125.142 179.948C125.039 179.845 124.916 179.763 124.781 179.708C124.646 179.652 124.501 179.623 124.355 179.624H101.81C101.515 179.624 101.232 179.741 101.024 179.949C100.816 180.157 100.698 180.44 100.698 180.735C100.698 181.03 100.816 181.312 101.024 181.521C101.232 181.729 101.515 181.846 101.81 181.846H124.355Z" fill="#E6E6E6"/>
<path d="M113.082 161.079C114.466 161.079 115.819 161.489 116.969 162.258C118.119 163.027 119.016 164.119 119.545 165.397C120.075 166.676 120.214 168.082 119.944 169.439C119.674 170.796 119.007 172.043 118.029 173.021C117.051 174 115.804 174.666 114.447 174.936C113.09 175.206 111.684 175.067 110.405 174.538C109.127 174.008 108.034 173.112 107.266 171.961C106.497 170.811 106.087 169.458 106.087 168.075V168.075C106.089 166.22 106.827 164.442 108.138 163.13C109.45 161.819 111.228 161.081 113.082 161.079ZM113.082 174.415C114.336 174.415 115.562 174.044 116.605 173.347C117.648 172.65 118.461 171.66 118.941 170.501C119.42 169.343 119.546 168.068 119.301 166.838C119.057 165.608 118.453 164.478 117.566 163.591C116.679 162.704 115.549 162.1 114.319 161.856C113.089 161.611 111.815 161.737 110.656 162.216C109.497 162.696 108.507 163.509 107.81 164.552C107.113 165.595 106.742 166.82 106.742 168.075V168.075C106.744 169.756 107.412 171.367 108.601 172.556C109.79 173.745 111.401 174.413 113.082 174.415V174.415Z" fill="#E6E6E6"/>
<path d="M184.371 223.039H179.313L176.906 203.529L184.372 203.529L184.371 223.039Z" fill="#FFB8B8"/>
<path d="M174.21 221.594H185.455V227.736H169.557V226.246C169.557 225.012 170.048 223.829 170.92 222.956C171.792 222.084 172.976 221.594 174.21 221.594Z" fill="#2F2E41"/>
<path d="M204.588 223.039H199.53L197.123 203.529L204.589 203.529L204.588 223.039Z" fill="#FFB8B8"/>
<path d="M194.426 221.594H205.672V227.736H189.774V226.246C189.774 225.012 190.264 223.829 191.137 222.956C192.009 222.084 193.193 221.594 194.426 221.594Z" fill="#2F2E41"/>
<path d="M175.558 166.795C175.971 166.408 176.293 165.935 176.504 165.41C176.714 164.885 176.806 164.32 176.774 163.755C176.742 163.191 176.587 162.64 176.32 162.142C176.052 161.643 175.678 161.21 175.225 160.872L177.392 152.3L172.504 149.713L169.614 161.86C169.096 162.66 168.89 163.621 169.034 164.562C169.177 165.504 169.662 166.36 170.394 166.968C171.127 167.576 172.057 167.894 173.009 167.862C173.961 167.831 174.868 167.451 175.558 166.795Z" fill="#FFB8B8"/>
<path d="M206.387 151.824L205.974 180.705L205.562 218.664L196.485 217.838L191.946 165.439L186.17 217.838H176.799L175.855 165.027L179.156 153.474L206.387 151.824Z" fill="#2F2E41"/>
<path d="M178.251 153.65L178.118 153.591L183.291 118.207L180.661 107.512C180.525 106.956 180.597 106.369 180.864 105.862C181.132 105.355 181.576 104.964 182.112 104.763L186.844 102.988L188.516 98.3911L201.705 99.8124L202.029 103.405C203.459 103.864 215.228 107.783 214.416 112.25C213.615 116.658 208.882 130.527 208.642 131.23L207.813 151.121L207.711 151.172C207.588 151.233 198.497 155.703 188.621 155.702C185.143 155.702 181.566 155.147 178.251 153.65Z" fill="#3F3D56"/>
<path d="M169.443 157.364L173.601 130.751C173.626 130.595 176.086 115.015 176.902 110.12C177.745 105.066 181.657 105.008 181.696 105.008H183.849L186.368 116.341L181.407 139.079L176.829 157.922L169.443 157.364Z" fill="#3F3D56"/>
<path d="M196.415 154.738C196.442 154.173 196.592 153.621 196.856 153.12C197.119 152.62 197.489 152.183 197.939 151.841C198.389 151.498 198.909 151.259 199.462 151.14C200.015 151.02 200.587 151.023 201.139 151.149L206.255 143.938L211.395 145.979L204.027 156.06C203.754 156.972 203.157 157.753 202.347 158.254C201.538 158.756 200.572 158.943 199.634 158.78C198.696 158.617 197.85 158.115 197.257 157.37C196.663 156.625 196.364 155.689 196.415 154.738Z" fill="#FFB8B8"/>
<path d="M202.028 148.537L211.124 133.238L207.418 123.355L212.466 109.894L212.652 109.974C212.774 110.027 215.642 111.306 216.067 115.89L221.868 134.12L206.387 154.204L202.028 148.537Z" fill="#3F3D56"/>
<path d="M202.926 91.1745C205.442 86.5725 203.751 80.8024 199.148 78.2867C194.546 75.771 188.776 77.4623 186.261 82.0643C183.745 86.6664 185.436 92.4365 190.038 94.9522C194.64 97.4679 200.41 95.7766 202.926 91.1745Z" fill="#FFB8B8"/>
<path d="M188.217 81.9939C189.201 83.1573 190.864 83.4856 192.399 83.6202C195.516 83.8935 200.048 83.4501 203.094 82.7469C203.311 84.8539 202.718 87.1258 203.959 88.859C204.541 86.7607 204.879 84.6023 204.967 82.4266C205.005 81.4935 204.99 80.5282 204.611 79.6717C204.232 78.8151 203.405 78.0879 202.453 78.0803C203.16 77.5436 203.989 77.1893 204.866 77.0487L201.85 75.5334L202.625 74.7384L197.166 74.4043L198.747 73.3999C196.367 73.0729 193.959 72.9969 191.564 73.1731C190.451 73.2551 189.288 73.4116 188.387 74.0562C187.485 74.7008 186.965 75.9818 187.524 76.9282C186.824 77.0432 186.164 77.3352 185.608 77.7764C185.052 78.2177 184.618 78.7937 184.346 79.4497C183.944 80.4685 183.981 81.6 184.105 82.6855C184.311 84.4218 184.714 86.1288 185.308 87.7734" fill="#2F2E41"/>
</g>
<defs>
<clipPath id="clip0_217_678">
<rect width="240" height="227.768" fill="white"/>
</clipPath>
</defs>
</svg>
